<svg xmlns="http://www.w3.org/2000/svg" viewBox="0 0 50 50">
  <g fill="none" fill-rule="evenodd">
    <path fill="#000" d="M23.72880502 27.1416549c-12.62309385 4.0674045-.7e-7 19.2440594-.7e-7 19.2440594S46.1325596 38.9424122 48.2929216 33.0420336c2.1603621-5.9003787-11.9410228-9.9677834-24.56411658-5.9003787z" opacity=".1"/>
    <path fill="#FFF" d="M31.3786196 19.17942862c0 4.04123588-3.2423456 7.31762618-7.24264215 7.31762618-4.0002965 0-7.24264214-3.2763903-7.24264214-7.31762618 0-4.04229962 3.24234566-7.3186899 7.24264217-7.3186899 4.00029655 0 7.24264215 3.27639028 7.24264215 7.3186899"/>
    <path fill="#00FF00" d="M24.4763512 3.51691357c-8.34421245 0-15.13681516 6.69239458-15.13681516 14.92777883 0 .0732705 0 .1519285.00323252.2219664-.06141788 2.0817431.38682494 12.1079437 13.58843794 27.0594277.39329.4353127.9676011.7036119 1.5613073.7036119.6077139 0 1.1734049-.2682992 1.5656174-.7036119 13.9106125-15.7585366 13.6692509-25.9722234 13.5679653-27.3859122-.0474103-8.185819-6.8260055-14.82326073-15.1497453-14.82326073zm.0792043 22.50530863c4.1237262 0 7.4666667-3.3429405 7.4666667-7.4666667 0-4.1237261-3.3429405-7.46666663-7.4666667-7.46666663-4.1237261 0-7.46666663 3.34294053-7.46666663 7.46666663 0 4.1237262 3.34294053 7.4666667 7.46666663 7.4666667z"/>
  </g>
</svg>
