<svg xmlns="http://www.w3.org/2000/svg" width="179px" height="27px" viewBox="0 0 897 135.6">
  <style>
    .st0{fill:#FFFFFF;} .st1{fill:#AAAAAA;}
  </style>
  <g id="XMLID_1_">
    <path id="XMLID_5_" d="M269.5 35.8h-9c-.8-6.1-3.7-9.1-8.6-9.1-3.2 0-5.6.8-7.2 2.3s-2.4 3.8-2.4 6.9c0 2.3.9 4.4 2.7 6.4L264.3 64c3.6 4 5.3 8.3 5.3 12.8v4.6c0 4.9-1.8 9.2-5.3 12.8-3.6 3.6-7.8 5.4-12.8 5.4h-9.1c-6 0-10.6-1.5-13.6-4.6-3-3-4.6-7.6-4.6-13.6h9.1c-.1.6-.1 1.1-.1 1.5 0 2.5 1 4.3 2.9 5.6 1.9 1.3 4 1.9 6.3 1.9 3.2 0 5.6-.8 7-2.3 1.4-1.6 2.1-3.8 2.1-6.8 0-2.3-.9-4.4-2.7-6.4l-19.3-21.6c-3.6-3.9-5.3-8.2-5.3-12.8v-4.6c0-4.9 1.8-9.2 5.3-12.8 3.6-3.6 7.8-5.4 12.8-5.4h9.1c11.4-.1 17.4 6 18.1 18.1z" class="st0"/>
    <path id="XMLID_7_" d="M287.8 26.7v-9.1H306v9.1h-18.2zm0 72.8V35.8H306v63.7h-18.2z" class="st0"/>
    <path id="XMLID_11_" d="M360.6 63.1v-9c0-2.5-.9-4.6-2.7-6.4-1.8-1.8-3.9-2.7-6.4-2.7h-9.1c-5.4 0-8.4 3-9 9.1h-9.1c1.4-12.2 7.4-18.2 18.2-18.2h18.2c5 0 9.2 1.8 12.8 5.4 3.6 3.6 5.3 7.9 5.3 12.9v45.4h-18.2v-9.1c-.7 6.1-3.8 9.1-9.1 9.1h-9.1c-5 0-9.2-1.8-12.8-5.3-3.6-3.6-5.3-7.8-5.3-12.8v-.1c0-5 1.8-9.2 5.4-12.8 3.6-3.6 7.8-5.3 12.8-5.3h18.1zm0 9.1h-9.1c-2.5 0-4.6.9-6.4 2.7-1.8 1.8-2.7 3.9-2.7 6.4v.1c0 2.4.9 4.6 2.7 6.4 1.8 1.8 3.9 2.7 6.5 2.7 2.5 0 4.7-.9 6.5-2.7 1.8-1.8 2.7-3.9 2.7-6.4v-9.2z" class="st0"/>
    <path id="XMLID_14_" d="M451.5 99.5h-18.2V54c0-2.5-.9-4.6-2.7-6.4-1.8-1.8-3.9-2.7-6.4-2.7-2.5 0-4.6.9-6.4 2.7-1.8 1.8-2.7 3.9-2.7 6.4v45.4h-18.2V35.8h18.2v9.1c.4-3.1 1.3-5.4 2.8-6.9 1.5-1.5 3.6-2.3 6.3-2.3h9.1c6.2 0 10.7 2.1 13.6 6.4 1.4-2.2 3.3-3.8 5.5-4.8 2.3-1.1 5-1.6 8.1-1.6h9c5 0 9.3 1.8 12.9 5.3 3.6 3.6 5.4 7.9 5.4 12.9v45.4h-18.2V54c0-2.5-.9-4.6-2.7-6.4-1.8-1.8-3.9-2.7-6.4-2.7-2.5 0-4.6.9-6.4 2.7-1.8 1.8-2.7 3.9-2.7 6.4v45.5z" class="st0"/>
    <path id="XMLID_16_" d="M551.5 35.8h-9c-.8-6.1-3.7-9.1-8.6-9.1-3.2 0-5.6.8-7.2 2.3-1.6 1.5-2.4 3.8-2.4 6.9 0 2.3.9 4.4 2.7 6.4L546.3 64c3.6 4 5.3 8.3 5.3 12.8v4.6c0 4.9-1.8 9.2-5.3 12.8-3.6 3.6-7.8 5.4-12.8 5.4h-9.1c-6 0-10.6-1.5-13.6-4.6-3-3-4.6-7.6-4.6-13.6h9.1c-.1.6-.1 1.1-.1 1.5 0 2.5 1 4.3 2.9 5.6 1.9 1.3 4 1.9 6.3 1.9 3.2 0 5.6-.8 7-2.3 1.4-1.6 2.1-3.8 2.1-6.8 0-2.3-.9-4.4-2.7-6.4l-19.3-21.6c-3.6-3.9-5.3-8.2-5.3-12.8v-4.6c0-4.9 1.8-9.2 5.3-12.8 3.6-3.6 7.8-5.4 12.8-5.4h9.1c11.3-.1 17.3 6 18.1 18.1z" class="st1"/>
    <path id="XMLID_18_" d="M624.3 35.8v81.8H606l.1-27.3c-.7 6.1-3.8 9.1-9.1 9.1h-9.1c-5 0-9.2-1.8-12.8-5.4-3.6-3.6-5.3-7.9-5.3-12.9V53.9c0-4.9 1.8-9.2 5.3-12.8 3.6-3.6 7.8-5.4 12.8-5.4h36.4zm-18.2 9.1H597c-2.5 0-4.6.9-6.4 2.7-1.8 1.8-2.7 3.9-2.7 6.4v27.3c0 2.5.9 4.6 2.7 6.4 1.8 1.8 3.9 2.7 6.5 2.7s4.7-.9 6.5-2.7c1.8-1.8 2.7-3.9 2.7-6.4V44.9z" class="st1"/>
    <path id="XMLID_21_" d="M697 35.8v63.7h-18.2v-9.1c-.7 6.1-3.8 9.1-9.1 9.1h-9.1c-5 0-9.2-1.8-12.8-5.3-3.6-3.6-5.3-7.8-5.3-12.8V35.8h18.2v45.5c0 2.4.9 4.6 2.7 6.4 1.8 1.8 3.9 2.7 6.5 2.7 2.5 0 4.7-.9 6.5-2.7 1.8-1.8 2.7-3.9 2.7-6.4V35.8H697z" class="st1"/>
    <path id="XMLID_23_" d="M751.6 63.1v-9c0-2.5-.9-4.6-2.7-6.4-1.8-1.8-3.9-2.7-6.4-2.7h-9.1c-5.4 0-8.4 3-9 9.1h-9.1c1.4-12.2 7.4-18.2 18.2-18.2h18.2c5 0 9.2 1.8 12.8 5.4 3.6 3.6 5.3 7.9 5.3 12.9v45.4h-18.2v-9.1c-.7 6.1-3.8 9.1-9.1 9.1h-9.1c-5 0-9.2-1.8-12.8-5.3-3.6-3.6-5.3-7.8-5.3-12.8v-.1c0-5 1.8-9.2 5.4-12.8 3.6-3.6 7.8-5.3 12.8-5.3h18.1zm0 9.1h-9.1c-2.5 0-4.6.9-6.4 2.7-1.8 1.8-2.7 3.9-2.7 6.4v.1c0 2.4.9 4.6 2.7 6.4 1.8 1.8 3.9 2.7 6.5 2.7 2.5 0 4.7-.9 6.5-2.7 1.8-1.8 2.7-3.9 2.7-6.4v-9.2z" class="st1"/>
    <path id="XMLID_27_" d="M806 99.5h-18.2V35.8H806V54c.7-6.1 2.6-10.6 5.6-13.7 3-3 7.2-4.6 12.6-4.6h9V54H815c-2.5 0-4.6.9-6.4 2.7-1.8 1.8-2.7 3.9-2.7 6.4v36.4z" class="st1"/>
    <path id="XMLID_29_" d="M897 72.2h-36.4v9.1c0 2.4.9 4.6 2.7 6.4 1.8 1.8 3.9 2.7 6.5 2.7h9.1c6 0 9-3 9-9h9.1c-1.4 12.1-7.5 18.2-18.2 18.2h-18.2c-5 0-9.2-1.8-12.8-5.3-3.6-3.6-5.3-7.8-5.3-12.8V54c0-5 1.8-9.3 5.4-12.9 3.6-3.6 7.8-5.3 12.8-5.3h18.2c5 0 9.2 1.8 12.8 5.4 3.6 3.6 5.3 7.9 5.3 12.9v18.1zm-36.4-9.1h18.2v-9c0-2.5-.9-4.6-2.7-6.4-1.8-1.8-3.9-2.7-6.4-2.7-2.5 0-4.6.9-6.4 2.7-1.8 1.8-2.7 3.9-2.7 6.4v9z" class="st1"/>
  </g>
  <g id="XMLID_2_">
    <path id="XMLID_45_" d="M111.8 102.2c-5.5-2.5-10.7-4.8-16-7.2-31-13.9-62-27.9-93-41.8-1.3-.6-1.7-1.2-1.7-2.3.1-7 .1-14 0-21 0-.8.3-1.2 1.1-1.7C19.6 19 36.9 9.7 54.3.4c.9-.5 1.5-.5 2.4-.1 18 8.5 36.1 16.9 54.1 25.4.5.2 1 .7 1 1.1.1 6.4 0 12.9 0 19.5-.6-.3-1.2-.5-1.7-.7-16.8-7.8-33.7-15.5-50.5-23.3-1-.5-1.7-.5-2.7.1-8.8 4.7-17.6 9.4-26.5 14.1-.9.5-1.3 1-1.2 1.8.1 1.6.1 3.1 0 4.7 0 .8.3 1.3 1.2 1.7 10.5 4.8 21 9.7 31.4 14.6 16.4 7.6 32.7 15.2 49.1 22.8.8.4 1.1.8 1.1 1.5v17.1c.1.4-.1.9-.2 1.5z" class="st0"/>
    <path id="XMLID_3_" d="M168.8 24.5c-17.7-7.9-35.3-15.9-53-23.9-.9-.4-1.4-.4-2.2.1l-18 9.9c-.3.2-.7.4-1.1.7.7.3 1.2.6 1.7.8 15.5 7.1 30.9 14.3 46.4 21.4.7.3 1 .7 1 1.4v26.8h26.5V25.1c-.6-.3-.9-.4-1.3-.6z" class="st1"/>
    <g id="XMLID_25_">
      <path id="XMLID_10_" d="M169.1 81.5c-33.5-15.3-66.8-30.6-100.3-46-3.2-1.5-6.5-3-9.8-4.5 0 .4-.1.8-.1 1.1v19.2c0 .8.3 1.3 1.2 1.7 14.1 6.3 28.1 12.7 42.1 19.1 12.7 5.8 25.5 11.5 38.2 17.3 1.1.5 1.5 1 1.4 1.9-.1 1.5-.1 3 0 4.5.1 1-.4 1.5-1.4 2.1-8.6 4.2-17.1 8.4-25.6 12.6-.9.5-1.6.5-2.6 0-17.2-7.8-34.5-15.6-51.8-23.4-.5-.2-1.1-.4-1.7-.7 0 .4-.1.7-.1.9v20.3c0 .8.5 1.1 1.2 1.5 18.1 8.2 36.3 16.9 54.4 25.1.6.3 1.1 1.4 1.6 1.4h2.2c.3 0 .5-.9.8-1.1 17-9.4 33.8-19 50.8-28.4.2-.1.2-.4.5-.5V82c-.4-.2-.7-.3-1-.5z" class="st1"/>
    </g>
    <g id="XMLID_37_">
      <path id="XMLID_4_" d="M76.4 121.8c-16.1-7-32.1-14.1-48.2-21.1-1-.5-1.5-.9-1.5-1.9.1-8.5 0-17 0-25.4 0-1.4-.1-1.4-1.9-1.4-5.1 0-10.3.4-15.4.4-.6 0-1.1.2-1.7.2H-.1v37.6c1 .2 2.1.3 2.7.6 17.6 7.8 35.6 15.5 53.1 23.3 1.2.5 2.2.5 3.3-.2 5.9-3.6 11.8-7.1 17.7-10.6.3-.2.7-.5 1.1-.8-.4-.2-.9-.5-1.4-.7z" class="st0"/>
    </g>
  </g>
</svg>
