<?xml version="1.0" encoding="utf-8"?>
<svg version="1.1" xmlns="http://www.w3.org/2000/svg" xmlns:xlink="http://www.w3.org/1999/xlink" x="0px" y="0px" width="50px" height="50px" viewBox="0 0 600 600" style="enable-background:new 0 0 600 600;" xml:space="preserve">
  <style type="text/css">
    .st0{fill:#FFFFFF;}
    .st1{fill:#AAAAAA;}
  </style>
  <path id="XMLID_45_" class="st0" d="M407,455.7c-20.2-11-39.4-21.5-58.6-32C234.5,361.6,120.6,299.5,6.7,237.5c-4.7-2.6-6.2-5.3-6.2-10.4c0.3-31.3,0.2-62.5,0.1-93.8c0-3.4,0.9-5.5,4-7.4c63.7-41.3,127.4-82.7,191-124.2c3.2-2.1,5.4-2.3,8.8-0.3c66.2,37.8,132.6,75.4,198.8,113.2c1.7,1,3.6,3.2,3.6,4.9c0.2,28.7,0.2,57.4,0.2,87c-2.4-1.2-4.3-2.2-6.2-3.2c-61.8-34.6-123.7-69.1-185.4-103.8c-3.7-2.1-6.2-2-9.8,0.3c-32.3,21.1-64.8,42.1-97.3,62.9c-3.3,2.1-4.6,4.4-4.5,8.2c0.3,7,0.3,14,0,21.1c-0.2,3.7,1.2,5.7,4.5,7.6c38.5,21.6,76.9,43.3,115.4,65.1c60.1,34,120.1,67.9,180.3,101.8c2.8,1.6,3.9,3.4,3.9,6.5c-0.1,25.4,0,50.7,0,76.1C407.9,450.9,407.3,452.9,407,455.7z"/>
  <path id="XMLID_3_" class="st1" d="M595,107.7C530.1,72.3,465.3,36.8,400.5,1.2c-3.2-1.8-5.2-1.7-8.2,0.4c-21.9,14.8-43.9,29.3-66,44c-1.3,0.9-2.4,1.9-4,3.1c2.5,1.4,4.3,2.5,6.2,3.5C385.2,84,442,115.8,498.8,147.5c2.6,1.4,3.5,4.2,3.5,7.4c-0.2,39.7,0,78.6,0,120.6c32.7,0,64.1,0,97.1,0c0-55,0-111.5,0-165.7C597.5,109.1,596.5,108.6,595,107.7z"/>
  <g id="XMLID_25_">
    <path id="XMLID_10_" class="st1" d="M596,361c-122.8-68.3-245.4-136.7-368.2-205c-11.9-6.6-23.7-13.2-36.1-20.1c-0.1,2-0.2,3.4-0.2,4.8c0,28.6,0.1,57.1-0.1,85.7c0,3.7,1.2,5.7,4.6,7.5c51.6,28.3,103.1,56.7,154.7,85c46.8,25.7,93.6,51.5,140.4,77c3.9,2.1,5.4,4.5,5.2,8.7c-0.3,6.7-0.3,13.4,0,20.1c0.2,4.3-1.3,6.9-5.3,9.2c-31.4,18.6-62.8,37.4-94,56.3c-3.4,2.1-5.9,2.1-9.4,0.2c-63.5-35-127.1-69.9-190.6-104.8c-1.9-1-3.9-1.9-6.4-3c-0.2,1.9-0.3,3-0.3,4.1c0,30.2,0,60.3-0.1,90.5c0,3.5,1.7,5,4.5,6.6c66.6,36.5,133.2,74.1,199.7,110.8c2.1,1.2,4,3,6,5c2.7,0,5.3,0,8,0c0.9-2,1.8-2.8,2.8-3.5c62.3-41.8,124.2-84.1,186.6-126c0.7-0.5,0.7-1.3,1.7-1.7c0-35.1,0-70.2,0-105.3C598.5,362.3,597.3,361.7,596,361z"/>
  </g>
  <g id="XMLID_37_">
    <path id="XMLID_4_" class="st0" d="M277.7,543.4c-58.9-31.4-117.9-62.7-176.9-94c-3.8-2-5.3-4.2-5.3-8.5c0.2-37.8,0.1-75.6,0.1-113.4c0-6.2-0.2-6.4-6.8-6.4c-18.8,0-37.7,1.1-56.5,1.1c-2.1,0-4.2,0.3-6.3,0.3c-8,0-17.5,0-25.5,0c0,57,0,112,0,169.1c3,0.9,6.1,1.5,8.4,2.8c64.7,34.6,129.8,69.2,194.3,103.9c4.5,2.4,7.8,2.2,11.8-0.8c21.5-15.9,43.3-31.5,64.9-47.2c1.3-0.9,2.5-2,4.1-3.4C281.6,545.6,279.7,544.5,277.7,543.4z"/>
  </g>
</svg>
