<?xml version="1.0" standalone="no"?>
<!DOCTYPE svg PUBLIC "-//W3C//DTD SVG 1.1//EN" "http://www.w3.org/Graphics/SVG/1.1/DTD/svg11.dtd" >
<svg xmlns="http://www.w3.org/2000/svg" xmlns:xlink="http://www.w3.org/1999/xlink" version="1.1">
<metadata>
Created by FontForge 20151104 at Tue Dec  1 20:22:33 2015
 By sungsit
Copyright 2013-2015, Sungsit Sawaiwan (https://fontuni.com | uni@fontuni.com). This Font Software is licensed under the SIL Open Font License, Version 1.1 (http://scripts.sil.org/OFL).
</metadata>
<defs>
<font id="Boon-700i" horiz-adv-x="0" >
  <font-face 
    font-family="Boon"
    font-weight="700"
    font-style="italic"
    font-stretch="normal"
    units-per-em="1200"
    panose-1="2 0 5 3 0 0 0 0 0 0"
    ascent="960"
    descent="-240"
    x-height="600"
    cap-height="780"
    bbox="-630 -520 1132 1240"
    underline-thickness="60"
    underline-position="-120"
    slope="-9"
    stemh="110"
    stemv="174"
    unicode-range="U+0009-FEFF"
  />
<missing-glyph horiz-adv-x="660" 
d="M20 0l95 600h250h250l-95 -600h-250h-250zM289 120h100l57 360h-100h-100l-57 -360h100z" />
    <glyph glyph-name="uni0EDC" unicode="&#xeab;&#xe99;" horiz-adv-x="1120" 
d="M482 75c37 5 68 21 75 63l43 272c3 21 5 38 5 50c0 26 -7 35 -22 35s-33 -13 -45 -28c-20 -42 -53 -68 -59 -107l-33 -211c-13 -85 -89 -165 -222 -165c-124 0 -178 65 -178 140c0 8 1 17 2 25l24 151c6 41 36 77 64 103c-46 7 -77 38 -77 85c0 6 0 12 1 18
c10 65 67 105 132 105c59 0 99 -33 99 -87c0 -6 0 -12 -1 -18c-12 -75 -59 -118 -73 -206l-25 -156c-1 -6 -1 -12 -1 -17c0 -36 23 -43 49 -43c34 0 67 8 75 60l29 186c4 27 27 53 49 73c-45 8 -75 38 -75 84c0 6 1 13 2 19c10 65 67 105 132 105c47 0 83 -21 95 -57
c31 29 71 57 110 57c73 0 96 -53 96 -119c0 -19 -2 -40 -5 -61l-34 -215c15 -72 42 -122 96 -122c23 0 56 11 69 90l66 416h150l-64 -406c-16 -104 -77 -210 -199 -210c-84 0 -127 41 -152 96c-47 -75 -144 -94 -183 -96zM206 506c0 2 1 5 1 7c0 15 -10 26 -27 26
c-20 0 -33 -14 -36 -33c0 -2 -1 -5 -1 -7c0 -15 10 -26 27 -26c20 0 33 14 36 33zM466 506c0 2 1 5 1 7c0 15 -10 26 -27 26c-20 0 -33 -14 -36 -33c0 -2 -1 -5 -1 -7c0 -15 10 -26 27 -26c20 0 33 14 36 33z" />
    <glyph glyph-name="uni0EDD" unicode="&#xeab;&#xea1;" horiz-adv-x="1120" 
d="M48 149l24 151c6 41 36 77 64 103c-46 7 -77 38 -77 85c0 6 0 12 1 18c10 65 67 105 132 105c59 0 99 -33 99 -87c0 -6 0 -12 -1 -18c-12 -75 -59 -118 -73 -206l-25 -156c-1 -6 -1 -12 -1 -17c0 -36 23 -43 49 -43c34 0 67 8 75 60l29 186c4 27 27 53 49 73
c-45 8 -75 38 -75 84c0 6 1 13 2 19c10 65 67 105 132 105c47 0 83 -21 95 -57c31 29 71 57 110 57c73 0 96 -53 96 -119c0 -19 -2 -40 -5 -61l-35 -221c-2 -12 -2 -22 -3 -32c34 -34 57 -84 110 -84c32 0 48 21 61 100l64 406h150l-64 -406c-16 -104 -72 -210 -194 -210
c-74 0 -110 44 -136 87c-18 -51 -69 -82 -126 -82c-59 0 -99 33 -99 87c0 6 0 12 1 18c9 55 50 92 102 102c-4 9 -7 18 -7 30c0 4 0 9 1 14l27 170c3 21 5 38 5 50c0 26 -7 35 -22 35s-33 -13 -45 -28c-20 -42 -53 -68 -59 -107l-33 -211c-13 -85 -89 -165 -222 -165
c-124 0 -178 65 -178 140c0 8 1 17 2 25zM206 506c0 2 1 5 1 7c0 15 -10 26 -27 26c-20 0 -33 -14 -36 -33c0 -2 -1 -5 -1 -7c0 -15 10 -26 27 -26c20 0 33 14 36 33zM466 506c0 2 1 5 1 7c0 15 -10 26 -27 26c-20 0 -33 -14 -36 -33c0 -2 -1 -5 -1 -7c0 -15 10 -26 27 -26
c20 0 33 14 36 33zM623 94c0 2 1 5 1 7c0 15 -10 26 -27 26c-20 0 -33 -14 -36 -33c0 -2 -1 -5 -1 -7c0 -15 10 -26 27 -26c20 0 33 14 36 33z" />
    <glyph glyph-name="ellipsis" unicode="&#x2e;&#x200d;&#x2e;&#x200d;&#x2e;" horiz-adv-x="870" 
d="M23 82c9 54 55 88 109 88c48 0 82 -27 82 -72c0 -5 0 -10 -1 -16c-9 -54 -55 -88 -109 -88c-48 0 -82 27 -82 72c0 5 0 10 1 16zM293 82c9 54 55 88 109 88c48 0 82 -27 82 -72c0 -5 0 -10 -1 -16c-9 -54 -55 -88 -109 -88c-48 0 -82 27 -82 72c0 5 0 10 1 16zM563 82
c9 54 55 88 109 88c48 0 82 -27 82 -72c0 -5 0 -10 -1 -16c-9 -54 -55 -88 -109 -88c-48 0 -82 27 -82 72c0 5 0 10 1 16z" />
    <glyph glyph-name="uni0E4F.extra" unicode="&#xe4f;&#x200d;&#x2e;&#x200d;&#x2e;" horiz-adv-x="660" 
d="M287 300c0 -3 -1 -5 -1 -7c0 -15 9 -26 26 -26c20 0 34 14 37 33c0 2 1 5 1 7c0 15 -10 26 -27 26c-20 0 -33 -14 -36 -33zM203 300c10 65 66 105 131 105c59 0 100 -33 100 -87c0 -6 0 -12 -1 -18c-10 -65 -67 -105 -132 -105c-59 0 -99 33 -99 87c0 6 0 12 1 18z
M276 40c-154 0 -236 94 -236 216c0 14 1 29 3 44c22 142 144 260 316 260c154 0 237 -94 237 -216c0 -14 -1 -29 -3 -44c-22 -142 -145 -260 -317 -260zM289 120c102 0 186 66 204 180c2 13 3 25 3 37c0 91 -60 143 -150 143c-102 0 -185 -66 -203 -180
c-2 -13 -3 -26 -3 -38c0 -91 59 -142 149 -142zM453 900h120l-63 -270h-80zM253 900h120l-63 -270h-80z" />
    <glyph glyph-name="uni0E240E45.liga" unicode="&#xe24;&#x200d;&#xe45;" horiz-adv-x="950" 
d="M717 615c121 0 178 -71 178 -155c0 -10 0 -20 -2 -30l-101 -640h-150l101 640c1 8 2 16 2 23c0 44 -27 52 -50 52c-50 0 -78 -45 -96 -93c0 -7 -1 -14 -2 -21l-95 -601h-150l95 601c2 10 2 19 2 28c0 66 -46 92 -113 92c-57 0 -102 -24 -130 -72l124 -29l-25 -60
s-18 5 -34 5c-35 0 -44 -25 -48 -50l-10 -65c-3 -18 -11 -32 -21 -44c41 -10 70 -39 70 -83c0 -6 -1 -13 -2 -19c-10 -65 -67 -105 -132 -105c-59 0 -99 33 -99 87c0 6 0 12 1 18c8 48 21 69 28 116l13 80c7 46 34 79 79 95l-110 24c32 105 139 212 313 212
c90 0 158 -28 200 -73c38 38 92 67 164 67zM114 94c0 -2 -1 -5 -1 -7c0 -15 10 -26 27 -26c20 0 33 14 36 33c0 2 1 5 1 7c0 15 -10 26 -27 26c-20 0 -33 -14 -36 -33z" />
    <glyph glyph-name="uni0E260E45.liga" unicode="&#xe26;&#x200d;&#xe45;" horiz-adv-x="960" 
d="M136 94c0 2 1 5 1 7c0 15 -10 26 -27 26c-20 0 -33 -14 -36 -33c0 -2 -1 -5 -1 -7c0 -15 10 -26 27 -26c20 0 33 14 36 33zM563 548c38 38 92 67 164 67c121 0 178 -71 178 -155c0 -10 0 -20 -2 -30l-101 -640h-150l101 640c1 8 2 16 2 23c0 44 -27 52 -50 52
c-50 0 -78 -45 -96 -94c0 -7 -1 -13 -2 -20l-95 -601h-150l95 601c2 10 2 19 2 28c0 66 -46 92 -113 92c-57 0 -102 -24 -129 -71l133 -30l-25 -60s-18 5 -34 5c-35 0 -44 -25 -48 -50l-10 -65l-5 -30c-7 -47 0 -68 -8 -116c-10 -65 -67 -105 -132 -105c-59 0 -99 33 -99 87
c0 6 0 12 1 18c9 54 49 91 100 102c-5 9 -8 20 -8 32c0 4 0 8 1 12l8 50c7 46 33 78 78 94l-119 25c32 105 139 212 313 212c90 0 158 -28 200 -73z" />
    <glyph glyph-name="FontUni" unicode="[FontUni]" horiz-adv-x="840" 
d="M0 40v760c0 22 18 40 40 40h760c22 0 40 -18 40 -40v-760c0 -22 -18 -40 -40 -40h-128v420c0 141 -111 252 -252 252s-252 -111 -252 -252s111 -252 252 -252c18 0 36 2 52 5v-173h-432c-22 0 -40 18 -40 40zM315 420c0 59 46 105 105 105s105 -46 105 -105
s-46 -105 -105 -105s-105 46 -105 105z" />
    <glyph glyph-name=".notdef" horiz-adv-x="660" 
d="M20 0l95 600h250h250l-95 -600h-250h-250zM289 120h100l57 360h-100h-100l-57 -360h100z" />
    <glyph glyph-name="uni0000" 
 />
    <glyph glyph-name="uni0000" 
 />
    <glyph glyph-name="uni0009" unicode="&#x9;" horiz-adv-x="330" 
 />
    <glyph glyph-name="nonmarkingreturn" unicode="&#xd;" horiz-adv-x="330" 
 />
    <glyph glyph-name="space" unicode=" " horiz-adv-x="330" 
 />
    <glyph glyph-name="exclam" unicode="!" horiz-adv-x="330" 
d="M23 82c9 54 55 88 109 88c48 0 82 -27 82 -72c0 -5 0 -10 -1 -16c-9 -54 -55 -88 -109 -88c-48 0 -82 27 -82 72c0 5 0 10 1 16zM93 270l45 540h190l-125 -540h-110z" />
    <glyph glyph-name="quotedbl" unicode="&#x22;" horiz-adv-x="540" 
d="M318 900l-82 -360h-100l32 360h150zM538 900l-82 -360h-100l32 360h150z" />
    <glyph glyph-name="numbersign" unicode="#" horiz-adv-x="810" 
d="M0 190l18 110h146l76 180h-134l17 110h164l82 190h130l-82 -190h150l82 190h130l-82 -190h116l-17 -110h-146l-76 -180h134l-18 -110h-164l-81 -190h-130l81 190h-150l-81 -190h-130l81 190h-116zM370 480l-76 -180h150l76 180h-150z" />
    <glyph glyph-name="dollar" unicode="$" horiz-adv-x="660" 
d="M15 191l167 10c0 -59 45 -96 106 -96c70 0 123 27 135 105c1 6 2 12 2 18c0 54 -45 72 -62 78c-48 16 -112 45 -157 64c-58 26 -116 80 -116 169c0 11 1 23 3 35c16 101 102 198 247 218l18 108h120l-18 -109c138 -25 173 -135 173 -197l-167 -12v3c0 59 -35 90 -88 90
c-47 0 -108 -25 -120 -101c-1 -5 -1 -10 -1 -14c0 -45 41 -62 67 -74c45 -19 107 -45 145 -58c69 -23 123 -75 123 -171c0 -15 -1 -30 -4 -47c-16 -101 -103 -200 -255 -222l-17 -108h-120l17 108c-154 22 -198 133 -198 201v2z" />
    <glyph glyph-name="percent" unicode="%" horiz-adv-x="780" 
d="M0 0l1 8l683 772h100l-2 -8l-682 -772h-100zM178 458c21 0 49 28 63 118l3 19c3 22 5 39 5 54c0 47 -15 63 -31 63c-21 0 -50 -27 -64 -117l-3 -19c-3 -21 -5 -38 -5 -53c0 -48 16 -65 32 -65zM230 791c97 0 121 -71 121 -139c0 -20 -2 -40 -5 -57l-3 -19
c-12 -77 -52 -197 -178 -197c-97 0 -121 72 -121 140c0 20 2 40 5 57l3 19c12 77 52 196 178 196zM566 68c21 0 49 28 63 118l3 19c3 22 5 39 5 54c0 47 -15 63 -31 63c-21 0 -50 -27 -64 -117l-3 -19c-3 -21 -5 -38 -5 -53c0 -48 16 -65 32 -65zM619 401
c97 0 120 -70 120 -138c0 -20 -2 -40 -5 -58l-3 -19c-12 -77 -52 -197 -178 -197c-97 0 -121 72 -121 140c0 20 2 40 5 57l3 19c12 77 53 196 179 196z" />
    <glyph glyph-name="ampersand" unicode="&#x26;" horiz-adv-x="810" 
d="M746 8l-1 -8h-185s-20 26 -49 64c-78 -52 -169 -85 -264 -85c-161 0 -231 78 -231 170c0 10 1 20 3 31c17 109 118 186 225 248c-26 48 -49 104 -49 159c0 10 1 19 2 28c19 121 119 186 230 186c122 0 171 -69 171 -139c0 -8 -1 -16 -2 -24c-13 -84 -75 -166 -170 -226
c31 -39 76 -97 123 -156c32 48 54 104 68 164l136 -20c-19 -84 -66 -168 -129 -239c68 -84 122 -153 122 -153zM304 338c-83 -59 -113 -113 -120 -158c-1 -6 -1 -12 -1 -17c0 -45 33 -62 83 -62c70 0 129 18 178 50c-49 64 -102 136 -140 187zM410 695
c-41 0 -61 -40 -68 -84c-1 -6 -1 -12 -1 -19c0 -29 8 -61 24 -91c56 46 85 101 91 137c1 4 1 8 1 12c0 32 -21 45 -47 45z" />
    <glyph glyph-name="quotesingle" unicode="'" horiz-adv-x="330" 
d="M323 900l-82 -360h-100l32 360h150z" />
    <glyph glyph-name="parenleft" unicode="(" horiz-adv-x="390" 
d="M52 390c35 222 142 396 268 525l94 -40c-109 -119 -184 -277 -217 -485c-10 -61 -14 -117 -14 -170c0 -127 27 -231 77 -315l-106 -40c-67 101 -113 230 -113 387c0 44 3 90 11 138z" />
    <glyph glyph-name="parenright" unicode=")" horiz-adv-x="390" 
d="M342 390c-35 -222 -142 -396 -268 -525l-94 40c109 119 184 277 217 485c10 61 14 117 14 170c0 127 -27 231 -77 315l106 40c67 -101 113 -230 113 -387c0 -44 -3 -90 -11 -138z" />
    <glyph glyph-name="asterisk" unicode="*" horiz-adv-x="570" 
d="M81 668l64 133l153 -86v185h140l-60 -185l181 86l22 -133l-190 -29l112 -132l-126 -82l-58 167l-112 -167l-100 82l154 132z" />
    <glyph glyph-name="plus" unicode="+" horiz-adv-x="600" 
d="M81 415h150l24 155h150l-24 -155h150l-18 -110h-150l-24 -155h-150l24 155h-150z" />
    <glyph glyph-name="comma" unicode="," horiz-adv-x="330" 
d="M22 78c8 53 50 92 110 92c67 0 92 -47 92 -98c0 -9 0 -18 -2 -27c-19 -123 -117 -211 -197 -255l-38 64c48 27 93 72 117 140h-5c-46 0 -78 26 -78 69c0 5 0 10 1 15z" />
    <glyph glyph-name="hyphen" unicode="-" horiz-adv-x="600" 
d="M82 420h450l-19 -120h-450z" />
    <glyph glyph-name="period" unicode="." horiz-adv-x="330" 
d="M23 82c9 54 55 88 109 88c48 0 82 -27 82 -72c0 -5 0 -10 -1 -16c-9 -54 -55 -88 -109 -88c-48 0 -82 27 -82 72c0 5 0 10 1 16z" />
    <glyph glyph-name="slash" unicode="/" horiz-adv-x="510" 
d="M105 0h-145l1 8l448 772h145l-2 -8z" />
    <glyph glyph-name="zero" unicode="0" horiz-adv-x="660" 
d="M44 370l6 40c25 160 104 391 347 391c187 0 233 -136 233 -272c0 -41 -4 -82 -10 -119l-6 -40c-25 -160 -104 -391 -347 -391c-187 0 -233 136 -233 272c0 41 4 82 10 119zM286 101c60 0 132 81 162 269l6 40c6 41 9 76 9 107c0 112 -38 162 -85 162
c-60 0 -132 -81 -162 -269l-6 -40c-6 -41 -9 -76 -9 -107c0 -112 38 -162 85 -162z" />
    <glyph glyph-name="one" unicode="1" horiz-adv-x="660" 
d="M120 630l289 156l118 -12l-102 -644h141l-21 -130h-485l21 130h180l75 475l-165 -93z" />
    <glyph glyph-name="two" unicode="2" horiz-adv-x="660" 
d="M5 60c28 177 193 283 312 352c83 48 141 92 151 158c2 10 2 19 2 28c0 47 -23 81 -89 81c-51 0 -99 -42 -117 -92l-168 16c25 71 119 198 301 198c200 0 236 -120 236 -196c0 -13 -1 -25 -3 -35c-21 -130 -145 -214 -226 -262c-99 -59 -170 -110 -203 -178h365l-21 -130
h-541s-2 10 -2 26c0 10 1 21 3 34z" />
    <glyph glyph-name="three" unicode="3" horiz-adv-x="660" 
d="M71 603c25 71 119 198 301 198c200 0 236 -120 236 -196c0 -13 -1 -25 -3 -35c-13 -81 -63 -133 -119 -168c71 -32 92 -91 92 -142c0 -10 0 -21 -2 -30c-13 -81 -82 -251 -336 -251c-190 0 -244 113 -253 158l168 30c6 -27 26 -68 104 -68c98 0 137 59 147 121
c1 9 2 17 2 25c0 51 -31 80 -106 80h-116l19 120h100c75 0 127 53 138 125c2 10 2 19 2 28c0 47 -23 81 -89 81c-51 0 -99 -42 -117 -92z" />
    <glyph glyph-name="four" unicode="4" horiz-adv-x="660" 
d="M329 180h-333v80l448 526l139 -12l-75 -474h125l-19 -120h-125l-29 -180h-160zM353 300l41 260l-216 -260h175z" />
    <glyph glyph-name="five" unicode="5" horiz-adv-x="660" 
d="M7 137l168 30c6 -27 26 -68 104 -68c98 0 139 69 150 141c2 14 3 28 3 41c0 58 -24 100 -94 100c-58 0 -111 -45 -150 -91l-1 1v-1l-110 64l83 426h477l-19 -120h-322l-39 -196c35 18 79 32 133 32c177 0 213 -128 213 -209c0 -14 -1 -27 -3 -37
c-13 -84 -86 -271 -340 -271c-190 0 -244 113 -253 158z" />
    <glyph glyph-name="six" unicode="6" horiz-adv-x="660" 
d="M53 301l21 133c18 115 77 367 337 367c188 0 224 -127 230 -169l-166 -26c-5 36 -23 73 -83 73c-74 0 -122 -80 -148 -220c40 23 87 36 142 36c146 0 216 -93 216 -208c0 -15 -2 -31 -4 -47c-21 -133 -131 -261 -317 -261c-164 0 -235 96 -235 239c0 26 2 54 7 83z
M433 240c2 14 3 27 3 39c0 75 -44 102 -98 102c-49 0 -98 -29 -123 -101c-3 -21 -4 -40 -4 -57c0 -107 51 -122 89 -122c54 0 116 32 133 139z" />
    <glyph glyph-name="seven" unicode="7" horiz-adv-x="660" 
d="M93 650l21 130h538l-3 -91c-123 -135 -294 -398 -331 -629l-10 -60h-175l10 60c32 201 178 425 305 590h-355z" />
    <glyph glyph-name="eight" unicode="8" horiz-adv-x="660" 
d="M267 -21c-166 0 -262 89 -262 199c0 10 1 21 3 32c18 113 116 164 180 191c-47 27 -89 71 -89 142c0 10 0 20 2 31c19 119 132 227 296 227c148 0 227 -88 227 -193c0 -11 -1 -22 -3 -34c-14 -90 -77 -142 -141 -173c51 -24 121 -69 121 -160c0 -10 -1 -20 -3 -31
c-20 -124 -149 -231 -331 -231zM286 99c76 0 130 35 142 111c1 9 2 17 2 24c0 53 -33 76 -65 91c-10 5 -25 11 -41 18c-18 -7 -35 -13 -47 -18c-43 -17 -88 -44 -99 -115c-1 -8 -2 -17 -2 -24c0 -60 42 -87 110 -87zM378 681c-44 0 -99 -26 -112 -107c-1 -8 -2 -16 -2 -23
c0 -46 26 -71 49 -81c9 -3 19 -8 30 -12c13 4 23 9 32 12c31 12 71 43 81 104c1 9 2 18 2 26c0 61 -41 81 -80 81z" />
    <glyph glyph-name="nine" unicode="9" horiz-adv-x="660" 
d="M611 479l-21 -133c-18 -115 -77 -367 -337 -367c-188 0 -225 127 -231 169l167 26c5 -36 23 -73 83 -73c74 0 122 80 148 220c-40 -23 -88 -36 -143 -36c-145 0 -215 93 -215 208c0 15 2 31 4 47c21 133 131 261 317 261c164 0 235 -96 235 -239c0 -26 -2 -54 -7 -83z
M231 540c-2 -14 -3 -27 -3 -39c0 -75 43 -102 97 -102c49 0 98 29 123 101c3 22 4 41 4 58c0 107 -50 121 -88 121c-54 0 -116 -32 -133 -139z" />
    <glyph glyph-name="colon" unicode=":" horiz-adv-x="330" 
d="M23 82c9 54 55 88 109 88c48 0 82 -27 82 -72c0 -5 0 -10 -1 -16c-9 -54 -55 -88 -109 -88c-48 0 -82 27 -82 72c0 5 0 10 1 16zM90 502c9 54 54 88 108 88c49 0 83 -27 83 -72c0 -5 0 -11 -1 -16c-9 -54 -55 -88 -109 -88c-48 0 -82 27 -82 72c0 5 0 10 1 16z" />
    <glyph glyph-name="semicolon" unicode=";" horiz-adv-x="330" 
d="M22 78c8 53 50 92 110 92c67 0 92 -47 92 -98c0 -9 0 -18 -2 -27c-19 -123 -117 -211 -197 -255l-38 64c48 27 93 72 117 140h-5c-46 0 -78 26 -78 69c0 5 0 10 1 15zM90 502c9 54 54 88 108 88c49 0 83 -27 83 -72c0 -5 0 -11 -1 -16c-9 -54 -55 -88 -109 -88
c-48 0 -82 27 -82 72c0 5 0 10 1 16z" />
    <glyph glyph-name="less" unicode="&#x3c;" horiz-adv-x="600" 
d="M65 315l7 45l7 45l461 255l10 -125l-328 -175l272 -175l-49 -125z" />
    <glyph glyph-name="equal" unicode="=" horiz-adv-x="600" 
d="M63 300h450l-19 -115h-450zM100 535h450l-18 -115h-450z" />
    <glyph glyph-name="greater" unicode="&#x3e;" horiz-adv-x="600" 
d="M529 405l-7 -45l-7 -45l-460 -255l-11 125l328 175l-272 175l50 125z" />
    <glyph glyph-name="question" unicode="?" horiz-adv-x="570" 
d="M143 82c9 54 55 88 109 88c48 0 82 -27 82 -72c0 -5 0 -10 -1 -16c-9 -54 -55 -88 -109 -88c-48 0 -82 27 -82 72c0 5 0 10 1 16zM81 640c16 104 123 191 276 191c132 0 206 -66 206 -166c0 -11 -1 -23 -3 -35c-26 -163 -222 -199 -238 -300c-1 -6 -1 -12 -1 -17
c0 -10 1 -19 4 -28l-132 -15c-7 16 -11 32 -11 49c0 7 1 14 2 21c24 154 187 170 205 285c1 8 2 16 2 23c0 50 -33 60 -59 60c-39 0 -73 -19 -81 -68c-1 -7 -2 -15 -2 -22c0 -10 1 -20 4 -28l-166 -40c-5 19 -8 40 -8 60c0 10 0 20 2 30z" />
    <glyph glyph-name="at" unicode="@" horiz-adv-x="1020" 
d="M48 238c40 251 259 542 574 542c232 0 337 -143 337 -314c0 -23 -2 -47 -6 -71c-26 -161 -151 -364 -310 -364c-57 0 -82 26 -91 57c-39 -37 -86 -63 -138 -63c-127 0 -166 85 -166 165c0 14 1 27 3 40c21 133 146 337 357 337c90 0 119 -60 119 -113c0 -8 -1 -16 -2 -23
c-7 -45 -45 -137 -45 -139c-20 -60 -32 -105 -37 -135c-1 -8 -2 -15 -2 -21c0 -16 5 -25 15 -25c63 0 182 129 207 284c3 22 5 43 5 63c0 140 -82 242 -259 242c-241 0 -435 -233 -471 -462c-4 -25 -6 -50 -6 -74c0 -155 87 -274 293 -274c64 0 150 34 176 48l40 -66
c-39 -22 -135 -62 -229 -62c-264 0 -371 162 -371 347c0 27 3 54 7 81zM428 115c61 0 107 65 147 193c0 1 36 97 40 123c1 6 1 11 1 16c0 26 -13 30 -22 30c-87 0 -203 -120 -223 -247c-2 -12 -3 -23 -3 -33c0 -58 30 -82 60 -82z" />
    <glyph glyph-name="A" unicode="A" horiz-adv-x="750" 
d="M690 0h-190l-25 150h-272l-73 -150h-190l2 11l427 769h140l183 -769zM455 270l-50 296l-144 -296h194z" />
    <glyph glyph-name="B" unicode="B" horiz-adv-x="745" 
d="M551 440c85 -30 134 -87 134 -169c0 -12 -1 -23 -3 -36c-24 -150 -173 -244 -373 -244c-138 0 -294 9 -294 9l124 780s147 9 271 9c144 0 255 -61 255 -171c0 -9 0 -18 -2 -28c-11 -71 -55 -119 -112 -150zM383 464c46 6 101 38 113 111c1 6 2 12 2 18
c0 55 -47 77 -127 77c-39 0 -77 -2 -90 -3l-33 -205c41 1 88 2 135 2zM193 115c31 -2 76 -4 115 -4c102 0 192 25 208 124c1 8 2 16 2 23c0 79 -78 96 -172 96c-39 0 -85 -2 -116 -4z" />
    <glyph glyph-name="C" unicode="C" horiz-adv-x="755" 
d="M44 375l5 30c28 175 141 396 430 396c212 0 281 -137 283 -219l-176 -16c-1 50 -41 107 -127 107c-117 0 -204 -91 -232 -268l-5 -30c-5 -30 -7 -57 -7 -82c0 -123 57 -186 154 -186c86 0 144 57 161 107l171 -16c-28 -82 -140 -219 -352 -219c-242 0 -312 155 -312 308
c0 30 2 60 7 88z" />
    <glyph glyph-name="D" unicode="D" horiz-adv-x="770" 
d="M203 114c19 0 39 -1 55 -1c185 0 271 102 297 267l3 20c4 26 6 50 6 73c0 122 -62 194 -218 194c-16 0 -37 -1 -56 -1zM139 780c0 0 113 9 226 9c279 0 369 -155 369 -316c0 -24 -2 -49 -6 -73l-3 -20c-29 -183 -165 -389 -486 -389c-113 0 -224 9 -224 9z" />
    <glyph glyph-name="E" unicode="E" horiz-adv-x="675" 
d="M15 0l124 780h545l-21 -130h-375l-33 -205h335l-19 -120h-335l-30 -195h390l-21 -130h-560z" />
    <glyph glyph-name="F" unicode="F" horiz-adv-x="640" 
d="M15 0l124 780h535l-21 -130h-363l-32 -200h323l-20 -130h-323l-51 -320h-172z" />
    <glyph glyph-name="G" unicode="G" horiz-adv-x="770" 
d="M400 285l19 120h310l-43 -270c-52 -69 -163 -156 -337 -156c-242 0 -312 155 -312 308c0 30 2 60 7 88l5 30c28 175 141 396 430 396c212 0 281 -137 283 -219l-174 -16c-1 50 -41 109 -129 109c-121 0 -207 -89 -236 -270l-5 -30c-5 -31 -7 -59 -7 -84
c0 -125 57 -186 158 -186c86 0 135 26 166 55l20 125h-155z" />
    <glyph glyph-name="H" unicode="H" horiz-adv-x="790" 
d="M15 0l124 780h170l-52 -325h300l52 325h170l-124 -780h-170l51 325h-300l-51 -325h-170z" />
    <glyph glyph-name="I" unicode="I" horiz-adv-x="320" 
d="M15 0l124 780h170l-124 -780h-170z" />
    <glyph glyph-name="J" unicode="J" horiz-adv-x="520" 
d="M-32 143l172 12c0 -46 20 -56 41 -56c20 0 51 7 61 70l97 611h170l-97 -611c-15 -97 -106 -190 -250 -190c-142 0 -194 88 -194 162v2z" />
    <glyph glyph-name="K" unicode="K" horiz-adv-x="715" 
d="M15 0l124 780h164l-50 -313l316 313l187 -13l-1 -8l-353 -314l264 -437l-1 -8h-199l-190 332l-52 -45l-45 -287h-164z" />
    <glyph glyph-name="L" unicode="L" horiz-adv-x="570" 
d="M15 0l124 780h172l-103 -650h313l-21 -130h-485z" />
    <glyph glyph-name="M" unicode="M" horiz-adv-x="880" 
d="M745 0h-168l74 466l-200 -271h-80l-114 271l-74 -466h-168l121 765l143 15l159 -412l291 412l137 -15z" />
    <glyph glyph-name="N" unicode="N" horiz-adv-x="790" 
d="M15 0l121 765l148 15l248 -507l81 507h166l-124 -780h-145l-249 507l-80 -507h-166z" />
    <glyph glyph-name="O" unicode="O" horiz-adv-x="820" 
d="M44 373l5 34c28 174 139 394 428 394c241 0 309 -152 309 -304c0 -30 -2 -61 -7 -90l-5 -34c-28 -174 -138 -394 -427 -394c-241 0 -310 153 -310 305c0 30 2 60 7 89zM366 104c121 0 206 93 234 269l5 34c5 30 7 58 7 83c0 122 -55 186 -155 186
c-121 0 -206 -93 -234 -269l-5 -34c-5 -30 -7 -58 -7 -83c0 -122 55 -186 155 -186z" />
    <glyph glyph-name="P" unicode="P" horiz-adv-x="710" 
d="M250 424c24 -1 55 -3 87 -3c102 0 190 25 206 124c1 8 2 17 2 24c0 79 -76 100 -169 100c-32 0 -64 -2 -88 -3zM231 303l-48 -303h-168l49 310l75 470s138 9 276 9c183 0 299 -79 299 -207c0 -12 -1 -24 -3 -37c-24 -150 -173 -244 -373 -244c-37 0 -73 1 -107 2z" />
    <glyph glyph-name="Q" unicode="Q" horiz-adv-x="820" 
d="M355 250l78 85l122 -108c20 39 36 88 45 146l5 34c5 30 7 58 7 83c0 122 -55 186 -155 186c-121 0 -206 -93 -234 -269l-5 -34c-5 -30 -7 -58 -7 -83c0 -122 55 -186 155 -186c41 0 80 11 112 32zM44 373l5 34c28 174 139 394 428 394c241 0 309 -152 309 -304
c0 -30 -2 -61 -7 -90l-5 -34c-13 -81 -44 -173 -103 -247l87 -77l-85 -94l-94 87c-60 -39 -136 -63 -232 -63c-241 0 -310 153 -310 305c0 30 2 60 7 89z" />
    <glyph glyph-name="R" unicode="R" horiz-adv-x="730" 
d="M268 302c-12 0 -25 1 -37 1l-48 -303h-168l49 310l75 470s138 9 276 9c183 0 299 -79 299 -207c0 -12 -1 -24 -3 -37c-19 -120 -118 -204 -260 -233l205 -304l-1 -8h-192zM250 424c24 -1 55 -3 87 -3c102 0 190 25 206 124c1 8 2 17 2 24c0 79 -76 100 -169 100
c-32 0 -64 -2 -88 -3z" />
    <glyph glyph-name="S" unicode="S" horiz-adv-x="710" 
d="M9 184l172 24c1 -52 41 -107 130 -107c99 0 156 38 167 106c1 6 1 13 1 18c0 49 -37 64 -64 72c-54 15 -134 43 -188 63c-63 25 -143 77 -143 177c0 10 1 21 3 32c21 132 158 232 335 232c189 0 260 -123 263 -201l-172 -24c-1 52 -39 103 -110 103
c-81 0 -140 -40 -150 -102c-1 -4 -1 -9 -1 -13c0 -40 35 -53 71 -68c49 -18 127 -44 174 -59c74 -24 150 -77 150 -183c0 -12 -1 -25 -3 -39c-21 -133 -157 -236 -352 -236c-205 0 -281 125 -283 205z" />
    <glyph glyph-name="T" unicode="T" horiz-adv-x="620" 
d="M59 655l20 125h590l-20 -125h-210l-104 -655h-170l104 655h-210z" />
    <glyph glyph-name="U" unicode="U" horiz-adv-x="770" 
d="M44 246l85 534h172l-85 -534c-2 -12 -3 -22 -3 -32c0 -79 54 -111 128 -111c83 0 155 40 171 143l85 534h172l-85 -534c-23 -147 -165 -267 -362 -267c-179 0 -281 99 -281 227c0 13 1 27 3 40z" />
    <glyph glyph-name="V" unicode="V" horiz-adv-x="750" 
d="M64 754l2 11l203 15l82 -552l258 552l197 -15l-2 -11l-419 -754h-140z" />
    <glyph glyph-name="W" unicode="W" horiz-adv-x="1060" 
d="M69 754l2 10l188 16l41 -533l220 513h140l58 -513l211 533l182 -16l-2 -10l-344 -754h-145l-68 518l-232 -518h-145z" />
    <glyph glyph-name="X" unicode="X" horiz-adv-x="740" 
d="M99 754l2 10l191 16l101 -254l183 254l185 -16l-2 -10l-288 -340l220 -406l-1 -8h-197l-140 274l-226 -274h-197l1 8l350 406z" />
    <glyph glyph-name="Y" unicode="Y" horiz-adv-x="670" 
d="M54 754l2 11l193 15l97 -330l203 330l187 -15l-2 -11l-328 -464l-46 -290h-170l46 290z" />
    <glyph glyph-name="Z" unicode="Z" horiz-adv-x="670" 
d="M-25 96l481 554h-363l21 130h577l-4 -96l-478 -554h402l-21 -130h-618z" />
    <glyph glyph-name="bracketleft" unicode="[" horiz-adv-x="435" 
d="M26 -120l162 1020h255l-16 -95h-120l-131 -830h118l-15 -95h-253z" />
    <glyph glyph-name="backslash" unicode="\" horiz-adv-x="510" 
d="M295 0l-203 772l2 8h125l202 -772l-1 -8h-125z" />
    <glyph glyph-name="bracketright" unicode="]" horiz-adv-x="435" 
d="M413 900l-162 -1020h-255l15 95h120l131 830h-118l16 95h253z" />
    <glyph glyph-name="asciicircum" unicode="^" horiz-adv-x="630" 
d="M49 595l319 305h60l221 -305l-88 -55l-190 192l-250 -192z" />
    <glyph glyph-name="underscore" unicode="_" horiz-adv-x="600" 
d="M-60 0h600l-19 -120h-600z" />
    <glyph glyph-name="grave" unicode="`" horiz-adv-x="390" 
d="M409 595l-88 -55l-268 271l135 89z" />
    <glyph glyph-name="a" unicode="a" horiz-adv-x="625" 
d="M8 174c12 75 87 156 237 156c52 0 103 -3 146 -7l14 89c1 8 2 16 2 23c0 55 -40 72 -87 72s-90 -26 -109 -92l-158 12c28 92 122 194 285 194c143 0 224 -77 224 -178c0 -10 0 -21 -2 -31l-40 -257c-2 -11 -3 -19 -3 -27c0 -26 12 -36 47 -41l-57 -103
c-35 5 -96 18 -117 72c-42 -41 -102 -72 -183 -72c-131 0 -202 61 -202 156c0 11 1 22 3 34zM384 230c-40 5 -93 9 -144 9c-28 0 -70 -17 -78 -67c-1 -7 -2 -14 -2 -20c0 -55 43 -73 83 -73c77 0 116 56 137 124z" />
    <glyph glyph-name="b" unicode="b" horiz-adv-x="675" 
d="M146 0h-136l128 810h155l-43 -271c44 45 101 77 168 77c159 0 211 -125 211 -242c0 -22 -2 -43 -5 -64l-3 -20c-21 -130 -115 -306 -304 -306c-73 0 -119 38 -149 89zM223 364l-21 -128c5 -79 43 -136 114 -136c65 0 123 53 145 190l3 20c4 25 6 47 6 67
c0 88 -38 123 -91 123c-71 0 -125 -57 -156 -136z" />
    <glyph glyph-name="c" unicode="c" horiz-adv-x="605" 
d="M391 168l158 -14c-21 -64 -109 -175 -282 -175c-195 0 -247 123 -247 239c0 24 2 48 6 70l3 24c21 130 103 309 339 309c173 0 227 -111 228 -175l-164 -14c-1 36 -31 73 -82 73c-70 0 -136 -59 -157 -193l-3 -24c-3 -22 -5 -42 -5 -60c0 -91 42 -133 100 -133
c51 0 93 37 106 73z" />
    <glyph glyph-name="d" unicode="d" horiz-adv-x="680" 
d="M26 290l3 20c21 130 115 306 304 306c67 0 112 -32 142 -77l43 271h155l-103 -655c-2 -11 -3 -19 -3 -27c0 -26 12 -36 47 -41l-57 -103c-43 6 -124 24 -124 114v2c-48 -64 -116 -116 -201 -116c-159 0 -211 125 -211 242c0 22 2 43 5 64zM448 364
c-5 79 -43 136 -114 136c-65 0 -123 -53 -145 -190l-3 -20c-4 -25 -6 -47 -6 -67c0 -88 38 -123 91 -123c71 0 125 57 156 136z" />
    <glyph glyph-name="e" unicode="e" horiz-adv-x="640" 
d="M25 287l5 26c21 131 108 308 336 308c165 0 234 -107 234 -220c0 -15 -1 -29 -3 -44c-5 -31 -14 -62 -25 -92h-393c-2 -14 -2 -28 -2 -40c0 -91 41 -134 105 -134c59 0 103 40 115 76l152 -14c-22 -66 -113 -174 -284 -174c-194 0 -246 122 -246 239c0 24 2 47 6 69z
M197 365h251c2 13 3 25 3 36c0 79 -45 108 -102 108c-66 0 -124 -47 -152 -144z" />
    <glyph glyph-name="f" unicode="f" horiz-adv-x="400" 
d="M39 500l16 100h80l11 67c9 58 63 164 209 164c84 0 132 -40 144 -51l-80 -85c-11 8 -37 26 -70 26c-24 0 -43 -20 -48 -54l-11 -67h135l-16 -100h-130l-79 -500h-160l79 500h-80z" />
    <glyph glyph-name="g" unicode="g" horiz-adv-x="670" 
d="M30 315c20 125 114 301 303 301c73 0 119 -38 149 -89l22 73h136l-97 -615c-19 -120 -135 -216 -293 -216c-154 0 -224 72 -234 114l155 42c4 -16 31 -47 97 -47c63 0 113 29 125 107l18 113c-45 -48 -104 -84 -174 -84c-160 0 -212 126 -212 241c0 21 2 41 5 60z
M448 364c-5 79 -43 136 -114 136c-65 0 -123 -53 -144 -185c-4 -23 -5 -44 -5 -63c0 -86 37 -122 91 -122c71 0 125 57 156 136z" />
    <glyph glyph-name="h" unicode="h" horiz-adv-x="665" 
d="M10 0l128 810h155l-52 -328c54 73 131 134 232 134c104 0 145 -77 145 -164c0 -15 -2 -31 -4 -46l-64 -406h-160l63 400c2 12 3 22 3 31c0 51 -28 59 -48 59c-67 0 -154 -87 -190 -187l-48 -303h-160z" />
    <glyph glyph-name="i" unicode="i" horiz-adv-x="300" 
d="M119 780c9 54 54 88 108 88c49 0 83 -27 83 -72c0 -5 0 -11 -1 -16c-9 -54 -55 -88 -109 -88c-48 0 -82 27 -82 72c0 5 0 10 1 16zM10 0l95 600h160l-95 -600h-160z" />
    <glyph glyph-name="j" unicode="j" horiz-adv-x="310" 
d="M129 780c9 54 54 88 108 88c49 0 83 -27 83 -72c0 -5 0 -11 -1 -16c-9 -54 -57 -88 -111 -88c-48 0 -80 27 -80 71c0 5 0 11 1 17zM-61 -226l-34 101c68 16 102 43 114 120l96 605h160l-97 -615c-19 -121 -132 -189 -239 -211z" />
    <glyph glyph-name="k" unicode="k" horiz-adv-x="605" 
d="M20 0l128 810h152l-67 -428l222 218l173 -10l-1 -6l-276 -243l205 -335l-1 -6h-182l-139 238l-28 -25l-34 -213h-152z" />
    <glyph glyph-name="l" unicode="l" horiz-adv-x="315" 
d="M32 140l106 670h160l-103 -655c-1 -6 -1 -11 -1 -16c0 -34 22 -47 75 -52l-47 -103c-80 6 -192 27 -192 130c0 8 1 17 2 26z" />
    <glyph glyph-name="m" unicode="m" horiz-adv-x="945" 
d="M94 591l147 12l-3 -97c44 62 106 110 190 110s124 -50 136 -115c44 64 107 115 194 115c102 0 140 -75 140 -160c0 -16 -1 -33 -4 -50l-64 -406h-160l63 400c2 13 3 24 3 34c0 48 -24 56 -43 56c-54 0 -110 -75 -142 -167l-51 -323h-160l63 400c2 13 3 24 3 34
c0 48 -24 56 -43 56c-54 0 -110 -75 -142 -167l-51 -323h-160l67 420z" />
    <glyph glyph-name="n" unicode="n" horiz-adv-x="655" 
d="M10 0l67 420l17 171l147 12l-3 -119c51 72 125 132 225 132c104 0 145 -77 145 -164c0 -15 -2 -31 -4 -46l-64 -406h-160l63 400c2 12 3 22 3 31c0 51 -28 59 -48 59c-67 0 -145 -85 -180 -185l-48 -305h-160z" />
    <glyph glyph-name="o" unicode="o" horiz-adv-x="660" 
d="M25 287l5 26c21 130 103 308 338 308c195 0 248 -123 248 -239c0 -24 -2 -47 -6 -69l-5 -26c-21 -130 -103 -308 -338 -308c-195 0 -248 123 -248 239c0 24 2 47 6 69zM285 93c75 0 139 60 160 194l5 26c3 22 5 42 5 60c0 92 -42 134 -105 134c-75 0 -139 -60 -160 -194
l-5 -26c-3 -22 -5 -42 -5 -60c0 -92 42 -134 105 -134z" />
    <glyph glyph-name="p" unicode="p" horiz-adv-x="675" 
d="M621 290c-21 -130 -115 -306 -304 -306c-64 0 -109 29 -138 71l-42 -265h-160l100 630l17 171l147 12l-3 -77c46 51 107 90 180 90c159 0 211 -125 211 -242c0 -22 -2 -43 -5 -64zM204 217c10 -69 46 -117 112 -117c65 0 123 53 145 190l3 20c4 25 6 47 6 67
c0 88 -38 123 -91 123c-66 0 -116 -48 -148 -117z" />
    <glyph glyph-name="q" unicode="q" horiz-adv-x="675" 
d="M504 600h136l-128 -810h-155l43 271c-44 -45 -101 -77 -168 -77c-159 0 -211 125 -211 242c0 22 2 43 5 64l3 20c21 130 115 306 304 306c73 0 119 -38 149 -89zM427 236l21 128c-5 79 -43 136 -114 136c-65 0 -123 -53 -145 -190l-3 -20c-4 -25 -6 -47 -6 -67
c0 -88 38 -123 91 -123c71 0 125 57 156 136z" />
    <glyph glyph-name="r" unicode="r" horiz-adv-x="435" 
d="M88 588l137 15l13 -120c37 72 94 133 179 133c28 0 50 -7 68 -17l-81 -130c-10 7 -21 11 -37 11c-49 0 -98 -73 -127 -166l-50 -314h-160l71 450z" />
    <glyph glyph-name="s" unicode="s" horiz-adv-x="570" 
d="M-7 143l158 20c0 -39 31 -72 94 -72c61 0 102 27 109 71c1 4 1 8 1 11c0 34 -29 47 -46 52c-42 13 -101 29 -141 45c-52 20 -116 54 -116 137c0 9 0 18 2 28c16 104 124 186 269 186c158 0 213 -97 215 -161l-158 -20c0 39 -21 69 -74 69c-52 0 -92 -26 -99 -68
c0 -2 -1 -5 -1 -7c0 -28 28 -42 50 -49c39 -13 100 -31 131 -41c61 -20 123 -54 123 -141c0 -11 -1 -23 -3 -35c-17 -106 -128 -189 -285 -189c-169 0 -227 98 -229 164z" />
    <glyph glyph-name="t" unicode="t" horiz-adv-x="415" 
d="M39 500l16 100h86l20 123l152 12l-21 -135h133l-16 -100h-130l-53 -336c-2 -13 -3 -23 -3 -32c0 -27 10 -34 32 -34c35 0 73 13 87 21l20 -104c-35 -16 -83 -31 -147 -31c-93 0 -156 34 -156 121c0 11 1 23 3 35l57 360h-80z" />
    <glyph glyph-name="u" unicode="u" horiz-adv-x="620" 
d="M21 194l64 406h160l-64 -406c-1 -9 -2 -17 -2 -25c0 -57 38 -76 86 -76c54 0 104 25 116 101l64 406h160l-64 -406c-18 -116 -132 -215 -294 -215c-147 0 -228 82 -228 184c0 10 0 20 2 31z" />
    <glyph glyph-name="v" unicode="v" horiz-adv-x="600" 
d="M32 580l1 8l177 12l62 -395l188 395l173 -12l-1 -8l-327 -580h-130z" />
    <glyph glyph-name="w" unicode="w" horiz-adv-x="830" 
d="M857 580l-265 -580h-135l-45 362l-159 -362h-135l-81 580l1 8l172 12l26 -364l149 349h126l37 -349l142 364l168 -12z" />
    <glyph glyph-name="x" unicode="x" horiz-adv-x="600" 
d="M67 580l1 8l171 12l69 -172l123 172l167 -12l-1 -8l-219 -257l168 -317l-1 -6h-179l-95 193l-157 -193h-179l1 6l268 317z" />
    <glyph glyph-name="y" unicode="y" horiz-adv-x="600" 
d="M32 580l1 8l177 12l64 -400l186 400l173 -12l-1 -8l-329 -595c-67 -109 -122 -216 -262 -216c-58 0 -97 22 -121 42l90 94c13 -13 27 -26 44 -26c39 0 66 40 119 129z" />
    <glyph glyph-name="z" unicode="z" horiz-adv-x="530" 
d="M-32 79l350 411h-260l17 110h460l-3 -79l-351 -411h291l-17 -110h-491z" />
    <glyph glyph-name="braceleft" unicode="{" horiz-adv-x="390" 
d="M28 365l4 25l4 25c48 14 102 42 115 125c1 5 1 11 1 17c0 33 -9 87 -9 134c0 14 1 27 3 39c14 87 86 170 207 170h60l-13 -80h-40c-19 0 -61 -7 -76 -100c-2 -11 -2 -24 -2 -38c0 -36 3 -80 3 -117c0 -15 0 -28 -2 -40c-11 -72 -52 -114 -108 -135c42 -18 67 -51 67 -104
c0 -10 0 -20 -2 -31c-8 -52 -52 -147 -60 -195c-2 -14 -3 -27 -3 -37c0 -58 31 -63 47 -63h40l-13 -80h-60c-107 0 -155 65 -155 140c0 10 0 20 2 30c10 60 59 154 65 190c2 10 2 19 2 28c0 62 -38 85 -77 97z" />
    <glyph glyph-name="bar" unicode="|" horiz-adv-x="360" 
d="M31 -120l162 1020h140l-162 -1020h-140z" />
    <glyph glyph-name="braceright" unicode="}" horiz-adv-x="390" 
d="M366 415l-4 -25l-4 -25c-48 -14 -102 -42 -115 -125c-1 -5 -1 -11 -1 -17c0 -33 9 -87 9 -134c0 -14 -1 -27 -3 -39c-14 -87 -86 -170 -207 -170h-60l13 80h40c19 0 61 7 76 100c2 10 2 23 2 36c0 37 -4 83 -4 121c0 14 0 27 2 38c11 72 53 114 109 135
c-43 18 -68 51 -68 105c0 9 0 19 2 30c8 52 53 147 61 195c2 14 3 27 3 37c0 58 -31 63 -47 63h-40l13 80h60c107 0 155 -65 155 -140c0 -10 0 -20 -2 -30c-10 -60 -59 -154 -65 -190c-2 -10 -2 -19 -2 -28c0 -62 38 -85 77 -97z" />
    <glyph glyph-name="asciitilde" unicode="~" horiz-adv-x="600" 
d="M20 315c47 94 100 190 204 190c69 0 104 -47 126 -73c25 -30 41 -42 53 -42c30 0 61 46 85 105l96 -30c-47 -94 -100 -190 -204 -190c-69 0 -105 47 -127 73c-25 30 -40 42 -52 42c-30 0 -62 -46 -86 -105z" />
    <glyph glyph-name="uni00A0" unicode="&#xa0;" horiz-adv-x="330" 
 />
    <glyph glyph-name="exclamdown" unicode="&#xa1;" horiz-adv-x="330" 
d="M282 518c-9 -54 -55 -88 -109 -88c-48 0 -82 27 -82 72c0 5 0 10 1 16c9 54 55 88 109 88c48 0 82 -27 82 -72c0 -5 0 -10 -1 -16zM212 330l-45 -540h-190l125 540h110z" />
    <glyph glyph-name="cent" unicode="&#xa2;" horiz-adv-x="605" 
d="M30 318l4 24c19 119 89 279 283 305l22 133h120l-22 -135c122 -24 162 -114 163 -169l-163 -14c-1 36 -31 73 -82 73c-70 0 -136 -59 -157 -193l-4 -24c-3 -22 -5 -42 -5 -60c0 -92 42 -133 101 -133c51 0 92 37 105 73l159 -14c-19 -55 -87 -145 -217 -169l-21 -135
h-120l21 133c-151 21 -193 131 -193 235c0 24 2 48 6 70z" />
    <glyph glyph-name="sterling" unicode="&#xa3;" horiz-adv-x="660" 
d="M15 96c65 45 110 93 128 206l7 43h-95l14 90h95l17 108c7 43 44 258 269 258c175 0 197 -135 200 -169l-161 -18c-3 44 -18 73 -57 73c-48 0 -78 -63 -91 -144l-17 -108h195l-14 -90h-195l-7 -43c-12 -76 -38 -137 -77 -188h352l-18 -114h-545v96z" />
    <glyph glyph-name="currency" unicode="&#xa4;" horiz-adv-x="720" 
d="M638 162l-98 -84l-75 90c-41 -20 -90 -33 -144 -33s-97 13 -132 33l-105 -90l-70 84l98 85c-15 31 -23 65 -23 102c0 13 1 27 3 41c8 51 30 101 65 143l-71 85l97 84l76 -90c41 20 89 33 143 33s98 -13 133 -33l104 90l71 -84l-99 -85c16 -31 24 -67 24 -104
c0 -13 -1 -26 -3 -39c-8 -51 -31 -101 -66 -143zM340 255c66 0 127 43 142 135c2 11 3 22 3 32c0 70 -44 103 -102 103c-66 0 -126 -43 -141 -135c-2 -12 -3 -23 -3 -33c0 -70 43 -102 101 -102z" />
    <glyph glyph-name="yen" unicode="&#xa5;" horiz-adv-x="660" 
d="M54 150l14 90h155l9 59l1 1h-155l14 90h108l-131 364l2 11l193 15l77 -330l183 330l187 -15l-2 -11l-245 -364h108l-14 -90h-155l-1 -1l-9 -59h155l-14 -90h-155l-24 -150h-170l24 150h-155z" />
    <glyph glyph-name="brokenbar" unicode="&#xa6;" horiz-adv-x="360" 
d="M121 450l72 450h140l-72 -450h-140zM31 -120l71 450h140l-71 -450h-140z" />
    <glyph glyph-name="section" unicode="&#xa7;" horiz-adv-x="660" 
d="M122 609c19 117 128 222 291 222c172 0 222 -126 222 -200v-2l-157 -12c0 58 -25 104 -83 104c-56 0 -106 -35 -118 -112c-1 -7 -2 -13 -2 -19c0 -45 32 -62 59 -75c40 -19 97 -44 136 -58c63 -23 122 -77 122 -172c0 -13 -1 -26 -3 -40c-8 -48 -39 -94 -84 -133
c11 -23 17 -50 17 -80c0 -12 -1 -24 -3 -37c-19 -119 -129 -226 -305 -226c-184 0 -238 128 -238 206l157 12v-3c0 -55 28 -105 99 -105c72 0 119 33 132 116c1 9 2 17 2 24c0 52 -32 67 -57 78c-43 18 -97 43 -143 64c-53 24 -116 79 -116 167c0 10 1 20 3 31
c7 47 37 95 89 132c-13 23 -23 52 -23 86c0 10 1 21 3 32zM418 200c8 12 13 26 16 45c2 10 2 18 2 26c0 52 -31 67 -52 76c-43 18 -102 43 -148 64c-2 1 -3 1 -5 2c-11 -14 -19 -31 -23 -54c-1 -6 -1 -11 -1 -16c0 -47 39 -64 67 -78c40 -19 90 -44 127 -58
c6 -2 11 -4 17 -7z" />
    <glyph glyph-name="dieresis" unicode="&#xa8;" horiz-adv-x="510" 
d="M206 859c44 0 74 -24 74 -64c0 -5 0 -10 -1 -15c-8 -49 -49 -79 -98 -79c-44 0 -73 24 -73 64c0 5 0 10 1 15c8 49 48 79 97 79zM456 859c44 0 74 -24 74 -64c0 -5 0 -10 -1 -15c-8 -49 -49 -79 -98 -79c-44 0 -73 24 -73 64c0 5 0 10 1 15c8 49 48 79 97 79z" />
    <glyph glyph-name="copyright" unicode="&#xa9;" horiz-adv-x="1020" 
d="M704 498l-104 -9c0 25 -21 49 -54 49c-46 0 -90 -39 -104 -127l-2 -16c-2 -14 -3 -28 -3 -40c0 -60 28 -87 66 -87c33 0 62 24 70 49l101 -9c-14 -40 -70 -111 -182 -111c-125 0 -158 78 -158 153c0 15 2 31 4 45l2 16c13 84 66 198 217 198c112 0 145 -71 147 -111z
M447 -20c-236 0 -374 146 -374 349c0 25 2 50 6 76c38 241 237 425 502 425c236 0 374 -146 374 -349c0 -25 -2 -50 -6 -76c-38 -241 -237 -425 -502 -425zM460 60c209 0 366 138 399 345c4 24 6 46 6 68c0 168 -111 277 -296 277c-209 0 -367 -138 -400 -345
c-4 -24 -6 -46 -6 -68c0 -169 112 -277 297 -277z" />
    <glyph glyph-name="ordfeminine" unicode="&#xaa;" horiz-adv-x="313" 
d="M51 597c8 50 52 80 130 80c18 0 36 0 51 -1l7 41c1 4 1 7 1 10c0 25 -17 28 -30 28c-11 0 -32 -6 -41 -37l-96 6c13 43 59 97 147 97c76 0 117 -40 117 -89c0 -5 0 -10 -1 -15l-20 -122c-1 -6 -2 -11 -2 -15c0 -12 6 -17 24 -19l-34 -60c-21 2 -49 10 -64 32
c-21 -18 -49 -32 -86 -32c-71 0 -104 31 -104 78c0 6 0 12 1 18zM230 622c-15 2 -31 3 -50 3c-18 0 -32 -11 -35 -29c0 -3 -1 -5 -1 -7c0 -18 11 -32 32 -32c30 0 46 22 54 65z" />
    <glyph glyph-name="guillemotleft" unicode="&#xab;" horiz-adv-x="780" 
d="M52 330l10 60l348 270l42 -80l-227 -220l157 -220l-67 -80zM352 330l10 60l348 270l42 -80l-227 -220l157 -220l-67 -80z" />
    <glyph glyph-name="logicalnot" unicode="&#xac;" horiz-adv-x="600" 
d="M62 295l19 120h450l-38 -240h-150l19 120h-300z" />
    <glyph glyph-name="uni00AD" unicode="&#xad;" horiz-adv-x="450" 
d="M67 420h330l-19 -120h-330z" />
    <glyph glyph-name="registered" unicode="&#xae;" horiz-adv-x="870" 
d="M416 259c-192 0 -302 119 -302 281c0 19 2 39 5 60c30 192 190 341 405 341c192 0 302 -119 302 -281c0 -19 -2 -39 -5 -60c-30 -192 -190 -341 -405 -341zM426 319c167 0 296 111 323 281c3 19 5 38 5 56c0 138 -91 225 -239 225c-167 0 -297 -111 -324 -281
c-3 -19 -5 -37 -5 -55c0 -138 92 -226 240 -226zM649 673c-10 -60 -61 -103 -131 -117l102 -152l-1 -4h-107l-97 151h-2l-24 -151h-97l25 155l37 235s77 5 146 5c92 0 150 -40 150 -104c0 -6 0 -12 -1 -18zM552 673c1 4 1 7 1 10c0 38 -39 44 -86 44c-9 0 -18 -1 -26 -1
l-17 -107h26c51 0 95 7 102 54z" />
    <glyph glyph-name="macron" unicode="&#xaf;" horiz-adv-x="510" 
d="M101 730l15 100h420l-15 -100h-420z" />
    <glyph glyph-name="degree" unicode="&#xb0;" horiz-adv-x="330" 
d="M208 649c-81 0 -121 52 -121 111c0 7 1 13 2 20c10 66 70 131 160 131c81 0 121 -52 121 -111c0 -7 0 -13 -1 -20c-10 -66 -71 -131 -161 -131zM219 721c25 0 53 17 60 59c1 5 1 10 1 14c0 31 -20 45 -42 45c-25 0 -52 -17 -59 -59c-1 -5 -1 -10 -1 -15
c0 -31 19 -44 41 -44z" />
    <glyph glyph-name="plusminus" unicode="&#xb1;" horiz-adv-x="600" 
d="M42 168l17 110h450l-17 -110h-450zM85 442l17 110h155l17 105h140l-17 -105h155l-17 -110h-155l-17 -105h-140l17 105h-155z" />
    <glyph glyph-name="two.sups" unicode="&#xb2;" horiz-adv-x="330" 
d="M191 801l-97 9c11 34 58 101 154 101c105 0 123 -63 123 -100c0 -7 0 -12 -1 -17c-10 -64 -72 -106 -105 -128c-38 -25 -80 -54 -97 -84h170l-11 -72h-276s-4 15 -1 34c15 94 93 140 144 172c35 22 72 44 77 78c1 5 1 10 1 14c0 23 -11 34 -35 34c-20 0 -38 -15 -46 -41z
" />
    <glyph glyph-name="three.sups" unicode="&#xb3;" horiz-adv-x="330" 
d="M302 712c35 -19 42 -51 42 -73c0 -5 0 -10 -1 -14c-6 -36 -38 -126 -172 -126c-100 0 -125 59 -130 81l100 18c2 -12 9 -27 41 -27c38 0 55 19 60 49c1 4 1 8 1 12c0 24 -14 35 -43 35h-58l11 71h46c32 0 53 30 57 56c1 5 1 10 1 14c0 22 -11 34 -34 34
c-20 0 -39 -15 -47 -41l-96 9c11 34 58 101 154 101c105 0 122 -62 122 -99c0 -7 0 -13 -1 -18c-6 -38 -28 -64 -53 -82z" />
    <glyph glyph-name="acute" unicode="&#xb4;" horiz-adv-x="390" 
d="M49 595l319 305l105 -89l-352 -271z" />
    <glyph glyph-name="uni00B5" unicode="&#xb5;" horiz-adv-x="665" 
d="M105 600h160l-48 -303c4 -100 63 -187 130 -187c23 0 62 11 75 90l63 400h160l-64 -406c-16 -104 -87 -210 -209 -210c-101 0 -158 61 -188 134l-52 -328h-155z" />
    <glyph glyph-name="paragraph" unicode="&#xb6;" horiz-adv-x="725" 
d="M298 431l36 228c-57 -15 -100 -48 -110 -114c-1 -8 -2 -16 -2 -23c0 -51 30 -78 76 -91zM545 665c-16 1 -41 2 -69 3l-139 -878h-140l81 516c-140 19 -225 92 -225 202c0 12 1 24 3 37c24 150 174 244 374 244c138 0 274 -9 274 -9l-157 -990h-140z" />
    <glyph glyph-name="periodcentered" unicode="&#xb7;" horiz-adv-x="330" 
d="M67 360c9 54 55 88 109 88c48 0 82 -27 82 -72c0 -5 0 -10 -1 -16c-9 -54 -55 -88 -109 -88c-48 0 -82 27 -82 72c0 5 0 10 1 16z" />
    <glyph glyph-name="cedilla" unicode="&#xb8;" horiz-adv-x="330" 
d="M-62 -265c72 15 154 45 154 94c0 12 -10 21 -51 21c-12 0 -29 -3 -41 -5l-37 45l96 135h85l-75 -105c76 0 124 -24 124 -79c0 -5 0 -10 -1 -16c-18 -116 -185 -148 -240 -160z" />
    <glyph glyph-name="one.sups" unicode="&#xb9;" horiz-adv-x="330" 
d="M107 825l144 78l71 -6l-50 -315h66l-11 -72h-250l11 72h86l34 216l-71 -42z" />
    <glyph glyph-name="ordmasculine" unicode="&#xba;" horiz-adv-x="330" 
d="M195 567c27 0 52 20 62 86l3 14c2 12 3 23 3 32c0 41 -17 54 -39 54c-27 0 -52 -20 -62 -86l-3 -14c-2 -12 -3 -23 -3 -32c0 -41 17 -54 39 -54zM235 821c102 0 128 -65 128 -122c0 -11 -1 -22 -3 -32l-3 -14c-10 -61 -51 -154 -173 -154c-102 0 -128 65 -128 122
c0 11 1 22 3 32l3 14c10 61 51 154 173 154z" />
    <glyph glyph-name="guillemotright" unicode="&#xbb;" horiz-adv-x="780" 
d="M722 390l-10 -60l-347 -270l-43 80l227 220l-157 220l68 80zM422 390l-10 -60l-347 -270l-43 80l227 220l-157 220l68 80z" />
    <glyph glyph-name="onequarter" unicode="&#xbc;" horiz-adv-x="780" 
d="M0 0l1 8l683 772h100l-2 -8l-682 -772h-100zM88 705l144 78l71 -6l-50 -315h66l-11 -72h-250l11 72h86l34 216l-71 -42zM567 85h-153l1 50l221 258l79 -6l-36 -232h62l-12 -70h-62l-13 -85h-100zM584 155l15 95l-79 -95h64z" />
    <glyph glyph-name="onehalf" unicode="&#xbd;" horiz-adv-x="780" 
d="M88 705l144 78l71 -6l-50 -315h66l-11 -72h-250l11 72h86l34 216l-71 -42zM0 0l1 8l683 772h100l-2 -8l-682 -772h-100zM560 291l-96 9c11 34 58 101 154 101c105 0 122 -62 122 -99c0 -7 0 -13 -1 -18c-10 -64 -71 -106 -104 -128c-38 -25 -81 -54 -98 -84h170l-11 -72
h-276s-4 15 -1 34c15 94 94 140 145 172c35 22 71 44 76 78c1 5 1 10 1 14c0 22 -11 34 -34 34c-20 0 -39 -15 -47 -41z" />
    <glyph glyph-name="threequarters" unicode="&#xbe;" horiz-adv-x="780" 
d="M567 85h-153l1 50l221 258l79 -6l-36 -232h62l-12 -70h-62l-13 -85h-100zM584 155l15 95l-79 -95h64zM0 0l1 8l683 772h100l-2 -8l-682 -772h-100zM283 592c35 -19 42 -51 42 -73c0 -5 0 -10 -1 -14c-6 -36 -38 -126 -172 -126c-100 0 -125 59 -130 81l100 18
c2 -12 9 -27 41 -27c38 0 55 19 60 49c1 4 1 8 1 12c0 24 -14 35 -43 35h-58l11 71h46c32 0 53 30 57 56c1 5 1 10 1 14c0 22 -11 34 -34 34c-20 0 -39 -15 -47 -41l-96 9c11 34 58 101 154 101c105 0 122 -62 122 -99c0 -7 0 -13 -1 -18c-6 -38 -28 -64 -53 -82z" />
    <glyph glyph-name="questiondown" unicode="&#xbf;" horiz-adv-x="570" 
d="M402 518c-9 -54 -55 -88 -109 -88c-48 0 -82 27 -82 72c0 5 0 10 1 16c9 54 55 88 109 88c48 0 82 -27 82 -72c0 -5 0 -10 -1 -16zM464 -40c-16 -104 -123 -191 -276 -191c-132 0 -206 66 -206 166c0 11 1 23 3 35c26 163 222 199 238 300c1 6 1 12 1 17
c0 10 -1 19 -4 28l132 15c7 -16 11 -32 11 -49c0 -7 -1 -14 -2 -21c-24 -154 -187 -170 -205 -285c-1 -8 -2 -16 -2 -23c0 -50 33 -60 59 -60c39 0 73 19 81 68c1 7 2 15 2 22c0 10 -1 20 -4 28l166 40c5 -19 8 -40 8 -60c0 -10 0 -20 -2 -30z" />
    <glyph glyph-name="Agrave" unicode="&#xc0;" horiz-adv-x="750" 
d="M301 955l82 105l195 -160l-50 -60zM690 0h-190l-25 150h-272l-73 -150h-190l2 11l427 769h140l183 -769zM455 270l-50 296l-144 -296h194z" />
    <glyph glyph-name="Aacute" unicode="&#xc1;" horiz-adv-x="750" 
d="M631 955l-263 -115l-30 60l245 160zM690 0h-190l-25 150h-272l-73 -150h-190l2 11l427 769h140l183 -769zM455 270l-50 296l-144 -296h194z" />
    <glyph glyph-name="Acircumflex" unicode="&#xc2;" horiz-adv-x="750" 
d="M244 875l213 145h40l167 -145l-53 -50l-152 80l-178 -80zM690 0h-190l-25 150h-272l-73 -150h-190l2 11l427 769h140l183 -769zM455 270l-50 296l-144 -296h194z" />
    <glyph glyph-name="Atilde" unicode="&#xc3;" horiz-adv-x="750" 
d="M246 890c37 66 80 125 155 125c60 0 89 -30 107 -48c16 -16 25 -27 35 -27c25 0 50 50 62 70l75 -30c-37 -66 -79 -125 -154 -125c-60 0 -90 30 -108 48c-16 16 -24 27 -34 27c-25 0 -51 -50 -63 -70zM690 0h-190l-25 150h-272l-73 -150h-190l2 11l427 769h140l183 -769z
M455 270l-50 296l-144 -296h194z" />
    <glyph glyph-name="Adieresis" unicode="&#xc4;" horiz-adv-x="750" 
d="M350 1009c44 0 74 -24 74 -64c0 -5 0 -10 -1 -15c-8 -49 -49 -79 -98 -79c-44 0 -73 24 -73 64c0 5 0 10 1 15c8 49 48 79 97 79zM600 1009c44 0 74 -24 74 -64c0 -5 0 -10 -1 -15c-8 -49 -49 -79 -98 -79c-44 0 -73 24 -73 64c0 5 0 10 1 15c8 49 48 79 97 79zM690 0
h-190l-25 150h-272l-73 -150h-190l2 11l427 769h140l183 -769zM455 270l-50 296l-144 -296h194z" />
    <glyph glyph-name="Aring" unicode="&#xc5;" horiz-adv-x="750" 
d="M441 795c-66 0 -113 37 -113 98c0 7 1 14 2 22c12 74 75 120 149 120c66 0 113 -37 113 -98c0 -7 -1 -14 -2 -22c-12 -74 -75 -120 -149 -120zM452 865c32 0 53 21 58 50c1 4 1 8 1 11c0 23 -15 39 -43 39c-32 0 -53 -21 -58 -50c-1 -4 -1 -8 -1 -11c0 -23 15 -39 43 -39
zM690 0h-190l-25 150h-272l-73 -150h-190l2 11l427 769h140l183 -769zM455 270l-50 296l-144 -296h194z" />
    <glyph glyph-name="AE" unicode="&#xc6;" horiz-adv-x="980" 
d="M-55 0l2 11l487 769h70h70h415l-21 -130h-315l-33 -205h275l-19 -120h-275l-30 -195h330l-21 -130h-500l24 150h-184l-85 -150h-190zM476 607l-189 -337h136z" />
    <glyph glyph-name="Ccedilla" unicode="&#xc7;" horiz-adv-x="755" 
d="M205 -265c72 15 154 45 154 94c0 12 -10 21 -51 21c-12 0 -29 -3 -41 -5l-37 45l65 92c-199 21 -258 164 -258 305c0 30 2 59 7 88l5 30c28 175 141 396 430 396c212 0 281 -137 283 -219l-176 -16c-1 50 -41 107 -127 107c-117 0 -204 -91 -232 -268l-5 -30
c-5 -30 -7 -57 -7 -82c0 -123 57 -186 154 -186c86 0 144 57 161 107l171 -16c-26 -78 -129 -206 -322 -218l-43 -60c76 0 124 -24 124 -79c0 -5 0 -10 -1 -16c-18 -116 -185 -148 -240 -160z" />
    <glyph glyph-name="Egrave" unicode="&#xc8;" horiz-adv-x="675" 
d="M276 955l82 105l195 -160l-50 -60zM15 0l124 780h545l-21 -130h-375l-33 -205h335l-19 -120h-335l-30 -195h390l-21 -130h-560z" />
    <glyph glyph-name="Eacute" unicode="&#xc9;" horiz-adv-x="675" 
d="M606 955l-263 -115l-30 60l245 160zM15 0l124 780h545l-21 -130h-375l-33 -205h335l-19 -120h-335l-30 -195h390l-21 -130h-560z" />
    <glyph glyph-name="Ecircumflex" unicode="&#xca;" horiz-adv-x="675" 
d="M219 875l213 145h40l167 -145l-53 -50l-152 80l-178 -80zM15 0l124 780h545l-21 -130h-375l-33 -205h335l-19 -120h-335l-30 -195h390l-21 -130h-560z" />
    <glyph glyph-name="Edieresis" unicode="&#xcb;" horiz-adv-x="675" 
d="M325 1009c44 0 74 -24 74 -64c0 -5 0 -10 -1 -15c-8 -49 -49 -79 -98 -79c-44 0 -73 24 -73 64c0 5 0 10 1 15c8 49 48 79 97 79zM575 1009c44 0 74 -24 74 -64c0 -5 0 -10 -1 -15c-8 -49 -49 -79 -98 -79c-44 0 -73 24 -73 64c0 5 0 10 1 15c8 49 48 79 97 79zM15 0
l124 780h545l-21 -130h-375l-33 -205h335l-19 -120h-335l-30 -195h390l-21 -130h-560z" />
    <glyph glyph-name="Igrave" unicode="&#xcc;" horiz-adv-x="320" 
d="M86 955l82 105l195 -160l-50 -60zM15 0l124 780h170l-124 -780h-170z" />
    <glyph glyph-name="Iacute" unicode="&#xcd;" horiz-adv-x="320" 
d="M416 955l-263 -115l-30 60l245 160zM15 0l124 780h170l-124 -780h-170z" />
    <glyph glyph-name="Icircumflex" unicode="&#xce;" horiz-adv-x="320" 
d="M29 875l213 145h40l167 -145l-53 -50l-152 80l-178 -80zM15 0l124 780h170l-124 -780h-170z" />
    <glyph glyph-name="Idieresis" unicode="&#xcf;" horiz-adv-x="320" 
d="M135 1009c44 0 74 -24 74 -64c0 -5 0 -10 -1 -15c-8 -49 -49 -79 -98 -79c-44 0 -73 24 -73 64c0 5 0 10 1 15c8 49 48 79 97 79zM385 1009c44 0 74 -24 74 -64c0 -5 0 -10 -1 -15c-8 -49 -49 -79 -98 -79c-44 0 -73 24 -73 64c0 5 0 10 1 15c8 49 48 79 97 79zM15 0
l124 780h170l-124 -780h-170z" />
    <glyph glyph-name="Eth" unicode="&#xd0;" horiz-adv-x="770" 
d="M0 345l14 90h70l55 345s113 9 226 9c279 0 369 -155 369 -316c0 -24 -2 -49 -6 -73l-3 -20c-29 -183 -165 -389 -486 -389c-113 0 -224 9 -224 9l55 345h-70zM203 114c19 0 39 -1 55 -1c185 0 271 102 297 267l3 20c4 26 6 50 6 73c0 122 -62 194 -218 194
c-16 0 -37 -1 -56 -1l-36 -231h180l-14 -90h-180z" />
    <glyph glyph-name="Ntilde" unicode="&#xd1;" horiz-adv-x="790" 
d="M266 890c37 66 80 125 155 125c60 0 89 -30 107 -48c16 -16 25 -27 35 -27c25 0 50 50 62 70l75 -30c-37 -66 -79 -125 -154 -125c-60 0 -90 30 -108 48c-16 16 -24 27 -34 27c-25 0 -51 -50 -63 -70zM15 0l121 765l148 15l248 -507l81 507h166l-124 -780h-145l-249 507
l-80 -507h-166z" />
    <glyph glyph-name="Ograve" unicode="&#xd2;" horiz-adv-x="820" 
d="M336 955l82 105l195 -160l-50 -60zM44 373l5 34c28 174 139 394 428 394c241 0 309 -152 309 -304c0 -30 -2 -61 -7 -90l-5 -34c-28 -174 -138 -394 -427 -394c-241 0 -310 153 -310 305c0 30 2 60 7 89zM366 104c121 0 206 93 234 269l5 34c5 30 7 58 7 83
c0 122 -55 186 -155 186c-121 0 -206 -93 -234 -269l-5 -34c-5 -30 -7 -58 -7 -83c0 -122 55 -186 155 -186z" />
    <glyph glyph-name="Oacute" unicode="&#xd3;" horiz-adv-x="820" 
d="M666 955l-263 -115l-30 60l245 160zM44 373l5 34c28 174 139 394 428 394c241 0 309 -152 309 -304c0 -30 -2 -61 -7 -90l-5 -34c-28 -174 -138 -394 -427 -394c-241 0 -310 153 -310 305c0 30 2 60 7 89zM366 104c121 0 206 93 234 269l5 34c5 30 7 58 7 83
c0 122 -55 186 -155 186c-121 0 -206 -93 -234 -269l-5 -34c-5 -30 -7 -58 -7 -83c0 -122 55 -186 155 -186z" />
    <glyph glyph-name="Ocircumflex" unicode="&#xd4;" horiz-adv-x="820" 
d="M279 875l213 145h40l167 -145l-53 -50l-152 80l-178 -80zM44 373l5 34c28 174 139 394 428 394c241 0 309 -152 309 -304c0 -30 -2 -61 -7 -90l-5 -34c-28 -174 -138 -394 -427 -394c-241 0 -310 153 -310 305c0 30 2 60 7 89zM366 104c121 0 206 93 234 269l5 34
c5 30 7 58 7 83c0 122 -55 186 -155 186c-121 0 -206 -93 -234 -269l-5 -34c-5 -30 -7 -58 -7 -83c0 -122 55 -186 155 -186z" />
    <glyph glyph-name="Otilde" unicode="&#xd5;" horiz-adv-x="820" 
d="M281 890c37 66 80 125 155 125c60 0 89 -30 107 -48c16 -16 25 -27 35 -27c25 0 50 50 62 70l75 -30c-37 -66 -79 -125 -154 -125c-60 0 -90 30 -108 48c-16 16 -24 27 -34 27c-25 0 -51 -50 -63 -70zM44 373l5 34c28 174 139 394 428 394c241 0 309 -152 309 -304
c0 -30 -2 -61 -7 -90l-5 -34c-28 -174 -138 -394 -427 -394c-241 0 -310 153 -310 305c0 30 2 60 7 89zM366 104c121 0 206 93 234 269l5 34c5 30 7 58 7 83c0 122 -55 186 -155 186c-121 0 -206 -93 -234 -269l-5 -34c-5 -30 -7 -58 -7 -83c0 -122 55 -186 155 -186z" />
    <glyph glyph-name="Odieresis" unicode="&#xd6;" horiz-adv-x="820" 
d="M385 1009c44 0 74 -24 74 -64c0 -5 0 -10 -1 -15c-8 -49 -49 -79 -98 -79c-44 0 -73 24 -73 64c0 5 0 10 1 15c8 49 48 79 97 79zM635 1009c44 0 74 -24 74 -64c0 -5 0 -10 -1 -15c-8 -49 -49 -79 -98 -79c-44 0 -73 24 -73 64c0 5 0 10 1 15c8 49 48 79 97 79zM44 373
l5 34c28 174 139 394 428 394c241 0 309 -152 309 -304c0 -30 -2 -61 -7 -90l-5 -34c-28 -174 -138 -394 -427 -394c-241 0 -310 153 -310 305c0 30 2 60 7 89zM366 104c121 0 206 93 234 269l5 34c5 30 7 58 7 83c0 122 -55 186 -155 186c-121 0 -206 -93 -234 -269l-5 -34
c-5 -30 -7 -58 -7 -83c0 -122 55 -186 155 -186z" />
    <glyph glyph-name="multiply" unicode="&#xd7;" horiz-adv-x="600" 
d="M97 498l97 84l116 -138l160 138l71 -84l-160 -138l116 -138l-97 -84l-116 138l-160 -138l-71 84l160 138z" />
    <glyph glyph-name="Oslash" unicode="&#xd8;" horiz-adv-x="820" 
d="M44 373l5 34c28 174 139 394 428 394c96 0 165 -25 213 -64l68 70l62 -51l-78 -79c32 -53 44 -118 44 -182c0 -30 -3 -59 -7 -88l-5 -34c-28 -174 -138 -394 -427 -394c-100 0 -171 26 -219 68l-60 -62l-62 51l71 73c-29 51 -40 113 -40 174c0 31 2 61 7 90zM578 622
c-26 36 -67 54 -121 54c-121 0 -206 -93 -234 -269l-5 -34c-5 -31 -7 -60 -7 -86c0 -14 1 -26 2 -38zM609 540l-367 -376c26 -39 68 -60 124 -60c121 0 206 93 234 269l5 34c5 31 7 60 7 86c0 17 -1 32 -3 47z" />
    <glyph glyph-name="Ugrave" unicode="&#xd9;" horiz-adv-x="770" 
d="M311 955l82 105l195 -160l-50 -60zM44 246l85 534h172l-85 -534c-2 -12 -3 -22 -3 -32c0 -79 54 -111 128 -111c83 0 155 40 171 143l85 534h172l-85 -534c-23 -147 -165 -267 -362 -267c-179 0 -281 99 -281 227c0 13 1 27 3 40z" />
    <glyph glyph-name="Uacute" unicode="&#xda;" horiz-adv-x="770" 
d="M641 955l-263 -115l-30 60l245 160zM44 246l85 534h172l-85 -534c-2 -12 -3 -22 -3 -32c0 -79 54 -111 128 -111c83 0 155 40 171 143l85 534h172l-85 -534c-23 -147 -165 -267 -362 -267c-179 0 -281 99 -281 227c0 13 1 27 3 40z" />
    <glyph glyph-name="Ucircumflex" unicode="&#xdb;" horiz-adv-x="770" 
d="M254 875l213 145h40l167 -145l-53 -50l-152 80l-178 -80zM44 246l85 534h172l-85 -534c-2 -12 -3 -22 -3 -32c0 -79 54 -111 128 -111c83 0 155 40 171 143l85 534h172l-85 -534c-23 -147 -165 -267 -362 -267c-179 0 -281 99 -281 227c0 13 1 27 3 40z" />
    <glyph glyph-name="Udieresis" unicode="&#xdc;" horiz-adv-x="770" 
d="M360 1009c44 0 74 -24 74 -64c0 -5 0 -10 -1 -15c-8 -49 -49 -79 -98 -79c-44 0 -73 24 -73 64c0 5 0 10 1 15c8 49 48 79 97 79zM610 1009c44 0 74 -24 74 -64c0 -5 0 -10 -1 -15c-8 -49 -49 -79 -98 -79c-44 0 -73 24 -73 64c0 5 0 10 1 15c8 49 48 79 97 79zM44 246
l85 534h172l-85 -534c-2 -12 -3 -22 -3 -32c0 -79 54 -111 128 -111c83 0 155 40 171 143l85 534h172l-85 -534c-23 -147 -165 -267 -362 -267c-179 0 -281 99 -281 227c0 13 1 27 3 40z" />
    <glyph glyph-name="Yacute" unicode="&#xdd;" horiz-adv-x="670" 
d="M591 955l-263 -115l-30 60l245 160zM54 754l2 11l193 15l97 -330l203 330l187 -15l-2 -11l-328 -464l-46 -290h-170l46 290z" />
    <glyph glyph-name="Thorn" unicode="&#xde;" horiz-adv-x="725" 
d="M228 286c24 -1 55 -3 87 -3c102 0 190 25 206 124c1 8 2 17 2 24c0 79 -76 100 -169 100c-32 0 -63 -2 -87 -3zM286 649c34 1 70 2 107 2c183 0 299 -79 299 -207c0 -12 -1 -24 -3 -37c-24 -150 -173 -244 -373 -244c-37 0 -73 1 -107 2l-26 -165h-168l27 172l75 470
l22 138h168z" />
    <glyph glyph-name="germandbls" unicode="&#xdf;" horiz-adv-x="780" 
d="M268 148l152 10v-2c0 -42 28 -65 64 -65c38 0 78 17 87 72c1 3 1 7 1 10c0 35 -34 51 -45 56c-34 14 -72 33 -104 47c-47 21 -99 60 -99 133c0 8 1 17 2 26c16 98 99 174 226 176c-13 81 -78 108 -138 108c-55 0 -129 -22 -149 -149l-90 -570h-160l90 570
c25 159 158 261 327 261c173 0 258 -116 258 -245c0 -9 0 -17 -1 -26l-86 -65c-8 5 -23 15 -57 15c-30 0 -61 -16 -68 -60c-1 -4 -1 -8 -1 -11c0 -37 31 -51 45 -57c32 -14 72 -33 100 -45c49 -20 102 -62 102 -142c0 -10 -1 -21 -3 -32c-15 -92 -103 -184 -254 -184
c-158 0 -199 108 -199 167v2z" />
    <glyph glyph-name="agrave" unicode="&#xe0;" horiz-adv-x="625" 
d="M212 805l82 105l195 -160l-50 -60zM8 174c12 75 87 156 237 156c52 0 103 -3 146 -7l14 89c1 8 2 16 2 23c0 55 -40 72 -87 72s-90 -26 -109 -92l-158 12c28 92 122 194 285 194c143 0 224 -77 224 -178c0 -10 0 -21 -2 -31l-40 -257c-2 -11 -3 -19 -3 -27
c0 -26 12 -36 47 -41l-57 -103c-35 5 -96 18 -117 72c-42 -41 -102 -72 -183 -72c-131 0 -202 61 -202 156c0 11 1 22 3 34zM384 230c-40 5 -93 9 -144 9c-28 0 -70 -17 -78 -67c-1 -7 -2 -14 -2 -20c0 -55 43 -73 83 -73c77 0 116 56 137 124z" />
    <glyph glyph-name="aacute" unicode="&#xe1;" horiz-adv-x="625" 
d="M542 805l-263 -115l-30 60l245 160zM8 174c12 75 87 156 237 156c52 0 103 -3 146 -7l14 89c1 8 2 16 2 23c0 55 -40 72 -87 72s-90 -26 -109 -92l-158 12c28 92 122 194 285 194c143 0 224 -77 224 -178c0 -10 0 -21 -2 -31l-40 -257c-2 -11 -3 -19 -3 -27
c0 -26 12 -36 47 -41l-57 -103c-35 5 -96 18 -117 72c-42 -41 -102 -72 -183 -72c-131 0 -202 61 -202 156c0 11 1 22 3 34zM384 230c-40 5 -93 9 -144 9c-28 0 -70 -17 -78 -67c-1 -7 -2 -14 -2 -20c0 -55 43 -73 83 -73c77 0 116 56 137 124z" />
    <glyph glyph-name="acircumflex" unicode="&#xe2;" horiz-adv-x="625" 
d="M155 725l213 145h40l167 -145l-53 -50l-152 80l-178 -80zM8 174c12 75 87 156 237 156c52 0 103 -3 146 -7l14 89c1 8 2 16 2 23c0 55 -40 72 -87 72s-90 -26 -109 -92l-158 12c28 92 122 194 285 194c143 0 224 -77 224 -178c0 -10 0 -21 -2 -31l-40 -257
c-2 -11 -3 -19 -3 -27c0 -26 12 -36 47 -41l-57 -103c-35 5 -96 18 -117 72c-42 -41 -102 -72 -183 -72c-131 0 -202 61 -202 156c0 11 1 22 3 34zM384 230c-40 5 -93 9 -144 9c-28 0 -70 -17 -78 -67c-1 -7 -2 -14 -2 -20c0 -55 43 -73 83 -73c77 0 116 56 137 124z" />
    <glyph glyph-name="atilde" unicode="&#xe3;" horiz-adv-x="625" 
d="M157 740c37 66 80 125 155 125c60 0 89 -30 107 -48c16 -16 25 -27 35 -27c25 0 50 50 62 70l75 -30c-37 -66 -79 -125 -154 -125c-60 0 -90 30 -108 48c-16 16 -24 27 -34 27c-25 0 -51 -50 -63 -70zM8 174c12 75 87 156 237 156c52 0 103 -3 146 -7l14 89
c1 8 2 16 2 23c0 55 -40 72 -87 72s-90 -26 -109 -92l-158 12c28 92 122 194 285 194c143 0 224 -77 224 -178c0 -10 0 -21 -2 -31l-40 -257c-2 -11 -3 -19 -3 -27c0 -26 12 -36 47 -41l-57 -103c-35 5 -96 18 -117 72c-42 -41 -102 -72 -183 -72c-131 0 -202 61 -202 156
c0 11 1 22 3 34zM384 230c-40 5 -93 9 -144 9c-28 0 -70 -17 -78 -67c-1 -7 -2 -14 -2 -20c0 -55 43 -73 83 -73c77 0 116 56 137 124z" />
    <glyph glyph-name="adieresis" unicode="&#xe4;" horiz-adv-x="625" 
d="M261 859c44 0 74 -24 74 -64c0 -5 0 -10 -1 -15c-8 -49 -49 -79 -98 -79c-44 0 -73 24 -73 64c0 5 0 10 1 15c8 49 48 79 97 79zM511 859c44 0 74 -24 74 -64c0 -5 0 -10 -1 -15c-8 -49 -49 -79 -98 -79c-44 0 -73 24 -73 64c0 5 0 10 1 15c8 49 48 79 97 79zM8 174
c12 75 87 156 237 156c52 0 103 -3 146 -7l14 89c1 8 2 16 2 23c0 55 -40 72 -87 72s-90 -26 -109 -92l-158 12c28 92 122 194 285 194c143 0 224 -77 224 -178c0 -10 0 -21 -2 -31l-40 -257c-2 -11 -3 -19 -3 -27c0 -26 12 -36 47 -41l-57 -103c-35 5 -96 18 -117 72
c-42 -41 -102 -72 -183 -72c-131 0 -202 61 -202 156c0 11 1 22 3 34zM384 230c-40 5 -93 9 -144 9c-28 0 -70 -17 -78 -67c-1 -7 -2 -14 -2 -20c0 -55 43 -73 83 -73c77 0 116 56 137 124z" />
    <glyph glyph-name="aring" unicode="&#xe5;" horiz-adv-x="625" 
d="M352 645c-66 0 -113 37 -113 98c0 7 1 14 2 22c12 74 75 120 149 120c66 0 113 -37 113 -98c0 -7 -1 -14 -2 -22c-12 -74 -75 -120 -149 -120zM363 715c32 0 53 21 58 50c1 4 1 8 1 11c0 23 -15 39 -43 39c-32 0 -53 -21 -58 -50c-1 -4 -1 -8 -1 -11c0 -23 15 -39 43 -39
zM8 174c12 75 87 156 237 156c52 0 103 -3 146 -7l14 89c1 8 2 16 2 23c0 55 -40 72 -87 72s-90 -26 -109 -92l-158 12c28 92 122 194 285 194c143 0 224 -77 224 -178c0 -10 0 -21 -2 -31l-40 -257c-2 -11 -3 -19 -3 -27c0 -26 12 -36 47 -41l-57 -103
c-35 5 -96 18 -117 72c-42 -41 -102 -72 -183 -72c-131 0 -202 61 -202 156c0 11 1 22 3 34zM384 230c-40 5 -93 9 -144 9c-28 0 -70 -17 -78 -67c-1 -7 -2 -14 -2 -20c0 -55 43 -73 83 -73c77 0 116 56 137 124z" />
    <glyph glyph-name="ae" unicode="&#xe6;" horiz-adv-x="960" 
d="M8 174c12 75 87 156 232 156c51 0 100 -3 141 -7l14 89c1 8 2 16 2 23c0 55 -39 72 -82 72c-42 0 -85 -26 -104 -92l-158 12c28 92 122 194 280 194c81 0 141 -28 176 -73c47 44 109 73 192 73c155 0 220 -105 220 -217c0 -16 -2 -31 -4 -47c-5 -31 -14 -62 -25 -92h-364
c-2 -19 -4 -37 -4 -53c0 -82 32 -121 93 -121c59 0 93 40 105 76l152 -14c-22 -66 -116 -174 -274 -174c-94 0 -150 36 -181 88c-45 -48 -114 -88 -217 -88c-127 0 -197 65 -197 161c0 11 1 22 3 34zM547 365h221c2 16 3 29 3 42c0 75 -36 102 -87 102
c-58 0 -110 -47 -137 -144zM374 230c-37 5 -84 9 -134 9c-28 0 -70 -17 -78 -67c-1 -7 -2 -13 -2 -19c0 -53 41 -69 78 -69c72 0 111 52 132 119z" />
    <glyph glyph-name="ccedilla" unicode="&#xe7;" horiz-adv-x="605" 
d="M123 -265c72 15 154 45 154 94c0 12 -10 21 -51 21c-12 0 -29 -3 -41 -5l-37 45l65 92c-152 20 -193 130 -193 235c0 24 2 48 6 71l3 24c21 130 103 309 339 309c173 0 227 -111 228 -175l-164 -14c-1 36 -31 73 -82 73c-70 0 -136 -59 -157 -193l-3 -24
c-3 -22 -5 -42 -5 -60c0 -91 42 -133 100 -133c51 0 93 37 106 73l158 -14c-20 -60 -99 -162 -252 -174l-43 -60c76 0 124 -24 124 -79c0 -5 0 -10 -1 -16c-18 -116 -185 -148 -240 -160z" />
    <glyph glyph-name="egrave" unicode="&#xe8;" horiz-adv-x="640" 
d="M232 805l82 105l195 -160l-50 -60zM25 287l5 26c21 131 108 308 336 308c165 0 234 -107 234 -220c0 -15 -1 -29 -3 -44c-5 -31 -14 -62 -25 -92h-393c-2 -14 -2 -28 -2 -40c0 -91 41 -134 105 -134c59 0 103 40 115 76l152 -14c-22 -66 -113 -174 -284 -174
c-194 0 -246 122 -246 239c0 24 2 47 6 69zM197 365h251c2 13 3 25 3 36c0 79 -45 108 -102 108c-66 0 -124 -47 -152 -144z" />
    <glyph glyph-name="eacute" unicode="&#xe9;" horiz-adv-x="640" 
d="M562 805l-263 -115l-30 60l245 160zM25 287l5 26c21 131 108 308 336 308c165 0 234 -107 234 -220c0 -15 -1 -29 -3 -44c-5 -31 -14 -62 -25 -92h-393c-2 -14 -2 -28 -2 -40c0 -91 41 -134 105 -134c59 0 103 40 115 76l152 -14c-22 -66 -113 -174 -284 -174
c-194 0 -246 122 -246 239c0 24 2 47 6 69zM197 365h251c2 13 3 25 3 36c0 79 -45 108 -102 108c-66 0 -124 -47 -152 -144z" />
    <glyph glyph-name="ecircumflex" unicode="&#xea;" horiz-adv-x="640" 
d="M175 725l213 145h40l167 -145l-53 -50l-152 80l-178 -80zM25 287l5 26c21 131 108 308 336 308c165 0 234 -107 234 -220c0 -15 -1 -29 -3 -44c-5 -31 -14 -62 -25 -92h-393c-2 -14 -2 -28 -2 -40c0 -91 41 -134 105 -134c59 0 103 40 115 76l152 -14
c-22 -66 -113 -174 -284 -174c-194 0 -246 122 -246 239c0 24 2 47 6 69zM197 365h251c2 13 3 25 3 36c0 79 -45 108 -102 108c-66 0 -124 -47 -152 -144z" />
    <glyph glyph-name="edieresis" unicode="&#xeb;" horiz-adv-x="640" 
d="M281 859c44 0 74 -24 74 -64c0 -5 0 -10 -1 -15c-8 -49 -49 -79 -98 -79c-44 0 -73 24 -73 64c0 5 0 10 1 15c8 49 48 79 97 79zM531 859c44 0 74 -24 74 -64c0 -5 0 -10 -1 -15c-8 -49 -49 -79 -98 -79c-44 0 -73 24 -73 64c0 5 0 10 1 15c8 49 48 79 97 79zM25 287
l5 26c21 131 108 308 336 308c165 0 234 -107 234 -220c0 -15 -1 -29 -3 -44c-5 -31 -14 -62 -25 -92h-393c-2 -14 -2 -28 -2 -40c0 -91 41 -134 105 -134c59 0 103 40 115 76l152 -14c-22 -66 -113 -174 -284 -174c-194 0 -246 122 -246 239c0 24 2 47 6 69zM197 365h251
c2 13 3 25 3 36c0 79 -45 108 -102 108c-66 0 -124 -47 -152 -144z" />
    <glyph glyph-name="igrave" unicode="&#xec;" horiz-adv-x="300" 
d="M52 805l82 105l195 -160l-50 -60zM10 0l95 600h160l-95 -600h-160z" />
    <glyph glyph-name="iacute" unicode="&#xed;" horiz-adv-x="300" 
d="M382 805l-263 -115l-30 60l245 160zM10 0l95 600h160l-95 -600h-160z" />
    <glyph glyph-name="icircumflex" unicode="&#xee;" horiz-adv-x="300" 
d="M-5 725l213 145h40l167 -145l-53 -50l-152 80l-178 -80zM10 0l95 600h160l-95 -600h-160z" />
    <glyph glyph-name="idieresis" unicode="&#xef;" horiz-adv-x="300" 
d="M101 859c44 0 74 -24 74 -64c0 -5 0 -10 -1 -15c-8 -49 -49 -79 -98 -79c-44 0 -73 24 -73 64c0 5 0 10 1 15c8 49 48 79 97 79zM351 859c44 0 74 -24 74 -64c0 -5 0 -10 -1 -15c-8 -49 -49 -79 -98 -79c-44 0 -73 24 -73 64c0 5 0 10 1 15c8 49 48 79 97 79zM10 0
l95 600h160l-95 -600h-160z" />
    <glyph glyph-name="eth" unicode="&#xf0;" horiz-adv-x="660" 
d="M458 799l144 35l8 -78l-93 -22c71 -92 102 -197 102 -311c0 -36 -3 -73 -9 -110l-5 -26c-21 -130 -102 -308 -338 -308c-196 0 -248 123 -248 239c0 24 2 47 6 69l4 25c21 130 114 299 303 299c44 0 78 -13 107 -34c-14 44 -36 85 -68 122l-198 -48l-8 78l140 33
c-12 10 -26 20 -40 29l103 80c33 -23 64 -47 90 -72zM457 372c-9 75 -54 123 -124 123c-65 0 -122 -46 -144 -183l-4 -25c-3 -22 -5 -42 -5 -60c0 -92 42 -136 104 -136c74 0 140 62 161 196l5 26c3 20 5 40 7 59z" />
    <glyph glyph-name="ntilde" unicode="&#xf1;" horiz-adv-x="655" 
d="M177 740c37 66 80 125 155 125c60 0 89 -30 107 -48c16 -16 25 -27 35 -27c25 0 50 50 62 70l75 -30c-37 -66 -79 -125 -154 -125c-60 0 -90 30 -108 48c-16 16 -24 27 -34 27c-25 0 -51 -50 -63 -70zM10 0l67 420l17 171l147 12l-3 -119c51 72 125 132 225 132
c104 0 145 -77 145 -164c0 -15 -2 -31 -4 -46l-64 -406h-160l63 400c2 12 3 22 3 31c0 51 -28 59 -48 59c-67 0 -145 -85 -180 -185l-48 -305h-160z" />
    <glyph glyph-name="ograve" unicode="&#xf2;" horiz-adv-x="660" 
d="M232 805l82 105l195 -160l-50 -60zM25 287l5 26c21 130 103 308 338 308c195 0 248 -123 248 -239c0 -24 -2 -47 -6 -69l-5 -26c-21 -130 -103 -308 -338 -308c-195 0 -248 123 -248 239c0 24 2 47 6 69zM285 93c75 0 139 60 160 194l5 26c3 22 5 42 5 60
c0 92 -42 134 -105 134c-75 0 -139 -60 -160 -194l-5 -26c-3 -22 -5 -42 -5 -60c0 -92 42 -134 105 -134z" />
    <glyph glyph-name="oacute" unicode="&#xf3;" horiz-adv-x="660" 
d="M562 805l-263 -115l-30 60l245 160zM25 287l5 26c21 130 103 308 338 308c195 0 248 -123 248 -239c0 -24 -2 -47 -6 -69l-5 -26c-21 -130 -103 -308 -338 -308c-195 0 -248 123 -248 239c0 24 2 47 6 69zM285 93c75 0 139 60 160 194l5 26c3 22 5 42 5 60
c0 92 -42 134 -105 134c-75 0 -139 -60 -160 -194l-5 -26c-3 -22 -5 -42 -5 -60c0 -92 42 -134 105 -134z" />
    <glyph glyph-name="ocircumflex" unicode="&#xf4;" horiz-adv-x="660" 
d="M175 725l213 145h40l167 -145l-53 -50l-152 80l-178 -80zM25 287l5 26c21 130 103 308 338 308c195 0 248 -123 248 -239c0 -24 -2 -47 -6 -69l-5 -26c-21 -130 -103 -308 -338 -308c-195 0 -248 123 -248 239c0 24 2 47 6 69zM285 93c75 0 139 60 160 194l5 26
c3 22 5 42 5 60c0 92 -42 134 -105 134c-75 0 -139 -60 -160 -194l-5 -26c-3 -22 -5 -42 -5 -60c0 -92 42 -134 105 -134z" />
    <glyph glyph-name="otilde" unicode="&#xf5;" horiz-adv-x="660" 
d="M177 740c37 66 80 125 155 125c60 0 89 -30 107 -48c16 -16 25 -27 35 -27c25 0 50 50 62 70l75 -30c-37 -66 -79 -125 -154 -125c-60 0 -90 30 -108 48c-16 16 -24 27 -34 27c-25 0 -51 -50 -63 -70zM25 287l5 26c21 130 103 308 338 308c195 0 248 -123 248 -239
c0 -24 -2 -47 -6 -69l-5 -26c-21 -130 -103 -308 -338 -308c-195 0 -248 123 -248 239c0 24 2 47 6 69zM285 93c75 0 139 60 160 194l5 26c3 22 5 42 5 60c0 92 -42 134 -105 134c-75 0 -139 -60 -160 -194l-5 -26c-3 -22 -5 -42 -5 -60c0 -92 42 -134 105 -134z" />
    <glyph glyph-name="odieresis" unicode="&#xf6;" horiz-adv-x="660" 
d="M281 859c44 0 74 -24 74 -64c0 -5 0 -10 -1 -15c-8 -49 -49 -79 -98 -79c-44 0 -73 24 -73 64c0 5 0 10 1 15c8 49 48 79 97 79zM531 859c44 0 74 -24 74 -64c0 -5 0 -10 -1 -15c-8 -49 -49 -79 -98 -79c-44 0 -73 24 -73 64c0 5 0 10 1 15c8 49 48 79 97 79zM25 287
l5 26c21 130 103 308 338 308c195 0 248 -123 248 -239c0 -24 -2 -47 -6 -69l-5 -26c-21 -130 -103 -308 -338 -308c-195 0 -248 123 -248 239c0 24 2 47 6 69zM285 93c75 0 139 60 160 194l5 26c3 22 5 42 5 60c0 92 -42 134 -105 134c-75 0 -139 -60 -160 -194l-5 -26
c-3 -22 -5 -42 -5 -60c0 -92 42 -134 105 -134z" />
    <glyph glyph-name="divide" unicode="&#xf7;" horiz-adv-x="600" 
d="M63 305l18 110h450l-18 -110h-450zM191 195c7 46 47 74 92 74c41 0 69 -23 69 -61c0 -4 0 -9 -1 -13c-7 -46 -47 -74 -92 -74c-41 0 -69 23 -69 61c0 4 0 9 1 13zM243 525c7 46 47 74 92 74c41 0 69 -23 69 -61c0 -4 0 -9 -1 -13c-7 -46 -47 -74 -92 -74
c-41 0 -69 23 -69 61c0 4 0 9 1 13z" />
    <glyph glyph-name="oslash" unicode="&#xf8;" horiz-adv-x="660" 
d="M25 287l5 26c21 130 103 308 338 308c74 0 128 -18 166 -46l44 46l58 -46l-54 -55c24 -42 33 -93 33 -142c0 -22 -2 -44 -5 -65l-5 -26c-21 -130 -103 -308 -338 -308c-74 0 -128 18 -166 46l-44 -46l-58 46l54 55c-24 42 -33 93 -33 142c0 22 2 44 5 65zM430 469
c-18 26 -46 38 -80 38c-75 0 -139 -60 -160 -194l-5 -26c-3 -20 -5 -40 -5 -57c0 -6 0 -12 1 -18zM454 388l-249 -257c18 -26 46 -38 80 -38c75 0 139 60 160 194l5 26c3 20 5 40 5 57c0 6 0 12 -1 18z" />
    <glyph glyph-name="ugrave" unicode="&#xf9;" horiz-adv-x="620" 
d="M212 805l82 105l195 -160l-50 -60zM21 194l64 406h160l-64 -406c-1 -9 -2 -17 -2 -25c0 -57 38 -76 86 -76c54 0 104 25 116 101l64 406h160l-64 -406c-18 -116 -132 -215 -294 -215c-147 0 -228 82 -228 184c0 10 0 20 2 31z" />
    <glyph glyph-name="uacute" unicode="&#xfa;" horiz-adv-x="620" 
d="M542 805l-263 -115l-30 60l245 160zM21 194l64 406h160l-64 -406c-1 -9 -2 -17 -2 -25c0 -57 38 -76 86 -76c54 0 104 25 116 101l64 406h160l-64 -406c-18 -116 -132 -215 -294 -215c-147 0 -228 82 -228 184c0 10 0 20 2 31z" />
    <glyph glyph-name="ucircumflex" unicode="&#xfb;" horiz-adv-x="620" 
d="M155 725l213 145h40l167 -145l-53 -50l-152 80l-178 -80zM21 194l64 406h160l-64 -406c-1 -9 -2 -17 -2 -25c0 -57 38 -76 86 -76c54 0 104 25 116 101l64 406h160l-64 -406c-18 -116 -132 -215 -294 -215c-147 0 -228 82 -228 184c0 10 0 20 2 31z" />
    <glyph glyph-name="udieresis" unicode="&#xfc;" horiz-adv-x="620" 
d="M261 859c44 0 74 -24 74 -64c0 -5 0 -10 -1 -15c-8 -49 -49 -79 -98 -79c-44 0 -73 24 -73 64c0 5 0 10 1 15c8 49 48 79 97 79zM511 859c44 0 74 -24 74 -64c0 -5 0 -10 -1 -15c-8 -49 -49 -79 -98 -79c-44 0 -73 24 -73 64c0 5 0 10 1 15c8 49 48 79 97 79zM21 194
l64 406h160l-64 -406c-1 -9 -2 -17 -2 -25c0 -57 38 -76 86 -76c54 0 104 25 116 101l64 406h160l-64 -406c-18 -116 -132 -215 -294 -215c-147 0 -228 82 -228 184c0 10 0 20 2 31z" />
    <glyph glyph-name="yacute" unicode="&#xfd;" horiz-adv-x="600" 
d="M532 805l-263 -115l-30 60l245 160zM32 580l1 8l177 12l64 -400l186 400l173 -12l-1 -8l-329 -595c-67 -109 -122 -216 -262 -216c-58 0 -97 22 -121 42l90 94c13 -13 27 -26 44 -26c39 0 66 40 119 129z" />
    <glyph glyph-name="thorn" unicode="&#xfe;" horiz-adv-x="675" 
d="M621 290c-21 -130 -115 -306 -304 -306c-64 0 -109 29 -138 71l-42 -265h-160l161 1020h155l-43 -271c44 45 101 77 168 77c159 0 211 -125 211 -242c0 -22 -2 -43 -5 -64zM204 217c10 -69 46 -117 112 -117c65 0 123 53 145 190l3 20c4 25 6 47 6 67
c0 88 -38 123 -91 123c-66 0 -116 -48 -148 -117z" />
    <glyph glyph-name="ydieresis" unicode="&#xff;" horiz-adv-x="600" 
d="M251 859c44 0 74 -24 74 -64c0 -5 0 -10 -1 -15c-8 -49 -49 -79 -98 -79c-44 0 -73 24 -73 64c0 5 0 10 1 15c8 49 48 79 97 79zM501 859c44 0 74 -24 74 -64c0 -5 0 -10 -1 -15c-8 -49 -49 -79 -98 -79c-44 0 -73 24 -73 64c0 5 0 10 1 15c8 49 48 79 97 79zM32 580l1 8
l177 12l64 -400l186 400l173 -12l-1 -8l-329 -595c-67 -109 -122 -216 -262 -216c-58 0 -97 22 -121 42l90 94c13 -13 27 -26 44 -26c39 0 66 40 119 129z" />
    <glyph glyph-name="Amacron" unicode="&#x100;" horiz-adv-x="750" 
d="M245 880l15 100h420l-15 -100h-420zM690 0h-190l-25 150h-272l-73 -150h-190l2 11l427 769h140l183 -769zM455 270l-50 296l-144 -296h194z" />
    <glyph glyph-name="amacron" unicode="&#x101;" horiz-adv-x="625" 
d="M156 730l15 100h420l-15 -100h-420zM8 174c12 75 87 156 237 156c52 0 103 -3 146 -7l14 89c1 8 2 16 2 23c0 55 -40 72 -87 72s-90 -26 -109 -92l-158 12c28 92 122 194 285 194c143 0 224 -77 224 -178c0 -10 0 -21 -2 -31l-40 -257c-2 -11 -3 -19 -3 -27
c0 -26 12 -36 47 -41l-57 -103c-35 5 -96 18 -117 72c-42 -41 -102 -72 -183 -72c-131 0 -202 61 -202 156c0 11 1 22 3 34zM384 230c-40 5 -93 9 -144 9c-28 0 -70 -17 -78 -67c-1 -7 -2 -14 -2 -20c0 -55 43 -73 83 -73c77 0 116 56 137 124z" />
    <glyph glyph-name="Abreve" unicode="&#x102;" horiz-adv-x="750" 
d="M261 984l101 31c6 -34 23 -80 101 -80s111 46 127 80l91 -31c-32 -68 -103 -144 -233 -144s-177 76 -187 144zM690 0h-190l-25 150h-272l-73 -150h-190l2 11l427 769h140l183 -769zM455 270l-50 296l-144 -296h194z" />
    <glyph glyph-name="abreve" unicode="&#x103;" horiz-adv-x="625" 
d="M172 834l101 31c6 -34 23 -80 101 -80s111 46 127 80l91 -31c-32 -68 -103 -144 -233 -144s-177 76 -187 144zM8 174c12 75 87 156 237 156c52 0 103 -3 146 -7l14 89c1 8 2 16 2 23c0 55 -40 72 -87 72s-90 -26 -109 -92l-158 12c28 92 122 194 285 194
c143 0 224 -77 224 -178c0 -10 0 -21 -2 -31l-40 -257c-2 -11 -3 -19 -3 -27c0 -26 12 -36 47 -41l-57 -103c-35 5 -96 18 -117 72c-42 -41 -102 -72 -183 -72c-131 0 -202 61 -202 156c0 11 1 22 3 34zM384 230c-40 5 -93 9 -144 9c-28 0 -70 -17 -78 -67
c-1 -7 -2 -14 -2 -20c0 -55 43 -73 83 -73c77 0 116 56 137 124z" />
    <glyph glyph-name="Aogonek" unicode="&#x104;" horiz-adv-x="750" 
d="M455 270l-50 296l-144 -296h194zM574 0h-74l-25 150h-272l-73 -150h-190l2 11l427 769h140l183 -769l-2 -11h-28c-26 -28 -53 -69 -62 -125c-1 -6 -1 -12 -1 -17c0 -31 17 -38 37 -38c26 0 56 11 63 15l13 -73c-29 -14 -67 -22 -108 -22c-72 0 -108 39 -108 96
c0 8 1 16 2 24c9 56 40 104 76 140z" />
    <glyph glyph-name="aogonek" unicode="&#x105;" horiz-adv-x="625" 
d="M384 230c-40 5 -93 9 -144 9c-28 0 -70 -17 -78 -67c-1 -7 -2 -14 -2 -20c0 -55 43 -73 83 -73c77 0 116 56 137 124zM8 174c12 75 87 156 237 156c52 0 103 -3 146 -7l14 89c1 8 2 16 2 23c0 55 -40 72 -87 72s-90 -26 -109 -92l-158 12c28 92 122 194 285 194
c143 0 224 -77 224 -178c0 -10 0 -21 -2 -31l-40 -257c-2 -11 -3 -19 -3 -27c0 -26 12 -36 47 -41l-57 -103c-4 1 -7 1 -12 2c-22 -27 -43 -64 -50 -111c-1 -6 -1 -12 -1 -17c0 -31 17 -38 37 -38c26 0 56 11 63 15l13 -73c-29 -14 -67 -22 -108 -22c-72 0 -108 39 -108 96
c0 8 1 16 2 24c10 62 47 113 86 150c-16 11 -30 25 -39 46c-42 -41 -102 -72 -183 -72c-131 0 -202 61 -202 156c0 11 1 22 3 34z" />
    <glyph glyph-name="Cacute" unicode="&#x106;" horiz-adv-x="755" 
d="M666 955l-263 -115l-30 60l245 160zM44 375l5 30c28 175 141 396 430 396c212 0 281 -137 283 -219l-176 -16c-1 50 -41 107 -127 107c-117 0 -204 -91 -232 -268l-5 -30c-5 -30 -7 -57 -7 -82c0 -123 57 -186 154 -186c86 0 144 57 161 107l171 -16
c-28 -82 -140 -219 -352 -219c-242 0 -312 155 -312 308c0 30 2 60 7 88z" />
    <glyph glyph-name="cacute" unicode="&#x107;" horiz-adv-x="605" 
d="M562 805l-263 -115l-30 60l245 160zM391 168l158 -14c-21 -64 -109 -175 -282 -175c-195 0 -247 123 -247 239c0 24 2 48 6 70l3 24c21 130 103 309 339 309c173 0 227 -111 228 -175l-164 -14c-1 36 -31 73 -82 73c-70 0 -136 -59 -157 -193l-3 -24
c-3 -22 -5 -42 -5 -60c0 -91 42 -133 100 -133c51 0 93 37 106 73z" />
    <glyph glyph-name="Ccircumflex" unicode="&#x108;" horiz-adv-x="755" 
d="M279 875l213 145h40l167 -145l-53 -50l-152 80l-178 -80zM44 375l5 30c28 175 141 396 430 396c212 0 281 -137 283 -219l-176 -16c-1 50 -41 107 -127 107c-117 0 -204 -91 -232 -268l-5 -30c-5 -30 -7 -57 -7 -82c0 -123 57 -186 154 -186c86 0 144 57 161 107l171 -16
c-28 -82 -140 -219 -352 -219c-242 0 -312 155 -312 308c0 30 2 60 7 88z" />
    <glyph glyph-name="ccircumflex" unicode="&#x109;" horiz-adv-x="605" 
d="M175 725l213 145h40l167 -145l-53 -50l-152 80l-178 -80zM391 168l158 -14c-21 -64 -109 -175 -282 -175c-195 0 -247 123 -247 239c0 24 2 48 6 70l3 24c21 130 103 309 339 309c173 0 227 -111 228 -175l-164 -14c-1 36 -31 73 -82 73c-70 0 -136 -59 -157 -193l-3 -24
c-3 -22 -5 -42 -5 -60c0 -91 42 -133 100 -133c51 0 93 37 106 73z" />
    <glyph glyph-name="Cdotaccent" unicode="&#x10a;" horiz-adv-x="755" 
d="M403 930c9 54 54 88 108 88c49 0 83 -27 83 -72c0 -5 0 -11 -1 -16c-9 -54 -55 -88 -109 -88c-48 0 -82 27 -82 72c0 5 0 10 1 16zM44 375l5 30c28 175 141 396 430 396c212 0 281 -137 283 -219l-176 -16c-1 50 -41 107 -127 107c-117 0 -204 -91 -232 -268l-5 -30
c-5 -30 -7 -57 -7 -82c0 -123 57 -186 154 -186c86 0 144 57 161 107l171 -16c-28 -82 -140 -219 -352 -219c-242 0 -312 155 -312 308c0 30 2 60 7 88z" />
    <glyph glyph-name="cdotaccent" unicode="&#x10b;" horiz-adv-x="605" 
d="M299 780c9 54 54 88 108 88c49 0 83 -27 83 -72c0 -5 0 -11 -1 -16c-9 -54 -55 -88 -109 -88c-48 0 -82 27 -82 72c0 5 0 10 1 16zM391 168l158 -14c-21 -64 -109 -175 -282 -175c-195 0 -247 123 -247 239c0 24 2 48 6 70l3 24c21 130 103 309 339 309
c173 0 227 -111 228 -175l-164 -14c-1 36 -31 73 -82 73c-70 0 -136 -59 -157 -193l-3 -24c-3 -22 -5 -42 -5 -60c0 -91 42 -133 100 -133c51 0 93 37 106 73z" />
    <glyph glyph-name="Ccaron" unicode="&#x10c;" horiz-adv-x="755" 
d="M715 980l-213 -145h-40l-167 145l53 50l153 -80l177 80zM44 375l5 30c28 175 141 396 430 396c212 0 281 -137 283 -219l-176 -16c-1 50 -41 107 -127 107c-117 0 -204 -91 -232 -268l-5 -30c-5 -30 -7 -57 -7 -82c0 -123 57 -186 154 -186c86 0 144 57 161 107l171 -16
c-28 -82 -140 -219 -352 -219c-242 0 -312 155 -312 308c0 30 2 60 7 88z" />
    <glyph glyph-name="ccaron" unicode="&#x10d;" horiz-adv-x="605" 
d="M611 830l-213 -145h-40l-167 145l53 50l153 -80l177 80zM391 168l158 -14c-21 -64 -109 -175 -282 -175c-195 0 -247 123 -247 239c0 24 2 48 6 70l3 24c21 130 103 309 339 309c173 0 227 -111 228 -175l-164 -14c-1 36 -31 73 -82 73c-70 0 -136 -59 -157 -193l-3 -24
c-3 -22 -5 -42 -5 -60c0 -91 42 -133 100 -133c51 0 93 37 106 73z" />
    <glyph glyph-name="Dcaron" unicode="&#x10e;" horiz-adv-x="770" 
d="M625 980l-213 -145h-40l-167 145l53 50l153 -80l177 80zM203 114c19 0 39 -1 55 -1c185 0 271 102 297 267l3 20c4 26 6 50 6 73c0 122 -62 194 -218 194c-16 0 -37 -1 -56 -1zM139 780c0 0 113 9 226 9c279 0 369 -155 369 -316c0 -24 -2 -49 -6 -73l-3 -20
c-29 -183 -165 -389 -486 -389c-113 0 -224 9 -224 9z" />
    <glyph glyph-name="dcaron" unicode="&#x10f;" horiz-adv-x="890" 
d="M830 681h-7c-39 0 -65 21 -65 56c0 4 0 9 1 13c8 48 44 85 100 85c58 0 79 -39 79 -77c0 -6 0 -11 -1 -17c-17 -109 -100 -167 -167 -191l-30 50c32 11 68 37 90 81zM26 290l3 20c21 130 115 306 304 306c67 0 112 -32 142 -77l43 271h155l-103 -655
c-2 -11 -3 -19 -3 -27c0 -26 12 -36 47 -41l-57 -103c-43 6 -124 24 -124 114v2c-48 -64 -116 -116 -201 -116c-159 0 -211 125 -211 242c0 22 2 43 5 64zM448 364c-5 79 -43 136 -114 136c-65 0 -123 -53 -145 -190l-3 -20c-4 -25 -6 -47 -6 -67c0 -88 38 -123 91 -123
c71 0 125 57 156 136z" />
    <glyph glyph-name="Dcroat" unicode="&#x110;" horiz-adv-x="770" 
d="M0 345l14 90h70l55 345s113 9 226 9c279 0 369 -155 369 -316c0 -24 -2 -49 -6 -73l-3 -20c-29 -183 -165 -389 -486 -389c-113 0 -224 9 -224 9l55 345h-70zM203 114c19 0 39 -1 55 -1c185 0 271 102 297 267l3 20c4 26 6 50 6 73c0 122 -62 194 -218 194
c-16 0 -37 -1 -56 -1l-36 -231h180l-14 -90h-180z" />
    <glyph glyph-name="dcroat" unicode="&#x111;" horiz-adv-x="680" 
d="M362 675l14 90h135l7 45h155l-7 -45h70l-14 -90h-70l-82 -520c-2 -11 -3 -19 -3 -27c0 -26 12 -36 47 -41l-57 -103c-43 6 -124 24 -124 114v2c-48 -64 -116 -116 -201 -116c-159 0 -211 125 -211 242c0 22 2 43 5 64l3 20c21 130 115 306 304 306c67 0 112 -32 142 -77
l22 136h-135zM448 364c-5 79 -43 136 -114 136c-65 0 -123 -53 -145 -190l-3 -20c-4 -25 -6 -47 -6 -67c0 -88 38 -123 91 -123c71 0 125 57 156 136z" />
    <glyph glyph-name="Emacron" unicode="&#x112;" horiz-adv-x="675" 
d="M220 880l15 100h420l-15 -100h-420zM15 0l124 780h545l-21 -130h-375l-33 -205h335l-19 -120h-335l-30 -195h390l-21 -130h-560z" />
    <glyph glyph-name="emacron" unicode="&#x113;" horiz-adv-x="640" 
d="M176 730l15 100h420l-15 -100h-420zM25 287l5 26c21 131 108 308 336 308c165 0 234 -107 234 -220c0 -15 -1 -29 -3 -44c-5 -31 -14 -62 -25 -92h-393c-2 -14 -2 -28 -2 -40c0 -91 41 -134 105 -134c59 0 103 40 115 76l152 -14c-22 -66 -113 -174 -284 -174
c-194 0 -246 122 -246 239c0 24 2 47 6 69zM197 365h251c2 13 3 25 3 36c0 79 -45 108 -102 108c-66 0 -124 -47 -152 -144z" />
    <glyph glyph-name="Ebreve" unicode="&#x114;" horiz-adv-x="675" 
d="M236 984l101 31c6 -34 23 -80 101 -80s111 46 127 80l91 -31c-32 -68 -103 -144 -233 -144s-177 76 -187 144zM15 0l124 780h545l-21 -130h-375l-33 -205h335l-19 -120h-335l-30 -195h390l-21 -130h-560z" />
    <glyph glyph-name="ebreve" unicode="&#x115;" horiz-adv-x="640" 
d="M192 834l101 31c6 -34 23 -80 101 -80s111 46 127 80l91 -31c-32 -68 -103 -144 -233 -144s-177 76 -187 144zM25 287l5 26c21 131 108 308 336 308c165 0 234 -107 234 -220c0 -15 -1 -29 -3 -44c-5 -31 -14 -62 -25 -92h-393c-2 -14 -2 -28 -2 -40
c0 -91 41 -134 105 -134c59 0 103 40 115 76l152 -14c-22 -66 -113 -174 -284 -174c-194 0 -246 122 -246 239c0 24 2 47 6 69zM197 365h251c2 13 3 25 3 36c0 79 -45 108 -102 108c-66 0 -124 -47 -152 -144z" />
    <glyph glyph-name="Edotaccent" unicode="&#x116;" horiz-adv-x="675" 
d="M343 930c9 54 54 88 108 88c49 0 83 -27 83 -72c0 -5 0 -11 -1 -16c-9 -54 -55 -88 -109 -88c-48 0 -82 27 -82 72c0 5 0 10 1 16zM15 0l124 780h545l-21 -130h-375l-33 -205h335l-19 -120h-335l-30 -195h390l-21 -130h-560z" />
    <glyph glyph-name="edotaccent" unicode="&#x117;" horiz-adv-x="640" 
d="M299 780c9 54 54 88 108 88c49 0 83 -27 83 -72c0 -5 0 -11 -1 -16c-9 -54 -55 -88 -109 -88c-48 0 -82 27 -82 72c0 5 0 10 1 16zM25 287l5 26c21 131 108 308 336 308c165 0 234 -107 234 -220c0 -15 -1 -29 -3 -44c-5 -31 -14 -62 -25 -92h-393c-2 -14 -2 -28 -2 -40
c0 -91 41 -134 105 -134c59 0 103 40 115 76l152 -14c-22 -66 -113 -174 -284 -174c-194 0 -246 122 -246 239c0 24 2 47 6 69zM197 365h251c2 13 3 25 3 36c0 79 -45 108 -102 108c-66 0 -124 -47 -152 -144z" />
    <glyph glyph-name="Eogonek" unicode="&#x118;" horiz-adv-x="675" 
d="M15 0l124 780h545l-21 -130h-375l-33 -205h335l-19 -120h-335l-30 -195h390l-21 -130h-38c-26 -28 -53 -69 -62 -125c-1 -6 -1 -12 -1 -17c0 -31 17 -38 37 -38c26 0 56 11 63 15l13 -73c-29 -14 -67 -22 -108 -22c-72 0 -108 39 -108 96c0 8 1 16 2 24
c9 56 40 104 76 140h-434z" />
    <glyph glyph-name="eogonek" unicode="&#x119;" horiz-adv-x="640" 
d="M197 365h251c2 13 3 25 3 36c0 79 -45 108 -102 108c-66 0 -124 -47 -152 -144zM25 287l5 26c21 131 108 308 336 308c165 0 234 -107 234 -220c0 -15 -1 -29 -3 -44c-5 -31 -14 -62 -25 -92h-393c-2 -14 -2 -28 -2 -40c0 -91 41 -134 105 -134c59 0 103 40 115 76
l152 -14c-15 -43 -58 -104 -134 -141c-30 -27 -65 -73 -75 -137c-1 -6 -1 -12 -1 -17c0 -31 17 -38 37 -38c26 0 56 11 63 15l13 -73c-29 -14 -67 -22 -108 -22c-72 0 -108 39 -108 96c0 8 1 16 2 24c7 47 30 87 58 120c-10 -1 -20 -1 -31 -1c-194 0 -246 122 -246 239
c0 24 2 47 6 69z" />
    <glyph glyph-name="Ecaron" unicode="&#x11a;" horiz-adv-x="675" 
d="M655 980l-213 -145h-40l-167 145l53 50l153 -80l177 80zM15 0l124 780h545l-21 -130h-375l-33 -205h335l-19 -120h-335l-30 -195h390l-21 -130h-560z" />
    <glyph glyph-name="ecaron" unicode="&#x11b;" horiz-adv-x="640" 
d="M611 830l-213 -145h-40l-167 145l53 50l153 -80l177 80zM25 287l5 26c21 131 108 308 336 308c165 0 234 -107 234 -220c0 -15 -1 -29 -3 -44c-5 -31 -14 -62 -25 -92h-393c-2 -14 -2 -28 -2 -40c0 -91 41 -134 105 -134c59 0 103 40 115 76l152 -14
c-22 -66 -113 -174 -284 -174c-194 0 -246 122 -246 239c0 24 2 47 6 69zM197 365h251c2 13 3 25 3 36c0 79 -45 108 -102 108c-66 0 -124 -47 -152 -144z" />
    <glyph glyph-name="Gcircumflex" unicode="&#x11c;" horiz-adv-x="770" 
d="M279 875l213 145h40l167 -145l-53 -50l-152 80l-178 -80zM400 285l19 120h310l-43 -270c-52 -69 -163 -156 -337 -156c-242 0 -312 155 -312 308c0 30 2 60 7 88l5 30c28 175 141 396 430 396c212 0 281 -137 283 -219l-174 -16c-1 50 -41 109 -129 109
c-121 0 -207 -89 -236 -270l-5 -30c-5 -31 -7 -59 -7 -84c0 -125 57 -186 158 -186c86 0 135 26 166 55l20 125h-155z" />
    <glyph glyph-name="gcircumflex" unicode="&#x11d;" horiz-adv-x="670" 
d="M205 725l213 145h40l167 -145l-53 -50l-152 80l-178 -80zM30 315c20 125 114 301 303 301c73 0 119 -38 149 -89l22 73h136l-97 -615c-19 -120 -135 -216 -293 -216c-154 0 -224 72 -234 114l155 42c4 -16 31 -47 97 -47c63 0 113 29 125 107l18 113
c-45 -48 -104 -84 -174 -84c-160 0 -212 126 -212 241c0 21 2 41 5 60zM448 364c-5 79 -43 136 -114 136c-65 0 -123 -53 -144 -185c-4 -23 -5 -44 -5 -63c0 -86 37 -122 91 -122c71 0 125 57 156 136z" />
    <glyph glyph-name="Gbreve" unicode="&#x11e;" horiz-adv-x="770" 
d="M296 984l101 31c6 -34 23 -80 101 -80s111 46 127 80l91 -31c-32 -68 -103 -144 -233 -144s-177 76 -187 144zM400 285l19 120h310l-43 -270c-52 -69 -163 -156 -337 -156c-242 0 -312 155 -312 308c0 30 2 60 7 88l5 30c28 175 141 396 430 396c212 0 281 -137 283 -219
l-174 -16c-1 50 -41 109 -129 109c-121 0 -207 -89 -236 -270l-5 -30c-5 -31 -7 -59 -7 -84c0 -125 57 -186 158 -186c86 0 135 26 166 55l20 125h-155z" />
    <glyph glyph-name="gbreve" unicode="&#x11f;" horiz-adv-x="670" 
d="M222 834l101 31c6 -34 23 -80 101 -80s111 46 127 80l91 -31c-32 -68 -103 -144 -233 -144s-177 76 -187 144zM30 315c20 125 114 301 303 301c73 0 119 -38 149 -89l22 73h136l-97 -615c-19 -120 -135 -216 -293 -216c-154 0 -224 72 -234 114l155 42
c4 -16 31 -47 97 -47c63 0 113 29 125 107l18 113c-45 -48 -104 -84 -174 -84c-160 0 -212 126 -212 241c0 21 2 41 5 60zM448 364c-5 79 -43 136 -114 136c-65 0 -123 -53 -144 -185c-4 -23 -5 -44 -5 -63c0 -86 37 -122 91 -122c71 0 125 57 156 136z" />
    <glyph glyph-name="Gdotaccent" unicode="&#x120;" horiz-adv-x="770" 
d="M403 930c9 54 54 88 108 88c49 0 83 -27 83 -72c0 -5 0 -11 -1 -16c-9 -54 -55 -88 -109 -88c-48 0 -82 27 -82 72c0 5 0 10 1 16zM400 285l19 120h310l-43 -270c-52 -69 -163 -156 -337 -156c-242 0 -312 155 -312 308c0 30 2 60 7 88l5 30c28 175 141 396 430 396
c212 0 281 -137 283 -219l-174 -16c-1 50 -41 109 -129 109c-121 0 -207 -89 -236 -270l-5 -30c-5 -31 -7 -59 -7 -84c0 -125 57 -186 158 -186c86 0 135 26 166 55l20 125h-155z" />
    <glyph glyph-name="gdotaccent" unicode="&#x121;" horiz-adv-x="670" 
d="M329 780c9 54 54 88 108 88c49 0 83 -27 83 -72c0 -5 0 -11 -1 -16c-9 -54 -55 -88 -109 -88c-48 0 -82 27 -82 72c0 5 0 10 1 16zM30 315c20 125 114 301 303 301c73 0 119 -38 149 -89l22 73h136l-97 -615c-19 -120 -135 -216 -293 -216c-154 0 -224 72 -234 114
l155 42c4 -16 31 -47 97 -47c63 0 113 29 125 107l18 113c-45 -48 -104 -84 -174 -84c-160 0 -212 126 -212 241c0 21 2 41 5 60zM448 364c-5 79 -43 136 -114 136c-65 0 -123 -53 -144 -185c-4 -23 -5 -44 -5 -63c0 -86 37 -122 91 -122c71 0 125 57 156 136z" />
    <glyph glyph-name="uni0122" unicode="&#x122;" horiz-adv-x="770" 
d="M302 -219h-7c-39 0 -65 21 -65 56c0 4 0 9 1 13c8 48 45 85 101 85c58 0 79 -39 79 -77c0 -6 0 -11 -1 -17c-17 -109 -100 -167 -167 -191l-31 50c32 11 68 37 90 81zM400 285l19 120h310l-43 -270c-52 -69 -163 -156 -337 -156c-242 0 -312 155 -312 308c0 30 2 60 7 88
l5 30c28 175 141 396 430 396c212 0 281 -137 283 -219l-174 -16c-1 50 -41 109 -129 109c-121 0 -207 -89 -236 -270l-5 -30c-5 -31 -7 -59 -7 -84c0 -125 57 -186 158 -186c86 0 135 26 166 55l20 125h-155z" />
    <glyph glyph-name="uni0123" unicode="&#x123;" horiz-adv-x="670" 
d="M447 849h7c39 0 66 -21 66 -57c0 -4 0 -8 -1 -12c-8 -48 -45 -85 -101 -85c-58 0 -79 39 -79 77c0 6 0 11 1 17c17 109 100 167 167 191l30 -50c-32 -11 -68 -37 -90 -81zM30 315c20 125 114 301 303 301c73 0 119 -38 149 -89l22 73h136l-97 -615
c-19 -120 -135 -216 -293 -216c-154 0 -224 72 -234 114l155 42c4 -16 31 -47 97 -47c63 0 113 29 125 107l18 113c-45 -48 -104 -84 -174 -84c-160 0 -212 126 -212 241c0 21 2 41 5 60zM448 364c-5 79 -43 136 -114 136c-65 0 -123 -53 -144 -185c-4 -23 -5 -44 -5 -63
c0 -86 37 -122 91 -122c71 0 125 57 156 136z" />
    <glyph glyph-name="Hcircumflex" unicode="&#x124;" horiz-adv-x="790" 
d="M264 875l213 145h40l167 -145l-53 -50l-152 80l-178 -80zM15 0l124 780h170l-52 -325h300l52 325h170l-124 -780h-170l51 325h-300l-51 -325h-170z" />
    <glyph glyph-name="hcircumflex" unicode="&#x125;" horiz-adv-x="665" 
d="M9 905l213 145h40l167 -145l-53 -50l-152 80l-178 -80zM10 0l128 810h155l-52 -328c54 73 131 134 232 134c104 0 145 -77 145 -164c0 -15 -2 -31 -4 -46l-64 -406h-160l63 400c2 12 3 22 3 31c0 51 -28 59 -48 59c-67 0 -154 -87 -190 -187l-48 -303h-160z" />
    <glyph glyph-name="Hbar" unicode="&#x126;" horiz-adv-x="790" 
d="M42 615l15 90h70l12 75h170l-12 -75h300l12 75h170l-12 -75h70l-15 -90h-70l-97 -615h-170l51 325h-300l-51 -325h-170l97 615h-70zM582 615h-300l-25 -160h300z" />
    <glyph glyph-name="hbar" unicode="&#x127;" horiz-adv-x="665" 
d="M47 675l14 90h70l7 45h155l-7 -45h135l-14 -90h-135l-31 -193c54 73 131 134 232 134c104 0 145 -77 145 -164c0 -15 -2 -31 -4 -46l-64 -406h-160l63 400c2 12 3 22 3 31c0 51 -28 59 -48 59c-67 0 -154 -87 -190 -187l-48 -303h-160l107 675h-70z" />
    <glyph glyph-name="Itilde" unicode="&#x128;" horiz-adv-x="320" 
d="M31 890c37 66 80 125 155 125c60 0 89 -30 107 -48c16 -16 25 -27 35 -27c25 0 50 50 62 70l75 -30c-37 -66 -79 -125 -154 -125c-60 0 -90 30 -108 48c-16 16 -24 27 -34 27c-25 0 -51 -50 -63 -70zM15 0l124 780h170l-124 -780h-170z" />
    <glyph glyph-name="itilde" unicode="&#x129;" horiz-adv-x="300" 
d="M-3 740c37 66 80 125 155 125c60 0 89 -30 107 -48c16 -16 25 -27 35 -27c25 0 50 50 62 70l75 -30c-37 -66 -79 -125 -154 -125c-60 0 -90 30 -108 48c-16 16 -24 27 -34 27c-25 0 -51 -50 -63 -70zM10 0l95 600h160l-95 -600h-160z" />
    <glyph glyph-name="Imacron" unicode="&#x12a;" horiz-adv-x="320" 
d="M30 880l15 100h420l-15 -100h-420zM15 0l124 780h170l-124 -780h-170z" />
    <glyph glyph-name="imacron" unicode="&#x12b;" horiz-adv-x="300" 
d="M-4 730l15 100h420l-15 -100h-420zM10 0l95 600h160l-95 -600h-160z" />
    <glyph glyph-name="Ibreve" unicode="&#x12c;" horiz-adv-x="320" 
d="M46 984l101 31c6 -34 23 -80 101 -80s111 46 127 80l91 -31c-32 -68 -103 -144 -233 -144s-177 76 -187 144zM15 0l124 780h170l-124 -780h-170z" />
    <glyph glyph-name="ibreve" unicode="&#x12d;" horiz-adv-x="300" 
d="M12 834l101 31c6 -34 23 -80 101 -80s111 46 127 80l91 -31c-32 -68 -103 -144 -233 -144s-177 76 -187 144zM10 0l95 600h160l-95 -600h-160z" />
    <glyph glyph-name="Iogonek" unicode="&#x12e;" horiz-adv-x="320" 
d="M15 0l124 780h170l-124 -780h-28c-26 -28 -53 -69 -62 -125c-1 -6 -1 -12 -1 -17c0 -31 17 -38 37 -38c26 0 56 11 63 15l13 -73c-29 -14 -67 -22 -108 -22c-72 0 -108 39 -108 96c0 8 1 16 2 24c9 56 40 104 76 140h-54z" />
    <glyph glyph-name="iogonek" unicode="&#x12f;" horiz-adv-x="300" 
d="M10 0l95 600h160l-95 -600h-23c-26 -28 -53 -69 -62 -125c-1 -6 -1 -12 -1 -17c0 -31 17 -38 37 -38c26 0 56 11 63 15l13 -73c-29 -14 -67 -22 -108 -22c-72 0 -108 39 -108 96c0 8 1 16 2 24c9 56 40 104 76 140h-49zM119 780c9 54 54 88 108 88c49 0 83 -27 83 -72
c0 -5 0 -11 -1 -16c-9 -54 -55 -88 -109 -88c-48 0 -82 27 -82 72c0 5 0 10 1 16z" />
    <glyph glyph-name="Idotaccent" unicode="&#x130;" horiz-adv-x="320" 
d="M153 930c9 54 54 88 108 88c49 0 83 -27 83 -72c0 -5 0 -11 -1 -16c-9 -54 -55 -88 -109 -88c-48 0 -82 27 -82 72c0 5 0 10 1 16zM15 0l124 780h170l-124 -780h-170z" />
    <glyph glyph-name="dotlessi" unicode="&#x131;" horiz-adv-x="300" 
d="M10 0l95 600h160l-95 -600h-160z" />
    <glyph glyph-name="Jcircumflex" unicode="&#x134;" horiz-adv-x="520" 
d="M229 875l213 145h40l167 -145l-53 -50l-152 80l-178 -80zM-32 143l172 12c0 -46 20 -56 41 -56c20 0 51 7 61 70l97 611h170l-97 -611c-15 -97 -106 -190 -250 -190c-142 0 -194 88 -194 162v2z" />
    <glyph glyph-name="jcircumflex" unicode="&#x135;" horiz-adv-x="310" 
d="M5 725l213 145h40l167 -145l-53 -50l-152 80l-178 -80zM-61 -226l-34 101c68 16 102 43 114 120l96 605h160l-97 -615c-19 -121 -132 -189 -239 -211z" />
    <glyph glyph-name="uni0136" unicode="&#x136;" horiz-adv-x="715" 
d="M252 -219h-7c-39 0 -65 21 -65 56c0 4 0 9 1 13c8 48 45 85 101 85c58 0 79 -39 79 -77c0 -6 0 -11 -1 -17c-17 -109 -100 -167 -167 -191l-31 50c32 11 68 37 90 81zM15 0l124 780h164l-50 -313l316 313l187 -13l-1 -8l-353 -314l264 -437l-1 -8h-199l-190 332l-52 -45
l-45 -287h-164z" />
    <glyph glyph-name="uni0137" unicode="&#x137;" horiz-adv-x="605" 
d="M252 -219h-7c-39 0 -65 21 -65 56c0 4 0 9 1 13c8 48 45 85 101 85c58 0 79 -39 79 -77c0 -6 0 -11 -1 -17c-17 -109 -100 -167 -167 -191l-31 50c32 11 68 37 90 81zM20 0l128 810h152l-67 -428l222 218l173 -10l-1 -6l-276 -243l205 -335l-1 -6h-182l-139 238l-28 -25
l-34 -213h-152z" />
    <glyph glyph-name="kgreenlandic" unicode="&#x138;" horiz-adv-x="610" 
d="M20 0l95 600h152l-34 -218l222 218l173 -10l-1 -6l-276 -243l205 -335l-1 -6h-182l-139 238l-28 -25l-34 -213h-152z" />
    <glyph glyph-name="Lacute" unicode="&#x139;" horiz-adv-x="570" 
d="M416 955l-263 -115l-30 60l245 160zM15 0l124 780h172l-103 -650h313l-21 -130h-485z" />
    <glyph glyph-name="lacute" unicode="&#x13a;" horiz-adv-x="315" 
d="M401 985l-263 -115l-30 60l245 160zM32 140l106 670h160l-103 -655c-1 -6 -1 -11 -1 -16c0 -34 22 -47 75 -52l-47 -103c-80 6 -192 27 -192 130c0 8 1 17 2 26z" />
    <glyph glyph-name="uni013B" unicode="&#x13b;" horiz-adv-x="570" 
d="M212 -219h-7c-39 0 -65 21 -65 56c0 4 0 9 1 13c8 48 45 85 101 85c58 0 79 -39 79 -77c0 -6 0 -11 -1 -17c-17 -109 -100 -167 -167 -191l-31 50c32 11 68 37 90 81zM15 0l124 780h172l-103 -650h313l-21 -130h-485z" />
    <glyph glyph-name="uni013C" unicode="&#x13c;" horiz-adv-x="315" 
d="M82 -219h-7c-39 0 -65 21 -65 56c0 4 0 9 1 13c8 48 45 85 101 85c58 0 79 -39 79 -77c0 -6 0 -11 -1 -17c-17 -109 -100 -167 -167 -191l-31 50c32 11 68 37 90 81zM32 140l106 670h160l-103 -655c-1 -6 -1 -11 -1 -16c0 -34 22 -47 75 -52l-47 -103
c-80 6 -192 27 -192 130c0 8 1 17 2 26z" />
    <glyph glyph-name="Lcaron" unicode="&#x13d;" horiz-adv-x="570" 
d="M15 0l124 780h172l-103 -650h313l-21 -130h-485zM480 681h-7c-39 0 -65 21 -65 56c0 4 0 9 1 13c8 48 44 85 100 85c58 0 79 -39 79 -77c0 -6 0 -11 -1 -17c-17 -109 -100 -167 -167 -191l-30 50c32 11 68 37 90 81z" />
    <glyph glyph-name="lcaron" unicode="&#x13e;" horiz-adv-x="525" 
d="M32 140l106 670h160l-103 -655c-1 -6 -1 -11 -1 -16c0 -34 22 -47 75 -52l-47 -103c-80 6 -192 27 -192 130c0 8 1 17 2 26zM465 681h-7c-39 0 -65 21 -65 56c0 4 0 9 1 13c8 48 44 85 100 85c58 0 79 -39 79 -77c0 -6 0 -11 -1 -17c-17 -109 -100 -167 -167 -191l-30 50
c32 11 68 37 90 81z" />
    <glyph glyph-name="Ldot" unicode="&#x13f;" horiz-adv-x="570" 
d="M15 0l124 780h172l-103 -650h313l-21 -130h-485zM337 360c9 54 55 88 109 88c48 0 82 -27 82 -72c0 -5 0 -10 -1 -16c-9 -54 -55 -88 -109 -88c-48 0 -82 27 -82 72c0 5 0 10 1 16z" />
    <glyph glyph-name="ldot" unicode="&#x140;" horiz-adv-x="510" 
d="M32 140l106 670h160l-103 -655c-1 -6 -1 -11 -1 -16c0 -34 22 -47 75 -52l-47 -103c-80 6 -192 27 -192 130c0 8 1 17 2 26zM287 360c9 54 55 88 109 88c48 0 82 -27 82 -72c0 -5 0 -10 -1 -16c-9 -54 -55 -88 -109 -88c-48 0 -82 27 -82 72c0 5 0 10 1 16z" />
    <glyph glyph-name="Lslash" unicode="&#x141;" horiz-adv-x="580" 
d="M274 486l117 69l-3 -97l-131 -77l-39 -251h313l-21 -130h-485l43 269l-75 -44l3 97l88 52l65 406h172z" />
    <glyph glyph-name="lslash" unicode="&#x142;" horiz-adv-x="360" 
d="M256 478l130 77l-3 -97l-144 -85l-34 -218c-1 -6 -1 -11 -1 -16c0 -34 22 -47 75 -52l-47 -103c-80 6 -192 27 -192 130c0 8 1 17 2 26l21 129l-75 -44l3 97l88 52l69 436h160z" />
    <glyph glyph-name="Nacute" unicode="&#x143;" horiz-adv-x="790" 
d="M651 955l-263 -115l-30 60l245 160zM15 0l121 765l148 15l248 -507l81 507h166l-124 -780h-145l-249 507l-80 -507h-166z" />
    <glyph glyph-name="nacute" unicode="&#x144;" horiz-adv-x="655" 
d="M562 805l-263 -115l-30 60l245 160zM10 0l67 420l17 171l147 12l-3 -119c51 72 125 132 225 132c104 0 145 -77 145 -164c0 -15 -2 -31 -4 -46l-64 -406h-160l63 400c2 12 3 22 3 31c0 51 -28 59 -48 59c-67 0 -145 -85 -180 -185l-48 -305h-160z" />
    <glyph glyph-name="uni0145" unicode="&#x145;" horiz-adv-x="790" 
d="M287 -219h-7c-39 0 -65 21 -65 56c0 4 0 9 1 13c8 48 45 85 101 85c58 0 79 -39 79 -77c0 -6 0 -11 -1 -17c-17 -109 -100 -167 -167 -191l-31 50c32 11 68 37 90 81zM15 0l121 765l148 15l248 -507l81 507h166l-124 -780h-145l-249 507l-80 -507h-166z" />
    <glyph glyph-name="uni0146" unicode="&#x146;" horiz-adv-x="655" 
d="M252 -219h-7c-39 0 -65 21 -65 56c0 4 0 9 1 13c8 48 45 85 101 85c58 0 79 -39 79 -77c0 -6 0 -11 -1 -17c-17 -109 -100 -167 -167 -191l-31 50c32 11 68 37 90 81zM10 0l67 420l17 171l147 12l-3 -119c51 72 125 132 225 132c104 0 145 -77 145 -164
c0 -15 -2 -31 -4 -46l-64 -406h-160l63 400c2 12 3 22 3 31c0 51 -28 59 -48 59c-67 0 -145 -85 -180 -185l-48 -305h-160z" />
    <glyph glyph-name="Ncaron" unicode="&#x147;" horiz-adv-x="790" 
d="M700 980l-213 -145h-40l-167 145l53 50l153 -80l177 80zM15 0l121 765l148 15l248 -507l81 507h166l-124 -780h-145l-249 507l-80 -507h-166z" />
    <glyph glyph-name="ncaron" unicode="&#x148;" horiz-adv-x="655" 
d="M611 830l-213 -145h-40l-167 145l53 50l153 -80l177 80zM10 0l67 420l17 171l147 12l-3 -119c51 72 125 132 225 132c104 0 145 -77 145 -164c0 -15 -2 -31 -4 -46l-64 -406h-160l63 400c2 12 3 22 3 31c0 51 -28 59 -48 59c-67 0 -145 -85 -180 -185l-48 -305h-160z" />
    <glyph glyph-name="napostrophe" unicode="&#x149;" horiz-adv-x="865" 
d="M80 818c8 53 49 92 109 92c67 0 92 -47 92 -98c0 -9 0 -18 -2 -27c-19 -123 -117 -211 -197 -255l-38 64c48 27 93 72 117 140h-5c-46 0 -77 26 -77 69c0 5 0 10 1 15zM220 0l67 420l17 171l147 12l-3 -119c51 72 125 132 225 132c104 0 145 -77 145 -164
c0 -15 -2 -31 -4 -46l-64 -406h-160l63 400c2 12 3 22 3 31c0 51 -28 59 -48 59c-67 0 -145 -85 -180 -185l-48 -305h-160z" />
    <glyph glyph-name="Omacron" unicode="&#x14c;" horiz-adv-x="820" 
d="M280 880l15 100h420l-15 -100h-420zM44 373l5 34c28 174 139 394 428 394c241 0 309 -152 309 -304c0 -30 -2 -61 -7 -90l-5 -34c-28 -174 -138 -394 -427 -394c-241 0 -310 153 -310 305c0 30 2 60 7 89zM366 104c121 0 206 93 234 269l5 34c5 30 7 58 7 83
c0 122 -55 186 -155 186c-121 0 -206 -93 -234 -269l-5 -34c-5 -30 -7 -58 -7 -83c0 -122 55 -186 155 -186z" />
    <glyph glyph-name="omacron" unicode="&#x14d;" horiz-adv-x="660" 
d="M176 730l15 100h420l-15 -100h-420zM25 287l5 26c21 130 103 308 338 308c195 0 248 -123 248 -239c0 -24 -2 -47 -6 -69l-5 -26c-21 -130 -103 -308 -338 -308c-195 0 -248 123 -248 239c0 24 2 47 6 69zM285 93c75 0 139 60 160 194l5 26c3 22 5 42 5 60
c0 92 -42 134 -105 134c-75 0 -139 -60 -160 -194l-5 -26c-3 -22 -5 -42 -5 -60c0 -92 42 -134 105 -134z" />
    <glyph glyph-name="Obreve" unicode="&#x14e;" horiz-adv-x="820" 
d="M296 984l101 31c6 -34 23 -80 101 -80s111 46 127 80l91 -31c-32 -68 -103 -144 -233 -144s-177 76 -187 144zM44 373l5 34c28 174 139 394 428 394c241 0 309 -152 309 -304c0 -30 -2 -61 -7 -90l-5 -34c-28 -174 -138 -394 -427 -394c-241 0 -310 153 -310 305
c0 30 2 60 7 89zM366 104c121 0 206 93 234 269l5 34c5 30 7 58 7 83c0 122 -55 186 -155 186c-121 0 -206 -93 -234 -269l-5 -34c-5 -30 -7 -58 -7 -83c0 -122 55 -186 155 -186z" />
    <glyph glyph-name="obreve" unicode="&#x14f;" horiz-adv-x="660" 
d="M192 834l101 31c6 -34 23 -80 101 -80s111 46 127 80l91 -31c-32 -68 -103 -144 -233 -144s-177 76 -187 144zM25 287l5 26c21 130 103 308 338 308c195 0 248 -123 248 -239c0 -24 -2 -47 -6 -69l-5 -26c-21 -130 -103 -308 -338 -308c-195 0 -248 123 -248 239
c0 24 2 47 6 69zM285 93c75 0 139 60 160 194l5 26c3 22 5 42 5 60c0 92 -42 134 -105 134c-75 0 -139 -60 -160 -194l-5 -26c-3 -22 -5 -42 -5 -60c0 -92 42 -134 105 -134z" />
    <glyph glyph-name="Ohungarumlaut" unicode="&#x150;" horiz-adv-x="820" 
d="M310 880l135 190l79 -65l-166 -165zM535 880l135 190l79 -65l-166 -165zM44 373l5 34c28 174 139 394 428 394c241 0 309 -152 309 -304c0 -30 -2 -61 -7 -90l-5 -34c-28 -174 -138 -394 -427 -394c-241 0 -310 153 -310 305c0 30 2 60 7 89zM366 104
c121 0 206 93 234 269l5 34c5 30 7 58 7 83c0 122 -55 186 -155 186c-121 0 -206 -93 -234 -269l-5 -34c-5 -30 -7 -58 -7 -83c0 -122 55 -186 155 -186z" />
    <glyph glyph-name="ohungarumlaut" unicode="&#x151;" horiz-adv-x="660" 
d="M206 730l135 190l79 -65l-166 -165zM431 730l135 190l79 -65l-166 -165zM25 287l5 26c21 130 103 308 338 308c195 0 248 -123 248 -239c0 -24 -2 -47 -6 -69l-5 -26c-21 -130 -103 -308 -338 -308c-195 0 -248 123 -248 239c0 24 2 47 6 69zM285 93c75 0 139 60 160 194
l5 26c3 22 5 42 5 60c0 92 -42 134 -105 134c-75 0 -139 -60 -160 -194l-5 -26c-3 -22 -5 -42 -5 -60c0 -92 42 -134 105 -134z" />
    <glyph glyph-name="OE" unicode="&#x152;" horiz-adv-x="980" 
d="M44 373l5 34c28 174 139 394 428 394c54 0 99 -7 137 -21h375l-21 -130h-315l-33 -205h275l-19 -120h-275l-30 -195h330l-21 -130h-390c-42 -14 -89 -21 -143 -21c-241 0 -310 153 -310 305c0 30 2 60 7 89zM487 674c-9 1 -19 2 -30 2c-121 0 -206 -93 -234 -269l-5 -34
c-5 -30 -7 -58 -7 -83c0 -122 55 -186 155 -186c11 0 22 1 31 2z" />
    <glyph glyph-name="oe" unicode="&#x153;" horiz-adv-x="960" 
d="M25 287l5 26c20 124 90 308 308 308c88 0 140 -30 170 -74c47 44 110 74 193 74c155 0 220 -105 220 -217c0 -16 -2 -31 -4 -47c-5 -31 -14 -62 -25 -92h-364c-2 -19 -4 -37 -4 -53c0 -82 32 -121 93 -121c59 0 93 40 105 76l152 -14c-22 -66 -116 -174 -274 -174
c-85 0 -139 29 -172 73c-44 -43 -104 -73 -191 -73c-175 0 -219 119 -219 230c0 27 3 54 7 78zM320 507c-53 0 -108 -54 -130 -194l-5 -26c-4 -27 -6 -51 -6 -72c0 -87 33 -122 76 -122c53 0 108 54 130 194l5 26c4 27 6 51 6 72c0 87 -33 122 -76 122zM547 365h221
c2 16 3 29 3 42c0 75 -36 102 -87 102c-58 0 -110 -47 -137 -144z" />
    <glyph glyph-name="Racute" unicode="&#x154;" horiz-adv-x="730" 
d="M616 955l-263 -115l-30 60l245 160zM268 302c-12 0 -25 1 -37 1l-48 -303h-168l49 310l75 470s138 9 276 9c183 0 299 -79 299 -207c0 -12 -1 -24 -3 -37c-19 -120 -118 -204 -260 -233l205 -304l-1 -8h-192zM250 424c24 -1 55 -3 87 -3c102 0 190 25 206 124
c1 8 2 17 2 24c0 79 -76 100 -169 100c-32 0 -64 -2 -88 -3z" />
    <glyph glyph-name="racute" unicode="&#x155;" horiz-adv-x="435" 
d="M472 805l-263 -115l-30 60l245 160zM88 588l137 15l13 -120c37 72 94 133 179 133c28 0 50 -7 68 -17l-81 -130c-10 7 -21 11 -37 11c-49 0 -98 -73 -127 -166l-50 -314h-160l71 450z" />
    <glyph glyph-name="uni0156" unicode="&#x156;" horiz-adv-x="730" 
d="M252 -219h-7c-39 0 -65 21 -65 56c0 4 0 9 1 13c8 48 45 85 101 85c58 0 79 -39 79 -77c0 -6 0 -11 -1 -17c-17 -109 -100 -167 -167 -191l-31 50c32 11 68 37 90 81zM268 302c-12 0 -25 1 -37 1l-48 -303h-168l49 310l75 470s138 9 276 9c183 0 299 -79 299 -207
c0 -12 -1 -24 -3 -37c-19 -120 -118 -204 -260 -233l205 -304l-1 -8h-192zM250 424c24 -1 55 -3 87 -3c102 0 190 25 206 124c1 8 2 17 2 24c0 79 -76 100 -169 100c-32 0 -64 -2 -88 -3z" />
    <glyph glyph-name="uni0157" unicode="&#x157;" horiz-adv-x="435" 
d="M62 -219h-7c-39 0 -65 21 -65 56c0 4 0 9 1 13c8 48 45 85 101 85c58 0 79 -39 79 -77c0 -6 0 -11 -1 -17c-17 -109 -100 -167 -167 -191l-31 50c32 11 68 37 90 81zM88 588l137 15l13 -120c37 72 94 133 179 133c28 0 50 -7 68 -17l-81 -130c-10 7 -21 11 -37 11
c-49 0 -98 -73 -127 -166l-50 -314h-160l71 450z" />
    <glyph glyph-name="Rcaron" unicode="&#x158;" horiz-adv-x="730" 
d="M665 980l-213 -145h-40l-167 145l53 50l153 -80l177 80zM268 302c-12 0 -25 1 -37 1l-48 -303h-168l49 310l75 470s138 9 276 9c183 0 299 -79 299 -207c0 -12 -1 -24 -3 -37c-19 -120 -118 -204 -260 -233l205 -304l-1 -8h-192zM250 424c24 -1 55 -3 87 -3
c102 0 190 25 206 124c1 8 2 17 2 24c0 79 -76 100 -169 100c-32 0 -64 -2 -88 -3z" />
    <glyph glyph-name="rcaron" unicode="&#x159;" horiz-adv-x="435" 
d="M521 830l-213 -145h-40l-167 145l53 50l153 -80l177 80zM88 588l137 15l13 -120c37 72 94 133 179 133c28 0 50 -7 68 -17l-81 -130c-10 7 -21 11 -37 11c-49 0 -98 -73 -127 -166l-50 -314h-160l71 450z" />
    <glyph glyph-name="Sacute" unicode="&#x15a;" horiz-adv-x="710" 
d="M611 955l-263 -115l-30 60l245 160zM9 184l172 24c1 -52 41 -107 130 -107c99 0 156 38 167 106c1 6 1 13 1 18c0 49 -37 64 -64 72c-54 15 -134 43 -188 63c-63 25 -143 77 -143 177c0 10 1 21 3 32c21 132 158 232 335 232c189 0 260 -123 263 -201l-172 -24
c-1 52 -39 103 -110 103c-81 0 -140 -40 -150 -102c-1 -4 -1 -9 -1 -13c0 -40 35 -53 71 -68c49 -18 127 -44 174 -59c74 -24 150 -77 150 -183c0 -12 -1 -25 -3 -39c-21 -133 -157 -236 -352 -236c-205 0 -281 125 -283 205z" />
    <glyph glyph-name="sacute" unicode="&#x15b;" horiz-adv-x="570" 
d="M517 805l-263 -115l-30 60l245 160zM-7 143l158 20c0 -39 31 -72 94 -72c61 0 102 27 109 71c1 4 1 8 1 11c0 34 -29 47 -46 52c-42 13 -101 29 -141 45c-52 20 -116 54 -116 137c0 9 0 18 2 28c16 104 124 186 269 186c158 0 213 -97 215 -161l-158 -20
c0 39 -21 69 -74 69c-52 0 -92 -26 -99 -68c0 -2 -1 -5 -1 -7c0 -28 28 -42 50 -49c39 -13 100 -31 131 -41c61 -20 123 -54 123 -141c0 -11 -1 -23 -3 -35c-17 -106 -128 -189 -285 -189c-169 0 -227 98 -229 164z" />
    <glyph glyph-name="Scircumflex" unicode="&#x15c;" horiz-adv-x="710" 
d="M224 875l213 145h40l167 -145l-53 -50l-152 80l-178 -80zM9 184l172 24c1 -52 41 -107 130 -107c99 0 156 38 167 106c1 6 1 13 1 18c0 49 -37 64 -64 72c-54 15 -134 43 -188 63c-63 25 -143 77 -143 177c0 10 1 21 3 32c21 132 158 232 335 232
c189 0 260 -123 263 -201l-172 -24c-1 52 -39 103 -110 103c-81 0 -140 -40 -150 -102c-1 -4 -1 -9 -1 -13c0 -40 35 -53 71 -68c49 -18 127 -44 174 -59c74 -24 150 -77 150 -183c0 -12 -1 -25 -3 -39c-21 -133 -157 -236 -352 -236c-205 0 -281 125 -283 205z" />
    <glyph glyph-name="scircumflex" unicode="&#x15d;" horiz-adv-x="570" 
d="M130 725l213 145h40l167 -145l-53 -50l-152 80l-178 -80zM-7 143l158 20c0 -39 31 -72 94 -72c61 0 102 27 109 71c1 4 1 8 1 11c0 34 -29 47 -46 52c-42 13 -101 29 -141 45c-52 20 -116 54 -116 137c0 9 0 18 2 28c16 104 124 186 269 186c158 0 213 -97 215 -161
l-158 -20c0 39 -21 69 -74 69c-52 0 -92 -26 -99 -68c0 -2 -1 -5 -1 -7c0 -28 28 -42 50 -49c39 -13 100 -31 131 -41c61 -20 123 -54 123 -141c0 -11 -1 -23 -3 -35c-17 -106 -128 -189 -285 -189c-169 0 -227 98 -229 164z" />
    <glyph glyph-name="Scedilla" unicode="&#x15e;" horiz-adv-x="710" 
d="M173 -265c72 15 154 45 154 94c0 12 -10 21 -51 21c-12 0 -29 -3 -41 -5l-37 45l64 90c-182 12 -251 128 -253 204l172 24c1 -52 41 -107 130 -107c99 0 156 38 167 106c1 6 1 13 1 18c0 49 -37 64 -64 72c-54 15 -134 43 -188 63c-63 25 -143 77 -143 177
c0 10 1 21 3 32c21 132 158 232 335 232c189 0 260 -123 263 -201l-172 -24c-1 52 -39 103 -110 103c-81 0 -140 -40 -150 -102c-1 -4 -1 -9 -1 -13c0 -40 35 -53 71 -68c49 -18 127 -44 174 -59c74 -24 150 -77 150 -183c0 -12 -1 -25 -3 -39c-19 -120 -131 -215 -296 -233
l-44 -62c76 0 124 -24 124 -79c0 -5 0 -10 -1 -16c-18 -116 -185 -148 -240 -160z" />
    <glyph glyph-name="scedilla" unicode="&#x15f;" horiz-adv-x="570" 
d="M103 -265c72 15 154 45 154 94c0 12 -10 21 -51 21c-12 0 -29 -3 -41 -5l-37 45l64 90c-146 11 -198 101 -199 163l158 20c0 -39 31 -72 94 -72c61 0 102 27 109 71c1 4 1 8 1 11c0 34 -29 47 -46 52c-42 13 -101 29 -141 45c-52 20 -116 54 -116 137c0 9 0 18 2 28
c16 104 124 186 269 186c158 0 213 -97 215 -161l-158 -20c0 39 -21 69 -74 69c-52 0 -92 -26 -99 -68c0 -2 -1 -5 -1 -7c0 -28 28 -42 50 -49c39 -13 100 -31 131 -41c61 -20 123 -54 123 -141c0 -11 -1 -23 -3 -35c-15 -93 -101 -167 -228 -185l-45 -63
c76 0 124 -24 124 -79c0 -5 0 -10 -1 -16c-18 -116 -185 -148 -240 -160z" />
    <glyph glyph-name="Scaron" unicode="&#x160;" horiz-adv-x="710" 
d="M660 980l-213 -145h-40l-167 145l53 50l153 -80l177 80zM9 184l172 24c1 -52 41 -107 130 -107c99 0 156 38 167 106c1 6 1 13 1 18c0 49 -37 64 -64 72c-54 15 -134 43 -188 63c-63 25 -143 77 -143 177c0 10 1 21 3 32c21 132 158 232 335 232c189 0 260 -123 263 -201
l-172 -24c-1 52 -39 103 -110 103c-81 0 -140 -40 -150 -102c-1 -4 -1 -9 -1 -13c0 -40 35 -53 71 -68c49 -18 127 -44 174 -59c74 -24 150 -77 150 -183c0 -12 -1 -25 -3 -39c-21 -133 -157 -236 -352 -236c-205 0 -281 125 -283 205z" />
    <glyph glyph-name="scaron" unicode="&#x161;" horiz-adv-x="570" 
d="M566 830l-213 -145h-40l-167 145l53 50l153 -80l177 80zM-7 143l158 20c0 -39 31 -72 94 -72c61 0 102 27 109 71c1 4 1 8 1 11c0 34 -29 47 -46 52c-42 13 -101 29 -141 45c-52 20 -116 54 -116 137c0 9 0 18 2 28c16 104 124 186 269 186c158 0 213 -97 215 -161
l-158 -20c0 39 -21 69 -74 69c-52 0 -92 -26 -99 -68c0 -2 -1 -5 -1 -7c0 -28 28 -42 50 -49c39 -13 100 -31 131 -41c61 -20 123 -54 123 -141c0 -11 -1 -23 -3 -35c-17 -106 -128 -189 -285 -189c-169 0 -227 98 -229 164z" />
    <glyph glyph-name="uni0162" unicode="&#x162;" horiz-adv-x="620" 
d="M113 -265c72 15 154 45 154 94c0 12 -10 21 -51 21c-12 0 -29 -3 -41 -5l-37 45l78 110h-51l104 655h-210l20 125h590l-20 -125h-210l-104 -655h-34l-57 -80c76 0 124 -24 124 -79c0 -5 0 -10 -1 -16c-18 -116 -185 -148 -240 -160z" />
    <glyph glyph-name="uni0163" unicode="&#x163;" horiz-adv-x="415" 
d="M63 -265c72 15 154 45 154 94c0 12 -10 21 -51 21c-12 0 -29 -3 -41 -5l-37 45l70 99c-61 12 -99 48 -99 116c0 11 1 23 3 35l57 360h-80l16 100h86l20 123l152 12l-21 -135h133l-16 -100h-130l-53 -336c-2 -13 -3 -23 -3 -32c0 -27 10 -34 32 -34c35 0 73 13 87 21
l20 -104c-30 -14 -70 -27 -121 -30l-47 -65c76 0 124 -24 124 -79c0 -5 0 -10 -1 -16c-18 -116 -185 -148 -240 -160z" />
    <glyph glyph-name="Tcaron" unicode="&#x164;" horiz-adv-x="620" 
d="M615 980l-213 -145h-40l-167 145l53 50l153 -80l177 80zM59 655l20 125h590l-20 -125h-210l-104 -655h-170l104 655h-210z" />
    <glyph glyph-name="tcaron" unicode="&#x165;" horiz-adv-x="625" 
d="M39 500l16 100h86l20 123l152 12l-21 -135h133l-16 -100h-130l-53 -336c-2 -13 -3 -23 -3 -32c0 -27 10 -34 32 -34c35 0 73 13 87 21l20 -104c-35 -16 -83 -31 -147 -31c-93 0 -156 34 -156 121c0 11 1 23 3 35l57 360h-80zM565 681h-7c-39 0 -65 21 -65 56
c0 4 0 9 1 13c8 48 44 85 100 85c58 0 79 -39 79 -77c0 -6 0 -11 -1 -17c-17 -109 -100 -167 -167 -191l-30 50c32 11 68 37 90 81z" />
    <glyph glyph-name="Utilde" unicode="&#x168;" horiz-adv-x="770" 
d="M256 890c37 66 80 125 155 125c60 0 89 -30 107 -48c16 -16 25 -27 35 -27c25 0 50 50 62 70l75 -30c-37 -66 -79 -125 -154 -125c-60 0 -90 30 -108 48c-16 16 -24 27 -34 27c-25 0 -51 -50 -63 -70zM44 246l85 534h172l-85 -534c-2 -12 -3 -22 -3 -32
c0 -79 54 -111 128 -111c83 0 155 40 171 143l85 534h172l-85 -534c-23 -147 -165 -267 -362 -267c-179 0 -281 99 -281 227c0 13 1 27 3 40z" />
    <glyph glyph-name="utilde" unicode="&#x169;" horiz-adv-x="620" 
d="M157 740c37 66 80 125 155 125c60 0 89 -30 107 -48c16 -16 25 -27 35 -27c25 0 50 50 62 70l75 -30c-37 -66 -79 -125 -154 -125c-60 0 -90 30 -108 48c-16 16 -24 27 -34 27c-25 0 -51 -50 -63 -70zM21 194l64 406h160l-64 -406c-1 -9 -2 -17 -2 -25
c0 -57 38 -76 86 -76c54 0 104 25 116 101l64 406h160l-64 -406c-18 -116 -132 -215 -294 -215c-147 0 -228 82 -228 184c0 10 0 20 2 31z" />
    <glyph glyph-name="Umacron" unicode="&#x16a;" horiz-adv-x="770" 
d="M255 880l15 100h420l-15 -100h-420zM44 246l85 534h172l-85 -534c-2 -12 -3 -22 -3 -32c0 -79 54 -111 128 -111c83 0 155 40 171 143l85 534h172l-85 -534c-23 -147 -165 -267 -362 -267c-179 0 -281 99 -281 227c0 13 1 27 3 40z" />
    <glyph glyph-name="umacron" unicode="&#x16b;" horiz-adv-x="620" 
d="M156 730l15 100h420l-15 -100h-420zM21 194l64 406h160l-64 -406c-1 -9 -2 -17 -2 -25c0 -57 38 -76 86 -76c54 0 104 25 116 101l64 406h160l-64 -406c-18 -116 -132 -215 -294 -215c-147 0 -228 82 -228 184c0 10 0 20 2 31z" />
    <glyph glyph-name="Ubreve" unicode="&#x16c;" horiz-adv-x="770" 
d="M271 984l101 31c6 -34 23 -80 101 -80s111 46 127 80l91 -31c-32 -68 -103 -144 -233 -144s-177 76 -187 144zM44 246l85 534h172l-85 -534c-2 -12 -3 -22 -3 -32c0 -79 54 -111 128 -111c83 0 155 40 171 143l85 534h172l-85 -534c-23 -147 -165 -267 -362 -267
c-179 0 -281 99 -281 227c0 13 1 27 3 40z" />
    <glyph glyph-name="ubreve" unicode="&#x16d;" horiz-adv-x="620" 
d="M172 834l101 31c6 -34 23 -80 101 -80s111 46 127 80l91 -31c-32 -68 -103 -144 -233 -144s-177 76 -187 144zM21 194l64 406h160l-64 -406c-1 -9 -2 -17 -2 -25c0 -57 38 -76 86 -76c54 0 104 25 116 101l64 406h160l-64 -406c-18 -116 -132 -215 -294 -215
c-147 0 -228 82 -228 184c0 10 0 20 2 31z" />
    <glyph glyph-name="Uring" unicode="&#x16e;" horiz-adv-x="770" 
d="M451 795c-66 0 -113 37 -113 98c0 7 1 14 2 22c12 74 75 120 149 120c66 0 113 -37 113 -98c0 -7 -1 -14 -2 -22c-12 -74 -75 -120 -149 -120zM462 865c32 0 53 21 58 50c1 4 1 8 1 11c0 23 -15 39 -43 39c-32 0 -53 -21 -58 -50c-1 -4 -1 -8 -1 -11c0 -23 15 -39 43 -39
zM44 246l85 534h172l-85 -534c-2 -12 -3 -22 -3 -32c0 -79 54 -111 128 -111c83 0 155 40 171 143l85 534h172l-85 -534c-23 -147 -165 -267 -362 -267c-179 0 -281 99 -281 227c0 13 1 27 3 40z" />
    <glyph glyph-name="uring" unicode="&#x16f;" horiz-adv-x="620" 
d="M352 645c-66 0 -113 37 -113 98c0 7 1 14 2 22c12 74 75 120 149 120c66 0 113 -37 113 -98c0 -7 -1 -14 -2 -22c-12 -74 -75 -120 -149 -120zM363 715c32 0 53 21 58 50c1 4 1 8 1 11c0 23 -15 39 -43 39c-32 0 -53 -21 -58 -50c-1 -4 -1 -8 -1 -11c0 -23 15 -39 43 -39
zM21 194l64 406h160l-64 -406c-1 -9 -2 -17 -2 -25c0 -57 38 -76 86 -76c54 0 104 25 116 101l64 406h160l-64 -406c-18 -116 -132 -215 -294 -215c-147 0 -228 82 -228 184c0 10 0 20 2 31z" />
    <glyph glyph-name="Uhungarumlaut" unicode="&#x170;" horiz-adv-x="770" 
d="M285 880l135 190l79 -65l-166 -165zM510 880l135 190l79 -65l-166 -165zM44 246l85 534h172l-85 -534c-2 -12 -3 -22 -3 -32c0 -79 54 -111 128 -111c83 0 155 40 171 143l85 534h172l-85 -534c-23 -147 -165 -267 -362 -267c-179 0 -281 99 -281 227c0 13 1 27 3 40z
" />
    <glyph glyph-name="uhungarumlaut" unicode="&#x171;" horiz-adv-x="620" 
d="M186 730l135 190l79 -65l-166 -165zM411 730l135 190l79 -65l-166 -165zM21 194l64 406h160l-64 -406c-1 -9 -2 -17 -2 -25c0 -57 38 -76 86 -76c54 0 104 25 116 101l64 406h160l-64 -406c-18 -116 -132 -215 -294 -215c-147 0 -228 82 -228 184c0 10 0 20 2 31z" />
    <glyph glyph-name="Uogonek" unicode="&#x172;" horiz-adv-x="770" 
d="M44 246l85 534h172l-85 -534c-2 -12 -3 -22 -3 -32c0 -79 54 -111 128 -111c83 0 155 40 171 143l85 534h172l-85 -534c-16 -103 -91 -194 -203 -238c-29 -28 -61 -71 -71 -133c-1 -6 -1 -12 -1 -17c0 -31 17 -38 37 -38c26 0 56 11 63 15l13 -73
c-29 -14 -67 -22 -108 -22c-72 0 -108 39 -108 96c0 8 1 16 2 24c7 47 31 88 59 121c-15 -1 -30 -2 -45 -2c-179 0 -281 99 -281 227c0 13 1 27 3 40z" />
    <glyph glyph-name="uogonek" unicode="&#x173;" horiz-adv-x="620" 
d="M21 194l64 406h160l-64 -406c-1 -9 -2 -17 -2 -25c0 -57 38 -76 86 -76c54 0 104 25 116 101l64 406h160l-64 -406c-13 -82 -74 -156 -167 -192c-27 -28 -55 -70 -64 -127c-1 -6 -1 -12 -1 -17c0 -31 17 -38 37 -38c26 0 56 11 63 15l13 -73c-29 -14 -67 -22 -108 -22
c-72 0 -108 39 -108 96c0 8 1 16 2 24c7 46 31 86 58 119h-19c-147 0 -228 82 -228 184c0 10 0 20 2 31z" />
    <glyph glyph-name="Wcircumflex" unicode="&#x174;" horiz-adv-x="1060" 
d="M399 875l213 145h40l167 -145l-53 -50l-152 80l-178 -80zM69 754l2 10l188 16l41 -533l220 513h140l58 -513l211 533l182 -16l-2 -10l-344 -754h-145l-68 518l-232 -518h-145z" />
    <glyph glyph-name="wcircumflex" unicode="&#x175;" horiz-adv-x="830" 
d="M260 725l213 145h40l167 -145l-53 -50l-152 80l-178 -80zM857 580l-265 -580h-135l-45 362l-159 -362h-135l-81 580l1 8l172 12l26 -364l149 349h126l37 -349l142 364l168 -12z" />
    <glyph glyph-name="Ycircumflex" unicode="&#x176;" horiz-adv-x="670" 
d="M204 875l213 145h40l167 -145l-53 -50l-152 80l-178 -80zM54 754l2 11l193 15l97 -330l203 330l187 -15l-2 -11l-328 -464l-46 -290h-170l46 290z" />
    <glyph glyph-name="ycircumflex" unicode="&#x177;" horiz-adv-x="600" 
d="M145 725l213 145h40l167 -145l-53 -50l-152 80l-178 -80zM32 580l1 8l177 12l64 -400l186 400l173 -12l-1 -8l-329 -595c-67 -109 -122 -216 -262 -216c-58 0 -97 22 -121 42l90 94c13 -13 27 -26 44 -26c39 0 66 40 119 129z" />
    <glyph glyph-name="Ydieresis" unicode="&#x178;" horiz-adv-x="670" 
d="M310 1009c44 0 74 -24 74 -64c0 -5 0 -10 -1 -15c-8 -49 -49 -79 -98 -79c-44 0 -73 24 -73 64c0 5 0 10 1 15c8 49 48 79 97 79zM560 1009c44 0 74 -24 74 -64c0 -5 0 -10 -1 -15c-8 -49 -49 -79 -98 -79c-44 0 -73 24 -73 64c0 5 0 10 1 15c8 49 48 79 97 79zM54 754
l2 11l193 15l97 -330l203 330l187 -15l-2 -11l-328 -464l-46 -290h-170l46 290z" />
    <glyph glyph-name="Zacute" unicode="&#x179;" horiz-adv-x="670" 
d="M591 955l-263 -115l-30 60l245 160zM-25 96l481 554h-363l21 130h577l-4 -96l-478 -554h402l-21 -130h-618z" />
    <glyph glyph-name="zacute" unicode="&#x17a;" horiz-adv-x="530" 
d="M497 805l-263 -115l-30 60l245 160zM-32 79l350 411h-260l17 110h460l-3 -79l-351 -411h291l-17 -110h-491z" />
    <glyph glyph-name="Zdotaccent" unicode="&#x17b;" horiz-adv-x="670" 
d="M328 930c9 54 54 88 108 88c49 0 83 -27 83 -72c0 -5 0 -11 -1 -16c-9 -54 -55 -88 -109 -88c-48 0 -82 27 -82 72c0 5 0 10 1 16zM-25 96l481 554h-363l21 130h577l-4 -96l-478 -554h402l-21 -130h-618z" />
    <glyph glyph-name="zdotaccent" unicode="&#x17c;" horiz-adv-x="530" 
d="M234 780c9 54 54 88 108 88c49 0 83 -27 83 -72c0 -5 0 -11 -1 -16c-9 -54 -55 -88 -109 -88c-48 0 -82 27 -82 72c0 5 0 10 1 16zM-32 79l350 411h-260l17 110h460l-3 -79l-351 -411h291l-17 -110h-491z" />
    <glyph glyph-name="Zcaron" unicode="&#x17d;" horiz-adv-x="670" 
d="M640 980l-213 -145h-40l-167 145l53 50l153 -80l177 80zM-25 96l481 554h-363l21 130h577l-4 -96l-478 -554h402l-21 -130h-618z" />
    <glyph glyph-name="zcaron" unicode="&#x17e;" horiz-adv-x="530" 
d="M546 830l-213 -145h-40l-167 145l53 50l153 -80l177 80zM-32 79l350 411h-260l17 110h460l-3 -79l-351 -411h291l-17 -110h-491z" />
    <glyph glyph-name="uni018F" unicode="&#x18f;" horiz-adv-x="780" 
d="M739 407l-5 -34c-27 -172 -136 -394 -421 -394c-206 0 -293 127 -293 272c0 20 2 41 5 62c6 37 18 78 33 117h520c3 21 4 41 4 59c0 123 -57 190 -158 190c-88 0 -151 -60 -168 -112l-166 16c28 82 144 218 353 218c237 0 303 -153 303 -304c0 -30 -2 -61 -7 -90z
M559 320h-368c0 -2 -1 -5 -1 -7c-3 -21 -5 -40 -5 -58c0 -108 60 -156 147 -156c108 0 190 78 227 221z" />
    <glyph glyph-name="florin" unicode="&#x192;" horiz-adv-x="400" 
d="M39 500l16 100h80l11 67c9 58 63 164 209 164c84 0 132 -40 144 -51l-80 -85c-11 8 -37 26 -70 26c-24 0 -43 -20 -48 -54l-11 -67h135l-16 -100h-130l-81 -515c-19 -121 -132 -189 -239 -211l-34 101c68 16 102 43 114 120l80 505h-80z" />
    <glyph glyph-name="Ohorn" unicode="&#x1a0;" horiz-adv-x="820" 
d="M366 104c121 0 206 93 234 269l5 34c5 30 7 58 7 83c0 122 -55 186 -155 186c-121 0 -206 -93 -234 -269l-5 -34c-5 -30 -7 -58 -7 -83c0 -122 55 -186 155 -186zM44 373l5 34c28 174 139 394 428 394c98 0 168 -25 216 -66c17 12 34 32 39 65c1 4 1 8 1 12
c0 23 -11 39 -17 48l104 55c15 -17 25 -43 25 -78c0 -10 -1 -21 -3 -32c-10 -60 -54 -100 -103 -123c34 -54 47 -120 47 -186c0 -30 -2 -60 -7 -89l-5 -34c-28 -174 -138 -394 -427 -394c-241 0 -310 153 -310 305c0 30 2 60 7 89z" />
    <glyph glyph-name="ohorn" unicode="&#x1a1;" horiz-adv-x="660" 
d="M285 93c75 0 139 60 160 194l5 26c3 22 5 42 5 60c0 92 -42 134 -105 134c-75 0 -139 -60 -160 -194l-5 -26c-3 -22 -5 -42 -5 -60c0 -92 42 -134 105 -134zM25 287l5 26c21 130 103 308 338 308c85 0 143 -23 181 -59c13 12 25 31 29 58c1 4 1 9 1 13
c0 22 -10 39 -16 47l103 55c15 -17 26 -44 26 -79c0 -10 -1 -20 -3 -31c-9 -58 -51 -98 -98 -121c18 -38 25 -80 25 -122c0 -24 -2 -47 -6 -69l-5 -26c-21 -130 -103 -308 -338 -308c-195 0 -248 123 -248 239c0 24 2 47 6 69z" />
    <glyph glyph-name="Uhorn" unicode="&#x1af;" horiz-adv-x="780" 
d="M44 246l85 534h172l-85 -534c-2 -12 -3 -22 -3 -32c0 -79 54 -111 128 -111c83 0 155 40 171 143l80 504h30l63 -14c16 12 32 32 37 64c1 4 1 8 1 12c0 23 -11 39 -17 48l104 55c15 -17 25 -43 25 -78c0 -10 -1 -21 -3 -32c-8 -49 -39 -85 -77 -109l-71 -450
c-23 -147 -165 -267 -362 -267c-179 0 -281 99 -281 227c0 13 1 27 3 40z" />
    <glyph glyph-name="uhorn" unicode="&#x1b0;" horiz-adv-x="635" 
d="M21 194l64 406h160l-64 -406c-1 -9 -2 -17 -2 -25c0 -57 38 -76 86 -76c54 0 104 25 116 101l59 376h30l53 -13c16 12 30 32 35 63c1 4 1 9 1 13c0 22 -10 39 -16 47l103 55c15 -17 26 -44 26 -79c0 -10 -1 -20 -3 -31c-8 -49 -39 -85 -77 -109l-51 -322
c-18 -116 -132 -215 -294 -215c-147 0 -228 82 -228 184c0 10 0 20 2 31z" />
    <glyph glyph-name="uni01CD" unicode="&#x1cd;" horiz-adv-x="750" 
d="M680 980l-213 -145h-40l-167 145l53 50l153 -80l177 80zM690 0h-190l-25 150h-272l-73 -150h-190l2 11l427 769h140l183 -769zM455 270l-50 296l-144 -296h194z" />
    <glyph glyph-name="uni01CE" unicode="&#x1ce;" horiz-adv-x="625" 
d="M591 830l-213 -145h-40l-167 145l53 50l153 -80l177 80zM8 174c12 75 87 156 237 156c52 0 103 -3 146 -7l14 89c1 8 2 16 2 23c0 55 -40 72 -87 72s-90 -26 -109 -92l-158 12c28 92 122 194 285 194c143 0 224 -77 224 -178c0 -10 0 -21 -2 -31l-40 -257
c-2 -11 -3 -19 -3 -27c0 -26 12 -36 47 -41l-57 -103c-35 5 -96 18 -117 72c-42 -41 -102 -72 -183 -72c-131 0 -202 61 -202 156c0 11 1 22 3 34zM384 230c-40 5 -93 9 -144 9c-28 0 -70 -17 -78 -67c-1 -7 -2 -14 -2 -20c0 -55 43 -73 83 -73c77 0 116 56 137 124z" />
    <glyph glyph-name="uni01CF" unicode="&#x1cf;" horiz-adv-x="320" 
d="M465 980l-213 -145h-40l-167 145l53 50l153 -80l177 80zM15 0l124 780h170l-124 -780h-170z" />
    <glyph glyph-name="uni01D0" unicode="&#x1d0;" horiz-adv-x="300" 
d="M431 830l-213 -145h-40l-167 145l53 50l153 -80l177 80zM10 0l95 600h160l-95 -600h-160z" />
    <glyph glyph-name="uni01D1" unicode="&#x1d1;" horiz-adv-x="820" 
d="M715 980l-213 -145h-40l-167 145l53 50l153 -80l177 80zM44 373l5 34c28 174 139 394 428 394c241 0 309 -152 309 -304c0 -30 -2 -61 -7 -90l-5 -34c-28 -174 -138 -394 -427 -394c-241 0 -310 153 -310 305c0 30 2 60 7 89zM366 104c121 0 206 93 234 269l5 34
c5 30 7 58 7 83c0 122 -55 186 -155 186c-121 0 -206 -93 -234 -269l-5 -34c-5 -30 -7 -58 -7 -83c0 -122 55 -186 155 -186z" />
    <glyph glyph-name="uni01D2" unicode="&#x1d2;" horiz-adv-x="660" 
d="M611 830l-213 -145h-40l-167 145l53 50l153 -80l177 80zM25 287l5 26c21 130 103 308 338 308c195 0 248 -123 248 -239c0 -24 -2 -47 -6 -69l-5 -26c-21 -130 -103 -308 -338 -308c-195 0 -248 123 -248 239c0 24 2 47 6 69zM285 93c75 0 139 60 160 194l5 26
c3 22 5 42 5 60c0 92 -42 134 -105 134c-75 0 -139 -60 -160 -194l-5 -26c-3 -22 -5 -42 -5 -60c0 -92 42 -134 105 -134z" />
    <glyph glyph-name="uni01D3" unicode="&#x1d3;" horiz-adv-x="770" 
d="M690 980l-213 -145h-40l-167 145l53 50l153 -80l177 80zM44 246l85 534h172l-85 -534c-2 -12 -3 -22 -3 -32c0 -79 54 -111 128 -111c83 0 155 40 171 143l85 534h172l-85 -534c-23 -147 -165 -267 -362 -267c-179 0 -281 99 -281 227c0 13 1 27 3 40z" />
    <glyph glyph-name="uni01D4" unicode="&#x1d4;" horiz-adv-x="620" 
d="M591 830l-213 -145h-40l-167 145l53 50l153 -80l177 80zM21 194l64 406h160l-64 -406c-1 -9 -2 -17 -2 -25c0 -57 38 -76 86 -76c54 0 104 25 116 101l64 406h160l-64 -406c-18 -116 -132 -215 -294 -215c-147 0 -228 82 -228 184c0 10 0 20 2 31z" />
    <glyph glyph-name="uni01D5" unicode="&#x1d5;" horiz-adv-x="770" 
d="M283 1060l15 100h420l-15 -100h-420zM360 1009c44 0 74 -24 74 -64c0 -5 0 -10 -1 -15c-8 -49 -49 -79 -98 -79c-44 0 -73 24 -73 64c0 5 0 10 1 15c8 49 48 79 97 79zM610 1009c44 0 74 -24 74 -64c0 -5 0 -10 -1 -15c-8 -49 -49 -79 -98 -79c-44 0 -73 24 -73 64
c0 5 0 10 1 15c8 49 48 79 97 79zM44 246l85 534h172l-85 -534c-2 -12 -3 -22 -3 -32c0 -79 54 -111 128 -111c83 0 155 40 171 143l85 534h172l-85 -534c-23 -147 -165 -267 -362 -267c-179 0 -281 99 -281 227c0 13 1 27 3 40z" />
    <glyph glyph-name="uni01D6" unicode="&#x1d6;" horiz-adv-x="620" 
d="M185 910l15 100h420l-15 -100h-420zM261 859c44 0 74 -24 74 -64c0 -5 0 -10 -1 -15c-8 -49 -49 -79 -98 -79c-44 0 -73 24 -73 64c0 5 0 10 1 15c8 49 48 79 97 79zM511 859c44 0 74 -24 74 -64c0 -5 0 -10 -1 -15c-8 -49 -49 -79 -98 -79c-44 0 -73 24 -73 64
c0 5 0 10 1 15c8 49 48 79 97 79zM21 194l64 406h160l-64 -406c-1 -9 -2 -17 -2 -25c0 -57 38 -76 86 -76c54 0 104 25 116 101l64 406h160l-64 -406c-18 -116 -132 -215 -294 -215c-147 0 -228 82 -228 184c0 10 0 20 2 31z" />
    <glyph glyph-name="uni01D7" unicode="&#x1d7;" horiz-adv-x="770" 
d="M669 1135l-263 -115l-30 60l245 160zM360 1009c44 0 74 -24 74 -64c0 -5 0 -10 -1 -15c-8 -49 -49 -79 -98 -79c-44 0 -73 24 -73 64c0 5 0 10 1 15c8 49 48 79 97 79zM610 1009c44 0 74 -24 74 -64c0 -5 0 -10 -1 -15c-8 -49 -49 -79 -98 -79c-44 0 -73 24 -73 64
c0 5 0 10 1 15c8 49 48 79 97 79zM44 246l85 534h172l-85 -534c-2 -12 -3 -22 -3 -32c0 -79 54 -111 128 -111c83 0 155 40 171 143l85 534h172l-85 -534c-23 -147 -165 -267 -362 -267c-179 0 -281 99 -281 227c0 13 1 27 3 40z" />
    <glyph glyph-name="uni01D8" unicode="&#x1d8;" horiz-adv-x="620" 
d="M571 985l-263 -115l-30 60l245 160zM261 859c44 0 74 -24 74 -64c0 -5 0 -10 -1 -15c-8 -49 -49 -79 -98 -79c-44 0 -73 24 -73 64c0 5 0 10 1 15c8 49 48 79 97 79zM511 859c44 0 74 -24 74 -64c0 -5 0 -10 -1 -15c-8 -49 -49 -79 -98 -79c-44 0 -73 24 -73 64
c0 5 0 10 1 15c8 49 48 79 97 79zM21 194l64 406h160l-64 -406c-1 -9 -2 -17 -2 -25c0 -57 38 -76 86 -76c54 0 104 25 116 101l64 406h160l-64 -406c-18 -116 -132 -215 -294 -215c-147 0 -228 82 -228 184c0 10 0 20 2 31z" />
    <glyph glyph-name="uni01D9" unicode="&#x1d9;" horiz-adv-x="770" 
d="M718 1160l-213 -145h-40l-167 145l53 50l153 -80l177 80zM360 1009c44 0 74 -24 74 -64c0 -5 0 -10 -1 -15c-8 -49 -49 -79 -98 -79c-44 0 -73 24 -73 64c0 5 0 10 1 15c8 49 48 79 97 79zM610 1009c44 0 74 -24 74 -64c0 -5 0 -10 -1 -15c-8 -49 -49 -79 -98 -79
c-44 0 -73 24 -73 64c0 5 0 10 1 15c8 49 48 79 97 79zM44 246l85 534h172l-85 -534c-2 -12 -3 -22 -3 -32c0 -79 54 -111 128 -111c83 0 155 40 171 143l85 534h172l-85 -534c-23 -147 -165 -267 -362 -267c-179 0 -281 99 -281 227c0 13 1 27 3 40z" />
    <glyph glyph-name="uni01DA" unicode="&#x1da;" horiz-adv-x="620" 
d="M620 1010l-213 -145h-40l-167 145l53 50l153 -80l177 80zM261 859c44 0 74 -24 74 -64c0 -5 0 -10 -1 -15c-8 -49 -49 -79 -98 -79c-44 0 -73 24 -73 64c0 5 0 10 1 15c8 49 48 79 97 79zM511 859c44 0 74 -24 74 -64c0 -5 0 -10 -1 -15c-8 -49 -49 -79 -98 -79
c-44 0 -73 24 -73 64c0 5 0 10 1 15c8 49 48 79 97 79zM21 194l64 406h160l-64 -406c-1 -9 -2 -17 -2 -25c0 -57 38 -76 86 -76c54 0 104 25 116 101l64 406h160l-64 -406c-18 -116 -132 -215 -294 -215c-147 0 -228 82 -228 184c0 10 0 20 2 31z" />
    <glyph glyph-name="uni01DB" unicode="&#x1db;" horiz-adv-x="770" 
d="M339 1135l82 105l195 -160l-50 -60zM360 1009c44 0 74 -24 74 -64c0 -5 0 -10 -1 -15c-8 -49 -49 -79 -98 -79c-44 0 -73 24 -73 64c0 5 0 10 1 15c8 49 48 79 97 79zM610 1009c44 0 74 -24 74 -64c0 -5 0 -10 -1 -15c-8 -49 -49 -79 -98 -79c-44 0 -73 24 -73 64
c0 5 0 10 1 15c8 49 48 79 97 79zM44 246l85 534h172l-85 -534c-2 -12 -3 -22 -3 -32c0 -79 54 -111 128 -111c83 0 155 40 171 143l85 534h172l-85 -534c-23 -147 -165 -267 -362 -267c-179 0 -281 99 -281 227c0 13 1 27 3 40z" />
    <glyph glyph-name="uni01DC" unicode="&#x1dc;" horiz-adv-x="620" 
d="M241 985l82 105l195 -160l-50 -60zM261 859c44 0 74 -24 74 -64c0 -5 0 -10 -1 -15c-8 -49 -49 -79 -98 -79c-44 0 -73 24 -73 64c0 5 0 10 1 15c8 49 48 79 97 79zM511 859c44 0 74 -24 74 -64c0 -5 0 -10 -1 -15c-8 -49 -49 -79 -98 -79c-44 0 -73 24 -73 64
c0 5 0 10 1 15c8 49 48 79 97 79zM21 194l64 406h160l-64 -406c-1 -9 -2 -17 -2 -25c0 -57 38 -76 86 -76c54 0 104 25 116 101l64 406h160l-64 -406c-18 -116 -132 -215 -294 -215c-147 0 -228 82 -228 184c0 10 0 20 2 31z" />
    <glyph glyph-name="Gcaron" unicode="&#x1e6;" horiz-adv-x="770" 
d="M715 980l-213 -145h-40l-167 145l53 50l153 -80l177 80zM400 285l19 120h310l-43 -270c-52 -69 -163 -156 -337 -156c-242 0 -312 155 -312 308c0 30 2 60 7 88l5 30c28 175 141 396 430 396c212 0 281 -137 283 -219l-174 -16c-1 50 -41 109 -129 109
c-121 0 -207 -89 -236 -270l-5 -30c-5 -31 -7 -59 -7 -84c0 -125 57 -186 158 -186c86 0 135 26 166 55l20 125h-155z" />
    <glyph glyph-name="gcaron" unicode="&#x1e7;" horiz-adv-x="670" 
d="M641 830l-213 -145h-40l-167 145l53 50l153 -80l177 80zM30 315c20 125 114 301 303 301c73 0 119 -38 149 -89l22 73h136l-97 -615c-19 -120 -135 -216 -293 -216c-154 0 -224 72 -234 114l155 42c4 -16 31 -47 97 -47c63 0 113 29 125 107l18 113
c-45 -48 -104 -84 -174 -84c-160 0 -212 126 -212 241c0 21 2 41 5 60zM448 364c-5 79 -43 136 -114 136c-65 0 -123 -53 -144 -185c-4 -23 -5 -44 -5 -63c0 -86 37 -122 91 -122c71 0 125 57 156 136z" />
    <glyph glyph-name="uni01EA" unicode="&#x1ea;" horiz-adv-x="820" 
d="M366 104c121 0 206 93 234 269l5 34c5 30 7 58 7 83c0 122 -55 186 -155 186c-121 0 -206 -93 -234 -269l-5 -34c-5 -30 -7 -58 -7 -83c0 -122 55 -186 155 -186zM44 373l5 34c28 174 139 394 428 394c241 0 309 -152 309 -304c0 -30 -2 -61 -7 -90l-5 -34
c-23 -148 -107 -329 -308 -380c-24 -28 -48 -67 -56 -118c-1 -6 -1 -12 -1 -17c0 -31 17 -38 37 -38c26 0 56 11 63 15l13 -73c-29 -14 -67 -22 -108 -22c-72 0 -108 39 -108 96c0 8 1 16 2 24c7 46 31 86 58 119h-19c-241 0 -310 153 -310 305c0 30 2 60 7 89z" />
    <glyph glyph-name="uni01EB" unicode="&#x1eb;" horiz-adv-x="660" 
d="M285 93c75 0 139 60 160 194l5 26c3 22 5 42 5 60c0 92 -42 134 -105 134c-75 0 -139 -60 -160 -194l-5 -26c-3 -22 -5 -42 -5 -60c0 -92 42 -134 105 -134zM25 287l5 26c21 130 103 308 338 308c195 0 248 -123 248 -239c0 -24 -2 -47 -6 -69l-5 -26
c-16 -104 -72 -238 -213 -288c-26 -28 -53 -69 -62 -124c-1 -6 -1 -12 -1 -17c0 -31 17 -38 37 -38c26 0 56 11 63 15l13 -73c-29 -14 -67 -22 -108 -22c-72 0 -108 39 -108 96c0 8 1 16 2 24c7 46 31 86 58 119h-19c-195 0 -248 123 -248 239c0 24 2 47 6 69z" />
    <glyph glyph-name="uni0218" unicode="&#x218;" horiz-adv-x="710" 
d="M247 -219h-7c-39 0 -65 21 -65 56c0 4 0 9 1 13c8 48 45 85 101 85c58 0 79 -39 79 -77c0 -6 0 -11 -1 -17c-17 -109 -100 -167 -167 -191l-31 50c32 11 68 37 90 81zM9 184l172 24c1 -52 41 -107 130 -107c99 0 156 38 167 106c1 6 1 13 1 18c0 49 -37 64 -64 72
c-54 15 -134 43 -188 63c-63 25 -143 77 -143 177c0 10 1 21 3 32c21 132 158 232 335 232c189 0 260 -123 263 -201l-172 -24c-1 52 -39 103 -110 103c-81 0 -140 -40 -150 -102c-1 -4 -1 -9 -1 -13c0 -40 35 -53 71 -68c49 -18 127 -44 174 -59c74 -24 150 -77 150 -183
c0 -12 -1 -25 -3 -39c-21 -133 -157 -236 -352 -236c-205 0 -281 125 -283 205z" />
    <glyph glyph-name="uni0219" unicode="&#x219;" horiz-adv-x="570" 
d="M177 -219h-7c-39 0 -65 21 -65 56c0 4 0 9 1 13c8 48 45 85 101 85c58 0 79 -39 79 -77c0 -6 0 -11 -1 -17c-17 -109 -100 -167 -167 -191l-31 50c32 11 68 37 90 81zM-7 143l158 20c0 -39 31 -72 94 -72c61 0 102 27 109 71c1 4 1 8 1 11c0 34 -29 47 -46 52
c-42 13 -101 29 -141 45c-52 20 -116 54 -116 137c0 9 0 18 2 28c16 104 124 186 269 186c158 0 213 -97 215 -161l-158 -20c0 39 -21 69 -74 69c-52 0 -92 -26 -99 -68c0 -2 -1 -5 -1 -7c0 -28 28 -42 50 -49c39 -13 100 -31 131 -41c61 -20 123 -54 123 -141
c0 -11 -1 -23 -3 -35c-17 -106 -128 -189 -285 -189c-169 0 -227 98 -229 164z" />
    <glyph glyph-name="uni021A" unicode="&#x21a;" horiz-adv-x="620" 
d="M202 -219h-7c-39 0 -65 21 -65 56c0 4 0 9 1 13c8 48 45 85 101 85c58 0 79 -39 79 -77c0 -6 0 -11 -1 -17c-17 -109 -100 -167 -167 -191l-31 50c32 11 68 37 90 81zM59 655l20 125h590l-20 -125h-210l-104 -655h-170l104 655h-210z" />
    <glyph glyph-name="uni021B" unicode="&#x21b;" horiz-adv-x="415" 
d="M172 -219h-7c-39 0 -65 21 -65 56c0 4 0 9 1 13c8 48 45 85 101 85c58 0 79 -39 79 -77c0 -6 0 -11 -1 -17c-17 -109 -100 -167 -167 -191l-31 50c32 11 68 37 90 81zM39 500l16 100h86l20 123l152 12l-21 -135h133l-16 -100h-130l-53 -336c-2 -13 -3 -23 -3 -32
c0 -27 10 -34 32 -34c35 0 73 13 87 21l20 -104c-35 -16 -83 -31 -147 -31c-93 0 -156 34 -156 121c0 11 1 23 3 35l57 360h-80z" />
    <glyph glyph-name="uni0237" unicode="&#x237;" horiz-adv-x="310" 
d="M-61 -226l-34 101c68 16 102 43 114 120l96 605h160l-97 -615c-19 -121 -132 -189 -239 -211z" />
    <glyph glyph-name="uni0251" unicode="&#x251;" horiz-adv-x="675" 
d="M26 290l3 20c21 130 115 306 304 306c73 0 119 -38 149 -89l22 73h136l-70 -445c-2 -11 -3 -19 -3 -27c0 -26 12 -36 47 -41l-57 -103c-43 6 -124 24 -124 114v2c-48 -64 -116 -116 -201 -116c-159 0 -211 125 -211 242c0 22 2 43 5 64zM448 364c-5 79 -43 136 -114 136
c-65 0 -123 -53 -145 -190l-3 -20c-4 -25 -6 -47 -6 -67c0 -88 38 -123 91 -123c71 0 125 57 156 136z" />
    <glyph glyph-name="uni0259" unicode="&#x259;" horiz-adv-x="640" 
d="M590 313l-5 -26c-21 -131 -108 -308 -336 -308c-165 0 -234 107 -234 220c0 15 1 29 3 44c5 31 14 62 25 92h393c2 14 2 28 2 40c0 91 -41 134 -105 134c-59 0 -103 -40 -115 -76l-152 14c22 66 113 174 284 174c194 0 246 -122 246 -239c0 -24 -2 -47 -6 -69zM418 235
h-251c-2 -13 -3 -25 -3 -36c0 -79 45 -108 102 -108c66 0 124 47 152 144z" />
    <glyph glyph-name="uni0261" unicode="&#x261;" horiz-adv-x="670" 
d="M30 315c20 125 114 301 303 301c73 0 119 -38 149 -89l22 73h136l-97 -615c-19 -120 -135 -216 -293 -216c-154 0 -224 72 -234 114l155 42c4 -16 31 -47 97 -47c63 0 113 29 125 107l18 113c-45 -48 -104 -84 -174 -84c-160 0 -212 126 -212 241c0 21 2 41 5 60z
M448 364c-5 79 -43 136 -114 136c-65 0 -123 -53 -144 -185c-4 -23 -5 -44 -5 -63c0 -86 37 -122 91 -122c71 0 125 57 156 136z" />
    <glyph glyph-name="uni02BB" unicode="&#x2bb;" horiz-adv-x="240" 
d="M255 632c-8 -53 -49 -92 -109 -92c-67 0 -93 47 -93 98c0 9 1 18 2 27c19 123 118 211 198 255l38 -64c-48 -27 -94 -72 -118 -140h5c46 0 78 -26 78 -69c0 -5 0 -10 -1 -15z" />
    <glyph glyph-name="uni02BC" unicode="&#x2bc;" horiz-adv-x="240" 
d="M80 818c8 53 49 92 109 92c67 0 92 -47 92 -98c0 -9 0 -18 -2 -27c-19 -123 -117 -211 -197 -255l-38 64c48 27 93 72 117 140h-5c-46 0 -77 26 -77 69c0 5 0 10 1 15z" />
    <glyph glyph-name="uni02BD" unicode="&#x2bd;" horiz-adv-x="240" 
d="M285 818c-8 -52 -53 -84 -104 -84h-5c2 -68 33 -113 73 -140l-58 -64c-59 39 -120 112 -120 214c0 13 1 27 3 41c10 60 51 125 130 125c53 0 82 -31 82 -75c0 -5 0 -11 -1 -17z" />
    <glyph glyph-name="uni02BE" unicode="&#x2be;" horiz-adv-x="180" 
d="M216 765c-12 -74 -75 -120 -149 -120l11 70c32 0 53 21 58 50c1 4 1 8 1 11c0 23 -15 39 -43 39l11 70c66 0 113 -37 113 -98c0 -7 -1 -14 -2 -22z" />
    <glyph glyph-name="uni02BF" unicode="&#x2bf;" horiz-adv-x="180" 
d="M86 765c12 74 75 120 149 120l-11 -70c-32 0 -53 -21 -58 -50c-1 -4 -1 -8 -1 -11c0 -23 15 -39 43 -39l-11 -70c-66 0 -113 37 -113 98c0 7 1 14 2 22z" />
    <glyph glyph-name="circumflex" unicode="&#x2c6;" horiz-adv-x="510" 
d="M100 725l213 145h40l167 -145l-53 -50l-152 80l-178 -80z" />
    <glyph glyph-name="caron" unicode="&#x2c7;" horiz-adv-x="510" 
d="M536 830l-213 -145h-40l-167 145l53 50l153 -80l177 80z" />
    <glyph glyph-name="uni02C8" unicode="&#x2c8;" horiz-adv-x="210" 
d="M97 675l36 225h110l-36 -225h-110z" />
    <glyph glyph-name="uni02C9" unicode="&#x2c9;" horiz-adv-x="510" 
d="M101 730l15 100h420l-15 -100h-420z" />
    <glyph glyph-name="uni02CA" unicode="&#x2ca;" horiz-adv-x="330" 
d="M382 805l-263 -115l-30 60l245 160z" />
    <glyph glyph-name="uni02CB" unicode="&#x2cb;" horiz-adv-x="330" 
d="M82 805l82 105l195 -160l-50 -60z" />
    <glyph glyph-name="uni02CC" unicode="&#x2cc;" horiz-adv-x="210" 
d="M-58 -300l36 225h110l-36 -225h-110z" />
    <glyph glyph-name="uni02D7" unicode="&#x2d7;" horiz-adv-x="330" 
d="M7 420h330l-19 -120h-330z" />
    <glyph glyph-name="breve" unicode="&#x2d8;" horiz-adv-x="510" 
d="M117 834l101 31c6 -34 23 -80 101 -80s111 46 127 80l91 -31c-32 -68 -103 -144 -233 -144s-177 76 -187 144z" />
    <glyph glyph-name="dotaccent" unicode="&#x2d9;" horiz-adv-x="330" 
d="M134 780c9 54 54 88 108 88c49 0 83 -27 83 -72c0 -5 0 -11 -1 -16c-9 -54 -55 -88 -109 -88c-48 0 -82 27 -82 72c0 5 0 10 1 16z" />
    <glyph glyph-name="ring" unicode="&#x2da;" horiz-adv-x="330" 
d="M207 645c-66 0 -113 37 -113 98c0 7 1 14 2 22c12 74 75 120 149 120c66 0 113 -37 113 -98c0 -7 -1 -14 -2 -22c-12 -74 -75 -120 -149 -120zM218 715c32 0 53 21 58 50c1 4 1 8 1 11c0 23 -15 39 -43 39c-32 0 -53 -21 -58 -50c-1 -4 -1 -8 -1 -11c0 -23 15 -39 43 -39
z" />
    <glyph glyph-name="ogonek" unicode="&#x2db;" horiz-adv-x="330" 
d="M-7 -140c14 88 84 154 135 190l44 -36c-31 -27 -67 -73 -77 -139c-1 -6 -1 -12 -1 -17c0 -31 17 -38 37 -38c26 0 56 11 63 15l13 -73c-29 -14 -67 -22 -108 -22c-72 0 -108 39 -108 96c0 8 1 16 2 24z" />
    <glyph glyph-name="tilde" unicode="&#x2dc;" horiz-adv-x="510" 
d="M102 740c37 66 80 125 155 125c60 0 89 -30 107 -48c16 -16 25 -27 35 -27c25 0 50 50 62 70l75 -30c-37 -66 -79 -125 -154 -125c-60 0 -90 30 -108 48c-16 16 -24 27 -34 27c-25 0 -51 -50 -63 -70z" />
    <glyph glyph-name="hungarumlaut" unicode="&#x2dd;" horiz-adv-x="510" 
d="M101 730l135 190l79 -65l-166 -165zM326 730l135 190l79 -65l-166 -165z" />
    <glyph glyph-name="uni0300" unicode="&#x300;" 
d="M-98 805l82 105l195 -160l-50 -60z" />
    <glyph glyph-name="uni0301" unicode="&#x301;" 
d="M232 805l-263 -115l-30 60l245 160z" />
    <glyph glyph-name="uni0302" unicode="&#x302;" 
d="M-155 725l213 145h40l167 -145l-53 -50l-152 80l-178 -80z" />
    <glyph glyph-name="uni0303" unicode="&#x303;" 
d="M-153 740c37 66 80 125 155 125c60 0 89 -30 107 -48c16 -16 25 -27 35 -27c25 0 50 50 62 70l75 -30c-37 -66 -79 -125 -154 -125c-60 0 -90 30 -108 48c-16 16 -24 27 -34 27c-25 0 -51 -50 -63 -70z" />
    <glyph glyph-name="uni0304" unicode="&#x304;" 
d="M-154 730l15 100h420l-15 -100h-420z" />
    <glyph glyph-name="uni0305" unicode="&#x305;" 
d="M-244 730l15 100h600l-15 -100h-600z" />
    <glyph glyph-name="uni0306" unicode="&#x306;" 
d="M-138 834l101 31c6 -34 23 -80 101 -80s111 46 127 80l91 -31c-32 -68 -103 -144 -233 -144s-177 76 -187 144z" />
    <glyph glyph-name="uni0307" unicode="&#x307;" 
d="M-31 780c9 54 54 88 108 88c49 0 83 -27 83 -72c0 -5 0 -11 -1 -16c-9 -54 -55 -88 -109 -88c-48 0 -82 27 -82 72c0 5 0 10 1 16z" />
    <glyph glyph-name="uni0308" unicode="&#x308;" 
d="M-49 859c44 0 74 -24 74 -64c0 -5 0 -10 -1 -15c-8 -49 -49 -79 -98 -79c-44 0 -73 24 -73 64c0 5 0 10 1 15c8 49 48 79 97 79zM201 859c44 0 74 -24 74 -64c0 -5 0 -10 -1 -15c-8 -49 -49 -79 -98 -79c-44 0 -73 24 -73 64c0 5 0 10 1 15c8 49 48 79 97 79z" />
    <glyph glyph-name="uni0309" unicode="&#x309;" 
d="M-41 875c32 17 73 30 126 30c60 0 104 -27 104 -79c0 -5 0 -10 -1 -16c-15 -95 -102 -122 -172 -140l-17 50c48 18 86 38 91 70c0 3 1 5 1 7c0 17 -11 23 -38 23c-29 0 -74 -14 -97 -24z" />
    <glyph glyph-name="uni030A" unicode="&#x30a;" 
d="M42 645c-66 0 -113 37 -113 98c0 7 1 14 2 22c12 74 75 120 149 120c66 0 113 -37 113 -98c0 -7 -1 -14 -2 -22c-12 -74 -75 -120 -149 -120zM53 715c32 0 53 21 58 50c1 4 1 8 1 11c0 23 -15 39 -43 39c-32 0 -53 -21 -58 -50c-1 -4 -1 -8 -1 -11c0 -23 15 -39 43 -39z
" />
    <glyph glyph-name="uni030B" unicode="&#x30b;" 
d="M-124 730l135 190l79 -65l-166 -165zM101 730l135 190l79 -65l-166 -165z" />
    <glyph glyph-name="uni030C" unicode="&#x30c;" 
d="M281 830l-213 -145h-40l-167 145l53 50l153 -80l177 80z" />
    <glyph glyph-name="uni030D" unicode="&#x30d;" 
d="M-8 675l36 225h110l-36 -225h-110z" />
    <glyph glyph-name="uni030E" unicode="&#x30e;" 
d="M92 675l36 225h105l-36 -225h-105zM-103 675l36 225h105l-36 -225h-105z" />
    <glyph glyph-name="uni030F" unicode="&#x30f;" 
d="M236 730l-62 -40l-114 165l101 65zM11 730l-62 -40l-114 165l101 65z" />
    <glyph glyph-name="uni0311" unicode="&#x311;" 
d="M262 706l-101 -31c-6 34 -23 80 -101 80s-111 -46 -127 -80l-91 31c32 68 103 144 233 144s177 -76 187 -144z" />
    <glyph glyph-name="uni0312" unicode="&#x312;" 
d="M87 849h7c39 0 66 -21 66 -57c0 -4 0 -8 -1 -12c-8 -48 -45 -85 -101 -85c-58 0 -79 39 -79 77c0 6 0 11 1 17c17 109 100 167 167 191l30 -50c-32 -11 -68 -37 -90 -81z" />
    <glyph glyph-name="uni0313" unicode="&#x313;" 
d="M57 821h-7c-39 0 -65 21 -65 56c0 4 0 9 1 13c8 48 44 85 100 85c58 0 80 -39 80 -77c0 -6 0 -12 -1 -17c-17 -109 -101 -167 -168 -191l-30 50c32 11 68 37 90 81z" />
    <glyph glyph-name="uni0314" unicode="&#x314;" 
d="M176 890c-7 -43 -43 -69 -86 -69h-7c8 -44 36 -70 64 -81l-46 -50c-52 21 -109 69 -109 156c0 11 1 23 3 35c7 43 40 94 104 94c50 0 78 -30 78 -70c0 -5 0 -10 -1 -15z" />
    <glyph glyph-name="uni0315" unicode="&#x315;" horiz-adv-x="240" 
d="M150 681h-7c-39 0 -65 21 -65 56c0 4 0 9 1 13c8 48 44 85 100 85c58 0 79 -39 79 -77c0 -6 0 -11 -1 -17c-17 -109 -100 -167 -167 -191l-30 50c32 11 68 37 90 81z" />
    <glyph glyph-name="uni031B" unicode="&#x31b;" horiz-adv-x="60" 
d="M-69 480l-15 60c16 3 62 20 72 80c1 4 1 9 1 13c0 22 -10 39 -16 47l103 55c15 -17 26 -44 26 -79c0 -10 -1 -20 -3 -31c-14 -88 -104 -132 -168 -145z" />
    <glyph glyph-name="uni0323" unicode="&#x323;" 
d="M-184 -180c9 54 55 88 109 88c48 0 82 -27 82 -72c0 -5 0 -10 -1 -16c-9 -54 -54 -88 -108 -88c-49 0 -83 27 -83 72c0 5 0 11 1 16z" />
    <glyph glyph-name="uni0324" unicode="&#x324;" 
d="M-201 -101c44 0 73 -24 73 -64c0 -5 0 -10 -1 -15c-8 -49 -48 -79 -97 -79c-44 0 -74 24 -74 64c0 5 0 10 1 15c8 49 49 79 98 79zM49 -101c44 0 73 -24 73 -64c0 -5 0 -10 -1 -15c-8 -49 -48 -79 -97 -79c-44 0 -74 24 -74 64c0 5 0 10 1 15c8 49 49 79 98 79z" />
    <glyph glyph-name="uni0326" unicode="&#x326;" 
d="M-108 -219h-7c-39 0 -65 21 -65 56c0 4 0 9 1 13c8 48 45 85 101 85c58 0 79 -39 79 -77c0 -6 0 -11 -1 -17c-17 -109 -100 -167 -167 -191l-31 50c32 11 68 37 90 81z" />
    <glyph glyph-name="uni0327" unicode="&#x327;" 
d="M-207 -265c72 15 154 45 154 94c0 12 -10 21 -51 21c-12 0 -29 -3 -41 -5l-37 45l96 135h85l-75 -105c76 0 124 -24 124 -79c0 -5 0 -10 -1 -16c-18 -116 -185 -148 -240 -160z" />
    <glyph glyph-name="uni0328" unicode="&#x328;" 
d="M-172 -140c14 88 84 154 135 190l44 -36c-31 -27 -67 -73 -77 -139c-1 -6 -1 -12 -1 -17c0 -31 17 -38 37 -38c26 0 56 11 63 15l13 -73c-29 -14 -67 -22 -108 -22c-72 0 -108 39 -108 96c0 8 1 16 2 24z" />
    <glyph glyph-name="uni0329" unicode="&#x329;" 
d="M-163 -300l36 225h110l-36 -225h-110z" />
    <glyph glyph-name="uni032E" unicode="&#x32e;" 
d="M-286 -101l101 31c6 -34 23 -80 101 -80s111 46 127 80l91 -31c-32 -68 -103 -144 -233 -144s-177 76 -187 144z" />
    <glyph glyph-name="uni0331" unicode="&#x331;" 
d="M-306 -230l15 100h420l-15 -100h-420z" />
    <glyph glyph-name="uni0332" unicode="&#x332;" 
d="M-396 -230l15 100h600l-15 -100h-600z" />
    <glyph glyph-name="uni034F" unicode="&#x34f;" 
 />
    <glyph glyph-name="uni0351" unicode="&#x351;" 
d="M-24 765c12 74 75 120 149 120l-11 -70c-32 0 -53 -21 -58 -50c-1 -4 -1 -8 -1 -11c0 -23 15 -39 43 -39l-11 -70c-66 0 -113 37 -113 98c0 7 1 14 2 22z" />
    <glyph glyph-name="uni0357" unicode="&#x357;" 
d="M146 765c-12 -74 -75 -120 -149 -120l11 70c32 0 53 21 58 50c1 4 1 8 1 11c0 23 -15 39 -43 39l11 70c66 0 113 -37 113 -98c0 -7 -1 -14 -2 -22z" />
    <glyph glyph-name="uni0358" unicode="&#x358;" horiz-adv-x="180" 
d="M5 600c9 54 55 88 109 88c48 0 82 -27 82 -72c0 -5 0 -10 -1 -16c-9 -54 -55 -88 -109 -88c-48 0 -82 27 -82 72c0 5 0 10 1 16z" />
    <glyph glyph-name="pi" unicode="&#x3c0;" horiz-adv-x="660" 
d="M38 490l17 110h620l-17 -110h-80l-53 -335c-1 -6 -1 -11 -1 -16c0 -34 22 -47 75 -52l-47 -103c-80 6 -192 27 -192 130c0 8 1 17 2 26l56 350h-140l-78 -490h-160l78 490h-80z" />
    <glyph glyph-name="uni0E01" unicode="&#xe01;" horiz-adv-x="655" 
d="M25 0l46 290c7 46 34 79 79 95l-110 24c32 105 139 212 313 212c154 0 247 -83 247 -195c0 -11 -1 -23 -3 -35l-62 -391h-150l62 391c2 10 2 19 2 28c0 66 -46 92 -113 92c-57 0 -102 -24 -130 -72l124 -29l-25 -60s-18 5 -34 5c-35 0 -44 -25 -48 -50l-48 -305h-150z
" />
    <glyph glyph-name="uni0E02" unicode="&#xe02;" horiz-adv-x="635" 
d="M98 470c0 -2 -1 -5 -1 -7c0 -15 10 -26 27 -26c20 0 33 14 36 33c0 3 1 5 1 7c0 15 -9 26 -26 26c-20 0 -34 -14 -37 -33zM14 470c12 76 91 145 217 145c113 0 173 -55 173 -133c0 -9 0 -18 -2 -27c-21 -135 -169 -183 -186 -288c-1 -5 -1 -10 -1 -15
c0 -43 34 -63 74 -63c43 0 88 21 100 95l66 416h150l-66 -416c-17 -110 -118 -205 -267 -205c-135 0 -209 64 -209 150c0 8 1 17 2 26c26 166 211 196 229 310c1 5 1 10 1 14c0 34 -23 54 -65 59c10 -13 15 -30 15 -50c0 -6 0 -12 -1 -18c-10 -65 -66 -105 -131 -105
c-59 0 -100 33 -100 87c0 6 0 12 1 18z" />
    <glyph glyph-name="uni0E03" unicode="&#xe03;" horiz-adv-x="635" 
d="M104 506c0 -2 -1 -5 -1 -7c0 -15 10 -26 27 -26c20 0 33 14 36 33c0 2 1 5 1 7c0 15 -10 26 -27 26c-20 0 -33 -14 -36 -33zM295 461c-39 -42 -88 -71 -163 -71c-70 0 -114 38 -114 96c0 7 1 13 2 20c10 65 67 105 132 105c58 0 94 -32 94 -85c0 -6 -1 -13 -2 -20
c-1 -5 -1 -10 -3 -15c32 29 59 69 79 109l51 6c17 -14 36 -51 36 -102c0 -11 -1 -22 -3 -34c-21 -135 -171 -198 -188 -303c-1 -5 -1 -10 -1 -15c0 -43 34 -63 74 -63c43 0 88 21 100 95l66 416h150l-66 -416c-17 -110 -118 -205 -267 -205c-135 0 -209 64 -209 150
c0 8 1 17 2 26c24 153 188 194 230 306z" />
    <glyph glyph-name="uni0E04" unicode="&#xe04;" horiz-adv-x="665" 
d="M325 348c-20 0 -33 -14 -36 -33c0 -2 -1 -5 -1 -7c0 -15 10 -26 27 -26c20 0 33 14 36 33c0 2 1 5 1 7c0 15 -10 26 -27 26zM337 420c59 0 99 -33 99 -87c0 -6 0 -12 -1 -18c-10 -65 -67 -105 -132 -105c-32 0 -58 10 -75 27c-19 -31 -32 -74 -44 -147l-14 -90h-161
s21 69 28 115c6 41 7 70 7 101v6c0 41 0 87 13 169c20 129 143 230 311 230c153 0 242 -83 242 -195c0 -11 -1 -23 -3 -35l-62 -391h-150l14 90c13 80 24 109 54 301c2 10 2 19 2 28c0 66 -46 92 -114 92c-77 0 -136 -33 -150 -120c-5 -29 -9 -54 -12 -76c16 29 36 55 63 75
c24 18 53 30 85 30z" />
    <glyph glyph-name="uni0E05" unicode="&#xe05;" horiz-adv-x="665" 
d="M325 348c-20 0 -33 -14 -36 -33c0 -2 -1 -5 -1 -7c0 -15 10 -26 27 -26c20 0 33 14 36 33c0 2 1 5 1 7c0 15 -10 26 -27 26zM337 420c59 0 99 -33 99 -87c0 -6 0 -12 -1 -18c-10 -65 -67 -105 -132 -105c-32 0 -58 10 -75 27c-19 -31 -32 -74 -44 -147l-14 -90h-161
s21 69 28 115c6 41 7 70 7 101v6c0 41 0 87 13 169c12 75 55 224 220 224l79 -75l101 75c128 0 155 -90 155 -165c0 -22 -2 -42 -5 -59l-62 -391h-150l14 90c13 80 24 109 54 301c4 26 6 47 6 63c0 37 -9 51 -24 56l-88 -60h-16h-16l-68 60c-23 -7 -43 -34 -56 -119
c-5 -29 -9 -54 -12 -76c16 29 36 55 63 75c24 18 53 30 85 30z" />
    <glyph glyph-name="uni0E06" unicode="&#xe06;" horiz-adv-x="650" 
d="M114 506c0 -2 -1 -5 -1 -7c0 -15 10 -26 27 -26c20 0 33 14 36 33c0 2 1 5 1 7c0 15 -10 26 -27 26c-20 0 -33 -14 -36 -33zM615 600l-95 -600h-138c-28 48 -69 94 -145 112c0 -6 -1 -12 -2 -18c-10 -65 -67 -105 -132 -105c-59 0 -99 33 -99 87c0 6 0 12 1 18
c7 46 37 79 78 95c41 126 184 168 222 271c-38 -41 -88 -70 -163 -70c-70 0 -114 38 -114 96c0 7 1 13 2 20c10 65 67 105 132 105c58 0 94 -32 94 -85c0 -6 -1 -13 -2 -20c-1 -5 -1 -10 -3 -15c32 29 59 69 79 109l51 6c17 -14 36 -51 36 -102c0 -11 -1 -22 -3 -34
c-19 -120 -139 -183 -177 -270c72 -11 121 -41 156 -73c3 34 8 70 13 103l59 370h150zM151 94c0 2 1 5 1 7c0 15 -10 26 -27 26c-20 0 -33 -14 -36 -33c0 -2 -1 -5 -1 -7c0 -15 10 -26 27 -26c20 0 33 14 36 33z" />
    <glyph glyph-name="uni0E07" unicode="&#xe07;" horiz-adv-x="525" 
d="M-15 318l104 84l197 -275c-3 13 -6 30 -6 49c0 11 1 22 3 34l12 75c9 59 28 82 43 119c-9 -2 -19 -3 -29 -3c-59 0 -100 33 -100 87c0 6 0 12 1 18c10 65 67 105 132 105c94 0 139 -48 139 -119c0 -10 -1 -20 -3 -31c-9 -54 -28 -117 -40 -191l-43 -270h-160zM294 506
c0 -2 -1 -5 -1 -7c0 -15 10 -26 27 -26c20 0 33 14 36 33c0 2 1 5 1 7c0 15 -10 26 -27 26c-20 0 -33 -14 -36 -33z" />
    <glyph glyph-name="uni0E08" unicode="&#xe08;" horiz-adv-x="590" 
d="M201 255c0 3 1 5 1 7c0 15 -9 26 -26 26c-20 0 -34 -14 -37 -33c0 -2 -1 -5 -1 -7c0 -15 10 -26 27 -26c20 0 33 14 36 33zM429 90l-14 -90h-160c3 21 5 43 5 65c0 43 -6 86 -16 116c-24 -20 -56 -31 -90 -31c-59 0 -100 33 -100 87c0 6 0 12 1 18c10 65 67 105 132 105
c99 0 134 -88 143 -176c18 81 44 122 60 225c1 9 2 17 2 25c0 57 -39 77 -96 77c-60 0 -105 -30 -125 -97l-149 10c28 97 129 197 291 197c143 0 230 -77 230 -181c0 -10 -1 -20 -3 -31c-23 -144 -95 -215 -111 -319z" />
    <glyph glyph-name="uni0E09" unicode="&#xe09;" horiz-adv-x="645" 
d="M55 0l17 109c3 18 11 32 21 44c-41 10 -70 39 -70 83c0 6 1 13 2 19c10 65 67 105 132 105c59 0 99 -33 99 -87c0 -6 0 -12 -1 -18c-8 -48 -27 -68 -34 -115l-3 -17c43 36 100 67 179 78c0 3 1 6 1 9l31 191c2 9 2 18 2 26c0 61 -42 84 -105 84c-66 0 -116 -35 -137 -106
l-148 12c30 101 134 204 302 204c148 0 239 -79 239 -187c0 -11 -1 -22 -3 -33l-26 -161c-3 -22 -16 -38 -31 -51c30 -14 49 -40 49 -77c0 -6 0 -12 -1 -18c-10 -65 -67 -105 -132 -105c-59 0 -99 33 -99 87c0 6 0 12 1 18c1 5 2 10 3 14c-65 -20 -110 -63 -150 -108h-138z
M424 94c0 -2 -1 -5 -1 -7c0 -15 10 -26 27 -26c20 0 33 14 36 33c0 2 1 5 1 7c0 15 -10 26 -27 26c-20 0 -33 -14 -36 -33zM171 255c0 3 1 5 1 7c0 15 -9 26 -26 26c-20 0 -34 -14 -37 -33c0 -2 -1 -5 -1 -7c0 -15 10 -26 27 -26c20 0 33 14 36 33z" />
    <glyph glyph-name="uni0E0A" unicode="&#xe0a;" horiz-adv-x="640" 
d="M98 470c0 -2 -1 -5 -1 -7c0 -15 10 -26 27 -26c20 0 33 14 36 33c0 3 1 5 1 7c0 15 -9 26 -26 26c-20 0 -34 -14 -37 -33zM392 415c-41 -106 -161 -154 -176 -248c-1 -5 -1 -10 -1 -15c0 -43 34 -63 74 -63c43 0 88 21 100 95l28 176c1 7 2 13 2 18c0 19 -8 31 -27 37z
M567 360l-28 -176c-17 -110 -118 -205 -267 -205c-135 0 -209 64 -209 150c0 8 1 17 2 26c26 166 211 196 229 310c1 5 1 10 1 14c0 34 -23 54 -65 59c10 -13 15 -30 15 -50c0 -6 0 -12 -1 -18c-10 -65 -66 -105 -131 -105c-59 0 -100 33 -100 87c0 6 0 12 1 18
c12 76 91 145 217 145c107 0 165 -49 172 -120c67 14 94 57 106 132l148 -12c-12 -74 -68 -133 -152 -160c40 -16 63 -43 63 -80c0 -5 0 -10 -1 -15z" />
    <glyph glyph-name="uni0E0B" unicode="&#xe0b;" horiz-adv-x="640" 
d="M104 506c0 -2 -1 -5 -1 -7c0 -15 10 -26 27 -26c20 0 33 14 36 33c0 2 1 5 1 7c0 15 -10 26 -27 26c-20 0 -33 -14 -36 -33zM505 455c40 -16 63 -43 63 -80c0 -5 0 -10 -1 -15l-28 -176c-17 -110 -118 -205 -267 -205c-135 0 -209 64 -209 150c0 8 1 17 2 26
c24 153 188 194 230 306c-39 -42 -88 -71 -163 -71c-70 0 -114 38 -114 96c0 7 1 13 2 20c10 65 67 105 132 105c58 0 94 -32 94 -85c0 -6 -1 -13 -2 -20c-1 -5 -1 -10 -3 -15c32 29 59 69 79 109l51 6c17 -14 36 -52 36 -103v-8c65 14 90 59 102 132l148 -12
c-12 -74 -68 -133 -152 -160zM417 360c1 7 2 13 2 18c0 21 -9 32 -31 38c-46 -100 -158 -159 -172 -249c-1 -5 -1 -10 -1 -15c0 -43 34 -63 74 -63c43 0 88 21 100 95z" />
    <glyph glyph-name="uni0E0C" unicode="&#xe0c;" horiz-adv-x="950" 
d="M114 94c0 -2 -1 -5 -1 -7c0 -15 10 -26 27 -26c20 0 33 14 36 33c0 2 1 5 1 7c0 15 -10 26 -27 26c-20 0 -33 -14 -36 -33zM915 600l-95 -600h-138c-26 47 -54 92 -119 111c-1 -5 -2 -11 -3 -17c-10 -65 -67 -105 -132 -105c-59 0 -99 33 -99 87c0 6 0 12 1 18
c9 54 48 91 99 102c-4 9 -7 18 -7 30c0 4 0 9 1 14l24 151c2 10 2 19 2 28c0 66 -46 92 -113 92c-57 0 -102 -24 -130 -72l124 -29l-25 -60s-18 5 -34 5c-35 0 -44 -25 -48 -50l-10 -65c-3 -18 -11 -32 -21 -44c41 -10 70 -39 70 -83c0 -6 -1 -13 -2 -19
c-10 -65 -67 -105 -132 -105c-59 0 -99 33 -99 87c0 6 0 12 1 18c8 48 21 69 28 116l13 80c7 46 34 79 79 95l-110 24c32 105 139 212 313 212c154 0 247 -83 247 -195c0 -11 -1 -23 -3 -35l-29 -181c-1 -4 -1 -8 -2 -12c60 -12 100 -40 127 -70c3 34 8 69 13 102l59 370
h150zM476 94c0 2 1 5 1 7c0 15 -10 26 -27 26c-20 0 -33 -14 -36 -33c0 -2 -1 -5 -1 -7c0 -15 10 -26 27 -26c20 0 33 14 36 33z" />
    <glyph glyph-name="uni0E0D" unicode="&#xe0d;" horiz-adv-x="950" 
d="M114 94c0 -2 -1 -5 -1 -7c0 -15 10 -26 27 -26c20 0 33 14 36 33c0 2 1 5 1 7c0 15 -10 26 -27 26c-20 0 -33 -14 -36 -33zM353 621c154 0 247 -83 247 -195c0 -11 -1 -23 -3 -35l-35 -221c-1 -8 -2 -15 -2 -22c0 -47 29 -59 59 -59c34 0 73 16 83 81l68 430h150
l-68 -430c-16 -101 -110 -191 -250 -191c-126 0 -192 74 -192 162c0 10 0 19 2 29l35 221c2 10 2 19 2 28c0 66 -46 92 -113 92c-57 0 -102 -24 -130 -72l124 -29l-25 -60s-18 5 -34 5c-35 0 -44 -25 -48 -50l-10 -65c-3 -18 -11 -32 -21 -44c41 -10 70 -39 70 -83
c0 -6 -1 -13 -2 -19c-10 -65 -67 -105 -132 -105c-59 0 -99 33 -99 87c0 6 0 12 1 18c8 48 21 69 28 116l13 80c7 46 34 79 79 95l-110 24c32 105 139 212 313 212zM481 -121c-18 0 -30 -12 -33 -29c0 -2 -1 -4 -1 -6c0 -14 9 -23 25 -23c18 0 29 12 32 29c0 2 1 5 1 7
c0 13 -8 22 -24 22zM491 -58c51 0 86 -28 86 -75c0 -5 0 -11 -1 -17c-3 -18 -10 -33 -19 -46h7h10c54 0 98 24 114 122l108 -12c-17 -110 -103 -180 -213 -180h-70c-84 0 -139 35 -139 97c0 6 1 13 2 19c9 57 58 92 115 92z" />
    <glyph glyph-name="uni0E0E" unicode="&#xe0e;" horiz-adv-x="665" 
d="M136 94c0 2 1 5 1 7c0 15 -10 26 -27 26c-20 0 -33 -14 -36 -33c0 -2 -1 -5 -1 -7c0 -15 10 -26 27 -26c20 0 33 14 36 33zM363 621c154 0 247 -83 247 -195c0 -11 -1 -23 -3 -35l-72 -456l-27 -170h-135c-41 33 -97 66 -146 89c0 -1 -1 -3 -1 -4
c-6 -38 -48 -100 -126 -100c-62 0 -95 36 -95 83c0 6 0 11 1 17c9 58 59 100 131 100c62 0 159 -40 239 -90c1 22 5 47 9 75l72 456c2 10 2 19 2 28c0 66 -46 92 -113 92c-57 0 -102 -24 -129 -71l133 -30l-25 -60s-18 5 -34 5c-35 0 -44 -25 -48 -50l-10 -65l-5 -30
c-7 -47 0 -68 -8 -116c-10 -65 -67 -105 -132 -105c-59 0 -99 33 -99 87c0 6 0 12 1 18c9 54 49 91 100 102c-5 9 -8 20 -8 32c0 4 0 8 1 12l8 50c7 46 33 78 78 94l-119 25c32 105 139 212 313 212zM155 -119c-10 2 -17 4 -23 4c-15 0 -36 -6 -41 -35c0 -3 -1 -6 -1 -8
c0 -20 14 -27 26 -27c24 0 39 16 42 35c2 13 1 23 -3 31z" />
    <glyph glyph-name="uni0E0F" unicode="&#xe0f;" horiz-adv-x="665" 
d="M136 94c0 2 1 5 1 7c0 15 -10 26 -27 26c-20 0 -33 -14 -36 -33c0 -2 -1 -5 -1 -7c0 -15 10 -26 27 -26c20 0 33 14 36 33zM363 621c154 0 247 -83 247 -195c0 -11 -1 -23 -3 -35l-72 -456l-27 -170h-135l-96 87c-12 -15 -29 -32 -48 -47c-35 -27 -85 -55 -139 -55
c-65 0 -100 34 -100 83c0 6 0 11 1 17c9 55 56 100 126 100c64 0 91 -42 95 -78c26 29 43 63 43 63h45l76 -72c1 21 5 45 9 72l72 456c2 10 2 19 2 28c0 66 -46 92 -113 92c-57 0 -102 -24 -129 -71l133 -30l-25 -60s-18 5 -34 5c-35 0 -44 -25 -48 -50l-10 -65l-5 -30
c-7 -47 0 -68 -8 -116c-10 -65 -67 -105 -132 -105c-59 0 -99 33 -99 87c0 6 0 12 1 18c9 54 49 91 100 102c-5 9 -8 20 -8 32c0 4 0 8 1 12l8 50c7 46 33 78 78 94l-119 25c32 105 139 212 313 212zM129 -182c6 8 12 18 14 32c0 2 1 4 1 6c0 16 -11 29 -32 29
c-13 0 -32 -9 -36 -35c-1 -3 -1 -6 -1 -9c0 -22 18 -26 31 -26c8 0 15 1 23 3z" />
    <glyph glyph-name="uni0E10" unicode="&#xe10;" horiz-adv-x="555" 
d="M157 225c0 2 1 5 1 7c0 15 -10 26 -27 26c-20 0 -33 -14 -36 -33c0 -3 -1 -5 -1 -7c0 -15 9 -26 26 -26c20 0 34 14 37 33zM289 147c10 41 28 87 35 129c1 5 1 10 1 14c0 68 -94 91 -290 91l6 35c19 120 126 205 262 205c68 0 113 -23 141 -49c3 5 6 10 9 14l19 29
l107 -21l-1 -6l-114 -118h-45c-14 21 -43 51 -106 51c-49 0 -101 -17 -123 -73c170 -9 284 -41 284 -132c0 -6 -1 -13 -2 -20c-12 -73 -75 -159 -87 -236l-10 -60h-160c3 21 5 43 5 64c0 35 -4 69 -12 95c-25 -25 -60 -39 -99 -39c-59 0 -99 33 -99 87c0 6 0 12 1 18
c10 65 66 105 131 105c107 0 140 -94 147 -183zM345 -65h110l-27 -170h-95l-70 83c-12 -14 -27 -29 -44 -43c-35 -27 -85 -55 -139 -55c-65 0 -100 34 -100 83c0 6 0 11 1 17c9 55 56 100 126 100c64 0 91 -42 95 -78c26 29 43 63 43 63h45l47 -59c2 18 5 38 8 59zM119 -182
c6 8 12 18 14 32c0 2 1 4 1 6c0 16 -11 29 -32 29c-13 0 -32 -9 -36 -35c-1 -3 -1 -6 -1 -9c0 -22 18 -26 31 -26c8 0 15 1 23 3z" />
    <glyph glyph-name="uni0E11" unicode="&#xe11;" horiz-adv-x="665" 
d="M55 0l25 155c24 154 175 194 215 306c-39 -42 -87 -71 -163 -71c-70 0 -114 38 -114 96c0 7 1 13 2 20c10 65 67 105 132 105c58 0 94 -32 94 -85c0 -6 -1 -13 -2 -20c-1 -5 -1 -10 -3 -15c32 29 59 69 79 109l51 6c13 -11 29 -37 34 -74c41 47 88 79 132 79
c68 0 83 -47 83 -90c0 -15 -2 -29 -4 -41l-76 -480h-150l72 452c2 12 2 29 -5 33c-18 -10 -43 -35 -67 -66c-41 -102 -145 -161 -159 -252l-26 -167h-150zM104 506c0 -2 -1 -5 -1 -7c0 -15 10 -26 27 -26c20 0 33 14 36 33c0 2 1 5 1 7c0 15 -10 26 -27 26
c-20 0 -33 -14 -36 -33z" />
    <glyph glyph-name="uni0E12" unicode="&#xe12;" horiz-adv-x="960" 
d="M925 600l-95 -600h-138c-26 47 -54 92 -119 111c-1 -5 -2 -11 -3 -17c-10 -65 -67 -105 -132 -105c-59 0 -99 33 -99 87c0 6 0 12 1 18c9 56 51 92 104 102c-4 9 -6 18 -6 30c0 4 0 9 1 14l24 151c4 26 6 47 6 63c0 37 -9 52 -24 56l-88 -60h-16h-16l-68 60
c-24 -6 -49 -34 -62 -119c-22 -137 -10 -169 -20 -231c-2 -15 -5 -29 -8 -42c41 38 88 63 126 92c-53 4 -90 35 -90 86c0 6 1 12 2 19c10 65 67 105 132 105c59 0 99 -33 99 -87c0 -6 0 -12 -1 -18c-25 -155 -205 -198 -255 -315h-171s21 69 28 115c6 41 7 70 7 101v6
c0 41 0 87 13 169c12 75 55 224 220 224l79 -75l101 75c128 0 155 -90 155 -165c0 -22 -2 -42 -5 -59l-29 -181c-1 -4 -1 -8 -2 -12c60 -12 100 -40 127 -70c3 34 8 69 13 102l59 370h150zM486 94c0 2 1 5 1 7c0 15 -10 26 -27 26c-20 0 -33 -14 -36 -33c0 -2 -1 -5 -1 -7
c0 -15 10 -26 27 -26c20 0 33 14 36 33zM315 282c20 0 33 14 36 33c0 2 1 5 1 7c0 15 -10 26 -27 26c-20 0 -33 -14 -36 -33c0 -2 -1 -5 -1 -7c0 -15 10 -26 27 -26z" />
    <glyph glyph-name="uni0E13" unicode="&#xe13;" horiz-adv-x="960" 
d="M114 94c0 -2 -1 -5 -1 -7c0 -15 10 -26 27 -26c20 0 33 14 36 33c0 2 1 5 1 7c0 15 -10 26 -27 26c-20 0 -33 -14 -36 -33zM734 94c0 -2 -1 -5 -1 -7c0 -15 10 -26 27 -26c20 0 33 14 36 33c0 2 1 5 1 7c0 15 -10 26 -27 26c-20 0 -33 -14 -36 -33zM920 600l-57 -360
c-3 -22 -16 -38 -31 -51c30 -14 49 -40 49 -77c0 -6 0 -12 -1 -18c-10 -65 -67 -105 -132 -105c-59 0 -99 33 -99 87c0 6 0 12 1 18l3 12c-56 -21 -94 -63 -130 -106h-138l62 391c2 10 2 19 2 28c0 66 -46 92 -113 92c-57 0 -102 -24 -130 -72l124 -29l-25 -60s-18 5 -34 5
c-35 0 -44 -25 -48 -50l-10 -65c-3 -18 -11 -32 -21 -44c41 -10 70 -39 70 -83c0 -6 -1 -13 -2 -19c-10 -65 -67 -105 -132 -105c-59 0 -99 33 -99 87c0 6 0 12 1 18c8 48 21 69 28 116l13 80c7 46 34 79 79 95l-110 24c32 105 139 212 313 212c154 0 247 -83 247 -195
c0 -11 -1 -23 -3 -35l-26 -161c-5 -31 -11 -65 -18 -97c38 31 87 58 153 68c0 3 2 6 2 9l62 390h150z" />
    <glyph glyph-name="uni0E14" unicode="&#xe14;" horiz-adv-x="665" 
d="M315 282c20 0 33 14 36 33c0 2 1 5 1 7c0 15 -10 26 -27 26c-20 0 -33 -14 -36 -33c0 -2 -1 -5 -1 -7c0 -15 10 -26 27 -26zM395 0l14 90c13 80 24 109 54 301c2 10 2 19 2 28c0 66 -46 92 -114 92c-77 0 -142 -33 -156 -120c-22 -137 -10 -169 -20 -231
c-2 -15 -5 -29 -8 -42c41 38 88 63 126 92c-53 4 -90 35 -90 86c0 6 1 12 2 19c10 65 67 105 132 105c59 0 99 -33 99 -87c0 -6 0 -12 -1 -18c-25 -155 -205 -198 -255 -315h-171s21 69 28 115c6 41 7 70 7 101v6c0 41 0 87 13 169c20 129 143 230 311 230
c153 0 242 -83 242 -195c0 -11 -1 -23 -3 -35l-62 -391h-150z" />
    <glyph glyph-name="uni0E15" unicode="&#xe15;" horiz-adv-x="665" 
d="M315 282c20 0 33 14 36 33c0 2 1 5 1 7c0 15 -10 26 -27 26c-20 0 -33 -14 -36 -33c0 -2 -1 -5 -1 -7c0 -15 10 -26 27 -26zM395 0l14 90c13 80 24 109 54 301c4 26 6 47 6 63c0 37 -9 51 -24 56l-88 -60h-16h-16l-68 60c-24 -7 -49 -34 -62 -119
c-22 -137 -10 -169 -20 -231c-2 -15 -5 -29 -8 -42c41 38 88 63 126 92c-53 4 -90 35 -90 86c0 6 1 12 2 19c10 65 67 105 132 105c59 0 99 -33 99 -87c0 -6 0 -12 -1 -18c-25 -155 -205 -198 -255 -315h-171s21 69 28 115c6 41 7 70 7 101v6c0 41 0 87 13 169
c12 75 55 224 220 224l79 -75l101 75c128 0 155 -90 155 -165c0 -22 -2 -42 -5 -59l-62 -391h-150z" />
    <glyph glyph-name="uni0E16" unicode="&#xe16;" horiz-adv-x="655" 
d="M114 94c0 -2 -1 -5 -1 -7c0 -15 10 -26 27 -26c20 0 33 14 36 33c0 2 1 5 1 7c0 15 -10 26 -27 26c-20 0 -33 -14 -36 -33zM192 196c41 -10 70 -39 70 -83c0 -6 -1 -13 -2 -19c-10 -65 -67 -105 -132 -105c-59 0 -99 33 -99 87c0 6 0 12 1 18c8 48 21 69 28 116l13 80
c7 46 34 79 79 95l-110 24c32 105 139 212 313 212c154 0 247 -83 247 -195c0 -11 -1 -23 -3 -35l-62 -391h-150l62 391c2 10 2 19 2 28c0 66 -46 92 -113 92c-57 0 -102 -24 -130 -72l124 -29l-25 -60s-18 5 -34 5c-35 0 -44 -25 -48 -50l-10 -65c-3 -18 -11 -32 -21 -44z
" />
    <glyph glyph-name="uni0E17" unicode="&#xe17;" horiz-adv-x="660" 
d="M195 0h-150l57 360c3 18 11 32 21 44c-41 10 -70 39 -70 83c0 6 1 13 2 19c10 65 67 105 132 105c59 0 99 -33 99 -87c0 -6 0 -12 -1 -18c-8 -48 -21 -69 -28 -116l-5 -30c61 128 147 251 250 251c89 0 111 -63 111 -109c0 -8 -1 -16 -2 -22l-76 -480h-150l72 452
c2 12 2 29 -5 33c-89 -47 -213 -308 -245 -410zM201 506c0 2 1 5 1 7c0 15 -10 26 -27 26c-20 0 -33 -14 -36 -33c0 -2 -1 -5 -1 -7c0 -15 10 -26 27 -26c20 0 33 14 36 33z" />
    <glyph glyph-name="uni0E18" unicode="&#xe18;" horiz-adv-x="585" 
d="M593 588l-114 -118h-45c-14 21 -43 51 -106 51c-50 0 -103 -17 -125 -77c181 -8 315 -38 315 -131c0 -5 0 -11 -1 -17l-18 -112c-17 -110 -118 -205 -267 -205c-135 0 -205 77 -205 173c0 10 0 21 2 32l19 116h150l-19 -116c-1 -9 -2 -17 -2 -25c0 -54 34 -70 72 -70
c43 0 88 21 100 95l15 92c1 4 1 7 1 11c0 69 -117 84 -316 84l7 45c19 120 126 205 262 205c68 0 113 -24 141 -50c3 5 6 11 9 15l19 29l107 -21z" />
    <glyph glyph-name="uni0E19" unicode="&#xe19;" horiz-adv-x="650" 
d="M424 94c0 -2 -1 -5 -1 -7c0 -15 10 -26 27 -26c20 0 33 14 36 33c0 2 1 5 1 7c0 15 -10 26 -27 26c-20 0 -33 -14 -36 -33zM610 600l-57 -360c-3 -22 -16 -38 -31 -51c30 -14 49 -40 49 -77c0 -6 0 -12 -1 -18c-10 -65 -67 -105 -132 -105c-59 0 -99 33 -99 87
c0 6 0 12 1 18c1 5 1 10 3 15c-72 -20 -119 -63 -160 -109h-138l57 360c3 18 11 32 21 44c-41 10 -70 39 -70 83c0 6 1 13 2 19c10 65 67 105 132 105c59 0 99 -33 99 -87c0 -6 0 -12 -1 -18c-8 -48 -21 -69 -28 -116l-26 -160c-5 -32 -11 -67 -18 -100c45 33 105 63 184 72
c0 3 1 5 1 8l62 390h150zM201 506c0 2 1 5 1 7c0 15 -10 26 -27 26c-20 0 -33 -14 -36 -33c0 -2 -1 -5 -1 -7c0 -15 10 -26 27 -26c20 0 33 14 36 33z" />
    <glyph glyph-name="uni0E1A" unicode="&#xe1a;" horiz-adv-x="700" 
d="M196 506c0 2 1 5 1 7c0 15 -10 26 -27 26c-20 0 -33 -14 -36 -33c0 -2 -1 -5 -1 -7c0 -15 10 -26 27 -26c20 0 33 14 36 33zM118 404c-41 10 -70 39 -70 83c0 6 1 13 2 19c10 65 67 105 132 105c59 0 99 -33 99 -87c0 -6 0 -12 -1 -18c-8 -48 -21 -69 -28 -116l-31 -194
c-1 -9 -2 -17 -2 -25c0 -60 41 -82 100 -82c67 0 120 29 132 107l64 404h150l-64 -404c-19 -122 -138 -217 -299 -217c-147 0 -234 79 -234 185c0 10 1 21 3 32l26 164c3 18 11 32 21 44z" />
    <glyph glyph-name="uni0E1B" unicode="&#xe1b;" horiz-adv-x="700" 
d="M196 506c0 2 1 5 1 7c0 15 -10 26 -27 26c-20 0 -33 -14 -36 -33c0 -2 -1 -5 -1 -7c0 -15 10 -26 27 -26c20 0 33 14 36 33zM118 404c-41 10 -70 39 -70 83c0 6 1 13 2 19c10 65 67 105 132 105c59 0 99 -33 99 -87c0 -6 0 -12 -1 -18c-8 -48 -21 -69 -28 -116l-31 -194
c-1 -9 -2 -17 -2 -25c0 -60 41 -82 100 -82c67 0 120 29 132 107l97 614h150l-97 -614c-19 -122 -138 -217 -299 -217c-147 0 -234 79 -234 185c0 10 1 21 3 32l26 164c3 18 11 32 21 44z" />
    <glyph glyph-name="uni0E1C" unicode="&#xe1c;" horiz-adv-x="715" 
d="M477 235l58 365h145l-95 -600h-140l-105 255l-185 -255h-140l43 270c5 33 6 65 6 94v31c0 23 1 45 4 66c14 88 87 150 194 150c59 0 99 -33 99 -87c0 -6 0 -12 -1 -18c-10 -65 -66 -105 -131 -105c-13 0 -25 2 -37 5c5 -30 16 -50 16 -86c0 -10 -1 -22 -3 -35l-8 -50
c-3 -17 -6 -34 -12 -50l127 175h45h45l71 -175c0 16 1 33 4 50zM276 506c0 2 1 5 1 7c0 15 -10 26 -27 26c-20 0 -33 -14 -36 -33c0 -2 -1 -5 -1 -7c0 -15 10 -26 27 -26c20 0 33 14 36 33z" />
    <glyph glyph-name="uni0E1D" unicode="&#xe1d;" horiz-adv-x="715" 
d="M477 235l91 575h145l-128 -810h-140l-105 255l-185 -255h-140l43 270c5 33 6 65 6 94v31c0 23 1 45 4 66c14 88 87 150 194 150c59 0 99 -33 99 -87c0 -6 0 -12 -1 -18c-10 -65 -66 -105 -131 -105c-13 0 -25 2 -37 5c5 -30 16 -50 16 -86c0 -10 -1 -22 -3 -35l-8 -50
c-3 -17 -6 -34 -12 -50l127 175h45h45l71 -175c0 16 1 33 4 50zM276 506c0 2 1 5 1 7c0 15 -10 26 -27 26c-20 0 -33 -14 -36 -33c0 -2 -1 -5 -1 -7c0 -15 10 -26 27 -26c20 0 33 14 36 33z" />
    <glyph glyph-name="uni0E1E" unicode="&#xe1e;" horiz-adv-x="735" 
d="M700 600l-95 -600h-130l-95 345l-205 -345h-130l57 360c3 18 11 32 21 44c-41 10 -70 39 -70 83c0 6 1 13 2 19c10 65 67 105 132 105c59 0 99 -33 99 -87c0 -6 0 -12 -1 -18c-8 -48 -26 -69 -33 -116l-14 -85c-3 -16 -7 -35 -12 -54l142 244h35h35l66 -244
c1 19 1 38 4 54l47 295h145zM201 506c0 2 1 5 1 7c0 15 -10 26 -27 26c-20 0 -33 -14 -36 -33c0 -2 -1 -5 -1 -7c0 -15 10 -26 27 -26c20 0 33 14 36 33z" />
    <glyph glyph-name="uni0E1F" unicode="&#xe1f;" horiz-adv-x="735" 
d="M733 810l-128 -810h-130l-95 345l-205 -345h-130l57 360c3 18 11 32 21 44c-41 10 -70 39 -70 83c0 6 1 13 2 19c10 65 67 105 132 105c59 0 99 -33 99 -87c0 -6 0 -12 -1 -18c-8 -48 -26 -69 -33 -116l-14 -85c-3 -16 -7 -35 -12 -54l142 244h35h35l66 -244
c1 19 1 38 4 54l80 505h145zM201 506c0 2 1 5 1 7c0 15 -10 26 -27 26c-20 0 -33 -14 -36 -33c0 -2 -1 -5 -1 -7c0 -15 10 -26 27 -26c20 0 33 14 36 33z" />
    <glyph glyph-name="uni0E20" unicode="&#xe20;" horiz-adv-x="665" 
d="M136 94c0 2 1 5 1 7c0 15 -10 26 -27 26c-20 0 -33 -14 -36 -33c0 -2 -1 -5 -1 -7c0 -15 10 -26 27 -26c20 0 33 14 36 33zM363 621c154 0 247 -83 247 -195c0 -11 -1 -23 -3 -35l-62 -391h-150l62 391c2 10 2 19 2 28c0 66 -46 92 -113 92c-57 0 -102 -24 -129 -71
l133 -30l-25 -60s-18 5 -34 5c-35 0 -44 -25 -48 -50l-10 -65l-5 -30c-7 -47 0 -68 -8 -116c-10 -65 -67 -105 -132 -105c-59 0 -99 33 -99 87c0 6 0 12 1 18c9 54 49 91 100 102c-5 9 -8 20 -8 32c0 4 0 8 1 12l8 50c7 46 33 78 78 94l-119 25c32 105 139 212 313 212z" />
    <glyph glyph-name="uni0E21" unicode="&#xe21;" horiz-adv-x="645" 
d="M610 600l-95 -600h-138c-27 46 -66 91 -136 110c0 -5 0 -10 -1 -16c-10 -65 -67 -105 -132 -105c-59 0 -99 33 -99 87c0 6 0 12 1 18c8 51 46 87 93 100c-6 10 -11 21 -11 35c0 3 0 7 1 11l19 120c3 18 11 32 21 44c-41 10 -70 39 -70 83c0 6 1 13 2 19
c10 65 67 105 132 105c59 0 99 -33 99 -87c0 -6 0 -12 -1 -18c-8 -48 -21 -69 -28 -116l-29 -180c-1 -4 -1 -8 -1 -11c69 -12 117 -40 151 -72c3 34 8 70 13 103l59 370h150zM156 94c0 2 1 5 1 7c0 15 -10 26 -27 26c-20 0 -33 -14 -36 -33c0 -2 -1 -5 -1 -7
c0 -15 10 -26 27 -26c20 0 33 14 36 33zM211 506c0 2 1 5 1 7c0 15 -10 26 -27 26c-20 0 -33 -14 -36 -33c0 -2 -1 -5 -1 -7c0 -15 10 -26 27 -26c20 0 33 14 36 33z" />
    <glyph glyph-name="uni0E22" unicode="&#xe22;" horiz-adv-x="645" 
d="M271 506c0 2 1 5 1 7c0 15 -10 26 -27 26c-20 0 -33 -14 -36 -33c0 -2 -1 -5 -1 -7c0 -15 10 -26 27 -26c20 0 33 14 36 33zM355 506c-10 -65 -66 -105 -131 -105c-21 0 -41 4 -57 12c17 -40 72 -53 165 -53v-1l-14 -87v-1c-93 0 -140 -29 -148 -81c-1 -8 -2 -14 -2 -21
c0 -57 41 -80 101 -80c67 0 120 29 132 107l64 404h150l-64 -404c-19 -122 -138 -217 -299 -217c-147 0 -235 74 -235 176c0 9 0 19 2 29c11 67 54 107 107 127c-39 25 -65 68 -65 122c0 9 0 18 2 28c14 88 87 150 194 150c59 0 99 -33 99 -87c0 -6 0 -12 -1 -18z" />
    <glyph glyph-name="uni0E23" unicode="&#xe23;" horiz-adv-x="530" 
d="M214 94c0 -2 -1 -5 -1 -7c0 -15 10 -26 27 -26c20 0 33 14 36 33c0 2 1 5 1 7c0 15 -10 26 -27 26c-20 0 -33 -14 -36 -33zM548 588l-114 -118h-45c-14 21 -38 51 -101 51c-50 0 -101 -18 -121 -78c145 -9 256 -41 256 -129c0 -6 0 -12 -1 -18l-16 -101l-12 -75
c-13 -79 -79 -131 -166 -131c-59 0 -99 33 -99 87c0 6 0 12 1 18c10 64 66 104 130 105c-1 7 -1 14 0 21l9 56c1 5 1 9 1 13c0 68 -97 82 -256 82l7 45c19 120 121 205 257 205c67 0 110 -23 137 -48c3 5 5 9 8 13l19 29l107 -21z" />
    <glyph glyph-name="uni0E24" unicode="&#xe24;" horiz-adv-x="655" 
d="M114 94c0 -2 -1 -5 -1 -7c0 -15 10 -26 27 -26c20 0 33 14 36 33c0 2 1 5 1 7c0 15 -10 26 -27 26c-20 0 -33 -14 -36 -33zM192 196c41 -10 70 -39 70 -83c0 -6 -1 -13 -2 -19c-10 -65 -67 -105 -132 -105c-59 0 -99 33 -99 87c0 6 0 12 1 18c8 48 21 69 28 116l13 80
c7 46 34 79 79 95l-110 24c32 105 139 212 313 212c154 0 247 -83 247 -195c0 -11 -1 -23 -3 -35l-95 -601h-150l95 601c2 10 2 19 2 28c0 66 -46 92 -113 92c-57 0 -102 -24 -130 -72l124 -29l-25 -60s-18 5 -34 5c-35 0 -44 -25 -48 -50l-10 -65c-3 -18 -11 -32 -21 -44z
" />
    <glyph glyph-name="uni0E25" unicode="&#xe25;" horiz-adv-x="635" 
d="M189 405l-148 12c30 101 134 204 302 204c148 0 239 -79 239 -187c0 -11 -1 -22 -3 -33l-64 -401h-150l14 90c-2 68 -63 170 -163 170c-26 0 -42 -15 -46 -40c-1 -8 -3 -15 -6 -21c58 -1 97 -34 97 -87c0 -6 0 -12 -1 -18c-10 -65 -67 -105 -132 -105
c-68 0 -117 43 -117 103c0 6 0 12 1 18l14 85c11 70 53 165 196 165c88 0 147 -45 184 -100l23 141c2 9 2 18 2 26c0 61 -42 84 -105 84c-66 0 -116 -35 -137 -106zM176 94c0 2 1 5 1 7c0 15 -10 26 -27 26c-20 0 -33 -14 -36 -33c0 -2 -1 -5 -1 -7c0 -15 10 -26 27 -26
c20 0 33 14 36 33z" />
    <glyph glyph-name="uni0E26" unicode="&#xe26;" horiz-adv-x="670" 
d="M136 94c0 2 1 5 1 7c0 15 -10 26 -27 26c-20 0 -33 -14 -36 -33c0 -2 -1 -5 -1 -7c0 -15 10 -26 27 -26c20 0 33 14 36 33zM363 621c154 0 247 -83 247 -195c0 -11 -1 -23 -3 -35l-95 -601h-150l95 601c2 10 2 19 2 28c0 66 -46 92 -113 92c-57 0 -102 -24 -129 -71
l133 -30l-25 -60s-18 5 -34 5c-35 0 -44 -25 -48 -50l-10 -65l-5 -30c-7 -47 0 -68 -8 -116c-10 -65 -67 -105 -132 -105c-59 0 -99 33 -99 87c0 6 0 12 1 18c9 54 49 91 100 102c-5 9 -8 20 -8 32c0 4 0 8 1 12l8 50c7 46 33 78 78 94l-119 25c32 105 139 212 313 212z" />
    <glyph glyph-name="uni0E27" unicode="&#xe27;" horiz-adv-x="535" 
d="M429 120c-13 -79 -79 -131 -166 -131c-59 0 -99 33 -99 87c0 6 0 12 1 18c10 64 66 104 130 105c-1 7 -1 14 0 21l31 196c1 9 2 17 2 25c0 54 -34 70 -72 70c-44 0 -80 -23 -98 -78l-148 12c26 83 115 176 263 176c135 0 205 -77 205 -173c0 -10 0 -21 -2 -32zM249 94
c0 -2 -1 -5 -1 -7c0 -15 10 -26 27 -26c20 0 33 14 36 33c0 2 1 5 1 7c0 15 -10 26 -27 26c-20 0 -33 -14 -36 -33z" />
    <glyph glyph-name="uni0E28" unicode="&#xe28;" horiz-adv-x="680" 
d="M325 348c-20 0 -33 -14 -36 -33c0 -2 -1 -5 -1 -7c0 -15 10 -26 27 -26c20 0 33 14 36 33c0 2 1 5 1 7c0 15 -10 26 -27 26zM395 0l14 90c13 80 24 109 54 301c2 11 3 22 3 32c0 8 -1 16 -3 23c-23 -13 -48 -27 -69 -40c26 -15 43 -39 43 -73c0 -6 -1 -12 -2 -18
c-10 -65 -67 -105 -132 -105c-32 0 -58 10 -75 27c-19 -31 -32 -74 -44 -147l-14 -90h-161s21 69 28 115c6 41 7 70 7 101v6c0 41 0 87 13 169c20 129 143 230 311 230c70 0 127 -17 167 -47c34 32 82 66 147 71l5 -130c-38 0 -66 -6 -91 -17c9 -22 14 -46 14 -72
c0 -11 -1 -23 -3 -35l-62 -391h-150zM422 497c-18 10 -43 14 -71 14c-77 0 -136 -33 -150 -120c-5 -29 -9 -54 -12 -76c16 29 36 55 63 75c15 11 30 20 48 25c37 26 81 55 122 82z" />
    <glyph glyph-name="uni0E29" unicode="&#xe29;" horiz-adv-x="710" 
d="M335 340c0 -12 7 -21 21 -21c16 0 27 11 29 26v5c0 12 -7 21 -21 21c-17 0 -29 -13 -29 -31zM196 506c0 2 1 5 1 7c0 15 -10 26 -27 26c-20 0 -33 -14 -36 -33c0 -2 -1 -5 -1 -7c0 -15 10 -26 27 -26c20 0 33 14 36 33zM432 302c8 2 15 3 21 3c5 0 10 1 15 1l47 294h150
l-40 -255c23 9 44 18 59 25l13 -75c-23 -9 -53 -19 -85 -27l-11 -72c-19 -122 -138 -217 -299 -217c-147 0 -234 79 -234 185c0 10 1 21 3 32l26 164c3 18 11 32 21 44c-41 10 -70 39 -70 83c0 6 1 13 2 19c10 65 67 105 132 105c59 0 99 -33 99 -87c0 -6 0 -12 -1 -18
c-8 -48 -21 -69 -28 -116l-31 -194c-1 -9 -2 -17 -2 -25c0 -60 41 -82 100 -82c67 0 120 29 132 107l7 46c-20 -1 -40 -2 -60 -2c-83 0 -130 32 -130 87c0 6 1 12 2 18c8 51 52 83 103 83c46 0 78 -26 78 -69c0 -5 0 -9 -1 -14c-3 -17 -9 -31 -18 -43z" />
    <glyph glyph-name="uni0E2A" unicode="&#xe2a;" horiz-adv-x="650" 
d="M189 405l-148 12c30 101 134 204 302 204c68 0 123 -17 164 -45c34 32 81 64 145 69l5 -130c-36 0 -63 -5 -88 -15c8 -21 13 -44 13 -68c0 -10 -1 -20 -3 -31l-64 -401h-150l14 90c-2 68 -63 170 -163 170c-26 0 -42 -15 -46 -40c-1 -8 -3 -15 -6 -21
c58 -1 97 -34 97 -87c0 -6 0 -12 -1 -18c-10 -65 -67 -105 -132 -105c-68 0 -117 43 -117 103c0 6 0 12 1 18l14 85c11 68 50 159 181 165c49 38 122 87 191 134c-18 12 -43 17 -72 17c-66 0 -116 -35 -137 -106zM176 94c0 2 1 5 1 7c0 15 -10 26 -27 26
c-20 0 -33 -14 -36 -33c0 -2 -1 -5 -1 -7c0 -15 10 -26 27 -26c20 0 33 14 36 33zM430 438c-51 -30 -100 -62 -139 -89c50 -16 89 -50 115 -89l23 141c2 14 2 26 1 37z" />
    <glyph glyph-name="uni0E2B" unicode="&#xe2b;" horiz-adv-x="660" 
d="M489 506c0 -2 -1 -5 -1 -7c0 -15 10 -26 27 -26c20 0 33 14 36 33c0 2 1 5 1 7c0 15 -10 26 -27 26c-20 0 -33 -14 -36 -33zM405 506c10 65 67 105 132 105c59 0 99 -33 99 -87c0 -6 0 -12 -1 -18c-7 -42 -31 -73 -66 -90c14 -11 24 -26 24 -46c0 -3 0 -7 -1 -10
l-57 -360h-150l56 353c-103 -36 -204 -151 -233 -269l-13 -84h-150l57 360c3 18 11 32 21 44c-41 10 -70 39 -70 83c0 6 1 13 2 19c10 65 67 105 132 105c59 0 99 -33 99 -87c0 -6 0 -12 -1 -18c-8 -48 -21 -69 -28 -116l-12 -77c49 54 107 100 173 126c-9 13 -14 30 -14 49
c0 6 0 12 1 18zM201 506c0 2 1 5 1 7c0 15 -10 26 -27 26c-20 0 -33 -14 -36 -33c0 -2 -1 -5 -1 -7c0 -15 10 -26 27 -26c20 0 33 14 36 33z" />
    <glyph glyph-name="uni0E2C" unicode="&#xe2c;" horiz-adv-x="760" 
d="M508 305l14 85c3 17 10 32 20 43c-47 7 -78 38 -78 85c0 6 0 12 1 18c10 65 67 105 132 105c58 0 100 -32 100 -86v-2c9 20 16 45 23 77l83 -10c-24 -90 -69 -139 -126 -169c-1 -9 -3 -19 -5 -31l-67 -420h-130l-100 315l-200 -315h-130l57 360c3 18 11 32 21 44
c-41 10 -70 39 -70 83c0 6 1 13 2 19c10 65 67 105 132 105c59 0 99 -33 99 -87c0 -6 0 -12 -1 -18c-8 -48 -26 -69 -33 -116l-14 -85c-3 -22 -10 -49 -17 -73l143 233h35h35l69 -233c1 24 2 51 5 73zM611 536c0 2 1 5 1 7c0 15 -10 26 -27 26c-20 0 -33 -14 -36 -33
c0 -2 -1 -5 -1 -7c0 -15 10 -26 27 -26c20 0 33 14 36 33zM201 506c0 2 1 5 1 7c0 15 -10 26 -27 26c-20 0 -33 -14 -36 -33c0 -2 -1 -5 -1 -7c0 -15 10 -26 27 -26c20 0 33 14 36 33z" />
    <glyph glyph-name="uni0E2D" unicode="&#xe2d;" horiz-adv-x="635" 
d="M189 405l-148 12c30 101 134 204 302 204c148 0 239 -79 239 -187c0 -11 -1 -22 -3 -33l-34 -209c-19 -118 -131 -213 -288 -213c-142 0 -225 79 -225 181c0 11 1 21 3 32l10 63c10 65 67 105 132 105c59 0 99 -33 99 -87c0 -6 0 -12 -1 -18c-9 -55 -50 -92 -102 -102
c9 -46 54 -64 101 -64c59 0 109 27 121 103l34 209c2 9 2 18 2 26c0 61 -42 84 -105 84c-66 0 -116 -35 -137 -106zM191 255c0 3 1 5 1 7c0 15 -9 26 -26 26c-20 0 -34 -14 -37 -33c0 -2 -1 -5 -1 -7c0 -15 10 -26 27 -26c20 0 33 14 36 33z" />
    <glyph glyph-name="uni0E2E" unicode="&#xe2e;" horiz-adv-x="640" 
d="M186 255c0 3 1 5 1 7c0 15 -9 26 -26 26c-20 0 -34 -14 -37 -33c0 -2 -1 -5 -1 -7c0 -15 10 -26 27 -26c20 0 33 14 36 33zM197 483c0 -9 9 -23 106 -23c52 0 93 7 123 21c-17 31 -54 49 -112 49c-77 0 -117 -20 -117 -47zM568 483c5 -14 9 -32 9 -51c0 -7 -1 -14 -2 -21
l-35 -219c-19 -118 -131 -213 -288 -213c-142 0 -225 79 -225 181c0 11 1 21 3 32l10 63c10 65 67 105 132 105c59 0 99 -33 99 -87c0 -6 0 -12 -1 -18c-9 -54 -49 -91 -100 -102c9 -47 51 -64 99 -64c59 0 109 27 121 103l18 108c9 57 18 70 25 100
c-37 -15 -85 -25 -144 -25c-137 0 -233 39 -233 100c0 3 0 7 1 10c9 56 92 136 266 136c97 0 152 -34 182 -65c13 25 22 55 27 86l128 -12c-9 -57 -40 -112 -92 -147z" />
    <glyph glyph-name="uni0E2F" unicode="&#xe2f;" horiz-adv-x="495" 
d="M84 87c130 14 160 35 167 78l26 165c7 47 31 67 47 103c-43 -26 -97 -43 -162 -43c-71 0 -119 38 -119 97c0 6 1 13 2 19c10 65 67 105 132 105c59 0 99 -33 99 -87c0 -6 0 -12 -1 -18c-2 -11 -5 -22 -9 -31c53 24 87 69 113 119l66 6c10 -8 14 -24 14 -45
c0 -22 -4 -50 -10 -85l-48 -305c-20 -127 -175 -172 -313 -186zM129 506c0 -2 -1 -5 -1 -7c0 -15 10 -26 27 -26c20 0 33 14 36 33c0 2 1 5 1 7c0 15 -10 26 -27 26c-20 0 -33 -14 -36 -33z" />
    <glyph glyph-name="uni0E30" unicode="&#xe30;" horiz-adv-x="540" 
d="M142 460c0 -2 -1 -5 -1 -7c0 -15 10 -26 27 -26c20 0 33 14 36 33c0 2 1 5 1 7c0 15 -10 26 -27 26c-20 0 -33 -14 -36 -33zM94 160c0 -2 -1 -5 -1 -7c0 -15 10 -26 27 -26c20 0 33 14 36 33c0 3 1 5 1 7c0 15 -9 26 -26 26c-20 0 -34 -14 -37 -33zM58 427
c-1 10 -2 21 0 33c10 65 66 105 131 105c59 0 100 -33 100 -87c0 -6 0 -12 -1 -18c-3 -19 -10 -36 -20 -51c4 1 8 1 12 1h10c56 0 93 56 106 135l123 -15c-17 -105 -98 -195 -236 -195h-75c-92 0 -143 38 -150 92zM10 127c-1 10 -2 21 0 33c10 65 67 105 132 105
c59 0 99 -33 99 -87c0 -6 0 -12 -1 -18c-3 -19 -10 -36 -20 -51c4 1 8 1 12 1h10c56 0 94 56 107 135l122 -15c-17 -105 -97 -195 -235 -195h-75c-92 0 -144 38 -151 92z" />
    <glyph glyph-name="uni0E31" unicode="&#xe31;" 
d="M10 886l108 -12c-17 -110 -103 -180 -213 -180h-70c-84 0 -139 35 -139 97c0 6 1 13 2 19c9 57 58 92 115 92c51 0 86 -28 86 -75c0 -5 0 -11 -1 -17c-3 -18 -10 -33 -19 -46h7h10c54 0 98 24 114 122zM-197 839c-18 0 -30 -12 -33 -29c0 -2 -1 -4 -1 -6
c0 -14 9 -23 25 -23c18 0 29 12 32 29c0 2 1 5 1 7c0 13 -8 22 -24 22z" />
    <glyph glyph-name="uni0E32" unicode="&#xe32;" horiz-adv-x="485" 
d="M13 462c23 73 101 159 235 159c122 0 183 -72 183 -157c0 -9 -1 -19 -2 -28l-69 -436h-150l69 436c1 8 2 16 2 23c0 44 -27 52 -50 52c-28 0 -56 -14 -70 -61z" />
    <glyph glyph-name="uni0E33" unicode="&#xe33;" horiz-adv-x="485" 
d="M-1 780c-10 -65 -67 -105 -132 -105c-59 0 -99 33 -99 87c0 6 0 12 1 18c10 65 66 105 131 105c59 0 100 -33 100 -87c0 -6 0 -12 -1 -18zM-85 780c0 2 1 5 1 7c0 15 -10 26 -27 26c-20 0 -33 -14 -36 -33c0 -3 -1 -5 -1 -7c0 -15 9 -26 26 -26c20 0 34 14 37 33zM13 462
c23 73 101 159 235 159c122 0 183 -72 183 -157c0 -9 -1 -19 -2 -28l-69 -436h-150l69 436c1 8 2 16 2 23c0 44 -27 52 -50 52c-28 0 -56 -14 -70 -61z" />
    <glyph glyph-name="uni0E34" unicode="&#xe34;" 
d="M-350 778l202 -37c-21 38 -59 79 -127 79c-28 0 -57 -11 -75 -42zM-42 685l-13 -20l-429 70c12 75 80 165 217 165c190 0 221 -193 225 -215z" />
    <glyph glyph-name="uni0E35" unicode="&#xe35;" 
d="M-116 845l9 60l107 -20l-33 -210l-17 -15l-434 70c12 75 79 165 206 165c85 0 136 -50 166 -102c-3 15 -5 28 -5 40c0 4 0 8 1 12zM-351 773l221 -41c-24 38 -68 83 -146 83c-28 0 -57 -11 -75 -42z" />
    <glyph glyph-name="uni0E36" unicode="&#xe36;" 
d="M-142 785c0 -2 -1 -5 -1 -7c0 -15 10 -26 27 -26c20 0 33 14 36 33c0 3 1 5 1 7c0 15 -9 26 -26 26c-20 0 -34 -14 -37 -33zM-349 775l122 -17c-1 8 -1 17 1 27c1 6 2 12 4 17c-14 8 -31 13 -54 13c-27 0 -55 -11 -73 -40zM-484 730c12 75 79 165 206 165
c44 0 72 -15 95 -35c24 19 56 30 89 30c59 0 99 -33 99 -87c0 -6 0 -12 -1 -18c-10 -65 -66 -105 -131 -105c-24 0 -47 5 -63 16z" />
    <glyph glyph-name="uni0E37" unicode="&#xe37;" 
d="M-208 895l5 35l87 -20l-28 -176l39 -8c-3 9 -5 18 -5 28c0 4 0 7 1 11l22 140l87 -20l-33 -210l-17 -15l-434 70c12 75 69 165 196 165c38 0 65 -12 85 -30c-4 12 -6 23 -5 30zM-352 773l177 -33c-19 43 -59 75 -111 75c-28 0 -51 -11 -66 -42z" />
    <glyph glyph-name="uni0E38" unicode="&#xe38;" 
d="M-259 -121c-18 0 -30 -12 -33 -29c0 -2 -1 -4 -1 -6c0 -14 9 -23 25 -23c18 0 29 12 32 29c0 2 1 5 1 7c0 13 -8 22 -24 22zM-184 -245l-9 -60h-100l6 40c1 9 5 16 10 23h-1c-51 0 -87 29 -87 76c0 5 0 10 1 16c9 57 58 92 115 92c51 0 86 -28 86 -75c0 -5 0 -11 -1 -17
c-7 -42 -14 -57 -20 -95z" />
    <glyph glyph-name="uni0E39" unicode="&#xe39;" 
d="M-419 -121c-18 0 -30 -12 -33 -29c0 -2 -1 -4 -1 -6c0 -14 9 -23 25 -23c18 0 29 12 32 29c0 2 1 5 1 7c0 13 -8 22 -24 22zM-443 -242c-48 2 -82 31 -82 76c0 5 0 10 1 16c9 57 58 92 115 92c51 0 86 -28 86 -75c0 -5 0 -11 -1 -17c-6 -35 -17 -46 -20 -65l-2 -10v-3
c0 -8 5 -17 32 -17c30 0 37 11 38 20l26 160h100l-27 -170c-8 -48 -66 -75 -147 -75c-75 0 -121 15 -121 55c0 3 0 6 1 10z" />
    <glyph glyph-name="uni0E3A" unicode="&#xe3a;" 
d="M-329 -150c9 54 55 88 109 88c48 0 82 -27 82 -72c0 -5 0 -10 -1 -16c-9 -54 -55 -88 -109 -88c-48 0 -82 27 -82 72c0 5 0 10 1 16z" />
    <glyph glyph-name="uni0E3F" unicode="&#xe3f;" horiz-adv-x="720" 
d="M343 464c46 6 101 38 113 111c1 6 2 12 2 18c0 55 -47 77 -127 77c-18 0 -36 0 -50 -1l-33 -206c29 1 60 1 95 1zM511 440c85 -30 134 -87 134 -169c0 -12 -1 -23 -3 -36c-21 -133 -141 -222 -308 -240l-18 -115h-120l18 111c-113 2 -199 9 -199 9l124 780s90 8 201 9
l18 111h120l-19 -120c99 -21 166 -77 166 -162c0 -9 0 -18 -2 -28c-11 -71 -55 -119 -112 -150zM193 113c21 -1 47 -2 75 -2c102 0 192 25 208 124c1 8 2 16 2 23c0 79 -78 96 -172 96c-28 0 -54 -1 -75 -2z" />
    <glyph glyph-name="uni0E40" unicode="&#xe40;" horiz-adv-x="330" 
d="M114 94c0 -2 -1 -5 -1 -7c0 -15 10 -26 27 -26c20 0 33 14 36 33c0 2 1 5 1 7c0 15 -10 26 -27 26c-20 0 -33 -14 -36 -33zM192 196c41 -10 70 -39 70 -83c0 -6 -1 -13 -2 -19c-10 -65 -67 -105 -132 -105c-59 0 -99 33 -99 87c0 6 0 12 1 18c8 48 21 69 28 116l62 390
h150l-57 -360c-3 -18 -11 -32 -21 -44z" />
    <glyph glyph-name="uni0E41" unicode="&#xe41;" horiz-adv-x="630" 
d="M414 94c0 -2 -1 -5 -1 -7c0 -15 10 -26 27 -26c20 0 33 14 36 33c0 2 1 5 1 7c0 15 -10 26 -27 26c-20 0 -33 -14 -36 -33zM492 196c41 -10 70 -39 70 -83c0 -6 -1 -13 -2 -19c-10 -65 -67 -105 -132 -105c-59 0 -99 33 -99 87c0 6 0 12 1 18c8 48 21 69 28 116l62 390
h150l-57 -360c-3 -18 -11 -32 -21 -44zM114 94c0 -2 -1 -5 -1 -7c0 -15 10 -26 27 -26c20 0 33 14 36 33c0 2 1 5 1 7c0 15 -10 26 -27 26c-20 0 -33 -14 -36 -33zM192 196c41 -10 70 -39 70 -83c0 -6 -1 -13 -2 -19c-10 -65 -67 -105 -132 -105c-59 0 -99 33 -99 87
c0 6 0 12 1 18c8 48 21 69 28 116l62 390h150l-57 -360c-3 -18 -11 -32 -21 -44z" />
    <glyph glyph-name="uni0E42" unicode="&#xe42;" horiz-adv-x="380" 
d="M159 94c0 -2 -1 -5 -1 -7c0 -15 10 -26 27 -26c20 0 33 14 36 33c0 2 1 5 1 7c0 15 -10 26 -27 26c-20 0 -33 -14 -36 -33zM196 752c79 -14 122 -48 122 -118c0 -11 -1 -22 -3 -34l-57 -360c-3 -18 -11 -32 -21 -44c41 -10 70 -39 70 -83c0 -6 -1 -13 -2 -19
c-10 -65 -67 -105 -132 -105c-59 0 -99 33 -99 87c0 6 0 12 1 18c8 48 21 69 28 116l62 390c2 12 3 23 3 32c0 51 -32 63 -123 63l6 35c16 99 99 185 229 185c56 0 95 -23 121 -49c3 5 5 10 8 14l20 29l107 -21l-1 -6l-114 -118h-45c-14 21 -38 51 -92 51
c-38 0 -73 -19 -88 -63z" />
    <glyph glyph-name="uni0E43" unicode="&#xe43;" horiz-adv-x="380" 
d="M273 838c10 -13 15 -30 15 -50c0 -6 0 -12 -1 -18c-10 -65 -67 -105 -132 -105c-59 0 -99 33 -99 87c0 6 0 12 1 18c12 76 91 145 217 145c113 0 173 -55 173 -133c0 -9 0 -18 -2 -27c-19 -119 -128 -142 -144 -245l-43 -270c-3 -18 -11 -32 -21 -44
c41 -10 70 -39 70 -83c0 -6 -1 -13 -2 -19c-10 -65 -67 -105 -132 -105c-59 0 -99 33 -99 87c0 6 0 12 1 18c8 48 21 69 28 116l48 300c20 124 169 153 185 255c1 5 1 9 1 14c0 34 -23 54 -64 59zM159 94c0 -2 -1 -5 -1 -7c0 -15 10 -26 27 -26c20 0 33 14 36 33
c0 2 1 5 1 7c0 15 -10 26 -27 26c-20 0 -33 -14 -36 -33zM141 770c0 -2 -1 -5 -1 -7c0 -15 10 -26 27 -26c20 0 33 14 36 33c0 2 1 5 1 7c0 15 -10 26 -27 26c-20 0 -33 -14 -36 -33z" />
    <glyph glyph-name="uni0E44" unicode="&#xe44;" horiz-adv-x="380" 
d="M74 878l1 6l104 27l21 -61c5 -17 10 -37 13 -54c14 18 29 38 42 54c14 18 44 61 114 61c71 0 92 -43 92 -78c0 -5 0 -9 -1 -13c-16 -101 -136 -166 -159 -310l-43 -270c-3 -18 -11 -32 -21 -44c41 -10 70 -39 70 -83c0 -6 -1 -13 -2 -19c-10 -65 -67 -105 -132 -105
c-59 0 -99 33 -99 87c0 6 0 12 1 18c8 48 21 69 28 116l48 300c18 111 197 255 205 305c1 8 -4 20 -14 20c-10 -10 -36 -40 -36 -40l-92 -105h-55zM159 94c0 -2 -1 -5 -1 -7c0 -15 10 -26 27 -26c20 0 33 14 36 33c0 2 1 5 1 7c0 15 -10 26 -27 26c-20 0 -33 -14 -36 -33z
" />
    <glyph glyph-name="uni0E45" unicode="&#xe45;" horiz-adv-x="485" 
d="M13 462c23 73 101 159 235 159c122 0 183 -72 183 -157c0 -9 -1 -19 -2 -28l-102 -646h-150l102 646c1 8 2 16 2 23c0 44 -27 52 -50 52c-28 0 -56 -14 -70 -61z" />
    <glyph glyph-name="uni0E46" unicode="&#xe46;" horiz-adv-x="590" 
d="M164 315c0 -2 -1 -5 -1 -7c0 -15 10 -26 27 -26c20 0 33 14 36 33c0 2 1 5 1 7c0 15 -10 26 -27 26c-20 0 -33 -14 -36 -33zM205 500c-22 -23 -37 -49 -45 -89c16 6 34 9 52 9c59 0 99 -33 99 -87c0 -6 0 -12 -1 -18c-10 -65 -67 -105 -132 -105c-94 0 -143 66 -143 152
c0 12 1 25 3 38c25 160 138 215 184 215l84 -75l106 75c41 0 120 -44 120 -165c0 -15 -1 -32 -4 -50l-96 -610h-150l96 610c2 13 3 25 3 36c0 20 -3 36 -10 50l-71 -46h-10h-10z" />
    <glyph glyph-name="uni0E47" unicode="&#xe47;" 
d="M-386 785c12 78 77 120 174 120h105c37 0 71 5 99 25l25 -65c-40 -26 -83 -30 -130 -30h-110c-47 0 -68 -19 -73 -50c-1 -4 -1 -8 -1 -11c0 -18 9 -30 30 -36l43 57h10l24 -18c18 31 53 49 91 49c46 0 78 -26 78 -69c0 -5 0 -9 -1 -14c-8 -51 -52 -83 -103 -83
c-45 0 -76 25 -78 66l-47 -61c-88 0 -138 34 -138 98c0 7 1 14 2 22zM-108 769c-17 0 -29 -13 -29 -31c0 -12 7 -21 21 -21c17 0 29 13 29 31c0 12 -7 21 -21 21z" />
    <glyph glyph-name="uni0E48" unicode="&#xe48;" 
d="M10 945l-107 20l28 175h110z" />
    <glyph glyph-name="uni0E49" unicode="&#xe49;" 
d="M-194 1070c-2 -11 3 -19 15 -19s19 8 21 19s-3 19 -15 19s-19 -8 -21 -19zM-157 1015c-8 -3 -18 -5 -28 -5c-33 0 -57 18 -57 49c0 3 0 7 1 11c6 37 38 60 75 60c53 0 77 -32 77 -77v-8c-1 -13 -2 -26 -3 -37c33 11 63 43 76 122l103 -15c-18 -112 -107 -165 -227 -165
h-25l3 15c3 20 4 36 5 50z" />
    <glyph glyph-name="uni0E4A" unicode="&#xe4a;" 
d="M-128 1021c-12 0 -19 -8 -21 -19s3 -19 15 -19s19 8 21 19s-3 19 -15 19zM-122 1062c33 0 57 -18 57 -49c0 -3 0 -7 -1 -11c-6 -37 -38 -60 -75 -60c-61 0 -78 37 -78 71c0 6 1 13 2 19c13 82 84 105 102 105l46 -25l54 25c16 0 61 -19 61 -82c0 -5 0 -10 -1 -15
c10 21 19 46 26 72l73 -15c-23 -78 -91 -149 -194 -152l-4 37c20 15 28 27 32 50c1 6 1 11 1 16c0 17 -5 26 -12 32l-41 -18h-3h-3l-38 20c-8 -5 -13 -12 -19 -22c5 1 10 2 15 2z" />
    <glyph glyph-name="uni0E4B" unicode="&#xe4b;" 
d="M-169 1015l9 60h85l11 65h100l-11 -65h85l-9 -60h-85l-11 -70l-97 20l8 50h-85z" />
    <glyph glyph-name="uni0E4C" unicode="&#xe4c;" 
d="M-73 1056c-18 0 -29 -12 -32 -29c0 -2 -1 -5 -1 -7c0 -13 8 -22 24 -22c18 0 30 12 33 29c0 2 1 4 1 6c0 14 -9 23 -25 23zM37 1181l103 -12c-8 -52 -50 -91 -120 -101c3 -8 4 -17 4 -26c0 -5 0 -10 -1 -15c-9 -57 -58 -92 -115 -92c-59 0 -91 33 -91 77c0 5 0 10 1 15
c8 51 46 99 120 99h25c44 0 67 12 74 55z" />
    <glyph glyph-name="uni0E4D" unicode="&#xe4d;" 
d="M-1 780c-10 -65 -67 -105 -132 -105c-59 0 -99 33 -99 87c0 6 0 12 1 18c10 65 66 105 131 105c59 0 100 -33 100 -87c0 -6 0 -12 -1 -18zM-85 780c0 2 1 5 1 7c0 15 -10 26 -27 26c-20 0 -33 -14 -36 -33c0 -3 -1 -5 -1 -7c0 -15 9 -26 26 -26c20 0 34 14 37 33z" />
    <glyph glyph-name="uni0E4E" unicode="&#xe4e;" 
d="M-309 762c6 41 46 86 112 86h7c8 39 40 82 103 82c32 0 58 -14 74 -33l29 -37l-59 -46l-40 47c-8 9 -13 9 -13 9c-2 0 -23 -6 -27 -29c-2 -10 -1 -18 3 -25l27 -35l-60 -46l-39 47c-8 9 -14 9 -14 9c-2 0 -19 -6 -23 -29c-2 -10 0 -20 8 -29l32 -35l-62 -48l-40 47
c-13 16 -19 35 -19 53c0 4 0 8 1 12z" />
    <glyph glyph-name="uni0E4F" unicode="&#xe4f;" horiz-adv-x="660" 
d="M287 300c0 -3 -1 -5 -1 -7c0 -15 9 -26 26 -26c20 0 34 14 37 33c0 2 1 5 1 7c0 15 -10 26 -27 26c-20 0 -33 -14 -36 -33zM203 300c10 65 66 105 131 105c59 0 100 -33 100 -87c0 -6 0 -12 -1 -18c-10 -65 -67 -105 -132 -105c-59 0 -99 33 -99 87c0 6 0 12 1 18z
M276 40c-154 0 -236 94 -236 216c0 14 1 29 3 44c22 142 144 260 316 260c154 0 237 -94 237 -216c0 -14 -1 -29 -3 -44c-22 -142 -145 -260 -317 -260zM289 120c102 0 186 66 204 180c2 13 3 25 3 37c0 91 -60 143 -150 143c-102 0 -185 -66 -203 -180
c-2 -13 -3 -26 -3 -38c0 -91 59 -142 149 -142z" />
    <glyph glyph-name="uni0E50" unicode="&#xe50;" horiz-adv-x="720" 
d="M35 287l5 26c22 138 120 308 358 308c204 0 267 -124 267 -247c0 -20 -2 -41 -5 -61l-5 -26c-22 -138 -120 -308 -358 -308c-204 0 -267 124 -267 247c0 20 2 41 5 61zM314 89c102 0 171 70 191 198l5 26c3 19 5 37 5 54c0 94 -47 144 -134 144
c-102 0 -171 -70 -191 -198l-5 -26c-3 -19 -5 -37 -5 -54c0 -94 47 -144 134 -144z" />
    <glyph glyph-name="uni0E51" unicode="&#xe51;" horiz-adv-x="720" 
d="M42 330c20 129 129 291 356 291c204 0 266 -127 266 -250c0 -21 -2 -41 -5 -61l-3 -20c-24 -152 -186 -319 -411 -335l3 110c119 8 244 111 262 225l3 20c3 20 5 38 5 55c0 94 -47 148 -137 148c-103 0 -181 -72 -199 -183c-1 -9 -2 -17 -2 -24c0 -60 44 -81 81 -81
c13 0 25 2 37 5c-39 11 -62 39 -62 81c0 6 0 13 1 19c10 65 67 105 132 105c59 0 99 -33 99 -87c0 -6 0 -12 -1 -18c-15 -97 -101 -195 -243 -195c-128 0 -184 88 -184 168c0 9 1 18 2 27zM321 330c0 -2 -1 -5 -1 -7c0 -15 10 -26 27 -26c20 0 33 14 36 33c0 2 1 5 1 7
c0 15 -10 26 -27 26c-20 0 -33 -14 -36 -33z" />
    <glyph glyph-name="uni0E52" unicode="&#xe52;" horiz-adv-x="810" 
d="M37 205l87 545h145l-87 -545c-1 -7 -2 -13 -2 -19c0 -53 42 -76 67 -76h245c28 0 84 28 95 95l31 195c2 13 3 25 3 35c0 23 -4 40 -12 56l-79 -51h-10h-10l-75 60c-22 -23 -37 -49 -45 -89c16 6 34 9 52 9c59 0 99 -33 99 -87c0 -6 0 -12 -1 -18
c-10 -65 -67 -105 -132 -105c-94 0 -143 66 -143 152c0 12 1 25 3 38c25 160 138 215 184 215l84 -75l106 75c41 0 120 -44 120 -165c0 -15 -1 -32 -4 -50l-31 -195c-15 -95 -105 -205 -257 -205h-240c-136 0 -195 88 -195 175c0 10 0 20 2 30zM394 315c0 -2 -1 -5 -1 -7
c0 -15 10 -26 27 -26c20 0 33 14 36 33c0 2 1 5 1 7c0 15 -10 26 -27 26c-20 0 -33 -14 -36 -33z" />
    <glyph glyph-name="uni0E53" unicode="&#xe53;" horiz-adv-x="720" 
d="M37 233l29 183c14 87 67 205 207 205c57 0 95 -30 114 -73c33 43 79 73 136 73c115 0 147 -79 147 -156c0 -17 -2 -33 -4 -49l-37 -231c-14 -89 -40 -149 -111 -196l-98 75c25 17 51 40 64 121l37 231c3 18 4 33 4 45c0 41 -15 50 -30 50c-30 0 -51 -43 -59 -95l-30 -191
h-140l30 191c2 13 3 26 3 37c0 34 -10 58 -32 58c-20 0 -43 -15 -56 -95l-31 -196c-1 -8 -3 -15 -6 -22c6 1 12 1 18 1c59 0 99 -33 99 -87c0 -6 0 -12 -1 -18c-10 -65 -67 -105 -132 -105c-82 0 -133 57 -133 135v11c2 32 12 98 12 98zM206 94c0 2 1 5 1 7
c0 15 -10 26 -27 26c-20 0 -33 -14 -36 -33c0 -2 -1 -5 -1 -7c0 -15 10 -26 27 -26c20 0 33 14 36 33z" />
    <glyph glyph-name="uni0E54" unicode="&#xe54;" horiz-adv-x="720" 
d="M38 300l2 15c23 145 144 289 352 300c36 2 96 7 114 9c68 8 94 1 123 129l148 -15c-36 -158 -136 -206 -262 -222c-29 -4 -88 -9 -130 -11c-95 -5 -176 -71 -195 -190l-2 -15c-3 -16 -4 -32 -4 -46c0 -91 50 -144 133 -144h39c-20 28 -30 61 -30 99c0 12 1 24 3 36
c14 88 79 175 188 175c59 0 99 -33 99 -87c0 -6 0 -12 -1 -18c-10 -65 -67 -105 -132 -105c-18 0 -33 3 -47 9v-6c0 -64 50 -103 121 -103h50l-17 -110h-290c-199 0 -266 127 -266 248c0 18 1 35 4 52zM469 315c0 -2 -1 -5 -1 -7c0 -15 10 -26 27 -26c20 0 33 14 36 33
c0 2 1 5 1 7c0 15 -10 26 -27 26c-20 0 -33 -14 -36 -33z" />
    <glyph glyph-name="uni0E55" unicode="&#xe55;" horiz-adv-x="720" 
d="M38 300l2 15c19 123 109 237 261 276c-6 12 -10 25 -10 41c0 6 1 12 2 18c10 65 67 105 132 105c59 0 99 -33 99 -87c0 -6 0 -12 -1 -18c-2 -14 -6 -27 -13 -39c64 8 90 18 119 142l148 -15c-36 -158 -136 -206 -262 -222c-12 -2 -29 -3 -46 -3c-25 0 -52 2 -72 7
c-107 -18 -188 -86 -207 -205l-2 -15c-3 -16 -4 -32 -4 -46c0 -91 50 -144 133 -144h39c-20 28 -30 61 -30 99c0 12 1 24 3 36c14 88 79 175 188 175c59 0 99 -33 99 -87c0 -6 0 -12 -1 -18c-10 -65 -67 -105 -132 -105c-18 0 -33 3 -47 9v-6c0 -64 50 -103 121 -103h50
l-17 -110h-290c-199 0 -266 127 -266 248c0 18 1 35 4 52zM377 650c0 -2 -1 -5 -1 -7c0 -15 10 -26 27 -26c20 0 33 14 36 33c0 2 1 5 1 7c0 15 -10 26 -27 26c-20 0 -33 -14 -36 -33zM469 315c0 -2 -1 -5 -1 -7c0 -15 10 -26 27 -26c20 0 33 14 36 33c0 2 1 5 1 7
c0 15 -10 26 -27 26c-20 0 -33 -14 -36 -33z" />
    <glyph glyph-name="uni0E56" unicode="&#xe56;" horiz-adv-x="720" 
d="M107 738l152 15l-16 -190c37 32 91 58 170 58c184 0 251 -129 251 -253c0 -19 -1 -37 -4 -55l-5 -26c-22 -138 -120 -308 -348 -308c-177 0 -254 75 -254 158c0 8 1 15 2 23c10 65 67 105 132 105c59 0 99 -33 99 -87c0 -6 0 -12 -1 -18c-4 -28 -18 -52 -37 -70
c19 -3 41 -5 65 -5c112 0 172 74 192 202l5 26c3 19 4 38 4 54c0 92 -46 139 -124 139c-99 0 -148 -74 -160 -96l-113 10zM201 160c0 3 1 5 1 7c0 15 -9 26 -26 26c-20 0 -34 -14 -37 -33c0 -2 -1 -5 -1 -7c0 -15 10 -26 27 -26c20 0 33 14 36 33z" />
    <glyph glyph-name="uni0E57" unicode="&#xe57;" horiz-adv-x="905" 
d="M37 233l29 183c14 87 67 205 207 205c57 0 95 -30 114 -73c33 43 79 73 136 73c110 0 138 -73 138 -147c0 -20 -2 -39 -5 -58l-37 -231c-6 -35 -14 -65 -27 -92c40 19 76 51 84 102l88 555h135l-88 -555c-19 -118 -130 -206 -313 -206l-78 75c25 17 51 40 64 121l37 231
c3 18 4 33 4 45c0 41 -15 50 -30 50c-30 0 -51 -43 -59 -95l-30 -191h-140l30 191c2 13 3 26 3 37c0 34 -10 58 -32 58c-20 0 -43 -15 -56 -95l-31 -196c-1 -8 -3 -15 -6 -22c6 1 12 1 18 1c59 0 99 -33 99 -87c0 -6 0 -12 -1 -18c-10 -65 -67 -105 -132 -105
c-82 0 -133 57 -133 135v11c2 32 12 98 12 98zM206 94c0 2 1 5 1 7c0 15 -10 26 -27 26c-20 0 -33 -14 -36 -33c0 -2 -1 -5 -1 -7c0 -15 10 -26 27 -26c20 0 33 14 36 33z" />
    <glyph glyph-name="uni0E58" unicode="&#xe58;" horiz-adv-x="750" 
d="M38 300l2 15c23 145 144 289 352 300c36 2 96 7 114 9c68 8 94 1 123 129l148 -15c-36 -158 -136 -206 -262 -222c-29 -4 -88 -9 -130 -11c-95 -5 -176 -71 -195 -190l-2 -15c-4 -26 -6 -49 -6 -70c0 -30 3 -55 7 -79l94 119h110c-5 -34 -8 -62 -8 -85
c0 -66 21 -91 65 -91c53 0 85 38 103 118c-8 -1 -17 -2 -25 -2c-59 0 -99 33 -99 87c0 6 0 12 1 18c10 65 67 105 132 105c87 0 115 -60 115 -130c0 -16 -1 -33 -4 -50c-17 -110 -77 -251 -240 -251c-104 0 -144 64 -154 137l-99 -126h-125l5 29c1 8 2 15 2 23
c0 55 -28 115 -28 195c0 17 1 34 4 53zM514 315c0 -2 -1 -5 -1 -7c0 -15 10 -26 27 -26c20 0 33 14 36 33c0 2 1 5 1 7c0 15 -10 26 -27 26c-20 0 -33 -14 -36 -33z" />
    <glyph glyph-name="uni0E59" unicode="&#xe59;" horiz-adv-x="720" 
d="M166 450c14 90 99 152 210 164c51 5 106 8 120 10c68 8 94 1 123 129l148 -15c-36 -158 -136 -203 -262 -219c-33 -4 -95 -5 -138 -10c-34 -4 -60 -22 -67 -64c-3 -16 0 -27 3 -33c18 2 38 3 58 3h200l-18 -110h-200c-129 0 -172 -50 -182 -110c-1 -7 -2 -14 -2 -20
c0 -49 34 -91 149 -91c49 0 84 2 109 10c-8 13 -13 29 -13 48c0 6 0 12 1 18c10 65 67 105 132 105c59 0 99 -33 99 -87c0 -6 0 -12 -1 -18c-14 -91 -123 -181 -343 -181c-201 0 -284 85 -284 185c0 10 1 21 3 31c12 77 66 151 169 190c-9 13 -15 30 -15 49c0 5 0 11 1 16z
M489 160c0 -2 -1 -5 -1 -7c0 -15 10 -26 27 -26c20 0 33 14 36 33c0 3 1 5 1 7c0 15 -9 26 -26 26c-20 0 -34 -14 -37 -33z" />
    <glyph glyph-name="uni0E5A" unicode="&#xe5a;" horiz-adv-x="675" 
d="M545 0h-130l95 600h130zM84 87c130 14 160 35 167 78l26 165c7 47 31 67 47 103c-43 -26 -97 -43 -162 -43c-71 0 -119 38 -119 97c0 6 1 13 2 19c10 65 67 105 132 105c59 0 99 -33 99 -87c0 -6 0 -12 -1 -18c-2 -11 -5 -22 -9 -31c53 24 87 69 113 119l46 6
c10 -8 14 -24 14 -45c0 -22 -4 -50 -10 -85l-48 -305c-20 -127 -155 -172 -293 -186zM129 506c0 -2 -1 -5 -1 -7c0 -15 10 -26 27 -26c20 0 33 14 36 33c0 2 1 5 1 7c0 15 -10 26 -27 26c-20 0 -33 -14 -36 -33z" />
    <glyph glyph-name="uni0E5B" unicode="&#xe5b;" horiz-adv-x="900" 
d="M203 300c10 65 66 105 131 105c59 0 100 -33 100 -87c0 -6 0 -12 -1 -18c-10 -65 -67 -105 -132 -105c-59 0 -99 33 -99 87c0 6 0 12 1 18zM287 300c0 -3 -1 -5 -1 -7c0 -15 9 -26 26 -26c20 0 34 14 37 33c0 2 1 5 1 7c0 15 -10 26 -27 26c-20 0 -33 -14 -36 -33z
M43 300c22 142 144 260 316 260l-13 -80c-102 0 -185 -66 -203 -180c-2 -13 -3 -26 -3 -38c0 -91 59 -142 149 -142c102 0 186 66 204 180c2 13 3 25 3 37c0 42 -12 76 -28 96l78 50c18 -24 31 -52 38 -83l50 -150l63 180l56 6l43 -111h80l-7 -50h-110l-30 65l-69 -194
l-65 -6l-30 93c-42 -110 -145 -193 -289 -193c-154 0 -236 94 -236 216c0 14 1 29 3 44z" />
    <glyph glyph-name="uni0E81" unicode="&#xe81;" horiz-adv-x="690" 
d="M216 506c0 2 1 5 1 7c0 15 -10 26 -27 26c-20 0 -33 -14 -36 -33c0 -2 -1 -5 -1 -7c0 -15 10 -26 27 -26c20 0 33 14 36 33zM151 94c0 2 1 5 1 7c0 15 -10 26 -27 26c-20 0 -33 -14 -36 -33c0 -2 -1 -5 -1 -7c0 -15 10 -26 27 -26c20 0 33 14 36 33zM302 522
c50 45 113 94 191 94c104 0 145 -77 145 -164c0 -15 -2 -31 -4 -46l-64 -406h-150l64 406c2 15 4 27 4 38c0 48 -22 62 -48 62c-54 0 -108 -51 -163 -85c-2 -9 -5 -19 -7 -31l-14 -90l-15 -90c-2 -16 -3 -28 -3 -40c0 -11 1 -21 1 -32c0 -13 -1 -27 -4 -44
c-10 -65 -67 -105 -132 -105c-59 0 -99 33 -99 87c0 6 0 12 1 18c9 54 49 91 100 102c-5 9 -8 20 -8 32c0 4 0 8 1 12l10 60l9 60c3 18 11 32 21 44c-41 10 -70 39 -70 83c0 6 1 13 2 19c10 65 67 105 132 105c58 0 100 -33 100 -87v-2z" />
    <glyph glyph-name="uni0E82" unicode="&#xe82;" horiz-adv-x="625" 
d="M202 450c0 2 1 5 1 7c0 15 -10 26 -27 26c-20 0 -33 -14 -36 -33c0 -2 -1 -5 -1 -7c0 -15 10 -26 27 -26c20 0 33 14 36 33zM286 450c-10 -65 -66 -105 -131 -105c-59 0 -100 33 -100 87c0 6 0 12 1 18c15 97 136 171 287 171c142 0 233 -66 233 -161c0 -8 -1 -17 -2 -25
c-17 -108 -120 -149 -179 -174c-45 -19 -120 -49 -163 -66c-45 -18 -76 -33 -81 -62c0 -3 -1 -6 -1 -9c0 -27 21 -40 53 -40c107 0 199 85 245 126h75l44 -198l-1 -6l-118 -21l-5 65c-1 9 -1 20 -1 32v15c-62 -55 -151 -118 -260 -118c-110 0 -177 49 -177 132
c0 9 0 18 2 27c16 103 138 146 169 158c43 17 120 49 161 66c31 13 85 30 92 73c1 5 1 10 1 15c0 52 -48 71 -102 71c-22 0 -42 0 -57 -1c10 -14 16 -32 16 -53c0 -5 0 -11 -1 -17z" />
    <glyph glyph-name="uni0E84" unicode="&#xe84;" horiz-adv-x="670" 
d="M57 426c16 99 135 195 311 195c160 0 249 -79 249 -185c0 -10 -1 -21 -3 -32l-64 -404h-148l64 404c1 8 2 16 2 23c0 60 -44 84 -117 84c-82 0 -139 -29 -149 -91c-1 -3 -1 -7 -1 -10c0 -37 38 -61 124 -61l-14 -89c-100 0 -151 -22 -175 -72c17 7 36 11 56 11
c59 0 99 -33 99 -87c0 -6 0 -12 -1 -18c-10 -65 -67 -105 -132 -105c-95 0 -146 57 -146 132c0 9 0 18 2 28c11 71 61 128 120 158c-45 18 -79 49 -79 99c0 6 1 13 2 20zM206 94c0 2 1 5 1 7c0 15 -10 26 -27 26c-20 0 -33 -14 -36 -33c0 -2 -1 -5 -1 -7
c0 -15 10 -26 27 -26c20 0 33 14 36 33z" />
    <glyph glyph-name="uni0E87" unicode="&#xe87;" horiz-adv-x="520" 
d="M120 450c0 -2 -1 -5 -1 -7c0 -15 10 -26 27 -26c20 0 33 14 36 33c0 2 1 5 1 7c0 15 -10 26 -27 26c-20 0 -33 -14 -36 -33zM242 530c16 -14 26 -34 26 -60c0 -6 -1 -13 -2 -20c-10 -65 -66 -105 -131 -105c-59 0 -100 33 -100 87c0 6 0 12 1 18c14 89 112 171 242 171
c126 0 188 -72 188 -157c0 -9 -1 -19 -2 -28l-76 -482c-13 -81 -74 -185 -210 -185c-140 0 -185 119 -194 225l139 26c10 -114 55 -141 73 -141c11 0 36 4 47 75l77 487c1 9 2 17 2 25c0 49 -29 65 -63 65c-6 0 -11 -1 -17 -1z" />
    <glyph glyph-name="uni0E88" unicode="&#xe88;" horiz-adv-x="590" 
d="M201 255c0 3 1 5 1 7c0 15 -9 26 -26 26c-20 0 -34 -14 -37 -33c0 -2 -1 -5 -1 -7c0 -15 10 -26 27 -26c20 0 33 14 36 33zM22 424c28 97 129 197 291 197c143 0 230 -77 230 -181c0 -10 -1 -20 -3 -31c-21 -131 -101 -232 -117 -330l-4 -25c-6 -35 -43 -59 -105 -59
c-41 0 -69 5 -69 5c5 32 8 67 8 99c0 31 -3 59 -9 82c-24 -20 -56 -31 -90 -31c-59 0 -100 33 -100 87c0 6 0 12 1 18c10 65 67 105 132 105c105 0 135 -99 138 -192c18 66 56 151 70 241c1 8 2 16 2 23c0 59 -43 79 -101 79c-60 0 -110 -30 -130 -97z" />
    <glyph glyph-name="uni0E8A" unicode="&#xe8a;" horiz-adv-x="625" 
d="M566 -184l-127 -42c-14 28 -39 97 -39 186c0 22 1 46 5 70c2 15 6 30 10 43c-60 -48 -140 -94 -233 -94c-110 0 -177 49 -177 132c0 9 0 18 2 27c16 103 138 146 169 158c43 17 120 49 161 66c31 13 85 30 92 73c1 5 1 10 1 15c0 52 -48 71 -102 71c-22 0 -42 0 -57 -1
c10 -14 16 -32 16 -53c0 -5 0 -11 -1 -17c-10 -65 -66 -105 -131 -105c-59 0 -100 33 -100 87c0 6 0 12 1 18c15 97 136 171 287 171c142 0 233 -66 233 -161c0 -8 -1 -17 -2 -25c-17 -108 -120 -149 -179 -174c-45 -19 -120 -49 -163 -66c-45 -18 -76 -33 -81 -62
c0 -3 -1 -6 -1 -9c0 -27 21 -40 53 -40c107 0 199 85 245 126l103 -15l-18 -110c-5 -33 -7 -63 -7 -89c0 -84 23 -134 41 -174zM202 450c0 2 1 5 1 7c0 15 -10 26 -27 26c-20 0 -33 -14 -36 -33c0 -2 -1 -5 -1 -7c0 -15 10 -26 27 -26c20 0 33 14 36 33z" />
    <glyph glyph-name="uni0E8D" unicode="&#xe8d;" horiz-adv-x="670" 
d="M18 174c10 61 56 99 113 119c-42 26 -72 72 -72 130c0 9 1 19 2 28c14 88 89 160 196 160c59 0 99 -33 99 -87c0 -6 0 -12 -1 -18c-10 -65 -66 -105 -131 -105c-20 0 -38 4 -53 11c8 -50 53 -72 153 -72l-14 -89c-93 0 -139 -29 -146 -71c-1 -5 -1 -11 -1 -16
c0 -51 46 -75 121 -75c82 0 137 29 149 107l64 404h148l-64 -404c-19 -122 -138 -217 -314 -217c-163 0 -251 82 -251 172c0 8 1 15 2 23zM271 506c0 2 1 5 1 7c0 15 -10 26 -27 26c-20 0 -33 -14 -36 -33c0 -2 -1 -5 -1 -7c0 -15 10 -26 27 -26c20 0 33 14 36 33z" />
    <glyph glyph-name="uni0E94" unicode="&#xe94;" horiz-adv-x="665" 
d="M211 94c0 2 1 5 1 7c0 15 -10 26 -27 26c-20 0 -33 -14 -36 -33c0 -2 -1 -5 -1 -7c0 -15 10 -26 27 -26c20 0 33 14 36 33zM159 194c11 3 25 5 38 5c59 0 99 -33 99 -87c0 -6 0 -12 -1 -18c-10 -65 -67 -105 -132 -105c-95 0 -146 57 -146 132c0 9 0 18 2 28l38 242
c20 129 143 230 311 230c153 0 242 -83 242 -195c0 -11 -1 -23 -3 -35l-62 -391h-147l62 391c2 10 2 20 2 29c0 65 -43 91 -111 91c-77 0 -133 -33 -147 -120l-24 -151c-3 -22 -12 -35 -21 -46z" />
    <glyph glyph-name="uni0E95" unicode="&#xe95;" horiz-adv-x="685" 
d="M211 94c0 2 1 5 1 7c0 15 -10 26 -27 26c-20 0 -33 -14 -36 -33c0 -2 -1 -5 -1 -7c0 -15 10 -26 27 -26c20 0 33 14 36 33zM639 466l-74 -466h-147l74 466c1 4 1 8 1 12c0 30 -20 33 -32 33c-17 0 -37 -13 -46 -40l-18 -111h-120l18 111c-1 27 -17 40 -34 40
c-13 0 -39 -4 -45 -45l-36 -226c-3 -22 -12 -35 -21 -46c11 3 25 5 38 5c59 0 99 -33 99 -87c0 -6 0 -12 -1 -18c-10 -65 -67 -105 -132 -105c-95 0 -146 57 -146 132c0 9 0 18 2 28l50 317c13 79 73 155 184 155c58 0 94 -27 116 -58c32 31 76 58 134 58
c97 0 138 -58 138 -126c0 -10 0 -19 -2 -29z" />
    <glyph glyph-name="uni0E96" unicode="&#xe96;" horiz-adv-x="695" 
d="M134 94c0 -2 -1 -5 -1 -7c0 -15 10 -26 27 -26c20 0 33 14 36 33c0 2 1 5 1 7c0 15 -10 26 -27 26c-20 0 -33 -14 -36 -33zM221 506c0 2 1 5 1 7c0 15 -10 26 -27 26c-20 0 -33 -14 -36 -33c0 -2 -1 -5 -1 -7c0 -15 10 -26 27 -26c20 0 33 14 36 33zM260 408
c-2 -6 -4 -11 -5 -18l-14 -90l-10 -60c-3 -18 -11 -32 -21 -44c42 -9 72 -39 72 -84c0 -6 -1 -12 -2 -18c-10 -65 -67 -105 -132 -105c-59 0 -99 33 -99 87c0 6 0 12 1 18c8 48 21 69 28 116l15 90l9 60c3 20 15 36 29 48c-35 12 -58 41 -58 80c0 6 1 12 2 18
c10 65 67 105 132 105c58 0 100 -33 100 -87v-2c50 45 113 94 191 94c104 0 145 -77 145 -164c0 -15 -2 -31 -4 -46l-97 -616h-150l97 616c2 15 4 27 4 38c0 48 -22 62 -48 62c-61 0 -123 -65 -185 -98z" />
    <glyph glyph-name="uni0E97" unicode="&#xe97;" horiz-adv-x="760" 
d="M48 149l24 151c6 41 36 77 64 103c-46 7 -77 38 -77 85c0 6 0 12 1 18c10 65 67 105 132 105c59 0 99 -33 99 -87c0 -6 0 -12 -1 -18c-12 -75 -59 -118 -73 -206l-25 -156c-1 -7 -2 -13 -2 -19c0 -35 20 -41 40 -41c27 0 57 8 65 60l48 307c13 85 86 165 207 165
c113 0 163 -64 163 -138c0 -9 -1 -18 -2 -27l-71 -451h-145l72 456c1 9 2 16 2 22c0 32 -16 38 -35 38c-27 0 -52 -8 -60 -60l-48 -307c-13 -85 -89 -165 -212 -165c-115 0 -168 65 -168 140c0 8 1 16 2 25zM206 506c0 2 1 5 1 7c0 15 -10 26 -27 26c-20 0 -33 -14 -36 -33
c0 -2 -1 -5 -1 -7c0 -15 10 -26 27 -26c20 0 33 14 36 33z" />
    <glyph glyph-name="uni0E99" unicode="&#xe99;" horiz-adv-x="680" 
d="M216 506c0 2 1 5 1 7c0 15 -10 26 -27 26c-20 0 -33 -14 -36 -33c0 -2 -1 -5 -1 -7c0 -15 10 -26 27 -26c20 0 33 14 36 33zM213 86c-46 -79 -146 -100 -186 -102l-14 96c37 5 63 21 70 63l34 217c3 18 11 32 21 44c-41 10 -70 39 -70 83c0 6 1 13 2 19
c10 65 67 105 132 105c59 0 99 -33 99 -87c0 -6 0 -12 -1 -18c-8 -48 -21 -69 -28 -116l-28 -174c17 -73 62 -122 116 -122c23 0 66 11 79 90l66 416h150l-64 -406c-16 -104 -87 -210 -209 -210c-86 0 -138 44 -169 102z" />
    <glyph glyph-name="uni0E9A" unicode="&#xe9a;" horiz-adv-x="690" 
d="M51 196l17 104c7 42 36 77 65 103c-45 8 -75 38 -75 84c0 6 1 13 2 19c10 65 67 105 132 105c59 0 99 -33 99 -87c0 -6 0 -12 -1 -18c-12 -75 -58 -118 -72 -206l-17 -104c-1 -8 -2 -16 -2 -23c0 -61 45 -84 110 -84c72 0 130 29 142 107l64 404h150l-64 -404
c-19 -122 -144 -217 -309 -217c-151 0 -243 80 -243 187c0 10 0 20 2 30zM206 506c0 2 1 5 1 7c0 15 -10 26 -27 26c-20 0 -33 -14 -36 -33c0 -2 -1 -5 -1 -7c0 -15 10 -26 27 -26c20 0 33 14 36 33z" />
    <glyph glyph-name="uni0E9B" unicode="&#xe9b;" horiz-adv-x="695" 
d="M51 196l17 104c7 42 36 77 65 103c-45 8 -75 38 -75 84c0 6 1 13 2 19c10 65 67 105 132 105c59 0 99 -33 99 -87c0 -6 0 -12 -1 -18c-12 -75 -58 -118 -72 -206l-17 -104c-1 -8 -2 -16 -2 -23c0 -61 45 -84 110 -84c72 0 130 29 142 107l97 614h150l-97 -614
c-19 -122 -144 -217 -309 -217c-151 0 -243 80 -243 187c0 10 0 20 2 30zM206 506c0 2 1 5 1 7c0 15 -10 26 -27 26c-20 0 -33 -14 -36 -33c0 -2 -1 -5 -1 -7c0 -15 10 -26 27 -26c20 0 33 14 36 33z" />
    <glyph glyph-name="uni0E9C" unicode="&#xe9c;" horiz-adv-x="790" 
d="M281 506c0 2 1 5 1 7c0 15 -10 26 -27 26c-20 0 -33 -14 -36 -33c0 -2 -1 -5 -1 -7c0 -15 10 -26 27 -26c20 0 33 14 36 33zM646 536c0 2 1 5 1 7c0 15 -10 26 -27 26c-20 0 -33 -14 -36 -33c0 -2 -1 -5 -1 -7c0 -15 10 -26 27 -26c20 0 33 14 36 33zM707 420l-46 -286
c-13 -79 -78 -155 -199 -155c-68 0 -111 31 -135 67c-36 -36 -87 -67 -155 -67c-107 0 -153 59 -153 128c0 9 1 18 2 27l50 317c14 88 89 160 196 160c59 0 99 -33 99 -87c0 -6 0 -12 -1 -18c-10 -65 -66 -105 -131 -105c-13 0 -26 2 -37 5c4 -9 8 -18 8 -33
c0 -4 0 -8 -1 -13l-36 -226c-1 -3 -1 -5 -1 -8c0 -28 28 -37 47 -37c32 0 58 20 64 55l29 186h130l-29 -186c-1 -4 -1 -8 -1 -12c0 -28 19 -43 47 -43c21 0 54 10 60 45l41 256c3 17 10 32 20 43c-46 8 -77 38 -77 84c0 6 1 13 2 19c10 65 67 105 132 105
c58 0 100 -32 100 -86v-2c9 20 16 45 23 77l83 -10c-24 -90 -69 -139 -126 -169c-1 -9 -3 -19 -5 -31z" />
    <glyph glyph-name="uni0E9D" unicode="&#xe9d;" horiz-adv-x="765" 
d="M281 506c0 2 1 5 1 7c0 15 -10 26 -27 26c-20 0 -33 -14 -36 -33c0 -2 -1 -5 -1 -7c0 -15 10 -26 27 -26c20 0 33 14 36 33zM768 810l-107 -676c-13 -79 -78 -155 -199 -155c-68 0 -111 31 -135 67c-36 -36 -87 -67 -155 -67c-107 0 -153 59 -153 128c0 9 1 18 2 27
l50 317c14 88 89 160 196 160c59 0 99 -33 99 -87c0 -6 0 -12 -1 -18c-10 -65 -66 -105 -131 -105c-13 0 -26 2 -37 5c4 -9 8 -18 8 -33c0 -4 0 -8 -1 -13l-36 -226c-1 -3 -1 -5 -1 -8c0 -28 28 -37 47 -37c32 0 58 20 64 55l29 186h130l-29 -186c-1 -4 -1 -8 -1 -12
c0 -28 19 -43 47 -43c21 0 54 10 60 45l107 676h147z" />
    <glyph glyph-name="uni0E9E" unicode="&#xe9e;" horiz-adv-x="760" 
d="M206 506c0 2 1 5 1 7c0 15 -10 26 -27 26c-20 0 -33 -14 -36 -33c0 -2 -1 -5 -1 -7c0 -15 10 -26 27 -26c20 0 33 14 36 33zM588 600h147l-74 -466c-13 -79 -78 -155 -194 -155c-65 0 -106 32 -130 67c-36 -35 -85 -67 -150 -67c-103 0 -148 59 -148 128c0 9 1 18 2 27
l27 166c7 42 36 77 65 103c-45 8 -75 38 -75 84c0 6 1 13 2 19c10 65 67 105 132 105c59 0 99 -33 99 -87c0 -6 0 -12 -1 -18c-12 -75 -61 -118 -75 -206l-27 -166c-1 -3 -1 -6 -1 -9c0 -28 25 -36 42 -36c27 0 53 20 59 55l29 186h130l-29 -186c-1 -4 -1 -8 -1 -12
c0 -28 18 -43 42 -43c19 0 49 10 55 45z" />
    <glyph glyph-name="uni0E9F" unicode="&#xe9f;" horiz-adv-x="765" 
d="M206 506c0 2 1 5 1 7c0 15 -10 26 -27 26c-20 0 -33 -14 -36 -33c0 -2 -1 -5 -1 -7c0 -15 10 -26 27 -26c20 0 33 14 36 33zM621 810h147l-107 -676c-13 -79 -78 -155 -194 -155c-65 0 -106 32 -130 67c-36 -35 -85 -67 -150 -67c-103 0 -148 59 -148 128c0 9 1 18 2 27
l27 166c7 42 36 77 65 103c-45 8 -75 38 -75 84c0 6 1 13 2 19c10 65 67 105 132 105c59 0 99 -33 99 -87c0 -6 0 -12 -1 -18c-12 -75 -61 -118 -75 -206l-27 -166c-1 -3 -1 -6 -1 -9c0 -28 25 -36 42 -36c27 0 53 20 59 55l29 186h130l-29 -186c-1 -4 -1 -8 -1 -12
c0 -28 18 -43 42 -43c19 0 49 10 55 45z" />
    <glyph glyph-name="uni0EA1" unicode="&#xea1;" horiz-adv-x="670" 
d="M141 94c0 2 1 5 1 7c0 15 -10 26 -27 26c-20 0 -33 -14 -36 -33c0 -2 -1 -5 -1 -7c0 -15 10 -26 27 -26c20 0 33 14 36 33zM218 69c-19 -50 -69 -80 -125 -80c-59 0 -99 33 -99 87c0 6 0 12 1 18c9 54 49 91 100 102c-5 9 -8 20 -8 32c0 4 0 8 1 12l57 360h148l-62 -390
c-2 -15 -3 -28 -3 -39c41 -34 77 -77 127 -77c32 0 63 21 76 100l64 406h150l-64 -406c-16 -104 -87 -210 -209 -210c-73 0 -119 43 -154 85z" />
    <glyph glyph-name="uni0EA2" unicode="&#xea2;" horiz-adv-x="675" 
d="M18 174c10 61 56 99 113 119c-42 26 -72 72 -72 130c0 9 1 19 2 28c14 88 89 160 196 160c59 0 99 -33 99 -87c0 -6 0 -12 -1 -18c-10 -65 -66 -105 -131 -105c-20 0 -38 4 -53 11c8 -50 53 -72 153 -72l-14 -89c-93 0 -139 -29 -146 -71c-1 -5 -1 -11 -1 -16
c0 -51 46 -75 121 -75c82 0 137 29 149 107l97 614h148l-97 -614c-19 -122 -138 -217 -314 -217c-163 0 -251 82 -251 172c0 8 1 15 2 23zM271 506c0 2 1 5 1 7c0 15 -10 26 -27 26c-20 0 -33 -14 -36 -33c0 -2 -1 -5 -1 -7c0 -15 10 -26 27 -26c20 0 33 14 36 33z" />
    <glyph glyph-name="uni0EA3" unicode="&#xea3;" horiz-adv-x="610" 
d="M155 150c0 2 1 5 1 7c0 15 -10 26 -27 26c-20 0 -33 -14 -36 -33c0 -2 -1 -5 -1 -7c0 -15 10 -26 27 -26c20 0 33 14 36 33zM9 150c10 65 66 105 131 105c59 0 100 -33 100 -87c0 -6 0 -12 -1 -18c-4 -28 -18 -52 -37 -70c15 -1 34 -1 56 -1c59 0 118 23 128 86
c0 3 1 5 1 8c0 37 -44 53 -69 65c-35 17 -104 49 -141 66c-25 11 -121 50 -121 138c0 6 1 13 2 20c14 86 125 159 285 159c159 0 239 -92 246 -151l-142 -18c-3 22 -31 64 -120 64c-92 0 -120 -28 -123 -49c0 -2 -1 -5 -1 -7c0 -25 26 -38 62 -55c37 -17 104 -47 143 -66
c47 -23 125 -59 125 -148c0 -8 -1 -17 -2 -26c-17 -108 -135 -186 -289 -186c-141 0 -235 65 -235 152c0 6 1 12 2 19z" />
    <glyph glyph-name="uni0EA5" unicode="&#xea5;" horiz-adv-x="655" 
d="M12 110l7 40c11 70 62 165 196 165c112 0 177 -73 211 -150c-1 11 -1 21 -1 32c0 15 1 30 3 43l25 157c1 9 2 17 2 25c0 65 -48 89 -114 89c-69 0 -120 -36 -142 -109l-149 10c30 103 137 209 308 209c151 0 243 -80 243 -191c0 -11 -1 -22 -3 -33l-51 -322
c-6 -38 -47 -80 -113 -80c-41 0 -64 5 -64 5c-3 78 -39 220 -170 220c-23 0 -36 -8 -44 -21h6c59 0 99 -33 99 -87c0 -6 0 -12 -1 -18c-10 -65 -67 -105 -132 -105c-68 0 -117 43 -117 103c0 6 0 12 1 18zM176 94c0 2 1 5 1 7c0 15 -10 26 -27 26c-20 0 -33 -14 -36 -33
c0 -2 -1 -5 -1 -7c0 -15 10 -26 27 -26c20 0 33 14 36 33z" />
    <glyph glyph-name="uni0EA7" unicode="&#xea7;" horiz-adv-x="600" 
d="M27 424c28 97 129 197 291 197c143 0 230 -77 230 -181c0 -10 -1 -20 -3 -31l-36 -225c-18 -116 -130 -205 -282 -205c-138 0 -225 66 -225 151c0 7 1 13 2 20c10 65 66 105 131 105c59 0 100 -33 100 -87c0 -6 0 -12 -1 -18c-4 -25 -14 -46 -30 -63c11 -2 22 -3 39 -3
c58 0 105 28 116 100l36 225c1 9 2 17 2 25c0 57 -39 77 -96 77c-60 0 -105 -30 -125 -97zM150 150c0 2 1 5 1 7c0 15 -10 26 -27 26c-20 0 -33 -14 -36 -33c0 -2 -1 -5 -1 -7c0 -15 10 -26 27 -26c20 0 33 14 36 33z" />
    </font>
</defs>
</svg>
