<?xml version="1.0" encoding="iso-8859-1"?>
<!-- Generator: Adobe Illustrator 19.0.0, SVG Export Plug-In . SVG Version: 6.00 Build 0)  -->
<svg version="1.1" id="Layer_1" xmlns="http://www.w3.org/2000/svg" xmlns:xlink="http://www.w3.org/1999/xlink" x="0px" y="0px"
	 viewBox="0 0 485 485" style="enable-background:new 0 0 485 485;" xml:space="preserve">
<g>
	<g>
		<path style="fill:#006082;" d="M432.5,452.5c0,0,0,11,0,25h-55v-93.2C432.3,414.3,432.5,452.5,432.5,452.5z"/>
		<path style="fill:#F4661E;" d="M377.5,384.3v93.2h-40v-45v-65C353.3,372.5,366.5,378.2,377.5,384.3z"/>
		<path style="fill:#A18369;" d="M352.5,167.5c16.6,0,30,6.2,30,20c0,12.8-15.8,27.7-31.4,29.7c0.9-6.3,1.4-12.9,1.4-19.7V167.5z"/>
		<path style="fill:#A18369;" d="M351.1,217.2c-2.6,18.7-9,35.4-18.6,50.3l-0.5,0.1c-5-26.5-49.5-40.1-49.5-40.1h-40h-40
			c0,0-44.5,13.6-49.5,40.1l-0.5-0.1c-9.6-14.9-16-31.6-18.6-50.3c-0.9-6.3-1.4-12.9-1.4-19.7v-30v-35c0,0,35,0.3,35-25h150
			c0,24.7,35,25,35,25v35v30C352.5,204.3,352,210.9,351.1,217.2z"/>
		<path style="fill:#AFB6BB;" d="M352.5,52.5v80c0,0-35-0.3-35-25h-150c0,25.3-35,25-35,25v-80c0,0,20.3-45,110-45
			S352.5,52.5,352.5,52.5z"/>
		<rect x="147.5" y="432.5" style="fill:#F4661E;" width="190" height="45"/>
		<path style="fill:#006082;" d="M337.5,367.5v65h-190v-65c0,0,34.1-17.8,45-30l0.2-0.1c15.2,16.2,32.9,33.2,49.8,50.1
			c16.9-16.9,34.6-33.9,49.8-50.1l0.2,0.1C303.4,349.7,337.5,367.5,337.5,367.5z"/>
		<path style="fill:#AFB6BB;" d="M332,267.6c0.3,1.6,0.5,3.2,0.5,4.9c0,17.8-17.2,40.5-40.2,64.9c-15.2,16.2-32.9,33.2-49.8,50.1
			c-16.9-16.9-34.6-33.9-49.8-50.1c-23-24.4-40.2-47.1-40.2-64.9c0-1.7,0.2-3.3,0.5-4.9c5-26.5,49.5-40.1,49.5-40.1h40h40
			C282.5,227.5,327,241.1,332,267.6z"/>
		<path style="fill:#F4661E;" d="M147.5,432.5v45h-40v-93c11-6.1,24.2-11.9,40-17V432.5z"/>
		<path style="fill:#A18369;" d="M132.5,197.5c0,6.8,0.5,13.4,1.4,19.7c-15.6-2-31.4-16.9-31.4-29.7c0-13.8,13.4-20,30-20V197.5z"/>
		<path style="fill:#006082;" d="M107.5,384.5v93h-55c0-14,0-25,0-25S53.1,414.7,107.5,384.5z"/>
	</g>
	<path style="fill:#231F20;" d="M381.137,377.741c-11.815-6.552-25.518-12.333-40.736-17.189
		c-8.11-4.272-26.989-14.939-37.489-23.559C328.836,308.628,340,289.122,340,272.5c0-0.874-0.046-1.752-0.125-2.65
		c8.868-14.231,14.845-29.803,17.807-46.365C374.962,218.647,390,202.481,390,187.5c0-15.043-11.308-25.026-30-27.094V50.887
		l-0.663-1.471C358.427,47.398,335.97,0,242.5,0S126.573,47.398,125.663,49.416L125,50.887v109.519
		c-18.692,2.068-30,12.051-30,27.094c0,14.981,15.039,31.148,32.318,35.985c2.967,16.575,8.943,32.14,17.806,46.365
		c-0.079,0.898-0.125,1.776-0.125,2.65c0,16.622,11.163,36.127,37.089,64.492c-10.507,8.627-29.407,19.304-37.508,23.57
		c-15.056,4.897-28.753,10.743-40.722,17.381C46.33,409.88,45.027,450.661,45,452.381V485h395v-32.54
		C439.991,450.721,439.109,409.478,381.137,377.741z M115,388.988c7.643-3.991,16.01-7.659,25-10.964V470h-25V388.988z
		 M222.291,378.017c4.981,4.922,9.978,9.858,14.906,14.786l5.303,5.303l5.303-5.303c4.929-4.928,9.925-9.864,14.906-14.786
		c10.065-9.945,20.41-20.172,29.926-30.084c11.242,9.455,29.162,19.608,37.365,24.064V425H155v-53.003
		c8.203-4.456,26.124-14.609,37.365-24.064C201.886,357.85,212.229,368.075,222.291,378.017z M155,440h175v30H155V440z M345,377.961
		c9.052,3.268,17.418,6.889,25,10.831V470h-25V377.961z M375,187.5c0,6.892-7.268,14.604-15.292,18.943
		c0.182-2.982,0.292-5.968,0.292-8.943v-22.018C373.367,177.356,375,184.268,375,187.5z M242.5,15
		c24.086,0,58.103,3.555,83.379,20.493c11.84,7.934,17.354,15.942,19.121,18.899v69.811c-8.161-1.438-20-5.46-20-16.703V100H160v7.5
		c0,4.12-1.222,7.256-3.845,9.87c-4.031,4.016-10.7,6.012-16.155,6.932V54.357C143.97,47.569,166.976,15,242.5,15z M110,187.5
		c0-3.232,1.633-10.144,15-12.018V197.5c0,2.976,0.11,5.962,0.292,8.943C117.268,202.104,110,194.392,110,187.5z M140,197.5v-58.041
		c1.438-0.186,3.016-0.434,4.675-0.768c9.391-1.89,16.798-5.471,22.016-10.644c3.676-3.644,6.18-8.073,7.416-13.047h136.787
		c4.039,16.044,20.969,22.603,34.106,24.431V197.5c0,6.216-0.445,12.487-1.329,18.667c-1.725,12.415-5.322,24.219-10.708,35.252
		c-5.155-7.381-13.122-14.181-23.867-20.319c-12.336-7.047-23.917-10.624-24.403-10.772L283.62,220H250v-32.5h-15V220h-33.62
		l-1.072,0.328c-0.486,0.149-12.067,3.726-24.403,10.772c-10.745,6.138-18.711,12.938-23.866,20.32
		c-5.387-11.034-8.985-22.845-10.713-35.281C140.445,209.987,140,203.716,140,197.5z M160.37,268.991
		c3.299-17.484,31.424-30.121,43.289-33.991h77.681c11.874,3.874,39.991,16.508,43.288,33.981c0.254,1.354,0.372,2.472,0.372,3.519
		c0,17.277-21.777,42.378-38.17,59.768c-10.661,11.363-22.863,23.419-34.664,35.079c-3.224,3.185-6.453,6.376-9.666,9.567
		c-3.213-3.19-6.442-6.382-9.666-9.567c-11.801-11.659-24.003-23.716-34.664-35.079l-0.012-0.013
		C181.777,314.878,160,289.777,160,272.5C160,271.453,160.118,270.335,160.37,268.991z M60,452.587
		c0.04-1.106,1.516-28.974,40-54.739V470H60V452.587z M425,470h-40v-72.444c38.57,25.502,39.953,53.37,40,55.017V470z"/>
</g>
<g>
</g>
<g>
</g>
<g>
</g>
<g>
</g>
<g>
</g>
<g>
</g>
<g>
</g>
<g>
</g>
<g>
</g>
<g>
</g>
<g>
</g>
<g>
</g>
<g>
</g>
<g>
</g>
<g>
</g>
</svg>
