<?xml version="1.0" encoding="iso-8859-1"?>
<!-- Generator: Adobe Illustrator 19.0.0, SVG Export Plug-In . SVG Version: 6.00 Build 0)  -->
<svg version="1.1" id="Layer_1" xmlns="http://www.w3.org/2000/svg" xmlns:xlink="http://www.w3.org/1999/xlink" x="0px" y="0px"
	 viewBox="0 0 485 485" style="enable-background:new 0 0 485 485;" xml:space="preserve">
<g>
	<g id="XMLID_26_">
		<g>
			<path style="fill:#C9CCC2;" d="M352.5,97.5h-40c-36.7,0-33.3,20-70,20s-33.3-20-70-20h-40c0,0,15.4-90,110-90
				S352.5,97.5,352.5,97.5z"/>
			<path style="fill:#AFB6BB;" d="M307.5,477.5h-130c0-35.9,29.1-65,65-65S307.5,441.6,307.5,477.5z"/>
			<path style="fill:#FFD248;" d="M362.5,376.9v100.6h-55c0-35.9-29.1-65-65-65s-65,29.1-65,65h-55V377c7.5-3.3,15.8-6.5,25-9.5
				c0,0,34.1-17.8,45-30c0,0,20.6,25,50,25s50-25,50-25c10.9,12.2,45,30,45,30C346.7,370.4,355,373.6,362.5,376.9z"/>
			<path style="fill:#FFE1B2;" d="M122.5,377v100.5h-70c0-14,0-25,0-25S53.2,408,122.5,377z"/>
			<path style="fill:#FFE1B2;" d="M432.5,452.5c0,0,0,11,0,25h-70V376.9C432.3,407.7,432.5,452.5,432.5,452.5z"/>
			<path style="fill:#FFD7A3;" d="M192.5,337.5v-31.8c14.6,7.6,31.4,11.8,50,11.8s35.4-4.2,50-11.8v31.8c0,0-20.6,25-50,25
				S192.5,337.5,192.5,337.5z"/>
			<path style="fill:#FFD7A3;" d="M132.5,197.5c0,6.7,0.4,13.3,1.3,19.7c-15.5-2.1-31.3-16.9-31.3-29.7c0-13.8,13.4-20,30-20V197.5z
				"/>
			<path style="fill:#FFD7A3;" d="M352.5,167.5c16.6,0,30,6.2,30,20c0,12.8-15.8,27.6-31.3,29.7c0.9-6.4,1.3-13,1.3-19.7V167.5z"/>
			<path style="fill:#FFE1B2;" d="M351.2,217.2c-5.4,39.1-26.6,71.9-58.7,88.5c-14.6,7.6-31.4,11.8-50,11.8s-35.4-4.2-50-11.8
				c-32.1-16.6-53.3-49.4-58.7-88.5c-0.9-6.4-1.3-13-1.3-19.7v-30v-70h40c36.7,0,33.3,20,70,20s33.3-20,70-20h40v70v30
				C352.5,204.2,352.1,210.8,351.2,217.2z"/>
		</g>
	</g>
	<g>
		<path style="fill:#231F20;" d="M365.521,370.035c-8.129-3.576-16.577-6.766-25.124-9.485
			c-8.935-4.707-30.923-17.168-40.396-26.108v-24.299c30.386-17.373,51.164-48.543,57.804-86.696
			C375.018,218.517,390,202.361,390,187.5c0-15.043-11.308-25.026-30-27.094V96.863l-0.107-0.628
			c-0.169-0.986-4.321-24.42-20.764-48.022C323.806,26.218,294.604,0,242.5,0s-81.306,26.218-96.629,48.213
			c-16.442,23.602-20.595,47.036-20.764,48.022L125,96.863v63.543c-18.692,2.068-30,12.051-30,27.094
			c0,14.861,14.982,31.017,32.196,35.946c6.646,38.168,27.428,69.337,57.804,86.697v24.299
			c-9.484,8.951-31.514,21.431-40.429,26.125c-8.754,2.875-17.194,6.094-25.134,9.587C46.613,402.73,45.032,450.37,45,452.382V485
			h395v-32.534C439.991,450.438,438.934,402.43,365.521,370.035z M200,317.298c13.182,5.108,27.424,7.702,42.5,7.702
			c15.079,0,29.324-2.595,42.5-7.701v17.312C279.87,339.974,263.614,355,242.5,355c-20.977,0-37.346-15.055-42.5-20.404V317.298z
			 M375,187.5c0,6.126-6.627,14.467-15.266,19.07c0.165-2.964,0.266-5.982,0.266-9.07v-22.018
			C373.367,177.356,375,184.268,375,187.5z M158.179,56.787C177.496,29.059,205.866,15,242.5,15
			c36.426,0,64.689,13.908,84.006,41.337c8.913,12.657,13.839,25.477,16.347,33.663H312.5c-20.43,0-30.222,5.881-38.861,11.07
			c-7.978,4.792-14.868,8.93-31.139,8.93s-23.161-4.138-31.139-8.93C202.722,95.881,192.93,90,172.5,90h-30.371
			C144.591,81.939,149.416,69.366,158.179,56.787z M110,187.5c0-3.232,1.633-10.144,15-12.018V197.5c0,3.088,0.101,6.107,0.266,9.07
			C116.627,201.967,110,193.626,110,187.5z M141.227,216.157c-0.813-5.793-1.227-12.07-1.227-18.657V105h32.5
			c16.271,0,23.161,4.138,31.139,8.93c8.64,5.189,18.432,11.07,38.861,11.07s30.222-5.881,38.861-11.07
			c7.978-4.792,14.868-8.93,31.139-8.93H345v92.5c0,6.586-0.413,12.863-1.229,18.674c-5.158,37.347-25.102,67.55-54.733,82.874
			C275.075,306.315,259.418,310,242.5,310s-32.575-3.685-46.555-10.962C166.331,283.724,146.388,253.521,141.227,216.157z
			 M149.825,374.63l0.593-0.193l0.553-0.289c3.112-1.624,27.288-14.39,41.275-26.109C200.892,356.18,219.027,370,242.5,370
			s41.608-13.82,50.254-21.96c13.987,11.719,38.163,24.485,41.275,26.109l0.586,0.306l0.63,0.198
			c6.691,2.109,13.311,4.539,19.755,7.215V470h-40.387c-3.765-36.466-34.668-65-72.113-65s-68.347,28.534-72.113,65H130v-88.035
			C136.324,379.335,142.961,376.869,149.825,374.63z M299.495,470h-113.99c3.688-28.172,27.832-50,56.995-50
			S295.806,441.828,299.495,470z M60,452.634c0.041-0.775,0.717-10.543,8.533-23.386C79.794,410.747,98.498,397.63,115,388.969V470
			H60V452.634z M425,470h-55v-81.196c16.637,8.626,35.449,21.721,46.642,40.288c8.042,13.342,8.356,23.407,8.358,23.408V470z"/>
		<path style="fill:#231F20;" d="M242.5,235h20v-15H250v-32.5h-15v40C235,231.642,238.357,235,242.5,235z"/>
	</g>
</g>
<g>
</g>
<g>
</g>
<g>
</g>
<g>
</g>
<g>
</g>
<g>
</g>
<g>
</g>
<g>
</g>
<g>
</g>
<g>
</g>
<g>
</g>
<g>
</g>
<g>
</g>
<g>
</g>
<g>
</g>
</svg>
