<?xml version="1.0" encoding="iso-8859-1"?>
<!-- Generator: Adobe Illustrator 19.0.0, SVG Export Plug-In . SVG Version: 6.00 Build 0)  -->
<svg version="1.1" id="Layer_1" xmlns="http://www.w3.org/2000/svg" xmlns:xlink="http://www.w3.org/1999/xlink" x="0px" y="0px"
	 viewBox="0 0 485 485" style="enable-background:new 0 0 485 485;" xml:space="preserve">
<g>
	<g>
		<path style="fill:#E7ECED;" d="M432.5,452.5c0,0,0,11,0,25h-60v-95l0.3-0.7C432.3,412.2,432.5,452.5,432.5,452.5z"/>
		<path style="fill:#E7ECED;" d="M112.5,381.9v95.6h-60c0-14,0-25,0-25S53.2,412.4,112.5,381.9z"/>
		<path style="fill:#787E82;" d="M372.8,381.8l-0.3,0.7v95h-130v-35l76.2-85.7c10,6.1,18.8,10.7,18.8,10.7
			C351.1,371.8,362.8,376.7,372.8,381.8z"/>
		<path style="fill:#787E82;" d="M242.5,442.5v35h-130v-95.6c9.9-5.2,21.5-10,35-14.4c0,0,8.8-4.6,18.8-10.7L242.5,442.5z"/>
		<path style="fill:#51565A;" d="M242.5,397.5l50-60c5.3,6,16.4,13.4,26.2,19.3l-76.2,85.7l-76.2-85.7c9.8-5.9,20.9-13.3,26.2-19.3
			L242.5,397.5z"/>
		<path style="fill:#FFD7A3;" d="M292.5,332.5v5l-50,60l-50-60v-5v-26.8c14.6,7.6,31.4,11.8,50,11.8s35.4-4.2,50-11.8V332.5z"/>
		<path style="fill:#FFD7A3;" d="M132.5,197.5c0,6.7,0.4,13.3,1.3,19.7c-15.5-2.1-31.3-16.9-31.3-29.7c0-13.8,13.4-20,30-20V197.5z"
			/>
		<path style="fill:#FFD7A3;" d="M352.5,167.5c16.6,0,30,6.2,30,20c0,12.8-15.8,27.6-31.3,29.7c0.9-6.4,1.3-13,1.3-19.7V167.5z"/>
		<path style="fill:#FFE1B2;" d="M133.8,217.2c-0.9-6.4-1.3-13-1.3-19.7v-30v-15v-30v-5c0,0,0.9-10,35-10s75,20,75,20s40.9-20,75-20
			s35,10,35,10v35v15v30c0,6.7-0.4,13.3-1.3,19.7c-3.8,27.8-15.6,52.4-33.7,70.3l-25-15l-10-30h-40h-40l-10,30l-25,15
			C149.4,269.6,137.6,245,133.8,217.2z"/>
		<path style="fill:#A97C50;" d="M352.5,42.5v75c0,0-0.9-10-35-10s-75,20-75,20s-40.9-20-75-20s-35,10-35,10v-75c0,0,0.3-35,110-35
			S352.5,42.5,352.5,42.5z"/>
		<path style="fill:#A97C50;" d="M292.5,305.7c-14.6,7.6-31.4,11.8-50,11.8s-35.4-4.2-50-11.8c-9.3-4.8-17.6-10.9-25-18.2l25-15
			l10-30h40h40l10,30l25,15C310.1,294.8,301.8,300.9,292.5,305.7z"/>
	</g>
	<path style="fill:#231F20;" d="M376.207,375.119c-10.932-5.575-22.972-10.473-35.796-14.563
		c-2.074-1.102-9.572-5.136-17.842-10.181c-10.291-6.195-18.153-11.749-22.568-15.917v-24.31
		c8.232-4.708,15.878-10.512,22.774-17.315c18.263-18.061,30.315-41.976,35.045-69.391C375.026,218.507,390,202.357,390,187.5
		c0-15.043-11.308-25.026-30-27.094V42.436c-0.008-0.943-0.222-4.374-2.636-8.921c-2.929-5.517-7.877-10.512-14.707-14.847
		C323.138,6.281,289.441,0,242.5,0s-80.638,6.281-100.156,18.667c-6.83,4.334-11.778,9.33-14.707,14.847
		c-2.415,4.547-2.628,7.979-2.637,8.986v117.906c-18.692,2.068-30,12.051-30,27.094c0,14.857,14.975,31.008,32.182,35.942
		c4.736,27.429,16.787,51.336,35.051,69.398c6.894,6.801,14.544,12.607,22.767,17.31v24.309
		c-4.416,4.168-12.283,9.724-22.606,15.939c-8.276,5.049-15.801,9.094-17.833,10.173c-13.411,4.402-25.367,9.342-35.491,14.66
		c-62.571,32.182-64.037,75.318-64.069,77.139L45,485h395v-32.537C439.991,450.631,439.055,407.229,376.207,375.119z
		 M335.239,374.651c10.577,3.344,20.563,7.263,29.761,11.665V470H250v-24.648l70.182-78.931
		C327.828,370.899,335.239,374.651,335.239,374.651z M200,317.298c13.182,5.108,27.424,7.702,42.5,7.702
		c15.08,0,29.325-2.595,42.5-7.701v17.486l-42.5,51l-42.5-51V317.298z M242.5,250h34.594l9.168,27.504l18.637,11.182
		c-4.959,3.994-10.26,7.47-15.862,10.361C275.075,306.315,259.417,310,242.5,310s-32.575-3.685-46.56-10.964
		c-5.587-2.884-10.884-6.358-15.84-10.349l18.637-11.182L207.906,250H242.5z M375,187.5c0,6.126-6.627,14.467-15.266,19.07
		c0.165-2.964,0.266-31.088,0.266-31.088C373.367,177.356,375,184.268,375,187.5z M345,42.504v0.246
		C344.994,42.626,345,42.549,345,42.504z M242.5,15c51.951,0,77.354,8.042,89.515,14.789c11.257,6.245,12.818,12.222,12.985,13.063
		v60.444c-6.252-1.96-15.064-3.295-27.5-3.295c-30.107,0-64.333,14.381-75,19.222c-10.667-4.841-44.893-19.222-75-19.222
		c-12.436,0-21.248,1.335-27.5,3.295V42.565C140.002,42.289,146.244,15,242.5,15z M110,187.5c0-3.232,1.633-10.144,15-12.018
		c0,0,0.101,28.126,0.266,31.088C116.627,201.966,110,193.626,110,187.5z M141.227,216.156C140.413,210.366,140,204.09,140,197.5
		v-77.905c1.781-1.289,8.229-4.595,27.5-4.595c31.92,0,71.313,19.046,71.705,19.238l3.294,1.608l3.292-1.607
		C246.187,134.046,285.58,115,317.5,115c19.263,0,25.716,3.304,27.5,4.594V197.5c0,6.59-0.413,12.866-1.23,18.685
		c-3.309,24.203-12.815,45.432-27.567,61.79l-17.464-10.479L287.906,235H250v-32.5h-15V235h-37.906l-10.832,32.496l-17.464,10.478
		C154.044,261.612,144.539,240.383,141.227,216.156z M191.825,348.405l50.675,60.81l50.675-60.81
		c3.702,3.061,8.381,6.42,14.011,10.057l-64.686,72.75l-64.686-72.751C183.446,354.822,188.125,351.464,191.825,348.405z
		 M149.824,374.631c0,0,7.359-3.737,14.994-8.21L235,445.352V470H120v-83.491C128.705,382.241,138.71,378.253,149.824,374.631z
		 M60,452.63c0.093-2.065,2.189-31.708,45-57.922V470H60V452.63z M425,470h-45v-75.613c43.443,26.324,44.951,56.438,45,58.184V470z"
		/>
</g>
<g>
</g>
<g>
</g>
<g>
</g>
<g>
</g>
<g>
</g>
<g>
</g>
<g>
</g>
<g>
</g>
<g>
</g>
<g>
</g>
<g>
</g>
<g>
</g>
<g>
</g>
<g>
</g>
<g>
</g>
</svg>
