<?xml version="1.0" encoding="iso-8859-1"?>
<!-- Generator: Adobe Illustrator 19.0.0, SVG Export Plug-In . SVG Version: 6.00 Build 0)  -->
<svg version="1.1" id="Layer_1" xmlns="http://www.w3.org/2000/svg" xmlns:xlink="http://www.w3.org/1999/xlink" x="0px" y="0px"
	 viewBox="0 0 485 485" style="enable-background:new 0 0 485 485;" xml:space="preserve">
<g>
	<g>
		<path style="fill:#9B8579;" d="M237.5,107.6c-24.7,34.7-103.2,34.9-105,34.9v-55c0,0,13.8-80,110-80s110,80,110,80v55
			C286.9,142.5,237.5,107.6,237.5,107.6z"/>
		<path style="fill:#F4661E;" d="M432.5,452.5c0,0,0,11,0,25h-380c0-14,0-25,0-25s0.9-54.7,95-85c0,0,7.1-3.7,15.9-8.9
			c1-0.6,2-1.2,3-1.8c11.4,12.1,42.7,40.7,76.1,40.7c34.4,0,65.4-29.4,76.1-40.7c10.1,6.2,18.9,10.7,18.9,10.7
			C432.2,397.5,432.5,452.5,432.5,452.5z"/>
		<path style="fill:#FFD7A3;" d="M352.5,167.5c16.6,0,30,6.2,30,20c0,12.8-15.8,27.6-31.3,29.7c0.8-6.4,1.3-13,1.3-19.7V167.5z"/>
		<path style="fill:#FFE1B2;" d="M351.2,217.2v0.1c-5.4,39.1-26.6,71.8-58.7,88.4c-0.2,0.2-0.5,0.3-0.7,0.4
			c-14.4,7.3-31,11.4-49.3,11.4s-34.9-4.1-49.3-11.4c-0.2-0.1-0.5-0.2-0.7-0.4c-32.1-16.6-53.3-49.3-58.7-88.4v-0.1
			c-0.8-6.4-1.3-13-1.3-19.7v-30v-25c1.8,0,80.3-0.2,105-34.9c0,0,49.4,34.9,115,34.9v25v30C352.5,204.2,352,210.8,351.2,217.2z"/>
		<path style="fill:#AFB6BB;" d="M318.6,356.8c-10.7,11.3-41.7,40.7-76.1,40.7c-33.4,0-64.7-28.6-76.1-40.7
			c9.7-5.9,20.8-13.3,26.1-19.3c0,0,20.6,25,50,25s50-25,50-25C297.7,343.4,318.4,356.7,318.6,356.8z"/>
		<path style="fill:#FFE1B2;" d="M292.5,305.7v31.8c0,0-20.6,25-50,25s-50-25-50-25v-31.8c0.2,0.2,0.5,0.3,0.7,0.4
			c14.4,7.3,31,11.4,49.3,11.4s34.9-4.1,49.3-11.4C292,306,292.3,305.9,292.5,305.7z"/>
		<path style="fill:#FFD7A3;" d="M132.5,197.5c0,6.7,0.5,13.3,1.3,19.7c-15.5-2.1-31.3-16.9-31.3-29.7c0-13.8,13.4-20,30-20V197.5z"
			/>
	</g>
	<g>
		<path style="fill:#231F20;" d="M340.381,360.546c-2.02-1.053-9.508-5.013-17.857-10.138c0,0-0.516-0.316-0.658-0.397
			c-10.341-6.363-17.668-11.578-21.866-15.553v-24.31c30.418-17.386,51.203-48.562,57.822-86.708
			C375.028,218.505,390,202.356,390,187.5c0-15.043-11.308-25.026-30-27.094V86.858l-0.109-0.633
			c-0.154-0.892-3.956-22.083-20.384-43.315C324.36,23.335,295.235,0,242.5,0s-81.86,23.335-97.007,42.91
			c-16.428,21.232-20.23,42.423-20.384,43.315L125,86.858v73.548c-18.692,2.068-30,12.051-30,27.094
			c0,14.856,14.972,31.005,32.178,35.94c6.619,38.146,27.405,69.322,57.822,86.708v24.31c-3.421,3.235-9.962,8.309-22.459,15.91
			l-2.956,1.774c-7.141,4.22-13.204,7.465-15.006,8.419c-97.466,31.627-99.537,89.367-99.577,91.814L45,485h395v-32.541
			C439.986,449.996,438.543,391.882,340.381,360.546z M285,334.611C279.87,339.974,263.613,355,242.5,355
			c-20.977,0-37.346-15.055-42.5-20.404v-17.283c13.219,5.099,27.465,7.687,42.5,7.687c15.043,0,29.295-2.59,42.5-7.685V334.611z
			 M242.5,370c23.457,0,41.583-13.801,50.235-21.943c3.589,3.006,8.204,6.339,13.946,10.09C276.783,386.734,252.136,390,242.5,390
			c-5.4,0-32.508-1.625-64.183-31.841c5.674-3.702,10.321-7.062,13.947-10.103C200.917,356.198,219.043,370,242.5,370z M375,187.5
			c0,6.131-6.637,14.479-15.286,19.081c0.185-3.084,0.286-31.099,0.286-31.099C373.367,177.356,375,184.268,375,187.5z
			 M157.755,51.578C176.807,27.307,205.319,15,242.5,15s65.693,12.307,84.745,36.578c12.998,16.56,17.073,33.455,17.755,36.657v46.6
			c-58.594-2.478-102.721-33.043-103.179-33.365l-6.098-4.308l-4.334,6.089c-18.15,25.499-71.577,30.521-91.39,31.508V88.238
			C140.692,84.992,144.772,68.118,157.755,51.578z M110,187.5c0-3.232,1.633-10.144,15-12.018c0,0,0.101,28.014,0.286,31.099
			C116.637,201.979,110,193.631,110,187.5z M141.3,216.777l-0.058-0.508c-0.835-6.687-1.242-12.827-1.242-18.77v-47.708
			c8.277-0.375,22.456-1.424,37.822-4.363c28.361-5.425,48.906-14.798,61.214-27.908c14.575,8.912,54.716,30.378,105.964,32.336
			V197.5c0,5.943-0.406,12.083-1.242,18.77l-0.058,0.463v0.044c-5.258,37.045-25.155,67.01-54.646,82.261l-1.03,0.533l-0.066,0.066
			C274.213,306.514,258.922,310,242.5,310c-16.408,0-31.687-3.48-45.458-10.363l-1.097-0.599
			C166.455,283.787,146.558,253.823,141.3,216.777z M425,470H60v-17.409c0.056-1.515,2.773-49.93,89.799-77.952
			c0,0,7.467-3.778,15.374-8.385C178.336,379.19,208.832,405,242.5,405c33.164,0,62.8-24.423,77.312-38.729
			c7.882,4.627,15.423,8.378,15.423,8.378c25.457,8.064,59.721,23.256,78.396,49.835c10.718,15.254,11.344,27.458,11.369,28.096V470
			z"/>
		<path style="fill:#231F20;" d="M228.803,252.803c4.699-4.699,7.803-7.803,14.697-7.803s9.998,3.104,14.697,7.803
			C263.631,258.237,270.394,265,283.5,265h5v-15h-5c-6.894,0-9.998-3.104-14.697-7.803c-4.284-4.284-9.409-9.381-17.803-11.351
			V197.5h-15v33.345c-8.394,1.971-13.519,7.067-17.803,11.351c-4.699,4.699-7.803,7.803-14.697,7.803h-5v15h5
			C216.606,265,223.369,258.237,228.803,252.803z"/>
	</g>
</g>
<g>
</g>
<g>
</g>
<g>
</g>
<g>
</g>
<g>
</g>
<g>
</g>
<g>
</g>
<g>
</g>
<g>
</g>
<g>
</g>
<g>
</g>
<g>
</g>
<g>
</g>
<g>
</g>
<g>
</g>
</svg>
