<?xml version="1.0" encoding="iso-8859-1"?>
<!-- Generator: Adobe Illustrator 19.0.0, SVG Export Plug-In . SVG Version: 6.00 Build 0)  -->
<svg version="1.1" id="Layer_1" xmlns="http://www.w3.org/2000/svg" xmlns:xlink="http://www.w3.org/1999/xlink" x="0px" y="0px"
	 viewBox="0 0 485 485" style="enable-background:new 0 0 485 485;" xml:space="preserve">
<g>
	<g>
		<path style="fill:#546A79;" d="M405.1,403.7l-47.6,23.8v50h-230v-50l-47.3-23.6c14.1-12.9,35.3-26.1,67.3-36.4
			c0,0,34.1-17.8,45-30c0,0,20.6,25,50,25s50-25,50-25c10.9,12.2,45,30,45,30C369.8,377.7,391.1,390.8,405.1,403.7z"/>
		<path style="fill:#FFD248;" d="M138.2,237.7c6.2,20.6,17.1,38.6,31.8,52.3c-6.1,6-13.9,12.5-22.5,12.5c-19.3,0-35-15.7-35-35
			C112.5,249.7,121.6,239.2,138.2,237.7z"/>
		<path style="fill:#FFD248;" d="M346.8,237.7c16.6,1.5,25.7,12,25.7,29.8c0,19.3-15.7,35-35,35c-8.6,0-16.4-6.5-22.5-12.5
			C329.7,276.3,340.6,258.3,346.8,237.7z"/>
		<path style="fill:#FFD248;" d="M352.5,92.5v50c0,0-42.2,12.2-65,0s-35.6-37.5-70-15c-39.1,25.6-85,15-85,15v-50c0,0,15-85,110-85
			S352.5,92.5,352.5,92.5z"/>
		<path style="fill:#FFE1B2;" d="M127.5,427.5v50h-75c0-14,0-25,0-25s0.4-23.8,27.7-48.6L127.5,427.5z"/>
		<path style="fill:#FFE1B2;" d="M432.5,452.5c0,0,0,11,0,25h-75v-50l47.6-23.8C432.4,428.6,432.5,452.5,432.5,452.5z"/>
		<path style="fill:#FFD7A3;" d="M192.5,337.5v-31.8c14.6,7.6,31.4,11.8,50,11.8s35.4-4.2,50-11.8v31.8c0,0-20.6,25-50,25
			S192.5,337.5,192.5,337.5z"/>
		<path style="fill:#FFD7A3;" d="M132.5,197.5c0,6.7,0.4,13.3,1.3,19.7c-15.5-2.1-31.3-16.9-31.3-29.7c0-13.8,13.4-20,30-20V197.5z"
			/>
		<path style="fill:#FFD7A3;" d="M352.5,167.5c16.6,0,30,6.2,30,20c0,12.8-15.8,27.6-31.3,29.7c0.9-6.4,1.3-13,1.3-19.7V167.5z"/>
		<path style="fill:#FFE1B2;" d="M351.2,217.2c-1,7.1-2.5,13.9-4.4,20.5c-6.2,20.6-17.1,38.6-31.8,52.3
			c-6.7,6.2-14.3,11.5-22.5,15.7c-14.6,7.6-31.4,11.8-50,11.8s-35.4-4.2-50-11.8c-8.2-4.2-15.8-9.5-22.5-15.7
			c-14.7-13.7-25.6-31.7-31.8-52.3c-1.9-6.6-3.4-13.4-4.4-20.5c-0.9-6.4-1.3-13-1.3-19.7v-30v-25c0,0,45.9,10.6,85-15
			c34.4-22.5,47.2,2.8,70,15s65,0,65,0v25v30C352.5,204.2,352.1,210.8,351.2,217.2z"/>
	</g>
	<g>
		<path style="fill:#231F20;" d="M410.183,398.185c-16.965-15.632-40.441-28.292-69.785-37.634
			c-8.934-4.706-30.924-17.168-40.397-26.109v-24.281c5.235-2.968,10.201-6.348,14.848-10.119
			c6.214,5.276,13.839,9.958,22.652,9.958c23.435,0,42.5-19.065,42.5-42.5c0-18.279-8.796-31.083-23.948-35.64
			c0.658-2.806,1.254-5.605,1.748-8.413c17.215-4.928,32.2-21.085,32.2-35.947c0-15.044-11.309-25.027-30.003-27.095l-0.001-17.905
			H360V91.843l-0.114-0.646c-0.166-0.938-4.244-23.234-20.718-45.64C323.886,24.774,294.71,0,242.5,0s-81.386,24.774-96.667,45.557
			c-16.474,22.405-20.553,44.701-20.718,45.64L125,91.843v41.227v9.43v17.906c-18.692,2.068-30,12.051-30,27.094
			c0,14.862,14.985,31.019,32.2,35.947c0.494,2.802,1.09,5.601,1.75,8.413C113.796,236.416,105,249.221,105,267.5
			c0,23.435,19.065,42.5,42.5,42.5c8.812,0,16.437-4.682,22.651-9.957c4.649,3.774,9.62,7.158,14.849,10.121v24.279
			c-9.48,8.947-31.493,21.419-40.416,26.119c-28.914,9.379-52.277,22.098-69.427,37.788c-29.364,26.675-30.138,52.921-30.156,54.025
			L45,485h395v-32.531C439.995,451.358,439.548,424.969,410.183,398.185z M200,317.298c13.182,5.108,27.424,7.702,42.5,7.702
			c15.084,0,29.333-2.597,42.5-7.7v17.311C279.87,339.974,263.613,355,242.5,355c-20.977,0-37.346-15.055-42.5-20.404V317.298z
			 M145.407,235.625c-1.895-6.581-3.262-12.95-4.181-19.469C140.413,210.366,140,204.09,140,197.5v-46.204
			c16.124,1.897,50.611,2.774,81.605-17.52c21.6-14.128,31.319-6.784,46.03,4.336c5.041,3.811,10.254,7.75,16.326,11
			c18.335,9.811,46.399,5.942,61.039,2.899V197.5c0,6.59-0.413,12.866-1.227,18.654c-0.918,6.521-2.286,12.89-4.155,19.384
			c-5.819,19.336-16.101,36.271-29.712,48.957c-6.204,5.741-13.21,10.629-20.869,14.552C275.075,306.315,259.417,310,242.5,310
			s-32.575-3.685-46.581-10.975c-7.615-3.9-14.621-8.789-20.806-14.512C161.482,271.81,151.201,254.875,145.407,235.625z M365,267.5
			c0,15.164-12.336,27.5-27.5,27.5c-3.845,0-7.962-2.407-11.614-5.302c11.253-12.118,20.094-26.908,25.977-43.438
			C360.678,248.923,365,255.911,365,267.5z M375,187.5c0,6.126-6.627,14.467-15.266,19.07c0.165-2.964,0.265-31.088,0.265-31.088
			C373.367,177.356,375,184.268,375,187.5z M158.27,53.967C177.516,28.11,205.854,15,242.5,15s64.984,13.11,84.23,38.967
			C339.953,71.73,344.278,89.853,345,93.241v43.408c-4.201,0.959-10.479,2.209-17.525,3c-15.903,1.783-28.504,0.483-36.437-3.762
			c-5.039-2.696-9.776-6.277-14.358-9.74c-15.399-11.639-32.852-24.831-63.289-4.922c-28.028,18.351-60.415,16.596-73.392,14.917
			V93.243C140.73,89.818,145.06,71.714,158.27,53.967z M110,187.5c0-3.232,1.633-10.144,15-12.018c0,0,0.101,28.125,0.266,31.088
			C116.627,201.967,110,193.626,110,187.5z M120,267.5c0-11.587,4.321-18.575,13.134-21.24
			c5.865,16.496,14.709,31.296,25.982,43.436c-3.652,2.895-7.77,5.303-11.615,5.303C132.336,295,120,282.664,120,267.5z
			 M149.798,374.639c0,0,28.461-14.881,42.448-26.6C200.892,356.18,219.027,370,242.5,370s41.608-13.82,50.254-21.96
			c13.987,11.719,42.488,26.612,42.488,26.612c22.792,7.198,41.641,16.415,56.245,27.47L350,422.865V470H135v-47.14l-41.165-20.539
			C108.537,391.175,127.297,381.882,149.798,374.639z M60,452.628c0.065-1.422,1.292-19.407,21.566-39.665L120,432.14V470H60
			V452.628z M425,470h-60v-37.865l38.725-19.363C424.319,433.453,424.983,451.78,425,452.5V470z"/>
		<path style="fill:#231F20;" d="M242.5,235h20v-15H250v-32.5h-15v40C235,231.642,238.358,235,242.5,235z"/>
	</g>
</g>
<g>
</g>
<g>
</g>
<g>
</g>
<g>
</g>
<g>
</g>
<g>
</g>
<g>
</g>
<g>
</g>
<g>
</g>
<g>
</g>
<g>
</g>
<g>
</g>
<g>
</g>
<g>
</g>
<g>
</g>
</svg>
