<?xml version="1.0" encoding="iso-8859-1"?>
<!-- Generator: Adobe Illustrator 19.0.0, SVG Export Plug-In . SVG Version: 6.00 Build 0)  -->
<svg version="1.1" id="Layer_1" xmlns="http://www.w3.org/2000/svg" xmlns:xlink="http://www.w3.org/1999/xlink" x="0px" y="0px"
	 viewBox="0 0 485 485" style="enable-background:new 0 0 485 485;" xml:space="preserve">
<g>
	<g>
		<path style="fill:#58595B;" d="M321.4,358.5l-58.9,54h-40l-58.7-54.1c10.3-6.2,22.9-14.4,28.7-20.9c0,0,20.6,25,50,25s50-25,50-25
			C298.4,344.1,311,352.3,321.4,358.5z"/>
		<rect x="222.5" y="412.5" style="fill:#E7ECED;" width="40" height="65"/>
		<path style="fill:#A18369;" d="M102.5,387.4v90.1h-50c0-14,0-25,0-25S53.1,417,102.5,387.4z"/>
		<path style="fill:#A18369;" d="M432.5,452.5c0,0,0,11,0,25h-50v-90.4C432.3,416.7,432.5,452.5,432.5,452.5z"/>
		<path style="fill:#414042;" d="M382.5,387.1v90.4h-120v-65l58.9-54c8.9,5.3,16.1,9,16.1,9C355.8,373.3,370.6,380,382.5,387.1z"/>
		<path style="fill:#414042;" d="M222.5,412.5v65h-120v-90.1c11.9-7.1,26.7-14,45-19.9c0,0,7.3-3.8,16.3-9.1L222.5,412.5z"/>
		<path style="fill:#FFD248;" d="M377.5,67.5l-4.9,107.8c-5.3-5.2-14.2-7.7-24.4-7.8l-5.7-40c0,0-50.9,20-100,20s-100-20-100-20
			l-5.7,40c-10.2,0.1-19.1,2.6-24.4,7.8l-4.9-107.8c0,0,6.2-60,135-60S377.5,67.5,377.5,67.5z"/>
		<path style="fill:#A18369;" d="M192.5,305.7c14.6,7.6,31.4,11.8,50,11.8s35.4-4.2,50-11.8v31.8c0,0-20.6,25-50,25s-50-25-50-25
			V305.7z"/>
		<path style="fill:#A18369;" d="M136.8,167.5l-4.3,30c0,6.7,0.4,13.3,1.3,19.7c-14.8-2.1-26.3-16.9-26.3-29.7
			c0-5.1,1.8-9.1,4.9-12.2C117.7,170.1,126.6,167.6,136.8,167.5z"/>
		<path style="fill:#A18369;" d="M372.6,175.3c3.1,3.1,4.9,7.1,4.9,12.2c0,12.8-11.5,27.6-26.3,29.7c0.9-6.4,1.3-13,1.3-19.7
			l-4.3-30C358.4,167.6,367.3,170.1,372.6,175.3z"/>
		<path style="fill:#A18369;" d="M348.2,167.5l4.3,30c0,6.7-0.4,13.3-1.3,19.7c-5.4,39.1-26.6,71.9-58.7,88.5
			c-14.6,7.6-31.4,11.8-50,11.8s-35.4-4.2-50-11.8c-32.1-16.6-53.3-49.4-58.7-88.5c-0.9-6.4-1.3-13-1.3-19.7l4.3-30l5.7-40
			c0,0,50.9,20,100,20s100-20,100-20L348.2,167.5z"/>
	</g>
	<g>
		<path style="fill:#231F20;" d="M386.343,380.659c-13.006-7.759-28.464-14.524-45.954-20.11c-1.809-0.947-7.94-4.199-15.147-8.491
			c-11.606-6.919-20.406-13.071-25.241-17.62v-24.296c30.423-17.394,51.215-48.619,57.829-86.836
			C372.832,218.382,385,202.927,385,187.5c0-5.548-1.631-10.594-4.774-14.812l4.792-105.405l-0.058-0.555
			C384.679,64.004,376.523,0,242.5,0C108.476,0,100.321,64.004,100.04,66.729l-0.057,0.555l4.791,105.398
			c-3.133,4.197-4.773,9.255-4.773,14.819c0,15.427,12.168,30.882,27.171,35.807c6.62,38.231,27.416,69.455,57.829,86.836v24.297
			c-3.691,3.469-10.909,9.012-25.006,17.497c-7.334,4.319-13.583,7.657-15.415,8.625c-17.105,5.559-32.552,12.42-45.934,20.404
			c-52.371,31.381-53.617,69.788-53.644,71.407L45,485h395v-32.542C439.991,450.823,439.169,412.058,386.343,380.659z
			 M335.234,374.649c15.009,4.757,28.356,10.395,39.766,16.785V470H270v-54.201l52.392-48.033
			C329.016,371.567,335.234,374.649,335.234,374.649z M242.5,325c15.079,0,29.324-2.595,42.5-7.701v17.312
			C279.87,339.974,263.614,355,242.5,355c-20.977,0-37.346-15.055-42.5-20.404v-17.298C213.182,322.406,227.424,325,242.5,325z
			 M242.5,370c23.473,0,41.607-13.819,50.253-21.96c4.156,3.483,9.595,7.372,16.266,11.636L259.582,405h-34.153l-49.292-45.43
			c6.679-4.286,12.03-8.113,16.112-11.529C200.895,356.182,219.029,370,242.5,370z M230,420h25v50h-25V420z M359.778,205.661
			c0.133-2.675,0.222-5.388,0.222-8.161v-0.535l-3.011-21.081c4.504,0.926,8.094,2.546,10.308,4.719
			c1.844,1.844,2.703,4.036,2.703,6.896C370,193.662,365.932,201.084,359.778,205.661z M132.703,42.262
			C160.375,19.73,207.685,15,242.5,15c34.814,0,82.124,4.73,109.798,27.262c14.485,11.794,17.257,23.334,17.678,25.615
			l-4.311,94.835c-3.289-1.126-6.932-1.907-10.891-2.332l-6.189-43.322l-8.825,3.461C339.263,120.713,289.544,140,242.5,140
			s-96.763-19.287-97.257-19.48l-8.829-3.469l-6.188,43.326c-3.952,0.424-7.596,1.206-10.89,2.337l-4.31-94.813
			C115.482,65.445,118.312,53.979,132.703,42.262z M115,187.5c0-2.861,0.859-5.053,2.652-6.846c2.25-2.208,5.859-3.841,10.359-4.77
			L125,196.965v0.535c0,2.775,0.088,5.487,0.221,8.161C119.068,201.084,115,193.662,115,187.5z M141.227,216.156
			c-0.792-5.634-1.204-11.73-1.226-18.127l8.624-60.348C165.606,143.465,204.263,155,242.5,155s76.895-11.535,93.875-17.319
			l8.624,60.348c-0.021,6.394-0.434,12.49-1.229,18.145c-5.158,37.347-25.102,67.549-54.733,82.874
			C275.075,306.315,259.418,310,242.5,310c-16.917,0-32.575-3.685-46.555-10.962C166.331,283.724,146.388,253.521,141.227,216.156z
			 M149.801,374.638c0,0,6.266-3.147,12.978-6.979L215,415.787V470H110v-78.261C121.717,385.137,135.073,379.387,149.801,374.638z
			 M60,452.64c0.039-0.706,0.583-8.45,6.12-19.089c7.104-13.647,18.309-24.338,28.88-32.148V470H60V452.64z M425,470h-35v-68.973
			c16.118,11.815,24.61,23.758,29.016,32.334c5.571,10.843,5.965,18.714,5.984,19.221V470z"/>
		<path style="fill:#231F20;" d="M242.5,255h20v-15H250v-32.5h-15v40C235,251.642,238.358,255,242.5,255z"/>
	</g>
</g>
<g>
</g>
<g>
</g>
<g>
</g>
<g>
</g>
<g>
</g>
<g>
</g>
<g>
</g>
<g>
</g>
<g>
</g>
<g>
</g>
<g>
</g>
<g>
</g>
<g>
</g>
<g>
</g>
<g>
</g>
</svg>
