<?xml version="1.0" encoding="iso-8859-1"?>
<!-- Generator: Adobe Illustrator 19.0.0, SVG Export Plug-In . SVG Version: 6.00 Build 0)  -->
<svg version="1.1" id="Layer_1" xmlns="http://www.w3.org/2000/svg" xmlns:xlink="http://www.w3.org/1999/xlink" x="0px" y="0px"
	 viewBox="0 0 488.106 488.106" style="enable-background:new 0 0 488.106 488.106;" xml:space="preserve">
<g>
	<g>
		<path style="fill:#FFD248;" d="M354.054,95.606v50c-65.6,0-120-20-120-20c-51.2,31.2-100,20-100,20v-50c0,0,0.9-60,85-60l25-25
			l25,25C353.154,35.606,354.054,95.606,354.054,95.606z"/>
		<path style="fill:#FFD7A3;" d="M294.054,308.806v31.8c0,0-20.6,25-50,25s-50-25-50-25v-31.8c14.6,7.6,31.4,11.8,50,11.8
			S279.454,316.406,294.054,308.806z"/>
		<path style="fill:#FFD7A3;" d="M134.054,200.606c0,6.7,0.4,13.3,1.3,19.7c-15.5-2.1-31.3-16.9-31.3-29.7c0-13.8,13.4-20,30-20
			V200.606z"/>
		<path style="fill:#FFD7A3;" d="M354.054,170.606c16.6,0,30,6.2,30,20c0,12.8-15.8,27.6-31.3,29.7c0.9-6.4,1.3-13,1.3-19.7V170.606
			z"/>
		<path style="fill:#FFE1B2;" d="M352.754,220.306c-5.4,39.1-26.6,71.9-58.7,88.5c-14.6,7.6-31.4,11.8-50,11.8s-35.4-4.2-50-11.8
			c-32.1-16.6-53.3-49.4-58.7-88.5c-0.9-6.4-1.3-13-1.3-19.7v-30v-25c0,0,48.8,11.2,100-20c0,0,54.4,20,120,20v25v30
			C354.054,207.306,353.654,213.906,352.754,220.306z"/>
		<path style="fill:#AFB6BB;" d="M434.054,455.606c0,0,0,11,0,25h-95c0-55.1,48-74.6,61.5-79
			C433.954,428.206,434.054,455.606,434.054,455.606z"/>
		<path style="fill:#E7ECED;" d="M400.554,401.606c-13.5,4.4-61.5,23.9-61.5,79h-190c0-54.7-47.3-74.3-61.2-78.9
			c13.9-11.1,33.5-22.2,61.2-31.1c0,0,5.8-3,13.4-7.4c11.9,8.9,52.1,37.4,81.6,37.4s69.7-28.5,81.6-37.4c7.6,4.4,13.4,7.4,13.4,7.4
			C366.954,379.406,386.654,390.406,400.554,401.606z"/>
		<path style="fill:#546A79;" d="M294.054,340.606c6.4,7.2,20.8,16.3,31.6,22.6c-11.9,8.9-52.1,37.4-81.6,37.4s-69.7-28.5-81.6-37.4
			c10.8-6.3,25.2-15.4,31.6-22.6c0,0,20.6,25,50,25S294.054,340.606,294.054,340.606z"/>
		<path style="fill:#AFB6BB;" d="M149.054,480.606h-95c0-14,0-25,0-25s0.4-27.2,33.8-53.9
			C101.754,406.306,149.054,425.906,149.054,480.606z"/>
	</g>
	<g>
		<path style="fill:#231F20;" d="M405.26,395.767c-16.296-13.132-37.596-23.934-63.314-32.111
			c-1.603-0.843-6.512-3.453-12.513-6.928c-12.958-7.558-22.688-14.259-27.879-19.169v-24.31
			c30.386-17.373,51.164-48.543,57.804-86.697c17.213-4.929,32.196-21.085,32.196-35.946c0-15.044-11.308-25.026-30-27.094V95.606
			l-0.001-0.112c-0.01-0.708-0.397-17.538-12.363-34.253c-18.819-26.29-51.635-32.64-77.001-33.106L244.054,0l-28.135,28.135
			c-25.366,0.467-58.182,6.816-77.001,33.106c-11.965,16.715-12.353,33.545-12.363,34.253l-0.001,68.018
			c-18.692,2.068-30,12.051-30,27.094c0,14.861,14.983,31.017,32.196,35.946c6.647,38.168,27.428,69.336,57.804,86.697v24.31
			c-5.191,4.909-14.919,11.609-27.858,19.157c-6.041,3.497-10.966,6.115-12.552,6.948c-25.305,8.195-46.49,19.021-62.974,32.184
			c-35.753,28.581-36.598,58.394-36.616,59.648l-0.001,32.61h395v-32.527C441.549,454.313,441.029,424.253,405.26,395.767z
			 M244.054,328.106c15.079,0,29.324-2.595,42.5-7.701v17.312c-5.13,5.363-21.387,20.389-42.5,20.389
			c-20.977,0-37.346-15.055-42.5-20.404v-17.298C214.737,325.512,228.978,328.106,244.054,328.106z M244.054,373.106
			c23.461,0,41.59-13.807,50.242-21.949c4.466,3.753,10.41,7.964,17.776,12.598c-38.964,27.098-61.67,29.351-68.018,29.351
			c-21.88,0-51.531-18.043-67.986-29.371c7.349-4.625,13.283-8.829,17.745-12.578C202.464,359.3,220.593,373.106,244.054,373.106z
			 M376.554,190.606c0,6.126-6.627,14.466-15.266,19.07c0.165-2.963,0.266-31.088,0.266-31.088
			C374.921,180.463,376.554,187.374,376.554,190.606z M219.054,43.106h3.106l21.894-21.894l21.894,21.894h3.106
			c74.938,0,77.425,50.054,77.5,52.581v42.327c-60.057-1.417-109.403-19.26-109.912-19.447l-3.398-1.25l-3.092,1.885
			c-37.845,23.062-74.687,21.632-88.597,19.991V95.704C141.644,92.872,144.332,43.106,219.054,43.106z M111.554,190.606
			c0-3.232,1.633-10.144,15-12.018c0,0,0.101,28.125,0.266,31.088C118.181,205.072,111.554,196.732,111.554,190.606z
			 M142.781,219.263c-0.814-5.79-1.227-12.066-1.227-18.656v-46.27c16.739,1.803,53.996,2.301,93.332-20.5
			c12.539,4.216,57.411,17.99,111.668,19.187v47.583c0,6.59-0.413,12.866-1.229,18.674c-5.158,37.347-25.101,67.549-54.733,82.874
			c-13.962,7.268-29.62,10.952-46.537,10.952s-32.575-3.685-46.555-10.962C167.885,286.829,147.942,256.627,142.781,219.263z
			 M151.349,377.747c0,0,5.13-2.542,10.592-5.613c17.648,12.755,53.682,35.973,82.114,35.973s64.466-23.218,82.114-35.973
			c5.456,3.069,10.63,5.625,10.63,5.625c18.831,5.94,35.019,13.307,48.348,21.973c-7.708,3.668-16.827,9.057-25.421,16.787
			c-16.843,15.151-26.178,34.168-27.867,56.588h-175.59c-3.196-42.419-33.2-63.714-53.036-73.231
			C116.638,391.146,132.755,383.721,151.349,377.747z M61.554,455.688c0.031-0.922,1.105-22.599,27.8-45.48
			c15.21,5.835,48.138,22.999,51.851,62.899H61.554V455.688z M426.554,473.106h-79.653c3.717-40.155,36.872-57.242,52.142-63.016
			c26.697,22.82,27.491,44.653,27.511,45.516L426.554,473.106L426.554,473.106z"/>
		<path style="fill:#231F20;" d="M244.054,248.106h20v-15h-12.5v-32.5h-15v40C236.554,244.749,239.912,248.106,244.054,248.106z"/>
	</g>
</g>
<g>
</g>
<g>
</g>
<g>
</g>
<g>
</g>
<g>
</g>
<g>
</g>
<g>
</g>
<g>
</g>
<g>
</g>
<g>
</g>
<g>
</g>
<g>
</g>
<g>
</g>
<g>
</g>
<g>
</g>
</svg>
