<?xml version="1.0" encoding="iso-8859-1"?>
<!-- Generator: Adobe Illustrator 19.0.0, SVG Export Plug-In . SVG Version: 6.00 Build 0)  -->
<svg version="1.1" id="Layer_1" xmlns="http://www.w3.org/2000/svg" xmlns:xlink="http://www.w3.org/1999/xlink" x="0px" y="0px"
	 viewBox="0 0 485 485" style="enable-background:new 0 0 485 485;" xml:space="preserve">
<g>
	<g>
		<path style="fill:#1A68A6;" d="M437.5,127.5v15h-90v-30h75C430.8,112.5,437.5,119.2,437.5,127.5z"/>
		<path style="fill:#1C75BC;" d="M347.5,112.5v30c0,0-37.1-20-115-20c-60.7,0-105,20-105,20v-60c0,0-3.3-75,110-75s110,70,110,70
			V112.5z"/>
		<path style="fill:#E7ECED;" d="M386.3,392.7c-6.6,1.7-38.8,13.6-38.8,84.8h-220c0-69.8-30.9-82.6-38.4-84.6
			c13.2-9.2,30.6-18,53.4-25.4c0,0,34.1-17.8,45-30c0,0,2.2,35,50,35s50-35,50-35c10.9,12.2,45,30,45,30
			C355.6,374.8,373.1,383.6,386.3,392.7z"/>
		<path style="fill:#A18369;" d="M427.5,452.5c0,0,0,11,0,25h-80c0-71.2,32.2-83.1,38.8-84.8C427.3,421.1,427.5,452.5,427.5,452.5z"
			/>
		<path style="fill:#A18369;" d="M127.5,477.5h-80c0-14,0-25,0-25s0.5-31.3,41.6-59.6C96.6,394.9,127.5,407.7,127.5,477.5z"/>
		<path style="fill:#846954;" d="M287.5,327.5v10c0,0-2.2,35-50,35s-50-35-50-35v-10v-21.8c14.6,7.6,31.4,11.8,50,11.8
			s35.4-4.2,50-11.8V327.5z"/>
		<path style="fill:#846954;" d="M347.5,167.5c16.6,0,30,6.2,30,20c0,12.8-15.8,27.6-31.3,29.7c0.9-6.4,1.3-13,1.3-19.7V167.5z"/>
		<path style="fill:#846954;" d="M127.5,197.5c0,6.7,0.4,13.3,1.3,19.7c-15.5-2.1-31.3-16.9-31.3-29.7c0-13.8,13.4-20,30-20V197.5z"
			/>
		<path style="fill:#A18369;" d="M347.5,167.5v30c0,6.7-0.4,13.3-1.3,19.7c-5.4,39.1-26.6,71.9-58.7,88.5
			c-14.6,7.6-31.4,11.8-50,11.8s-35.4-4.2-50-11.8c-32.1-16.6-53.3-49.4-58.7-88.5c-0.9-6.4-1.3-13-1.3-19.7v-30v-25
			c0,0,44.3-20,105-20c77.9,0,115,20,115,20V167.5z"/>
	</g>
	<g id="XMLID_35_">
		<g>
			<path style="fill:#FFFFFF;" d="M277.5,57.5v30h-40h-40v-30c0,0,3.1-10,40-10S277.5,57.5,277.5,57.5z"/>
		</g>
		<g>
			<path style="fill:#231F20;" d="M445,150v-22.5c0-12.406-10.094-22.5-22.5-22.5H355V77.622c0.076-2.691,0.104-25.479-19.32-45.841
				C315.562,10.692,282.529,0,237.5,0c-43.672,0-76.119,10.766-96.438,31.999C119.808,54.208,119.922,79.863,120,82.622v77.784
				c-18.692,2.068-30,12.051-30,27.094c0,14.861,14.983,31.017,32.196,35.946c6.647,38.168,27.428,69.336,57.804,86.697v24.304
				c-9.486,8.948-31.508,21.423-40.424,26.117c-21.5,7.031-39.923,15.839-54.729,26.158c-43.781,30.146-44.823,64.222-44.846,65.657
				L40,485h395v-32.548c-0.01-1.441-0.728-35.646-44.443-65.927c-15.034-10.365-33.59-19.103-55.158-25.975
				c-8.932-4.704-30.921-17.163-40.398-26.104v-24.304c30.386-17.373,51.164-48.544,57.804-86.697
				C370.018,218.516,385,202.361,385,187.5c0-15.044-11.308-25.026-30-27.094V150H445z M355,120h67.5c4.136,0,7.5,3.364,7.5,7.5v7.5
				h-75V120z M152.122,42.139C169.528,24.131,198.253,15,237.5,15c40.556,0,69.85,9.039,87.067,26.865
				c15.904,16.467,15.466,34.564,15.441,35.281l-0.007,53.988C323.433,124.958,288.101,115,232.5,115
				c-44.774,0-80.564,10.467-97.5,16.512V82.5l-0.006-0.293C134.964,81.325,134.463,60.407,152.122,42.139z M105,187.5
				c0-3.232,1.633-10.144,15-12.018c0,0,0.101,28.125,0.266,31.088C111.627,201.965,105,193.626,105,187.5z M280,337.141
				c-0.128,1.098-1.071,7.615-6.006,13.924C266.76,360.312,254.481,365,237.5,365s-29.259-4.688-36.494-13.936
				c-4.936-6.309-5.879-12.826-6.006-13.924v-19.844c13.182,5.109,27.424,7.703,42.5,7.703c15.079,0,29.324-2.595,42.5-7.701
				V337.141z M55,452.588c0.037-1.052,1.372-26.553,35.274-51.32c8.566,3.803,27.857,17.991,29.596,68.732H55V452.588z M420,452.579
				V470h-64.852c0.88-24.541,6.123-43.993,15.323-56.523c5.433-7.4,11.066-10.847,14.63-12.415
				C418.663,425.72,419.954,451.066,420,452.579z M330.24,374.651c15.34,4.848,28.991,10.654,40.745,17.317
				c-4.033,2.883-8.425,6.937-12.605,12.63c-11.216,15.275-17.332,37.264-18.245,65.401h-205.27
				c-0.896-27.639-6.81-49.349-17.642-64.572c-4.28-6.015-8.811-10.257-12.959-13.247c11.653-6.694,25.237-12.576,40.551-17.547
				c0,0,24.572-12.835,38.752-23.664c1.212,2.695,2.821,5.596,4.996,8.513C195.542,368.843,209.698,380,237.5,380
				s41.958-11.157,48.938-20.517c2.175-2.917,3.784-5.818,4.996-8.513C305.613,361.799,330.24,374.651,330.24,374.651z M370,187.5
				c0,6.126-6.627,14.466-15.266,19.07c0.165-2.964,0.266-31.088,0.266-31.088C368.367,177.356,370,184.268,370,187.5z M340,197.5
				c0,6.587-0.413,12.863-1.229,18.674c-5.158,37.347-25.102,67.549-54.733,82.874C270.075,306.315,254.418,310,237.5,310
				c-16.917,0-32.575-3.685-46.555-10.962c-29.615-15.315-49.558-45.518-54.719-82.882C135.413,210.366,135,204.09,135,197.5
				v-49.965c12.417-4.8,49.856-17.535,97.5-17.535c60.767,0,96.221,12.537,107.5,17.304V197.5z"/>
			<path style="fill:#231F20;" d="M245,187.5h-15v40c0,4.143,3.358,7.5,7.5,7.5h20v-15H245V187.5z"/>
			<path style="fill:#231F20;" d="M285,56.364l-0.336-1.085c-0.529-1.708-2.58-6.061-10.17-9.582
				C266.349,41.917,253.901,40,237.5,40s-28.848,1.917-36.995,5.697c-7.589,3.521-9.64,7.874-10.169,9.582L190,56.364V95h95V56.364z
				 M270,80h-65V60.299C207.472,58.677,215.503,55,237.5,55s30.028,3.677,32.5,5.299V80z"/>
		</g>
	</g>
</g>
<g>
</g>
<g>
</g>
<g>
</g>
<g>
</g>
<g>
</g>
<g>
</g>
<g>
</g>
<g>
</g>
<g>
</g>
<g>
</g>
<g>
</g>
<g>
</g>
<g>
</g>
<g>
</g>
<g>
</g>
</svg>
