<?xml version="1.0" encoding="iso-8859-1"?>
<!-- Generator: Adobe Illustrator 19.0.0, SVG Export Plug-In . SVG Version: 6.00 Build 0)  -->
<svg version="1.1" id="Layer_1" xmlns="http://www.w3.org/2000/svg" xmlns:xlink="http://www.w3.org/1999/xlink" x="0px" y="0px"
	 viewBox="0 0 485 485" style="enable-background:new 0 0 485 485;" xml:space="preserve">
<g>
	<g>
		<path style="fill:#7B8185;" d="M192.5,337.5c0,0,20.6,25,50,25v50l-95-45C147.5,367.5,181.6,349.7,192.5,337.5z"/>
		<path style="fill:#7B8185;" d="M242.5,362.5c29.4,0,50-25,50-25c10.9,12.2,45,30,45,30l-95,45V362.5z"/>
		<path style="fill:#E7ECED;" d="M337.5,367.5l-95,45l-95-45c-94.1,30.3-95,85-95,85s0,11,0,25h380c0-14,0-25,0-25
			S432.2,397.5,337.5,367.5z"/>
		<path style="fill:#414042;" d="M352.5,97.5h-220c0,0,5.9-90,110-90S352.5,97.5,352.5,97.5z"/>
		<path style="fill:#6D6E71;" d="M382.5,97.5v15c0,11-9,20-20,20h-10h-220h-10c-5.5,0-10.5-2.2-14.1-5.9c-3.7-3.6-5.9-8.6-5.9-14.1
			v-15h30h220H382.5z"/>
		<path style="fill:#FFD7A3;" d="M192.5,305.7c14.6,7.6,31.4,11.8,50,11.8s35.4-4.2,50-11.8v31.8c0,0-20.6,25-50,25s-50-25-50-25
			V305.7z"/>
		<path style="fill:#FFD7A3;" d="M132.5,197.5c0,6.7,0.4,13.3,1.3,19.7c-15.5-2.1-31.3-16.9-31.3-29.7c0-13.8,13.4-20,30-20V197.5z"
			/>
		<path style="fill:#FFD7A3;" d="M352.5,167.5c16.6,0,30,6.2,30,20c0,12.8-15.8,27.6-31.3,29.7c0.9-6.4,1.3-13,1.3-19.7V167.5z"/>
		<path style="fill:#FFE1B2;" d="M351.2,217.2c-5.4,39.1-26.6,71.9-58.7,88.5c-14.6,7.6-31.4,11.8-50,11.8s-35.4-4.2-50-11.8
			c-32.1-16.6-53.3-49.4-58.7-88.5c-0.9-6.4-1.3-13-1.3-19.7v-30v-25v-10h220v10v25v30C352.5,204.2,352.1,210.8,351.2,217.2z"/>
	</g>
	<g>
		<path style="fill:#231F20;" d="M340.4,360.553c-8.933-4.706-30.926-17.169-40.4-26.111v-24.3
			c30.386-17.373,51.165-48.544,57.804-86.697C375.018,218.516,390,202.361,390,187.5c0-15.044-11.308-25.026-30-27.094V140h2.5
			c15.163,0,27.5-12.337,27.5-27.5V90h-30.946c-1.573-8.954-5.691-25.222-16.212-41.561C317.064,8.404,274.048,0,242.5,0
			s-74.564,8.404-100.343,48.439C131.637,64.778,127.518,81.046,125.946,90H95v22.5c0,7.398,2.875,14.285,8.097,19.403
			c5.118,5.222,12.005,8.097,19.403,8.097h2.5v20.406c-18.692,2.068-30,12.051-30,27.094c0,14.861,14.982,31.017,32.196,35.946
			c6.646,38.167,27.428,69.336,57.804,86.697v24.299c-9.48,8.947-31.494,21.42-40.417,26.119
			c-97.482,31.626-99.542,89.368-99.582,91.816L45,485h395v-32.541C439.986,449.996,438.545,391.89,340.4,360.553z M242.5,325
			c15.079,0,29.324-2.595,42.5-7.701v17.312C279.87,339.974,263.614,355,242.5,355c-20.977,0-37.346-15.055-42.5-20.404v-17.298
			C213.182,322.406,227.424,325,242.5,325z M235,369.521v31.127l-71.065-33.662c8.842-5.115,20.261-12.202,28.311-18.947
			C199.946,355.289,215.178,367.036,235,369.521z M250,369.521c19.822-2.485,35.054-14.232,42.754-21.482
			c8.05,6.745,19.469,13.832,28.312,18.947L250,400.648V369.521z M375,187.5c0,6.126-6.627,14.466-15.266,19.07
			c0.165-2.964,0.266-31.088,0.266-31.088C373.367,177.356,375,184.268,375,187.5z M155.099,56.051
			C172.897,28.812,202.304,15,242.5,15s69.603,13.812,87.401,41.051c8.396,12.85,12.191,25.891,13.863,33.949H141.235
			C142.908,81.942,146.702,68.901,155.099,56.051z M113.776,121.37l-0.146-0.146c-2.341-2.277-3.63-5.375-3.63-8.724V105h265v7.5
			c0,6.893-5.607,12.5-12.5,12.5h-240C119.151,125,116.054,123.711,113.776,121.37z M110,187.5c0-3.232,1.633-10.144,15-12.018
			c0,0,0.101,28.125,0.266,31.088C116.627,201.966,110,193.626,110,187.5z M141.227,216.156C140.413,210.363,140,204.087,140,197.5
			V140h205v57.5c0,6.587-0.413,12.863-1.229,18.674c-5.158,37.347-25.102,67.549-54.733,82.874
			C275.075,306.315,259.418,310,242.5,310s-32.575-3.685-46.555-10.962C166.331,283.723,146.388,253.521,141.227,216.156z M425,470
			H60v-17.362c0.048-0.88,0.904-12.937,11.582-28.015c18.116-25.583,50.444-40.704,75.414-49.062L235,417.247v7.105V447.5h15
			v-30.254l88.023-41.695c25.12,8.274,57.606,23.312,75.609,48.934c10.718,15.254,11.344,27.458,11.368,28.096L425,470L425,470z"/>
		<path style="fill:#231F20;" d="M242.5,245h20v-15H250v-32.5h-15v40C235,241.643,238.357,245,242.5,245z"/>
	</g>
</g>
<g>
</g>
<g>
</g>
<g>
</g>
<g>
</g>
<g>
</g>
<g>
</g>
<g>
</g>
<g>
</g>
<g>
</g>
<g>
</g>
<g>
</g>
<g>
</g>
<g>
</g>
<g>
</g>
<g>
</g>
</svg>
