<?xml version="1.0" encoding="iso-8859-1"?>
<!-- Generator: Adobe Illustrator 19.0.0, SVG Export Plug-In . SVG Version: 6.00 Build 0)  -->
<svg version="1.1" id="Layer_1" xmlns="http://www.w3.org/2000/svg" xmlns:xlink="http://www.w3.org/1999/xlink" x="0px" y="0px"
	 viewBox="0 0 485 485" style="enable-background:new 0 0 485 485;" xml:space="preserve">
<g>
	<g>
		<path style="fill:#BE373F;" d="M77.5,406.4c14-13.7,35.9-27.9,70-38.9c2.1,0.4,90,45,180,45c0,0,56.2,34.2,45,65h-320
			c0-14,0-25,0-25S52.9,430.3,77.5,406.4z"/>
		<path style="fill:#A18369;" d="M367.5,327.5c0,0,39.1,32.5,40,78.4c-14-13.5-35.8-27.6-70-38.4c0,0-34.1-17.8-45-30v-5v-26.8
			c37.4-19.3,60-60.5,60-108.2v-55c-65.6,0-115-35-115-35c0,30-105,35-105,35v55c0,47.7,22.6,88.9,60,108.2v26.8v5
			c-10.9,12.2-45,30-45,30c-34.1,11-56,25.2-70,38.9c0.6-46.1,40-78.9,40-78.9s-138.3-320,125-320S367.5,327.5,367.5,327.5z"/>
		<path style="fill:#FFD7A3;" d="M407.5,405.9c24.9,24.1,25,46.6,25,46.6s0,11,0,25h-60c11.2-30.8-45-65-45-65
			c-90,0-177.9-44.6-180-45c0,0,34.1-17.8,45-30v-5v-26.8c14.6,7.6,31.4,11.8,50,11.8s35.4-4.2,50-11.8v26.8v5
			c10.9,12.2,45,30,45,30C371.7,378.3,393.5,392.4,407.5,405.9z"/>
		<path style="fill:#FFE1B2;" d="M292.5,305.7c-14.6,7.6-31.4,11.8-50,11.8s-35.4-4.2-50-11.8c-37.4-19.3-60-60.5-60-108.2v-55
			c0,0,105-5,105-35c0,0,49.4,35,115,35v55C352.5,245.2,329.9,286.4,292.5,305.7z"/>
	</g>
	<g>
		<path style="fill:#231F20;" d="M414.875,402.663c-2.068-38.5-28.086-67.207-38.435-77.164
			c5.129-12.777,18.59-48.581,27.258-92.402c6.292-31.807,8.695-61.18,7.143-87.301c-1.972-33.185-10.368-61.265-24.956-83.46
			C358.702,20.973,310.459,0,242.5,0S126.298,20.973,99.114,62.336c-14.587,22.195-22.983,50.275-24.956,83.46
			c-1.552,26.121,0.851,55.494,7.143,87.301c8.668,43.824,22.131,79.631,27.26,92.405c-10.386,10.006-36.575,38.938-38.453,77.685
			c-24.381,24.951-25.089,48.174-25.107,49.178L45,485h395v-32.533C439.995,451.448,439.592,427.872,414.875,402.663z
			 M122.298,333.264l4.31-3.589l-2.223-5.148c-0.18-0.417-18.103-42.265-28.425-94.625c-9.373-47.544-14.257-113.783,15.702-159.348
			C135.901,33.691,179.921,15,242.5,15s106.599,18.691,130.837,55.554c29.959,45.564,25.075,111.804,15.702,159.348
			c-10.322,52.36-28.245,94.208-28.425,94.625l-2.225,5.154l4.316,3.587c0.31,0.257,26.387,22.292,34.75,54.644
			c-15.457-11.023-34.555-20.197-57.058-27.361c-8.932-4.705-30.921-17.163-40.398-26.104v-24.299
			c17.821-10.188,32.66-25.406,43.088-44.27C354.152,245.868,360,222.224,360,197.5V135h-7.5
			c-62.285,0-110.194-33.288-110.664-33.62L230,92.994V107.5c0,6.053-12.156,14.843-46.272,21.357
			c-25.436,4.857-51.327,6.139-51.585,6.151L125,135.351V197.5c0,24.724,5.848,48.368,16.912,68.379
			c10.429,18.864,25.267,34.082,43.088,44.27v24.298c-9.484,8.946-31.499,21.417-40.418,26.114
			c-22.613,7.35-41.735,16.661-57.124,27.764C95.717,355.885,121.994,333.519,122.298,333.264z M289.037,299.048
			C275.075,306.315,259.417,310,242.5,310s-32.575-3.685-46.537-10.952l-0.023-0.013c-16.986-8.766-31.129-22.74-40.901-40.414
			C145.2,240.826,140,219.691,140,197.5v-47.963c9.708-0.716,27.939-2.402,46.403-5.92c29.784-5.673,48.007-13.803,55.14-24.678
			c16.324,9.64,54.906,29.057,103.457,30.916V197.5c0,22.191-5.2,43.326-15.039,61.121
			C320.19,276.295,306.047,290.27,289.037,299.048z M198.093,342.497l1.907-2.135v-23.065c13.182,5.108,27.424,7.702,42.5,7.702
			c15.08,0,29.326-2.595,42.5-7.701v23.063l1.907,2.135c10.807,12.097,39.822,27.795,46.197,31.165l-10.911,31.28
			c-46.945-0.95-102.388-14.389-157.817-38.211C175.658,360.184,190.904,350.543,198.093,342.497z M60,452.635
			c0.068-1.455,1.359-20.097,22.746-40.874c15.184-14.858,36.856-27.037,64.411-36.239c0.199,0.09,0.4,0.181,0.601,0.272
			c62.02,28.12,124.973,43.778,177.577,44.197c13.187,8.451,41.971,31.182,41.09,50.009H60V452.635z M425,470h-43.551
			c0.42-16.075-11.132-31.254-21.999-41.906c-8.488-8.32-17.482-14.928-22.938-18.658l10.698-30.669
			c23.025,8.55,41.526,19.459,55.073,32.523c22.022,21.314,22.699,40.503,22.716,41.21L425,470L425,470z"/>
		<path style="fill:#231F20;" d="M250,197.5h-15v40c0,4.143,3.358,7.5,7.5,7.5h20v-15H250V197.5z"/>
	</g>
</g>
<g>
</g>
<g>
</g>
<g>
</g>
<g>
</g>
<g>
</g>
<g>
</g>
<g>
</g>
<g>
</g>
<g>
</g>
<g>
</g>
<g>
</g>
<g>
</g>
<g>
</g>
<g>
</g>
<g>
</g>
</svg>
