<?xml version="1.0" encoding="iso-8859-1"?>
<!-- Generator: Adobe Illustrator 19.0.0, SVG Export Plug-In . SVG Version: 6.00 Build 0)  -->
<svg version="1.1" id="Layer_1" xmlns="http://www.w3.org/2000/svg" xmlns:xlink="http://www.w3.org/1999/xlink" x="0px" y="0px"
	 viewBox="0 0 485 485" style="enable-background:new 0 0 485 485;" xml:space="preserve">
<g>
	<g>
		<path style="fill:#F1F2F2;" d="M222.5,397.5v80h-170c0-14,0-25,0-25s0.9-54.7,95-85C147.5,367.5,175.9,397.5,222.5,397.5z"/>
		<path style="fill:#F1F2F2;" d="M432.5,452.5c0,0,0,11,0,25h-170v-80c46.6,0,75-30,75-30C432.2,397.5,432.5,452.5,432.5,452.5z"/>
		<path style="fill:#AFB6BB;" d="M292.5,337.5c10.9,12.2,45,30,45,30s-28.4,30-75,30v80h-40v-80c-46.6,0-75-30-75-30
			s34.1-17.8,45-30c0,0,20.6,25,50,25S292.5,337.5,292.5,337.5z"/>
		<path style="fill:#FDC147;" d="M132.5,197.5c0,17.7,3.1,34.6,8.9,49.7c-7.6-2.4-53.9-19.7-53.9-79.7c0-64.6,43.9-65,45-65v40
			V197.5z"/>
		<path style="fill:#FDC147;" d="M397.5,167.5c0,60-46.3,77.3-53.9,79.7c5.8-15.1,8.9-32,8.9-49.7v-55v-40
			C353.6,102.5,397.5,102.9,397.5,167.5z"/>
		<path style="fill:#FFD248;" d="M352.5,102.5v40l-145-60l-75,60v-40v-20c0,0,10-75,110-75s110,75,110,75V102.5z"/>
		<path style="fill:#FFD7A3;" d="M192.5,305.7c14.6,7.6,31.4,11.8,50,11.8s35.4-4.2,50-11.8v31.8c0,0-20.6,25-50,25s-50-25-50-25
			V305.7z"/>
		<path style="fill:#FFE1B2;" d="M343.6,247.2c-9.9,25.6-27.6,46.4-51.1,58.5c-14.6,7.6-31.4,11.8-50,11.8s-35.4-4.2-50-11.8
			c-23.5-12.1-41.2-32.9-51.1-58.5c-5.8-15.1-8.9-32-8.9-49.7v-55l75-60l145,60v55C352.5,215.2,349.4,232.1,343.6,247.2z"/>
	</g>
	<g>
		<path style="fill:#231F20;" d="M340.4,360.553c-8.932-4.706-30.926-17.169-40.4-26.111v-24.295
			c21.679-12.389,38.966-32.393,49.257-56.991c6.311-2.421,18.18-7.995,29.359-18.817C395.877,217.63,405,194.518,405,167.5
			c0-20.195-4.362-47.479-25.144-62.767c-7.268-5.347-14.596-7.758-19.856-8.845V82.002l-0.065-0.493
			c-0.113-0.85-2.961-21.048-19.078-41.194C314.2,6.994,272.656,0,242.5,0s-71.7,6.994-98.356,40.314
			c-16.117,20.146-18.965,40.345-19.078,41.194L125,82.002v13.887c-5.261,1.087-12.589,3.498-19.856,8.845
			C84.362,120.021,80,147.305,80,167.5c0,27.018,9.123,50.13,26.384,66.839c11.179,10.822,23.048,16.396,29.359,18.816
			c10.289,24.602,27.587,44.614,49.258,56.992v24.295c-9.48,8.947-31.494,21.42-40.417,26.119
			c-97.482,31.626-99.542,89.368-99.582,91.816L45,485h395v-32.541C439.986,449.996,438.545,391.89,340.4,360.553z M255,390v80h-25
			v-80h-7.5c-29.277,0-51.042-12.936-61.88-21.119c9.119-5.154,22.526-13.219,31.626-20.842C200.892,356.18,219.027,370,242.5,370
			s41.608-13.82,50.254-21.961c9.111,7.633,22.541,15.708,31.661,20.862C313.638,377.08,291.953,390,262.5,390H255z M242.5,325
			c15.081,0,29.328-2.596,42.5-7.7v17.312C279.87,339.974,263.614,355,242.5,355c-20.977,0-37.346-15.055-42.5-20.404v-17.298
			C213.182,322.406,227.424,325,242.5,325z M371.217,117.002C383.505,126.206,390,143.668,390,167.5
			c0,23.186-7.34,42.047-21.816,56.062c-4.165,4.031-8.458,7.181-12.373,9.606C358.59,221.773,360,209.838,360,197.5v-55v-31.14
			C363.285,112.349,367.278,114.051,371.217,117.002z M156.32,49.11C174.769,26.477,203.764,15,242.5,15s67.731,11.477,86.18,34.11
			c12.623,15.488,15.848,31.297,16.32,33.982v48.187L206.274,73.876L140,126.896V83.098C140.485,80.346,143.722,64.568,156.32,49.11
			z M95,167.5c0-41.167,19.031-52.86,30-56.181V142.5v55c0,12.336,1.41,24.271,4.19,35.668c-3.915-2.425-8.209-5.575-12.374-9.607
			C102.34,209.547,95,190.686,95,167.5z M148.401,244.511C142.827,229.998,140,214.182,140,197.5v-51.396l68.726-54.98L345,147.514
			V197.5c0,16.682-2.827,32.498-8.396,46.995c-9.359,24.203-26.242,43.571-47.567,54.553C275.075,306.315,259.418,310,242.5,310
			s-32.575-3.685-46.566-10.968C174.638,288.066,157.755,268.698,148.401,244.511z M60,452.638
			c0.048-0.88,0.904-12.937,11.582-28.015c17.782-25.112,49.258-40.143,74.027-48.593c8.779,7.79,33.294,26.396,69.391,28.729V470
			H60V452.638z M425,470H270v-65.241c36.121-2.334,60.646-20.964,69.409-28.745c24.918,8.367,56.549,23.318,74.223,48.471
			c10.718,15.254,11.344,27.458,11.368,28.096V470z"/>
		<path style="fill:#231F20;" d="M242.5,235h20v-15H250v-32.5h-15v40C235,231.643,238.357,235,242.5,235z"/>
		<rect x="307.5" y="435" style="fill:#231F20;" width="75" height="15"/>
		<rect x="102.5" y="435" style="fill:#231F20;" width="75" height="15"/>
	</g>
</g>
<g>
</g>
<g>
</g>
<g>
</g>
<g>
</g>
<g>
</g>
<g>
</g>
<g>
</g>
<g>
</g>
<g>
</g>
<g>
</g>
<g>
</g>
<g>
</g>
<g>
</g>
<g>
</g>
<g>
</g>
</svg>
