<?xml version="1.0" encoding="iso-8859-1"?>
<!-- Generator: Adobe Illustrator 19.0.0, SVG Export Plug-In . SVG Version: 6.00 Build 0)  -->
<svg version="1.1" id="Layer_1" xmlns="http://www.w3.org/2000/svg" xmlns:xlink="http://www.w3.org/1999/xlink" x="0px" y="0px"
	 viewBox="0 0 485 485" style="enable-background:new 0 0 485 485;" xml:space="preserve">
<g>
	<g>
		<path style="fill:#AFB6BB;" d="M167.5,112.5c0,19.1-35,30-35,30v-75c0,0,11.2-60,110-60s110,60,110,60v75c0,0-35-5.3-35-30H167.5z
			"/>
		<path style="fill:#58595B;" d="M163.2,358.8c4.1,6.8,25.9,38.7,79.3,38.7c50.6,0,73.4-29.8,79.2-38.7h0.1
			c8.7,5.1,15.7,8.7,15.7,8.7c13.5,4.3,25.1,9.1,35,14.2v95.8h-260v-95.6c9.9-5.2,21.5-10,35-14.4
			C147.5,367.5,154.5,363.9,163.2,358.8z"/>
		<path style="fill:#A18369;" d="M112.5,381.9v95.6h-60c0-14,0-25,0-25S53.2,412.4,112.5,381.9z"/>
		<path style="fill:#A18369;" d="M432.5,452.5c0,0,0,11,0,25h-60v-95.8C432.3,412.1,432.5,452.5,432.5,452.5z"/>
		<path style="fill:#846954;" d="M321.7,358.8c-5.8,8.9-28.6,38.7-79.2,38.7c-53.4,0-75.2-31.9-79.3-38.7c1.2-0.8,2.4-1.5,3.7-2.3
			c9.6-5.9,20.4-13.1,25.6-19c0-0.3,0-10,0-10v-21.8c0.2,0.2,0.5,0.3,0.7,0.4c14.4,7.3,31,11.4,49.3,11.4s34.9-4.1,49.3-11.4
			c0.2-0.1,0.5-0.2,0.7-0.4v21.8v10C298.5,344.2,311.3,352.4,321.7,358.8z"/>
		<path style="fill:#846954;" d="M132.5,197.5c0,6.7,0.5,13.3,1.3,19.7c-15.5-2.1-31.3-16.9-31.3-29.7c0-13.8,13.4-20,30-20V197.5z"
			/>
		<path style="fill:#846954;" d="M352.5,167.5c16.6,0,30,6.2,30,20c0,12.8-15.8,27.6-31.3,29.7c0.8-6.4,1.3-13,1.3-19.7V167.5z"/>
		<path style="fill:#A18369;" d="M292.5,305.7c-0.2,0.2-0.5,0.3-0.7,0.4c-14.4,7.3-31,11.4-49.3,11.4s-34.9-4.1-49.3-11.4
			c-0.2-0.1-0.5-0.2-0.7-0.4c-32.1-16.6-53.3-49.3-58.7-88.4v-0.1c-0.8-6.4-1.3-13-1.3-19.7v-30v-25c0,0,35-10.9,35-30h150
			c0,24.7,35,30,35,30v25v30c0,6.7-0.5,13.3-1.3,19.7v0.1C345.8,256.4,324.6,289.1,292.5,305.7z"/>
	</g>
	<g>
		<path style="fill:#231F20;" d="M375.935,375.033c-10.507-5.413-22.462-10.283-35.542-14.482c-1.777-0.929-7.749-4.088-14.8-8.221
			l-0.973-0.539c-6.233-3.842-18.192-11.314-24.62-17.352v-24.291c30.418-17.386,51.203-48.561,57.822-86.708
			C375.028,218.505,390,202.356,390,187.5c0-15.043-11.308-25.026-30-27.094v-93.6l-0.127-0.683
			c-0.132-0.707-3.422-17.493-20.046-33.953C312.972,5.581,272.077,0,242.5,0s-70.472,5.581-97.327,32.17
			c-16.624,16.46-19.914,33.247-20.046,33.953L125,66.806v93.599c-18.692,2.068-30,12.051-30,27.094
			c0,14.856,14.972,31.005,32.178,35.94c6.619,38.146,27.405,69.322,57.822,86.708v24.316c-4.222,3.994-11.61,9.244-22.028,15.647
			c0,0-2.809,1.707-3.741,2.322c-7.003,4.099-12.909,7.222-14.646,8.129c-13.419,4.403-25.384,9.347-35.516,14.668
			c-62.57,32.182-64.036,75.318-64.068,77.139L45,485h395v-32.537C439.991,450.626,439.051,407.119,375.935,375.033z M375,187.5
			c0,6.131-6.637,14.48-15.286,19.081c0.185-3.085,0.286-31.099,0.286-31.099C373.367,177.356,375,184.268,375,187.5z
			 M156.437,42.137C174.873,24.384,204.634,15,242.5,15s67.627,9.384,86.063,27.137C340.718,53.84,344.324,65.731,345,68.347v64.517
			c-8.429-2.839-20-8.833-20-20.364V105H160v7.5c0,7.395-10.516,14.464-20,18.957v-63.1
			C140.699,65.656,144.32,53.803,156.437,42.137z M110,187.5c0-3.232,1.633-10.144,15-12.018c0,0,0.102,28.014,0.286,31.099
			C116.637,201.98,110,193.631,110,187.5z M141.3,216.777l-0.058-0.507c-0.836-6.688-1.242-12.827-1.242-18.77v-49.704
			c9.647-3.746,28.743-12.861,33.767-27.796h137.106c2.35,9.719,9.405,17.738,20.75,23.459c4.859,2.45,9.701,4.05,13.377,5.044
			V197.5c0,5.943-0.406,12.083-1.242,18.77l-0.037,0.359c-5.226,37.115-25.136,67.138-54.666,82.409l-1.03,0.533l-0.066,0.066
			C274.213,306.514,258.923,310,242.5,310c-16.408,0-31.687-3.48-45.458-10.363l-1.097-0.599
			C166.455,283.788,146.559,253.823,141.3,216.777z M198.126,342.459l1.874-2.125v-23.021c13.218,5.099,27.464,7.687,42.5,7.687
			c15.043,0,29.295-2.59,42.5-7.685v23.052l1.913,2.136c5.214,5.823,14.456,12.307,23.905,18.335
			C301.436,371.952,280.362,390,242.5,390c-21.048,0-39.164-5.198-53.844-15.449c-6.76-4.721-11.55-9.672-14.732-13.588
			C185.963,353.398,193.703,347.477,198.126,342.459z M160.935,368.746C170.984,381.916,195.345,405,242.5,405
			c45.852,0,70.912-23.349,81.325-36.389c5.869,3.303,32.223,13.412,41.175,17.733V470H120v-83.491
			C128.706,382.241,155.192,371.973,160.935,368.746z M60,452.63c0.092-2.064,2.189-31.708,45-57.922V470H60V452.63z M425,470h-45
			v-75.564c43.445,26.306,44.951,56.392,45,58.136V470z"/>
		<path style="fill:#231F20;" d="M242.5,235h20v-15H250v-32.5h-15v40C235,231.642,238.357,235,242.5,235z"/>
	</g>
</g>
<g>
</g>
<g>
</g>
<g>
</g>
<g>
</g>
<g>
</g>
<g>
</g>
<g>
</g>
<g>
</g>
<g>
</g>
<g>
</g>
<g>
</g>
<g>
</g>
<g>
</g>
<g>
</g>
<g>
</g>
</svg>
