<?xml version="1.0" encoding="iso-8859-1"?>
<!-- Generator: Adobe Illustrator 19.0.0, SVG Export Plug-In . SVG Version: 6.00 Build 0)  -->
<svg version="1.1" id="Layer_1" xmlns="http://www.w3.org/2000/svg" xmlns:xlink="http://www.w3.org/1999/xlink" x="0px" y="0px"
	 viewBox="0 0 485 485" style="enable-background:new 0 0 485 485;" xml:space="preserve">
<g>
	<g>
		<path style="fill:#31C0D8;" d="M432.5,452.5c0,0,0,11,0,25h-135l40-110C432.2,397.5,432.5,452.5,432.5,452.5z"/>
		<path style="fill:#A18369;" d="M292.5,305.7c-0.2,0.2-0.5,0.3-0.7,0.4c-14.4,7.3-31,11.4-49.3,11.4s-34.9-4.1-49.3-11.4
			c-0.2-0.1-0.5-0.2-0.7-0.4c-37.4-19.3-60-60.5-60-108.2v-5v-40c0,0,110-24.7,110-45c0,0,60.3,45,110,45v40v5
			C352.5,245.2,329.9,286.4,292.5,305.7z"/>
		<path style="fill:#AFB6BB;" d="M337.5,367.5l-40,110h-55v-45l75.8-75.8c6.1,3.7,11.8,6.8,15.4,8.7
			C336.1,366.8,337.5,367.5,337.5,367.5z"/>
		<path style="fill:#E7ECED;" d="M318.1,356.5c0.1,0,0.1,0.1,0.2,0.2l-75.8,75.8v-70c29.4,0,50-25,50-25
			C297.7,343.4,308.5,350.6,318.1,356.5z"/>
		<path style="fill:#AFB6BB;" d="M242.5,432.5v45h-60l-35-110c0,0,7.2-3.7,16.1-9c1-0.6,2-1.2,3.1-1.8L242.5,432.5z"/>
		<path style="fill:#E7ECED;" d="M242.5,362.5v70l-75.8-75.8c9.7-6,20.5-13.2,25.8-19.2C192.5,337.5,213.1,362.5,242.5,362.5z"/>
		<path style="fill:#846954;" d="M193.2,306.1c14.4,7.3,31,11.4,49.3,11.4s34.9-4.1,49.3-11.4c0.2-0.1,0.5-0.2,0.7-0.4v31.8
			c0,0-20.6,25-50,25s-50-25-50-25v-31.8C192.7,305.9,193,306,193.2,306.1z"/>
		<path style="fill:#31C0D8;" d="M147.5,367.5l35,110h-130c0-14,0-25,0-25S53.4,397.8,147.5,367.5z"/>
		<path style="fill:#4E4F51;" d="M382.5,117.5v220h-90v-31.8c37.4-19.3,60-60.5,60-108.2v-45c-49.7,0-110-45-110-45
			c0,20.3-110,45-110,45v45c0,47.7,22.6,88.9,60,108.2v31.8h-90v-220c0-49.7,40.3-110,90-110h100C342.2,7.5,382.5,67.8,382.5,117.5z
			"/>
	</g>
	<g>
		<path style="fill:#E7ECED;" d="M322.5,192.5v10c0,11-9,20-20,20h-20c-11,0-20-9-20-20v-25h60V192.5z"/>
		<path style="fill:#E7ECED;" d="M222.5,177.5v25c0,11-9,20-20,20h-20c-11,0-20-9-20-20v-10v-15H222.5z"/>
	</g>
	<g>
		<path style="fill:#231F20;" d="M340.386,360.548c-0.549-0.291-3.186-1.781-3.186-1.781c-3.458-1.825-15.102-8.654-15.568-8.899
			c-2.77-1.707-5.312-3.328-7.645-4.867H390V117.5c0-26.125-10.432-55.357-27.906-78.195C342.701,13.959,317.985,0,292.5,0h-100
			c-25.485,0-50.201,13.959-69.594,39.305C105.432,62.143,95,91.375,95,117.5V345h76.101c-3.378,2.243-6.402,4.119-8.178,5.217
			c-1.16,0.638-16.538,9.403-18.328,10.339C47.112,392.182,45.04,449.929,45,452.376V485h395v-32.541
			C439.986,449.996,438.548,391.884,340.386,360.548z M345,185h-15v-15h-75v18.638c-4.012-2.036-8.455-3.638-12.5-3.638
			s-8.488,1.603-12.5,3.638V170h-75v15h-15v-26.555c9.647-2.313,29.802-7.358,49.765-13.683
			c33.569-10.635,48.771-19.127,55.41-26.207C261.952,129.926,305.091,156.58,345,159.7V185z M315,185v17.5
			c0,6.893-5.607,12.5-12.5,12.5h-20c-6.893,0-12.5-5.607-12.5-12.5V185H315z M215,185v17.5c0,6.893-5.607,12.5-12.5,12.5h-20
			c-6.893,0-12.5-5.607-12.5-12.5V185H215z M155,200v2.5c0,15.164,12.336,27.5,27.5,27.5h20c13.835,0,25.311-10.271,27.217-23.586
			c4.586-3.319,10.246-6.414,12.783-6.414c2.518,0,8.185,3.1,12.784,6.42C257.193,219.733,268.668,230,282.5,230h20
			c15.163,0,27.5-12.336,27.5-27.5V200h14.963c-0.376,21.275-5.534,41.497-15.001,58.621c-9.771,17.673-23.915,31.648-40.901,40.414
			l-1.034,0.534l-0.068,0.069C274.213,306.514,258.923,310,242.5,310c-16.408,0-31.687-3.48-45.458-10.363l-1.103-0.602
			c-16.986-8.766-31.129-22.741-40.901-40.414c-9.468-17.125-14.626-37.346-15.002-58.621H155z M242.5,355
			c-20.977,0-37.346-15.055-42.5-20.404v-17.283c13.219,5.099,27.465,7.687,42.5,7.687c15.043,0,29.295-2.59,42.5-7.685v17.296
			C279.87,339.974,263.614,355,242.5,355z M235,369.521v44.872L178.606,358c5.607-3.697,10.132-6.984,13.659-9.943
			C199.971,355.308,215.194,367.039,235,369.521z M250,369.521c19.807-2.482,35.03-14.213,42.735-21.464
			c3.535,2.961,8.061,6.237,13.682,9.919L250,414.394V369.521z M110,117.5c0-22.944,9.278-48.769,24.819-69.08
			C151.308,26.869,171.793,15,192.5,15h100c20.707,0,41.191,11.869,57.681,33.42C365.722,68.731,375,94.556,375,117.5V330h-75
			v-19.843c17.823-10.189,32.659-25.413,43.089-44.278C354.152,245.868,360,222.223,360,197.5V145h-7.5
			c-46.592,0-104.933-43.077-105.515-43.511L235,92.545v14.671c-0.555,1.136-6.129,9.691-52.489,24.101
			c-25.934,8.061-51.4,13.808-51.654,13.865L125,146.498V197.5c0,24.723,5.848,48.368,16.912,68.379
			c10.43,18.865,25.265,34.089,43.088,44.278V330h-75V117.5z M60,470v-17.409c0.055-1.472,2.632-47.243,82.668-75.54L172.243,470H60
			z M187.984,470l-31.446-98.83c2.442-1.339,5.523-3.066,8.95-5.076L235,435.606V470H187.984z M292.247,470H250v-34.394
			l69.491-69.49c3.278,1.894,6.293,3.555,8.758,4.877L292.247,470z M425,470H308.208l33.848-93.081
			c24.474,8.524,54.523,23.296,71.576,47.566c10.718,15.254,11.344,27.458,11.368,28.096V470z"/>
		<path style="fill:#231F20;" d="M242.5,255h20v-15H250v-17.5h-15v25C235,251.642,238.358,255,242.5,255z"/>
	</g>
</g>
<g>
</g>
<g>
</g>
<g>
</g>
<g>
</g>
<g>
</g>
<g>
</g>
<g>
</g>
<g>
</g>
<g>
</g>
<g>
</g>
<g>
</g>
<g>
</g>
<g>
</g>
<g>
</g>
<g>
</g>
</svg>
