<?xml version="1.0" encoding="iso-8859-1"?>
<!-- Generator: Adobe Illustrator 19.0.0, SVG Export Plug-In . SVG Version: 6.00 Build 0)  -->
<svg version="1.1" id="Layer_1" xmlns="http://www.w3.org/2000/svg" xmlns:xlink="http://www.w3.org/1999/xlink" x="0px" y="0px"
	 viewBox="0 0 485 485" style="enable-background:new 0 0 485 485;" xml:space="preserve">
<g id="XMLID_32_">
	<g>
		<g id="XMLID_33_">
			<g>
				<path style="fill:#FFD248;" d="M352.5,132.5c0,0-40,15-40-25h-140c0,40-40,25-40,25V7.5h220V132.5z"/>
				<path style="fill:#FFE1B2;" d="M362.7,377c69.6,30.7,69.8,75.5,69.8,75.5s0,11,0,25h-70v-100L362.7,377z"/>
				<path style="fill:#FFD7A3;" d="M352.5,167.5c16.6,0,30,6.2,30,20c0,12.8-15.8,27.6-31.3,29.7c0.8-6.4,1.3-13,1.3-19.7V167.5z"/>
				<path style="fill:#58595B;" d="M122.3,377.1c7.6-3.4,15.9-6.6,25.2-9.6c0,0,7.2-3.8,16.2-9.1c6.5,5.2,38.8,29.1,78.8,29.1
					s72.3-23.9,78.8-29.1c8.9,5.3,16.2,9.1,16.2,9.1c9.3,2.9,17.6,6.1,25.2,9.5l-0.2,0.5v100h-240v-100L122.3,377.1z"/>
				<path style="fill:#FFE1B2;" d="M132.5,132.5c0,0,40,15,40-25h140c0,40,40,25,40,25v10v25v30c0,6.7-0.5,13.3-1.3,19.7v0.1
					c-5.4,39.1-26.6,71.8-58.7,88.4c-0.2,0.2-0.5,0.3-0.7,0.4c-14.4,7.3-31,11.4-49.3,11.4s-34.9-4.1-49.3-11.4
					c-0.2-0.1-0.5-0.2-0.7-0.4c-32.1-16.6-53.3-49.3-58.7-88.4v-0.1c-0.8-6.4-1.3-13-1.3-19.7v-30v-25L132.5,132.5L132.5,132.5z"/>
				<path style="fill:#FFD7A3;" d="M292.5,305.7v26.8v5c5.2,5.9,16,13.1,25.6,19c1.1,0.7,2.2,1.3,3.2,1.9
					c-6.5,5.2-38.8,29.1-78.8,29.1s-72.3-23.9-78.8-29.1c2.2-1.3,4.5-2.7,6.8-4.1c8.6-5.4,17.4-11.6,22-16.8v-5v-26.8
					c0.2,0.2,0.5,0.3,0.7,0.4c14.4,7.3,31,11.4,49.3,11.4s34.9-4.1,49.3-11.4C292,306,292.3,305.9,292.5,305.7z"/>
				<path style="fill:#FFD7A3;" d="M132.5,197.5c0,6.7,0.5,13.3,1.3,19.7c-15.5-2.1-31.3-16.9-31.3-29.7c0-13.8,13.4-20,30-20V197.5
					z"/>
				<path style="fill:#FFE1B2;" d="M122.5,377.5v100h-70c0-14,0-25,0-25s0.7-44.4,69.8-75.4L122.5,377.5z"/>
			</g>
			<g>
				<path style="fill:#231F20;" d="M365.763,370.154c-8.224-3.679-16.529-6.824-25.371-9.607c-1.864-0.987-8.055-4.303-15.232-8.578
					c-0.401-0.24-20.938-13.51-25.159-17.504v-24.316c30.418-17.386,51.203-48.561,57.822-86.708
					C375.028,218.505,390,202.356,390,187.5c0-15.043-11.308-25.026-30-27.094V0H125v160.406c-18.692,2.068-30,12.051-30,27.094
					c0,14.856,14.972,31.005,32.178,35.94c6.619,38.146,27.405,69.322,57.822,86.708v24.314c-3.027,2.872-8.514,7.22-18.445,13.459
					c-2.256,1.374-4.511,2.746-6.66,4.016c-7.32,4.311-13.493,7.646-15.336,8.631c-9.035,2.937-17.324,6.108-25.329,9.688
					c-72.618,32.579-74.197,80.117-74.229,82.125L45,485h395v-32.534C439.991,450.438,438.937,402.43,365.763,370.154z M375,187.5
					c0,6.131-6.637,14.48-15.286,19.081c0.185-3.085,0.286-31.099,0.286-31.099C373.367,177.356,375,184.268,375,187.5z M345,15
					v111.828c-5.499,1.165-13.521,1.798-18.62-1.736c-4.233-2.934-6.38-8.853-6.38-17.593V100H165v7.5
					c0,8.721-2.137,14.634-6.352,17.573c-5.106,3.561-13.095,2.944-18.648,1.758V15H345z M110,187.5c0-3.232,1.633-10.144,15-12.018
					c0,0,0.102,28.014,0.286,31.099C116.637,201.98,110,193.631,110,187.5z M141.3,216.777l-0.058-0.507
					c-0.836-6.688-1.242-12.827-1.242-18.77v-55.388c7.75,1.245,18.47,1.333,27.164-4.69c6.905-4.786,11.052-12.31,12.373-22.422
					h125.926c1.321,10.112,5.468,17.636,12.373,22.422c8.694,6.025,19.414,5.936,27.164,4.69V197.5
					c0,5.943-0.406,12.083-1.242,18.77l-0.037,0.359c-5.226,37.115-25.136,67.138-54.666,82.409l-1.03,0.533l-0.066,0.066
					C274.213,306.514,258.923,310,242.5,310c-16.408,0-31.687-3.48-45.458-10.363l-1.097-0.599
					C166.455,283.788,146.559,253.823,141.3,216.777z M198.118,342.469l1.882-2.128v-23.028c13.218,5.099,27.464,7.687,42.5,7.687
					c15.043,0,29.295-2.59,42.5-7.685v23.018l1.874,2.125c4.006,4.546,10.738,9.832,20.914,16.409
					C294.976,367.237,270.797,380,242.5,380c-28.271,0-52.43-12.739-65.251-21.109C187.054,352.561,194.073,347.042,198.118,342.469
					z M163.157,367.391C174.932,375.907,205.462,395,242.5,395c37.022,0,67.542-19.076,79.328-27.598
					c6.868,3.964,26.776,11.769,33.172,14.453V470H130v-88.059C136.267,379.309,156.261,371.351,163.157,367.391z M60,452.635
					c0.041-0.774,0.716-10.52,8.51-23.339c11.261-18.521,29.984-31.648,46.49-40.313V470H60V452.635z M425,470h-55v-81.198
					c16.628,8.599,35.471,21.69,46.666,40.301c8.02,13.331,8.332,23.396,8.334,23.397V470z"/>
				<path style="fill:#231F20;" d="M242.5,235h20v-15H250v-32.5h-15v40C235,231.642,238.357,235,242.5,235z"/>
			</g>
		</g>
	</g>
</g>
<g>
</g>
<g>
</g>
<g>
</g>
<g>
</g>
<g>
</g>
<g>
</g>
<g>
</g>
<g>
</g>
<g>
</g>
<g>
</g>
<g>
</g>
<g>
</g>
<g>
</g>
<g>
</g>
<g>
</g>
</svg>
