<?xml version="1.0" encoding="iso-8859-1"?>
<!-- Generator: Adobe Illustrator 19.0.0, SVG Export Plug-In . SVG Version: 6.00 Build 0)  -->
<svg version="1.1" id="Layer_1" xmlns="http://www.w3.org/2000/svg" xmlns:xlink="http://www.w3.org/1999/xlink" x="0px" y="0px"
	 viewBox="0 0 485 485" style="enable-background:new 0 0 485 485;" xml:space="preserve">
<g>
	<g id="XMLID_23_">
		<g>
			<path style="fill:#FFD7A3;" d="M132.5,197.5c0,6.7,0.4,13.3,1.3,19.7c-15.5-2.1-31.3-16.9-31.3-29.7c0-13.8,13.4-20,30-20V197.5z
				"/>
			<path style="fill:#FFD7A3;" d="M352.5,167.5c16.6,0,30,6.2,30,20c0,12.8-15.8,27.6-31.3,29.7c0.9-6.4,1.3-13,1.3-19.7V167.5z"/>
			<path style="fill:#BE4868;" d="M318.4,356.7c10.2,6.1,19.1,10.8,19.1,10.8c94.7,30,95,85,95,85s0,11,0,25h-380c0-14,0-25,0-25
				s0.9-54.7,95-85c0,0,8.9-4.7,19.1-10.8c9.7-5.9,20.6-13.2,25.9-19.2c0,0,20.6,45,50,45s50-45,50-45
				C297.8,343.5,308.7,350.8,318.4,356.7z"/>
			<path style="fill:#58595B;" d="M342.8,249l19.7,93.5c0,0-29.4,0.6-44.1,14.2c-9.7-5.9-20.6-13.2-25.9-19.2v-31.8
				C315.5,293.8,332.8,273.7,342.8,249z"/>
			<path style="fill:#58595B;" d="M192.5,305.7v31.8c-5.3,6-16.2,13.3-25.9,19.2c-14.7-13.6-44.1-14.2-44.1-14.2l19.7-93.5
				C152.2,273.7,169.5,293.8,192.5,305.7z"/>
			<path style="fill:#FFD7A3;" d="M192.5,337.5v-31.8c14.6,7.6,31.4,11.8,50,11.8s35.4-4.2,50-11.8v31.8c0,0-20.6,45-50,45
				S192.5,337.5,192.5,337.5z"/>
		</g>
		<g>
			<path style="fill:#FFD7A3;" d="M352.5,167.5v30c0,6.7-0.4,13.3-1.3,19.7c-1.5,11.2-4.4,21.9-8.4,31.8
				c-10,24.7-27.3,44.8-50.3,56.7c-14.6,7.6-31.4,11.8-50,11.8s-35.4-4.2-50-11.8c-23-11.9-40.3-32-50.3-56.7
				c-4-9.9-6.9-20.6-8.4-31.8c-0.9-6.4-1.3-13-1.3-19.7v-30v-25c0,0,46-16,85-55c0,0,21.7,45,135,45v10L352.5,167.5L352.5,167.5z"/>
			<path style="fill:#58595B;" d="M352.5,62.5v70c-113.3,0-135-45-135-45c-39,39-85,55-85,55v-80c0,0,10.8-55,110-55
				S352.5,62.5,352.5,62.5z"/>
		</g>
	</g>
	<g>
		<path style="fill:#231F20;" d="M340.424,360.56c-1.156-0.619-3.963-2.133-7.637-4.196c10.747-4.778,24.297-6.239,29.867-6.365
			l9.053-0.185l-21.11-100.187c3.254-8.464,5.679-17.247,7.223-26.185C375.026,218.507,390,202.357,390,187.5
			c0-15.043-11.308-25.026-30-27.094V61.771l-0.141-0.716c-0.13-0.661-3.37-16.357-20.109-31.6C318.286,9.91,285.566,0,242.5,0
			s-75.786,9.91-97.25,29.455c-16.74,15.243-19.98,30.939-20.11,31.6L125,61.771v98.635c-18.692,2.068-30,12.051-30,27.094
			c0,14.857,14.975,31.008,32.182,35.942c1.548,8.953,3.971,17.727,7.221,26.183l-19.243,91.329l-1.854,8.84l9.032,0.205
			c5.576,0.126,19.126,1.588,29.874,6.365c-3.693,2.074-6.507,3.592-7.652,4.205C47.112,392.198,45.04,449.93,45,452.378L45,485h395
			v-32.541C439.986,449.996,438.532,391.9,340.424,360.56z M317.881,347.551c-9.539-6.033-14.896-10.258-17.881-13.088v-24.318
			c16.215-9.267,29.714-22.436,39.848-38.777l13.558,64.348C343.989,336.863,329.041,339.845,317.881,347.551z M200,317.298
			c13.182,5.108,27.424,7.702,42.5,7.702c15.079,0,29.324-2.595,42.5-7.701v18.477c-1.624,3.241-6.07,11.604-12.547,19.813
			C265.466,364.444,254.598,375,242.5,375c-19.299,0-36.562-27.05-42.5-39.194V317.298z M375,187.5
			c0,6.126-6.627,14.467-15.266,19.07c0.165-2.964,0.266-31.088,0.266-31.088C373.367,177.356,375,184.268,375,187.5z M345,197.5
			c0,6.586-0.413,12.863-1.233,18.705c-1.38,10.305-4.045,20.394-7.919,29.981c-9.596,23.703-25.777,41.979-46.811,52.862
			C275.075,306.315,259.418,310,242.5,310c-16.917,0-32.575-3.685-46.553-10.961c-21.017-10.875-37.199-29.151-46.793-52.849
			c-3.875-9.592-6.54-19.681-7.927-30.035C140.413,210.366,140,204.09,140,197.5v-49.844c12.435-5.036,45.571-20.133,76.508-48.794
			c11.962,13.61,45.574,39.585,128.492,41.069V197.5z M156.195,39.789C174.612,23.572,204.456,15,242.5,15
			s67.888,8.572,86.306,24.789C340.735,50.293,344.3,60.936,345,63.41v61.513c-51.067-0.958-80.986-11.594-97.268-20.59
			c-17.5-9.669-23.09-19.394-23.498-20.136l-4.348-9.689l-7.69,7.69c-26.6,26.599-56.898,42.274-72.197,49.115v-67.89
			C140.729,60.849,144.313,50.25,156.195,39.789z M110,187.5c0-3.232,1.633-10.144,15-12.018c0,0,0.101,28.127,0.266,31.088
			C116.627,201.966,110,193.626,110,187.5z M145.152,271.369c10.135,16.344,23.636,29.514,39.848,38.776v24.317
			c-2.988,2.833-8.348,7.062-17.88,13.089c-11.161-7.706-26.109-10.688-35.526-11.836L145.152,271.369z M425,470H60v-17.409
			c0.056-1.515,2.773-49.93,89.799-77.952c0,0,10.397-5.371,20.699-11.531c8.313-5.057,14.914-9.538,19.919-13.53
			C198.716,363.842,217.362,390,242.5,390c25.139,0,43.784-26.158,52.083-40.422c5.01,3.995,11.624,8.484,19.968,13.559
			c10.253,6.132,20.685,11.513,20.685,11.513c25.456,8.064,59.721,23.256,78.396,49.835c10.718,15.254,11.344,27.458,11.368,28.096
			V470z"/>
		<path style="fill:#231F20;" d="M250,187.5h-15v40c0,4.142,3.358,7.5,7.5,7.5h20v-15H250V187.5z"/>
	</g>
</g>
<g>
</g>
<g>
</g>
<g>
</g>
<g>
</g>
<g>
</g>
<g>
</g>
<g>
</g>
<g>
</g>
<g>
</g>
<g>
</g>
<g>
</g>
<g>
</g>
<g>
</g>
<g>
</g>
<g>
</g>
</svg>
