<?xml version="1.0" encoding="iso-8859-1"?>
<!-- Generator: Adobe Illustrator 19.0.0, SVG Export Plug-In . SVG Version: 6.00 Build 0)  -->
<svg version="1.1" id="Layer_1" xmlns="http://www.w3.org/2000/svg" xmlns:xlink="http://www.w3.org/1999/xlink" x="0px" y="0px"
	 viewBox="0 0 485 485" style="enable-background:new 0 0 485 485;" xml:space="preserve">
<g>
	<g>
		<path style="fill:#E7ECED;" d="M242.5,7.5c194.8,0,110,140,110,140l-20-15h-180l-20,15C132.5,147.5,52.7,7.5,242.5,7.5z"/>
		<path style="fill:#F4661E;" d="M432.5,452.5c0,0,0,11,0,25h-130v-35l85.3-52.1C432.3,419.3,432.5,452.5,432.5,452.5z"/>
		<path style="fill:#E7ECED;" d="M387.8,390.4l-85.3,52.1v35h-35v-55l87.7-48.7C368.1,379,378.9,384.6,387.8,390.4z"/>
		<path style="fill:#FFD7A3;" d="M352.5,167.5c16.6,0,30,6.2,30,20c0,12.8-15.8,27.6-31.3,29.7c0.9-6.4,1.3-13,1.3-19.7V167.5z"/>
		<path style="fill:#F4661E;" d="M355.2,373.8l-87.7,48.7v55h-50v-55L130,373.9c5.5-2.3,11.3-4.4,17.5-6.4c0,0,34.1-17.8,45-30
			c0,0,20.6,25,50,25s50-25,50-25c10.9,12.2,45,30,45,30C343.8,369.5,349.7,371.6,355.2,373.8z"/>
		<path style="fill:#FFD7A3;" d="M351.2,217.2c-5.4,39.1-26.6,71.9-58.7,88.5c-14.6,7.6-31.4,11.8-50,11.8s-35.4-4.2-50-11.8
			c-32.1-16.6-53.3-49.4-58.7-88.5c-0.9-6.4-1.3-13-1.3-19.7v-30v-20l20-15h180l20,15v20v30C352.5,204.2,352.1,210.8,351.2,217.2z"
			/>
		<path style="fill:#FFD7A3;" d="M292.5,305.7v31.8c0,0-20.6,25-50,25s-50-25-50-25v-31.8c14.6,7.6,31.4,11.8,50,11.8
			S277.9,313.3,292.5,305.7z"/>
		<path style="fill:#E7ECED;" d="M217.5,422.5v55h-30v-35L100,389c8.4-5.3,18.3-10.4,30-15.1L217.5,422.5z"/>
		<path style="fill:#F4661E;" d="M187.5,442.5v35h-135c0-14,0-25,0-25s0.6-34.3,47.5-63.5L187.5,442.5z"/>
		<path style="fill:#FFD7A3;" d="M132.5,197.5c0,6.7,0.4,13.3,1.3,19.7c-15.5-2.1-31.3-16.9-31.3-29.7c0-13.8,13.4-20,30-20V197.5z"
			/>
	</g>
	<g>
		<path style="fill:#231F20;" d="M391.895,384.116c-9.64-6.282-21.042-12.093-33.909-17.28c-5.458-2.183-11.371-4.295-17.583-6.283
			c-8.932-4.704-30.928-17.169-40.402-26.111v-24.3c30.386-17.372,51.164-48.543,57.804-86.697
			C375.017,218.516,390,202.361,390,187.5c0-15.043-11.308-25.026-30-27.094v-10.903c2.535-4.536,8.941-16.814,13.48-32.572
			c7.688-26.69,6.219-50.617-4.249-69.196C351.385,16.061,308.747,0,242.5,0c-64.232,0-106.021,15.871-124.209,47.172
			c-23.542,40.517,1.223,91.857,6.709,102.235v10.999c-18.692,2.068-30,12.051-30,27.094c0,14.861,14.983,31.017,32.196,35.946
			c6.647,38.168,27.428,69.337,57.804,86.697v24.299c-9.48,8.948-31.496,21.421-40.417,26.119
			c-6.393,2.077-12.101,4.173-17.428,6.399c-11.481,4.615-21.963,9.896-31.119,15.673c-49.791,31-51.008,68.168-51.035,69.735
			L45,485h395v-32.545C439.991,450.934,439.231,414.858,391.895,384.116z M295,470h-20v-43.086l80.673-44.798
			c6.292,2.647,12.175,5.444,17.587,8.377L295,438.292V470z M200,317.298c13.182,5.108,27.424,7.702,42.5,7.702
			c15.079,0,29.324-2.595,42.5-7.701v17.312C279.87,339.974,263.613,355,242.5,355c-20.977,0-37.346-15.055-42.5-20.404V317.298z
			 M375,187.5c0,6.126-6.627,14.467-15.266,19.07c0.165-2.964,0.266-31.088,0.266-31.088C373.367,177.356,375,184.268,375,187.5z
			 M131.261,54.708C146.57,28.36,183.997,15,242.5,15c60.395,0,98.628,13.476,113.638,40.052
			c16.041,28.403,1.413,65.584-6.162,81.179L335,125H150l-14.784,11.088C128.063,120.255,114.74,83.141,131.261,54.708z M110,187.5
			c0-3.232,1.633-10.144,15-12.018c0,0,0.101,28.125,0.266,31.088C116.627,201.966,110,193.626,110,187.5z M141.227,216.156
			C140.413,210.366,140,204.09,140,197.5v-46.25L155,140h175l15,11.25v46.25c0,6.59-0.413,12.866-1.229,18.674
			c-5.158,37.347-25.101,67.55-54.733,82.874C275.075,306.315,259.417,310,242.5,310s-32.575-3.685-46.555-10.962
			C166.331,283.724,146.388,253.521,141.227,216.156z M192.246,348.04c8.646,8.14,26.781,21.96,50.254,21.96
			s41.608-13.82,50.254-21.96c13.987,11.719,43.731,27.02,44.361,27.224L260,418.086V470h-35v-51.914l-77.103-42.825
			C148.526,375.053,178.259,359.758,192.246,348.04z M210,426.914V470h-15v-31.705l-80.304-49.1
			c4.672-2.458,9.624-4.791,14.825-6.982L210,426.914z M60,452.642c0.039-0.705,0.571-8.176,5.822-18.49
			c4.806-9.44,14.61-23.154,34.285-36.296L180,446.705V470H60V452.642z M425,470H310v-23.292l77.6-47.398
			c36,25.109,37.353,51.687,37.4,53.266V470z"/>
		<path style="fill:#231F20;" d="M242.5,235h20v-15H250v-32.5h-15v40C235,231.642,238.358,235,242.5,235z"/>
	</g>
</g>
<g>
</g>
<g>
</g>
<g>
</g>
<g>
</g>
<g>
</g>
<g>
</g>
<g>
</g>
<g>
</g>
<g>
</g>
<g>
</g>
<g>
</g>
<g>
</g>
<g>
</g>
<g>
</g>
<g>
</g>
</svg>
