<svg xmlns="http://www.w3.org/2000/svg" viewBox="0 0 324.1 324.1">
  <path fill="#FF6666" d="M162 7.5C77.3 7.5 8.4 76.3 8.4 161.2c0 38.3 14 73.3 37.2 100.2-7 20-19.8 37.3-36.5 49.6 11 3.6 22 5.6 34 5.6 20 0 39-5.7 55-15.7 20 9 42 14 65 14 85 0 154-69 154-154S247 7 162 7z"/>
  <path fill="#071C2C" d="M162 145.6c-10.4 0-19 8.5-19 19s8.6 19 19 19 19-8.5 19-19-8.4-19-19-19zm-74 0c-10.4 0-19 8.5-19 19s8.6 19 19 19 19-8.5 19-19-8.4-19-19-19zM162 0C73.3 0 1 72.3 1 161.2c0 37 12.8 73 36 101.7-6.5 16-17.7 31-32.3 42-2.2 1-3.3 4-3 7 .5 2 2.4 5 5 6 11.8 4 24 6 36.3 6 19.5 0 38.7-5 55.5-15 20.2 8 41.6 13 63.8 13 89 0 161.3-72 161.3-161S251 0 162 0zm0 307.5c-21.2 0-41.8-4.5-61-13.4-2.3-1-5 0-7 1-15.6 9-33 14-51.3 14-6 0-12 0-18-1 12.5-12 22-27 27.8-43.3.8-3 .3-5.6-1.4-7.6-22-27-35-61-35-96C16 80.8 81.7 15 162 15s146.4 65.6 146.4 146.2c0 80.7-65.6 146.3-146.2 146.3zm74-162c-10.4 0-19 8.6-19 19 0 10.6 8.6 19 19 19s19-8.4 19-19c0-10.4-8.4-19-19-19z"/>
</svg>
