<?xml version="1.0" encoding="utf-8"?>
<!-- Generator: Adobe Illustrator 19.0.0, SVG Export Plug-In . SVG Version: 6.00 Build 0)  -->
<svg version="1.1" id="Layer_1" xmlns="http://www.w3.org/2000/svg" xmlns:xlink="http://www.w3.org/1999/xlink" x="0px" y="0px"
	 width="110px" height="110px" viewBox="-544 346 110 110" style="enable-background:new -544 346 110 110;" xml:space="preserve">
<style type="text/css">
	.st0{fill:#FFFFFF;}
	.st1{fill:#AAAAAA;}
</style>
<path id="XMLID_45_" class="st0" d="M-472.3,410.2c-3.6-1.6-6.9-3-10.3-4.5c-20-8.8-40.1-17.5-60.1-26.3c-0.8-0.4-1.1-0.8-1.1-1.5
	c0-4.4,0-8.8,0-13.3c0-0.5,0.2-0.8,0.7-1c11.2-5.8,22.4-11.7,33.6-17.5c0.6-0.3,1-0.3,1.6,0c11.7,5.3,23.3,10.7,35,16
	c0.3,0.1,0.6,0.5,0.6,0.7c0,4.1,0,8.1,0,12.3c-0.4-0.2-0.8-0.3-1.1-0.5c-10.9-4.9-21.8-9.8-32.6-14.7c-0.6-0.3-1.1-0.3-1.7,0
	c-5.7,3-11.4,5.9-17.1,8.9c-0.6,0.3-0.8,0.6-0.8,1.2c0.1,1,0.1,2,0,3c0,0.5,0.2,0.8,0.8,1.1c6.8,3,13.5,6.1,20.3,9.2
	c10.6,4.8,21.1,9.6,31.7,14.4c0.5,0.2,0.7,0.5,0.7,0.9c0,3.6,0,7.2,0,10.7C-472.1,409.5-472.2,409.8-472.3,410.2z"/>
<path id="XMLID_3_" class="st1" d="M-434.8,361.1c-11.4-5-22.8-10-34.2-15c-0.6-0.3-0.9-0.2-1.4,0.1c-3.9,2.1-7.7,4.1-11.6,6.2
	c-0.2,0.1-0.4,0.3-0.7,0.4c0.4,0.2,0.8,0.3,1.1,0.5c10,4.5,20,9,30,13.5c0.5,0.2,0.6,0.5,0.6,0.9c0,5.6,0,11.4,0,16.9
	c5.8,0,11.4,0,17.1,0c0-7.9,0-15.5,0-23.2C-434.2,361.3-434.5,361.2-434.8,361.1z"/>
<g id="XMLID_25_">
	<path id="XMLID_10_" class="st1" d="M-434.6,397c-21.6-9.6-43.2-19.3-64.8-28.9c-2.1-0.9-4.2-1.9-6.3-2.8c0,0.3,0,0.5,0,0.7
		c0,4,0,8.1,0,12.1c0,0.5,0.2,0.8,0.8,1.1c9.1,4,18.1,8,27.2,12c8.2,3.6,16.5,7.3,24.7,10.9c0.7,0.3,1,0.6,0.9,1.2
		c-0.1,1-0.1,1.9,0,2.8c0,0.6-0.2,1-0.9,1.3c-5.5,2.6-11.1,5.3-16.6,8c-0.6,0.3-1,0.3-1.6,0c-11.2-5-22.4-9.9-33.5-14.8
		c-0.3-0.1-0.7-0.3-1.1-0.4c0,0.3-0.1,0.4-0.1,0.6c0,4.3,0,8.5,0,12.8c0,0.5,0.3,0.7,0.8,0.9c11.7,5.2,23.4,10.3,35.2,15.5
		c0.4,0.2,0.7,0.6,1,0.6c0.5,0,0.9,0,1.4,0c0.2,0,0.3-0.2,0.5-0.3c11-5.9,21.9-11.8,32.8-17.7c0.1-0.1,0.3-0.1,0.3-0.2
		c0-4.9,0-9.9,0-14.9C-434,397.2-434.4,397.1-434.6,397z"/>
</g>
<g id="gaiZ5D_1_">
	<g id="XMLID_37_">
		<path id="XMLID_4_" class="st0" d="M-495.2,422.3c-10.4-4.4-20.7-8.9-31.1-13.3c-0.7-0.3-0.9-0.6-0.9-1.2c0-5.3,0-10.7,0-16
			c0-0.9,0-0.9-1.2-0.9c-3.3,0-6.6,0.1-9.9,0.1c-0.4,0-0.7-0.1-1.1-0.1c-1.4,0-3,0-4.5,0c0,8.1,0,16,0,24.1c0.5,0.1,1.1,0.2,1.5,0.4
			c11.4,4.9,22.8,9.8,34.2,14.7c0.8,0.3,1.4,0.3,2.1-0.1c3.8-2.2,7.6-4.5,11.4-6.7c0.2-0.1,0.4-0.3,0.7-0.5
			C-494.5,422.7-494.9,422.5-495.2,422.3z"/>
	</g>
</g>
<path id="XMLID_101_" class="st0" d="M-535.3,442.9h-1.4c-0.1-1-0.6-1.4-1.4-1.4c-0.5,0-0.9,0.1-1.2,0.4c-0.3,0.2-0.4,0.6-0.4,1.1
	c0,0.4,0.1,0.7,0.4,1l3.1,3.4c0.6,0.6,0.8,1.3,0.8,2.1v0.7c0,0.8-0.3,1.5-0.8,2s-1.2,0.9-2.1,0.9h-1.4c-1,0-1.7-0.2-2.2-0.7
	c-0.5-0.5-0.7-1.2-0.7-2.2h1.4c0,0.1,0,0.2,0,0.2c0,0.4,0.1,0.7,0.5,0.9c0.3,0.2,0.6,0.3,1,0.3c0.5,0,0.9-0.1,1.1-0.4
	c0.2-0.3,0.3-0.6,0.3-1.1c0-0.4-0.1-0.7-0.4-1l-3.1-3.4c-0.6-0.6-0.8-1.3-0.8-2.1v-0.7c0-0.8,0.3-1.5,0.8-2c0.6-0.6,1.2-0.9,2.1-0.9
	h1.4C-536.4,440-535.5,441-535.3,442.9z"/>
<path id="XMLID_103_" class="st0" d="M-532.4,441.5V440h2.9v1.4H-532.4z M-532.4,453.1v-10.2h2.9v10.2H-532.4z"/>
<path id="XMLID_106_" class="st0" d="M-520.8,447.3v-1.4c0-0.4-0.1-0.7-0.4-1s-0.6-0.4-1-0.4h-1.4c-0.9,0-1.3,0.5-1.4,1.4h-1.4
	c0.2-1.9,1.2-2.9,2.9-2.9h2.9c0.8,0,1.5,0.3,2.1,0.9c0.6,0.6,0.9,1.3,0.9,2.1v7.3h-2.9v-1.4c-0.1,1-0.6,1.4-1.4,1.4h-1.4
	c-0.8,0-1.5-0.3-2.1-0.9c-0.6-0.6-0.9-1.2-0.9-2.1v0c0-0.8,0.3-1.5,0.9-2.1c0.6-0.6,1.2-0.9,2-0.9L-520.8,447.3L-520.8,447.3z
	 M-520.8,448.7h-1.4c-0.4,0-0.7,0.1-1,0.4c-0.3,0.3-0.4,0.6-0.4,1v0c0,0.4,0.1,0.7,0.4,1c0.3,0.3,0.6,0.4,1,0.4s0.8-0.1,1-0.4
	c0.3-0.3,0.4-0.6,0.4-1V448.7z"/>
<path id="XMLID_109_" class="st0" d="M-506.3,453.1h-2.9v-7.3c0-0.4-0.1-0.7-0.4-1c-0.3-0.3-0.6-0.4-1-0.4c-0.4,0-0.7,0.1-1,0.4
	c-0.3,0.3-0.4,0.6-0.4,1v7.3h-2.9v-10.2h2.9v1.4c0.1-0.5,0.2-0.9,0.5-1.1c0.2-0.2,0.6-0.4,1-0.4h1.4c1,0,1.7,0.3,2.2,1
	c0.2-0.3,0.5-0.6,0.9-0.8c0.4-0.2,0.8-0.3,1.3-0.3h1.4c0.8,0,1.5,0.3,2.1,0.9c0.6,0.6,0.9,1.2,0.9,2.1v7.3h-2.9v-7.3
	c0-0.4-0.1-0.7-0.4-1c-0.3-0.3-0.6-0.4-1-0.4c-0.4,0-0.7,0.1-1,0.4c-0.3,0.3-0.4,0.6-0.4,1L-506.3,453.1L-506.3,453.1z"/>
<path id="XMLID_111_" class="st1" d="M-490.4,442.9h-1.4c-0.1-1-0.6-1.4-1.4-1.4c-0.5,0-0.9,0.1-1.2,0.4c-0.3,0.2-0.4,0.6-0.4,1.1
	c0,0.4,0.1,0.7,0.4,1l3.1,3.4c0.6,0.6,0.8,1.3,0.8,2.1v0.7c0,0.8-0.3,1.5-0.8,2c-0.6,0.6-1.2,0.9-2.1,0.9h-1.4c-1,0-1.7-0.2-2.2-0.7
	c-0.5-0.5-0.7-1.2-0.7-2.2h1.4c0,0.1,0,0.2,0,0.2c0,0.4,0.1,0.7,0.5,0.9c0.3,0.2,0.6,0.3,1,0.3c0.5,0,0.9-0.1,1.1-0.4
	c0.2-0.3,0.3-0.6,0.3-1.1c0-0.4-0.1-0.7-0.4-1l-3.1-3.4c-0.6-0.6-0.8-1.3-0.8-2.1v-0.7c0-0.8,0.3-1.5,0.8-2s1.2-0.9,2.1-0.9h1.4
	C-491.4,440-490.5,441-490.4,442.9z"/>
<path id="XMLID_113_" class="st1" d="M-478.7,442.9V456h-2.9l0-4.4c-0.1,1-0.6,1.4-1.4,1.4h-1.4c-0.8,0-1.5-0.3-2.1-0.9
	c-0.6-0.6-0.9-1.3-0.9-2.1v-4.4c0-0.8,0.3-1.5,0.8-2s1.2-0.9,2.1-0.9L-478.7,442.9L-478.7,442.9z M-481.6,444.4h-1.4
	c-0.4,0-0.7,0.1-1,0.4s-0.4,0.6-0.4,1v4.4c0,0.4,0.1,0.7,0.4,1c0.3,0.3,0.6,0.4,1,0.4c0.4,0,0.8-0.1,1-0.4c0.3-0.3,0.4-0.6,0.4-1
	V444.4z"/>
<path id="XMLID_116_" class="st1" d="M-467.1,442.9v10.2h-2.9v-1.4c-0.1,1-0.6,1.4-1.4,1.4h-1.4c-0.8,0-1.5-0.3-2.1-0.9
	c-0.6-0.6-0.9-1.2-0.9-2.1v-7.3h2.9v7.3c0,0.4,0.1,0.7,0.4,1c0.3,0.3,0.6,0.4,1,0.4c0.4,0,0.8-0.1,1-0.4c0.3-0.3,0.4-0.6,0.4-1v-7.3
	L-467.1,442.9L-467.1,442.9z"/>
<path id="XMLID_118_" class="st1" d="M-458.4,447.3v-1.4c0-0.4-0.1-0.7-0.4-1s-0.6-0.4-1-0.4h-1.4c-0.9,0-1.3,0.5-1.4,1.4h-1.4
	c0.2-1.9,1.2-2.9,2.9-2.9h2.9c0.8,0,1.5,0.3,2.1,0.9c0.6,0.6,0.9,1.3,0.9,2.1v7.3h-2.9v-1.4c-0.1,1-0.6,1.4-1.4,1.4h-1.4
	c-0.8,0-1.5-0.3-2.1-0.9c-0.6-0.6-0.9-1.2-0.9-2.1v0c0-0.8,0.3-1.5,0.9-2.1s1.2-0.9,2-0.9L-458.4,447.3L-458.4,447.3z M-458.4,448.7
	h-1.4c-0.4,0-0.7,0.1-1,0.4c-0.3,0.3-0.4,0.6-0.4,1v0c0,0.4,0.1,0.7,0.4,1c0.3,0.3,0.6,0.4,1,0.4c0.4,0,0.8-0.1,1-0.4
	c0.3-0.3,0.4-0.6,0.4-1V448.7z"/>
<path id="XMLID_121_" class="st1" d="M-449.7,453.1h-2.9v-10.2h2.9v2.9c0.1-1,0.4-1.7,0.9-2.2c0.5-0.5,1.2-0.7,2-0.7h1.4v2.9h-2.9
	c-0.4,0-0.7,0.1-1,0.4s-0.4,0.6-0.4,1L-449.7,453.1L-449.7,453.1z"/>
<path id="XMLID_123_" class="st1" d="M-435.2,448.7h-5.8v1.4c0,0.4,0.1,0.7,0.4,1c0.3,0.3,0.6,0.4,1,0.4h1.4c1,0,1.4-0.5,1.4-1.4
	h1.4c-0.2,1.9-1.2,2.9-2.9,2.9h-2.9c-0.8,0-1.5-0.3-2.1-0.9c-0.6-0.6-0.9-1.2-0.9-2.1v-4.4c0-0.8,0.3-1.5,0.9-2.1
	c0.6-0.6,1.2-0.9,2-0.9h2.9c0.8,0,1.5,0.3,2.1,0.9c0.6,0.6,0.9,1.3,0.9,2.1L-435.2,448.7L-435.2,448.7z M-441,447.3h2.9v-1.4
	c0-0.4-0.1-0.7-0.4-1s-0.6-0.4-1-0.4s-0.7,0.1-1,0.4c-0.3,0.3-0.4,0.6-0.4,1L-441,447.3L-441,447.3z"/>
</svg>
