<?xml version="1.0" encoding="utf-8"?>
<!-- Generator: Adobe Illustrator 19.0.0, SVG Export Plug-In . SVG Version: 6.00 Build 0)  -->
<svg version="1.1" id="Layer_1" xmlns="http://www.w3.org/2000/svg" xmlns:xlink="http://www.w3.org/1999/xlink" x="0px" y="0px"
	 width="110px" height="110px" viewBox="0 0 600 600" style="enable-background:new 0 0 600 600;" xml:space="preserve">
<style type="text/css">
	.st0{fill:#FFFFFF;}
</style>
<g id="XMLID_73_">
	<path id="XMLID_45_" class="st0" d="M391.2,350.3c-19.4-8.5-37.8-16.6-56.3-24.7c-109.3-47.9-218.6-95.7-328-143.5
		c-4.6-2-6-4.1-5.9-8C1.2,150,1.1,125.9,1,101.8c0-2.6,0.9-4.2,3.8-5.7C66,64.3,127.1,32.4,188.2,0.5c3.1-1.6,5.2-1.7,8.5-0.2
		c63.6,29.1,127.3,58.1,190.9,87.2c1.6,0.7,3.5,2.5,3.5,3.8c0.2,22.1,0.2,44.2,0.2,67.1c-2.3-1-4.1-1.7-6-2.5
		c-59.4-26.6-118.7-53.3-178-80c-3.5-1.6-6-1.6-9.4,0.2c-31,16.3-62.2,32.4-93.4,48.5c-3.2,1.6-4.4,3.4-4.3,6.3
		c0.3,5.4,0.3,10.8,0,16.2c-0.2,2.8,1.2,4.4,4.3,5.8c37,16.6,73.9,33.4,110.8,50.1c57.7,26.2,115.3,52.4,173.1,78.5
		c2.7,1.2,3.8,2.6,3.7,5c-0.1,19.5,0,39.1,0,58.6C392,346.6,391.5,348.2,391.2,350.3z"/>
	<path id="XMLID_3_" class="st0" d="M595.7,82.2c-62.3-27.3-124.5-54.6-186.7-82c-3.1-1.4-5-1.3-7.9,0.3
		c-21,11.4-42.2,22.6-63.3,33.9c-1.2,0.7-2.3,1.4-3.8,2.4c2.4,1.1,4.1,1.9,5.9,2.7c54.5,24.5,109,49,163.5,73.4
		c2.5,1.1,3.4,2.6,3.4,5c-0.2,30.6,0,62.3,0,92.3c31.4,0,62.2,0,93.2,0c0-43,0-84.6,0-126.4C599,83.3,597.2,82.8,595.7,82.2z"/>
	<g id="XMLID_25_">
		<path id="XMLID_10_" class="st0" d="M596.7,278.1c-117.9-52.6-235.6-105.3-353.5-157.9c-11.4-5.1-22.7-10.2-34.6-15.5
			c-0.1,1.5-0.2,2.6-0.2,3.7c0,22,0.1,44-0.1,66c0,2.8,1.2,4.4,4.4,5.8c49.5,21.8,99,43.7,148.5,65.5C406.1,265.5,451,285.3,496,305
			c3.7,1.6,5.2,3.4,5,6.7c-0.3,5.2-0.3,10.3,0,15.5c0.2,3.3-1.3,5.3-5,7.1c-30.2,14.3-60.3,28.8-90.3,43.4c-3.3,1.6-5.7,1.6-9,0.1
			c-60.9-27-122-53.8-183-80.7c-1.8-0.8-3.8-1.5-6.1-2.3c-0.2,1.5-0.3,2.3-0.3,3.2c0,23.2,0,46.5-0.1,69.7c0,2.7,1.6,3.9,4.4,5
			c64,28.2,127.9,56.3,191.8,84.5c2,0.9,3.8,3,5.7,3c2.6,0,5.1,0,7.7,0c0.9,0,1.7-1.3,2.7-1.9c59.8-32.2,119.2-64.4,179.1-96.6
			c0.6-0.3,1.6-0.6,1.6-0.9c0-27,0-54.1,0-81.1C600,279.1,597.9,278.6,596.7,278.1z"/>
	</g>
	<g id="gaiZ5D_1_">
		<g id="XMLID_37_">
			<path id="XMLID_4_" class="st0" d="M266.1,416.4C209.5,392.2,153,368,96.3,344c-3.7-1.6-5.1-3.2-5.1-6.5
				c0.2-29.1,0.1-58.3,0.1-87.4c0-4.8-0.2-4.9-6.5-4.9c-18.1,0-36.1,0.4-54.2,0.3c-2,0-4-0.3-6.1-0.3c-7.7,0-16.5,0-24.5,0
				c0,44,0,87.3,0,131.3c3,0.7,5.8,1.2,8.1,2.2c62.1,26.6,124.6,53.3,186.6,80.1c4.3,1.9,7.5,1.7,11.3-0.6
				c20.6-12.2,41.6-24.3,62.3-36.4c1.2-0.7,2.4-1.5,3.9-2.6C269.9,418.1,268,417.2,266.1,416.4z"/>
		</g>
	</g>
</g>
<g id="XMLID_100_">
	<path id="XMLID_101_" class="st0" d="M47.2,528.6h-7.9c-0.7-5.3-3.2-7.9-7.5-7.9c-2.8,0-4.9,0.7-6.3,2s-2.1,3.3-2.1,6
		c0,2,0.8,3.8,2.3,5.6L42.6,553c3.1,3.5,4.6,7.2,4.6,11.2v4c0,4.3-1.5,8-4.6,11.1c-3.1,3.1-6.8,4.7-11.2,4.7h-7.9
		c-5.2,0-9.2-1.3-11.8-4c-2.6-2.6-4-6.6-4-11.8h7.9c0,0.5-0.1,1-0.1,1.3c0,2.2,0.8,3.8,2.5,4.9c1.7,1.1,3.5,1.7,5.5,1.7
		c2.8,0,4.8-0.7,6.1-2c1.2-1.4,1.9-3.3,1.9-5.9c0-2-0.8-3.9-2.3-5.6l-16.8-18.8c-3.1-3.4-4.6-7.2-4.6-11.2v-4c0-4.3,1.5-8,4.6-11.1
		c3.1-3.1,6.8-4.7,11.2-4.7h7.9C41.3,512.8,46.6,518,47.2,528.6z"/>
	<path id="XMLID_103_" class="st0" d="M63.1,520.7v-7.9h15.8v7.9H63.1z M63.1,584v-55.4h15.8V584H63.1z"/>
	<path id="XMLID_106_" class="st0" d="M126.5,552.3v-7.9c0-2.2-0.8-4-2.4-5.6c-1.6-1.6-3.4-2.3-5.6-2.3h-7.9c-4.7,0-7.3,2.6-7.9,7.9
		h-7.9c1.2-10.6,6.5-15.9,15.8-15.9h15.9c4.3,0,8,1.6,11.2,4.7c3.1,3.1,4.7,6.9,4.7,11.2V584h-15.8v-7.9c-0.6,5.3-3.3,7.9-7.9,7.9
		h-7.9c-4.3,0-8-1.6-11.2-4.7c-3.1-3.1-4.7-6.8-4.7-11.2v-0.1c0-4.3,1.6-8,4.7-11.2s6.8-4.7,11.1-4.7H126.5z M126.5,560.3h-7.9
		c-2.2,0-4,0.8-5.6,2.3s-2.3,3.4-2.3,5.5v0.1c0,2.1,0.8,4,2.3,5.5c1.5,1.6,3.4,2.3,5.6,2.3c2.2,0,4.1-0.8,5.6-2.3
		c1.5-1.6,2.3-3.4,2.3-5.5V560.3z"/>
	<path id="XMLID_109_" class="st0" d="M205.6,584h-15.8v-39.6c0-2.2-0.8-4-2.4-5.6c-1.6-1.6-3.4-2.3-5.6-2.3c-2.2,0-4,0.8-5.6,2.3
		s-2.3,3.4-2.3,5.6V584h-15.8v-55.4h15.8v7.9c0.3-2.7,1.1-4.7,2.5-6c1.3-1.3,3.1-2,5.5-2h7.9c5.4,0,9.3,1.9,11.9,5.6
		c1.2-1.9,2.8-3.3,4.8-4.2c2-0.9,4.3-1.4,7.1-1.4h7.9c4.3,0,8.1,1.6,11.2,4.7c3.1,3.1,4.7,6.8,4.7,11.2V584h-15.9v-39.6
		c0-2.2-0.8-4-2.3-5.6s-3.4-2.4-5.5-2.4c-2.2,0-4,0.8-5.6,2.3s-2.3,3.4-2.3,5.6V584z"/>
	<path id="XMLID_111_" class="st0" d="M292.6,528.6h-7.9c-0.7-5.3-3.2-7.9-7.5-7.9c-2.8,0-4.9,0.7-6.3,2s-2.1,3.3-2.1,6
		c0,2,0.8,3.8,2.3,5.6L288,553c3.1,3.5,4.6,7.2,4.6,11.2v4c0,4.3-1.5,8-4.6,11.1c-3.1,3.1-6.8,4.7-11.2,4.7h-7.9
		c-5.2,0-9.2-1.3-11.8-4c-2.6-2.6-4-6.6-4-11.8h7.9c0,0.5-0.1,1-0.1,1.3c0,2.2,0.8,3.8,2.5,4.9c1.7,1.1,3.5,1.7,5.5,1.7
		c2.8,0,4.8-0.7,6.1-2c1.2-1.4,1.9-3.3,1.9-5.9c0-2-0.8-3.9-2.3-5.6l-16.8-18.8c-3.1-3.4-4.6-7.2-4.6-11.2v-4c0-4.3,1.5-8,4.6-11.1
		c3.1-3.1,6.8-4.7,11.2-4.7h7.9C286.7,512.8,292,518,292.6,528.6z"/>
	<path id="XMLID_113_" class="st0" d="M356,528.6v71.2h-15.9l0.1-23.8c-0.6,5.3-3.3,7.9-7.9,7.9h-7.9c-4.3,0-8-1.6-11.2-4.7
		c-3.1-3.1-4.7-6.9-4.7-11.2v-23.8c0-4.3,1.5-8,4.6-11.1c3.1-3.1,6.8-4.7,11.2-4.7H356z M340.2,536.5h-7.9c-2.2,0-4,0.8-5.6,2.3
		s-2.3,3.4-2.3,5.5v23.8c0,2.2,0.8,4,2.3,5.6c1.5,1.6,3.4,2.4,5.6,2.4c2.2,0,4.1-0.8,5.6-2.3c1.5-1.6,2.3-3.4,2.3-5.5V536.5z"/>
	<path id="XMLID_116_" class="st0" d="M419.3,528.6V584h-15.8v-7.9c-0.6,5.3-3.3,7.9-7.9,7.9h-7.9c-4.3,0-8-1.6-11.2-4.7
		c-3.1-3.1-4.7-6.8-4.7-11.2v-39.6h15.8v39.6c0,2.1,0.8,4,2.3,5.5c1.5,1.6,3.4,2.3,5.6,2.3c2.2,0,4.1-0.8,5.6-2.3
		c1.5-1.6,2.3-3.4,2.3-5.5v-39.6H419.3z"/>
	<path id="XMLID_118_" class="st0" d="M466.8,552.3v-7.9c0-2.2-0.8-4-2.4-5.6c-1.6-1.6-3.4-2.3-5.6-2.3h-7.9c-4.7,0-7.3,2.6-7.9,7.9
		h-7.9c1.2-10.6,6.5-15.9,15.8-15.9h15.9c4.3,0,8,1.6,11.2,4.7c3.1,3.1,4.7,6.9,4.7,11.2V584h-15.8v-7.9c-0.6,5.3-3.3,7.9-7.9,7.9
		h-7.9c-4.3,0-8-1.6-11.2-4.7c-3.1-3.1-4.7-6.8-4.7-11.2v-0.1c0-4.3,1.6-8,4.7-11.2s6.8-4.7,11.1-4.7H466.8z M466.8,560.3h-7.9
		c-2.2,0-4,0.8-5.6,2.3s-2.3,3.4-2.3,5.5v0.1c0,2.1,0.8,4,2.3,5.5c1.5,1.6,3.4,2.3,5.6,2.3c2.2,0,4.1-0.8,5.6-2.3
		c1.5-1.6,2.3-3.4,2.3-5.5V560.3z"/>
	<path id="XMLID_121_" class="st0" d="M514.2,584h-15.8v-55.4h15.8v15.9c0.6-5.3,2.3-9.3,4.9-11.9c2.6-2.6,6.3-4,11-4h7.9v15.9
		h-15.8c-2.2,0-4,0.8-5.6,2.3s-2.3,3.4-2.3,5.5V584z"/>
	<path id="XMLID_123_" class="st0" d="M593.4,560.3h-31.7v7.9c0,2.1,0.8,4,2.3,5.5c1.5,1.6,3.4,2.3,5.6,2.3h7.9
		c5.2,0,7.9-2.6,7.9-7.9h7.9c-1.2,10.5-6.5,15.8-15.8,15.8h-15.9c-4.3,0-8-1.6-11.2-4.7c-3.1-3.1-4.7-6.8-4.7-11.2v-23.8
		c0-4.4,1.6-8.1,4.7-11.2s6.8-4.7,11.1-4.7h15.9c4.3,0,8,1.6,11.2,4.7c3.1,3.1,4.7,6.9,4.7,11.2V560.3z M561.7,552.3h15.9v-7.9
		c0-2.2-0.8-4-2.4-5.6c-1.6-1.6-3.4-2.3-5.6-2.3c-2.2,0-4,0.8-5.6,2.3s-2.3,3.4-2.3,5.6V552.3z"/>
</g>
</svg>
