<?xml version="1.0" standalone="no"?>
<!DOCTYPE svg PUBLIC "-//W3C//DTD SVG 1.1//EN" "http://www.w3.org/Graphics/SVG/1.1/DTD/svg11.dtd" >
<svg xmlns="http://www.w3.org/2000/svg" xmlns:xlink="http://www.w3.org/1999/xlink" version="1.1">
<metadata>
Created by FontForge 20151104 at Tue Dec  1 20:22:05 2015
 By sungsit
Copyright 2013-2015, Sungsit Sawaiwan (https://fontuni.com | uni@fontuni.com). This Font Software is licensed under the SIL Open Font License, Version 1.1 (http://scripts.sil.org/OFL).
</metadata>
<defs>
<font id="Boon-600i" horiz-adv-x="0" >
  <font-face 
    font-family="Boon SemiBold"
    font-weight="600"
    font-style="italic"
    font-stretch="normal"
    units-per-em="1200"
    panose-1="2 0 5 3 0 0 0 0 0 0"
    ascent="960"
    descent="-240"
    x-height="600"
    cap-height="780"
    bbox="-623 -520 1123 1238"
    underline-thickness="60"
    underline-position="-120"
    slope="-9"
    stemh="98"
    stemv="137"
    unicode-range="U+0009-FEFF"
  />
<missing-glyph horiz-adv-x="660" 
d="M28 0l95 600h242h242l-95 -600h-242h-242zM286 103h114l63 394h-114h-114l-63 -394h114z" />
    <glyph glyph-name="uni0EDC" unicode="&#xeab;&#xe99;" horiz-adv-x="1120" 
d="M488 63c42 5 76 26 83 73l44 283c3 21 5 39 5 52c0 29 -8 40 -26 40c-20 0 -44 -19 -60 -40c-20 -47 -57 -73 -65 -121l-32 -205c-13 -84 -86 -160 -213 -160c-118 0 -171 61 -171 135c0 8 1 17 2 25l24 150c7 46 41 84 71 111c-52 4 -87 36 -87 85c0 6 0 11 1 17
c10 62 65 102 128 102c57 0 95 -32 95 -84c0 -6 0 -12 -1 -18c-13 -84 -69 -124 -83 -213l-25 -154c-1 -7 -2 -13 -2 -19c0 -40 27 -51 61 -51c43 0 79 14 88 70l29 184c5 32 28 61 49 82c-49 4 -82 37 -82 84c0 6 0 11 1 17c10 62 65 102 128 102c47 0 83 -23 93 -60
c31 31 73 60 113 60c69 0 91 -49 91 -113c0 -19 -2 -40 -5 -61l-35 -223c17 -77 48 -133 107 -133c30 0 67 19 80 101l66 419h128l-65 -411c-16 -104 -74 -204 -190 -204c-83 0 -128 45 -155 104c-40 -78 -132 -101 -176 -104zM427 468c24 0 40 17 44 40c1 3 1 6 1 9
c0 18 -11 31 -32 31c-24 0 -41 -17 -45 -40c-1 -3 -1 -5 -1 -8c0 -19 12 -32 33 -32zM169 468c24 0 40 17 44 40c1 3 1 6 1 9c0 18 -11 31 -32 31c-24 0 -41 -17 -45 -40c-1 -3 -1 -5 -1 -8c0 -19 12 -32 33 -32z" />
    <glyph glyph-name="uni0EDD" unicode="&#xeab;&#xea1;" horiz-adv-x="1120" 
d="M604 132c-24 0 -40 -17 -44 -40c-1 -3 -1 -6 -1 -9c0 -18 11 -31 32 -31c24 0 41 17 45 40c1 3 1 5 1 8c0 19 -12 32 -33 32zM427 468c24 0 40 17 44 40c1 3 1 6 1 9c0 18 -11 31 -32 31c-24 0 -41 -17 -45 -40c-1 -3 -1 -5 -1 -8c0 -19 12 -32 33 -32zM169 468
c24 0 40 17 44 40c1 3 1 6 1 9c0 18 -11 31 -32 31c-24 0 -41 -17 -45 -40c-1 -3 -1 -5 -1 -8c0 -19 12 -32 33 -32zM55 145l24 150c7 46 41 84 71 111c-52 4 -87 36 -87 85c0 6 0 11 1 17c10 62 65 102 128 102c57 0 95 -32 95 -84c0 -6 0 -12 -1 -18
c-13 -84 -69 -124 -83 -213l-25 -154c-1 -7 -2 -13 -2 -19c0 -40 27 -51 61 -51c43 0 79 14 88 70l29 184c5 32 28 61 49 82c-49 4 -82 37 -82 84c0 6 0 11 1 17c10 62 65 102 128 102c47 0 83 -23 93 -60c31 31 73 60 113 60c69 0 91 -49 91 -113c0 -19 -2 -40 -5 -61
l-36 -226c-1 -6 -2 -13 -2 -18c0 -8 1 -16 2 -23c34 -35 61 -89 118 -89c38 0 58 27 71 109l65 411h128l-65 -411c-16 -104 -69 -204 -185 -204c-72 0 -109 43 -135 85c-18 -49 -67 -80 -122 -80c-57 0 -95 32 -95 84c0 6 0 12 1 18c9 55 53 93 107 101c-5 10 -8 21 -8 34
c0 4 0 9 1 13l28 179c3 21 5 39 5 52c0 29 -8 40 -26 40c-20 0 -44 -19 -60 -40c-20 -47 -57 -73 -65 -121l-32 -205c-13 -84 -86 -160 -213 -160c-118 0 -171 61 -171 135c0 8 1 17 2 25z" />
    <glyph glyph-name="ellipsis" unicode="&#x2e;&#x200d;&#x2e;&#x200d;&#x2e;" horiz-adv-x="870" 
d="M130 157c45 0 76 -26 76 -67c0 -5 0 -9 -1 -14c-8 -50 -51 -81 -101 -81c-45 0 -76 26 -76 67c0 5 0 9 1 14c8 50 51 81 101 81zM400 157c45 0 76 -26 76 -67c0 -5 0 -9 -1 -14c-8 -50 -51 -81 -101 -81c-45 0 -76 26 -76 67c0 5 0 9 1 14c8 50 51 81 101 81zM670 157
c45 0 76 -26 76 -67c0 -5 0 -9 -1 -14c-8 -50 -51 -81 -101 -81c-45 0 -76 26 -76 67c0 5 0 9 1 14c8 50 51 81 101 81z" />
    <glyph glyph-name="uni0E4F.extra" unicode="&#xe4f;&#x200d;&#x2e;&#x200d;&#x2e;" horiz-adv-x="660" 
d="M324 340c-24 0 -40 -17 -44 -40c-1 -3 -1 -6 -1 -9c0 -18 11 -31 32 -31c24 0 41 17 45 40c1 3 1 5 1 8c0 19 -12 32 -33 32zM334 402c57 0 96 -32 96 -84c0 -6 0 -12 -1 -18c-10 -62 -65 -102 -128 -102c-57 0 -95 32 -95 84c0 6 0 12 1 18c10 62 64 102 127 102z
M277 46c-149 0 -231 91 -231 210c0 14 2 29 4 44c22 140 141 254 308 254c149 0 231 -92 231 -211c0 -14 -1 -28 -3 -43c-22 -140 -142 -254 -309 -254zM288 115c106 0 194 69 212 185c2 13 3 25 3 37c0 93 -62 148 -156 148c-106 0 -193 -69 -211 -185
c-2 -13 -3 -25 -3 -37c0 -93 61 -148 155 -148zM456 895h104l-59 -265h-69zM263 895h103l-59 -265h-69z" />
    <glyph glyph-name="uni0E240E45.liga" unicode="&#xe24;&#x200d;&#xe45;" horiz-adv-x="950" 
d="M154 132c-24 0 -40 -17 -44 -40c-1 -3 -1 -6 -1 -9c0 -18 11 -31 32 -31c24 0 41 17 45 40c1 3 1 5 1 8c0 19 -12 32 -33 32zM553 543c37 40 91 71 164 71c115 0 172 -67 172 -150c0 -10 0 -20 -2 -30l-102 -644h-128l102 644c1 8 2 16 2 23c0 49 -31 62 -63 62
c-54 0 -86 -45 -105 -95c0 -9 0 -19 -2 -29l-96 -605h-128l96 605c1 10 2 19 2 27c0 72 -51 103 -127 103c-68 0 -117 -31 -147 -85l131 -29l-22 -53c-1 0 -19 4 -33 4c-38 0 -53 -25 -58 -57l-10 -65c-3 -19 -10 -34 -19 -47c48 -5 80 -36 80 -83c0 -6 0 -12 -1 -18
c-10 -62 -65 -102 -128 -102c-57 0 -95 32 -95 84c0 6 0 12 1 18c7 47 22 72 29 118l13 82c8 48 38 82 83 97l-114 23c31 104 137 208 305 208c91 0 160 -29 200 -77z" />
    <glyph glyph-name="uni0E260E45.liga" unicode="&#xe26;&#x200d;&#xe45;" horiz-adv-x="960" 
d="M109 132c-24 0 -40 -17 -44 -40c-1 -3 -1 -6 -1 -9c0 -18 11 -31 32 -31c24 0 41 17 45 40c1 3 1 5 1 8c0 19 -12 32 -33 32zM563 543c37 40 91 71 164 71c115 0 172 -67 172 -150c0 -10 0 -20 -2 -30l-102 -644h-128l102 644c1 8 2 16 2 23c0 49 -31 62 -63 62
c-54 0 -86 -45 -105 -95c0 -9 0 -19 -2 -29l-96 -605h-128l96 605c1 10 2 19 2 27c0 72 -51 103 -127 103c-67 0 -117 -30 -147 -84l146 -30l-22 -53c-1 0 -19 4 -33 4c-38 0 -53 -25 -58 -57l-15 -95c-2 -15 -3 -27 -3 -39c0 -13 1 -26 1 -39c0 -12 -1 -25 -3 -40
c-10 -62 -65 -102 -128 -102c-57 0 -95 32 -95 84c0 6 0 12 1 18c9 56 55 94 110 101c-4 10 -7 21 -7 33c0 5 0 9 1 14l8 52c8 48 36 81 81 96l-127 24c31 104 137 208 305 208c91 0 160 -29 200 -77z" />
    <glyph glyph-name="FontUni" unicode="[FontUni]" horiz-adv-x="840" 
d="M0 40v760c0 22 18 40 40 40h760c22 0 40 -18 40 -40v-760c0 -22 -18 -40 -40 -40h-128v420c0 141 -111 252 -252 252s-252 -111 -252 -252s111 -252 252 -252c18 0 36 2 52 5v-173h-432c-22 0 -40 18 -40 40zM315 420c0 59 46 105 105 105s105 -46 105 -105
s-46 -105 -105 -105s-105 46 -105 105z" />
    <glyph glyph-name=".notdef" horiz-adv-x="660" 
d="M28 0l95 600h242h242l-95 -600h-242h-242zM286 103h114l63 394h-114h-114l-63 -394h114z" />
    <glyph glyph-name="uni0000" 
 />
    <glyph glyph-name="uni0000" 
 />
    <glyph glyph-name="uni0009" unicode="&#x9;" horiz-adv-x="330" 
 />
    <glyph glyph-name="nonmarkingreturn" unicode="&#xd;" horiz-adv-x="330" 
 />
    <glyph glyph-name="space" unicode=" " horiz-adv-x="330" 
 />
    <glyph glyph-name="exclam" unicode="!" horiz-adv-x="330" 
d="M130 157c45 0 76 -26 76 -67c0 -5 0 -9 -1 -14c-8 -50 -51 -81 -101 -81c-45 0 -76 26 -76 67c0 5 0 9 1 14c8 50 51 81 101 81zM151 810h164l-119 -540h-96z" />
    <glyph glyph-name="quotedbl" unicode="&#x22;" horiz-adv-x="540" 
d="M178 900h130l-79 -360h-87zM398 900h130l-79 -360h-87z" />
    <glyph glyph-name="numbersign" unicode="#" horiz-adv-x="810" 
d="M11 198l15 94h141l83 196h-133l15 94h159l85 198h112l-85 -198h172l85 198h112l-85 -198h115l-15 -94h-141l-83 -196h133l-15 -94h-159l-84 -198h-112l84 198h-172l-84 -198h-112l84 198h-115zM362 488l-83 -196h172l83 196h-172z" />
    <glyph glyph-name="dollar" unicode="$" horiz-adv-x="660" 
d="M22 188l142 8v-2c0 -60 47 -106 120 -106c82 0 142 35 155 118c1 7 2 15 2 21c0 58 -45 79 -68 87c-48 16 -115 46 -161 65c-57 25 -113 77 -113 164c0 11 1 23 3 35c16 103 102 197 246 214l18 108h103l-18 -109c136 -23 175 -130 175 -194l-143 -10v2
c0 62 -38 103 -103 103c-60 0 -125 -33 -138 -114c-1 -6 -1 -11 -1 -16c0 -50 42 -71 72 -84c46 -19 109 -45 149 -59c66 -23 121 -75 121 -170c0 -13 -1 -28 -3 -43c-16 -103 -105 -199 -256 -218l-17 -108h-103l17 108c-153 19 -199 129 -199 198v2z" />
    <glyph glyph-name="percent" unicode="%" horiz-adv-x="780" 
d="M8 0l1 7l681 773h87l-2 -7l-680 -773h-87zM53 575l3 20c13 80 52 195 174 195c94 0 117 -67 117 -135c0 -20 -2 -41 -5 -60l-3 -20c-13 -80 -52 -195 -174 -195c-94 0 -117 67 -117 135c0 20 2 41 5 60zM175 440c30 0 65 41 80 135l3 20c3 21 5 39 5 55
c0 55 -19 80 -42 80c-30 0 -66 -41 -81 -135l-3 -20c-3 -20 -5 -38 -5 -54c0 -56 19 -81 43 -81zM441 185l3 20c13 80 52 195 174 195c94 0 117 -67 117 -135c0 -20 -2 -41 -5 -60l-3 -20c-13 -80 -52 -195 -174 -195c-94 0 -117 67 -117 135c0 20 2 41 5 60zM563 50
c30 0 65 41 80 135l3 20c3 21 5 39 5 55c0 55 -19 80 -42 80c-30 0 -66 -41 -81 -135l-3 -20c-3 -20 -5 -38 -5 -54c0 -56 19 -81 43 -81z" />
    <glyph glyph-name="ampersand" unicode="&#x26;" horiz-adv-x="810" 
d="M618 157c67 -83 121 -150 121 -150l-1 -7h-159s-23 29 -56 72c-79 -57 -173 -92 -274 -92c-156 0 -225 74 -225 165c0 10 0 20 2 30c18 111 126 190 233 252c-28 49 -52 107 -52 163c0 9 1 19 2 28c19 117 112 182 220 182c115 0 162 -65 162 -133c0 -8 -1 -16 -2 -24
c-14 -89 -79 -169 -175 -230c35 -44 87 -109 140 -175c36 52 63 113 78 177l117 -17c-20 -84 -67 -170 -131 -241zM465 147c-53 69 -113 149 -154 204c-92 -61 -135 -121 -144 -176c-1 -6 -2 -12 -2 -18c0 -49 38 -72 100 -72c79 0 146 23 200 62zM414 709
c-49 0 -73 -44 -81 -94c-1 -6 -1 -13 -1 -20c0 -34 12 -71 30 -106c64 48 100 107 107 154c1 5 1 10 1 14c0 35 -23 52 -56 52z" />
    <glyph glyph-name="quotesingle" unicode="'" horiz-adv-x="330" 
d="M183 900h130l-79 -360h-87z" />
    <glyph glyph-name="parenleft" unicode="(" horiz-adv-x="390" 
d="M59 390c35 222 139 395 267 523l80 -34c-113 -119 -190 -281 -223 -489c-9 -60 -14 -116 -14 -168c0 -130 28 -236 82 -321l-91 -34c-68 99 -113 226 -113 381c0 45 4 92 12 142z" />
    <glyph glyph-name="parenright" unicode=")" horiz-adv-x="390" 
d="M335 390c-35 -222 -139 -395 -267 -523l-81 34c113 119 191 281 224 489c9 59 14 114 14 166c0 131 -29 238 -83 323l92 34c68 -99 113 -226 113 -381c0 -45 -4 -92 -12 -142z" />
    <glyph glyph-name="asterisk" unicode="*" horiz-adv-x="570" 
d="M88 679l55 114l159 -83l6 190h120l-57 -190l188 83l18 -114l-194 -35l110 -138l-107 -71l-65 169l-119 -169l-86 71l155 138z" />
    <glyph glyph-name="plus" unicode="+" horiz-adv-x="600" 
d="M72 313l14 94h154l25 158h129l-25 -158h153l-14 -94h-153l-25 -158h-129l25 158h-154z" />
    <glyph glyph-name="comma" unicode="," horiz-adv-x="330" 
d="M29 73c8 49 46 85 101 85c62 0 85 -44 85 -93c0 -9 -1 -17 -2 -26c-18 -116 -109 -200 -186 -244l-34 56c49 28 96 76 119 145c-4 0 -9 -1 -13 -1c-42 0 -71 24 -71 63c0 5 0 10 1 15z" />
    <glyph glyph-name="hyphen" unicode="-" horiz-adv-x="600" 
d="M87 412h436l-16 -104h-436z" />
    <glyph glyph-name="period" unicode="." horiz-adv-x="330" 
d="M130 157c45 0 76 -26 76 -67c0 -5 0 -9 -1 -14c-8 -50 -51 -81 -101 -81c-45 0 -76 26 -76 67c0 5 0 9 1 14c8 50 51 81 101 81z" />
    <glyph glyph-name="slash" unicode="/" horiz-adv-x="510" 
d="M-30 0l1 7l449 773h124l-2 -7l-448 -773h-124z" />
    <glyph glyph-name="zero" unicode="0" horiz-adv-x="660" 
d="M52 372l6 36c26 167 106 392 339 392c179 0 225 -133 225 -270c0 -41 -4 -83 -10 -122l-6 -36c-26 -167 -106 -392 -339 -392c-179 0 -225 133 -225 270c0 41 4 83 10 122zM283 85c76 0 151 96 181 287l6 36c6 41 10 78 10 110c0 118 -40 177 -100 177
c-76 0 -150 -96 -180 -287l-6 -36c-7 -42 -10 -79 -10 -112c0 -117 40 -175 99 -175z" />
    <glyph glyph-name="one" unicode="1" horiz-adv-x="660" 
d="M128 630l288 156l100 -10l-105 -664h145l-18 -112h-470l18 112h185l82 518l-181 -101z" />
    <glyph glyph-name="two" unicode="2" horiz-adv-x="660" 
d="M10 52c28 177 193 282 312 352c84 50 150 96 162 170c2 10 2 19 2 28c0 51 -25 94 -104 94c-62 0 -116 -50 -134 -103l-144 14c25 71 119 193 293 193c193 0 228 -116 228 -191c0 -13 -1 -25 -3 -35c-20 -128 -144 -210 -226 -259c-103 -62 -186 -119 -218 -203h377
l-18 -112h-527s-2 10 -2 25c0 8 0 17 2 27z" />
    <glyph glyph-name="three" unicode="3" horiz-adv-x="660" 
d="M-7 134l144 26c6 -29 29 -77 119 -77c114 0 156 70 166 134c1 9 2 18 2 26c0 54 -32 93 -120 93h-110l17 103h96c75 0 138 54 151 134c2 10 2 19 2 28c0 51 -25 94 -104 94c-62 0 -115 -49 -133 -102l-144 13c25 71 118 194 292 194c193 0 229 -118 229 -193
c0 -13 -2 -24 -3 -34c-13 -84 -69 -137 -126 -171c76 -31 99 -94 99 -147c0 -10 -1 -20 -2 -29c-13 -80 -81 -246 -328 -246c-185 0 -238 109 -247 154z" />
    <glyph glyph-name="four" unicode="4" horiz-adv-x="660" 
d="M346 188h-343l1 68l454 530l118 -10l-77 -484h125l-16 -104h-125l-30 -188h-137zM366 292l48 301l-254 -301h206z" />
    <glyph glyph-name="five" unicode="5" horiz-adv-x="660" 
d="M13 134l144 26c6 -29 28 -77 118 -77c114 0 158 80 170 154c2 14 4 29 4 43c0 61 -26 111 -108 111c-64 0 -125 -47 -163 -92l-94 55l83 426h461l-17 -103h-329l-44 -226c37 22 87 39 146 39c175 0 210 -124 210 -206c0 -15 -1 -28 -3 -39c-13 -84 -85 -265 -332 -265
c-185 0 -237 109 -246 154z" />
    <glyph glyph-name="six" unicode="6" horiz-adv-x="660" 
d="M59 299l22 136c19 120 79 365 329 365c182 0 218 -123 224 -165l-143 -22c-6 37 -26 82 -98 82c-92 0 -144 -101 -169 -251c42 28 95 45 156 45c149 0 214 -97 214 -206c0 -15 -2 -31 -4 -46c-21 -134 -131 -257 -310 -257c-157 0 -228 92 -228 235c0 26 2 55 7 84z
M198 275c-3 -21 -4 -41 -4 -58c0 -111 53 -132 102 -132c67 0 135 41 153 152c2 14 3 27 3 39c0 76 -42 115 -112 115c-60 0 -115 -39 -142 -116z" />
    <glyph glyph-name="seven" unicode="7" horiz-adv-x="660" 
d="M103 668l18 112h525l-3 -78c-127 -141 -299 -414 -336 -647l-9 -55h-149l9 55c33 208 184 448 313 613h-368z" />
    <glyph glyph-name="eight" unicode="8" horiz-adv-x="660" 
d="M267 -20c-162 0 -253 86 -253 195c0 10 0 20 2 31c19 119 118 170 185 195c-50 26 -95 70 -95 144c0 10 1 22 3 33c19 119 130 222 288 222c143 0 221 -84 221 -188c0 -11 -1 -22 -3 -34c-15 -94 -81 -147 -148 -177c53 -23 126 -67 126 -162c0 -11 -1 -21 -3 -33
c-19 -123 -146 -226 -323 -226zM283 83c87 0 149 41 162 123c2 10 2 19 2 27c0 61 -39 87 -77 101c-11 5 -27 11 -44 17c-19 -6 -37 -12 -50 -17c-49 -16 -102 -48 -115 -128c-1 -9 -2 -17 -2 -25c0 -65 46 -98 124 -98zM380 697c-56 0 -116 -33 -130 -119
c-1 -9 -2 -16 -2 -24c0 -53 31 -83 61 -93c9 -4 20 -8 32 -12c14 4 25 8 36 12c38 12 86 49 97 117c2 10 2 19 2 27c0 66 -46 92 -96 92z" />
    <glyph glyph-name="nine" unicode="9" horiz-adv-x="660" 
d="M604 481l-21 -136c-19 -120 -79 -365 -329 -365c-182 0 -218 123 -224 165l142 22c6 -37 26 -82 98 -82c92 0 144 101 169 251c-42 -28 -95 -45 -156 -45c-149 0 -213 97 -213 206c0 15 2 30 4 46c21 134 131 257 310 257c157 0 227 -92 227 -235c0 -26 -2 -54 -7 -84z
M466 505c3 21 4 40 4 57c0 112 -53 133 -103 133c-67 0 -134 -41 -152 -152c-2 -14 -3 -27 -3 -39c0 -76 42 -115 112 -115c60 0 115 39 142 116z" />
    <glyph glyph-name="colon" unicode=":" horiz-adv-x="330" 
d="M130 157c45 0 76 -26 76 -67c0 -5 0 -9 -1 -14c-8 -50 -51 -81 -101 -81c-45 0 -76 26 -76 67c0 5 0 9 1 14c8 50 51 81 101 81zM196 577c45 0 77 -25 77 -67c0 -5 0 -9 -1 -14c-8 -50 -51 -81 -101 -81c-45 0 -76 26 -76 67c0 5 0 9 1 14c8 50 50 81 100 81z" />
    <glyph glyph-name="semicolon" unicode=";" horiz-adv-x="330" 
d="M196 577c45 0 77 -25 77 -67c0 -5 0 -9 -1 -14c-8 -50 -51 -81 -101 -81c-45 0 -76 26 -76 67c0 5 0 9 1 14c8 50 50 81 100 81zM29 73c8 49 46 85 101 85c62 0 85 -44 85 -93c0 -9 -1 -17 -2 -26c-18 -116 -109 -200 -186 -244l-34 56c49 28 96 76 119 145
c-4 0 -9 -1 -13 -1c-42 0 -71 24 -71 63c0 5 0 10 1 15z" />
    <glyph glyph-name="less" unicode="&#x3c;" horiz-adv-x="600" 
d="M73 322l6 38l6 38l449 248l8 -107l-334 -179l278 -179l-42 -107z" />
    <glyph glyph-name="equal" unicode="=" horiz-adv-x="600" 
d="M89 421l15 98h436l-15 -98h-436zM54 201l15 98h436l-15 -98h-436z" />
    <glyph glyph-name="greater" unicode="&#x3e;" horiz-adv-x="600" 
d="M521 398l-6 -38l-6 -38l-449 -248l-8 107l334 179l-278 179l42 107z" />
    <glyph glyph-name="question" unicode="?" horiz-adv-x="570" 
d="M250 157c45 0 76 -26 76 -67c0 -5 0 -9 -1 -14c-8 -50 -51 -81 -101 -81c-45 0 -76 26 -76 67c0 5 0 9 1 14c8 50 51 81 101 81zM90 643c16 103 120 187 267 187c126 0 199 -64 199 -163c0 -11 -1 -23 -3 -35c-26 -164 -226 -201 -243 -309c-1 -8 -2 -16 -2 -23
c0 -10 1 -19 4 -27l-113 -12c-7 17 -11 34 -11 51c0 6 1 12 2 19c25 155 198 176 217 297c1 9 2 17 2 25c0 56 -37 71 -72 71c-50 0 -93 -25 -102 -81c-1 -7 -2 -14 -2 -21c0 -12 2 -23 5 -34l-142 -34c-5 19 -8 39 -8 59c0 10 0 20 2 30z" />
    <glyph glyph-name="at" unicode="@" horiz-adv-x="1020" 
d="M53 237c40 252 258 543 569 543c228 0 332 -142 332 -312c0 -23 -2 -48 -6 -72c-26 -162 -151 -362 -304 -362c-58 0 -80 29 -87 63c-40 -41 -88 -69 -142 -69c-121 0 -160 82 -160 162c0 14 1 27 3 40c21 135 148 334 351 335h1c86 0 115 -57 115 -109
c0 -8 -1 -15 -2 -22c-7 -44 -40 -125 -45 -140c-21 -62 -34 -107 -39 -138c-2 -10 -2 -18 -2 -25c0 -19 6 -28 18 -28c70 0 190 136 215 293c4 23 5 45 5 66c0 144 -84 249 -264 249c-246 0 -443 -241 -480 -474c-4 -26 -6 -51 -6 -76c0 -158 88 -282 298 -282
c66 0 154 35 181 50l34 -57c-38 -22 -134 -62 -226 -62c-260 0 -366 160 -366 345c0 27 3 55 7 82zM428 106c67 0 117 74 159 202c5 14 37 98 41 126c1 6 1 12 1 17c0 29 -16 36 -32 36c-98 -1 -216 -128 -236 -257c-2 -12 -3 -23 -3 -33c0 -62 32 -91 70 -91z" />
    <glyph glyph-name="A" unicode="A" horiz-adv-x="750" 
d="M682 0h-163l-29 158h-300l-79 -158h-163l2 10l428 770h122l184 -770zM471 262l-61 338l-169 -338h230z" />
    <glyph glyph-name="B" unicode="B" horiz-adv-x="745" 
d="M535 436c89 -28 141 -85 141 -169c0 -12 -1 -24 -3 -37c-24 -150 -171 -239 -365 -239c-129 0 -277 8 -286 9l124 780c8 1 145 9 261 9c142 0 251 -60 251 -170c0 -9 0 -18 -2 -28c-12 -75 -60 -124 -121 -155zM381 457c56 7 119 43 132 122c1 7 2 14 2 20
c0 62 -54 88 -141 88c-45 0 -89 -2 -107 -3l-36 -230c45 2 98 3 150 3zM175 98c35 -2 87 -4 133 -4c111 0 206 31 223 136c1 9 2 17 2 25c0 84 -81 107 -183 107c-46 0 -99 -2 -134 -4z" />
    <glyph glyph-name="C" unicode="C" horiz-adv-x="755" 
d="M56 406c28 179 143 394 423 394c206 0 274 -134 276 -215l-151 -13c-1 54 -45 118 -143 118c-134 0 -224 -104 -253 -284l-5 -32c-5 -30 -7 -58 -7 -84c0 -128 59 -200 170 -200c98 0 161 64 180 118l147 -13c-28 -81 -138 -215 -344 -215c-235 0 -305 152 -305 306
c0 30 2 59 7 88z" />
    <glyph glyph-name="D" unicode="D" horiz-adv-x="770" 
d="M182 97c23 -1 49 -1 69 -1c201 0 294 112 321 282l4 24c4 26 6 50 6 73c0 128 -67 209 -238 209c-20 0 -46 0 -69 -1zM146 780c0 0 112 9 215 9c275 0 366 -151 366 -313c0 -24 -2 -50 -6 -74l-4 -24c-29 -186 -165 -387 -482 -387c-103 0 -213 9 -213 9z" />
    <glyph glyph-name="E" unicode="E" horiz-adv-x="675" 
d="M22 0l124 780h530l-18 -111h-385l-37 -233h347l-16 -102h-347l-35 -223h400l-18 -111h-545z" />
    <glyph glyph-name="F" unicode="F" horiz-adv-x="640" 
d="M22 0l124 780h520l-18 -111h-373l-36 -228h335l-18 -112h-335l-52 -329h-147z" />
    <glyph glyph-name="G" unicode="G" horiz-adv-x="770" 
d="M404 294l16 103h300l-41 -261c-48 -68 -157 -156 -330 -156c-235 0 -305 152 -305 307c0 30 2 59 7 88l5 30c28 179 143 395 423 395c206 0 274 -134 276 -215l-150 -14c-1 54 -43 121 -143 121c-137 0 -228 -103 -257 -287l-5 -30c-5 -31 -7 -60 -7 -86
c0 -130 59 -201 173 -201c96 0 150 32 182 66l23 140h-167z" />
    <glyph glyph-name="H" unicode="H" horiz-adv-x="790" 
d="M22 0l124 780h145l-53 -334h336l53 334h145l-124 -780h-145l53 334h-336l-53 -334h-145z" />
    <glyph glyph-name="I" unicode="I" horiz-adv-x="320" 
d="M27 0l124 780h146l-124 -780h-146z" />
    <glyph glyph-name="J" unicode="J" horiz-adv-x="520" 
d="M-26 140l147 11c0 -50 23 -68 56 -68c32 0 70 15 81 83l98 614h145l-98 -614c-16 -98 -104 -186 -242 -186c-136 0 -187 84 -187 158v2z" />
    <glyph glyph-name="K" unicode="K" horiz-adv-x="715" 
d="M22 0l124 780h140l-55 -343l352 343l160 -11l-1 -7l-352 -314l268 -441l-1 -7h-170l-205 351l-75 -67l-45 -284h-140z" />
    <glyph glyph-name="L" unicode="L" horiz-adv-x="570" 
d="M22 0l124 780h147l-106 -669h323l-18 -111h-470z" />
    <glyph glyph-name="M" unicode="M" horiz-adv-x="880" 
d="M738 0h-143l81 511l-231 -316h-68l-131 316l-81 -511h-143l121 767l123 13l168 -439l308 439l117 -13z" />
    <glyph glyph-name="N" unicode="N" horiz-adv-x="790" 
d="M23 0l121 767l127 13l271 -547l87 547h142l-124 -780h-124l-271 547l-87 -547h-142z" />
    <glyph glyph-name="O" unicode="O" horiz-adv-x="820" 
d="M51 373l5 34c28 178 141 393 421 393c234 0 302 -150 302 -303c0 -30 -2 -61 -7 -90l-5 -34c-28 -178 -140 -393 -420 -393c-234 0 -303 151 -303 304c0 30 2 60 7 89zM364 87c137 0 226 107 254 286l5 34c5 31 7 59 7 85c0 127 -56 201 -170 201
c-137 0 -227 -107 -255 -286l-5 -34c-5 -30 -7 -58 -7 -84c0 -128 57 -202 171 -202z" />
    <glyph glyph-name="P" unicode="P" horiz-adv-x="710" 
d="M231 416c28 -2 67 -3 107 -3c111 0 206 32 223 137c1 9 2 18 2 26c0 85 -80 110 -181 110c-40 0 -81 -1 -109 -3zM214 312l-49 -312h-143l51 319l73 461c9 1 139 9 268 9c177 0 293 -74 293 -202c0 -12 -1 -24 -3 -37c-24 -150 -172 -240 -366 -240c-43 0 -86 1 -124 2z
" />
    <glyph glyph-name="Q" unicode="Q" horiz-adv-x="820" 
d="M51 373l5 34c28 178 141 393 421 393c234 0 302 -150 302 -303c0 -30 -2 -61 -7 -90l-5 -34c-13 -84 -45 -176 -105 -250l90 -80l-74 -82l-94 88c-61 -42 -139 -69 -237 -69c-234 0 -303 151 -303 304c0 30 2 60 7 89zM360 257l68 73l136 -121c25 44 44 100 54 164l5 34
c5 31 7 59 7 85c0 127 -56 201 -170 201c-137 0 -227 -107 -255 -286l-5 -34c-5 -30 -7 -58 -7 -84c0 -128 57 -202 171 -202c51 0 96 15 133 43z" />
    <glyph glyph-name="R" unicode="R" horiz-adv-x="730" 
d="M280 310c-23 0 -45 1 -66 2l-49 -312h-143l51 319l73 461c9 1 139 9 268 9c177 0 293 -74 293 -202c0 -12 -1 -24 -3 -37c-19 -123 -122 -205 -265 -231l209 -312l-1 -7h-164zM231 416c28 -2 67 -3 107 -3c111 0 206 32 223 137c1 9 2 18 2 26c0 85 -80 110 -181 110
c-40 0 -81 -1 -109 -3z" />
    <glyph glyph-name="S" unicode="S" horiz-adv-x="710" 
d="M16 182l146 20c1 -55 45 -117 146 -117c110 0 173 44 185 119c1 7 2 14 2 20c0 55 -41 74 -72 83c-54 15 -135 44 -190 64c-62 24 -140 75 -140 171c0 10 1 21 3 32c21 130 153 226 326 226c183 0 252 -120 255 -198l-146 -20c-1 55 -43 113 -126 113
c-91 0 -156 -44 -167 -114c-1 -5 -1 -10 -1 -15c0 -45 38 -64 77 -79c51 -19 130 -45 179 -60c72 -23 145 -76 145 -179c0 -12 -1 -25 -3 -38c-21 -130 -152 -230 -343 -230c-200 0 -274 122 -276 202z" />
    <glyph glyph-name="T" unicode="T" horiz-adv-x="620" 
d="M69 673l17 107h576l-17 -107h-215l-107 -673h-146l107 673h-215z" />
    <glyph glyph-name="U" unicode="U" horiz-adv-x="770" 
d="M51 242l86 538h147l-86 -538c-2 -12 -3 -23 -3 -33c0 -85 59 -123 144 -123c95 0 172 48 189 156l86 538h147l-86 -538c-23 -147 -161 -262 -353 -262c-174 0 -274 95 -274 222c0 13 1 26 3 40z" />
    <glyph glyph-name="V" unicode="V" horiz-adv-x="750" 
d="M73 758l1 9l174 13l97 -591l285 591l168 -13l-1 -9l-421 -758h-122z" />
    <glyph glyph-name="W" unicode="W" horiz-adv-x="1060" 
d="M1103 758l-347 -758h-124l-74 555l-250 -555h-124l-107 758l1 8l161 14l51 -574l240 554h120l66 -554l233 574l155 -14z" />
    <glyph glyph-name="X" unicode="X" horiz-adv-x="740" 
d="M108 758l1 8l163 14l118 -273l207 273l157 -14l-1 -8l-295 -344l226 -407l-1 -7h-168l-158 297l-251 -297h-168l1 7l356 407z" />
    <glyph glyph-name="Y" unicode="Y" horiz-adv-x="670" 
d="M63 758l1 9l165 13l114 -349l226 349l159 -13l-1 -9l-334 -467l-46 -291h-144l46 291z" />
    <glyph glyph-name="Z" unicode="Z" horiz-adv-x="670" 
d="M-19 82l504 586h-383l18 112h566l-3 -82l-502 -586h420l-18 -112h-605z" />
    <glyph glyph-name="bracketleft" unicode="[" horiz-adv-x="435" 
d="M33 -120l162 1020h240l-13 -82h-124l-136 -856h122l-13 -82h-238z" />
    <glyph glyph-name="backslash" unicode="\" horiz-adv-x="510" 
d="M420 0h-124l-204 773l2 7h124l203 -773z" />
    <glyph glyph-name="bracketright" unicode="]" horiz-adv-x="435" 
d="M406 900l-162 -1020h-240l13 82h124l136 856h-122l13 82h238z" />
    <glyph glyph-name="asciicircum" unicode="^" horiz-adv-x="630" 
d="M56 592l314 302h53l218 -302l-77 -48l-191 206l-256 -206z" />
    <glyph glyph-name="underscore" unicode="_" horiz-adv-x="600" 
d="M-60 0h600l-16 -104h-600z" />
    <glyph glyph-name="grave" unicode="`" horiz-adv-x="390" 
d="M63 818l115 76l224 -302l-77 -48z" />
    <glyph glyph-name="a" unicode="a" horiz-adv-x="625" 
d="M15 173c12 76 88 153 230 153c58 0 115 -4 160 -8l16 97c1 9 2 17 2 25c0 60 -43 82 -99 82c-58 0 -107 -33 -128 -103l-135 11c28 92 121 190 278 190c138 0 217 -74 217 -174c0 -10 0 -20 -2 -31l-42 -266c-2 -11 -3 -21 -3 -29c0 -30 13 -42 51 -47l-48 -88
c-37 5 -100 19 -115 79c-43 -44 -103 -79 -187 -79c-126 0 -198 60 -198 155c0 11 1 22 3 33zM400 237c-42 5 -102 11 -161 11c-38 0 -83 -22 -92 -76c-1 -8 -2 -15 -2 -22c0 -61 46 -83 95 -83c86 0 131 66 154 137z" />
    <glyph glyph-name="b" unicode="b" horiz-adv-x="675" 
d="M616 311l-3 -22c-21 -134 -113 -304 -301 -304c-78 0 -127 43 -156 97l-23 -82h-116l128 810h133l-44 -282c45 50 104 87 177 87c158 0 210 -120 210 -238c0 -22 -2 -45 -5 -66zM209 371l-23 -142c6 -80 44 -145 124 -145c81 0 144 66 166 205l3 22c4 25 6 48 6 68
c0 92 -40 137 -106 137c-80 0 -138 -65 -170 -145z" />
    <glyph glyph-name="c" unicode="c" horiz-adv-x="605" 
d="M34 288l3 24c21 134 105 308 332 308c166 0 219 -107 220 -171l-140 -12c-2 39 -33 84 -95 84c-86 0 -155 -72 -177 -209l-3 -24c-4 -23 -5 -44 -5 -63c0 -96 43 -146 115 -146c62 0 108 45 122 84l136 -12c-21 -64 -108 -171 -274 -171c-188 0 -240 120 -240 237
c0 24 2 48 6 71z" />
    <glyph glyph-name="d" unicode="d" horiz-adv-x="680" 
d="M34 289l3 22c21 134 113 304 301 304c73 0 122 -37 151 -87l44 282h133l-104 -661c-2 -11 -3 -21 -3 -29c0 -30 13 -42 51 -47l-48 -88c-44 6 -118 25 -118 112v8c-47 -65 -116 -120 -205 -120c-158 0 -210 120 -210 238c0 22 2 45 5 66zM464 371c-6 80 -44 145 -124 145
c-81 0 -144 -66 -166 -205l-3 -22c-4 -25 -6 -48 -6 -68c0 -92 40 -137 106 -137c80 0 138 65 170 145z" />
    <glyph glyph-name="e" unicode="e" horiz-adv-x="640" 
d="M33 287l5 26c21 135 108 307 328 307c158 0 228 -102 228 -215c0 -15 -2 -31 -4 -46c-5 -29 -13 -58 -23 -86l1 -1h-1h-403c-2 -17 -3 -34 -3 -49c0 -96 43 -147 119 -147c69 0 118 47 131 86l130 -12c-22 -66 -112 -170 -276 -170c-186 0 -238 119 -238 237
c0 24 2 47 6 70zM180 358h282v1c2 16 4 30 4 43c0 85 -48 122 -115 122c-80 0 -143 -59 -171 -166z" />
    <glyph glyph-name="f" unicode="f" horiz-adv-x="400" 
d="M46 514l14 86h85l11 72c9 58 62 158 198 158c82 0 128 -38 140 -49l-69 -73c-11 8 -38 27 -76 27c-32 0 -54 -25 -60 -63l-11 -72h142l-14 -86h-138l-81 -514h-137l81 514h-85z" />
    <glyph glyph-name="g" unicode="g" horiz-adv-x="670" 
d="M38 315c20 129 112 300 300 300c78 0 127 -42 156 -97l23 82h116l-98 -620c-19 -118 -130 -210 -283 -210c-150 0 -218 71 -227 114l131 36c5 -20 35 -56 110 -56c72 0 128 34 141 116l20 129c-46 -53 -107 -94 -184 -94c-159 0 -210 122 -210 238c0 21 2 42 5 62z
M464 370c-6 80 -44 145 -124 145c-81 0 -144 -66 -165 -200c-4 -23 -5 -45 -5 -64c0 -91 39 -136 106 -136c80 0 138 65 170 145z" />
    <glyph glyph-name="h" unicode="h" horiz-adv-x="665" 
d="M17 0l128 810h132l-54 -345c55 80 135 150 242 150c103 0 145 -74 145 -160c0 -14 -1 -29 -3 -44l-65 -411h-137l64 406c2 11 3 22 3 31c0 56 -32 70 -62 70c-80 0 -172 -98 -208 -201l-48 -306h-137z" />
    <glyph glyph-name="i" unicode="i" horiz-adv-x="300" 
d="M21 0l95 600h138l-95 -600h-138zM226 861c45 0 77 -25 77 -67c0 -5 0 -9 -1 -14c-8 -50 -51 -81 -101 -81c-45 0 -76 26 -76 67c0 5 0 9 1 14c8 50 50 81 100 81z" />
    <glyph glyph-name="j" unicode="j" horiz-adv-x="310" 
d="M-93 -138c69 19 109 49 122 128l97 610h136l-98 -618c-19 -117 -124 -183 -228 -207zM235 861c45 0 77 -25 77 -67c0 -5 0 -9 -1 -14c-8 -50 -51 -81 -101 -81c-45 0 -76 26 -76 67c0 5 0 9 1 14c8 50 50 81 100 81z" />
    <glyph glyph-name="k" unicode="k" horiz-adv-x="605" 
d="M28 0l128 810h130l-72 -455l255 245l148 -9l-1 -5l-276 -243l209 -338l-1 -5h-156l-152 254l-48 -42l-34 -212h-130z" />
    <glyph glyph-name="l" unicode="l" horiz-adv-x="315" 
d="M41 134l107 676h137l-105 -663c-1 -6 -1 -11 -1 -16c0 -38 27 -52 83 -57l-40 -89c-77 6 -183 26 -183 124c0 8 1 16 2 25z" />
    <glyph glyph-name="m" unicode="m" horiz-adv-x="945" 
d="M101 593l126 10l-4 -108c44 66 106 118 194 118c87 0 129 -54 138 -123c44 68 107 123 197 123c100 0 139 -71 139 -155c0 -15 -2 -31 -4 -47l-65 -411h-137l64 406c2 13 3 24 3 34c0 53 -27 65 -55 65c-67 0 -127 -86 -158 -182l-51 -323h-137l64 406c2 13 3 24 3 34
c0 53 -27 65 -55 65c-67 0 -127 -86 -158 -182l-51 -323h-137l67 420z" />
    <glyph glyph-name="n" unicode="n" horiz-adv-x="655" 
d="M17 0l67 420l17 173l126 10l-5 -133c52 78 130 145 234 145c103 0 145 -73 145 -159c0 -15 -2 -30 -4 -45l-65 -411h-137l64 406c2 12 3 22 3 31c0 56 -32 70 -61 70c-78 0 -163 -97 -198 -200l-49 -307h-137z" />
    <glyph glyph-name="o" unicode="o" horiz-adv-x="660" 
d="M33 287l5 26c21 134 104 307 330 307c188 0 240 -120 240 -237c0 -24 -2 -47 -6 -70l-5 -26c-21 -134 -104 -307 -330 -307c-188 0 -240 120 -240 237c0 24 2 47 6 70zM282 78c90 0 156 72 178 209l5 26c4 23 6 45 6 65c0 95 -43 144 -118 144c-90 0 -156 -72 -178 -209
l-5 -26c-4 -23 -6 -45 -6 -65c0 -95 43 -144 118 -144z" />
    <glyph glyph-name="p" unicode="p" horiz-adv-x="675" 
d="M616 311l-3 -22c-21 -134 -113 -304 -301 -304c-71 0 -117 35 -147 82l-44 -277h-137l100 630l17 173l126 10l-3 -86c47 55 108 98 187 98c158 0 210 -120 210 -238c0 -22 -2 -45 -5 -66zM188 214c9 -73 47 -130 122 -130c81 0 144 66 166 205l3 22c4 25 6 48 6 68
c0 92 -40 137 -106 137c-75 0 -131 -57 -164 -130z" />
    <glyph glyph-name="q" unicode="q" horiz-adv-x="675" 
d="M34 289l3 22c21 134 113 304 301 304c78 0 127 -43 156 -97l23 82h116l-128 -810h-133l44 282c-45 -50 -104 -87 -177 -87c-158 0 -210 120 -210 238c0 22 2 45 5 66zM441 229l23 142c-6 80 -44 145 -124 145c-81 0 -144 -66 -166 -205l-3 -22c-4 -25 -6 -48 -6 -68
c0 -92 40 -137 106 -137c80 0 138 65 170 145z" />
    <glyph glyph-name="r" unicode="r" horiz-adv-x="435" 
d="M95 590l118 13l12 -128c37 75 94 140 183 140c28 0 51 -6 69 -16l-70 -112c-11 7 -23 11 -40 11c-61 0 -113 -81 -142 -175l-51 -323h-137l70 443z" />
    <glyph glyph-name="s" unicode="s" horiz-adv-x="570" 
d="M-1 141l135 17v-2c0 -41 35 -80 107 -80s118 32 126 83c1 5 1 9 1 13c0 38 -31 55 -52 61c-42 13 -102 30 -143 46c-50 19 -113 53 -113 133c0 8 0 17 2 27c16 102 121 181 261 181c152 0 205 -94 207 -158l-136 -17c0 42 -24 79 -86 79s-108 -31 -116 -80
c0 -3 -1 -6 -1 -9c0 -33 31 -49 57 -57c40 -14 102 -32 135 -43c59 -19 118 -54 118 -138c0 -10 -1 -21 -3 -33c-16 -104 -123 -184 -276 -184c-163 0 -221 96 -223 161z" />
    <glyph glyph-name="t" unicode="t" horiz-adv-x="415" 
d="M46 514l14 86h90l20 125l130 10l-21 -135h141l-14 -86h-138l-57 -360c-2 -13 -3 -23 -3 -32c0 -31 12 -39 38 -39c38 0 79 13 94 22l18 -89c-33 -16 -82 -31 -144 -31c-87 0 -146 32 -146 115c0 10 1 22 3 34l60 380h-85z" />
    <glyph glyph-name="u" unicode="u" horiz-adv-x="620" 
d="M28 191l65 409h137l-65 -409c-1 -9 -2 -18 -2 -26c0 -62 42 -87 99 -87c64 0 120 32 133 113l65 409h137l-65 -409c-18 -116 -129 -211 -285 -211c-142 0 -221 79 -221 180c0 10 0 20 2 31z" />
    <glyph glyph-name="v" unicode="v" horiz-adv-x="600" 
d="M39 583l1 7l151 10l76 -432l212 432l147 -10l-1 -7l-329 -583h-112z" />
    <glyph glyph-name="w" unicode="w" horiz-adv-x="830" 
d="M850 582l-266 -582h-116h-1l-51 394l-174 -394h-116l-82 582l1 8l147 10l34 -404l167 389h109l44 -391l162 406l143 -10z" />
    <glyph glyph-name="x" unicode="x" horiz-adv-x="600" 
d="M75 583l1 7l147 10l83 -190l142 190l143 -10l-1 -7l-223 -260l172 -318l-1 -5h-152l-111 214l-180 -214h-152l1 5l272 318z" />
    <glyph glyph-name="y" unicode="y" horiz-adv-x="600" 
d="M39 583l1 7l151 10l76 -436l212 436l147 -10l-1 -7l-336 -603c-62 -101 -118 -210 -247 -210c-55 0 -92 22 -115 42l78 81c14 -14 27 -29 47 -29c43 0 76 52 130 142v1z" />
    <glyph glyph-name="z" unicode="z" horiz-adv-x="530" 
d="M-27 68l369 437h-277l15 95h448l-3 -68l-369 -437h306l-15 -95h-477z" />
    <glyph glyph-name="braceleft" unicode="{" horiz-adv-x="390" 
d="M35 368l4 22l3 22c47 12 103 43 116 127c1 5 1 12 1 19c0 33 -7 85 -7 131c0 15 1 30 3 43c14 90 84 168 195 168h55l-11 -69h-38c-25 0 -67 -13 -82 -107c-2 -12 -3 -26 -3 -42c0 -35 4 -77 4 -112c0 -16 -1 -31 -3 -43c-12 -73 -54 -116 -108 -137
c41 -18 68 -52 68 -106c0 -10 -1 -20 -3 -31c-8 -51 -53 -148 -61 -197c-2 -15 -3 -28 -3 -39c0 -59 30 -68 51 -68h38l-11 -69h-55c-98 0 -144 60 -144 136c0 10 1 21 3 32c10 60 58 156 64 193c2 10 2 19 2 27c0 64 -40 89 -78 100z" />
    <glyph glyph-name="bar" unicode="|" horiz-adv-x="360" 
d="M41 -120l162 1020h120l-162 -1020h-120z" />
    <glyph glyph-name="braceright" unicode="}" horiz-adv-x="390" 
d="M358 412l-3 -22l-4 -22c-47 -12 -103 -43 -116 -127c-1 -5 -1 -11 -1 -18c0 -34 8 -87 8 -134c0 -15 -1 -29 -3 -41c-14 -90 -84 -168 -195 -168h-55l11 69h38c25 0 67 13 82 107c2 11 2 24 2 39c0 36 -3 81 -3 118c0 15 0 29 2 40c12 73 55 116 109 137
c-41 18 -69 51 -69 106c0 10 1 20 3 31c8 51 54 148 62 197c2 15 3 28 3 39c0 59 -30 68 -51 68h-38l11 69h55c98 0 144 -60 144 -136c0 -10 -1 -21 -3 -32c-10 -60 -59 -156 -65 -193c-2 -10 -2 -19 -2 -27c0 -64 40 -89 78 -100z" />
    <glyph glyph-name="asciitilde" unicode="~" horiz-adv-x="600" 
d="M28 320c42 85 95 177 193 177c66 0 99 -44 122 -71c25 -30 42 -45 58 -45c34 0 68 49 92 105l82 -26c-42 -85 -95 -177 -193 -177c-66 0 -100 44 -123 71c-25 30 -42 45 -58 45c-34 0 -67 -49 -91 -105z" />
    <glyph glyph-name="uni00A0" unicode="&#xa0;" horiz-adv-x="330" 
 />
    <glyph glyph-name="exclamdown" unicode="&#xa1;" horiz-adv-x="330" 
d="M154 -210h-164l119 540h96zM175 443c-45 0 -76 26 -76 67c0 5 0 9 1 14c8 50 51 81 101 81c45 0 76 -26 76 -67c0 -5 0 -9 -1 -14c-8 -50 -51 -81 -101 -81z" />
    <glyph glyph-name="cent" unicode="&#xa2;" horiz-adv-x="605" 
d="M38 318l4 24c20 124 92 282 283 305l22 133h103l-22 -134c124 -20 165 -111 166 -167l-140 -12c-2 39 -34 84 -96 84c-86 0 -154 -72 -176 -209l-4 -24c-4 -23 -5 -44 -5 -63c0 -96 43 -146 115 -146c62 0 109 45 123 84l136 -12c-19 -56 -89 -147 -219 -167l-21 -134
h-103l21 133c-149 19 -193 127 -193 234c0 24 2 48 6 71z" />
    <glyph glyph-name="sterling" unicode="&#xa3;" horiz-adv-x="660" 
d="M64 351l12 78h97l19 119c7 45 43 252 256 252c166 0 189 -129 191 -165l-138 -16c-3 44 -19 83 -69 83c-62 0 -91 -78 -103 -154l-19 -119h206l-12 -78h-206l-8 -51c-13 -85 -42 -150 -87 -202h366l-16 -98h-532v82c68 47 113 101 132 218l8 51h-97z" />
    <glyph glyph-name="currency" unicode="&#xa4;" horiz-adv-x="720" 
d="M631 156l-84 -72l-79 94c-41 -22 -90 -35 -145 -35s-100 13 -135 35l-109 -94l-60 72l105 91c-17 30 -24 65 -24 101c0 14 1 28 3 42c8 51 31 102 66 143l-76 91l83 72l79 -94c41 22 91 35 146 35s99 -13 134 -35l109 94l61 -72l-106 -91c17 -30 25 -66 25 -103
c0 -13 -1 -27 -3 -40c-8 -51 -32 -102 -67 -143zM339 246c74 0 139 50 154 144c2 11 3 22 3 32c0 73 -46 112 -111 112c-74 0 -139 -50 -154 -144c-2 -11 -3 -22 -3 -32c0 -73 46 -112 111 -112z" />
    <glyph glyph-name="yen" unicode="&#xa5;" horiz-adv-x="660" 
d="M83 306l13 78h119l-137 374l1 9l165 13l94 -349l206 349l159 -13l-1 -9l-255 -374h119l-13 -78h-160l-3 -6l-11 -66h163l-12 -78h-163l-25 -156h-144l25 156h-163l12 78h163l11 66l-3 6h-160z" />
    <glyph glyph-name="brokenbar" unicode="&#xa6;" horiz-adv-x="360" 
d="M131 450l72 450h120l-72 -450h-120zM41 -120l71 450h120l-71 -450h-120z" />
    <glyph glyph-name="section" unicode="&#xa7;" horiz-adv-x="660" 
d="M130 612c19 117 125 218 282 218c165 0 215 -123 215 -197v-2l-135 -10v3c0 59 -28 111 -95 111c-66 0 -121 -41 -134 -123c-1 -7 -2 -14 -2 -20c0 -50 34 -70 63 -84c41 -20 101 -46 141 -60c61 -22 118 -75 118 -168c0 -13 -1 -26 -3 -40c-8 -49 -38 -95 -83 -133
c10 -23 17 -50 17 -80c0 -11 -1 -23 -3 -35c-19 -119 -126 -222 -296 -222c-177 0 -232 125 -232 203l133 10v-3c0 -58 33 -115 114 -115c82 0 134 39 148 127c1 10 2 18 2 26c0 56 -34 76 -62 87c-43 18 -100 44 -146 65c-52 24 -114 77 -114 163c0 10 1 20 3 31
c8 49 38 98 88 134c-13 23 -21 50 -21 83c0 10 0 20 2 31zM425 185c10 14 18 31 22 55c2 10 2 19 2 27c0 57 -33 76 -57 86c-43 18 -105 44 -151 65c-7 3 -13 6 -19 10c-14 -17 -24 -37 -28 -64c-1 -6 -1 -12 -1 -17c0 -52 40 -74 70 -88c41 -20 94 -46 133 -60
c10 -4 19 -8 29 -14z" />
    <glyph glyph-name="dieresis" unicode="&#xa8;" horiz-adv-x="510" 
d="M207 854c41 0 69 -23 69 -61c0 -4 0 -8 -1 -13c-7 -46 -45 -74 -91 -74c-41 0 -68 22 -68 60c0 4 0 9 1 14c7 46 44 74 90 74zM453 854c41 0 69 -23 69 -61c0 -4 0 -8 -1 -13c-7 -46 -45 -74 -91 -74c-41 0 -68 22 -68 60c0 4 0 9 1 14c7 46 44 74 90 74z" />
    <glyph glyph-name="copyright" unicode="&#xa9;" horiz-adv-x="1020" 
d="M338 396l2 15c14 88 71 198 215 198c106 0 139 -69 141 -110l-87 -8c0 25 -21 54 -64 54c-58 0 -102 -46 -116 -134l-2 -15c-2 -15 -3 -29 -3 -41c0 -61 28 -93 76 -93c43 0 73 28 81 53l85 -8c-14 -41 -70 -109 -176 -109c-121 0 -156 77 -156 154c0 15 2 30 4 44z
M448 -15c-233 0 -369 143 -369 344c0 24 2 50 6 76c38 239 235 420 496 420c232 0 368 -144 368 -344c0 -25 -2 -50 -6 -76c-38 -239 -234 -420 -495 -420zM459 55c213 0 373 141 406 350c4 24 6 47 6 69c0 171 -112 281 -301 281c-213 0 -374 -141 -407 -350
c-4 -24 -6 -46 -6 -68c0 -171 113 -282 302 -282z" />
    <glyph glyph-name="ordfeminine" unicode="&#xaa;" horiz-adv-x="313" 
d="M55 597c6 38 43 78 118 78c26 0 51 -1 73 -3l7 44c1 4 1 8 1 12c0 28 -20 36 -43 36c-24 0 -46 -13 -55 -46l-79 6c13 46 61 96 143 96c71 0 112 -38 112 -89c0 -5 0 -10 -1 -15l-20 -128c-1 -6 -2 -11 -2 -15c0 -12 6 -17 24 -19l-28 -52c-18 2 -49 9 -60 36
c-21 -20 -50 -36 -90 -36c-66 0 -101 30 -101 78c0 5 0 11 1 17zM243 625c-20 2 -46 5 -72 5c-14 0 -35 -9 -39 -34c-1 -4 -1 -8 -1 -11c0 -27 21 -35 41 -35c38 0 59 28 69 62z" />
    <glyph glyph-name="guillemotleft" unicode="&#xab;" horiz-adv-x="780" 
d="M60 334l8 52l344 266l37 -68l-241 -224l171 -224l-59 -68zM355 334l8 52l345 266l36 -68l-241 -224l171 -224l-58 -68z" />
    <glyph glyph-name="logicalnot" unicode="&#xac;" horiz-adv-x="600" 
d="M71 308l16 104h435l-36 -227h-128l20 123h-307z" />
    <glyph glyph-name="uni00AD" unicode="&#xad;" horiz-adv-x="450" 
d="M72 412h316l-16 -104h-316z" />
    <glyph glyph-name="registered" unicode="&#xae;" horiz-adv-x="870" 
d="M417 263c-189 0 -298 116 -298 277c0 19 2 39 5 60c30 191 187 337 399 337c189 0 298 -116 298 -277c0 -19 -2 -39 -5 -60c-30 -191 -187 -337 -399 -337zM425 315c170 0 301 114 328 285c3 19 5 38 5 56c0 140 -92 229 -243 229c-170 0 -301 -114 -328 -285
c-3 -19 -5 -38 -5 -56c0 -140 92 -229 243 -229zM426 551h-18l-24 -151h-84l25 155l37 235s70 5 139 5c92 0 150 -40 150 -104c0 -6 -1 -12 -2 -18c-10 -60 -61 -103 -131 -117l103 -152l-1 -4h-96zM418 612c12 -1 28 -1 44 -1c51 0 95 12 103 62c1 4 1 8 1 12
c0 40 -38 50 -85 50c-16 0 -32 -1 -44 -2z" />
    <glyph glyph-name="macron" unicode="&#xaf;" horiz-adv-x="510" 
d="M110 737l13 86h404l-13 -86h-404z" />
    <glyph glyph-name="degree" unicode="&#xb0;" horiz-adv-x="330" 
d="M208 653c-77 0 -116 50 -116 107c0 7 1 13 2 20c10 65 69 127 155 127c77 0 117 -50 117 -107c0 -7 -1 -13 -2 -20c-10 -65 -70 -127 -156 -127zM218 715c30 0 61 21 68 65c1 5 1 10 1 15c0 34 -22 50 -48 50c-30 0 -60 -21 -67 -65c-1 -5 -1 -10 -1 -15
c0 -34 21 -50 47 -50z" />
    <glyph glyph-name="plusminus" unicode="&#xb1;" horiz-adv-x="600" 
d="M50 176l15 94h435l-15 -94h-435zM93 450l15 94h158l18 111h120l-18 -111h157l-15 -94h-157l-17 -111h-120l17 111h-158z" />
    <glyph glyph-name="two.sups" unicode="&#xb2;" horiz-adv-x="330" 
d="M54 540c14 88 96 142 155 176c42 24 71 46 76 79c1 5 1 10 1 14c0 24 -12 41 -45 41c-26 0 -49 -21 -58 -46l-84 8c13 36 59 98 150 98c100 0 118 -60 118 -98c0 -7 0 -12 -1 -17c-10 -65 -73 -107 -113 -131c-50 -30 -86 -55 -102 -89h182l-10 -65h-270s-2 12 1 30z" />
    <glyph glyph-name="three.sups" unicode="&#xb3;" horiz-adv-x="330" 
d="M87 812c13 36 58 98 149 98c101 0 119 -60 119 -98c0 -6 0 -12 -1 -17c-6 -40 -32 -66 -60 -84c36 -16 46 -45 46 -71c0 -5 0 -10 -1 -15c-6 -40 -41 -125 -168 -125c-95 0 -122 56 -127 78l84 16c3 -14 14 -34 53 -34c49 0 68 29 73 60c1 4 1 8 1 12c0 26 -15 40 -53 40
h-58l10 60h50c38 0 62 27 68 63c1 5 1 9 1 14c0 23 -11 41 -44 41c-26 0 -50 -21 -59 -46z" />
    <glyph glyph-name="acute" unicode="&#xb4;" horiz-adv-x="390" 
d="M467 818l-350 -274l-61 48l320 302z" />
    <glyph glyph-name="uni00B5" unicode="&#xb5;" horiz-adv-x="665" 
d="M112 600h137l-48 -306c4 -103 64 -201 144 -201c35 0 78 19 91 101l64 406h137l-65 -411c-16 -104 -86 -204 -206 -204c-107 0 -167 70 -196 150l-54 -345h-132z" />
    <glyph glyph-name="paragraph" unicode="&#xb6;" horiz-adv-x="725" 
d="M310 420l41 259c-74 -14 -131 -51 -143 -129c-1 -9 -2 -16 -2 -24c0 -62 42 -94 104 -106zM561 681c-20 1 -52 4 -89 5l-142 -896h-120l83 523c-141 16 -231 89 -231 201c0 12 1 23 3 36c24 150 172 239 366 239c129 0 257 -8 266 -9l-157 -990h-120z" />
    <glyph glyph-name="periodcentered" unicode="&#xb7;" horiz-adv-x="330" 
d="M175 441c45 0 76 -26 76 -67c0 -5 0 -9 -1 -14c-8 -50 -51 -81 -101 -81c-45 0 -76 26 -76 67c0 5 0 9 1 14c8 50 51 81 101 81z" />
    <glyph glyph-name="cedilla" unicode="&#xb8;" horiz-adv-x="330" 
d="M-58 -272c72 16 150 45 158 97c0 2 1 4 1 6c0 14 -13 25 -57 25c-14 0 -31 -2 -43 -4l-33 39l92 129h74l-73 -102h6c75 0 121 -25 121 -77c0 -5 0 -10 -1 -16c-18 -114 -178 -144 -233 -157z" />
    <glyph glyph-name="one.sups" unicode="&#xb9;" horiz-adv-x="330" 
d="M111 825l144 78l59 -6l-51 -322h70l-10 -65h-242l10 65h90l38 237l-83 -46z" />
    <glyph glyph-name="ordmasculine" unicode="&#xba;" horiz-adv-x="330" 
d="M64 654l1 12c10 65 52 154 170 154c98 0 123 -61 123 -119c0 -12 -1 -24 -3 -35l-1 -12c-10 -65 -52 -154 -170 -154c-98 0 -123 61 -123 119c0 12 1 24 3 35zM193 556c38 0 70 31 81 98l1 12c2 12 3 22 3 32c0 45 -21 66 -52 66c-38 0 -70 -31 -81 -98l-1 -12
c-2 -12 -3 -22 -3 -32c0 -45 21 -66 52 -66z" />
    <glyph glyph-name="guillemotright" unicode="&#xbb;" horiz-adv-x="780" 
d="M714 386l-8 -52l-344 -266l-37 68l241 224l-171 224l59 68zM419 386l-8 -52l-345 -266l-36 68l241 224l-171 224l58 68z" />
    <glyph glyph-name="onequarter" unicode="&#xbc;" horiz-adv-x="780" 
d="M8 0l1 7l681 773h87l-2 -7l-680 -773h-87zM92 705l144 78l59 -6l-51 -322h70l-10 -65h-242l10 65h90l38 237l-83 -46zM584 90h-166l1 40l223 263l69 -6l-37 -237h62l-10 -60h-62l-14 -90h-80zM596 150l20 130l-107 -130h87z" />
    <glyph glyph-name="onehalf" unicode="&#xbd;" horiz-adv-x="780" 
d="M92 705l144 78l59 -6l-51 -322h70l-10 -65h-242l10 65h90l38 237l-83 -46zM8 0l1 7l681 773h87l-2 -7l-680 -773h-87zM423 30c14 88 97 142 156 176c42 24 70 46 75 79c1 5 1 10 1 14c0 24 -12 41 -45 41c-26 0 -48 -21 -57 -46l-85 8c13 36 59 98 150 98
c100 0 118 -60 118 -98c0 -7 0 -12 -1 -17c-10 -65 -73 -107 -113 -131c-50 -30 -86 -55 -102 -89h182l-10 -65h-270s-2 12 1 30z" />
    <glyph glyph-name="threequarters" unicode="&#xbe;" horiz-adv-x="780" 
d="M584 90h-166l1 40l223 263l69 -6l-37 -237h62l-10 -60h-62l-14 -90h-80zM596 150l20 130l-107 -130h87zM8 0l1 7l681 773h87l-2 -7l-680 -773h-87zM68 692c13 36 58 98 149 98c101 0 119 -60 119 -98c0 -6 0 -12 -1 -17c-6 -40 -32 -66 -60 -84c36 -16 46 -45 46 -71
c0 -5 0 -10 -1 -15c-6 -40 -41 -125 -168 -125c-95 0 -122 56 -127 78l84 16c3 -14 14 -34 53 -34c49 0 68 29 73 60c1 4 1 8 1 12c0 26 -15 40 -53 40h-58l10 60h50c38 0 62 27 68 63c1 5 1 9 1 14c0 23 -11 41 -44 41c-26 0 -50 -21 -59 -46z" />
    <glyph glyph-name="questiondown" unicode="&#xbf;" horiz-adv-x="570" 
d="M455 -43c-16 -103 -120 -187 -267 -187c-126 0 -199 64 -199 163c0 11 1 23 3 35c26 164 226 201 243 309c1 8 2 16 2 23c0 10 -1 19 -4 27l113 12c7 -17 11 -34 11 -51c0 -6 -1 -12 -2 -19c-25 -155 -198 -176 -217 -297c-1 -9 -2 -17 -2 -25c0 -56 37 -71 72 -71
c50 0 93 25 102 81c1 7 2 14 2 21c0 12 -2 23 -5 34l142 34c5 -19 8 -39 8 -59c0 -10 0 -20 -2 -30zM295 443c-45 0 -76 26 -76 67c0 5 0 9 1 14c8 50 51 81 101 81c45 0 76 -26 76 -67c0 -5 0 -9 -1 -14c-8 -50 -51 -81 -101 -81z" />
    <glyph glyph-name="Agrave" unicode="&#xc0;" horiz-adv-x="750" 
d="M308 967l72 91l192 -163l-43 -53zM682 0h-163l-29 158h-300l-79 -158h-163l2 10l428 770h122l184 -770zM471 262l-61 338l-169 -338h230z" />
    <glyph glyph-name="Aacute" unicode="&#xc1;" horiz-adv-x="750" 
d="M628 967l-259 -125l-27 53l244 163zM682 0h-163l-29 158h-300l-79 -158h-163l2 10l428 770h122l184 -770zM471 262l-61 338l-169 -338h230z" />
    <glyph glyph-name="Acircumflex" unicode="&#xc2;" horiz-adv-x="750" 
d="M251 871l208 147h34l162 -147l-47 -43l-148 88l-176 -88zM682 0h-163l-29 158h-300l-79 -158h-163l2 10l428 770h122l184 -770zM471 262l-61 338l-169 -338h230z" />
    <glyph glyph-name="Atilde" unicode="&#xc3;" horiz-adv-x="750" 
d="M254 889c34 61 76 124 147 124c56 0 84 -31 102 -50c17 -18 26 -32 39 -32c27 0 54 54 66 76l65 -26c-34 -61 -75 -124 -146 -124c-56 0 -84 31 -102 50c-17 18 -26 32 -39 32c-28 0 -54 -54 -67 -76zM682 0h-163l-29 158h-300l-79 -158h-163l2 10l428 770h122l184 -770z
M471 262l-61 338l-169 -338h230z" />
    <glyph glyph-name="Adieresis" unicode="&#xc4;" horiz-adv-x="750" 
d="M351 1004c41 0 69 -23 69 -61c0 -4 0 -8 -1 -13c-7 -46 -45 -74 -91 -74c-41 0 -68 22 -68 60c0 4 0 9 1 14c7 46 44 74 90 74zM597 1004c41 0 69 -23 69 -61c0 -4 0 -8 -1 -13c-7 -46 -45 -74 -91 -74c-41 0 -68 22 -68 60c0 4 0 9 1 14c7 46 44 74 90 74zM682 0h-163
l-29 158h-300l-79 -158h-163l2 10l428 770h122l184 -770zM471 262l-61 338l-169 -338h230z" />
    <glyph glyph-name="Aring" unicode="&#xc5;" horiz-adv-x="750" 
d="M442 799c-65 0 -109 37 -109 96c0 7 1 13 2 20c11 71 72 116 144 116c65 0 108 -36 108 -95c0 -7 -1 -14 -2 -21c-11 -71 -71 -116 -143 -116zM451 860c35 0 59 23 64 55c1 4 1 7 1 11c0 26 -16 44 -47 44c-35 0 -59 -23 -64 -55c-1 -4 -1 -7 -1 -11c0 -26 16 -44 47 -44
zM682 0h-163l-29 158h-300l-79 -158h-163l2 10l428 770h122l184 -770zM471 262l-61 338l-169 -338h230z" />
    <glyph glyph-name="AE" unicode="&#xc6;" horiz-adv-x="980" 
d="M-48 0l2 10l498 770h59h61h409l-18 -111h-325l-37 -233h287l-16 -102h-287l-35 -223h340l-18 -111h-485l25 158h-205l-92 -158h-163zM488 637l-220 -375h160z" />
    <glyph glyph-name="Ccedilla" unicode="&#xc7;" horiz-adv-x="755" 
d="M209 -272c72 16 150 45 158 97c0 2 1 4 1 6c0 14 -13 25 -57 25c-14 0 -31 -2 -43 -4l-33 39l65 91c-195 20 -256 160 -256 303c0 30 2 60 7 89l5 32c28 179 143 394 423 394c206 0 274 -134 276 -215l-151 -13c-1 54 -45 118 -143 118c-134 0 -224 -104 -253 -284
l-5 -32c-5 -30 -7 -58 -7 -84c0 -128 59 -200 170 -200c98 0 161 64 180 118l147 -13c-26 -78 -129 -204 -320 -214l-45 -63h6c75 0 121 -25 121 -77c0 -5 0 -10 -1 -16c-18 -114 -178 -144 -233 -157z" />
    <glyph glyph-name="Egrave" unicode="&#xc8;" horiz-adv-x="675" 
d="M283 967l72 91l192 -163l-43 -53zM22 0l124 780h530l-18 -111h-385l-37 -233h347l-16 -102h-347l-35 -223h400l-18 -111h-545z" />
    <glyph glyph-name="Eacute" unicode="&#xc9;" horiz-adv-x="675" 
d="M603 967l-259 -125l-27 53l244 163zM22 0l124 780h530l-18 -111h-385l-37 -233h347l-16 -102h-347l-35 -223h400l-18 -111h-545z" />
    <glyph glyph-name="Ecircumflex" unicode="&#xca;" horiz-adv-x="675" 
d="M226 871l208 147h34l162 -147l-47 -43l-148 88l-176 -88zM22 0l124 780h530l-18 -111h-385l-37 -233h347l-16 -102h-347l-35 -223h400l-18 -111h-545z" />
    <glyph glyph-name="Edieresis" unicode="&#xcb;" horiz-adv-x="675" 
d="M326 1004c41 0 69 -23 69 -61c0 -4 0 -8 -1 -13c-7 -46 -45 -74 -91 -74c-41 0 -68 22 -68 60c0 4 0 9 1 14c7 46 44 74 90 74zM572 1004c41 0 69 -23 69 -61c0 -4 0 -8 -1 -13c-7 -46 -45 -74 -91 -74c-41 0 -68 22 -68 60c0 4 0 9 1 14c7 46 44 74 90 74zM22 0l124 780
h530l-18 -111h-385l-37 -233h347l-16 -102h-347l-35 -223h400l-18 -111h-545z" />
    <glyph glyph-name="Igrave" unicode="&#xcc;" horiz-adv-x="320" 
d="M93 967l72 91l192 -163l-43 -53zM27 0l124 780h146l-124 -780h-146z" />
    <glyph glyph-name="Iacute" unicode="&#xcd;" horiz-adv-x="320" 
d="M413 967l-259 -125l-27 53l244 163zM27 0l124 780h146l-124 -780h-146z" />
    <glyph glyph-name="Icircumflex" unicode="&#xce;" horiz-adv-x="320" 
d="M36 871l208 147h34l162 -147l-47 -43l-148 88l-176 -88zM27 0l124 780h146l-124 -780h-146z" />
    <glyph glyph-name="Idieresis" unicode="&#xcf;" horiz-adv-x="320" 
d="M136 1004c41 0 69 -23 69 -61c0 -4 0 -8 -1 -13c-7 -46 -45 -74 -91 -74c-41 0 -68 22 -68 60c0 4 0 9 1 14c7 46 44 74 90 74zM382 1004c41 0 69 -23 69 -61c0 -4 0 -8 -1 -13c-7 -46 -45 -74 -91 -74c-41 0 -68 22 -68 60c0 4 0 9 1 14c7 46 44 74 90 74zM27 0l124 780
h146l-124 -780h-146z" />
    <glyph glyph-name="Eth" unicode="&#xd0;" horiz-adv-x="770" 
d="M3 351l12 78h75l56 351s112 9 215 9c275 0 366 -151 366 -313c0 -24 -2 -50 -6 -74l-4 -24c-29 -186 -165 -387 -482 -387c-103 0 -213 9 -213 9l56 351h-75zM182 97c23 -1 49 -1 69 -1c201 0 294 112 321 282l4 24c4 26 6 50 6 73c0 128 -67 209 -238 209
c-20 0 -46 0 -69 -1l-40 -254h190l-12 -78h-190z" />
    <glyph glyph-name="Ntilde" unicode="&#xd1;" horiz-adv-x="790" 
d="M274 889c34 61 76 124 147 124c56 0 84 -31 102 -50c17 -18 26 -32 39 -32c27 0 54 54 66 76l65 -26c-34 -61 -75 -124 -146 -124c-56 0 -84 31 -102 50c-17 18 -26 32 -39 32c-28 0 -54 -54 -67 -76zM23 0l121 767l127 13l271 -547l87 547h142l-124 -780h-124l-271 547
l-87 -547h-142z" />
    <glyph glyph-name="Ograve" unicode="&#xd2;" horiz-adv-x="820" 
d="M343 967l72 91l192 -163l-43 -53zM51 373l5 34c28 178 141 393 421 393c234 0 302 -150 302 -303c0 -30 -2 -61 -7 -90l-5 -34c-28 -178 -140 -393 -420 -393c-234 0 -303 151 -303 304c0 30 2 60 7 89zM364 87c137 0 226 107 254 286l5 34c5 31 7 59 7 85
c0 127 -56 201 -170 201c-137 0 -227 -107 -255 -286l-5 -34c-5 -30 -7 -58 -7 -84c0 -128 57 -202 171 -202z" />
    <glyph glyph-name="Oacute" unicode="&#xd3;" horiz-adv-x="820" 
d="M663 967l-259 -125l-27 53l244 163zM51 373l5 34c28 178 141 393 421 393c234 0 302 -150 302 -303c0 -30 -2 -61 -7 -90l-5 -34c-28 -178 -140 -393 -420 -393c-234 0 -303 151 -303 304c0 30 2 60 7 89zM364 87c137 0 226 107 254 286l5 34c5 31 7 59 7 85
c0 127 -56 201 -170 201c-137 0 -227 -107 -255 -286l-5 -34c-5 -30 -7 -58 -7 -84c0 -128 57 -202 171 -202z" />
    <glyph glyph-name="Ocircumflex" unicode="&#xd4;" horiz-adv-x="820" 
d="M286 871l208 147h34l162 -147l-47 -43l-148 88l-176 -88zM51 373l5 34c28 178 141 393 421 393c234 0 302 -150 302 -303c0 -30 -2 -61 -7 -90l-5 -34c-28 -178 -140 -393 -420 -393c-234 0 -303 151 -303 304c0 30 2 60 7 89zM364 87c137 0 226 107 254 286l5 34
c5 31 7 59 7 85c0 127 -56 201 -170 201c-137 0 -227 -107 -255 -286l-5 -34c-5 -30 -7 -58 -7 -84c0 -128 57 -202 171 -202z" />
    <glyph glyph-name="Otilde" unicode="&#xd5;" horiz-adv-x="820" 
d="M289 889c34 61 76 124 147 124c56 0 84 -31 102 -50c17 -18 26 -32 39 -32c27 0 54 54 66 76l65 -26c-34 -61 -75 -124 -146 -124c-56 0 -84 31 -102 50c-17 18 -26 32 -39 32c-28 0 -54 -54 -67 -76zM51 373l5 34c28 178 141 393 421 393c234 0 302 -150 302 -303
c0 -30 -2 -61 -7 -90l-5 -34c-28 -178 -140 -393 -420 -393c-234 0 -303 151 -303 304c0 30 2 60 7 89zM364 87c137 0 226 107 254 286l5 34c5 31 7 59 7 85c0 127 -56 201 -170 201c-137 0 -227 -107 -255 -286l-5 -34c-5 -30 -7 -58 -7 -84c0 -128 57 -202 171 -202z" />
    <glyph glyph-name="Odieresis" unicode="&#xd6;" horiz-adv-x="820" 
d="M386 1004c41 0 69 -23 69 -61c0 -4 0 -8 -1 -13c-7 -46 -45 -74 -91 -74c-41 0 -68 22 -68 60c0 4 0 9 1 14c7 46 44 74 90 74zM632 1004c41 0 69 -23 69 -61c0 -4 0 -8 -1 -13c-7 -46 -45 -74 -91 -74c-41 0 -68 22 -68 60c0 4 0 9 1 14c7 46 44 74 90 74zM51 373l5 34
c28 178 141 393 421 393c234 0 302 -150 302 -303c0 -30 -2 -61 -7 -90l-5 -34c-28 -178 -140 -393 -420 -393c-234 0 -303 151 -303 304c0 30 2 60 7 89zM364 87c137 0 226 107 254 286l5 34c5 31 7 59 7 85c0 127 -56 201 -170 201c-137 0 -227 -107 -255 -286l-5 -34
c-5 -30 -7 -58 -7 -84c0 -128 57 -202 171 -202z" />
    <glyph glyph-name="multiply" unicode="&#xd7;" horiz-adv-x="600" 
d="M107 500l85 72l117 -139l161 139l61 -72l-162 -140l118 -140l-84 -72l-117 140l-163 -140l-60 72l162 140z" />
    <glyph glyph-name="Oslash" unicode="&#xd8;" horiz-adv-x="820" 
d="M51 373l5 34c28 178 141 393 421 393c98 0 167 -26 214 -68l70 73l54 -44l-79 -82c32 -52 44 -115 44 -179c0 -31 -3 -63 -8 -93l-5 -34c-28 -178 -140 -393 -420 -393c-101 0 -172 28 -219 72l-64 -67l-55 44l76 78c-30 51 -41 113 -41 176c0 30 2 61 7 90zM594 632
c-29 39 -73 61 -134 61c-137 0 -227 -107 -255 -286l-5 -34c-5 -29 -7 -57 -7 -82c0 -24 2 -46 6 -66zM623 564l-397 -411c28 -43 74 -66 138 -66c137 0 226 107 254 286l5 34c5 30 7 57 7 83c0 27 -2 52 -7 74z" />
    <glyph glyph-name="Ugrave" unicode="&#xd9;" horiz-adv-x="770" 
d="M318 967l72 91l192 -163l-43 -53zM51 242l86 538h147l-86 -538c-2 -12 -3 -23 -3 -33c0 -85 59 -123 144 -123c95 0 172 48 189 156l86 538h147l-86 -538c-23 -147 -161 -262 -353 -262c-174 0 -274 95 -274 222c0 13 1 26 3 40z" />
    <glyph glyph-name="Uacute" unicode="&#xda;" horiz-adv-x="770" 
d="M638 967l-259 -125l-27 53l244 163zM51 242l86 538h147l-86 -538c-2 -12 -3 -23 -3 -33c0 -85 59 -123 144 -123c95 0 172 48 189 156l86 538h147l-86 -538c-23 -147 -161 -262 -353 -262c-174 0 -274 95 -274 222c0 13 1 26 3 40z" />
    <glyph glyph-name="Ucircumflex" unicode="&#xdb;" horiz-adv-x="770" 
d="M261 871l208 147h34l162 -147l-47 -43l-148 88l-176 -88zM51 242l86 538h147l-86 -538c-2 -12 -3 -23 -3 -33c0 -85 59 -123 144 -123c95 0 172 48 189 156l86 538h147l-86 -538c-23 -147 -161 -262 -353 -262c-174 0 -274 95 -274 222c0 13 1 26 3 40z" />
    <glyph glyph-name="Udieresis" unicode="&#xdc;" horiz-adv-x="770" 
d="M361 1004c41 0 69 -23 69 -61c0 -4 0 -8 -1 -13c-7 -46 -45 -74 -91 -74c-41 0 -68 22 -68 60c0 4 0 9 1 14c7 46 44 74 90 74zM607 1004c41 0 69 -23 69 -61c0 -4 0 -8 -1 -13c-7 -46 -45 -74 -91 -74c-41 0 -68 22 -68 60c0 4 0 9 1 14c7 46 44 74 90 74zM51 242
l86 538h147l-86 -538c-2 -12 -3 -23 -3 -33c0 -85 59 -123 144 -123c95 0 172 48 189 156l86 538h147l-86 -538c-23 -147 -161 -262 -353 -262c-174 0 -274 95 -274 222c0 13 1 26 3 40z" />
    <glyph glyph-name="Yacute" unicode="&#xdd;" horiz-adv-x="670" 
d="M588 967l-259 -125l-27 53l244 163zM63 758l1 9l165 13l114 -349l226 349l159 -13l-1 -9l-334 -467l-46 -291h-144l46 291z" />
    <glyph glyph-name="Thorn" unicode="&#xde;" horiz-adv-x="725" 
d="M209 277c28 -2 67 -3 107 -3c111 0 206 32 223 137c1 9 2 18 2 26c0 85 -80 110 -181 110c-40 0 -81 -1 -109 -3zM268 648c38 1 81 2 124 2c177 0 293 -74 293 -202c0 -12 -1 -24 -3 -37c-24 -150 -172 -240 -366 -240c-43 0 -86 1 -124 2l-27 -173h-143l29 180l73 461
l22 139h143z" />
    <glyph glyph-name="germandbls" unicode="&#xdf;" horiz-adv-x="780" 
d="M280 144l129 9v-2c0 -44 29 -75 75 -75c48 0 92 24 101 83c1 4 1 8 1 11c0 40 -34 58 -49 64c-34 14 -73 34 -105 48c-46 20 -96 58 -96 130c0 8 1 17 2 26c15 97 97 170 220 170h6c-10 92 -78 126 -148 126c-65 0 -144 -29 -165 -161l-91 -573h-137l91 573
c25 160 155 257 317 257c167 0 250 -109 250 -240c0 -9 0 -18 -1 -27l-73 -56c-8 5 -24 14 -58 14c-38 0 -73 -20 -81 -70c-1 -5 -1 -9 -1 -13c0 -40 32 -58 49 -65c32 -14 74 -34 103 -46c47 -19 97 -59 97 -136c0 -10 -1 -21 -3 -32c-14 -91 -100 -179 -244 -179
c-150 0 -189 103 -189 162v2z" />
    <glyph glyph-name="agrave" unicode="&#xe0;" horiz-adv-x="625" 
d="M219 817l72 91l192 -163l-43 -53zM15 173c12 76 88 153 230 153c58 0 115 -4 160 -8l16 97c1 9 2 17 2 25c0 60 -43 82 -99 82c-58 0 -107 -33 -128 -103l-135 11c28 92 121 190 278 190c138 0 217 -74 217 -174c0 -10 0 -20 -2 -31l-42 -266c-2 -11 -3 -21 -3 -29
c0 -30 13 -42 51 -47l-48 -88c-37 5 -100 19 -115 79c-43 -44 -103 -79 -187 -79c-126 0 -198 60 -198 155c0 11 1 22 3 33zM400 237c-42 5 -102 11 -161 11c-38 0 -83 -22 -92 -76c-1 -8 -2 -15 -2 -22c0 -61 46 -83 95 -83c86 0 131 66 154 137z" />
    <glyph glyph-name="aacute" unicode="&#xe1;" horiz-adv-x="625" 
d="M539 817l-259 -125l-27 53l244 163zM15 173c12 76 88 153 230 153c58 0 115 -4 160 -8l16 97c1 9 2 17 2 25c0 60 -43 82 -99 82c-58 0 -107 -33 -128 -103l-135 11c28 92 121 190 278 190c138 0 217 -74 217 -174c0 -10 0 -20 -2 -31l-42 -266c-2 -11 -3 -21 -3 -29
c0 -30 13 -42 51 -47l-48 -88c-37 5 -100 19 -115 79c-43 -44 -103 -79 -187 -79c-126 0 -198 60 -198 155c0 11 1 22 3 33zM400 237c-42 5 -102 11 -161 11c-38 0 -83 -22 -92 -76c-1 -8 -2 -15 -2 -22c0 -61 46 -83 95 -83c86 0 131 66 154 137z" />
    <glyph glyph-name="acircumflex" unicode="&#xe2;" horiz-adv-x="625" 
d="M162 721l208 147h34l162 -147l-47 -43l-148 88l-176 -88zM15 173c12 76 88 153 230 153c58 0 115 -4 160 -8l16 97c1 9 2 17 2 25c0 60 -43 82 -99 82c-58 0 -107 -33 -128 -103l-135 11c28 92 121 190 278 190c138 0 217 -74 217 -174c0 -10 0 -20 -2 -31l-42 -266
c-2 -11 -3 -21 -3 -29c0 -30 13 -42 51 -47l-48 -88c-37 5 -100 19 -115 79c-43 -44 -103 -79 -187 -79c-126 0 -198 60 -198 155c0 11 1 22 3 33zM400 237c-42 5 -102 11 -161 11c-38 0 -83 -22 -92 -76c-1 -8 -2 -15 -2 -22c0 -61 46 -83 95 -83c86 0 131 66 154 137z" />
    <glyph glyph-name="atilde" unicode="&#xe3;" horiz-adv-x="625" 
d="M165 739c34 61 76 124 147 124c56 0 84 -31 102 -50c17 -18 26 -32 39 -32c27 0 54 54 66 76l65 -26c-34 -61 -75 -124 -146 -124c-56 0 -84 31 -102 50c-17 18 -26 32 -39 32c-28 0 -54 -54 -67 -76zM15 173c12 76 88 153 230 153c58 0 115 -4 160 -8l16 97
c1 9 2 17 2 25c0 60 -43 82 -99 82c-58 0 -107 -33 -128 -103l-135 11c28 92 121 190 278 190c138 0 217 -74 217 -174c0 -10 0 -20 -2 -31l-42 -266c-2 -11 -3 -21 -3 -29c0 -30 13 -42 51 -47l-48 -88c-37 5 -100 19 -115 79c-43 -44 -103 -79 -187 -79
c-126 0 -198 60 -198 155c0 11 1 22 3 33zM400 237c-42 5 -102 11 -161 11c-38 0 -83 -22 -92 -76c-1 -8 -2 -15 -2 -22c0 -61 46 -83 95 -83c86 0 131 66 154 137z" />
    <glyph glyph-name="adieresis" unicode="&#xe4;" horiz-adv-x="625" 
d="M262 854c41 0 69 -23 69 -61c0 -4 0 -8 -1 -13c-7 -46 -45 -74 -91 -74c-41 0 -68 22 -68 60c0 4 0 9 1 14c7 46 44 74 90 74zM508 854c41 0 69 -23 69 -61c0 -4 0 -8 -1 -13c-7 -46 -45 -74 -91 -74c-41 0 -68 22 -68 60c0 4 0 9 1 14c7 46 44 74 90 74zM15 173
c12 76 88 153 230 153c58 0 115 -4 160 -8l16 97c1 9 2 17 2 25c0 60 -43 82 -99 82c-58 0 -107 -33 -128 -103l-135 11c28 92 121 190 278 190c138 0 217 -74 217 -174c0 -10 0 -20 -2 -31l-42 -266c-2 -11 -3 -21 -3 -29c0 -30 13 -42 51 -47l-48 -88
c-37 5 -100 19 -115 79c-43 -44 -103 -79 -187 -79c-126 0 -198 60 -198 155c0 11 1 22 3 33zM400 237c-42 5 -102 11 -161 11c-38 0 -83 -22 -92 -76c-1 -8 -2 -15 -2 -22c0 -61 46 -83 95 -83c86 0 131 66 154 137z" />
    <glyph glyph-name="aring" unicode="&#xe5;" horiz-adv-x="625" 
d="M353 649c-65 0 -109 37 -109 96c0 7 1 13 2 20c11 71 72 116 144 116c65 0 108 -36 108 -95c0 -7 -1 -14 -2 -21c-11 -71 -71 -116 -143 -116zM362 710c35 0 59 23 64 55c1 4 1 7 1 11c0 26 -16 44 -47 44c-35 0 -59 -23 -64 -55c-1 -4 -1 -7 -1 -11c0 -26 16 -44 47 -44
zM15 173c12 76 88 153 230 153c58 0 115 -4 160 -8l16 97c1 9 2 17 2 25c0 60 -43 82 -99 82c-58 0 -107 -33 -128 -103l-135 11c28 92 121 190 278 190c138 0 217 -74 217 -174c0 -10 0 -20 -2 -31l-42 -266c-2 -11 -3 -21 -3 -29c0 -30 13 -42 51 -47l-48 -88
c-37 5 -100 19 -115 79c-43 -44 -103 -79 -187 -79c-126 0 -198 60 -198 155c0 11 1 22 3 33zM400 237c-42 5 -102 11 -161 11c-38 0 -83 -22 -92 -76c-1 -8 -2 -15 -2 -22c0 -61 46 -83 95 -83c86 0 131 66 154 137z" />
    <glyph glyph-name="ae" unicode="&#xe6;" horiz-adv-x="960" 
d="M14 173c12 76 86 153 224 153c56 0 109 -4 152 -8l16 97c2 9 2 17 2 25c0 60 -42 82 -92 82c-53 0 -100 -33 -121 -103l-135 11c28 92 119 190 271 190c84 0 144 -31 176 -80c47 48 109 80 194 80c148 0 212 -99 212 -211c0 -16 -1 -33 -4 -50c-5 -29 -14 -59 -23 -87
h-369c-3 -22 -4 -43 -4 -61c0 -88 33 -135 102 -135c67 0 108 46 120 86l129 -12c-22 -65 -112 -170 -264 -170c-96 0 -152 40 -181 97c-44 -52 -112 -97 -217 -97c-122 0 -191 62 -191 158c0 11 1 23 3 35zM533 358h248v1c3 18 4 35 4 50c0 80 -38 115 -99 115
c-69 0 -126 -59 -153 -166zM385 237c-38 5 -90 11 -148 11c-38 0 -82 -22 -91 -76c-1 -8 -2 -15 -2 -22c0 -59 44 -80 89 -80c80 0 125 61 146 131z" />
    <glyph glyph-name="ccedilla" unicode="&#xe7;" horiz-adv-x="605" 
d="M127 -272c72 16 150 45 158 97c0 2 1 4 1 6c0 14 -13 25 -57 25c-14 0 -31 -2 -43 -4l-33 39l65 92c-148 19 -190 127 -190 233c0 25 2 49 6 72l3 24c21 134 105 308 332 308c166 0 219 -107 220 -171l-140 -12c-2 39 -33 84 -95 84c-86 0 -155 -72 -177 -209l-3 -24
c-4 -23 -5 -44 -5 -63c0 -96 43 -146 115 -146c62 0 108 45 122 84l136 -12c-20 -61 -101 -161 -251 -170l-45 -63h6c75 0 121 -25 121 -77c0 -5 0 -10 -1 -16c-18 -114 -178 -144 -233 -157z" />
    <glyph glyph-name="egrave" unicode="&#xe8;" horiz-adv-x="640" 
d="M239 817l72 91l192 -163l-43 -53zM33 287l5 26c21 135 108 307 328 307c158 0 228 -102 228 -215c0 -15 -2 -31 -4 -46c-5 -29 -13 -58 -23 -86l1 -1h-1h-403c-2 -17 -3 -34 -3 -49c0 -96 43 -147 119 -147c69 0 118 47 131 86l130 -12c-22 -66 -112 -170 -276 -170
c-186 0 -238 119 -238 237c0 24 2 47 6 70zM180 358h282v1c2 16 4 30 4 43c0 85 -48 122 -115 122c-80 0 -143 -59 -171 -166z" />
    <glyph glyph-name="eacute" unicode="&#xe9;" horiz-adv-x="640" 
d="M559 817l-259 -125l-27 53l244 163zM33 287l5 26c21 135 108 307 328 307c158 0 228 -102 228 -215c0 -15 -2 -31 -4 -46c-5 -29 -13 -58 -23 -86l1 -1h-1h-403c-2 -17 -3 -34 -3 -49c0 -96 43 -147 119 -147c69 0 118 47 131 86l130 -12c-22 -66 -112 -170 -276 -170
c-186 0 -238 119 -238 237c0 24 2 47 6 70zM180 358h282v1c2 16 4 30 4 43c0 85 -48 122 -115 122c-80 0 -143 -59 -171 -166z" />
    <glyph glyph-name="ecircumflex" unicode="&#xea;" horiz-adv-x="640" 
d="M182 721l208 147h34l162 -147l-47 -43l-148 88l-176 -88zM33 287l5 26c21 135 108 307 328 307c158 0 228 -102 228 -215c0 -15 -2 -31 -4 -46c-5 -29 -13 -58 -23 -86l1 -1h-1h-403c-2 -17 -3 -34 -3 -49c0 -96 43 -147 119 -147c69 0 118 47 131 86l130 -12
c-22 -66 -112 -170 -276 -170c-186 0 -238 119 -238 237c0 24 2 47 6 70zM180 358h282v1c2 16 4 30 4 43c0 85 -48 122 -115 122c-80 0 -143 -59 -171 -166z" />
    <glyph glyph-name="edieresis" unicode="&#xeb;" horiz-adv-x="640" 
d="M282 854c41 0 69 -23 69 -61c0 -4 0 -8 -1 -13c-7 -46 -45 -74 -91 -74c-41 0 -68 22 -68 60c0 4 0 9 1 14c7 46 44 74 90 74zM528 854c41 0 69 -23 69 -61c0 -4 0 -8 -1 -13c-7 -46 -45 -74 -91 -74c-41 0 -68 22 -68 60c0 4 0 9 1 14c7 46 44 74 90 74zM33 287l5 26
c21 135 108 307 328 307c158 0 228 -102 228 -215c0 -15 -2 -31 -4 -46c-5 -29 -13 -58 -23 -86l1 -1h-1h-403c-2 -17 -3 -34 -3 -49c0 -96 43 -147 119 -147c69 0 118 47 131 86l130 -12c-22 -66 -112 -170 -276 -170c-186 0 -238 119 -238 237c0 24 2 47 6 70zM180 358
h282v1c2 16 4 30 4 43c0 85 -48 122 -115 122c-80 0 -143 -59 -171 -166z" />
    <glyph glyph-name="igrave" unicode="&#xec;" horiz-adv-x="300" 
d="M59 817l72 91l192 -163l-43 -53zM21 0l95 600h138l-95 -600h-138z" />
    <glyph glyph-name="iacute" unicode="&#xed;" horiz-adv-x="300" 
d="M379 817l-259 -125l-27 53l244 163zM21 0l95 600h138l-95 -600h-138z" />
    <glyph glyph-name="icircumflex" unicode="&#xee;" horiz-adv-x="300" 
d="M2 721l208 147h34l162 -147l-47 -43l-148 88l-176 -88zM21 0l95 600h138l-95 -600h-138z" />
    <glyph glyph-name="idieresis" unicode="&#xef;" horiz-adv-x="300" 
d="M102 854c41 0 69 -23 69 -61c0 -4 0 -8 -1 -13c-7 -46 -45 -74 -91 -74c-41 0 -68 22 -68 60c0 4 0 9 1 14c7 46 44 74 90 74zM348 854c41 0 69 -23 69 -61c0 -4 0 -8 -1 -13c-7 -46 -45 -74 -91 -74c-41 0 -68 22 -68 60c0 4 0 9 1 14c7 46 44 74 90 74zM21 0l95 600
h138l-95 -600h-138z" />
    <glyph glyph-name="eth" unicode="&#xf0;" horiz-adv-x="660" 
d="M455 793l144 35l6 -68l-99 -24c73 -93 105 -199 105 -315c0 -36 -3 -73 -9 -111l-4 -26c-21 -132 -104 -304 -331 -304c-188 0 -240 118 -240 234c0 24 2 48 6 70l4 27c21 134 113 299 301 299c50 0 89 -16 119 -42c-15 50 -41 96 -77 138l-203 -49l-7 68l154 37
c-16 13 -34 26 -53 39l88 69c36 -24 68 -50 96 -77zM474 376c-10 77 -57 135 -135 135c-81 0 -143 -61 -165 -200l-4 -27c-4 -23 -6 -44 -6 -63c0 -95 44 -145 118 -145c89 0 157 72 179 208l4 26c4 23 8 45 9 66z" />
    <glyph glyph-name="ntilde" unicode="&#xf1;" horiz-adv-x="655" 
d="M185 739c34 61 76 124 147 124c56 0 84 -31 102 -50c17 -18 26 -32 39 -32c27 0 54 54 66 76l65 -26c-34 -61 -75 -124 -146 -124c-56 0 -84 31 -102 50c-17 18 -26 32 -39 32c-28 0 -54 -54 -67 -76zM17 0l67 420l17 173l126 10l-5 -133c52 78 130 145 234 145
c103 0 145 -73 145 -159c0 -15 -2 -30 -4 -45l-65 -411h-137l64 406c2 12 3 22 3 31c0 56 -32 70 -61 70c-78 0 -163 -97 -198 -200l-49 -307h-137z" />
    <glyph glyph-name="ograve" unicode="&#xf2;" horiz-adv-x="660" 
d="M239 817l72 91l192 -163l-43 -53zM33 287l5 26c21 134 104 307 330 307c188 0 240 -120 240 -237c0 -24 -2 -47 -6 -70l-5 -26c-21 -134 -104 -307 -330 -307c-188 0 -240 120 -240 237c0 24 2 47 6 70zM282 78c90 0 156 72 178 209l5 26c4 23 6 45 6 65
c0 95 -43 144 -118 144c-90 0 -156 -72 -178 -209l-5 -26c-4 -23 -6 -45 -6 -65c0 -95 43 -144 118 -144z" />
    <glyph glyph-name="oacute" unicode="&#xf3;" horiz-adv-x="660" 
d="M559 817l-259 -125l-27 53l244 163zM33 287l5 26c21 134 104 307 330 307c188 0 240 -120 240 -237c0 -24 -2 -47 -6 -70l-5 -26c-21 -134 -104 -307 -330 -307c-188 0 -240 120 -240 237c0 24 2 47 6 70zM282 78c90 0 156 72 178 209l5 26c4 23 6 45 6 65
c0 95 -43 144 -118 144c-90 0 -156 -72 -178 -209l-5 -26c-4 -23 -6 -45 -6 -65c0 -95 43 -144 118 -144z" />
    <glyph glyph-name="ocircumflex" unicode="&#xf4;" horiz-adv-x="660" 
d="M182 721l208 147h34l162 -147l-47 -43l-148 88l-176 -88zM33 287l5 26c21 134 104 307 330 307c188 0 240 -120 240 -237c0 -24 -2 -47 -6 -70l-5 -26c-21 -134 -104 -307 -330 -307c-188 0 -240 120 -240 237c0 24 2 47 6 70zM282 78c90 0 156 72 178 209l5 26
c4 23 6 45 6 65c0 95 -43 144 -118 144c-90 0 -156 -72 -178 -209l-5 -26c-4 -23 -6 -45 -6 -65c0 -95 43 -144 118 -144z" />
    <glyph glyph-name="otilde" unicode="&#xf5;" horiz-adv-x="660" 
d="M185 739c34 61 76 124 147 124c56 0 84 -31 102 -50c17 -18 26 -32 39 -32c27 0 54 54 66 76l65 -26c-34 -61 -75 -124 -146 -124c-56 0 -84 31 -102 50c-17 18 -26 32 -39 32c-28 0 -54 -54 -67 -76zM33 287l5 26c21 134 104 307 330 307c188 0 240 -120 240 -237
c0 -24 -2 -47 -6 -70l-5 -26c-21 -134 -104 -307 -330 -307c-188 0 -240 120 -240 237c0 24 2 47 6 70zM282 78c90 0 156 72 178 209l5 26c4 23 6 45 6 65c0 95 -43 144 -118 144c-90 0 -156 -72 -178 -209l-5 -26c-4 -23 -6 -45 -6 -65c0 -95 43 -144 118 -144z" />
    <glyph glyph-name="odieresis" unicode="&#xf6;" horiz-adv-x="660" 
d="M282 854c41 0 69 -23 69 -61c0 -4 0 -8 -1 -13c-7 -46 -45 -74 -91 -74c-41 0 -68 22 -68 60c0 4 0 9 1 14c7 46 44 74 90 74zM528 854c41 0 69 -23 69 -61c0 -4 0 -8 -1 -13c-7 -46 -45 -74 -91 -74c-41 0 -68 22 -68 60c0 4 0 9 1 14c7 46 44 74 90 74zM33 287l5 26
c21 134 104 307 330 307c188 0 240 -120 240 -237c0 -24 -2 -47 -6 -70l-5 -26c-21 -134 -104 -307 -330 -307c-188 0 -240 120 -240 237c0 24 2 47 6 70zM282 78c90 0 156 72 178 209l5 26c4 23 6 45 6 65c0 95 -43 144 -118 144c-90 0 -156 -72 -178 -209l-5 -26
c-4 -23 -6 -45 -6 -65c0 -95 43 -144 118 -144z" />
    <glyph glyph-name="divide" unicode="&#xf7;" horiz-adv-x="600" 
d="M72 313l14 94h436l-14 -94h-436zM197 205c7 43 44 69 86 69c38 0 65 -21 65 -57c0 -4 0 -8 -1 -12c-7 -43 -43 -69 -85 -69c-38 0 -66 21 -66 57c0 4 0 8 1 12zM247 515c7 43 43 69 85 69c38 0 66 -21 66 -57c0 -4 0 -8 -1 -12c-7 -43 -44 -69 -86 -69
c-38 0 -65 21 -65 57c0 4 0 8 1 12z" />
    <glyph glyph-name="oslash" unicode="&#xf8;" horiz-adv-x="660" 
d="M33 287l5 26c21 134 104 307 330 307c75 0 129 -19 166 -50l48 50l50 -40l-56 -59c23 -40 32 -88 32 -136c0 -24 -2 -49 -6 -72l-5 -26c-21 -134 -104 -307 -330 -307c-75 0 -128 20 -165 50l-48 -50l-51 40l57 59c-24 41 -33 90 -33 139c0 23 2 47 6 69zM445 478
c-20 29 -51 44 -92 44c-90 0 -156 -72 -178 -209l-5 -26c-4 -22 -5 -42 -5 -61c0 -13 0 -25 2 -36zM468 410l-278 -288c20 -29 51 -44 92 -44c90 0 156 72 178 209l5 26c4 22 5 43 5 62c0 13 0 24 -2 35z" />
    <glyph glyph-name="ugrave" unicode="&#xf9;" horiz-adv-x="620" 
d="M219 817l72 91l192 -163l-43 -53zM28 191l65 409h137l-65 -409c-1 -9 -2 -18 -2 -26c0 -62 42 -87 99 -87c64 0 120 32 133 113l65 409h137l-65 -409c-18 -116 -129 -211 -285 -211c-142 0 -221 79 -221 180c0 10 0 20 2 31z" />
    <glyph glyph-name="uacute" unicode="&#xfa;" horiz-adv-x="620" 
d="M539 817l-259 -125l-27 53l244 163zM28 191l65 409h137l-65 -409c-1 -9 -2 -18 -2 -26c0 -62 42 -87 99 -87c64 0 120 32 133 113l65 409h137l-65 -409c-18 -116 -129 -211 -285 -211c-142 0 -221 79 -221 180c0 10 0 20 2 31z" />
    <glyph glyph-name="ucircumflex" unicode="&#xfb;" horiz-adv-x="620" 
d="M162 721l208 147h34l162 -147l-47 -43l-148 88l-176 -88zM28 191l65 409h137l-65 -409c-1 -9 -2 -18 -2 -26c0 -62 42 -87 99 -87c64 0 120 32 133 113l65 409h137l-65 -409c-18 -116 -129 -211 -285 -211c-142 0 -221 79 -221 180c0 10 0 20 2 31z" />
    <glyph glyph-name="udieresis" unicode="&#xfc;" horiz-adv-x="620" 
d="M262 854c41 0 69 -23 69 -61c0 -4 0 -8 -1 -13c-7 -46 -45 -74 -91 -74c-41 0 -68 22 -68 60c0 4 0 9 1 14c7 46 44 74 90 74zM508 854c41 0 69 -23 69 -61c0 -4 0 -8 -1 -13c-7 -46 -45 -74 -91 -74c-41 0 -68 22 -68 60c0 4 0 9 1 14c7 46 44 74 90 74zM28 191l65 409
h137l-65 -409c-1 -9 -2 -18 -2 -26c0 -62 42 -87 99 -87c64 0 120 32 133 113l65 409h137l-65 -409c-18 -116 -129 -211 -285 -211c-142 0 -221 79 -221 180c0 10 0 20 2 31z" />
    <glyph glyph-name="yacute" unicode="&#xfd;" horiz-adv-x="600" 
d="M529 817l-259 -125l-27 53l244 163zM39 583l1 7l151 10l76 -436l212 436l147 -10l-1 -7l-336 -603c-62 -101 -118 -210 -247 -210c-55 0 -92 22 -115 42l78 81c14 -14 27 -29 47 -29c43 0 76 52 130 142v1z" />
    <glyph glyph-name="thorn" unicode="&#xfe;" horiz-adv-x="675" 
d="M616 311l-3 -22c-21 -134 -113 -304 -301 -304c-71 0 -117 35 -147 82l-44 -277h-137l161 1020h132l-45 -283c45 50 105 88 179 88c158 0 210 -120 210 -238c0 -22 -2 -45 -5 -66zM188 214c9 -73 47 -130 122 -130c81 0 144 66 166 205l3 22c4 25 6 48 6 68
c0 92 -40 137 -106 137c-75 0 -131 -57 -164 -130z" />
    <glyph glyph-name="ydieresis" unicode="&#xff;" horiz-adv-x="600" 
d="M252 854c41 0 69 -23 69 -61c0 -4 0 -8 -1 -13c-7 -46 -45 -74 -91 -74c-41 0 -68 22 -68 60c0 4 0 9 1 14c7 46 44 74 90 74zM498 854c41 0 69 -23 69 -61c0 -4 0 -8 -1 -13c-7 -46 -45 -74 -91 -74c-41 0 -68 22 -68 60c0 4 0 9 1 14c7 46 44 74 90 74zM39 583l1 7
l151 10l76 -436l212 436l147 -10l-1 -7l-336 -603c-62 -101 -118 -210 -247 -210c-55 0 -92 22 -115 42l78 81c14 -14 27 -29 47 -29c43 0 76 52 130 142v1z" />
    <glyph glyph-name="Amacron" unicode="&#x100;" horiz-adv-x="750" 
d="M254 887l13 86h404l-13 -86h-404zM682 0h-163l-29 158h-300l-79 -158h-163l2 10l428 770h122l184 -770zM471 262l-61 338l-169 -338h230z" />
    <glyph glyph-name="amacron" unicode="&#x101;" horiz-adv-x="625" 
d="M165 737l13 86h404l-13 -86h-404zM15 173c12 76 88 153 230 153c58 0 115 -4 160 -8l16 97c1 9 2 17 2 25c0 60 -43 82 -99 82c-58 0 -107 -33 -128 -103l-135 11c28 92 121 190 278 190c138 0 217 -74 217 -174c0 -10 0 -20 -2 -31l-42 -266c-2 -11 -3 -21 -3 -29
c0 -30 13 -42 51 -47l-48 -88c-37 5 -100 19 -115 79c-43 -44 -103 -79 -187 -79c-126 0 -198 60 -198 155c0 11 1 22 3 33zM400 237c-42 5 -102 11 -161 11c-38 0 -83 -22 -92 -76c-1 -8 -2 -15 -2 -22c0 -61 46 -83 95 -83c86 0 131 66 154 137z" />
    <glyph glyph-name="Abreve" unicode="&#x102;" horiz-adv-x="750" 
d="M269 985l88 28c6 -38 24 -88 105 -88s115 50 133 88l78 -28c-31 -68 -98 -142 -224 -142s-171 74 -180 142zM682 0h-163l-29 158h-300l-79 -158h-163l2 10l428 770h122l184 -770zM471 262l-61 338l-169 -338h230z" />
    <glyph glyph-name="abreve" unicode="&#x103;" horiz-adv-x="625" 
d="M180 835l88 28c6 -38 24 -88 105 -88s115 50 133 88l78 -28c-31 -68 -98 -142 -224 -142s-171 74 -180 142zM15 173c12 76 88 153 230 153c58 0 115 -4 160 -8l16 97c1 9 2 17 2 25c0 60 -43 82 -99 82c-58 0 -107 -33 -128 -103l-135 11c28 92 121 190 278 190
c138 0 217 -74 217 -174c0 -10 0 -20 -2 -31l-42 -266c-2 -11 -3 -21 -3 -29c0 -30 13 -42 51 -47l-48 -88c-37 5 -100 19 -115 79c-43 -44 -103 -79 -187 -79c-126 0 -198 60 -198 155c0 11 1 22 3 33zM400 237c-42 5 -102 11 -161 11c-38 0 -83 -22 -92 -76
c-1 -8 -2 -15 -2 -22c0 -61 46 -83 95 -83c86 0 131 66 154 137z" />
    <glyph glyph-name="Aogonek" unicode="&#x104;" horiz-adv-x="750" 
d="M471 262l-61 338l-169 -338h230zM578 0h-59l-29 158h-300l-79 -158h-163l2 10l428 770h122l184 -770l-2 -10h-27c-29 -29 -56 -71 -65 -128c-1 -6 -1 -12 -1 -17c0 -32 18 -43 41 -43c27 0 56 10 65 15l12 -63c-28 -14 -64 -22 -104 -22c-69 0 -103 38 -103 93
c0 8 1 16 2 24c9 58 41 105 76 141z" />
    <glyph glyph-name="aogonek" unicode="&#x105;" horiz-adv-x="625" 
d="M400 237c-42 5 -102 11 -161 11c-38 0 -83 -22 -92 -76c-1 -8 -2 -15 -2 -22c0 -61 46 -83 95 -83c86 0 131 66 154 137zM15 173c12 76 88 153 230 153c58 0 115 -4 160 -8l16 97c1 9 2 17 2 25c0 60 -43 82 -99 82c-58 0 -107 -33 -128 -103l-135 11
c28 92 121 190 278 190c138 0 217 -74 217 -174c0 -10 0 -20 -2 -31l-42 -266c-2 -11 -3 -21 -3 -29c0 -30 13 -42 51 -47l-48 -88c-7 1 -14 2 -22 4c-24 -28 -47 -67 -55 -117c-1 -6 -1 -12 -1 -17c0 -32 18 -43 41 -43c27 0 56 10 65 15l12 -63c-28 -14 -64 -22 -104 -22
c-69 0 -103 38 -103 93c0 8 1 16 2 24c10 64 49 115 88 152c-17 12 -32 29 -38 53c-43 -44 -103 -79 -187 -79c-126 0 -198 60 -198 155c0 11 1 22 3 33z" />
    <glyph glyph-name="Cacute" unicode="&#x106;" horiz-adv-x="755" 
d="M663 967l-259 -125l-27 53l244 163zM56 406c28 179 143 394 423 394c206 0 274 -134 276 -215l-151 -13c-1 54 -45 118 -143 118c-134 0 -224 -104 -253 -284l-5 -32c-5 -30 -7 -58 -7 -84c0 -128 59 -200 170 -200c98 0 161 64 180 118l147 -13
c-28 -81 -138 -215 -344 -215c-235 0 -305 152 -305 306c0 30 2 59 7 88z" />
    <glyph glyph-name="cacute" unicode="&#x107;" horiz-adv-x="605" 
d="M559 817l-259 -125l-27 53l244 163zM34 288l3 24c21 134 105 308 332 308c166 0 219 -107 220 -171l-140 -12c-2 39 -33 84 -95 84c-86 0 -155 -72 -177 -209l-3 -24c-4 -23 -5 -44 -5 -63c0 -96 43 -146 115 -146c62 0 108 45 122 84l136 -12
c-21 -64 -108 -171 -274 -171c-188 0 -240 120 -240 237c0 24 2 48 6 71z" />
    <glyph glyph-name="Ccircumflex" unicode="&#x108;" horiz-adv-x="755" 
d="M286 871l208 147h34l162 -147l-47 -43l-148 88l-176 -88zM56 406c28 179 143 394 423 394c206 0 274 -134 276 -215l-151 -13c-1 54 -45 118 -143 118c-134 0 -224 -104 -253 -284l-5 -32c-5 -30 -7 -58 -7 -84c0 -128 59 -200 170 -200c98 0 161 64 180 118l147 -13
c-28 -81 -138 -215 -344 -215c-235 0 -305 152 -305 306c0 30 2 59 7 88z" />
    <glyph glyph-name="ccircumflex" unicode="&#x109;" horiz-adv-x="605" 
d="M182 721l208 147h34l162 -147l-47 -43l-148 88l-176 -88zM34 288l3 24c21 134 105 308 332 308c166 0 219 -107 220 -171l-140 -12c-2 39 -33 84 -95 84c-86 0 -155 -72 -177 -209l-3 -24c-4 -23 -5 -44 -5 -63c0 -96 43 -146 115 -146c62 0 108 45 122 84l136 -12
c-21 -64 -108 -171 -274 -171c-188 0 -240 120 -240 237c0 24 2 48 6 71z" />
    <glyph glyph-name="Cdotaccent" unicode="&#x10a;" horiz-adv-x="755" 
d="M510 1011c45 0 77 -25 77 -67c0 -5 0 -9 -1 -14c-8 -50 -51 -81 -101 -81c-45 0 -76 26 -76 67c0 5 0 9 1 14c8 50 50 81 100 81zM56 406c28 179 143 394 423 394c206 0 274 -134 276 -215l-151 -13c-1 54 -45 118 -143 118c-134 0 -224 -104 -253 -284l-5 -32
c-5 -30 -7 -58 -7 -84c0 -128 59 -200 170 -200c98 0 161 64 180 118l147 -13c-28 -81 -138 -215 -344 -215c-235 0 -305 152 -305 306c0 30 2 59 7 88z" />
    <glyph glyph-name="cdotaccent" unicode="&#x10b;" horiz-adv-x="605" 
d="M406 861c45 0 77 -25 77 -67c0 -5 0 -9 -1 -14c-8 -50 -51 -81 -101 -81c-45 0 -76 26 -76 67c0 5 0 9 1 14c8 50 50 81 100 81zM34 288l3 24c21 134 105 308 332 308c166 0 219 -107 220 -171l-140 -12c-2 39 -33 84 -95 84c-86 0 -155 -72 -177 -209l-3 -24
c-4 -23 -5 -44 -5 -63c0 -96 43 -146 115 -146c62 0 108 45 122 84l136 -12c-21 -64 -108 -171 -274 -171c-188 0 -240 120 -240 237c0 24 2 48 6 71z" />
    <glyph glyph-name="Ccaron" unicode="&#x10c;" horiz-adv-x="755" 
d="M708 984l-208 -147h-34l-162 147l47 43l148 -88l176 88zM56 406c28 179 143 394 423 394c206 0 274 -134 276 -215l-151 -13c-1 54 -45 118 -143 118c-134 0 -224 -104 -253 -284l-5 -32c-5 -30 -7 -58 -7 -84c0 -128 59 -200 170 -200c98 0 161 64 180 118l147 -13
c-28 -81 -138 -215 -344 -215c-235 0 -305 152 -305 306c0 30 2 59 7 88z" />
    <glyph glyph-name="ccaron" unicode="&#x10d;" horiz-adv-x="605" 
d="M604 834l-208 -147h-34l-162 147l47 43l148 -88l176 88zM34 288l3 24c21 134 105 308 332 308c166 0 219 -107 220 -171l-140 -12c-2 39 -33 84 -95 84c-86 0 -155 -72 -177 -209l-3 -24c-4 -23 -5 -44 -5 -63c0 -96 43 -146 115 -146c62 0 108 45 122 84l136 -12
c-21 -64 -108 -171 -274 -171c-188 0 -240 120 -240 237c0 24 2 48 6 71z" />
    <glyph glyph-name="Dcaron" unicode="&#x10e;" horiz-adv-x="770" 
d="M618 984l-208 -147h-34l-162 147l47 43l148 -88l176 88zM182 97c23 -1 49 -1 69 -1c201 0 294 112 321 282l4 24c4 26 6 50 6 73c0 128 -67 209 -238 209c-20 0 -46 0 -69 -1zM146 780c0 0 112 9 215 9c275 0 366 -151 366 -313c0 -24 -2 -50 -6 -74l-4 -24
c-29 -186 -165 -387 -482 -387c-103 0 -213 9 -213 9z" />
    <glyph glyph-name="dcaron" unicode="&#x10f;" horiz-adv-x="890" 
d="M840 688c-5 -1 -10 -1 -15 -1c-36 0 -62 20 -62 54c0 4 0 7 1 11c7 45 42 80 94 80c56 0 76 -38 76 -76c0 -6 -1 -13 -2 -19c-16 -104 -97 -161 -161 -185l-26 43c34 13 74 43 95 93zM34 289l3 22c21 134 113 304 301 304c73 0 122 -37 151 -87l44 282h133l-104 -661
c-2 -11 -3 -21 -3 -29c0 -30 13 -42 51 -47l-48 -88c-44 6 -118 25 -118 112v8c-47 -65 -116 -120 -205 -120c-158 0 -210 120 -210 238c0 22 2 45 5 66zM464 371c-6 80 -44 145 -124 145c-81 0 -144 -66 -166 -205l-3 -22c-4 -25 -6 -48 -6 -68c0 -92 40 -137 106 -137
c80 0 138 65 170 145z" />
    <glyph glyph-name="Dcroat" unicode="&#x110;" horiz-adv-x="770" 
d="M3 351l12 78h75l56 351s112 9 215 9c275 0 366 -151 366 -313c0 -24 -2 -50 -6 -74l-4 -24c-29 -186 -165 -387 -482 -387c-103 0 -213 9 -213 9l56 351h-75zM182 97c23 -1 49 -1 69 -1c201 0 294 112 321 282l4 24c4 26 6 50 6 73c0 128 -67 209 -238 209
c-20 0 -46 0 -69 -1l-40 -254h190l-12 -78h-190z" />
    <glyph glyph-name="dcroat" unicode="&#x111;" horiz-adv-x="680" 
d="M366 681l12 78h147l8 51h133l-8 -51h70l-12 -78h-70l-84 -532c-2 -11 -3 -21 -3 -29c0 -30 13 -42 51 -47l-48 -88c-44 6 -118 25 -118 112v8c-47 -65 -116 -120 -205 -120c-158 0 -210 120 -210 238c0 22 2 45 5 66l3 22c21 134 113 304 301 304c73 0 122 -37 151 -87
l24 153h-147zM464 371c-6 80 -44 145 -124 145c-81 0 -144 -66 -166 -205l-3 -22c-4 -25 -6 -48 -6 -68c0 -92 40 -137 106 -137c80 0 138 65 170 145z" />
    <glyph glyph-name="Emacron" unicode="&#x112;" horiz-adv-x="675" 
d="M229 887l13 86h404l-13 -86h-404zM22 0l124 780h530l-18 -111h-385l-37 -233h347l-16 -102h-347l-35 -223h400l-18 -111h-545z" />
    <glyph glyph-name="emacron" unicode="&#x113;" horiz-adv-x="640" 
d="M185 737l13 86h404l-13 -86h-404zM33 287l5 26c21 135 108 307 328 307c158 0 228 -102 228 -215c0 -15 -2 -31 -4 -46c-5 -29 -13 -58 -23 -86l1 -1h-1h-403c-2 -17 -3 -34 -3 -49c0 -96 43 -147 119 -147c69 0 118 47 131 86l130 -12c-22 -66 -112 -170 -276 -170
c-186 0 -238 119 -238 237c0 24 2 47 6 70zM180 358h282v1c2 16 4 30 4 43c0 85 -48 122 -115 122c-80 0 -143 -59 -171 -166z" />
    <glyph glyph-name="Ebreve" unicode="&#x114;" horiz-adv-x="675" 
d="M244 985l88 28c6 -38 24 -88 105 -88s115 50 133 88l78 -28c-31 -68 -98 -142 -224 -142s-171 74 -180 142zM22 0l124 780h530l-18 -111h-385l-37 -233h347l-16 -102h-347l-35 -223h400l-18 -111h-545z" />
    <glyph glyph-name="ebreve" unicode="&#x115;" horiz-adv-x="640" 
d="M200 835l88 28c6 -38 24 -88 105 -88s115 50 133 88l78 -28c-31 -68 -98 -142 -224 -142s-171 74 -180 142zM33 287l5 26c21 135 108 307 328 307c158 0 228 -102 228 -215c0 -15 -2 -31 -4 -46c-5 -29 -13 -58 -23 -86l1 -1h-1h-403c-2 -17 -3 -34 -3 -49
c0 -96 43 -147 119 -147c69 0 118 47 131 86l130 -12c-22 -66 -112 -170 -276 -170c-186 0 -238 119 -238 237c0 24 2 47 6 70zM180 358h282v1c2 16 4 30 4 43c0 85 -48 122 -115 122c-80 0 -143 -59 -171 -166z" />
    <glyph glyph-name="Edotaccent" unicode="&#x116;" horiz-adv-x="675" 
d="M450 1011c45 0 77 -25 77 -67c0 -5 0 -9 -1 -14c-8 -50 -51 -81 -101 -81c-45 0 -76 26 -76 67c0 5 0 9 1 14c8 50 50 81 100 81zM22 0l124 780h530l-18 -111h-385l-37 -233h347l-16 -102h-347l-35 -223h400l-18 -111h-545z" />
    <glyph glyph-name="edotaccent" unicode="&#x117;" horiz-adv-x="640" 
d="M406 861c45 0 77 -25 77 -67c0 -5 0 -9 -1 -14c-8 -50 -51 -81 -101 -81c-45 0 -76 26 -76 67c0 5 0 9 1 14c8 50 50 81 100 81zM33 287l5 26c21 135 108 307 328 307c158 0 228 -102 228 -215c0 -15 -2 -31 -4 -46c-5 -29 -13 -58 -23 -86l1 -1h-1h-403
c-2 -17 -3 -34 -3 -49c0 -96 43 -147 119 -147c69 0 118 47 131 86l130 -12c-22 -66 -112 -170 -276 -170c-186 0 -238 119 -238 237c0 24 2 47 6 70zM180 358h282v1c2 16 4 30 4 43c0 85 -48 122 -115 122c-80 0 -143 -59 -171 -166z" />
    <glyph glyph-name="Eogonek" unicode="&#x118;" horiz-adv-x="675" 
d="M22 0l124 780h530l-18 -111h-385l-37 -233h347l-16 -102h-347l-35 -223h400l-18 -111h-37c-29 -29 -56 -71 -65 -128c-1 -6 -1 -12 -1 -17c0 -32 18 -43 41 -43c27 0 56 10 65 15l12 -63c-28 -14 -64 -22 -104 -22c-69 0 -103 38 -103 93c0 8 1 16 2 24
c9 58 41 105 76 141h-431z" />
    <glyph glyph-name="eogonek" unicode="&#x119;" horiz-adv-x="640" 
d="M180 358h282v1c2 16 4 30 4 43c0 85 -48 122 -115 122c-80 0 -143 -59 -171 -166zM33 287l5 26c21 135 108 307 328 307c158 0 228 -102 228 -215c0 -15 -2 -31 -4 -46c-5 -29 -13 -58 -23 -86l1 -1h-1h-403c-2 -17 -3 -34 -3 -49c0 -96 43 -147 119 -147
c69 0 118 47 131 86l130 -12c-15 -44 -59 -104 -135 -140c-33 -30 -66 -74 -76 -138c-1 -6 -1 -12 -1 -17c0 -32 18 -43 41 -43c27 0 56 10 65 15l12 -63c-28 -14 -64 -22 -104 -22c-69 0 -103 38 -103 93c0 8 1 16 2 24c8 49 31 90 59 123c-12 -1 -23 -2 -36 -2
c-186 0 -238 119 -238 237c0 24 2 47 6 70z" />
    <glyph glyph-name="Ecaron" unicode="&#x11a;" horiz-adv-x="675" 
d="M648 984l-208 -147h-34l-162 147l47 43l148 -88l176 88zM22 0l124 780h530l-18 -111h-385l-37 -233h347l-16 -102h-347l-35 -223h400l-18 -111h-545z" />
    <glyph glyph-name="ecaron" unicode="&#x11b;" horiz-adv-x="640" 
d="M604 834l-208 -147h-34l-162 147l47 43l148 -88l176 88zM33 287l5 26c21 135 108 307 328 307c158 0 228 -102 228 -215c0 -15 -2 -31 -4 -46c-5 -29 -13 -58 -23 -86l1 -1h-1h-403c-2 -17 -3 -34 -3 -49c0 -96 43 -147 119 -147c69 0 118 47 131 86l130 -12
c-22 -66 -112 -170 -276 -170c-186 0 -238 119 -238 237c0 24 2 47 6 70zM180 358h282v1c2 16 4 30 4 43c0 85 -48 122 -115 122c-80 0 -143 -59 -171 -166z" />
    <glyph glyph-name="Gcircumflex" unicode="&#x11c;" horiz-adv-x="770" 
d="M286 871l208 147h34l162 -147l-47 -43l-148 88l-176 -88zM404 294l16 103h300l-41 -261c-48 -68 -157 -156 -330 -156c-235 0 -305 152 -305 307c0 30 2 59 7 88l5 30c28 179 143 395 423 395c206 0 274 -134 276 -215l-150 -14c-1 54 -43 121 -143 121
c-137 0 -228 -103 -257 -287l-5 -30c-5 -31 -7 -60 -7 -86c0 -130 59 -201 173 -201c96 0 150 32 182 66l23 140h-167z" />
    <glyph glyph-name="gcircumflex" unicode="&#x11d;" horiz-adv-x="670" 
d="M212 721l208 147h34l162 -147l-47 -43l-148 88l-176 -88zM38 315c20 129 112 300 300 300c78 0 127 -42 156 -97l23 82h116l-98 -620c-19 -118 -130 -210 -283 -210c-150 0 -218 71 -227 114l131 36c5 -20 35 -56 110 -56c72 0 128 34 141 116l20 129
c-46 -53 -107 -94 -184 -94c-159 0 -210 122 -210 238c0 21 2 42 5 62zM464 370c-6 80 -44 145 -124 145c-81 0 -144 -66 -165 -200c-4 -23 -5 -45 -5 -64c0 -91 39 -136 106 -136c80 0 138 65 170 145z" />
    <glyph glyph-name="Gbreve" unicode="&#x11e;" horiz-adv-x="770" 
d="M304 985l88 28c6 -38 24 -88 105 -88s115 50 133 88l78 -28c-31 -68 -98 -142 -224 -142s-171 74 -180 142zM404 294l16 103h300l-41 -261c-48 -68 -157 -156 -330 -156c-235 0 -305 152 -305 307c0 30 2 59 7 88l5 30c28 179 143 395 423 395c206 0 274 -134 276 -215
l-150 -14c-1 54 -43 121 -143 121c-137 0 -228 -103 -257 -287l-5 -30c-5 -31 -7 -60 -7 -86c0 -130 59 -201 173 -201c96 0 150 32 182 66l23 140h-167z" />
    <glyph glyph-name="gbreve" unicode="&#x11f;" horiz-adv-x="670" 
d="M230 835l88 28c6 -38 24 -88 105 -88s115 50 133 88l78 -28c-31 -68 -98 -142 -224 -142s-171 74 -180 142zM38 315c20 129 112 300 300 300c78 0 127 -42 156 -97l23 82h116l-98 -620c-19 -118 -130 -210 -283 -210c-150 0 -218 71 -227 114l131 36
c5 -20 35 -56 110 -56c72 0 128 34 141 116l20 129c-46 -53 -107 -94 -184 -94c-159 0 -210 122 -210 238c0 21 2 42 5 62zM464 370c-6 80 -44 145 -124 145c-81 0 -144 -66 -165 -200c-4 -23 -5 -45 -5 -64c0 -91 39 -136 106 -136c80 0 138 65 170 145z" />
    <glyph glyph-name="Gdotaccent" unicode="&#x120;" horiz-adv-x="770" 
d="M510 1011c45 0 77 -25 77 -67c0 -5 0 -9 -1 -14c-8 -50 -51 -81 -101 -81c-45 0 -76 26 -76 67c0 5 0 9 1 14c8 50 50 81 100 81zM404 294l16 103h300l-41 -261c-48 -68 -157 -156 -330 -156c-235 0 -305 152 -305 307c0 30 2 59 7 88l5 30c28 179 143 395 423 395
c206 0 274 -134 276 -215l-150 -14c-1 54 -43 121 -143 121c-137 0 -228 -103 -257 -287l-5 -30c-5 -31 -7 -60 -7 -86c0 -130 59 -201 173 -201c96 0 150 32 182 66l23 140h-167z" />
    <glyph glyph-name="gdotaccent" unicode="&#x121;" horiz-adv-x="670" 
d="M436 861c45 0 77 -25 77 -67c0 -5 0 -9 -1 -14c-8 -50 -51 -81 -101 -81c-45 0 -76 26 -76 67c0 5 0 9 1 14c8 50 50 81 100 81zM38 315c20 129 112 300 300 300c78 0 127 -42 156 -97l23 82h116l-98 -620c-19 -118 -130 -210 -283 -210c-150 0 -218 71 -227 114l131 36
c5 -20 35 -56 110 -56c72 0 128 34 141 116l20 129c-46 -53 -107 -94 -184 -94c-159 0 -210 122 -210 238c0 21 2 42 5 62zM464 370c-6 80 -44 145 -124 145c-81 0 -144 -66 -165 -200c-4 -23 -5 -45 -5 -64c0 -91 39 -136 106 -136c80 0 138 65 170 145z" />
    <glyph glyph-name="uni0122" unicode="&#x122;" horiz-adv-x="770" 
d="M312 -212c-5 -1 -10 -1 -15 -1c-36 0 -61 20 -61 54c0 4 0 7 1 11c7 45 41 80 93 80c56 0 76 -38 76 -76c0 -6 -1 -13 -2 -19c-16 -104 -96 -161 -160 -185l-26 43c34 13 73 43 94 93zM404 294l16 103h300l-41 -261c-48 -68 -157 -156 -330 -156
c-235 0 -305 152 -305 307c0 30 2 59 7 88l5 30c28 179 143 395 423 395c206 0 274 -134 276 -215l-150 -14c-1 54 -43 121 -143 121c-137 0 -228 -103 -257 -287l-5 -30c-5 -31 -7 -60 -7 -86c0 -130 59 -201 173 -201c96 0 150 32 182 66l23 140h-167z" />
    <glyph glyph-name="uni0123" unicode="&#x123;" horiz-adv-x="670" 
d="M437 842c5 1 11 1 16 1c36 0 61 -20 61 -54c0 -4 0 -7 -1 -11c-7 -45 -41 -80 -93 -80c-56 0 -76 38 -76 76c0 6 1 13 2 19c16 104 96 161 160 185l26 -43c-34 -13 -74 -43 -95 -93zM38 315c20 129 112 300 300 300c78 0 127 -42 156 -97l23 82h116l-98 -620
c-19 -118 -130 -210 -283 -210c-150 0 -218 71 -227 114l131 36c5 -20 35 -56 110 -56c72 0 128 34 141 116l20 129c-46 -53 -107 -94 -184 -94c-159 0 -210 122 -210 238c0 21 2 42 5 62zM464 370c-6 80 -44 145 -124 145c-81 0 -144 -66 -165 -200c-4 -23 -5 -45 -5 -64
c0 -91 39 -136 106 -136c80 0 138 65 170 145z" />
    <glyph glyph-name="Hcircumflex" unicode="&#x124;" horiz-adv-x="790" 
d="M271 871l208 147h34l162 -147l-47 -43l-148 88l-176 -88zM22 0l124 780h145l-53 -334h336l53 334h145l-124 -780h-145l53 334h-336l-53 -334h-145z" />
    <glyph glyph-name="hcircumflex" unicode="&#x125;" horiz-adv-x="665" 
d="M16 901l208 147h34l162 -147l-47 -43l-148 88l-176 -88zM17 0l128 810h132l-54 -345c55 80 135 150 242 150c103 0 145 -74 145 -160c0 -14 -1 -29 -3 -44l-65 -411h-137l64 406c2 11 3 22 3 31c0 56 -32 70 -62 70c-80 0 -172 -98 -208 -201l-48 -306h-137z" />
    <glyph glyph-name="Hbar" unicode="&#x126;" horiz-adv-x="790" 
d="M50 621l13 78h70l13 81h145l-13 -81h336l13 81h145l-13 -81h70l-13 -78h-70l-98 -621h-145l53 334h-336l-53 -334h-145l98 621h-70zM601 621h-336l-27 -175h336z" />
    <glyph glyph-name="hbar" unicode="&#x127;" horiz-adv-x="665" 
d="M55 681l12 78h70l8 51h132l-8 -51h148l-12 -78h-148l-34 -216c55 80 135 150 242 150c103 0 145 -74 145 -160c0 -14 -1 -29 -3 -44l-65 -411h-137l64 406c2 11 3 22 3 31c0 56 -32 70 -62 70c-80 0 -172 -98 -208 -201l-48 -306h-137l108 681h-70z" />
    <glyph glyph-name="Itilde" unicode="&#x128;" horiz-adv-x="320" 
d="M39 889c34 61 76 124 147 124c56 0 84 -31 102 -50c17 -18 26 -32 39 -32c27 0 54 54 66 76l65 -26c-34 -61 -75 -124 -146 -124c-56 0 -84 31 -102 50c-17 18 -26 32 -39 32c-28 0 -54 -54 -67 -76zM27 0l124 780h146l-124 -780h-146z" />
    <glyph glyph-name="itilde" unicode="&#x129;" horiz-adv-x="300" 
d="M5 739c34 61 76 124 147 124c56 0 84 -31 102 -50c17 -18 26 -32 39 -32c27 0 54 54 66 76l65 -26c-34 -61 -75 -124 -146 -124c-56 0 -84 31 -102 50c-17 18 -26 32 -39 32c-28 0 -54 -54 -67 -76zM21 0l95 600h138l-95 -600h-138z" />
    <glyph glyph-name="Imacron" unicode="&#x12a;" horiz-adv-x="320" 
d="M39 887l13 86h404l-13 -86h-404zM27 0l124 780h146l-124 -780h-146z" />
    <glyph glyph-name="imacron" unicode="&#x12b;" horiz-adv-x="300" 
d="M5 737l13 86h404l-13 -86h-404zM21 0l95 600h138l-95 -600h-138z" />
    <glyph glyph-name="Ibreve" unicode="&#x12c;" horiz-adv-x="320" 
d="M54 985l88 28c6 -38 24 -88 105 -88s115 50 133 88l78 -28c-31 -68 -98 -142 -224 -142s-171 74 -180 142zM27 0l124 780h146l-124 -780h-146z" />
    <glyph glyph-name="ibreve" unicode="&#x12d;" horiz-adv-x="300" 
d="M20 835l88 28c6 -38 24 -88 105 -88s115 50 133 88l78 -28c-31 -68 -98 -142 -224 -142s-171 74 -180 142zM21 0l95 600h138l-95 -600h-138z" />
    <glyph glyph-name="Iogonek" unicode="&#x12e;" horiz-adv-x="320" 
d="M27 0l124 780h146l-124 -780h-23c-29 -29 -56 -71 -65 -128c-1 -6 -1 -12 -1 -17c0 -32 18 -43 41 -43c27 0 56 10 65 15l12 -63c-28 -14 -64 -22 -104 -22c-69 0 -103 38 -103 93c0 8 1 16 2 24c9 58 41 105 76 141h-46z" />
    <glyph glyph-name="iogonek" unicode="&#x12f;" horiz-adv-x="300" 
d="M226 861c45 0 77 -25 77 -67c0 -5 0 -9 -1 -14c-8 -50 -51 -81 -101 -81c-45 0 -76 26 -76 67c0 5 0 9 1 14c8 50 50 81 100 81zM21 0l95 600h138l-95 -600h-19c-29 -29 -56 -71 -65 -128c-1 -6 -1 -12 -1 -17c0 -32 18 -43 41 -43c27 0 56 10 65 15l12 -63
c-28 -14 -64 -22 -104 -22c-69 0 -103 38 -103 93c0 8 1 16 2 24c9 58 41 105 76 141h-42z" />
    <glyph glyph-name="Idotaccent" unicode="&#x130;" horiz-adv-x="320" 
d="M260 1011c45 0 77 -25 77 -67c0 -5 0 -9 -1 -14c-8 -50 -51 -81 -101 -81c-45 0 -76 26 -76 67c0 5 0 9 1 14c8 50 50 81 100 81zM27 0l124 780h146l-124 -780h-146z" />
    <glyph glyph-name="dotlessi" unicode="&#x131;" horiz-adv-x="300" 
d="M21 0l95 600h138l-95 -600h-138z" />
    <glyph glyph-name="Jcircumflex" unicode="&#x134;" horiz-adv-x="520" 
d="M236 871l208 147h34l162 -147l-47 -43l-148 88l-176 -88zM-26 140l147 11c0 -50 23 -68 56 -68c32 0 70 15 81 83l98 614h145l-98 -614c-16 -98 -104 -186 -242 -186c-136 0 -187 84 -187 158v2z" />
    <glyph glyph-name="jcircumflex" unicode="&#x135;" horiz-adv-x="310" 
d="M12 721l208 147h34l162 -147l-47 -43l-148 88l-176 -88zM-93 -138c69 19 109 49 122 128l97 610h136l-98 -618c-19 -117 -124 -183 -228 -207z" />
    <glyph glyph-name="uni0136" unicode="&#x136;" horiz-adv-x="715" 
d="M262 -212c-5 -1 -10 -1 -15 -1c-36 0 -61 20 -61 54c0 4 0 7 1 11c7 45 41 80 93 80c56 0 76 -38 76 -76c0 -6 -1 -13 -2 -19c-16 -104 -96 -161 -160 -185l-26 43c34 13 73 43 94 93zM22 0l124 780h140l-55 -343l352 343l160 -11l-1 -7l-352 -314l268 -441l-1 -7h-170
l-205 351l-75 -67l-45 -284h-140z" />
    <glyph glyph-name="uni0137" unicode="&#x137;" horiz-adv-x="605" 
d="M262 -212c-5 -1 -10 -1 -15 -1c-36 0 -61 20 -61 54c0 4 0 7 1 11c7 45 41 80 93 80c56 0 76 -38 76 -76c0 -6 -1 -13 -2 -19c-16 -104 -96 -161 -160 -185l-26 43c34 13 73 43 94 93zM28 0l128 810h130l-72 -455l255 245l148 -9l-1 -5l-276 -243l209 -338l-1 -5h-156
l-152 254l-48 -42l-34 -212h-130z" />
    <glyph glyph-name="kgreenlandic" unicode="&#x138;" horiz-adv-x="610" 
d="M28 0l95 600h130l-39 -245l255 245l148 -9l-1 -5l-276 -243l209 -338l-1 -5h-156l-152 254l-48 -42l-34 -212h-130z" />
    <glyph glyph-name="Lacute" unicode="&#x139;" horiz-adv-x="570" 
d="M413 967l-259 -125l-27 53l244 163zM22 0l124 780h147l-106 -669h323l-18 -111h-470z" />
    <glyph glyph-name="lacute" unicode="&#x13a;" horiz-adv-x="315" 
d="M398 997l-259 -125l-27 53l244 163zM41 134l107 676h137l-105 -663c-1 -6 -1 -11 -1 -16c0 -38 27 -52 83 -57l-40 -89c-77 6 -183 26 -183 124c0 8 1 16 2 25z" />
    <glyph glyph-name="uni013B" unicode="&#x13b;" horiz-adv-x="570" 
d="M222 -212c-5 -1 -10 -1 -15 -1c-36 0 -61 20 -61 54c0 4 0 7 1 11c7 45 41 80 93 80c56 0 76 -38 76 -76c0 -6 -1 -13 -2 -19c-16 -104 -96 -161 -160 -185l-26 43c34 13 73 43 94 93zM22 0l124 780h147l-106 -669h323l-18 -111h-470z" />
    <glyph glyph-name="uni013C" unicode="&#x13c;" horiz-adv-x="315" 
d="M92 -212c-5 -1 -10 -1 -15 -1c-36 0 -61 20 -61 54c0 4 0 7 1 11c7 45 41 80 93 80c56 0 76 -38 76 -76c0 -6 -1 -13 -2 -19c-16 -104 -96 -161 -160 -185l-26 43c34 13 73 43 94 93zM41 134l107 676h137l-105 -663c-1 -6 -1 -11 -1 -16c0 -38 27 -52 83 -57l-40 -89
c-77 6 -183 26 -183 124c0 8 1 16 2 25z" />
    <glyph glyph-name="Lcaron" unicode="&#x13d;" horiz-adv-x="570" 
d="M22 0l124 780h147l-106 -669h323l-18 -111h-470zM490 688c-5 -1 -10 -1 -15 -1c-36 0 -62 20 -62 54c0 4 0 7 1 11c7 45 42 80 94 80c56 0 76 -38 76 -76c0 -6 -1 -13 -2 -19c-16 -104 -97 -161 -161 -185l-26 43c34 13 74 43 95 93z" />
    <glyph glyph-name="lcaron" unicode="&#x13e;" horiz-adv-x="525" 
d="M41 134l107 676h137l-105 -663c-1 -6 -1 -11 -1 -16c0 -38 27 -52 83 -57l-40 -89c-77 6 -183 26 -183 124c0 8 1 16 2 25zM475 688c-5 -1 -10 -1 -15 -1c-36 0 -62 20 -62 54c0 4 0 7 1 11c7 45 42 80 94 80c56 0 76 -38 76 -76c0 -6 -1 -13 -2 -19
c-16 -104 -97 -161 -161 -185l-26 43c34 13 74 43 95 93z" />
    <glyph glyph-name="Ldot" unicode="&#x13f;" horiz-adv-x="570" 
d="M22 0l124 780h147l-106 -669h323l-18 -111h-470zM445 441c45 0 76 -26 76 -67c0 -5 0 -9 -1 -14c-8 -50 -51 -81 -101 -81c-45 0 -76 26 -76 67c0 5 0 9 1 14c8 50 51 81 101 81z" />
    <glyph glyph-name="ldot" unicode="&#x140;" horiz-adv-x="510" 
d="M41 134l107 676h137l-105 -663c-1 -6 -1 -11 -1 -16c0 -38 27 -52 83 -57l-40 -89c-77 6 -183 26 -183 124c0 8 1 16 2 25zM395 441c45 0 76 -26 76 -67c0 -5 0 -9 -1 -14c-8 -50 -51 -81 -101 -81c-45 0 -76 26 -76 67c0 5 0 9 1 14c8 50 51 81 101 81z" />
    <glyph glyph-name="Lslash" unicode="&#x141;" horiz-adv-x="580" 
d="M253 469l130 77l-3 -85l-141 -83l-42 -267h323l-18 -111h-470l45 283l-83 -49l4 85l93 55l65 406h147z" />
    <glyph glyph-name="lslash" unicode="&#x142;" horiz-adv-x="360" 
d="M240 463l141 83l-3 -85l-152 -90l-36 -224c-1 -6 -1 -11 -1 -16c0 -38 27 -52 83 -57l-40 -89c-77 6 -183 26 -183 124c0 8 1 16 2 25l24 149l-83 -49l4 85l93 55l69 436h137z" />
    <glyph glyph-name="Nacute" unicode="&#x143;" horiz-adv-x="790" 
d="M648 967l-259 -125l-27 53l244 163zM23 0l121 767l127 13l271 -547l87 547h142l-124 -780h-124l-271 547l-87 -547h-142z" />
    <glyph glyph-name="nacute" unicode="&#x144;" horiz-adv-x="655" 
d="M559 817l-259 -125l-27 53l244 163zM17 0l67 420l17 173l126 10l-5 -133c52 78 130 145 234 145c103 0 145 -73 145 -159c0 -15 -2 -30 -4 -45l-65 -411h-137l64 406c2 12 3 22 3 31c0 56 -32 70 -61 70c-78 0 -163 -97 -198 -200l-49 -307h-137z" />
    <glyph glyph-name="uni0145" unicode="&#x145;" horiz-adv-x="790" 
d="M297 -212c-5 -1 -10 -1 -15 -1c-36 0 -61 20 -61 54c0 4 0 7 1 11c7 45 41 80 93 80c56 0 76 -38 76 -76c0 -6 -1 -13 -2 -19c-16 -104 -96 -161 -160 -185l-26 43c34 13 73 43 94 93zM23 0l121 767l127 13l271 -547l87 547h142l-124 -780h-124l-271 547l-87 -547h-142z
" />
    <glyph glyph-name="uni0146" unicode="&#x146;" horiz-adv-x="655" 
d="M262 -212c-5 -1 -10 -1 -15 -1c-36 0 -61 20 -61 54c0 4 0 7 1 11c7 45 41 80 93 80c56 0 76 -38 76 -76c0 -6 -1 -13 -2 -19c-16 -104 -96 -161 -160 -185l-26 43c34 13 73 43 94 93zM17 0l67 420l17 173l126 10l-5 -133c52 78 130 145 234 145c103 0 145 -73 145 -159
c0 -15 -2 -30 -4 -45l-65 -411h-137l64 406c2 12 3 22 3 31c0 56 -32 70 -61 70c-78 0 -163 -97 -198 -200l-49 -307h-137z" />
    <glyph glyph-name="Ncaron" unicode="&#x147;" horiz-adv-x="790" 
d="M693 984l-208 -147h-34l-162 147l47 43l148 -88l176 88zM23 0l121 767l127 13l271 -547l87 547h142l-124 -780h-124l-271 547l-87 -547h-142z" />
    <glyph glyph-name="ncaron" unicode="&#x148;" horiz-adv-x="655" 
d="M604 834l-208 -147h-34l-162 147l47 43l148 -88l176 88zM17 0l67 420l17 173l126 10l-5 -133c52 78 130 145 234 145c103 0 145 -73 145 -159c0 -15 -2 -30 -4 -45l-65 -411h-137l64 406c2 12 3 22 3 31c0 56 -32 70 -61 70c-78 0 -163 -97 -198 -200l-49 -307h-137z" />
    <glyph glyph-name="napostrophe" unicode="&#x149;" horiz-adv-x="865" 
d="M86 813c8 49 46 85 101 85c62 0 85 -44 85 -93c0 -9 -1 -17 -2 -26c-18 -116 -109 -200 -186 -244l-33 56c49 28 96 76 119 145c-4 0 -10 -1 -14 -1c-42 0 -71 24 -71 63c0 5 0 10 1 15zM227 0l67 420l17 173l126 10l-5 -133c52 78 130 145 234 145
c103 0 145 -73 145 -159c0 -15 -2 -30 -4 -45l-65 -411h-137l64 406c2 12 3 22 3 31c0 56 -32 70 -61 70c-78 0 -163 -97 -198 -200l-49 -307h-137z" />
    <glyph glyph-name="Omacron" unicode="&#x14c;" horiz-adv-x="820" 
d="M289 887l13 86h404l-13 -86h-404zM51 373l5 34c28 178 141 393 421 393c234 0 302 -150 302 -303c0 -30 -2 -61 -7 -90l-5 -34c-28 -178 -140 -393 -420 -393c-234 0 -303 151 -303 304c0 30 2 60 7 89zM364 87c137 0 226 107 254 286l5 34c5 31 7 59 7 85
c0 127 -56 201 -170 201c-137 0 -227 -107 -255 -286l-5 -34c-5 -30 -7 -58 -7 -84c0 -128 57 -202 171 -202z" />
    <glyph glyph-name="omacron" unicode="&#x14d;" horiz-adv-x="660" 
d="M185 737l13 86h404l-13 -86h-404zM33 287l5 26c21 134 104 307 330 307c188 0 240 -120 240 -237c0 -24 -2 -47 -6 -70l-5 -26c-21 -134 -104 -307 -330 -307c-188 0 -240 120 -240 237c0 24 2 47 6 70zM282 78c90 0 156 72 178 209l5 26c4 23 6 45 6 65
c0 95 -43 144 -118 144c-90 0 -156 -72 -178 -209l-5 -26c-4 -23 -6 -45 -6 -65c0 -95 43 -144 118 -144z" />
    <glyph glyph-name="Obreve" unicode="&#x14e;" horiz-adv-x="820" 
d="M304 985l88 28c6 -38 24 -88 105 -88s115 50 133 88l78 -28c-31 -68 -98 -142 -224 -142s-171 74 -180 142zM51 373l5 34c28 178 141 393 421 393c234 0 302 -150 302 -303c0 -30 -2 -61 -7 -90l-5 -34c-28 -178 -140 -393 -420 -393c-234 0 -303 151 -303 304
c0 30 2 60 7 89zM364 87c137 0 226 107 254 286l5 34c5 31 7 59 7 85c0 127 -56 201 -170 201c-137 0 -227 -107 -255 -286l-5 -34c-5 -30 -7 -58 -7 -84c0 -128 57 -202 171 -202z" />
    <glyph glyph-name="obreve" unicode="&#x14f;" horiz-adv-x="660" 
d="M200 835l88 28c6 -38 24 -88 105 -88s115 50 133 88l78 -28c-31 -68 -98 -142 -224 -142s-171 74 -180 142zM33 287l5 26c21 134 104 307 330 307c188 0 240 -120 240 -237c0 -24 -2 -47 -6 -70l-5 -26c-21 -134 -104 -307 -330 -307c-188 0 -240 120 -240 237
c0 24 2 47 6 70zM282 78c90 0 156 72 178 209l5 26c4 23 6 45 6 65c0 95 -43 144 -118 144c-90 0 -156 -72 -178 -209l-5 -26c-4 -23 -6 -45 -6 -65c0 -95 43 -144 118 -144z" />
    <glyph glyph-name="Ohungarumlaut" unicode="&#x150;" horiz-adv-x="820" 
d="M316 878l140 190l69 -57l-166 -169zM534 878l139 190l69 -57l-165 -169zM51 373l5 34c28 178 141 393 421 393c234 0 302 -150 302 -303c0 -30 -2 -61 -7 -90l-5 -34c-28 -178 -140 -393 -420 -393c-234 0 -303 151 -303 304c0 30 2 60 7 89zM364 87
c137 0 226 107 254 286l5 34c5 31 7 59 7 85c0 127 -56 201 -170 201c-137 0 -227 -107 -255 -286l-5 -34c-5 -30 -7 -58 -7 -84c0 -128 57 -202 171 -202z" />
    <glyph glyph-name="ohungarumlaut" unicode="&#x151;" horiz-adv-x="660" 
d="M212 728l140 190l69 -57l-166 -169zM430 728l139 190l69 -57l-165 -169zM33 287l5 26c21 134 104 307 330 307c188 0 240 -120 240 -237c0 -24 -2 -47 -6 -70l-5 -26c-21 -134 -104 -307 -330 -307c-188 0 -240 120 -240 237c0 24 2 47 6 70zM282 78c90 0 156 72 178 209
l5 26c4 23 6 45 6 65c0 95 -43 144 -118 144c-90 0 -156 -72 -178 -209l-5 -26c-4 -23 -6 -45 -6 -65c0 -95 43 -144 118 -144z" />
    <glyph glyph-name="OE" unicode="&#x152;" horiz-adv-x="980" 
d="M51 373l5 34c28 178 141 393 421 393c52 0 94 -7 131 -20h373l-18 -111h-325l-37 -233h287l-16 -102h-287l-35 -223h340l-18 -111h-388c-41 -13 -85 -20 -137 -20c-234 0 -303 151 -303 304c0 30 2 60 7 89zM496 690c-12 2 -23 3 -36 3c-137 0 -227 -107 -255 -286
l-5 -34c-5 -30 -7 -58 -7 -84c0 -128 57 -202 171 -202c13 0 25 1 37 3z" />
    <glyph glyph-name="oe" unicode="&#x153;" horiz-adv-x="960" 
d="M32 287l5 26c20 129 91 307 298 307c90 0 141 -35 168 -84c47 50 111 84 198 84c148 0 212 -99 212 -211c0 -16 -1 -33 -4 -50c-5 -29 -14 -59 -23 -87h-369c-3 -22 -4 -43 -4 -61c0 -88 33 -135 102 -135c67 0 108 46 120 86l129 -12c-22 -65 -112 -170 -264 -170
c-88 0 -141 34 -172 83c-43 -49 -104 -83 -194 -83c-166 0 -209 114 -209 226c0 28 3 55 7 81zM320 522c-66 0 -124 -67 -146 -209l-5 -26c-4 -28 -6 -54 -6 -76c0 -90 33 -133 86 -133c65 0 123 67 145 209l5 26c4 28 6 54 6 76c0 90 -33 133 -85 133zM533 358h248v1
c3 18 4 35 4 50c0 80 -38 115 -99 115c-69 0 -126 -59 -153 -166z" />
    <glyph glyph-name="Racute" unicode="&#x154;" horiz-adv-x="730" 
d="M613 967l-259 -125l-27 53l244 163zM280 310c-23 0 -45 1 -66 2l-49 -312h-143l51 319l73 461c9 1 139 9 268 9c177 0 293 -74 293 -202c0 -12 -1 -24 -3 -37c-19 -123 -122 -205 -265 -231l209 -312l-1 -7h-164zM231 416c28 -2 67 -3 107 -3c111 0 206 32 223 137
c1 9 2 18 2 26c0 85 -80 110 -181 110c-40 0 -81 -1 -109 -3z" />
    <glyph glyph-name="racute" unicode="&#x155;" horiz-adv-x="435" 
d="M469 817l-259 -125l-27 53l244 163zM95 590l118 13l12 -128c37 75 94 140 183 140c28 0 51 -6 69 -16l-70 -112c-11 7 -23 11 -40 11c-61 0 -113 -81 -142 -175l-51 -323h-137l70 443z" />
    <glyph glyph-name="uni0156" unicode="&#x156;" horiz-adv-x="730" 
d="M262 -212c-5 -1 -10 -1 -15 -1c-36 0 -61 20 -61 54c0 4 0 7 1 11c7 45 41 80 93 80c56 0 76 -38 76 -76c0 -6 -1 -13 -2 -19c-16 -104 -96 -161 -160 -185l-26 43c34 13 73 43 94 93zM280 310c-23 0 -45 1 -66 2l-49 -312h-143l51 319l73 461c9 1 139 9 268 9
c177 0 293 -74 293 -202c0 -12 -1 -24 -3 -37c-19 -123 -122 -205 -265 -231l209 -312l-1 -7h-164zM231 416c28 -2 67 -3 107 -3c111 0 206 32 223 137c1 9 2 18 2 26c0 85 -80 110 -181 110c-40 0 -81 -1 -109 -3z" />
    <glyph glyph-name="uni0157" unicode="&#x157;" horiz-adv-x="435" 
d="M72 -212c-5 -1 -10 -1 -15 -1c-36 0 -61 20 -61 54c0 4 0 7 1 11c7 45 41 80 93 80c56 0 76 -38 76 -76c0 -6 -1 -13 -2 -19c-16 -104 -96 -161 -160 -185l-26 43c34 13 73 43 94 93zM95 590l118 13l12 -128c37 75 94 140 183 140c28 0 51 -6 69 -16l-70 -112
c-11 7 -23 11 -40 11c-61 0 -113 -81 -142 -175l-51 -323h-137l70 443z" />
    <glyph glyph-name="Rcaron" unicode="&#x158;" horiz-adv-x="730" 
d="M658 984l-208 -147h-34l-162 147l47 43l148 -88l176 88zM280 310c-23 0 -45 1 -66 2l-49 -312h-143l51 319l73 461c9 1 139 9 268 9c177 0 293 -74 293 -202c0 -12 -1 -24 -3 -37c-19 -123 -122 -205 -265 -231l209 -312l-1 -7h-164zM231 416c28 -2 67 -3 107 -3
c111 0 206 32 223 137c1 9 2 18 2 26c0 85 -80 110 -181 110c-40 0 -81 -1 -109 -3z" />
    <glyph glyph-name="rcaron" unicode="&#x159;" horiz-adv-x="435" 
d="M514 834l-208 -147h-34l-162 147l47 43l148 -88l176 88zM95 590l118 13l12 -128c37 75 94 140 183 140c28 0 51 -6 69 -16l-70 -112c-11 7 -23 11 -40 11c-61 0 -113 -81 -142 -175l-51 -323h-137l70 443z" />
    <glyph glyph-name="Sacute" unicode="&#x15a;" horiz-adv-x="710" 
d="M608 967l-259 -125l-27 53l244 163zM16 182l146 20c1 -55 45 -117 146 -117c110 0 173 44 185 119c1 7 2 14 2 20c0 55 -41 74 -72 83c-54 15 -135 44 -190 64c-62 24 -140 75 -140 171c0 10 1 21 3 32c21 130 153 226 326 226c183 0 252 -120 255 -198l-146 -20
c-1 55 -43 113 -126 113c-91 0 -156 -44 -167 -114c-1 -5 -1 -10 -1 -15c0 -45 38 -64 77 -79c51 -19 130 -45 179 -60c72 -23 145 -76 145 -179c0 -12 -1 -25 -3 -38c-21 -130 -152 -230 -343 -230c-200 0 -274 122 -276 202z" />
    <glyph glyph-name="sacute" unicode="&#x15b;" horiz-adv-x="570" 
d="M514 817l-259 -125l-27 53l244 163zM-1 141l135 17v-2c0 -41 35 -80 107 -80s118 32 126 83c1 5 1 9 1 13c0 38 -31 55 -52 61c-42 13 -102 30 -143 46c-50 19 -113 53 -113 133c0 8 0 17 2 27c16 102 121 181 261 181c152 0 205 -94 207 -158l-136 -17
c0 42 -24 79 -86 79s-108 -31 -116 -80c0 -3 -1 -6 -1 -9c0 -33 31 -49 57 -57c40 -14 102 -32 135 -43c59 -19 118 -54 118 -138c0 -10 -1 -21 -3 -33c-16 -104 -123 -184 -276 -184c-163 0 -221 96 -223 161z" />
    <glyph glyph-name="Scircumflex" unicode="&#x15c;" horiz-adv-x="710" 
d="M231 871l208 147h34l162 -147l-47 -43l-148 88l-176 -88zM16 182l146 20c1 -55 45 -117 146 -117c110 0 173 44 185 119c1 7 2 14 2 20c0 55 -41 74 -72 83c-54 15 -135 44 -190 64c-62 24 -140 75 -140 171c0 10 1 21 3 32c21 130 153 226 326 226
c183 0 252 -120 255 -198l-146 -20c-1 55 -43 113 -126 113c-91 0 -156 -44 -167 -114c-1 -5 -1 -10 -1 -15c0 -45 38 -64 77 -79c51 -19 130 -45 179 -60c72 -23 145 -76 145 -179c0 -12 -1 -25 -3 -38c-21 -130 -152 -230 -343 -230c-200 0 -274 122 -276 202z" />
    <glyph glyph-name="scircumflex" unicode="&#x15d;" horiz-adv-x="570" 
d="M137 721l208 147h34l162 -147l-47 -43l-148 88l-176 -88zM-1 141l135 17v-2c0 -41 35 -80 107 -80s118 32 126 83c1 5 1 9 1 13c0 38 -31 55 -52 61c-42 13 -102 30 -143 46c-50 19 -113 53 -113 133c0 8 0 17 2 27c16 102 121 181 261 181c152 0 205 -94 207 -158
l-136 -17c0 42 -24 79 -86 79s-108 -31 -116 -80c0 -3 -1 -6 -1 -9c0 -33 31 -49 57 -57c40 -14 102 -32 135 -43c59 -19 118 -54 118 -138c0 -10 -1 -21 -3 -33c-16 -104 -123 -184 -276 -184c-163 0 -221 96 -223 161z" />
    <glyph glyph-name="Scedilla" unicode="&#x15e;" horiz-adv-x="710" 
d="M177 -272c72 16 150 45 158 97c0 2 1 4 1 6c0 14 -13 25 -57 25c-14 0 -31 -2 -43 -4l-33 39l64 90c-181 10 -249 124 -251 201l146 20c1 -55 45 -117 146 -117c110 0 173 44 185 119c1 7 2 14 2 20c0 55 -41 74 -72 83c-54 15 -135 44 -190 64c-62 24 -140 75 -140 171
c0 10 1 21 3 32c21 130 153 226 326 226c183 0 252 -120 255 -198l-146 -20c-1 55 -43 113 -126 113c-91 0 -156 -44 -167 -114c-1 -5 -1 -10 -1 -15c0 -45 38 -64 77 -79c51 -19 130 -45 179 -60c72 -23 145 -76 145 -179c0 -12 -1 -25 -3 -38
c-19 -118 -129 -212 -293 -228l-46 -64h6c75 0 121 -25 121 -77c0 -5 0 -10 -1 -16c-18 -114 -178 -144 -233 -157z" />
    <glyph glyph-name="scedilla" unicode="&#x15f;" horiz-adv-x="570" 
d="M107 -272c72 16 150 45 158 97c0 2 1 4 1 6c0 14 -13 25 -57 25c-14 0 -31 -2 -43 -4l-33 39l64 90c-144 9 -196 98 -198 160l135 17v-2c0 -41 35 -80 107 -80s118 32 126 83c1 5 1 9 1 13c0 38 -31 55 -52 61c-42 13 -102 30 -143 46c-50 19 -113 53 -113 133
c0 8 0 17 2 27c16 102 121 181 261 181c152 0 205 -94 207 -158l-136 -17c0 42 -24 79 -86 79s-108 -31 -116 -80c0 -3 -1 -6 -1 -9c0 -33 31 -49 57 -57c40 -14 102 -32 135 -43c59 -19 118 -54 118 -138c0 -10 -1 -21 -3 -33c-14 -92 -99 -165 -225 -181l-47 -65h6
c75 0 121 -25 121 -77c0 -5 0 -10 -1 -16c-18 -114 -178 -144 -233 -157z" />
    <glyph glyph-name="Scaron" unicode="&#x160;" horiz-adv-x="710" 
d="M653 984l-208 -147h-34l-162 147l47 43l148 -88l176 88zM16 182l146 20c1 -55 45 -117 146 -117c110 0 173 44 185 119c1 7 2 14 2 20c0 55 -41 74 -72 83c-54 15 -135 44 -190 64c-62 24 -140 75 -140 171c0 10 1 21 3 32c21 130 153 226 326 226
c183 0 252 -120 255 -198l-146 -20c-1 55 -43 113 -126 113c-91 0 -156 -44 -167 -114c-1 -5 -1 -10 -1 -15c0 -45 38 -64 77 -79c51 -19 130 -45 179 -60c72 -23 145 -76 145 -179c0 -12 -1 -25 -3 -38c-21 -130 -152 -230 -343 -230c-200 0 -274 122 -276 202z" />
    <glyph glyph-name="scaron" unicode="&#x161;" horiz-adv-x="570" 
d="M559 834l-208 -147h-34l-162 147l47 43l148 -88l176 88zM-1 141l135 17v-2c0 -41 35 -80 107 -80s118 32 126 83c1 5 1 9 1 13c0 38 -31 55 -52 61c-42 13 -102 30 -143 46c-50 19 -113 53 -113 133c0 8 0 17 2 27c16 102 121 181 261 181c152 0 205 -94 207 -158
l-136 -17c0 42 -24 79 -86 79s-108 -31 -116 -80c0 -3 -1 -6 -1 -9c0 -33 31 -49 57 -57c40 -14 102 -32 135 -43c59 -19 118 -54 118 -138c0 -10 -1 -21 -3 -33c-16 -104 -123 -184 -276 -184c-163 0 -221 96 -223 161z" />
    <glyph glyph-name="uni0162" unicode="&#x162;" horiz-adv-x="620" 
d="M117 -272c72 16 150 45 158 97c0 2 1 4 1 6c0 14 -13 25 -57 25c-14 0 -31 -2 -43 -4l-33 39l78 109h-44l107 673h-215l17 107h576l-17 -107h-215l-107 -673h-28l-59 -82h6c75 0 121 -25 121 -77c0 -5 0 -10 -1 -16c-18 -114 -178 -144 -233 -157z" />
    <glyph glyph-name="uni0163" unicode="&#x163;" horiz-adv-x="415" 
d="M67 -272c72 16 150 45 158 97c0 2 1 4 1 6c0 14 -13 25 -57 25c-14 0 -31 -2 -43 -4l-33 39l70 98c-59 11 -95 46 -95 111c0 11 1 22 3 34l60 380h-85l14 86h90l20 125l130 10l-21 -135h141l-14 -86h-138l-57 -360c-2 -13 -3 -23 -3 -32c0 -31 12 -39 38 -39
c38 0 79 13 94 22l18 -89c-29 -14 -71 -27 -123 -30l-49 -68h6c75 0 121 -25 121 -77c0 -5 0 -10 -1 -16c-18 -114 -178 -144 -233 -157z" />
    <glyph glyph-name="Tcaron" unicode="&#x164;" horiz-adv-x="620" 
d="M608 984l-208 -147h-34l-162 147l47 43l148 -88l176 88zM69 673l17 107h576l-17 -107h-215l-107 -673h-146l107 673h-215z" />
    <glyph glyph-name="tcaron" unicode="&#x165;" horiz-adv-x="625" 
d="M46 514l14 86h90l20 125l130 10l-21 -135h141l-14 -86h-138l-57 -360c-2 -13 -3 -23 -3 -32c0 -31 12 -39 38 -39c38 0 79 13 94 22l18 -89c-33 -16 -82 -31 -144 -31c-87 0 -146 32 -146 115c0 10 1 22 3 34l60 380h-85zM575 688c-5 -1 -10 -1 -15 -1
c-36 0 -62 20 -62 54c0 4 0 7 1 11c7 45 42 80 94 80c56 0 76 -38 76 -76c0 -6 -1 -13 -2 -19c-16 -104 -97 -161 -161 -185l-26 43c34 13 74 43 95 93z" />
    <glyph glyph-name="Utilde" unicode="&#x168;" horiz-adv-x="770" 
d="M264 889c34 61 76 124 147 124c56 0 84 -31 102 -50c17 -18 26 -32 39 -32c27 0 54 54 66 76l65 -26c-34 -61 -75 -124 -146 -124c-56 0 -84 31 -102 50c-17 18 -26 32 -39 32c-28 0 -54 -54 -67 -76zM51 242l86 538h147l-86 -538c-2 -12 -3 -23 -3 -33
c0 -85 59 -123 144 -123c95 0 172 48 189 156l86 538h147l-86 -538c-23 -147 -161 -262 -353 -262c-174 0 -274 95 -274 222c0 13 1 26 3 40z" />
    <glyph glyph-name="utilde" unicode="&#x169;" horiz-adv-x="620" 
d="M165 739c34 61 76 124 147 124c56 0 84 -31 102 -50c17 -18 26 -32 39 -32c27 0 54 54 66 76l65 -26c-34 -61 -75 -124 -146 -124c-56 0 -84 31 -102 50c-17 18 -26 32 -39 32c-28 0 -54 -54 -67 -76zM28 191l65 409h137l-65 -409c-1 -9 -2 -18 -2 -26
c0 -62 42 -87 99 -87c64 0 120 32 133 113l65 409h137l-65 -409c-18 -116 -129 -211 -285 -211c-142 0 -221 79 -221 180c0 10 0 20 2 31z" />
    <glyph glyph-name="Umacron" unicode="&#x16a;" horiz-adv-x="770" 
d="M264 887l13 86h404l-13 -86h-404zM51 242l86 538h147l-86 -538c-2 -12 -3 -23 -3 -33c0 -85 59 -123 144 -123c95 0 172 48 189 156l86 538h147l-86 -538c-23 -147 -161 -262 -353 -262c-174 0 -274 95 -274 222c0 13 1 26 3 40z" />
    <glyph glyph-name="umacron" unicode="&#x16b;" horiz-adv-x="620" 
d="M165 737l13 86h404l-13 -86h-404zM28 191l65 409h137l-65 -409c-1 -9 -2 -18 -2 -26c0 -62 42 -87 99 -87c64 0 120 32 133 113l65 409h137l-65 -409c-18 -116 -129 -211 -285 -211c-142 0 -221 79 -221 180c0 10 0 20 2 31z" />
    <glyph glyph-name="Ubreve" unicode="&#x16c;" horiz-adv-x="770" 
d="M279 985l88 28c6 -38 24 -88 105 -88s115 50 133 88l78 -28c-31 -68 -98 -142 -224 -142s-171 74 -180 142zM51 242l86 538h147l-86 -538c-2 -12 -3 -23 -3 -33c0 -85 59 -123 144 -123c95 0 172 48 189 156l86 538h147l-86 -538c-23 -147 -161 -262 -353 -262
c-174 0 -274 95 -274 222c0 13 1 26 3 40z" />
    <glyph glyph-name="ubreve" unicode="&#x16d;" horiz-adv-x="620" 
d="M180 835l88 28c6 -38 24 -88 105 -88s115 50 133 88l78 -28c-31 -68 -98 -142 -224 -142s-171 74 -180 142zM28 191l65 409h137l-65 -409c-1 -9 -2 -18 -2 -26c0 -62 42 -87 99 -87c64 0 120 32 133 113l65 409h137l-65 -409c-18 -116 -129 -211 -285 -211
c-142 0 -221 79 -221 180c0 10 0 20 2 31z" />
    <glyph glyph-name="Uring" unicode="&#x16e;" horiz-adv-x="770" 
d="M452 799c-65 0 -109 37 -109 96c0 7 1 13 2 20c11 71 72 116 144 116c65 0 108 -36 108 -95c0 -7 -1 -14 -2 -21c-11 -71 -71 -116 -143 -116zM461 860c35 0 59 23 64 55c1 4 1 7 1 11c0 26 -16 44 -47 44c-35 0 -59 -23 -64 -55c-1 -4 -1 -7 -1 -11c0 -26 16 -44 47 -44
zM51 242l86 538h147l-86 -538c-2 -12 -3 -23 -3 -33c0 -85 59 -123 144 -123c95 0 172 48 189 156l86 538h147l-86 -538c-23 -147 -161 -262 -353 -262c-174 0 -274 95 -274 222c0 13 1 26 3 40z" />
    <glyph glyph-name="uring" unicode="&#x16f;" horiz-adv-x="620" 
d="M353 649c-65 0 -109 37 -109 96c0 7 1 13 2 20c11 71 72 116 144 116c65 0 108 -36 108 -95c0 -7 -1 -14 -2 -21c-11 -71 -71 -116 -143 -116zM362 710c35 0 59 23 64 55c1 4 1 7 1 11c0 26 -16 44 -47 44c-35 0 -59 -23 -64 -55c-1 -4 -1 -7 -1 -11c0 -26 16 -44 47 -44
zM28 191l65 409h137l-65 -409c-1 -9 -2 -18 -2 -26c0 -62 42 -87 99 -87c64 0 120 32 133 113l65 409h137l-65 -409c-18 -116 -129 -211 -285 -211c-142 0 -221 79 -221 180c0 10 0 20 2 31z" />
    <glyph glyph-name="Uhungarumlaut" unicode="&#x170;" horiz-adv-x="770" 
d="M291 878l140 190l69 -57l-166 -169zM509 878l139 190l69 -57l-165 -169zM51 242l86 538h147l-86 -538c-2 -12 -3 -23 -3 -33c0 -85 59 -123 144 -123c95 0 172 48 189 156l86 538h147l-86 -538c-23 -147 -161 -262 -353 -262c-174 0 -274 95 -274 222c0 13 1 26 3 40z
" />
    <glyph glyph-name="uhungarumlaut" unicode="&#x171;" horiz-adv-x="620" 
d="M192 728l140 190l69 -57l-166 -169zM410 728l139 190l69 -57l-165 -169zM28 191l65 409h137l-65 -409c-1 -9 -2 -18 -2 -26c0 -62 42 -87 99 -87c64 0 120 32 133 113l65 409h137l-65 -409c-18 -116 -129 -211 -285 -211c-142 0 -221 79 -221 180c0 10 0 20 2 31z" />
    <glyph glyph-name="Uogonek" unicode="&#x172;" horiz-adv-x="770" 
d="M51 242l86 538h147l-86 -538c-2 -12 -3 -23 -3 -33c0 -85 59 -123 144 -123c95 0 172 48 189 156l86 538h147l-86 -538c-17 -105 -91 -194 -203 -236c-31 -30 -62 -73 -72 -134c-1 -6 -1 -12 -1 -17c0 -32 18 -43 41 -43c27 0 56 10 65 15l12 -63
c-28 -14 -64 -22 -104 -22c-69 0 -103 38 -103 93c0 8 1 16 2 24c8 49 32 91 60 124c-16 -2 -33 -3 -50 -3c-174 0 -274 95 -274 222c0 13 1 26 3 40z" />
    <glyph glyph-name="uogonek" unicode="&#x173;" horiz-adv-x="620" 
d="M28 191l65 409h137l-65 -409c-1 -9 -2 -18 -2 -26c0 -62 42 -87 99 -87c64 0 120 32 133 113l65 409h137l-65 -409c-13 -84 -75 -156 -166 -190c-30 -30 -57 -71 -66 -129c-1 -6 -1 -12 -1 -17c0 -32 18 -43 41 -43c27 0 56 10 65 15l12 -63c-28 -14 -64 -22 -104 -22
c-69 0 -103 38 -103 93c0 8 1 16 2 24c8 48 31 89 59 122c-8 0 -16 -1 -24 -1c-142 0 -221 79 -221 180c0 10 0 20 2 31z" />
    <glyph glyph-name="Wcircumflex" unicode="&#x174;" horiz-adv-x="1060" 
d="M406 871l208 147h34l162 -147l-47 -43l-148 88l-176 -88zM1103 758l-347 -758h-124l-74 555l-250 -555h-124l-107 758l1 8l161 14l51 -574l240 554h120l66 -554l233 574l155 -14z" />
    <glyph glyph-name="wcircumflex" unicode="&#x175;" horiz-adv-x="830" 
d="M267 721l208 147h34l162 -147l-47 -43l-148 88l-176 -88zM850 582l-266 -582h-116h-1l-51 394l-174 -394h-116l-82 582l1 8l147 10l34 -404l167 389h109l44 -391l162 406l143 -10z" />
    <glyph glyph-name="Ycircumflex" unicode="&#x176;" horiz-adv-x="670" 
d="M211 871l208 147h34l162 -147l-47 -43l-148 88l-176 -88zM63 758l1 9l165 13l114 -349l226 349l159 -13l-1 -9l-334 -467l-46 -291h-144l46 291z" />
    <glyph glyph-name="ycircumflex" unicode="&#x177;" horiz-adv-x="600" 
d="M152 721l208 147h34l162 -147l-47 -43l-148 88l-176 -88zM39 583l1 7l151 10l76 -436l212 436l147 -10l-1 -7l-336 -603c-62 -101 -118 -210 -247 -210c-55 0 -92 22 -115 42l78 81c14 -14 27 -29 47 -29c43 0 76 52 130 142v1z" />
    <glyph glyph-name="Ydieresis" unicode="&#x178;" horiz-adv-x="670" 
d="M311 1004c41 0 69 -23 69 -61c0 -4 0 -8 -1 -13c-7 -46 -45 -74 -91 -74c-41 0 -68 22 -68 60c0 4 0 9 1 14c7 46 44 74 90 74zM557 1004c41 0 69 -23 69 -61c0 -4 0 -8 -1 -13c-7 -46 -45 -74 -91 -74c-41 0 -68 22 -68 60c0 4 0 9 1 14c7 46 44 74 90 74zM63 758l1 9
l165 13l114 -349l226 349l159 -13l-1 -9l-334 -467l-46 -291h-144l46 291z" />
    <glyph glyph-name="Zacute" unicode="&#x179;" horiz-adv-x="670" 
d="M588 967l-259 -125l-27 53l244 163zM-19 82l504 586h-383l18 112h566l-3 -82l-502 -586h420l-18 -112h-605z" />
    <glyph glyph-name="zacute" unicode="&#x17a;" horiz-adv-x="530" 
d="M494 817l-259 -125l-27 53l244 163zM-27 68l369 437h-277l15 95h448l-3 -68l-369 -437h306l-15 -95h-477z" />
    <glyph glyph-name="Zdotaccent" unicode="&#x17b;" horiz-adv-x="670" 
d="M435 1011c45 0 77 -25 77 -67c0 -5 0 -9 -1 -14c-8 -50 -51 -81 -101 -81c-45 0 -76 26 -76 67c0 5 0 9 1 14c8 50 50 81 100 81zM-19 82l504 586h-383l18 112h566l-3 -82l-502 -586h420l-18 -112h-605z" />
    <glyph glyph-name="zdotaccent" unicode="&#x17c;" horiz-adv-x="530" 
d="M341 861c45 0 77 -25 77 -67c0 -5 0 -9 -1 -14c-8 -50 -51 -81 -101 -81c-45 0 -76 26 -76 67c0 5 0 9 1 14c8 50 50 81 100 81zM-27 68l369 437h-277l15 95h448l-3 -68l-369 -437h306l-15 -95h-477z" />
    <glyph glyph-name="Zcaron" unicode="&#x17d;" horiz-adv-x="670" 
d="M633 984l-208 -147h-34l-162 147l47 43l148 -88l176 88zM-19 82l504 586h-383l18 112h566l-3 -82l-502 -586h420l-18 -112h-605z" />
    <glyph glyph-name="zcaron" unicode="&#x17e;" horiz-adv-x="530" 
d="M539 834l-208 -147h-34l-162 147l47 43l148 -88l176 88zM-27 68l369 437h-277l15 95h448l-3 -68l-369 -437h306l-15 -95h-477z" />
    <glyph glyph-name="uni018F" unicode="&#x18f;" horiz-adv-x="780" 
d="M731 407l-5 -34c-28 -176 -137 -393 -414 -393c-200 0 -286 123 -286 269c0 20 2 41 5 62c6 35 17 74 31 111h531c3 24 5 48 5 69c0 129 -59 204 -173 204c-100 0 -167 -68 -186 -123l-141 14c28 82 141 214 344 214c230 0 297 -150 297 -301c0 -31 -3 -62 -8 -92z
M576 328h-401c-1 -6 -2 -12 -3 -17c-3 -21 -5 -41 -5 -59c0 -114 63 -169 161 -169c125 0 212 93 248 245z" />
    <glyph glyph-name="florin" unicode="&#x192;" horiz-adv-x="400" 
d="M46 514l14 86h85l11 72c9 58 62 158 198 158c82 0 128 -38 140 -49l-69 -73c-11 8 -38 27 -76 27c-32 0 -54 -25 -60 -63l-11 -72h142l-14 -86h-138l-84 -532c-19 -117 -124 -183 -228 -207l-29 87c69 19 108 49 121 128l83 524h-85z" />
    <glyph glyph-name="Ohorn" unicode="&#x1a0;" horiz-adv-x="820" 
d="M51 373l5 34c28 178 141 393 421 393c99 0 168 -27 215 -69c20 12 42 34 48 74c1 5 1 10 1 14c0 22 -9 39 -16 48l90 47c14 -16 24 -41 24 -74c0 -10 -1 -20 -3 -31c-10 -62 -58 -102 -105 -124c35 -54 48 -120 48 -187c0 -30 -2 -61 -7 -91l-5 -34
c-28 -178 -140 -393 -420 -393c-234 0 -303 151 -303 304c0 30 2 60 7 89zM364 87c137 0 226 107 254 286l5 34c5 31 7 59 7 85c0 127 -56 201 -170 201c-137 0 -227 -107 -255 -286l-5 -34c-5 -30 -7 -58 -7 -84c0 -128 57 -202 171 -202z" />
    <glyph glyph-name="ohorn" unicode="&#x1a1;" horiz-adv-x="660" 
d="M33 287l5 26c21 134 104 307 330 307c86 0 143 -25 180 -63c17 13 34 34 39 68c1 5 1 10 1 14c0 22 -9 39 -16 48l89 47c14 -16 25 -43 25 -76c0 -9 -1 -19 -3 -29c-10 -60 -54 -99 -101 -122c18 -38 25 -81 25 -125c0 -23 -2 -47 -5 -69l-5 -26
c-21 -134 -104 -307 -330 -307c-188 0 -240 120 -240 237c0 24 2 47 6 70zM282 78c90 0 156 72 178 209l5 26c4 23 6 45 6 65c0 95 -43 144 -118 144c-90 0 -156 -72 -178 -209l-5 -26c-4 -23 -6 -45 -6 -65c0 -95 43 -144 118 -144z" />
    <glyph glyph-name="Uhorn" unicode="&#x1af;" horiz-adv-x="780" 
d="M51 242l86 538h147l-86 -538c-2 -12 -3 -23 -3 -33c0 -85 59 -123 144 -123c95 0 172 48 189 156l80 503h26l56 -12c19 12 39 34 45 72c1 5 1 10 1 14c0 22 -9 39 -16 48l90 47c14 -16 24 -41 24 -74c0 -10 -1 -20 -3 -31c-8 -53 -44 -90 -84 -113l-72 -454
c-23 -147 -161 -262 -353 -262c-174 0 -274 95 -274 222c0 13 1 26 3 40z" />
    <glyph glyph-name="uhorn" unicode="&#x1b0;" horiz-adv-x="635" 
d="M28 191l65 409h137l-65 -409c-1 -9 -2 -18 -2 -26c0 -62 42 -87 99 -87c64 0 120 32 133 113l59 374h26l48 -12c19 13 38 35 44 72c1 5 1 10 1 14c0 22 -9 39 -16 48l89 47c14 -16 25 -43 25 -76c0 -9 -1 -19 -3 -29c-8 -53 -44 -90 -84 -113l-52 -325
c-18 -116 -129 -211 -285 -211c-142 0 -221 79 -221 180c0 10 0 20 2 31z" />
    <glyph glyph-name="uni01CD" unicode="&#x1cd;" horiz-adv-x="750" 
d="M673 984l-208 -147h-34l-162 147l47 43l148 -88l176 88zM682 0h-163l-29 158h-300l-79 -158h-163l2 10l428 770h122l184 -770zM471 262l-61 338l-169 -338h230z" />
    <glyph glyph-name="uni01CE" unicode="&#x1ce;" horiz-adv-x="625" 
d="M584 834l-208 -147h-34l-162 147l47 43l148 -88l176 88zM15 173c12 76 88 153 230 153c58 0 115 -4 160 -8l16 97c1 9 2 17 2 25c0 60 -43 82 -99 82c-58 0 -107 -33 -128 -103l-135 11c28 92 121 190 278 190c138 0 217 -74 217 -174c0 -10 0 -20 -2 -31l-42 -266
c-2 -11 -3 -21 -3 -29c0 -30 13 -42 51 -47l-48 -88c-37 5 -100 19 -115 79c-43 -44 -103 -79 -187 -79c-126 0 -198 60 -198 155c0 11 1 22 3 33zM400 237c-42 5 -102 11 -161 11c-38 0 -83 -22 -92 -76c-1 -8 -2 -15 -2 -22c0 -61 46 -83 95 -83c86 0 131 66 154 137z" />
    <glyph glyph-name="uni01CF" unicode="&#x1cf;" horiz-adv-x="320" 
d="M458 984l-208 -147h-34l-162 147l47 43l148 -88l176 88zM27 0l124 780h146l-124 -780h-146z" />
    <glyph glyph-name="uni01D0" unicode="&#x1d0;" horiz-adv-x="300" 
d="M424 834l-208 -147h-34l-162 147l47 43l148 -88l176 88zM21 0l95 600h138l-95 -600h-138z" />
    <glyph glyph-name="uni01D1" unicode="&#x1d1;" horiz-adv-x="820" 
d="M708 984l-208 -147h-34l-162 147l47 43l148 -88l176 88zM51 373l5 34c28 178 141 393 421 393c234 0 302 -150 302 -303c0 -30 -2 -61 -7 -90l-5 -34c-28 -178 -140 -393 -420 -393c-234 0 -303 151 -303 304c0 30 2 60 7 89zM364 87c137 0 226 107 254 286l5 34
c5 31 7 59 7 85c0 127 -56 201 -170 201c-137 0 -227 -107 -255 -286l-5 -34c-5 -30 -7 -58 -7 -84c0 -128 57 -202 171 -202z" />
    <glyph glyph-name="uni01D2" unicode="&#x1d2;" horiz-adv-x="660" 
d="M604 834l-208 -147h-34l-162 147l47 43l148 -88l176 88zM33 287l5 26c21 134 104 307 330 307c188 0 240 -120 240 -237c0 -24 -2 -47 -6 -70l-5 -26c-21 -134 -104 -307 -330 -307c-188 0 -240 120 -240 237c0 24 2 47 6 70zM282 78c90 0 156 72 178 209l5 26
c4 23 6 45 6 65c0 95 -43 144 -118 144c-90 0 -156 -72 -178 -209l-5 -26c-4 -23 -6 -45 -6 -65c0 -95 43 -144 118 -144z" />
    <glyph glyph-name="uni01D3" unicode="&#x1d3;" horiz-adv-x="770" 
d="M683 984l-208 -147h-34l-162 147l47 43l148 -88l176 88zM51 242l86 538h147l-86 -538c-2 -12 -3 -23 -3 -33c0 -85 59 -123 144 -123c95 0 172 48 189 156l86 538h147l-86 -538c-23 -147 -161 -262 -353 -262c-174 0 -274 95 -274 222c0 13 1 26 3 40z" />
    <glyph glyph-name="uni01D4" unicode="&#x1d4;" horiz-adv-x="620" 
d="M584 834l-208 -147h-34l-162 147l47 43l148 -88l176 88zM28 191l65 409h137l-65 -409c-1 -9 -2 -18 -2 -26c0 -62 42 -87 99 -87c64 0 120 32 133 113l65 409h137l-65 -409c-18 -116 -129 -211 -285 -211c-142 0 -221 79 -221 180c0 10 0 20 2 31z" />
    <glyph glyph-name="uni01D5" unicode="&#x1d5;" horiz-adv-x="770" 
d="M292 1067l13 86h404l-13 -86h-404zM361 1004c41 0 69 -23 69 -61c0 -4 0 -8 -1 -13c-7 -46 -45 -74 -91 -74c-41 0 -68 22 -68 60c0 4 0 9 1 14c7 46 44 74 90 74zM607 1004c41 0 69 -23 69 -61c0 -4 0 -8 -1 -13c-7 -46 -45 -74 -91 -74c-41 0 -68 22 -68 60
c0 4 0 9 1 14c7 46 44 74 90 74zM51 242l86 538h147l-86 -538c-2 -12 -3 -23 -3 -33c0 -85 59 -123 144 -123c95 0 172 48 189 156l86 538h147l-86 -538c-23 -147 -161 -262 -353 -262c-174 0 -274 95 -274 222c0 13 1 26 3 40z" />
    <glyph glyph-name="uni01D6" unicode="&#x1d6;" horiz-adv-x="620" 
d="M194 917l13 86h404l-13 -86h-404zM262 854c41 0 69 -23 69 -61c0 -4 0 -8 -1 -13c-7 -46 -45 -74 -91 -74c-41 0 -68 22 -68 60c0 4 0 9 1 14c7 46 44 74 90 74zM508 854c41 0 69 -23 69 -61c0 -4 0 -8 -1 -13c-7 -46 -45 -74 -91 -74c-41 0 -68 22 -68 60c0 4 0 9 1 14
c7 46 44 74 90 74zM28 191l65 409h137l-65 -409c-1 -9 -2 -18 -2 -26c0 -62 42 -87 99 -87c64 0 120 32 133 113l65 409h137l-65 -409c-18 -116 -129 -211 -285 -211c-142 0 -221 79 -221 180c0 10 0 20 2 31z" />
    <glyph glyph-name="uni01D7" unicode="&#x1d7;" horiz-adv-x="770" 
d="M666 1147l-259 -125l-27 53l244 163zM361 1004c41 0 69 -23 69 -61c0 -4 0 -8 -1 -13c-7 -46 -45 -74 -91 -74c-41 0 -68 22 -68 60c0 4 0 9 1 14c7 46 44 74 90 74zM607 1004c41 0 69 -23 69 -61c0 -4 0 -8 -1 -13c-7 -46 -45 -74 -91 -74c-41 0 -68 22 -68 60
c0 4 0 9 1 14c7 46 44 74 90 74zM51 242l86 538h147l-86 -538c-2 -12 -3 -23 -3 -33c0 -85 59 -123 144 -123c95 0 172 48 189 156l86 538h147l-86 -538c-23 -147 -161 -262 -353 -262c-174 0 -274 95 -274 222c0 13 1 26 3 40z" />
    <glyph glyph-name="uni01D8" unicode="&#x1d8;" horiz-adv-x="620" 
d="M568 997l-259 -125l-27 53l244 163zM262 854c41 0 69 -23 69 -61c0 -4 0 -8 -1 -13c-7 -46 -45 -74 -91 -74c-41 0 -68 22 -68 60c0 4 0 9 1 14c7 46 44 74 90 74zM508 854c41 0 69 -23 69 -61c0 -4 0 -8 -1 -13c-7 -46 -45 -74 -91 -74c-41 0 -68 22 -68 60
c0 4 0 9 1 14c7 46 44 74 90 74zM28 191l65 409h137l-65 -409c-1 -9 -2 -18 -2 -26c0 -62 42 -87 99 -87c64 0 120 32 133 113l65 409h137l-65 -409c-18 -116 -129 -211 -285 -211c-142 0 -221 79 -221 180c0 10 0 20 2 31z" />
    <glyph glyph-name="uni01D9" unicode="&#x1d9;" horiz-adv-x="770" 
d="M711 1164l-208 -147h-34l-162 147l47 43l148 -88l176 88zM361 1004c41 0 69 -23 69 -61c0 -4 0 -8 -1 -13c-7 -46 -45 -74 -91 -74c-41 0 -68 22 -68 60c0 4 0 9 1 14c7 46 44 74 90 74zM607 1004c41 0 69 -23 69 -61c0 -4 0 -8 -1 -13c-7 -46 -45 -74 -91 -74
c-41 0 -68 22 -68 60c0 4 0 9 1 14c7 46 44 74 90 74zM51 242l86 538h147l-86 -538c-2 -12 -3 -23 -3 -33c0 -85 59 -123 144 -123c95 0 172 48 189 156l86 538h147l-86 -538c-23 -147 -161 -262 -353 -262c-174 0 -274 95 -274 222c0 13 1 26 3 40z" />
    <glyph glyph-name="uni01DA" unicode="&#x1da;" horiz-adv-x="620" 
d="M613 1014l-208 -147h-34l-162 147l47 43l148 -88l176 88zM262 854c41 0 69 -23 69 -61c0 -4 0 -8 -1 -13c-7 -46 -45 -74 -91 -74c-41 0 -68 22 -68 60c0 4 0 9 1 14c7 46 44 74 90 74zM508 854c41 0 69 -23 69 -61c0 -4 0 -8 -1 -13c-7 -46 -45 -74 -91 -74
c-41 0 -68 22 -68 60c0 4 0 9 1 14c7 46 44 74 90 74zM28 191l65 409h137l-65 -409c-1 -9 -2 -18 -2 -26c0 -62 42 -87 99 -87c64 0 120 32 133 113l65 409h137l-65 -409c-18 -116 -129 -211 -285 -211c-142 0 -221 79 -221 180c0 10 0 20 2 31z" />
    <glyph glyph-name="uni01DB" unicode="&#x1db;" horiz-adv-x="770" 
d="M346 1147l72 91l192 -163l-43 -53zM361 1004c41 0 69 -23 69 -61c0 -4 0 -8 -1 -13c-7 -46 -45 -74 -91 -74c-41 0 -68 22 -68 60c0 4 0 9 1 14c7 46 44 74 90 74zM607 1004c41 0 69 -23 69 -61c0 -4 0 -8 -1 -13c-7 -46 -45 -74 -91 -74c-41 0 -68 22 -68 60
c0 4 0 9 1 14c7 46 44 74 90 74zM51 242l86 538h147l-86 -538c-2 -12 -3 -23 -3 -33c0 -85 59 -123 144 -123c95 0 172 48 189 156l86 538h147l-86 -538c-23 -147 -161 -262 -353 -262c-174 0 -274 95 -274 222c0 13 1 26 3 40z" />
    <glyph glyph-name="uni01DC" unicode="&#x1dc;" horiz-adv-x="620" 
d="M248 997l72 91l192 -163l-43 -53zM262 854c41 0 69 -23 69 -61c0 -4 0 -8 -1 -13c-7 -46 -45 -74 -91 -74c-41 0 -68 22 -68 60c0 4 0 9 1 14c7 46 44 74 90 74zM508 854c41 0 69 -23 69 -61c0 -4 0 -8 -1 -13c-7 -46 -45 -74 -91 -74c-41 0 -68 22 -68 60c0 4 0 9 1 14
c7 46 44 74 90 74zM28 191l65 409h137l-65 -409c-1 -9 -2 -18 -2 -26c0 -62 42 -87 99 -87c64 0 120 32 133 113l65 409h137l-65 -409c-18 -116 -129 -211 -285 -211c-142 0 -221 79 -221 180c0 10 0 20 2 31z" />
    <glyph glyph-name="Gcaron" unicode="&#x1e6;" horiz-adv-x="770" 
d="M708 984l-208 -147h-34l-162 147l47 43l148 -88l176 88zM404 294l16 103h300l-41 -261c-48 -68 -157 -156 -330 -156c-235 0 -305 152 -305 307c0 30 2 59 7 88l5 30c28 179 143 395 423 395c206 0 274 -134 276 -215l-150 -14c-1 54 -43 121 -143 121
c-137 0 -228 -103 -257 -287l-5 -30c-5 -31 -7 -60 -7 -86c0 -130 59 -201 173 -201c96 0 150 32 182 66l23 140h-167z" />
    <glyph glyph-name="gcaron" unicode="&#x1e7;" horiz-adv-x="670" 
d="M634 834l-208 -147h-34l-162 147l47 43l148 -88l176 88zM38 315c20 129 112 300 300 300c78 0 127 -42 156 -97l23 82h116l-98 -620c-19 -118 -130 -210 -283 -210c-150 0 -218 71 -227 114l131 36c5 -20 35 -56 110 -56c72 0 128 34 141 116l20 129
c-46 -53 -107 -94 -184 -94c-159 0 -210 122 -210 238c0 21 2 42 5 62zM464 370c-6 80 -44 145 -124 145c-81 0 -144 -66 -165 -200c-4 -23 -5 -45 -5 -64c0 -91 39 -136 106 -136c80 0 138 65 170 145z" />
    <glyph glyph-name="uni01EA" unicode="&#x1ea;" horiz-adv-x="820" 
d="M364 87c137 0 226 107 254 286l5 34c5 31 7 59 7 85c0 127 -56 201 -170 201c-137 0 -227 -107 -255 -286l-5 -34c-5 -30 -7 -58 -7 -84c0 -128 57 -202 171 -202zM51 373l5 34c28 178 141 393 421 393c234 0 302 -150 302 -303c0 -30 -2 -61 -7 -90l-5 -34
c-24 -152 -109 -331 -308 -380c-27 -29 -51 -68 -59 -121c-1 -6 -1 -12 -1 -17c0 -32 18 -43 41 -43c27 0 56 10 65 15l12 -63c-28 -14 -64 -22 -104 -22c-69 0 -103 38 -103 93c0 8 1 16 2 24c8 48 31 89 59 122c-8 0 -16 -1 -24 -1c-234 0 -303 151 -303 304
c0 30 2 60 7 89z" />
    <glyph glyph-name="uni01EB" unicode="&#x1eb;" horiz-adv-x="660" 
d="M282 78c90 0 156 72 178 209l5 26c4 23 6 45 6 65c0 95 -43 144 -118 144c-90 0 -156 -72 -178 -209l-5 -26c-4 -23 -6 -45 -6 -65c0 -95 43 -144 118 -144zM33 287l5 26c21 134 104 307 330 307c188 0 240 -120 240 -237c0 -24 -2 -47 -6 -70l-5 -26
c-17 -108 -73 -241 -213 -289c-29 -29 -55 -70 -64 -126c-1 -6 -1 -12 -1 -17c0 -32 18 -43 41 -43c27 0 56 10 65 15l12 -63c-28 -14 -64 -22 -104 -22c-69 0 -103 38 -103 93c0 8 1 16 2 24c8 48 31 89 59 122c-8 0 -16 -1 -24 -1c-188 0 -240 120 -240 237
c0 24 2 47 6 70z" />
    <glyph glyph-name="uni0218" unicode="&#x218;" horiz-adv-x="710" 
d="M257 -212c-5 -1 -10 -1 -15 -1c-36 0 -61 20 -61 54c0 4 0 7 1 11c7 45 41 80 93 80c56 0 76 -38 76 -76c0 -6 -1 -13 -2 -19c-16 -104 -96 -161 -160 -185l-26 43c34 13 73 43 94 93zM16 182l146 20c1 -55 45 -117 146 -117c110 0 173 44 185 119c1 7 2 14 2 20
c0 55 -41 74 -72 83c-54 15 -135 44 -190 64c-62 24 -140 75 -140 171c0 10 1 21 3 32c21 130 153 226 326 226c183 0 252 -120 255 -198l-146 -20c-1 55 -43 113 -126 113c-91 0 -156 -44 -167 -114c-1 -5 -1 -10 -1 -15c0 -45 38 -64 77 -79c51 -19 130 -45 179 -60
c72 -23 145 -76 145 -179c0 -12 -1 -25 -3 -38c-21 -130 -152 -230 -343 -230c-200 0 -274 122 -276 202z" />
    <glyph glyph-name="uni0219" unicode="&#x219;" horiz-adv-x="570" 
d="M187 -212c-5 -1 -10 -1 -15 -1c-36 0 -61 20 -61 54c0 4 0 7 1 11c7 45 41 80 93 80c56 0 76 -38 76 -76c0 -6 -1 -13 -2 -19c-16 -104 -96 -161 -160 -185l-26 43c34 13 73 43 94 93zM-1 141l135 17v-2c0 -41 35 -80 107 -80s118 32 126 83c1 5 1 9 1 13
c0 38 -31 55 -52 61c-42 13 -102 30 -143 46c-50 19 -113 53 -113 133c0 8 0 17 2 27c16 102 121 181 261 181c152 0 205 -94 207 -158l-136 -17c0 42 -24 79 -86 79s-108 -31 -116 -80c0 -3 -1 -6 -1 -9c0 -33 31 -49 57 -57c40 -14 102 -32 135 -43
c59 -19 118 -54 118 -138c0 -10 -1 -21 -3 -33c-16 -104 -123 -184 -276 -184c-163 0 -221 96 -223 161z" />
    <glyph glyph-name="uni021A" unicode="&#x21a;" horiz-adv-x="620" 
d="M212 -212c-5 -1 -10 -1 -15 -1c-36 0 -61 20 -61 54c0 4 0 7 1 11c7 45 41 80 93 80c56 0 76 -38 76 -76c0 -6 -1 -13 -2 -19c-16 -104 -96 -161 -160 -185l-26 43c34 13 73 43 94 93zM69 673l17 107h576l-17 -107h-215l-107 -673h-146l107 673h-215z" />
    <glyph glyph-name="uni021B" unicode="&#x21b;" horiz-adv-x="415" 
d="M182 -212c-5 -1 -10 -1 -15 -1c-36 0 -61 20 -61 54c0 4 0 7 1 11c7 45 41 80 93 80c56 0 76 -38 76 -76c0 -6 -1 -13 -2 -19c-16 -104 -96 -161 -160 -185l-26 43c34 13 73 43 94 93zM46 514l14 86h90l20 125l130 10l-21 -135h141l-14 -86h-138l-57 -360
c-2 -13 -3 -23 -3 -32c0 -31 12 -39 38 -39c38 0 79 13 94 22l18 -89c-33 -16 -82 -31 -144 -31c-87 0 -146 32 -146 115c0 10 1 22 3 34l60 380h-85z" />
    <glyph glyph-name="uni0237" unicode="&#x237;" horiz-adv-x="310" 
d="M-93 -138c69 19 109 49 122 128l97 610h136l-98 -618c-19 -117 -124 -183 -228 -207z" />
    <glyph glyph-name="uni0251" unicode="&#x251;" horiz-adv-x="675" 
d="M34 290l3 20c21 130 115 306 304 306c73 0 119 -38 149 -89l22 73h136l-70 -445c-2 -11 -3 -19 -3 -27c0 -26 12 -36 47 -41l-57 -103c-43 6 -124 24 -124 114v2c-48 -64 -116 -116 -201 -116c-159 0 -211 125 -211 242c0 22 2 43 5 64zM456 364c-5 79 -43 136 -114 136
c-65 0 -123 -53 -145 -190l-3 -20c-4 -25 -6 -47 -6 -67c0 -88 38 -123 91 -123c71 0 125 57 156 136z" />
    <glyph glyph-name="uni0259" unicode="&#x259;" horiz-adv-x="640" 
d="M582 313l-5 -26c-21 -135 -108 -307 -328 -307c-158 0 -228 102 -228 215c0 15 2 31 4 46c5 29 13 58 23 86l-1 1h1h403c2 17 3 34 3 49c0 96 -43 147 -119 147c-69 0 -118 -47 -131 -86l-130 12c22 66 112 170 276 170c186 0 238 -119 238 -237c0 -24 -2 -47 -6 -70z
M435 242h-282v-1c-2 -16 -4 -30 -4 -43c0 -85 48 -122 115 -122c80 0 143 59 171 166z" />
    <glyph glyph-name="uni0261" unicode="&#x261;" horiz-adv-x="670" 
d="M38 315c20 129 112 300 300 300c78 0 127 -42 156 -97l23 82h116l-98 -620c-19 -118 -130 -210 -283 -210c-150 0 -218 71 -227 114l131 36c5 -20 35 -56 110 -56c72 0 128 34 141 116l20 129c-46 -53 -107 -94 -184 -94c-159 0 -210 122 -210 238c0 21 2 42 5 62z
M464 370c-6 80 -44 145 -124 145c-81 0 -144 -66 -165 -200c-4 -23 -5 -45 -5 -64c0 -91 39 -136 106 -136c80 0 138 65 170 145z" />
    <glyph glyph-name="uni02BB" unicode="&#x2bb;" horiz-adv-x="240" 
d="M249 637c-8 -49 -47 -85 -102 -85c-62 0 -85 44 -85 93c0 9 1 17 2 26c18 116 110 200 187 244l33 -56c-49 -28 -96 -76 -119 -145c4 0 9 1 13 1c42 0 72 -24 72 -64c0 -5 0 -9 -1 -14z" />
    <glyph glyph-name="uni02BC" unicode="&#x2bc;" horiz-adv-x="240" 
d="M86 813c8 49 46 85 101 85c62 0 85 -44 85 -93c0 -9 -1 -17 -2 -26c-18 -116 -109 -200 -186 -244l-33 56c49 28 96 76 119 145c-4 0 -10 -1 -14 -1c-42 0 -71 24 -71 63c0 5 0 10 1 15z" />
    <glyph glyph-name="uni02BD" unicode="&#x2bd;" horiz-adv-x="240" 
d="M276 813c-8 -48 -49 -78 -96 -78c-4 0 -8 1 -12 1c1 -69 32 -117 73 -145l-51 -56c-56 39 -113 109 -113 205c0 13 1 26 3 39c9 59 48 119 121 119c49 0 76 -28 76 -69c0 -5 0 -10 -1 -16z" />
    <glyph glyph-name="uni02BE" unicode="&#x2be;" horiz-adv-x="180" 
d="M211 765c-11 -71 -71 -116 -143 -116l9 61c35 0 59 23 64 55c1 4 1 7 1 11c0 26 -16 44 -47 44l10 61c65 0 108 -36 108 -95c0 -7 -1 -14 -2 -21z" />
    <glyph glyph-name="uni02BF" unicode="&#x2bf;" horiz-adv-x="180" 
d="M91 765c11 71 72 116 144 116l-10 -61c-35 0 -59 -23 -64 -55c-1 -4 -1 -7 -1 -11c0 -26 16 -44 47 -44l-9 -61c-65 0 -109 37 -109 96c0 7 1 13 2 20z" />
    <glyph glyph-name="circumflex" unicode="&#x2c6;" horiz-adv-x="510" 
d="M107 721l208 147h34l162 -147l-47 -43l-148 88l-176 -88z" />
    <glyph glyph-name="caron" unicode="&#x2c7;" horiz-adv-x="510" 
d="M529 834l-208 -147h-34l-162 147l47 43l148 -88l176 88z" />
    <glyph glyph-name="uni02C8" unicode="&#x2c8;" horiz-adv-x="210" 
d="M105 678l35 220h94l-35 -220h-94z" />
    <glyph glyph-name="uni02C9" unicode="&#x2c9;" horiz-adv-x="510" 
d="M110 737l13 86h404l-13 -86h-404z" />
    <glyph glyph-name="uni02CA" unicode="&#x2ca;" horiz-adv-x="330" 
d="M379 817l-259 -125l-27 53l244 163z" />
    <glyph glyph-name="uni02CB" unicode="&#x2cb;" horiz-adv-x="330" 
d="M89 817l72 91l192 -163l-43 -53z" />
    <glyph glyph-name="uni02CC" unicode="&#x2cc;" horiz-adv-x="210" 
d="M-49 -297l35 220h94l-35 -220h-94z" />
    <glyph glyph-name="uni02D7" unicode="&#x2d7;" horiz-adv-x="330" 
d="M12 412h316l-16 -104h-316z" />
    <glyph glyph-name="breve" unicode="&#x2d8;" horiz-adv-x="510" 
d="M125 835l88 28c6 -38 24 -88 105 -88s115 50 133 88l78 -28c-31 -68 -98 -142 -224 -142s-171 74 -180 142z" />
    <glyph glyph-name="dotaccent" unicode="&#x2d9;" horiz-adv-x="330" 
d="M241 861c45 0 77 -25 77 -67c0 -5 0 -9 -1 -14c-8 -50 -51 -81 -101 -81c-45 0 -76 26 -76 67c0 5 0 9 1 14c8 50 50 81 100 81z" />
    <glyph glyph-name="ring" unicode="&#x2da;" horiz-adv-x="330" 
d="M208 649c-65 0 -109 37 -109 96c0 7 1 13 2 20c11 71 72 116 144 116c65 0 108 -36 108 -95c0 -7 -1 -14 -2 -21c-11 -71 -71 -116 -143 -116zM217 710c35 0 59 23 64 55c1 4 1 7 1 11c0 26 -16 44 -47 44c-35 0 -59 -23 -64 -55c-1 -4 -1 -7 -1 -11c0 -26 16 -44 47 -44
z" />
    <glyph glyph-name="ogonek" unicode="&#x2db;" horiz-adv-x="330" 
d="M-3 -141c14 87 79 150 129 187l39 -32c-34 -30 -69 -75 -80 -142c-1 -6 -1 -12 -1 -17c0 -32 18 -43 41 -43c27 0 56 10 65 15l12 -63c-28 -14 -64 -22 -104 -22c-69 0 -103 38 -103 93c0 8 1 16 2 24z" />
    <glyph glyph-name="tilde" unicode="&#x2dc;" horiz-adv-x="510" 
d="M110 739c34 61 76 124 147 124c56 0 84 -31 102 -50c17 -18 26 -32 39 -32c27 0 54 54 66 76l65 -26c-34 -61 -75 -124 -146 -124c-56 0 -84 31 -102 50c-17 18 -26 32 -39 32c-28 0 -54 -54 -67 -76z" />
    <glyph glyph-name="hungarumlaut" unicode="&#x2dd;" horiz-adv-x="510" 
d="M107 728l140 190l69 -57l-166 -169zM325 728l139 190l69 -57l-165 -169z" />
    <glyph glyph-name="uni0300" unicode="&#x300;" 
d="M-91 817l72 91l192 -163l-43 -53z" />
    <glyph glyph-name="uni0301" unicode="&#x301;" 
d="M229 817l-259 -125l-27 53l244 163z" />
    <glyph glyph-name="uni0302" unicode="&#x302;" 
d="M-148 721l208 147h34l162 -147l-47 -43l-148 88l-176 -88z" />
    <glyph glyph-name="uni0303" unicode="&#x303;" 
d="M-145 739c34 61 76 124 147 124c56 0 84 -31 102 -50c17 -18 26 -32 39 -32c27 0 54 54 66 76l65 -26c-34 -61 -75 -124 -146 -124c-56 0 -84 31 -102 50c-17 18 -26 32 -39 32c-28 0 -54 -54 -67 -76z" />
    <glyph glyph-name="uni0304" unicode="&#x304;" 
d="M-145 737l13 86h404l-13 -86h-404z" />
    <glyph glyph-name="uni0305" unicode="&#x305;" 
d="M-235 737l13 86h584l-13 -86h-584z" />
    <glyph glyph-name="uni0306" unicode="&#x306;" 
d="M-130 835l88 28c6 -38 24 -88 105 -88s115 50 133 88l78 -28c-31 -68 -98 -142 -224 -142s-171 74 -180 142z" />
    <glyph glyph-name="uni0307" unicode="&#x307;" 
d="M76 861c45 0 77 -25 77 -67c0 -5 0 -9 -1 -14c-8 -50 -51 -81 -101 -81c-45 0 -76 26 -76 67c0 5 0 9 1 14c8 50 50 81 100 81z" />
    <glyph glyph-name="uni0308" unicode="&#x308;" 
d="M-48 854c41 0 69 -23 69 -61c0 -4 0 -8 -1 -13c-7 -46 -45 -74 -91 -74c-41 0 -68 22 -68 60c0 4 0 9 1 14c7 46 44 74 90 74zM198 854c41 0 69 -23 69 -61c0 -4 0 -8 -1 -13c-7 -46 -45 -74 -91 -74c-41 0 -68 22 -68 60c0 4 0 9 1 14c7 46 44 74 90 74z" />
    <glyph glyph-name="uni0309" unicode="&#x309;" 
d="M-37 873c32 16 71 29 123 29c57 0 98 -27 98 -76c0 -5 0 -10 -1 -16c-14 -91 -98 -119 -167 -138l-15 44c51 20 92 40 98 77c0 3 1 5 1 8c0 18 -13 27 -42 27c-31 0 -73 -14 -97 -24z" />
    <glyph glyph-name="uni030A" unicode="&#x30a;" 
d="M43 649c-65 0 -109 37 -109 96c0 7 1 13 2 20c11 71 72 116 144 116c65 0 108 -36 108 -95c0 -7 -1 -14 -2 -21c-11 -71 -71 -116 -143 -116zM52 710c35 0 59 23 64 55c1 4 1 7 1 11c0 26 -16 44 -47 44c-35 0 -59 -23 -64 -55c-1 -4 -1 -7 -1 -11c0 -26 16 -44 47 -44z
" />
    <glyph glyph-name="uni030B" unicode="&#x30b;" 
d="M-118 728l140 190l69 -57l-166 -169zM100 728l139 190l69 -57l-165 -169z" />
    <glyph glyph-name="uni030C" unicode="&#x30c;" 
d="M274 834l-208 -147h-34l-162 147l47 43l148 -88l176 88z" />
    <glyph glyph-name="uni030D" unicode="&#x30d;" 
d="M0 678l35 220h94l-35 -220h-94z" />
    <glyph glyph-name="uni030E" unicode="&#x30e;" 
d="M-95 678l35 220h90l-35 -220h-90zM98 678l35 220h91l-35 -220h-91z" />
    <glyph glyph-name="uni030F" unicode="&#x30f;" 
d="M228 728l-53 -36l-114 169l87 57zM10 728l-53 -36l-113 169l87 57z" />
    <glyph glyph-name="uni0311" unicode="&#x311;" 
d="M254 705l-88 -28c-6 38 -24 88 -105 88s-115 -50 -133 -88l-78 28c31 68 98 142 224 142s171 -74 180 -142z" />
    <glyph glyph-name="uni0312" unicode="&#x312;" 
d="M77 842c5 1 11 1 16 1c36 0 61 -20 61 -54c0 -4 0 -7 -1 -11c-7 -45 -41 -80 -93 -80c-56 0 -76 38 -76 76c0 6 1 13 2 19c16 104 96 161 160 185l26 -43c-34 -13 -74 -43 -95 -93z" />
    <glyph glyph-name="uni0313" unicode="&#x313;" 
d="M67 828c-5 -1 -10 -1 -15 -1c-36 0 -62 20 -62 54c0 4 0 7 1 11c7 45 42 80 94 80c56 0 76 -38 76 -76c0 -6 -1 -13 -2 -19c-16 -104 -96 -161 -160 -185l-27 43c34 13 74 43 95 93z" />
    <glyph glyph-name="uni0314" unicode="&#x314;" 
d="M75 828c5 -50 35 -80 65 -93l-39 -43c-50 21 -105 69 -105 153c0 10 1 21 3 32c7 43 38 95 104 95c46 0 69 -28 69 -65c0 -5 0 -10 -1 -15c-6 -41 -41 -65 -81 -65c-5 0 -10 0 -15 1z" />
    <glyph glyph-name="uni0315" unicode="&#x315;" horiz-adv-x="240" 
d="M160 688c-5 -1 -10 -1 -15 -1c-36 0 -62 20 -62 54c0 4 0 7 1 11c7 45 42 80 94 80c56 0 76 -38 76 -76c0 -6 -1 -13 -2 -19c-16 -104 -97 -161 -161 -185l-26 43c34 13 74 43 95 93z" />
    <glyph glyph-name="uni031B" unicode="&#x31b;" horiz-adv-x="60" 
d="M-80 539c20 4 68 24 78 86c1 5 1 10 1 14c0 22 -9 39 -16 48l89 47c14 -16 25 -43 25 -76c0 -9 -1 -19 -3 -29c-14 -86 -100 -130 -160 -142z" />
    <glyph glyph-name="uni0323" unicode="&#x323;" 
d="M-76 -99c45 0 76 -26 76 -67c0 -5 0 -9 -1 -14c-8 -50 -50 -81 -100 -81c-45 0 -77 25 -77 67c0 5 0 9 1 14c8 50 51 81 101 81z" />
    <glyph glyph-name="uni0324" unicode="&#x324;" 
d="M-200 -106c41 0 68 -22 68 -60c0 -4 0 -9 -1 -14c-7 -46 -44 -74 -90 -74c-41 0 -69 23 -69 61c0 4 0 8 1 13c7 46 45 74 91 74zM46 -106c41 0 68 -22 68 -60c0 -4 0 -9 -1 -14c-7 -46 -44 -74 -90 -74c-41 0 -69 23 -69 61c0 4 0 8 1 13c7 46 45 74 91 74z" />
    <glyph glyph-name="uni0326" unicode="&#x326;" 
d="M-98 -212c-5 -1 -10 -1 -15 -1c-36 0 -61 20 -61 54c0 4 0 7 1 11c7 45 41 80 93 80c56 0 76 -38 76 -76c0 -6 -1 -13 -2 -19c-16 -104 -96 -161 -160 -185l-26 43c34 13 73 43 94 93z" />
    <glyph glyph-name="uni0327" unicode="&#x327;" 
d="M-203 -272c72 16 150 45 158 97c0 2 1 4 1 6c0 14 -13 25 -57 25c-14 0 -31 -2 -43 -4l-33 39l92 129h74l-73 -102h6c75 0 121 -25 121 -77c0 -5 0 -10 -1 -16c-18 -114 -178 -144 -233 -157z" />
    <glyph glyph-name="uni0328" unicode="&#x328;" 
d="M-168 -141c14 87 79 150 129 187l39 -32c-34 -30 -69 -75 -80 -142c-1 -6 -1 -12 -1 -17c0 -32 18 -43 41 -43c27 0 56 10 65 15l12 -63c-28 -14 -64 -22 -104 -22c-69 0 -103 38 -103 93c0 8 1 16 2 24z" />
    <glyph glyph-name="uni0329" unicode="&#x329;" 
d="M-154 -297l35 220h94l-35 -220h-94z" />
    <glyph glyph-name="uni032E" unicode="&#x32e;" 
d="M-278 -100l88 28c6 -38 24 -88 105 -88s115 50 133 88l78 -28c-31 -68 -98 -142 -224 -142s-171 74 -180 142z" />
    <glyph glyph-name="uni0331" unicode="&#x331;" 
d="M-297 -223l13 86h404l-13 -86h-404z" />
    <glyph glyph-name="uni0332" unicode="&#x332;" 
d="M-387 -223l13 86h584l-13 -86h-584z" />
    <glyph glyph-name="uni034F" unicode="&#x34f;" 
 />
    <glyph glyph-name="uni0351" unicode="&#x351;" 
d="M-19 765c11 71 72 116 144 116l-10 -61c-35 0 -59 -23 -64 -55c-1 -4 -1 -7 -1 -11c0 -26 16 -44 47 -44l-9 -61c-65 0 -109 37 -109 96c0 7 1 13 2 20z" />
    <glyph glyph-name="uni0357" unicode="&#x357;" 
d="M141 765c-11 -71 -71 -116 -143 -116l9 61c35 0 59 23 64 55c1 4 1 7 1 11c0 26 -16 44 -47 44l10 61c65 0 108 -36 108 -95c0 -7 -1 -14 -2 -21z" />
    <glyph glyph-name="uni0358" unicode="&#x358;" horiz-adv-x="180" 
d="M113 681c45 0 76 -26 76 -67c0 -5 0 -9 -1 -14c-8 -50 -51 -81 -101 -81c-45 0 -76 26 -76 67c0 5 0 9 1 14c8 50 51 81 101 81z" />
    <glyph glyph-name="pi" unicode="&#x3c0;" horiz-adv-x="660" 
d="M47 506l15 94h605l-15 -94h-80l-57 -359c-1 -6 -1 -11 -1 -16c0 -38 27 -52 83 -57l-40 -89c-77 6 -183 26 -183 124c0 8 1 16 2 25l59 372h-171l-80 -506h-137l80 506h-80z" />
    <glyph glyph-name="uni0E01" unicode="&#xe01;" horiz-adv-x="655" 
d="M33 0l46 292c8 48 38 82 83 97l-114 23c31 104 137 208 305 208c150 0 241 -79 241 -191c0 -11 -1 -22 -3 -34l-63 -395h-128l63 395c1 10 2 19 2 27c0 72 -51 103 -127 103c-68 0 -117 -31 -147 -85l131 -29l-22 -53c-1 0 -19 4 -33 4c-38 0 -53 -25 -58 -57l-48 -305
h-128z" />
    <glyph glyph-name="uni0E02" unicode="&#xe02;" horiz-adv-x="635" 
d="M140 512c-24 0 -40 -17 -44 -40c-1 -3 -1 -6 -1 -9c0 -18 11 -31 32 -31c24 0 41 17 45 40c1 3 1 5 1 8c0 19 -12 32 -33 32zM23 472c12 75 87 142 208 142c108 0 167 -53 167 -129c0 -8 -1 -16 -2 -25c-22 -139 -176 -181 -194 -297c-1 -6 -1 -11 -1 -16
c0 -48 37 -72 86 -72c53 0 104 27 116 105l66 420h129l-66 -420c-17 -110 -117 -200 -260 -200c-130 0 -202 63 -202 148c0 8 1 17 2 25c27 168 211 196 230 315c1 5 1 10 1 15c0 40 -28 62 -81 66c16 -15 24 -35 24 -60c0 -6 0 -11 -1 -17c-10 -62 -64 -102 -127 -102
c-57 0 -96 32 -96 84c0 6 0 12 1 18z" />
    <glyph glyph-name="uni0E03" unicode="&#xe03;" horiz-adv-x="635" 
d="M146 548c-24 0 -41 -17 -45 -40c-1 -3 -1 -5 -1 -8c0 -19 12 -32 33 -32c24 0 40 17 44 40c1 3 1 6 1 9c0 18 -11 31 -32 31zM156 610c57 0 95 -32 95 -84c0 -6 0 -12 -1 -18c-1 -8 -2 -17 -5 -24c34 30 61 73 80 115l45 6c15 -17 31 -50 31 -97c0 -11 -1 -23 -3 -35
c-22 -139 -178 -194 -196 -310c-1 -6 -1 -11 -1 -16c0 -48 37 -72 86 -72c53 0 105 28 117 106l66 419h128l-66 -419c-17 -110 -117 -201 -260 -201c-130 0 -202 63 -202 148c0 8 1 17 2 25c26 162 202 197 235 322c-38 -46 -89 -80 -168 -80c-72 0 -113 37 -113 93
c0 7 1 13 2 20c10 62 65 102 128 102z" />
    <glyph glyph-name="uni0E04" unicode="&#xe04;" horiz-adv-x="665" 
d="M327 357c-24 0 -41 -17 -45 -40c-1 -3 -1 -5 -1 -8c0 -19 12 -32 33 -32c24 0 40 17 44 40c1 3 1 6 1 9c0 18 -11 31 -32 31zM336 419c57 0 95 -32 95 -84c0 -6 0 -12 -1 -18c-10 -62 -63 -102 -126 -102c-35 0 -63 12 -80 33c-21 -34 -39 -81 -53 -153l-17 -95h-138
s22 71 29 117c6 39 7 67 7 96v23c0 38 1 83 13 159c20 128 140 225 303 225c148 0 235 -80 235 -190c0 -11 -1 -23 -3 -35l-63 -395h-128l15 95c11 67 28 140 53 300c2 10 2 20 2 29c0 71 -51 101 -126 101c-85 0 -150 -38 -165 -130c-8 -52 -14 -91 -18 -123
c19 47 46 89 84 118c23 18 51 29 82 29z" />
    <glyph glyph-name="uni0E05" unicode="&#xe05;" horiz-adv-x="665" 
d="M327 357c-24 0 -41 -17 -45 -40c-1 -3 -1 -5 -1 -8c0 -19 12 -32 33 -32c24 0 40 17 44 40c1 3 1 6 1 9c0 18 -11 31 -32 31zM336 419c57 0 95 -32 95 -84c0 -6 0 -12 -1 -18c-10 -62 -63 -102 -126 -102c-35 0 -63 12 -80 33c-21 -34 -39 -81 -53 -153l-17 -95h-138
s22 71 29 117c6 39 7 67 7 96v23c0 38 1 83 13 159c12 78 58 219 212 219l78 -77l102 77c121 0 148 -87 148 -162c0 -20 -2 -40 -5 -57l-63 -395h-128l15 95c11 67 28 140 53 300c4 24 6 43 6 60c0 44 -13 65 -34 69l-92 -65h-14h-14l-73 65c-32 -6 -59 -43 -73 -129
c-9 -57 -15 -100 -17 -133c20 51 48 97 88 128c23 18 51 29 82 29z" />
    <glyph glyph-name="uni0E06" unicode="&#xe06;" horiz-adv-x="650" 
d="M125 132c-24 0 -40 -17 -44 -40c-1 -3 -1 -6 -1 -9c0 -18 11 -31 32 -31c24 0 41 17 45 40c1 3 1 5 1 8c0 19 -12 32 -33 32zM156 548c-24 0 -41 -17 -45 -40c-1 -3 -1 -5 -1 -8c0 -19 12 -32 33 -32c24 0 40 17 44 40c1 3 1 6 1 9c0 18 -11 31 -32 31zM166 610
c57 0 95 -32 95 -84c0 -6 0 -12 -1 -18c-1 -8 -2 -17 -5 -24c34 30 61 73 80 115l45 6c15 -17 31 -50 31 -97c0 -11 -1 -23 -3 -35c-20 -126 -148 -183 -186 -278c87 -11 143 -47 183 -85c3 33 8 68 13 100l62 390h128l-95 -600h-118c-31 52 -81 101 -164 118
c1 -8 0 -17 -1 -26c-10 -62 -65 -102 -128 -102c-57 0 -95 32 -95 84c0 6 0 12 1 18c7 47 41 81 83 95c43 134 196 173 226 288c-38 -46 -89 -80 -168 -80c-72 0 -113 37 -113 93c0 7 1 13 2 20c10 62 65 102 128 102z" />
    <glyph glyph-name="uni0E07" unicode="&#xe07;" horiz-adv-x="525" 
d="M332 548c-24 0 -41 -17 -45 -40c-1 -3 -1 -5 -1 -8c0 -19 12 -32 33 -32c24 0 40 17 44 40c1 3 1 6 1 9c0 18 -11 31 -32 31zM-7 323l90 72l213 -288c-3 12 -5 27 -5 45c0 12 1 25 3 38l16 102c9 59 26 82 40 120c-13 -4 -27 -6 -41 -6c-57 0 -96 32 -96 84
c0 6 0 12 1 18c10 62 65 102 128 102c88 0 131 -45 131 -115c0 -10 -1 -21 -3 -32c-9 -55 -26 -110 -38 -183l-44 -280h-137z" />
    <glyph glyph-name="uni0E08" unicode="&#xe08;" horiz-adv-x="590" 
d="M30 427c28 96 127 193 283 193c138 0 222 -73 222 -175c0 -10 -1 -21 -3 -32c-23 -147 -94 -218 -111 -323l-14 -90h-137c3 21 4 41 4 62c0 50 -8 98 -21 132c-24 -24 -58 -38 -95 -38c-57 0 -96 32 -96 84c0 6 0 12 1 18c10 62 64 102 127 102c101 0 137 -96 146 -191
c19 88 50 132 68 244c2 9 2 18 2 26c0 62 -43 86 -108 86c-70 0 -121 -37 -142 -107zM168 218c24 0 40 17 44 40c1 3 1 5 1 8c0 19 -12 32 -33 32c-24 0 -40 -17 -44 -40c-1 -3 -1 -5 -1 -8c0 -19 12 -32 33 -32z" />
    <glyph glyph-name="uni0E09" unicode="&#xe09;" horiz-adv-x="645" 
d="M67 0l18 111c3 19 11 34 21 46c-47 6 -78 37 -78 83c0 6 0 12 1 18c10 62 64 102 127 102c57 0 96 -32 96 -84c0 -6 0 -12 -1 -18c-8 -50 -31 -71 -39 -120l-5 -32c49 42 113 82 202 91c2 5 4 10 5 15l30 193c2 10 2 19 2 27c0 66 -47 93 -118 93
c-76 0 -130 -41 -152 -115l-126 10c30 100 131 200 293 200c144 0 232 -75 232 -182c0 -11 -1 -22 -3 -33l-26 -167c-3 -22 -17 -38 -33 -51c33 -12 53 -40 53 -78c0 -6 0 -11 -1 -17c-10 -62 -65 -102 -128 -102c-57 0 -95 32 -95 84c0 6 0 12 1 18c1 8 3 15 5 22
c-68 -21 -120 -67 -163 -114h-118zM460 132c-24 0 -40 -17 -44 -40c-1 -3 -1 -6 -1 -9c0 -18 11 -31 32 -31c24 0 41 17 45 40c1 3 1 5 1 8c0 19 -12 32 -33 32zM146 298c-24 0 -40 -17 -44 -40c-1 -3 -1 -5 -1 -8c0 -19 12 -32 33 -32c24 0 40 17 44 40c1 3 1 5 1 8
c0 19 -12 32 -33 32z" />
    <glyph glyph-name="uni0E0A" unicode="&#xe0a;" horiz-adv-x="640" 
d="M140 512c-24 0 -40 -17 -44 -40c-1 -3 -1 -6 -1 -9c0 -18 11 -31 32 -31c24 0 41 17 45 40c1 3 1 5 1 8c0 19 -12 32 -33 32zM397 489c75 13 112 60 126 137l128 -10c-13 -75 -75 -135 -160 -161c43 -15 70 -42 70 -81c0 -4 0 -9 -1 -14l-28 -180
c-17 -110 -117 -200 -260 -200c-130 0 -202 63 -202 148c0 8 1 17 2 25c27 168 211 196 230 315c1 5 1 10 1 15c0 40 -28 62 -81 66c16 -15 24 -35 24 -60c0 -6 0 -11 -1 -17c-10 -62 -64 -102 -127 -102c-57 0 -96 32 -96 84c0 6 0 12 1 18c12 75 87 142 208 142
c106 0 164 -51 166 -125zM386 421c-41 -109 -168 -154 -184 -258c-1 -6 -1 -11 -1 -16c0 -48 37 -72 86 -72c53 0 105 27 117 105l28 180c1 6 2 11 2 16c0 25 -14 39 -48 45z" />
    <glyph glyph-name="uni0E0B" unicode="&#xe0b;" horiz-adv-x="640" 
d="M146 548c-24 0 -41 -17 -45 -40c-1 -3 -1 -5 -1 -8c0 -19 12 -32 33 -32c24 0 40 17 44 40c1 3 1 6 1 9c0 18 -11 31 -32 31zM156 610c57 0 95 -32 95 -84c0 -6 0 -12 -1 -18c-1 -8 -2 -17 -5 -24c34 30 61 73 80 115l45 6c15 -17 31 -50 31 -96c0 -6 0 -13 -1 -19
c74 13 109 60 123 136l128 -10c-13 -75 -75 -135 -160 -161c43 -15 70 -42 70 -81c0 -4 0 -9 -1 -14l-28 -179c-17 -110 -117 -201 -260 -201c-130 0 -202 63 -202 148c0 8 1 17 2 25c26 162 202 197 235 322c-38 -46 -89 -80 -168 -80c-72 0 -113 37 -113 93c0 7 1 13 2 20
c10 62 65 102 128 102zM432 360c1 6 1 11 1 16c0 26 -14 41 -50 46c-45 -103 -165 -158 -181 -259c-1 -6 -1 -11 -1 -16c0 -48 37 -72 86 -72c53 0 105 28 117 106z" />
    <glyph glyph-name="uni0E0C" unicode="&#xe0c;" horiz-adv-x="950" 
d="M452 132c-24 0 -40 -17 -44 -40c-1 -3 -1 -6 -1 -9c0 -18 11 -31 32 -31c24 0 41 17 45 40c1 3 1 5 1 8c0 19 -12 32 -33 32zM154 132c-24 0 -40 -17 -44 -40c-1 -3 -1 -6 -1 -9c0 -18 11 -31 32 -31c24 0 41 17 45 40c1 3 1 5 1 8c0 19 -12 32 -33 32zM445 193
c-5 9 -8 21 -8 34c0 4 0 9 1 13l25 155c1 10 2 19 2 27c0 72 -51 103 -127 103c-68 0 -117 -30 -147 -85l131 -29l-22 -53c-1 0 -19 4 -33 4c-38 0 -53 -25 -58 -57l-10 -65c-3 -19 -10 -34 -19 -47c48 -5 80 -36 80 -83c0 -6 0 -12 -1 -18c-10 -62 -65 -102 -128 -102
c-57 0 -95 32 -95 84c0 6 0 12 1 18c7 47 22 72 29 118l13 82c8 48 38 82 83 97l-114 23c31 104 137 208 305 208c150 0 241 -79 241 -191c0 -11 -1 -22 -3 -34l-29 -183c-1 -7 -3 -14 -3 -20c71 -12 116 -45 147 -82c3 33 8 68 13 100l62 390h128l-95 -600h-118
c-29 51 -65 99 -137 116c0 -7 -1 -15 -2 -24c-10 -62 -65 -102 -128 -102c-57 0 -95 32 -95 84c0 6 0 12 1 18c9 56 55 94 110 101z" />
    <glyph glyph-name="uni0E0D" unicode="&#xe0d;" horiz-adv-x="950" 
d="M154 132c-24 0 -40 -17 -44 -40c-1 -3 -1 -6 -1 -9c0 -18 11 -31 32 -31c24 0 41 17 45 40c1 3 1 5 1 8c0 19 -12 32 -33 32zM353 620c150 0 241 -79 241 -191c0 -11 -1 -22 -3 -34l-37 -231c-1 -8 -2 -15 -2 -22c0 -50 33 -67 70 -67c42 0 84 22 95 89l69 436h128
l-69 -436c-16 -99 -106 -184 -238 -184c-119 0 -183 69 -183 155c0 10 0 19 2 29l37 231c1 10 2 19 2 27c0 72 -51 103 -127 103c-68 0 -117 -30 -147 -85l131 -29l-22 -53c-1 0 -19 4 -33 4c-38 0 -53 -25 -58 -57l-10 -65c-3 -19 -10 -34 -19 -47c48 -5 80 -36 80 -83
c0 -6 0 -12 -1 -18c-10 -62 -65 -102 -128 -102c-57 0 -95 32 -95 84c0 6 0 12 1 18c7 47 22 72 29 118l13 82c8 48 38 82 83 97l-114 23c31 104 137 208 305 208zM489 -117c-20 0 -35 -14 -38 -33v-6c0 -16 10 -27 28 -27c20 0 35 14 38 33v6c0 16 -10 27 -28 27zM498 -62
c48 0 82 -27 82 -72c0 -5 0 -10 -1 -16c-3 -21 -12 -38 -24 -52h9h15c58 0 107 27 122 124l93 -10c-17 -107 -101 -174 -207 -174h-65c-82 0 -134 34 -134 94c0 6 0 12 1 18c9 54 55 88 109 88z" />
    <glyph glyph-name="uni0E0E" unicode="&#xe0e;" horiz-adv-x="665" 
d="M109 132c-24 0 -40 -17 -44 -40c-1 -3 -1 -6 -1 -9c0 -18 11 -31 32 -31c24 0 41 17 45 40c1 3 1 5 1 8c0 19 -12 32 -33 32zM363 620c150 0 241 -79 241 -191c0 -11 -1 -22 -3 -34l-74 -465l-26 -165h-115c-43 35 -104 71 -156 95c0 -4 0 -8 -1 -12
c-6 -40 -47 -96 -120 -96c-59 0 -92 33 -92 79c0 5 0 11 1 17c9 57 57 95 125 95s166 -44 246 -96c2 23 5 52 10 83l74 465c1 10 2 19 2 27c0 72 -51 103 -127 103c-67 0 -117 -30 -147 -84l146 -30l-22 -53c-1 0 -19 4 -33 4c-38 0 -53 -25 -58 -57l-15 -95
c-2 -15 -3 -27 -3 -39c0 -13 1 -26 1 -39c0 -12 -1 -25 -3 -40c-10 -62 -65 -102 -128 -102c-57 0 -95 32 -95 84c0 6 0 12 1 18c9 56 55 94 110 101c-4 10 -7 21 -7 33c0 5 0 9 1 14l8 52c8 48 36 81 81 96l-127 24c31 104 137 208 305 208zM164 -117c-11 2 -18 4 -26 4
c-19 0 -42 -9 -47 -39c0 -3 -1 -6 -1 -8c0 -22 17 -31 32 -31c26 0 45 17 48 39c3 16 -1 27 -6 35z" />
    <glyph glyph-name="uni0E0F" unicode="&#xe0f;" horiz-adv-x="665" 
d="M109 132c-24 0 -40 -17 -44 -40c-1 -3 -1 -6 -1 -9c0 -18 11 -31 32 -31c24 0 41 17 45 40c1 3 1 5 1 8c0 19 -12 32 -33 32zM363 620c150 0 241 -79 241 -191c0 -11 -1 -22 -3 -34l-74 -465l-26 -165h-115l-103 92c-13 -17 -30 -36 -52 -53c-35 -26 -82 -52 -133 -52
c-61 0 -96 31 -96 79c0 5 0 11 1 17c9 54 55 96 121 96c65 0 91 -45 91 -83c28 29 46 64 49 69h39l86 -82c2 23 5 51 10 82l74 465c1 10 2 19 2 27c0 72 -51 103 -127 103c-67 0 -117 -30 -147 -84l146 -30l-22 -53c-1 0 -19 4 -33 4c-38 0 -53 -25 -58 -57l-15 -95
c-2 -15 -3 -27 -3 -39c0 -13 1 -26 1 -39c0 -12 -1 -25 -3 -40c-10 -62 -65 -102 -128 -102c-57 0 -95 32 -95 84c0 6 0 12 1 18c9 56 55 94 110 101c-4 10 -7 21 -7 33c0 5 0 9 1 14l8 52c8 48 36 81 81 96l-127 24c31 104 137 208 305 208zM76 -152c-1 -3 -1 -6 -1 -9
c0 -23 19 -30 36 -30c9 0 18 1 27 3c7 9 14 20 17 36v6c0 19 -12 33 -36 33c-17 0 -39 -11 -43 -39z" />
    <glyph glyph-name="uni0E10" unicode="&#xe10;" horiz-adv-x="555" 
d="M145 330c109 0 143 -103 149 -198c12 48 36 102 44 152c1 5 1 9 1 13c0 68 -92 93 -295 93l5 30c19 118 121 200 252 200c73 0 118 -26 146 -54c3 5 5 9 8 13l24 35l92 -18l-1 -6l-107 -112h-39c-14 22 -45 56 -115 56c-56 0 -112 -22 -134 -86c178 -8 291 -40 291 -130
c0 -6 0 -12 -1 -18c-12 -76 -76 -162 -88 -240l-10 -60h-138c2 19 4 39 4 58c0 42 -6 83 -18 114c-24 -29 -61 -46 -102 -46c-57 0 -96 32 -96 84c0 6 0 12 1 18c10 62 64 102 127 102zM135 268c-24 0 -40 -17 -44 -40c-1 -3 -1 -5 -1 -8c0 -19 12 -32 33 -32
c24 0 40 17 44 40c1 3 1 5 1 8c0 19 -12 32 -33 32zM195 -139c28 29 46 64 49 69h39l57 -70c2 21 5 44 9 70h95l-26 -165h-82l-75 88c-13 -16 -29 -33 -50 -49c-35 -26 -82 -52 -133 -52c-61 0 -96 31 -96 79c0 5 0 11 1 17c9 54 55 96 121 96c65 0 91 -45 91 -83zM56 -152
c-1 -3 -1 -6 -1 -9c0 -23 19 -30 36 -30c9 0 18 1 27 3c7 9 14 20 17 36v6c0 19 -12 33 -36 33c-17 0 -39 -11 -43 -39z" />
    <glyph glyph-name="uni0E11" unicode="&#xe11;" horiz-adv-x="665" 
d="M146 548c-24 0 -41 -17 -45 -40c-1 -3 -1 -5 -1 -8c0 -19 12 -32 33 -32c24 0 40 17 44 40c1 3 1 6 1 9c0 18 -11 31 -32 31zM156 610c57 0 95 -32 95 -84c0 -6 0 -12 -1 -18c-1 -8 -2 -17 -5 -24c34 30 61 73 80 115l45 6c13 -15 27 -41 31 -79c42 48 90 84 134 84
c64 0 78 -46 78 -88c0 -14 -1 -27 -3 -39l-77 -483h-129l73 460c1 7 2 15 2 21c0 11 -3 19 -11 21c-21 -9 -55 -43 -83 -78c-42 -105 -151 -160 -167 -261l-26 -163h-129l24 153c26 162 188 197 220 322c-38 -47 -89 -80 -168 -80c-72 0 -113 37 -113 93c0 7 1 13 2 20
c10 62 65 102 128 102z" />
    <glyph glyph-name="uni0E12" unicode="&#xe12;" horiz-adv-x="960" 
d="M327 357c-24 0 -41 -17 -45 -40c-1 -3 -1 -5 -1 -8c0 -19 12 -32 33 -32c24 0 40 17 44 40c1 3 1 6 1 9c0 18 -11 31 -32 31zM461 132c-24 0 -40 -17 -44 -40c-1 -3 -1 -6 -1 -9c0 -18 11 -31 32 -31c24 0 41 17 45 40c1 3 1 5 1 8c0 19 -12 32 -33 32zM277 614l78 -77
l102 77c121 0 148 -87 148 -162c0 -20 -2 -40 -5 -57l-29 -183c-1 -7 -3 -14 -3 -20c71 -12 116 -46 146 -82c3 33 8 68 13 100l62 390h128l-95 -600h-118c-29 51 -65 99 -136 116c0 -7 -1 -15 -2 -24c-10 -62 -65 -102 -128 -102c-57 0 -95 32 -95 84c0 6 0 12 1 18
c9 57 56 96 113 101c-4 9 -6 19 -6 32c0 5 0 10 1 15l25 155c4 24 6 43 6 60c0 44 -13 65 -34 69l-92 -65h-14h-14l-73 65c-32 -6 -59 -43 -73 -129c-22 -140 -9 -173 -19 -237c-3 -19 -7 -38 -12 -54c48 47 107 76 152 111c-57 0 -96 32 -96 84c0 6 0 12 1 18
c10 62 64 102 127 102c57 0 96 -32 96 -84c0 -6 0 -12 -1 -18c-25 -156 -218 -198 -269 -317h-146s22 71 29 117c6 39 7 67 7 96v23c0 38 1 83 13 159c12 78 58 219 212 219z" />
    <glyph glyph-name="uni0E13" unicode="&#xe13;" horiz-adv-x="960" 
d="M154 132c-24 0 -40 -17 -44 -40c-1 -3 -1 -6 -1 -9c0 -18 11 -31 32 -31c24 0 41 17 45 40c1 3 1 5 1 8c0 19 -12 32 -33 32zM769 132c-24 0 -40 -17 -44 -40c-1 -3 -1 -6 -1 -9c0 -18 11 -31 32 -31c24 0 41 17 45 40c1 3 1 5 1 8c0 19 -12 32 -33 32zM191 440l131 -29
l-22 -53c-1 0 -19 4 -33 4c-38 0 -53 -25 -58 -57l-10 -65c-3 -19 -10 -34 -19 -47c48 -5 80 -36 80 -83c0 -6 0 -12 -1 -18c-10 -62 -65 -102 -128 -102c-57 0 -95 32 -95 84c0 6 0 12 1 18c7 47 22 72 29 118l13 82c8 48 38 82 83 97l-114 23c31 104 137 208 305 208
c150 0 241 -79 241 -191c0 -11 -1 -22 -3 -34l-30 -185c-5 -30 -12 -63 -18 -94c43 38 100 71 175 80c2 5 4 10 5 16l61 388h129l-57 -362c-3 -22 -17 -38 -34 -51c33 -12 53 -41 53 -78c0 -6 0 -11 -1 -17c-10 -62 -65 -102 -128 -102c-57 0 -95 32 -95 84c0 6 0 12 1 18
c1 7 3 14 5 20c-58 -22 -102 -66 -139 -112h-118l63 395c1 10 2 19 2 27c0 72 -51 103 -127 103c-68 0 -117 -30 -147 -85z" />
    <glyph glyph-name="uni0E14" unicode="&#xe14;" horiz-adv-x="665" 
d="M409 0l15 95c11 67 28 140 53 300c2 10 2 20 2 29c0 71 -51 101 -126 101c-85 0 -155 -38 -170 -130c-22 -140 -9 -173 -19 -237c-3 -19 -7 -38 -12 -54c48 47 107 76 152 111c-57 0 -96 32 -96 84c0 6 0 12 1 18c10 62 64 102 127 102c57 0 96 -32 96 -84
c0 -6 0 -12 -1 -18c-25 -156 -218 -198 -269 -317h-146s22 71 29 117c6 39 7 67 7 96v23c0 38 1 83 13 159c20 128 140 225 303 225c148 0 235 -80 235 -190c0 -11 -1 -23 -3 -35l-63 -395h-128zM327 357c-24 0 -41 -17 -45 -40c-1 -3 -1 -5 -1 -8c0 -19 12 -32 33 -32
c24 0 40 17 44 40c1 3 1 6 1 9c0 18 -11 31 -32 31z" />
    <glyph glyph-name="uni0E15" unicode="&#xe15;" horiz-adv-x="665" 
d="M409 0l15 95c11 67 28 140 53 300c4 24 6 43 6 60c0 44 -13 65 -34 69l-92 -65h-14h-14l-73 65c-32 -6 -59 -43 -73 -129c-22 -140 -9 -173 -19 -237c-3 -19 -7 -38 -12 -54c48 47 107 76 152 111c-57 0 -96 32 -96 84c0 6 0 12 1 18c10 62 64 102 127 102
c57 0 96 -32 96 -84c0 -6 0 -12 -1 -18c-25 -156 -218 -198 -269 -317h-146s22 71 29 117c6 39 7 67 7 96v23c0 38 1 83 13 159c12 78 58 219 212 219l78 -77l102 77c121 0 148 -87 148 -162c0 -20 -2 -40 -5 -57l-63 -395h-128zM327 357c-24 0 -41 -17 -45 -40
c-1 -3 -1 -5 -1 -8c0 -19 12 -32 33 -32c24 0 40 17 44 40c1 3 1 6 1 9c0 18 -11 31 -32 31z" />
    <glyph glyph-name="uni0E16" unicode="&#xe16;" horiz-adv-x="655" 
d="M353 620c150 0 241 -79 241 -191c0 -11 -1 -22 -3 -34l-63 -395h-128l63 395c1 10 2 19 2 27c0 72 -51 103 -127 103c-68 0 -117 -31 -147 -85l131 -29l-22 -53c-1 0 -19 4 -33 4c-38 0 -53 -25 -58 -57l-10 -65c-3 -19 -10 -34 -19 -47c48 -5 80 -36 80 -83
c0 -6 0 -12 -1 -18c-10 -62 -65 -102 -128 -102c-57 0 -95 32 -95 84c0 6 0 12 1 18c7 47 22 72 29 118l13 82c8 48 38 82 83 97l-114 23c31 104 137 208 305 208zM154 132c-24 0 -40 -17 -44 -40c-1 -3 -1 -6 -1 -9c0 -18 11 -31 32 -31c24 0 41 17 45 40c1 3 1 5 1 8
c0 19 -12 32 -33 32z" />
    <glyph glyph-name="uni0E17" unicode="&#xe17;" horiz-adv-x="660" 
d="M158 468c24 0 40 17 44 40c1 3 1 6 1 9c0 18 -11 31 -32 31c-24 0 -41 -17 -45 -40c-1 -3 -1 -5 -1 -8c0 -19 12 -32 33 -32zM231 317c64 140 160 293 271 293c83 0 104 -58 104 -104c0 -8 -1 -16 -2 -23l-76 -483h-128l73 459c1 5 1 10 1 15c0 13 -3 26 -14 28
c-94 -39 -228 -309 -265 -415l-14 -87h-128l57 360c3 19 10 34 20 47c-47 6 -78 37 -78 83c0 6 0 12 1 18c10 62 65 102 128 102c57 0 95 -32 95 -84c0 -6 0 -12 -1 -18c-7 -47 -25 -72 -32 -118z" />
    <glyph glyph-name="uni0E18" unicode="&#xe18;" horiz-adv-x="585" 
d="M37 181l19 119h128l-19 -119c-1 -9 -2 -18 -2 -26c0 -59 37 -80 84 -80c53 0 104 28 116 106l15 99c1 4 1 8 1 12c0 70 -114 89 -321 89l7 39c19 118 121 200 252 200c73 0 118 -26 146 -54c3 5 5 9 8 13l24 35l92 -18l-1 -6l-107 -112h-39c-14 22 -45 56 -115 56
c-57 0 -114 -23 -135 -90c188 -8 321 -39 321 -131c0 -5 0 -11 -1 -17l-18 -115c-17 -110 -117 -201 -260 -201c-129 0 -198 74 -198 169c0 11 1 21 3 32z" />
    <glyph glyph-name="uni0E19" unicode="&#xe19;" horiz-adv-x="650" 
d="M53 0l57 360c3 19 11 35 21 47c-47 6 -79 38 -79 84c0 6 0 11 1 17c10 62 65 102 128 102c57 0 95 -32 95 -84c0 -6 0 -12 -1 -18c-8 -50 -25 -71 -33 -120l-28 -178c-5 -31 -11 -66 -18 -98c51 40 120 76 212 85c2 5 4 10 5 15l61 388h129l-57 -362
c-3 -22 -17 -38 -34 -51c33 -12 53 -41 53 -78c0 -6 0 -11 -1 -17c-10 -62 -65 -102 -128 -102c-57 0 -95 32 -95 84c0 6 0 12 1 18c1 8 3 17 6 24c-77 -20 -132 -68 -177 -116h-118zM459 132c-24 0 -40 -17 -44 -40c-1 -3 -1 -6 -1 -9c0 -18 11 -31 32 -31
c24 0 41 17 45 40c1 3 1 5 1 8c0 19 -12 32 -33 32zM158 468c24 0 40 17 44 40c1 3 1 6 1 9c0 18 -11 31 -32 31c-24 0 -41 -17 -45 -40c-1 -3 -1 -5 -1 -8c0 -19 12 -32 33 -32z" />
    <glyph glyph-name="uni0E1A" unicode="&#xe1a;" horiz-adv-x="700" 
d="M152 468c24 0 40 17 44 40c1 3 1 6 1 9c0 18 -11 31 -32 31c-24 0 -41 -17 -45 -40c-1 -3 -1 -5 -1 -8c0 -19 12 -32 33 -32zM269 508c-7 -47 -25 -72 -32 -118l-32 -198c-1 -9 -2 -17 -2 -25c0 -65 46 -93 114 -93c76 0 134 35 147 118l65 408h128l-65 -408
c-19 -121 -134 -212 -290 -212c-142 0 -228 75 -228 180c0 10 1 21 3 32l27 168c3 19 10 34 20 47c-47 6 -78 37 -78 83c0 6 0 12 1 18c10 62 65 102 128 102c57 0 95 -32 95 -84c0 -6 0 -12 -1 -18z" />
    <glyph glyph-name="uni0E1B" unicode="&#xe1b;" horiz-adv-x="700" 
d="M152 468c24 0 40 17 44 40c1 3 1 6 1 9c0 18 -11 31 -32 31c-24 0 -41 -17 -45 -40c-1 -3 -1 -5 -1 -8c0 -19 12 -32 33 -32zM269 508c-7 -47 -25 -72 -32 -118l-32 -198c-1 -9 -2 -17 -2 -25c0 -65 46 -93 114 -93c76 0 134 35 147 118l98 618h128l-98 -618
c-19 -121 -134 -212 -290 -212c-142 0 -228 75 -228 180c0 10 1 21 3 32l27 168c3 19 10 34 20 47c-47 6 -78 37 -78 83c0 6 0 12 1 18c10 62 65 102 128 102c57 0 95 -32 95 -84c0 -6 0 -12 -1 -18z" />
    <glyph glyph-name="uni0E1C" unicode="&#xe1c;" horiz-adv-x="715" 
d="M486 211l62 389h124l-95 -600h-120l-116 269l-201 -269h-120l44 280c12 74 2 128 11 183c14 88 83 147 184 147c57 0 95 -32 95 -84c0 -6 0 -12 -1 -18c-10 -62 -64 -102 -127 -102c-17 0 -32 2 -45 8c3 -30 12 -50 12 -84c0 -11 -1 -23 -3 -38l-13 -81
c-3 -20 -9 -40 -15 -59l155 208h38h39l89 -208c0 19 0 39 3 59zM236 468c24 0 40 17 44 40c1 3 1 6 1 9c0 18 -11 31 -32 31c-24 0 -41 -17 -45 -40c-1 -3 -1 -5 -1 -8c0 -19 12 -32 33 -32z" />
    <glyph glyph-name="uni0E1D" unicode="&#xe1d;" horiz-adv-x="715" 
d="M486 211l95 599h124l-128 -810h-120l-116 269l-201 -269h-120l44 280c12 74 2 128 11 183c14 88 83 147 184 147c57 0 95 -32 95 -84c0 -6 0 -12 -1 -18c-10 -62 -64 -102 -127 -102c-17 0 -32 2 -45 8c3 -30 12 -50 12 -84c0 -11 -1 -23 -3 -38l-13 -81
c-3 -20 -9 -40 -15 -59l155 208h38h39l89 -208c0 19 0 39 3 59zM236 468c24 0 40 17 44 40c1 3 1 6 1 9c0 18 -11 31 -32 31c-24 0 -41 -17 -45 -40c-1 -3 -1 -5 -1 -8c0 -19 12 -32 33 -32z" />
    <glyph glyph-name="uni0E1E" unicode="&#xe1e;" horiz-adv-x="735" 
d="M692 600l-95 -600h-111l-104 367l-219 -367h-111l57 360c3 19 10 35 20 47c-47 6 -78 37 -78 83c0 6 0 12 1 18c10 62 65 102 128 102c57 0 95 -32 95 -84c0 -6 0 -12 -1 -18c-8 -48 -29 -72 -37 -120l-19 -120c-3 -16 -7 -36 -12 -54l166 281h30h31l78 -283
c1 19 1 39 4 56l53 332h124zM157 468c24 0 40 17 44 40c1 3 1 6 1 9c0 18 -11 31 -32 31c-24 0 -41 -17 -45 -40c-1 -3 -1 -5 -1 -8c0 -19 12 -32 33 -32z" />
    <glyph glyph-name="uni0E1F" unicode="&#xe1f;" horiz-adv-x="735" 
d="M725 810l-128 -810h-111l-104 367l-219 -367h-111l57 360c3 19 10 35 20 47c-47 6 -78 37 -78 83c0 6 0 12 1 18c10 62 65 102 128 102c57 0 95 -32 95 -84c0 -6 0 -12 -1 -18c-8 -48 -29 -72 -37 -120l-19 -120c-3 -16 -7 -36 -12 -54l166 281h30h31l78 -283
c1 19 1 39 4 56l86 542h124zM157 468c24 0 40 17 44 40c1 3 1 6 1 9c0 18 -11 31 -32 31c-24 0 -41 -17 -45 -40c-1 -3 -1 -5 -1 -8c0 -19 12 -32 33 -32z" />
    <glyph glyph-name="uni0E20" unicode="&#xe20;" horiz-adv-x="665" 
d="M109 133c-24 0 -40 -17 -44 -40c-1 -3 -1 -6 -1 -9c0 -18 11 -31 32 -31c24 0 41 17 45 40c1 3 1 5 1 8c0 19 -12 32 -33 32zM363 621c150 0 241 -79 241 -191c0 -11 -1 -22 -3 -34l-63 -395h-128l63 395c1 10 2 19 2 27c0 72 -51 103 -127 103c-67 0 -117 -30 -147 -84
l146 -30l-22 -53c-1 0 -19 4 -33 4c-38 0 -53 -25 -58 -57l-15 -95c-2 -15 -3 -27 -3 -39c0 -13 1 -26 1 -39c0 -12 -1 -25 -3 -40c-10 -62 -64 -102 -127 -102c-57 0 -96 32 -96 84c0 6 0 12 1 18c9 56 55 94 110 101c-4 10 -7 21 -7 33c0 5 0 9 1 14l8 52
c8 48 37 81 82 96l-128 24c31 104 137 208 305 208z" />
    <glyph glyph-name="uni0E21" unicode="&#xe21;" horiz-adv-x="645" 
d="M125 132c-24 0 -40 -17 -44 -40c-1 -3 -1 -6 -1 -9c0 -18 11 -31 32 -31c24 0 41 17 45 40c1 3 1 5 1 8c0 19 -12 32 -33 32zM168 468c24 0 40 17 44 40c1 3 1 6 1 9c0 18 -11 31 -32 31c-24 0 -41 -17 -45 -40c-1 -3 -1 -5 -1 -8c0 -19 12 -32 33 -32zM109 192
c-6 10 -9 21 -9 34c0 5 0 9 1 14l19 120c3 19 11 35 21 47c-47 6 -79 38 -79 84c0 6 0 11 1 17c10 62 65 102 128 102c57 0 95 -32 95 -84c0 -6 0 -12 -1 -18c-8 -50 -25 -71 -33 -120l-27 -176c-1 -7 -2 -12 -2 -18c83 -12 139 -46 177 -84c3 33 8 68 13 100l62 390h128
l-95 -600h-118c-30 50 -78 98 -158 117c0 -8 -1 -16 -2 -25c-10 -62 -65 -102 -128 -102c-57 0 -95 32 -95 84c0 6 0 12 1 18c9 54 50 91 101 100z" />
    <glyph glyph-name="uni0E22" unicode="&#xe22;" horiz-adv-x="645" 
d="M236 468c24 0 40 17 44 40c1 3 1 6 1 9c0 18 -11 31 -32 31c-24 0 -41 -17 -45 -40c-1 -3 -1 -5 -1 -8c0 -19 12 -32 33 -32zM479 600h128l-65 -408c-19 -121 -134 -212 -290 -212c-143 0 -228 72 -228 172c0 9 0 19 2 29c11 70 56 110 112 130c-42 24 -70 67 -70 123
c0 9 0 18 2 28c14 87 85 148 189 148c57 0 95 -32 95 -84c0 -6 0 -12 -1 -18c-10 -62 -64 -102 -127 -102c-29 0 -53 8 -70 23c9 -57 69 -76 171 -76l-12 -76c-94 0 -151 -29 -161 -91c-1 -8 -2 -15 -2 -22c0 -62 47 -90 115 -90c76 0 134 35 147 118z" />
    <glyph glyph-name="uni0E23" unicode="&#xe23;" horiz-adv-x="530" 
d="M414 567c3 4 4 8 7 12l24 35l92 -19l-1 -5l-107 -113h-39c-14 22 -40 57 -109 57c-56 0 -111 -22 -131 -90c152 -8 262 -39 262 -126c0 -6 0 -12 -1 -18l-18 -110l-11 -73c-12 -76 -74 -127 -158 -127c-57 0 -95 32 -95 84c0 6 0 12 1 18c10 62 64 102 127 102
c4 0 8 -1 12 -1c-1 8 0 17 1 25l10 66c1 4 1 9 1 13c0 68 -95 84 -263 84l7 39c19 118 118 200 248 200c71 0 115 -26 141 -53zM247 132c-24 0 -40 -17 -44 -40c-1 -3 -1 -6 -1 -9c0 -18 11 -31 32 -31c24 0 41 17 45 40c1 3 1 5 1 8c0 19 -12 32 -33 32z" />
    <glyph glyph-name="uni0E24" unicode="&#xe24;" horiz-adv-x="655" 
d="M353 620c150 0 241 -79 241 -191c0 -11 -1 -22 -3 -34l-96 -605h-128l96 605c1 10 2 19 2 27c0 72 -51 103 -127 103c-68 0 -117 -31 -147 -85l131 -29l-22 -53c-1 0 -19 4 -33 4c-38 0 -53 -25 -58 -57l-10 -65c-3 -19 -10 -34 -19 -47c48 -5 80 -36 80 -83
c0 -6 0 -12 -1 -18c-10 -62 -65 -102 -128 -102c-57 0 -95 32 -95 84c0 6 0 12 1 18c7 47 22 72 29 118l13 82c8 48 38 82 83 97l-114 23c31 104 137 208 305 208zM154 132c-24 0 -40 -17 -44 -40c-1 -3 -1 -6 -1 -9c0 -18 11 -31 32 -31c24 0 41 17 45 40c1 3 1 5 1 8
c0 19 -12 32 -33 32z" />
    <glyph glyph-name="uni0E25" unicode="&#xe25;" horiz-adv-x="635" 
d="M153 132c-24 0 -40 -17 -44 -40c-1 -3 -1 -6 -1 -9c0 -18 11 -31 32 -31c24 0 41 17 45 40c1 3 1 5 1 8c0 19 -12 32 -33 32zM20 109l14 89c11 70 56 160 190 160c95 0 157 -54 194 -115l26 162c2 10 2 19 2 27c0 66 -47 93 -118 93c-76 0 -130 -41 -152 -115l-126 10
c30 100 131 200 293 200c144 0 232 -75 232 -182c0 -11 -1 -22 -3 -33l-64 -405h-128l15 96c-6 68 -70 176 -177 176c-34 0 -55 -21 -60 -53c-2 -10 -5 -19 -9 -26c5 0 9 1 14 1c57 0 96 -32 96 -84c0 -6 0 -12 -1 -18c-10 -62 -65 -102 -128 -102c-67 0 -112 42 -112 100
c0 6 1 12 2 19z" />
    <glyph glyph-name="uni0E26" unicode="&#xe26;" horiz-adv-x="670" 
d="M109 133c-24 0 -40 -17 -44 -40c-1 -3 -1 -6 -1 -9c0 -18 11 -31 32 -31c24 0 41 17 45 40c1 3 1 5 1 8c0 19 -12 32 -33 32zM363 621c150 0 241 -79 241 -191c0 -11 -1 -22 -3 -34l-96 -605h-128l96 605c1 10 2 19 2 27c0 72 -51 103 -127 103c-67 0 -117 -30 -147 -84
l146 -30l-22 -53c-1 0 -19 4 -33 4c-38 0 -53 -25 -58 -57l-15 -95c-2 -15 -3 -27 -3 -39c0 -13 1 -26 1 -39c0 -12 -1 -25 -3 -40c-10 -62 -64 -102 -127 -102c-57 0 -96 32 -96 84c0 6 0 12 1 18c9 56 55 94 110 101c-4 10 -7 21 -7 33c0 5 0 9 1 14l8 52
c8 48 37 81 82 96l-128 24c31 104 137 208 305 208z" />
    <glyph glyph-name="uni0E27" unicode="&#xe27;" horiz-adv-x="535" 
d="M19 448c26 82 113 172 255 172c129 0 199 -73 199 -168c0 -10 -1 -21 -3 -32l-37 -230l-11 -73c-12 -76 -74 -127 -158 -127c-57 0 -95 32 -95 84c0 6 0 12 1 18c10 62 64 102 127 102c4 0 8 -1 12 -1c-1 8 0 17 1 25l32 202c1 9 2 17 2 25c0 59 -38 80 -85 80
c-54 0 -95 -29 -114 -87zM287 132c-24 0 -40 -17 -44 -40c-1 -3 -1 -6 -1 -9c0 -18 11 -31 32 -31c24 0 41 17 45 40c1 3 1 5 1 8c0 19 -12 32 -33 32z" />
    <glyph glyph-name="uni0E28" unicode="&#xe28;" horiz-adv-x="680" 
d="M327 357c-24 0 -41 -17 -45 -40c-1 -3 -1 -5 -1 -8c0 -19 12 -32 33 -32c24 0 40 17 44 40c1 3 1 6 1 9c0 18 -11 31 -32 31zM409 0l15 95c11 67 28 140 53 300c1 9 2 18 2 26c0 14 -2 25 -5 36c-28 -17 -54 -35 -80 -52c24 -14 37 -39 37 -70c0 -6 0 -12 -1 -18
c-10 -62 -63 -102 -126 -102c-35 0 -63 12 -80 33c-21 -34 -39 -81 -53 -153l-17 -95h-138s22 71 29 117c6 39 7 67 7 96v23c0 38 1 83 13 159c20 128 140 225 303 225c66 0 119 -16 159 -43c35 31 80 62 141 67l3 -111c-35 -1 -63 -7 -89 -19c13 -25 21 -55 21 -86
c0 -11 -1 -22 -3 -33l-63 -395h-128zM442 503c-22 15 -53 22 -89 22c-85 0 -150 -38 -165 -130c-8 -52 -14 -91 -18 -123c19 47 46 89 84 118c19 15 44 25 69 28c37 28 79 57 119 85z" />
    <glyph glyph-name="uni0E29" unicode="&#xe29;" horiz-adv-x="710" 
d="M152 468c24 0 40 17 44 40c1 3 1 6 1 9c0 18 -11 31 -32 31c-24 0 -41 -17 -45 -40c-1 -3 -1 -5 -1 -8c0 -19 12 -32 33 -32zM369 375c-18 0 -31 -12 -34 -30c0 -2 -1 -4 -1 -6c0 -15 10 -24 26 -24c18 0 32 12 35 30v6c0 15 -10 24 -26 24zM377 425c45 0 76 -25 76 -66
c0 -5 0 -9 -1 -14c-3 -18 -11 -34 -22 -46c6 1 13 2 18 2c11 0 22 1 34 2l47 297h128l-42 -263c27 10 51 19 68 28l10 -66c-25 -10 -54 -20 -88 -29l-13 -78c-19 -121 -134 -212 -290 -212c-142 0 -228 75 -228 180c0 10 1 21 3 32l27 168c3 19 10 34 20 47
c-47 6 -78 37 -78 83c0 6 0 12 1 18c10 62 65 102 128 102c57 0 95 -32 95 -84c0 -6 0 -12 -1 -18c-7 -47 -25 -72 -32 -118l-32 -198c-1 -9 -2 -17 -2 -25c0 -65 46 -93 114 -93c76 0 134 35 147 118l9 55c-23 -2 -47 -3 -71 -3c-79 0 -125 29 -125 84c0 5 0 11 1 17
c8 49 49 80 99 80z" />
    <glyph glyph-name="uni0E2A" unicode="&#xe2a;" horiz-adv-x="650" 
d="M20 109l14 89c11 70 56 160 190 160h2c47 40 121 93 192 142c-20 17 -52 25 -90 25c-76 0 -130 -41 -152 -115l-126 10c30 100 131 200 293 200c68 0 124 -17 163 -46c35 32 81 65 143 70l3 -111c-38 -1 -66 -8 -93 -21c11 -22 16 -47 16 -73c0 -11 -1 -22 -3 -34
l-64 -405h-128l15 96c-6 68 -70 176 -177 176c-34 0 -55 -21 -60 -53c-2 -10 -5 -19 -9 -26c5 0 9 1 14 1c57 0 96 -32 96 -84c0 -6 0 -12 -1 -18c-10 -62 -65 -102 -128 -102c-67 0 -112 42 -112 100c0 6 1 12 2 19zM153 132c-24 0 -40 -17 -44 -40c-1 -3 -1 -6 -1 -9
c0 -18 11 -31 32 -31c24 0 41 17 45 40c1 3 1 5 1 8c0 19 -12 32 -33 32zM295 347c57 -19 96 -59 123 -104l26 162c2 9 2 19 2 27c0 7 0 13 -1 19c-56 -36 -110 -73 -150 -104z" />
    <glyph glyph-name="uni0E2B" unicode="&#xe2b;" horiz-adv-x="660" 
d="M512 468c24 0 40 17 44 40c1 3 1 6 1 9c0 18 -11 31 -32 31c-24 0 -41 -17 -45 -40c-1 -3 -1 -5 -1 -8c0 -19 12 -32 33 -32zM158 468c24 0 40 17 44 40c1 3 1 6 1 9c0 18 -11 31 -32 31c-24 0 -41 -17 -45 -40c-1 -3 -1 -5 -1 -8c0 -19 12 -32 33 -32zM424 437
c-12 14 -19 32 -19 53c0 6 1 12 2 18c10 62 65 102 128 102c57 0 95 -32 95 -84c0 -6 0 -12 -1 -18c-7 -42 -34 -75 -71 -91c16 -12 28 -28 28 -48c0 -3 -1 -6 -1 -9l-57 -360h-128l58 368c-112 -33 -230 -161 -264 -287l-13 -81h-128l57 360c3 19 10 34 20 47
c-47 6 -78 37 -78 83c0 6 0 12 1 18c10 62 65 102 128 102c57 0 95 -32 95 -84c0 -6 0 -12 -1 -18c-7 -47 -25 -72 -32 -118l-17 -105c53 66 121 123 198 152z" />
    <glyph glyph-name="uni0E2C" unicode="&#xe2c;" horiz-adv-x="760" 
d="M515 268l21 132c2 14 8 26 15 36c-53 3 -88 36 -88 85c0 6 0 11 1 17c10 62 64 102 127 102c56 0 97 -32 97 -84c0 -5 0 -11 -1 -16c13 21 23 49 32 89l71 -9c-23 -84 -66 -129 -119 -157c-3 -11 -5 -23 -7 -38l-67 -425h-111l-109 337l-214 -337h-111l57 360
c3 19 10 35 20 47c-47 6 -78 37 -78 83c0 6 0 12 1 18c10 62 65 102 128 102c57 0 95 -32 95 -84c0 -6 0 -12 -1 -18c-8 -48 -29 -72 -37 -120l-19 -120c-3 -21 -10 -47 -16 -69l166 266h30h31l81 -268c0 22 2 49 5 71zM569 498c24 0 40 17 44 40c1 3 1 6 1 9
c0 18 -11 31 -32 31c-24 0 -41 -17 -45 -40c-1 -3 -1 -5 -1 -8c0 -19 12 -32 33 -32zM157 468c24 0 40 17 44 40c1 3 1 6 1 9c0 18 -11 31 -32 31c-24 0 -41 -17 -45 -40c-1 -3 -1 -5 -1 -8c0 -19 12 -32 33 -32z" />
    <glyph glyph-name="uni0E2D" unicode="&#xe2d;" horiz-adv-x="635" 
d="M50 420c30 100 131 200 293 200c144 0 232 -75 232 -182c0 -11 -1 -22 -3 -33l-34 -217c-19 -117 -128 -208 -280 -208c-137 0 -218 74 -218 175c0 11 1 22 3 33l11 70c10 62 64 102 127 102c57 0 96 -32 96 -84c0 -6 0 -12 -1 -18c-9 -58 -56 -96 -114 -101
c5 -57 53 -82 111 -82c68 0 124 33 137 113l34 217c2 10 2 19 2 27c0 66 -47 93 -118 93c-76 0 -130 -41 -152 -115zM171 298c-24 0 -40 -17 -44 -40c-1 -3 -1 -5 -1 -8c0 -19 12 -32 33 -32c24 0 40 17 44 40c1 3 1 5 1 8c0 19 -12 32 -33 32z" />
    <glyph glyph-name="uni0E2E" unicode="&#xe2e;" horiz-adv-x="640" 
d="M165 298c-24 0 -40 -17 -44 -40c-1 -3 -1 -5 -1 -8c0 -19 12 -32 33 -32c24 0 40 17 44 40c1 3 1 5 1 8c0 19 -12 32 -33 32zM175 360c57 0 96 -32 96 -84c0 -6 0 -12 -1 -18c-9 -58 -56 -96 -114 -101c5 -57 53 -82 111 -82c68 0 124 33 137 113l18 112
c10 62 20 77 26 113c-39 -18 -89 -31 -158 -31c-135 0 -227 38 -227 96c0 3 1 6 1 9c9 56 92 133 259 133c101 0 158 -38 187 -71c15 26 25 59 31 91l111 -10c-10 -54 -41 -108 -91 -143c5 -14 9 -32 9 -51c0 -7 -1 -15 -2 -22l-36 -226c-19 -117 -128 -208 -280 -208
c-137 0 -218 74 -218 175c0 11 1 22 3 33l11 70c10 62 64 102 127 102zM184 484c0 -13 16 -29 117 -29c62 0 107 11 139 28c-18 37 -59 58 -125 58c-84 0 -131 -26 -131 -57z" />
    <glyph glyph-name="uni0E2F" unicode="&#xe2f;" horiz-adv-x="495" 
d="M171 548c-24 0 -41 -17 -45 -40c-1 -3 -1 -5 -1 -8c0 -19 12 -32 33 -32c24 0 40 17 44 40c1 3 1 6 1 9c0 18 -11 31 -32 31zM181 610c57 0 95 -32 95 -84c0 -6 0 -12 -1 -18c-2 -15 -6 -28 -13 -40c58 24 95 72 119 126l58 6c9 -10 13 -25 13 -46s-4 -48 -9 -81
l-50 -315c-19 -123 -166 -164 -300 -178l-4 92c126 14 168 34 176 86l31 198c6 40 24 59 37 88c-43 -29 -96 -49 -163 -49c-73 0 -119 37 -119 94c0 6 1 13 2 19c10 62 65 102 128 102z" />
    <glyph glyph-name="uni0E30" unicode="&#xe30;" horiz-adv-x="540" 
d="M182 500c-24 0 -40 -17 -44 -40c-1 -3 -1 -5 -1 -8c0 -19 12 -32 33 -32c24 0 40 17 44 40c1 3 1 5 1 8c0 19 -12 32 -33 32zM192 562c57 0 96 -32 96 -84c0 -6 0 -12 -1 -18c-3 -22 -12 -40 -25 -56h7h20c61 0 102 57 116 138l106 -13c-17 -104 -96 -190 -228 -190h-75
c-96 0 -145 43 -145 102c0 6 1 13 2 19c10 62 64 102 127 102zM135 200c-24 0 -41 -17 -45 -40c-1 -3 -1 -5 -1 -8c0 -19 12 -32 33 -32c24 0 40 17 44 40c1 3 1 6 1 9c0 18 -11 31 -32 31zM144 262c57 0 96 -32 96 -84c0 -6 0 -12 -1 -18c-3 -22 -12 -40 -25 -56h7h20
c61 0 102 57 116 138l106 -13c-17 -104 -96 -190 -228 -190h-75c-96 0 -145 43 -145 102c0 6 1 13 2 19c10 62 64 102 127 102z" />
    <glyph glyph-name="uni0E31" unicode="&#xe31;" 
d="M-196 843c-20 0 -36 -14 -39 -33v-6c0 -16 10 -27 28 -27c20 0 35 14 38 33c0 2 1 4 1 6c0 16 -10 27 -28 27zM-188 898c48 0 82 -27 82 -72c0 -5 0 -10 -1 -16c-3 -21 -12 -38 -24 -52h9h15c58 0 107 27 122 124l93 -10c-17 -107 -101 -174 -207 -174h-65
c-82 0 -134 34 -134 94c0 6 0 12 1 18c9 54 55 88 109 88z" />
    <glyph glyph-name="uni0E32" unicode="&#xe32;" horiz-adv-x="485" 
d="M22 465c23 73 98 155 226 155c116 0 177 -68 177 -152c0 -9 -1 -18 -2 -28l-70 -440h-128l70 440c1 8 2 16 2 23c0 49 -32 62 -64 62c-38 0 -69 -20 -85 -70z" />
    <glyph glyph-name="uni0E33" unicode="&#xe33;" horiz-adv-x="485" 
d="M-100 882c57 0 96 -32 96 -84c0 -6 0 -12 -1 -18c-10 -62 -65 -102 -128 -102c-57 0 -95 32 -95 84c0 6 0 12 1 18c10 62 64 102 127 102zM-110 820c-24 0 -40 -17 -44 -40c-1 -3 -1 -6 -1 -9c0 -18 11 -31 32 -31c24 0 41 17 45 40c1 3 1 5 1 8c0 19 -12 32 -33 32z
M22 465c23 73 98 155 226 155c116 0 177 -68 177 -152c0 -9 -1 -18 -2 -28l-70 -440h-128l70 440c1 8 2 16 2 23c0 49 -32 62 -64 62c-38 0 -69 -20 -85 -70z" />
    <glyph glyph-name="uni0E34" unicode="&#xe34;" 
d="M-361 775l223 -40c-21 41 -60 91 -138 91c-34 0 -67 -15 -85 -51zM-48 688l-13 -18l-414 67c12 75 78 158 206 158c182 0 215 -181 221 -207z" />
    <glyph glyph-name="uni0E35" unicode="&#xe35;" 
d="M-111 834l11 66l92 -17l-32 -204l-17 -14l-420 67c12 75 78 158 198 158c91 0 143 -56 172 -110c-3 15 -5 29 -5 41c0 5 0 9 1 13zM-363 770l241 -43c-23 42 -70 94 -156 94c-34 0 -67 -15 -85 -51z" />
    <glyph glyph-name="uni0E36" unicode="&#xe36;" 
d="M-108 825c-24 0 -41 -17 -45 -40c-1 -3 -1 -5 -1 -8c0 -19 12 -32 33 -32c24 0 40 17 44 40c1 3 1 6 1 9c0 18 -11 31 -32 31zM-99 887c57 0 96 -32 96 -84c0 -6 0 -12 -1 -18c-10 -62 -64 -102 -127 -102c-23 0 -43 5 -58 15l-288 34c12 75 77 158 197 158
c43 0 72 -14 94 -34c23 20 54 31 87 31zM-220 806c-14 9 -33 15 -58 15c-34 0 -66 -14 -84 -50l136 -19c-1 10 -2 21 0 33c1 7 4 14 6 21z" />
    <glyph glyph-name="uni0E37" unicode="&#xe37;" 
d="M-203 883l7 42l75 -17l-28 -177l47 -9c-3 8 -4 17 -4 26c0 5 0 10 1 15l22 137l75 -17l-32 -204l-16 -14l-421 66c12 75 70 159 188 159c40 0 69 -14 89 -34c-2 10 -4 20 -3 27zM-177 735c-16 45 -52 86 -111 86c-32 0 -60 -15 -76 -52z" />
    <glyph glyph-name="uni0E38" unicode="&#xe38;" 
d="M-259 -117c-20 0 -35 -14 -38 -33v-6c0 -16 10 -27 28 -27c20 0 35 14 38 33v6c0 16 -10 27 -28 27zM-286 -305l7 45c1 9 5 15 9 22h-8c-48 0 -82 27 -82 72c0 5 0 10 1 16c9 54 55 88 109 88c48 0 82 -27 82 -72c0 -5 0 -10 -1 -16c-7 -42 -14 -56 -20 -92l-10 -63h-87z
" />
    <glyph glyph-name="uni0E39" unicode="&#xe39;" 
d="M-419 -117c-20 0 -35 -14 -38 -33v-6c0 -16 10 -27 28 -27c20 0 35 14 38 33v6c0 16 -10 27 -28 27zM-329 -150c-6 -36 -17 -47 -20 -67l-2 -13v-4c0 -10 8 -19 37 -19c33 0 43 11 45 23l25 161h87l-27 -169c-7 -46 -63 -72 -139 -72c-71 0 -114 15 -114 54c0 3 1 6 1 9
l1 9h-3c-48 0 -82 27 -82 72c0 5 0 10 1 16c9 54 55 88 109 88c48 0 82 -27 82 -72c0 -5 0 -10 -1 -16z" />
    <glyph glyph-name="uni0E3A" unicode="&#xe3a;" 
d="M-221 -69c45 0 76 -26 76 -67c0 -5 0 -9 -1 -14c-8 -50 -51 -81 -101 -81c-45 0 -76 26 -76 67c0 5 0 9 1 14c8 50 51 81 101 81z" />
    <glyph glyph-name="uni0E3F" unicode="&#xe3f;" horiz-adv-x="720" 
d="M342 457c56 7 119 43 132 122c1 7 2 14 2 20c0 62 -54 88 -141 88c-26 0 -49 -1 -67 -2l-36 -230c32 1 69 2 110 2zM496 436c89 -28 141 -85 141 -169c0 -12 -1 -24 -3 -37c-21 -135 -143 -220 -309 -236l-18 -114h-103l18 111c-108 2 -191 8 -199 9l124 780
c8 1 94 8 201 9l18 111h103l-19 -118c101 -19 169 -75 169 -163c0 -9 -1 -18 -2 -28c-12 -75 -60 -124 -121 -155zM175 97c25 -1 58 -3 94 -3c111 0 206 31 223 136c1 9 2 17 2 25c0 84 -81 107 -183 107c-36 0 -69 -2 -94 -3z" />
    <glyph glyph-name="uni0E40" unicode="&#xe40;" horiz-adv-x="330" 
d="M154 132c-24 0 -40 -17 -44 -40c-1 -3 -1 -6 -1 -9c0 -18 11 -31 32 -31c24 0 41 17 45 40c1 3 1 5 1 8c0 19 -12 32 -33 32zM37 92c7 47 22 72 29 118l62 390h128l-57 -360c-3 -19 -10 -34 -19 -47c48 -5 80 -36 80 -83c0 -6 0 -12 -1 -18c-10 -62 -65 -102 -128 -102
c-57 0 -95 32 -95 84c0 6 0 12 1 18z" />
    <glyph glyph-name="uni0E41" unicode="&#xe41;" horiz-adv-x="630" 
d="M454 132c-24 0 -40 -17 -44 -40c-1 -3 -1 -6 -1 -9c0 -18 11 -31 32 -31c24 0 41 17 45 40c1 3 1 5 1 8c0 19 -12 32 -33 32zM337 92c7 47 22 72 29 118l62 390h128l-57 -360c-3 -19 -10 -34 -19 -47c48 -5 80 -36 80 -83c0 -6 0 -12 -1 -18c-10 -62 -65 -102 -128 -102
c-57 0 -95 32 -95 84c0 6 0 12 1 18zM154 132c-24 0 -40 -17 -44 -40c-1 -3 -1 -6 -1 -9c0 -18 11 -31 32 -31c24 0 41 17 45 40c1 3 1 5 1 8c0 19 -12 32 -33 32zM37 92c7 47 22 72 29 118l62 390h128l-57 -360c-3 -19 -10 -34 -19 -47c48 -5 80 -36 80 -83
c0 -6 0 -12 -1 -18c-10 -62 -65 -102 -128 -102c-57 0 -95 32 -95 84c0 6 0 12 1 18z" />
    <glyph glyph-name="uni0E42" unicode="&#xe42;" horiz-adv-x="380" 
d="M199 132c-24 0 -40 -17 -44 -40c-1 -3 -1 -6 -1 -9c0 -18 11 -31 32 -31c24 0 41 17 45 40c1 3 1 5 1 8c0 19 -12 32 -33 32zM82 92c7 47 22 72 29 118l64 400c2 11 3 21 3 30c0 49 -32 63 -130 63l5 30c16 100 98 181 221 181c60 0 98 -27 124 -54c3 5 5 9 8 13l25 35
l92 -18l-1 -6l-108 -112h-39c-13 22 -38 56 -98 56c-45 0 -86 -23 -101 -75c87 -12 130 -44 130 -112c0 -10 -1 -20 -3 -31l-59 -370c-3 -19 -10 -34 -19 -47c48 -5 80 -36 80 -83c0 -6 0 -12 -1 -18c-10 -62 -65 -102 -128 -102c-57 0 -95 32 -95 84c0 6 0 12 1 18z" />
    <glyph glyph-name="uni0E43" unicode="&#xe43;" horiz-adv-x="380" 
d="M180 812c-24 0 -41 -17 -45 -40c-1 -3 -1 -5 -1 -8c0 -19 12 -32 33 -32c24 0 40 17 44 40c1 3 1 6 1 9c0 18 -11 31 -32 31zM199 132c-24 0 -40 -17 -44 -40c-1 -3 -1 -6 -1 -9c0 -18 11 -31 32 -31c24 0 41 17 45 40c1 3 1 5 1 8c0 19 -12 32 -33 32zM82 92
c7 47 22 72 29 118l48 300c20 129 167 152 184 258c1 5 1 10 1 15c0 40 -29 63 -83 66c16 -15 24 -35 24 -60c0 -6 0 -11 -1 -17c-10 -62 -64 -102 -127 -102c-57 0 -96 32 -96 84c0 6 0 12 1 18c12 75 89 142 210 142c108 0 165 -52 165 -128c0 -8 -1 -17 -2 -26
c-19 -121 -131 -141 -148 -250l-43 -270c-3 -19 -10 -34 -19 -47c48 -5 80 -36 80 -83c0 -6 0 -12 -1 -18c-10 -62 -65 -102 -128 -102c-57 0 -95 32 -95 84c0 6 0 12 1 18z" />
    <glyph glyph-name="uni0E44" unicode="&#xe44;" horiz-adv-x="380" 
d="M199 132c-24 0 -40 -17 -44 -40c-1 -3 -1 -6 -1 -9c0 -18 11 -31 32 -31c24 0 41 17 45 40c1 3 1 5 1 8c0 19 -12 32 -33 32zM77 881v5l90 24l29 -75c5 -16 9 -33 12 -49c15 21 34 44 49 63s45 61 111 61s86 -41 86 -74c0 -4 0 -8 -1 -12c-15 -97 -143 -167 -165 -309
l-44 -275c-3 -19 -10 -34 -19 -47c48 -5 80 -36 80 -83c0 -6 0 -12 -1 -18c-10 -62 -65 -102 -128 -102c-57 0 -95 32 -95 84c0 6 0 12 1 18c7 47 22 72 29 118l49 305c18 115 194 251 203 305c2 10 -3 24 -17 24c-13 -8 -38 -38 -42 -42c-6 -8 -93 -107 -93 -107h-48z" />
    <glyph glyph-name="uni0E45" unicode="&#xe45;" horiz-adv-x="485" 
d="M22 465c23 73 98 155 226 155c116 0 177 -68 177 -152c0 -9 -1 -18 -2 -28l-103 -650h-128l103 650c1 8 2 16 2 23c0 49 -32 62 -64 62c-38 0 -69 -20 -85 -70z" />
    <glyph glyph-name="uni0E46" unicode="&#xe46;" horiz-adv-x="590" 
d="M202 360c-24 0 -40 -17 -44 -40c-1 -3 -1 -6 -1 -9c0 -18 11 -31 32 -31c24 0 41 17 45 40c1 3 1 5 1 8c0 19 -12 32 -33 32zM212 422c57 0 96 -32 96 -84c0 -6 0 -12 -1 -18c-10 -62 -64 -102 -127 -102c-91 0 -137 66 -137 149c0 13 1 26 3 39c23 147 126 205 177 208
l82 -78l105 78c45 -3 115 -49 115 -161c0 -15 -1 -31 -4 -48l-97 -615h-129l97 615c2 13 3 25 3 36c0 26 -5 46 -16 62l-79 -53h-9h-9l-74 65c-29 -24 -50 -57 -58 -107c18 9 40 14 62 14z" />
    <glyph glyph-name="uni0E47" unicode="&#xe47;" 
d="M-110 773c-18 0 -31 -12 -34 -30c0 -2 -1 -4 -1 -6c0 -15 10 -24 26 -24c18 0 32 12 35 30v6c0 15 -10 24 -26 24zM-102 823c45 0 76 -25 76 -66c0 -5 0 -9 -1 -14c-8 -49 -50 -80 -100 -80c-45 0 -75 25 -75 66v2l-50 -63c-81 0 -131 33 -131 96c0 7 1 14 2 21
c12 77 76 117 166 117h109c37 0 71 5 97 24l22 -57c-37 -24 -80 -28 -125 -28h-113c-47 0 -72 -20 -78 -56c-1 -4 -1 -8 -1 -12c0 -22 12 -37 36 -42l51 64h9l20 -16c17 28 50 44 86 44z" />
    <glyph glyph-name="uni0E48" unicode="&#xe48;" 
d="M-91 960l28 175h95l-31 -192z" />
    <glyph glyph-name="uni0E49" unicode="&#xe49;" 
d="M-169 1090c-14 0 -23 -9 -25 -23s3 -23 17 -23s23 9 25 23s-3 23 -17 23zM-157 963c1 6 1 12 2 17c2 13 4 24 5 35c-10 -4 -21 -7 -32 -7c-32 0 -55 18 -55 48c0 3 0 7 1 11c6 36 36 59 72 59c50 0 73 -31 73 -76v-8c-1 -16 -1 -29 -3 -41c40 11 72 42 86 124l89 -12
c-18 -107 -100 -163 -217 -163h-24z" />
    <glyph glyph-name="uni0E4A" unicode="&#xe4a;" 
d="M-127 1025c-14 0 -22 -9 -24 -23s3 -23 17 -23s23 9 25 23s-4 23 -18 23zM-121 1061c32 0 55 -18 55 -48c0 -3 0 -7 -1 -11c-6 -36 -37 -59 -73 -59c-57 0 -73 35 -73 70c0 6 0 13 1 19c12 76 76 100 97 101l46 -27l54 27c19 -1 59 -20 59 -78c0 -7 -1 -15 -2 -23
c0 -3 -1 -5 -1 -7c15 23 25 51 34 83l63 -13c-22 -78 -87 -147 -187 -150l-4 34c22 13 34 27 38 53c1 5 1 11 1 15c0 18 -6 29 -15 36l-44 -21h-3h-3l-39 22c-9 -5 -18 -13 -24 -26c7 2 14 3 21 3z" />
    <glyph glyph-name="uni0E4B" unicode="&#xe4b;" 
d="M-164 1015l8 53h86l11 67h87l-11 -67h87l-8 -53h-87l-12 -72l-84 17l9 55h-86z" />
    <glyph glyph-name="uni0E4C" unicode="&#xe4c;" 
d="M-72 1060c-20 0 -35 -14 -38 -33c0 -2 -1 -4 -1 -6c0 -16 10 -27 28 -27c20 0 36 14 39 33v6c0 16 -10 27 -28 27zM-172 1027c8 52 45 94 111 94h29c48 0 71 14 78 58l89 -11c-8 -51 -50 -89 -121 -97c3 -8 5 -17 5 -28c0 -5 0 -11 -1 -16c-9 -54 -55 -88 -109 -88
c-48 0 -82 27 -82 72c0 5 0 10 1 16z" />
    <glyph glyph-name="uni0E4D" unicode="&#xe4d;" 
d="M-100 882c57 0 96 -32 96 -84c0 -6 0 -12 -1 -18c-10 -62 -65 -102 -128 -102c-57 0 -95 32 -95 84c0 6 0 12 1 18c10 62 64 102 127 102zM-110 820c-24 0 -40 -17 -44 -40c-1 -3 -1 -6 -1 -9c0 -18 11 -31 32 -31c24 0 41 17 45 40c1 3 1 5 1 8c0 19 -12 32 -33 32z" />
    <glyph glyph-name="uni0E4E" unicode="&#xe4e;" 
d="M-305 760c6 40 45 82 107 82c3 0 6 -1 9 -1c7 40 39 84 100 84c30 0 55 -13 70 -31l29 -39l-51 -40l-39 47c-8 10 -16 11 -18 11c-6 0 -28 -9 -32 -33c-2 -11 0 -20 5 -28l29 -37l-53 -40l-39 47c-8 10 -16 10 -18 10c-6 0 -25 -8 -29 -32c-2 -11 1 -22 9 -32l32 -37
l-53 -41l-40 47c-12 15 -19 34 -19 52c0 4 1 7 1 11z" />
    <glyph glyph-name="uni0E4F" unicode="&#xe4f;" horiz-adv-x="660" 
d="M324 340c-24 0 -40 -17 -44 -40c-1 -3 -1 -6 -1 -9c0 -18 11 -31 32 -31c24 0 41 17 45 40c1 3 1 5 1 8c0 19 -12 32 -33 32zM334 402c57 0 96 -32 96 -84c0 -6 0 -12 -1 -18c-10 -62 -65 -102 -128 -102c-57 0 -95 32 -95 84c0 6 0 12 1 18c10 62 64 102 127 102z
M277 46c-149 0 -231 91 -231 210c0 14 2 29 4 44c22 140 141 254 308 254c149 0 231 -92 231 -211c0 -14 -1 -28 -3 -43c-22 -140 -142 -254 -309 -254zM288 115c106 0 194 69 212 185c2 13 3 25 3 37c0 93 -62 148 -156 148c-106 0 -193 -69 -211 -185
c-2 -13 -3 -25 -3 -37c0 -93 61 -148 155 -148z" />
    <glyph glyph-name="uni0E50" unicode="&#xe50;" horiz-adv-x="720" 
d="M43 287l5 26c22 141 120 307 350 307c197 0 259 -122 259 -245c0 -21 -2 -42 -5 -62l-5 -26c-22 -141 -120 -307 -350 -307c-197 0 -259 122 -259 245c0 21 2 42 5 62zM312 75c114 0 186 80 207 212l5 26c3 20 5 39 5 57c0 98 -49 155 -146 155
c-114 0 -186 -80 -207 -212l-5 -26c-3 -20 -5 -39 -5 -57c0 -98 49 -155 146 -155z" />
    <glyph glyph-name="uni0E51" unicode="&#xe51;" horiz-adv-x="720" 
d="M51 332c21 130 127 288 347 288c197 0 259 -124 259 -247c0 -21 -2 -41 -5 -61l-3 -20c-24 -153 -185 -318 -405 -334l3 94c129 9 258 120 277 240l3 20c3 20 5 39 5 57c0 97 -49 158 -149 158c-114 0 -194 -80 -212 -195c-1 -9 -2 -17 -2 -25c0 -62 43 -90 89 -90
c21 0 42 4 61 12c-47 6 -79 38 -79 84c0 6 0 11 1 17c10 62 64 102 127 102c57 0 96 -32 96 -84c0 -6 0 -12 -1 -18c-15 -94 -97 -190 -236 -190c-124 0 -178 87 -178 166c0 9 1 18 2 26zM359 370c-24 0 -41 -17 -45 -40c-1 -3 -1 -5 -1 -8c0 -19 12 -32 33 -32
c24 0 40 17 44 40c1 3 1 6 1 9c0 18 -11 31 -32 31z" />
    <glyph glyph-name="uni0E52" unicode="&#xe52;" horiz-adv-x="810" 
d="M43 197l88 553h124l-88 -553c-1 -7 -2 -13 -2 -19c0 -56 43 -84 76 -84h251c37 0 95 34 106 103l33 208c2 12 3 23 3 33c0 29 -7 51 -20 69l-84 -57h-9h-9l-74 65c-29 -24 -50 -57 -58 -107c18 9 40 14 62 14c57 0 96 -32 96 -84c0 -6 0 -12 -1 -18
c-10 -62 -64 -102 -127 -102c-91 0 -137 66 -137 149c0 13 1 26 3 39c23 147 126 205 177 208l82 -78l105 78c45 -3 115 -49 115 -161c0 -15 -1 -31 -4 -48l-33 -208c-15 -93 -102 -197 -245 -197h-247c-128 0 -185 83 -185 167c0 10 0 20 2 30zM432 360
c-24 0 -40 -17 -44 -40c-1 -3 -1 -6 -1 -9c0 -18 11 -31 32 -31c24 0 41 17 45 40c1 3 1 5 1 8c0 19 -12 32 -33 32z" />
    <glyph glyph-name="uni0E53" unicode="&#xe53;" horiz-adv-x="720" 
d="M184 132c-24 0 -40 -17 -44 -40c-1 -3 -1 -6 -1 -9c0 -18 11 -31 32 -31c24 0 41 17 45 40c1 3 1 5 1 8c0 19 -12 32 -33 32zM194 194c57 0 96 -32 96 -84c0 -6 0 -12 -1 -18c-10 -62 -65 -102 -128 -102c-79 0 -127 54 -128 126c0 33 7 95 9 107l32 197
c14 88 66 200 198 200c58 0 94 -32 113 -77c33 45 80 77 138 77c108 0 140 -75 140 -151c0 -16 -2 -33 -4 -49l-38 -237c-14 -90 -40 -148 -109 -193l-83 65c29 20 55 45 68 128l38 237c3 17 4 32 4 44c0 47 -18 62 -40 62c-36 0 -64 -47 -73 -106l-31 -195h-119l31 195
c2 12 3 23 3 33c0 43 -15 73 -44 73c-28 0 -55 -24 -68 -106l-33 -208c-1 -8 -4 -15 -6 -22c11 3 23 4 35 4z" />
    <glyph glyph-name="uni0E54" unicode="&#xe54;" horiz-adv-x="720" 
d="M504 350c-24 0 -40 -17 -44 -40c-1 -3 -1 -5 -1 -8c0 -19 12 -32 33 -32c24 0 40 17 44 40c1 3 1 5 1 8c0 19 -12 32 -33 32zM44 298l3 15c23 147 143 288 345 299c37 2 95 7 114 9c74 9 108 5 137 132l126 -13c-35 -153 -130 -195 -255 -211c-29 -4 -87 -9 -129 -11
c-105 -6 -191 -82 -210 -205l-3 -15c-3 -16 -4 -32 -4 -47c0 -96 52 -157 146 -157h55c-25 29 -38 67 -38 110c0 11 1 23 3 35c14 91 76 173 180 173c57 0 96 -32 96 -84c0 -6 0 -12 -1 -18c-10 -62 -64 -102 -127 -102c-22 0 -41 5 -57 14c0 -5 -1 -9 -1 -14
c0 -71 57 -114 127 -114h51l-15 -94h-288c-191 0 -259 123 -259 244c0 18 1 36 4 54z" />
    <glyph glyph-name="uni0E55" unicode="&#xe55;" horiz-adv-x="720" 
d="M423 694c-24 0 -40 -17 -44 -40c-1 -3 -1 -6 -1 -9c0 -18 11 -31 32 -31c24 0 41 17 45 40c1 3 1 5 1 8c0 19 -12 32 -33 32zM433 756c57 0 96 -32 96 -84c0 -6 0 -12 -1 -18c-3 -17 -9 -33 -18 -46h1c71 7 105 23 132 145l126 -13c-33 -148 -128 -200 -249 -213
c-12 -1 -28 -2 -45 -2c-26 0 -53 2 -70 6c-126 -16 -210 -92 -230 -218l-3 -15c-3 -16 -4 -32 -4 -47c0 -96 52 -157 146 -157h55c-25 29 -38 67 -38 110c0 11 1 23 3 35c14 91 76 173 180 173c57 0 96 -32 96 -84c0 -6 0 -12 -1 -18c-10 -62 -64 -102 -127 -102
c-22 0 -41 5 -57 14c0 -5 -1 -9 -1 -14c0 -71 57 -114 127 -114h51l-15 -94h-288c-191 0 -259 123 -259 244c0 18 1 36 4 54l3 15c20 128 111 244 269 280c-7 12 -12 26 -12 43c0 6 1 12 2 18c10 62 64 102 127 102zM504 350c-24 0 -40 -17 -44 -40c-1 -3 -1 -5 -1 -8
c0 -19 12 -32 33 -32c24 0 40 17 44 40c1 3 1 5 1 8c0 19 -12 32 -33 32z" />
    <glyph glyph-name="uni0E56" unicode="&#xe56;" horiz-adv-x="720" 
d="M181 200c-24 0 -41 -17 -45 -40c-1 -3 -1 -5 -1 -8c0 -19 12 -32 33 -32c24 0 40 17 44 40c1 3 1 6 1 9c0 18 -11 31 -32 31zM190 262c57 0 96 -32 96 -84c0 -6 0 -12 -1 -18c-5 -34 -24 -61 -50 -79c21 -6 47 -10 80 -10c119 0 184 84 205 216l5 26c3 20 5 39 5 57
c0 97 -48 151 -135 151c-102 0 -160 -75 -174 -109l-97 8l-9 320l131 13l-15 -202c39 38 98 69 183 69c178 0 244 -124 244 -249c0 -19 -2 -39 -5 -58l-5 -26c-22 -141 -120 -307 -339 -307c-178 0 -248 79 -248 158c0 7 1 15 2 22c10 62 64 102 127 102z" />
    <glyph glyph-name="uni0E57" unicode="&#xe57;" horiz-adv-x="905" 
d="M184 132c-24 0 -40 -17 -44 -40c-1 -3 -1 -6 -1 -9c0 -18 11 -31 32 -31c24 0 41 17 45 40c1 3 1 5 1 8c0 19 -12 32 -33 32zM194 194c57 0 96 -32 96 -84c0 -6 0 -12 -1 -18c-10 -62 -65 -102 -128 -102c-79 0 -127 54 -128 126c0 33 7 95 9 107l32 197
c14 88 66 200 198 200c58 0 94 -32 113 -77c33 45 80 77 138 77c105 0 133 -71 133 -144c0 -19 -2 -38 -5 -56l-38 -237c-7 -42 -17 -77 -34 -107c51 19 97 55 107 116l89 558h116l-89 -558c-19 -117 -130 -202 -307 -202l-66 65c29 20 55 45 68 128l38 237c3 17 4 32 4 44
c0 47 -18 62 -40 62c-36 0 -64 -47 -73 -106l-31 -195h-119l31 195c2 12 3 23 3 33c0 43 -15 73 -44 73c-28 0 -55 -24 -68 -106l-33 -208c-1 -8 -4 -15 -6 -22c11 3 23 4 35 4z" />
    <glyph glyph-name="uni0E58" unicode="&#xe58;" horiz-adv-x="750" 
d="M547 350c-24 0 -40 -17 -44 -40c-1 -3 -1 -5 -1 -8c0 -19 12 -32 33 -32c24 0 40 17 44 40c1 3 1 5 1 8c0 19 -12 32 -33 32zM45 298l3 16c23 145 142 284 344 295c37 2 100 7 119 9c73 9 104 8 133 135l126 -13c-35 -154 -129 -199 -252 -215c-29 -4 -90 -8 -132 -10
c-105 -6 -191 -79 -210 -201l-3 -16c-4 -23 -5 -45 -5 -64c0 -41 6 -74 11 -105l112 136h95c-5 -33 -8 -60 -8 -84c0 -69 23 -101 72 -101c59 0 94 47 112 133c-11 -3 -24 -5 -37 -5c-57 0 -96 32 -96 84c0 6 0 12 1 18c10 62 64 102 127 102c85 0 111 -60 111 -128
c0 -17 -1 -34 -4 -51c-17 -108 -76 -243 -229 -243c-107 0 -145 72 -150 152l-115 -142h-107l5 29c1 7 2 14 2 22c0 55 -29 115 -29 195c0 16 1 34 4 52z" />
    <glyph glyph-name="uni0E59" unicode="&#xe59;" horiz-adv-x="720" 
d="M521 194c-24 0 -41 -17 -45 -40c-1 -3 -1 -5 -1 -8c0 -19 12 -32 33 -32c24 0 40 17 44 40c1 3 1 6 1 9c0 18 -11 31 -32 31zM174 446c14 87 96 147 202 158c51 5 105 8 121 10c73 9 106 7 136 138l126 -13c-36 -157 -131 -199 -254 -215c-32 -4 -94 -5 -138 -10
c-41 -5 -71 -26 -78 -72c-1 -5 -1 -10 -1 -14c0 -14 3 -23 8 -28c19 2 40 3 62 3h203l-15 -95h-203c-139 0 -188 -54 -198 -119c-1 -7 -2 -14 -2 -21c0 -54 38 -99 162 -99c52 0 90 4 117 13c-13 14 -20 33 -20 55c0 6 0 11 1 17c10 62 65 102 128 102c57 0 95 -32 95 -84
c0 -6 0 -12 -1 -18c-14 -89 -118 -175 -334 -175c-198 0 -276 82 -276 180c0 10 0 20 2 30c12 78 67 152 174 189c-11 15 -18 33 -18 54c0 5 0 9 1 14z" />
    <glyph glyph-name="uni0E5A" unicode="&#xe5a;" horiz-adv-x="675" 
d="M538 0h-111l95 600h111zM171 548c-24 0 -41 -17 -45 -40c-1 -3 -1 -5 -1 -8c0 -19 12 -32 33 -32c24 0 40 17 44 40c1 3 1 6 1 9c0 18 -11 31 -32 31zM181 610c57 0 95 -32 95 -84c0 -6 0 -12 -1 -18c-2 -15 -6 -28 -13 -40c58 24 95 72 119 126l41 6
c9 -10 13 -25 13 -46s-4 -48 -9 -81l-50 -315c-19 -123 -149 -164 -283 -178l-4 92c126 14 168 34 176 86l31 198c6 40 24 59 37 88c-43 -29 -96 -49 -163 -49c-73 0 -119 37 -119 94c0 6 1 13 2 19c10 62 65 102 128 102z" />
    <glyph glyph-name="uni0E5B" unicode="&#xe5b;" horiz-adv-x="900" 
d="M50 300c22 140 141 254 308 254l-11 -69c-106 0 -193 -69 -211 -185c-2 -13 -3 -25 -3 -37c0 -93 61 -148 155 -148c106 0 193 69 211 185c2 12 3 24 3 36c0 43 -12 79 -29 100l68 43c17 -23 29 -51 36 -81l49 -162l67 194l48 5l44 -113h83l-7 -44h-110l-31 71l-71 -204
l-57 -5l-31 102c-40 -112 -141 -196 -284 -196c-149 0 -231 91 -231 210c0 14 2 29 4 44zM324 340c-24 0 -40 -17 -44 -40c-1 -3 -1 -6 -1 -9c0 -18 11 -31 32 -31c24 0 41 17 45 40c1 3 1 5 1 8c0 19 -12 32 -33 32zM334 402c57 0 96 -32 96 -84c0 -6 0 -12 -1 -18
c-10 -62 -65 -102 -128 -102c-57 0 -95 32 -95 84c0 6 0 12 1 18c10 62 64 102 127 102z" />
    <glyph glyph-name="uni0E81" unicode="&#xe81;" horiz-adv-x="690" 
d="M121 132c-24 0 -40 -17 -44 -40c-1 -3 -1 -6 -1 -9c0 -18 11 -31 32 -31c24 0 41 17 45 40c1 3 1 5 1 8c0 19 -12 32 -33 32zM174 468c24 0 40 17 44 40c1 3 1 6 1 9c0 18 -11 31 -32 31c-24 0 -41 -17 -45 -40c-1 -3 -1 -5 -1 -8c0 -19 12 -32 33 -32zM107 192
c-5 10 -8 21 -8 34c0 5 0 9 1 14l10 60l9 60c3 19 12 35 23 48c-44 8 -75 38 -75 82c0 6 1 12 2 18c10 62 65 102 128 102c57 0 96 -32 96 -84v-8c51 45 115 97 196 97c103 0 145 -73 145 -159c0 -15 -2 -30 -4 -45l-65 -411h-128l65 411c2 14 3 26 3 37c0 54 -25 72 -60 72
c-63 0 -126 -61 -184 -95c-4 -11 -7 -22 -9 -35l-14 -90l-15 -90c-1 -8 -2 -16 -2 -23c0 -26 7 -46 7 -72c0 -7 -1 -15 -2 -23c-10 -62 -65 -102 -128 -102c-57 0 -95 32 -95 84c0 6 0 12 1 18c9 54 51 91 103 100z" />
    <glyph glyph-name="uni0E82" unicode="&#xe82;" horiz-adv-x="625" 
d="M169 410c24 0 40 17 44 40c1 3 1 6 1 9c0 18 -11 31 -32 31c-24 0 -41 -17 -45 -40c-1 -3 -1 -5 -1 -8c0 -19 12 -32 33 -32zM446 102c-62 -56 -153 -122 -265 -122c-106 0 -169 48 -169 128c0 8 1 17 2 26c16 100 132 139 165 152c44 17 123 48 165 65
c35 14 91 34 99 86c1 6 1 11 1 16c0 56 -52 81 -114 81c-28 0 -51 -2 -69 -5c17 -15 26 -36 26 -62c0 -5 0 -11 -1 -17c-10 -62 -64 -102 -127 -102c-57 0 -96 32 -96 84c0 6 0 12 1 18c15 94 129 170 279 170c138 0 226 -65 226 -158c0 -8 -1 -17 -2 -25
c-17 -108 -115 -149 -174 -173c-46 -19 -121 -48 -165 -65c-46 -18 -84 -34 -90 -69c-1 -4 -1 -7 -1 -11c0 -31 23 -48 62 -48c111 0 205 86 252 129h65l44 -190l-1 -6l-102 -18l-9 71c-1 13 -2 29 -2 45z" />
    <glyph glyph-name="uni0E84" unicode="&#xe84;" horiz-adv-x="670" 
d="M66 429c16 99 131 191 302 191c156 0 242 -76 242 -181c0 -10 -1 -21 -3 -32l-64 -407h-127l64 407c1 9 2 17 2 25c0 65 -48 93 -129 93c-91 0 -153 -34 -164 -101c-1 -4 -1 -7 -1 -11c0 -45 47 -71 134 -71l-12 -75c-105 0 -163 -28 -186 -92c20 12 44 19 70 19
c57 0 96 -32 96 -84c0 -6 0 -12 -1 -18c-10 -62 -65 -102 -128 -102c-93 0 -142 56 -142 129c0 9 0 18 2 28c12 75 67 132 129 160c-48 17 -86 50 -86 103c0 6 1 12 2 19zM184 132c-24 0 -40 -17 -44 -40c-1 -3 -1 -6 -1 -9c0 -18 11 -31 32 -31c24 0 41 17 45 40
c1 3 1 5 1 8c0 19 -12 32 -33 32z" />
    <glyph glyph-name="uni0E87" unicode="&#xe87;" horiz-adv-x="520" 
d="M162 490c-24 0 -41 -17 -45 -40c-1 -3 -1 -5 -1 -8c0 -19 12 -32 33 -32c24 0 40 17 44 40c1 3 1 6 1 9c0 18 -11 31 -32 31zM44 450c14 91 109 170 235 170c121 0 181 -69 181 -153c0 -9 0 -18 -2 -28l-78 -488c-13 -83 -71 -181 -200 -181c-132 0 -178 113 -188 223
l120 23c10 -117 54 -152 82 -152c22 0 50 12 62 87l78 493c1 9 2 17 2 25c0 53 -32 73 -74 73c-12 0 -24 -1 -35 -3c25 -15 40 -39 40 -72c0 -5 0 -11 -1 -17c-10 -62 -64 -102 -127 -102c-57 0 -96 32 -96 84c0 6 0 12 1 18z" />
    <glyph glyph-name="uni0E88" unicode="&#xe88;" horiz-adv-x="590" 
d="M30 427c28 96 127 193 283 193c138 0 222 -73 222 -175c0 -10 -1 -21 -3 -32c-22 -136 -102 -232 -118 -332l-6 -34c-5 -30 -36 -51 -89 -51c-35 0 -59 4 -59 4c4 31 6 62 6 92c0 39 -4 75 -12 103c-24 -24 -59 -39 -96 -39c-57 0 -96 32 -96 84c0 6 0 12 1 18
c10 62 64 102 127 102c106 0 136 -105 139 -203c19 71 61 156 77 256c1 9 2 17 2 25c0 62 -44 87 -110 87c-70 0 -121 -37 -142 -107zM168 218c24 0 40 17 44 40c1 3 1 5 1 8c0 19 -12 32 -33 32c-24 0 -40 -17 -44 -40c-1 -3 -1 -5 -1 -8c0 -19 12 -32 33 -32z" />
    <glyph glyph-name="uni0E8A" unicode="&#xe8a;" horiz-adv-x="625" 
d="M558 -189l-109 -36c-14 28 -43 93 -43 184c0 22 2 45 6 70c3 19 6 37 11 53c-61 -51 -143 -102 -242 -102c-106 0 -169 48 -169 128c0 8 1 17 2 26c16 100 132 139 165 152c44 17 123 48 165 65c35 14 91 34 99 86c1 6 1 11 1 16c0 56 -52 81 -114 81
c-28 0 -51 -2 -69 -5c17 -15 26 -36 26 -62c0 -5 0 -11 -1 -17c-10 -62 -64 -102 -127 -102c-57 0 -96 32 -96 84c0 6 0 12 1 18c15 94 129 170 279 170c138 0 226 -65 226 -158c0 -8 -1 -17 -2 -25c-17 -108 -115 -149 -174 -173c-46 -19 -121 -48 -165 -65
c-46 -18 -84 -34 -90 -69c-1 -4 -1 -7 -1 -11c0 -31 23 -48 62 -48c111 0 205 86 252 129l89 -13l-18 -111c-5 -32 -7 -59 -7 -84c0 -87 25 -136 44 -175zM169 410c24 0 40 17 44 40c1 3 1 6 1 9c0 18 -11 31 -32 31c-24 0 -41 -17 -45 -40c-1 -3 -1 -5 -1 -8
c0 -19 12 -32 33 -32z" />
    <glyph glyph-name="uni0E8D" unicode="&#xe8d;" horiz-adv-x="670" 
d="M25 171c10 64 62 103 122 122c-47 24 -79 70 -79 131c0 9 0 19 2 29c14 87 86 157 190 157c57 0 95 -32 95 -84c0 -6 0 -12 -1 -18c-10 -62 -64 -102 -127 -102c-26 0 -48 7 -64 19c3 -64 53 -92 158 -92l-12 -75c-94 0 -151 -31 -159 -82c-1 -6 -1 -12 -1 -17
c0 -56 50 -84 133 -84c91 0 152 35 165 118l64 407h127l-64 -407c-19 -121 -136 -213 -307 -213c-158 0 -244 78 -244 168c0 8 1 15 2 23zM237 468c24 0 40 17 44 40c1 3 1 6 1 9c0 18 -11 31 -32 31c-24 0 -41 -17 -45 -40c-1 -3 -1 -5 -1 -8c0 -19 12 -32 33 -32z" />
    <glyph glyph-name="uni0E94" unicode="&#xe94;" horiz-adv-x="665" 
d="M189 132c-24 0 -40 -17 -44 -40c-1 -3 -1 -6 -1 -9c0 -18 11 -31 32 -31c24 0 41 17 45 40c1 3 1 5 1 8c0 19 -12 32 -33 32zM199 194c57 0 96 -32 96 -84c0 -6 0 -12 -1 -18c-10 -62 -65 -102 -128 -102c-93 0 -142 56 -142 129c0 9 0 18 2 28l40 248
c20 128 140 225 303 225c148 0 235 -80 235 -190c0 -11 -1 -23 -3 -35l-63 -395h-126l63 395c2 11 3 21 3 30c0 70 -49 100 -124 100c-85 0 -147 -38 -162 -130l-28 -172c-3 -16 -7 -27 -13 -37c15 5 31 8 48 8z" />
    <glyph glyph-name="uni0E95" unicode="&#xe95;" horiz-adv-x="685" 
d="M189 132c-24 0 -40 -17 -44 -40c-1 -3 -1 -6 -1 -9c0 -18 11 -31 32 -31c24 0 41 17 45 40c1 3 1 5 1 8c0 19 -12 32 -33 32zM199 194c57 0 96 -32 96 -84c0 -6 0 -12 -1 -18c-10 -62 -65 -102 -128 -102c-93 0 -142 56 -142 129c0 9 0 18 2 28l52 324
c12 78 72 149 177 149c58 0 95 -28 115 -60c30 32 74 60 132 60c93 0 133 -55 133 -122c0 -9 -1 -18 -2 -27l-75 -471h-126l75 471c1 5 1 10 1 14c0 33 -22 41 -42 41c-24 0 -47 -18 -58 -48l-18 -113h-103l18 113c-1 30 -20 48 -44 48c-22 0 -50 -10 -57 -55l-40 -248
c-3 -16 -7 -27 -13 -37c15 5 31 8 48 8z" />
    <glyph glyph-name="uni0E96" unicode="&#xe96;" horiz-adv-x="695" 
d="M172 132c-24 0 -40 -17 -44 -40c-1 -3 -1 -6 -1 -9c0 -18 11 -31 32 -31c24 0 41 17 45 40c1 3 1 5 1 8c0 19 -12 32 -33 32zM177 468c24 0 40 17 44 40c1 3 1 6 1 9c0 18 -11 31 -32 31c-24 0 -41 -17 -45 -40c-1 -3 -1 -5 -1 -8c0 -19 12 -32 33 -32zM251 418
c-4 -9 -8 -19 -10 -30l-13 -88l-10 -60c-3 -19 -11 -34 -20 -47c48 -5 80 -37 80 -84c0 -6 0 -11 -1 -17c-10 -62 -65 -102 -128 -102c-57 0 -95 32 -95 84c0 6 0 12 1 18c7 47 24 72 31 118l15 90l9 62c3 19 13 35 26 48c-40 10 -65 39 -65 81c0 6 0 11 1 17
c10 62 65 102 128 102c56 0 96 -33 96 -85v-7c51 45 115 97 196 97c103 0 145 -73 145 -159c0 -15 -2 -30 -4 -45l-98 -621h-128l98 621c2 14 3 26 3 37c0 54 -25 72 -60 72c-68 0 -135 -70 -197 -102z" />
    <glyph glyph-name="uni0E97" unicode="&#xe97;" horiz-adv-x="760" 
d="M169 468c24 0 40 17 44 40c1 3 1 6 1 9c0 18 -11 31 -32 31c-24 0 -41 -17 -45 -40c-1 -3 -1 -5 -1 -8c0 -19 12 -32 33 -32zM55 144l24 151c7 46 41 84 71 111c-52 4 -87 36 -87 85c0 6 0 11 1 17c10 62 65 102 128 102c57 0 95 -32 95 -84c0 -6 0 -12 -1 -18
c-13 -84 -69 -124 -83 -213l-25 -155c-1 -7 -2 -14 -2 -20c0 -38 23 -49 51 -49c35 0 69 14 78 69l50 316c13 84 82 159 196 159c106 0 156 -60 156 -133c0 -8 -1 -17 -2 -26l-72 -456h-124l73 460c1 8 2 16 2 22c0 37 -20 47 -46 47c-33 0 -62 -14 -71 -69l-50 -316
c-13 -84 -86 -159 -203 -159c-109 0 -161 61 -161 134c0 8 1 17 2 25z" />
    <glyph glyph-name="uni0E99" unicode="&#xe99;" horiz-adv-x="680" 
d="M174 468c24 0 40 17 44 40c1 3 1 6 1 9c0 18 -11 31 -32 31c-24 0 -41 -17 -45 -40c-1 -3 -1 -5 -1 -8c0 -19 12 -32 33 -32zM208 93c-39 -82 -135 -105 -179 -108l-13 82c42 5 71 26 78 73l35 220c3 19 10 34 19 47c-48 5 -80 36 -80 83c0 6 0 12 1 18
c10 62 65 102 128 102c57 0 95 -32 95 -84c0 -6 0 -12 -1 -18c-7 -47 -22 -72 -29 -118l-28 -177c19 -77 67 -133 129 -133c34 0 80 19 93 101l66 419h128l-65 -411c-16 -104 -85 -204 -204 -204c-88 0 -142 47 -173 108z" />
    <glyph glyph-name="uni0E9A" unicode="&#xe9a;" horiz-adv-x="690" 
d="M58 192l17 103c7 46 41 84 71 111c-50 4 -84 37 -84 85c0 6 0 11 1 17c10 62 65 102 128 102c57 0 95 -32 95 -84c0 -6 0 -12 -1 -18c-13 -84 -68 -124 -82 -213l-17 -103c-1 -8 -2 -17 -2 -24c0 -66 50 -93 123 -93c81 0 144 34 157 117l65 408h129l-65 -408
c-19 -121 -141 -212 -301 -212c-146 0 -236 76 -236 181c0 10 0 21 2 31zM168 468c24 0 40 17 44 40c1 3 1 6 1 9c0 18 -11 31 -32 31c-24 0 -41 -17 -45 -40c-1 -3 -1 -5 -1 -8c0 -19 12 -32 33 -32z" />
    <glyph glyph-name="uni0E9B" unicode="&#xe9b;" horiz-adv-x="695" 
d="M58 192l17 103c7 46 41 84 71 111c-50 4 -84 37 -84 85c0 6 0 11 1 17c10 62 65 102 128 102c57 0 95 -32 95 -84c0 -6 0 -12 -1 -18c-13 -84 -68 -124 -82 -213l-17 -103c-1 -8 -2 -17 -2 -24c0 -66 50 -93 123 -93c81 0 144 34 157 117l98 618h129l-98 -618
c-19 -121 -141 -212 -301 -212c-146 0 -236 76 -236 181c0 10 0 21 2 31zM168 468c24 0 40 17 44 40c1 3 1 6 1 9c0 18 -11 31 -32 31c-24 0 -41 -17 -45 -40c-1 -3 -1 -5 -1 -8c0 -19 12 -32 33 -32z" />
    <glyph glyph-name="uni0E9C" unicode="&#xe9c;" horiz-adv-x="790" 
d="M269 610c57 0 95 -32 95 -84c0 -6 0 -12 -1 -18c-10 -62 -64 -102 -127 -102c-17 0 -31 3 -44 8c2 -10 4 -21 1 -37l-39 -245c-1 -4 -1 -8 -1 -11c0 -34 30 -47 57 -47c38 0 69 25 76 67l30 189h111l-30 -189c-1 -5 -1 -10 -1 -14c0 -34 23 -53 57 -53c30 0 67 16 74 58
l42 268c2 14 8 26 15 36c-53 3 -88 36 -88 85c0 6 0 11 1 17c10 62 64 102 127 102c56 0 97 -32 97 -84c0 -5 0 -11 -1 -16c13 21 23 49 32 89l71 -9c-23 -83 -65 -129 -117 -157c-2 -11 -5 -23 -7 -38l-46 -293c-13 -79 -78 -152 -194 -152c-66 0 -109 31 -133 67
c-36 -36 -86 -67 -152 -67c-103 0 -148 57 -148 125c0 9 1 18 2 27l51 321c14 87 86 157 190 157zM246 468c24 0 40 17 44 40c1 3 1 6 1 9c0 18 -11 31 -32 31c-24 0 -41 -17 -45 -40c-1 -3 -1 -5 -1 -8c0 -19 12 -32 33 -32zM602 498c24 0 40 17 44 40c1 3 1 6 1 9
c0 18 -11 31 -32 31c-24 0 -41 -17 -45 -40c-1 -3 -1 -5 -1 -8c0 -19 12 -32 33 -32z" />
    <glyph glyph-name="uni0E9D" unicode="&#xe9d;" horiz-adv-x="765" 
d="M246 468c24 0 40 17 44 40c1 3 1 6 1 9c0 18 -11 31 -32 31c-24 0 -41 -17 -45 -40c-1 -3 -1 -5 -1 -8c0 -19 12 -32 33 -32zM269 610c57 0 95 -32 95 -84c0 -6 0 -12 -1 -18c-10 -62 -64 -102 -127 -102c-17 0 -31 3 -44 8c2 -10 4 -21 1 -37l-39 -245
c-1 -4 -1 -8 -1 -11c0 -34 30 -47 57 -47c38 0 69 25 76 67l30 189h111l-30 -189c-1 -5 -1 -10 -1 -14c0 -34 23 -53 57 -53c30 0 67 16 74 58l107 678h126l-107 -678c-13 -79 -78 -152 -194 -152c-66 0 -109 31 -133 67c-36 -36 -86 -67 -152 -67c-103 0 -148 57 -148 125
c0 9 1 18 2 27l51 321c14 87 86 157 190 157z" />
    <glyph glyph-name="uni0E9E" unicode="&#xe9e;" horiz-adv-x="760" 
d="M168 468c24 0 40 17 44 40c1 3 1 6 1 9c0 18 -11 31 -32 31c-24 0 -41 -17 -45 -40c-1 -3 -1 -5 -1 -8c0 -19 12 -32 33 -32zM339 49c-35 -37 -85 -69 -149 -69c-98 0 -143 56 -143 124c0 9 1 18 2 27l26 164c7 46 41 84 71 111c-50 4 -84 37 -84 85c0 6 0 11 1 17
c10 62 65 102 128 102c57 0 95 -32 95 -84c0 -6 0 -12 -1 -18c-13 -84 -71 -124 -85 -213l-26 -164c-1 -4 -1 -8 -1 -12c0 -33 27 -45 52 -45c34 0 64 24 71 66l31 190h111l-29 -190c-1 -5 -1 -10 -1 -14c0 -33 22 -52 52 -52c28 0 62 15 69 57l74 469h125l-74 -469
c-13 -79 -78 -151 -189 -151c-64 0 -103 32 -126 69z" />
    <glyph glyph-name="uni0E9F" unicode="&#xe9f;" horiz-adv-x="765" 
d="M168 468c24 0 40 17 44 40c1 3 1 6 1 9c0 18 -11 31 -32 31c-24 0 -41 -17 -45 -40c-1 -3 -1 -5 -1 -8c0 -19 12 -32 33 -32zM339 49c-35 -37 -85 -69 -149 -69c-98 0 -143 56 -143 124c0 9 1 18 2 27l26 164c7 46 41 84 71 111c-50 4 -84 37 -84 85c0 6 0 11 1 17
c10 62 65 102 128 102c57 0 95 -32 95 -84c0 -6 0 -12 -1 -18c-13 -84 -71 -124 -85 -213l-26 -164c-1 -4 -1 -8 -1 -12c0 -33 27 -45 52 -45c34 0 64 24 71 66l31 190h111l-29 -190c-1 -5 -1 -10 -1 -14c0 -33 22 -52 52 -52c28 0 62 15 69 57l107 679h125l-107 -679
c-13 -79 -78 -151 -189 -151c-64 0 -103 32 -126 69z" />
    <glyph glyph-name="uni0EA1" unicode="&#xea1;" horiz-adv-x="670" 
d="M111 132c-24 0 -40 -17 -44 -40c-1 -3 -1 -6 -1 -9c0 -18 11 -31 32 -31c24 0 41 17 45 40c1 3 1 5 1 8c0 19 -12 32 -33 32zM212 167c43 -35 86 -87 144 -87c42 0 78 27 91 109l65 411h128l-65 -411c-16 -104 -85 -204 -205 -204c-76 0 -124 45 -159 88
c-17 -51 -67 -83 -123 -83c-57 0 -95 32 -95 84c0 6 0 12 1 18c9 54 51 91 103 100c-5 10 -8 21 -8 34c0 5 0 9 1 14l57 360h128l-62 -390c-2 -8 -2 -16 -2 -23s1 -14 1 -20z" />
    <glyph glyph-name="uni0EA2" unicode="&#xea2;" horiz-adv-x="675" 
d="M25 171c10 64 62 103 122 122c-47 24 -79 70 -79 131c0 9 0 19 2 29c14 87 86 157 190 157c57 0 95 -32 95 -84c0 -6 0 -12 -1 -18c-10 -62 -64 -102 -127 -102c-26 0 -48 7 -64 19c3 -64 53 -92 158 -92l-12 -75c-94 0 -151 -31 -159 -82c-1 -6 -1 -12 -1 -17
c0 -56 50 -84 133 -84c91 0 152 35 165 118l97 617h127l-97 -617c-19 -121 -136 -213 -307 -213c-158 0 -244 78 -244 168c0 8 1 15 2 23zM237 468c24 0 40 17 44 40c1 3 1 6 1 9c0 18 -11 31 -32 31c-24 0 -41 -17 -45 -40c-1 -3 -1 -5 -1 -8c0 -19 12 -32 33 -32z" />
    <glyph glyph-name="uni0EA3" unicode="&#xea3;" horiz-adv-x="610" 
d="M134 190c-24 0 -40 -17 -44 -40c-1 -3 -1 -6 -1 -9c0 -18 11 -31 32 -31c24 0 41 17 45 40c1 3 1 5 1 8c0 19 -12 32 -33 32zM144 252c57 0 96 -32 96 -84c0 -6 0 -12 -1 -18c-5 -34 -25 -61 -51 -79c18 -3 39 -5 67 -5c68 0 134 30 145 97c1 4 1 8 1 11
c0 44 -45 62 -74 75c-36 17 -105 48 -143 65c-27 12 -119 47 -119 132c0 6 1 13 2 20c13 82 120 154 277 154c154 0 232 -88 239 -147l-123 -16c-3 26 -36 72 -130 72c-99 0 -135 -33 -139 -59c0 -3 -1 -6 -1 -8c0 -30 33 -44 70 -61c38 -17 104 -46 144 -65
c47 -22 122 -58 122 -146c0 -8 -1 -18 -2 -27c-17 -106 -132 -183 -282 -183c-139 0 -227 66 -227 150c0 7 1 13 2 20c10 62 64 102 127 102z" />
    </font>
</defs>
</svg>
