<?xml version="1.0" standalone="no"?>
<!DOCTYPE svg PUBLIC "-//W3C//DTD SVG 1.1//EN" "http://www.w3.org/Graphics/SVG/1.1/DTD/svg11.dtd" >
<svg xmlns="http://www.w3.org/2000/svg" xmlns:xlink="http://www.w3.org/1999/xlink" version="1.1">
<metadata>
Created by FontForge 20151104 at Tue Dec  1 20:22:19 2015
 By sungsit
Copyright 2013-2015, Sungsit Sawaiwan (https://fontuni.com | uni@fontuni.com). This Font Software is licensed under the SIL Open Font License, Version 1.1 (http://scripts.sil.org/OFL).
</metadata>
<defs>
<font id="Boon-700" horiz-adv-x="0" >
  <font-face 
    font-family="Boon"
    font-weight="700"
    font-stretch="normal"
    units-per-em="1200"
    panose-1="2 0 5 3 0 0 0 0 0 0"
    ascent="960"
    descent="-240"
    x-height="600"
    cap-height="780"
    bbox="-670 -520 1125 1240"
    underline-thickness="60"
    underline-position="-120"
    stemh="120"
    stemv="160"
    unicode-range="U+0009-FEFF"
  />
<missing-glyph horiz-adv-x="660" 
d="M80 0v600h250h250v-600h-250h-250zM330 120h100v360h-100h-100v-360h100z" />
    <glyph glyph-name="uni0EDC" unicode="&#xeab;&#xe99;" horiz-adv-x="1120" 
d="M530 75c36 5 65 21 65 63v272c0 64 -8 85 -30 85c-15 0 -31 -13 -41 -28c-13 -42 -42 -68 -42 -107v-211c0 -85 -62 -165 -195 -165c-138 0 -203 80 -203 165v151c0 41 24 77 48 103c-53 8 -92 46 -92 103c0 65 50 105 115 105s115 -40 115 -105c0 -75 -41 -118 -41 -206
v-156c0 -52 28 -60 58 -60c34 0 65 8 65 60v186c0 27 18 53 37 73c-52 9 -89 47 -89 103c0 65 50 105 115 105c47 0 86 -21 104 -57c26 29 62 57 101 57c95 0 120 -89 120 -180v-215c26 -72 61 -122 115 -122c23 0 55 11 55 90v416h150v-406c0 -104 -43 -210 -165 -210
c-84 0 -134 41 -168 96c-35 -75 -128 -94 -167 -96zM186 506c0 19 -11 33 -31 33s-31 -14 -31 -33s11 -33 31 -33s31 14 31 33zM446 506c0 19 -11 33 -31 33s-31 -14 -31 -33s11 -33 31 -33s31 14 31 33z" />
    <glyph glyph-name="uni0EDD" unicode="&#xeab;&#xea1;" horiz-adv-x="1120" 
d="M84 149v151c0 41 24 77 48 103c-53 8 -92 46 -92 103c0 65 50 105 115 105s115 -40 115 -105c0 -75 -41 -118 -41 -206v-156c0 -52 28 -60 58 -60c34 0 65 8 65 60v186c0 27 18 53 37 73c-52 9 -89 47 -89 103c0 65 50 105 115 105c47 0 86 -21 104 -57
c26 29 62 57 101 57c95 0 120 -89 120 -180v-221c0 -12 1 -22 2 -32c39 -34 70 -84 123 -84c32 0 45 21 45 100v406h150v-406c0 -104 -38 -210 -160 -210c-74 0 -117 44 -150 87c-10 -51 -56 -82 -113 -82c-65 0 -115 40 -115 105c0 55 36 92 86 102c-8 12 -13 26 -13 44
v170c0 64 -8 85 -30 85c-15 0 -31 -13 -41 -28c-13 -42 -42 -68 -42 -107v-211c0 -85 -62 -165 -195 -165c-138 0 -203 80 -203 165zM186 506c0 19 -11 33 -31 33s-31 -14 -31 -33s11 -33 31 -33s31 14 31 33zM446 506c0 19 -11 33 -31 33s-31 -14 -31 -33s11 -33 31 -33
s31 14 31 33zM668 94c0 19 -11 33 -31 33s-31 -14 -31 -33s11 -33 31 -33s31 14 31 33z" />
    <glyph glyph-name="ellipsis" unicode="&#x2e;&#x200d;&#x2e;&#x200d;&#x2e;" horiz-adv-x="870" 
d="M610 82c0 54 41 88 95 88s95 -34 95 -88s-41 -88 -95 -88s-95 34 -95 88zM340 82c0 54 41 88 95 88s95 -34 95 -88s-41 -88 -95 -88s-95 34 -95 88zM70 82c0 54 41 88 95 88s95 -34 95 -88s-41 -88 -95 -88s-95 34 -95 88z" />
    <glyph glyph-name="uni0E4F.extra" unicode="&#xe4f;&#x200d;&#x2e;&#x200d;&#x2e;" horiz-adv-x="660" 
d="M370 900h120l-20 -270h-80zM170 900h120l-20 -270h-80zM299 300c0 -19 11 -33 31 -33s31 14 31 33s-11 33 -31 33s-31 -14 -31 -33zM215 300c0 65 50 105 115 105s115 -40 115 -105s-50 -105 -115 -105s-115 40 -115 105zM330 40c-172 0 -275 118 -275 260
s103 260 275 260s275 -118 275 -260s-103 -260 -275 -260zM330 120c102 0 175 66 175 180s-73 180 -175 180s-175 -66 -175 -180s73 -180 175 -180z" />
    <glyph glyph-name="uni0E240E45.liga" unicode="&#xe24;&#x200d;&#xe45;" horiz-adv-x="950" 
d="M680 615c135 0 205 -89 205 -185v-640h-150v640c0 64 -33 75 -60 75c-50 0 -71 -45 -81 -93c1 -7 1 -14 1 -21v-601h-150v601c0 86 -54 120 -130 120c-57 0 -99 -24 -119 -72l129 -29l-15 -60s-19 5 -35 5c-35 0 -40 -25 -40 -50v-65c0 -18 -6 -32 -14 -44
c49 -11 84 -48 84 -102c0 -65 -50 -105 -115 -105s-115 40 -115 105c0 48 10 69 10 116v80c0 46 22 79 64 95l-114 24c15 105 106 212 280 212c90 0 162 -28 211 -73c32 38 82 67 154 67zM159 94c0 -19 11 -33 31 -33s31 14 31 33s-11 33 -31 33s-31 -14 -31 -33z" />
    <glyph glyph-name="uni0E260E45.liga" unicode="&#xe26;&#x200d;&#xe45;" horiz-adv-x="960" 
d="M181 94c0 19 -11 33 -31 33s-31 -14 -31 -33s11 -33 31 -33s31 14 31 33zM536 548c32 38 82 67 154 67c135 0 205 -89 205 -185v-640h-150v640c0 64 -33 75 -60 75c-50 0 -71 -45 -81 -94c1 -7 1 -13 1 -20v-601h-150v601c0 86 -54 120 -130 120c-57 0 -98 -24 -118 -71
l138 -30l-15 -60s-19 5 -35 5c-35 0 -40 -25 -40 -50v-65v-30c0 -47 10 -68 10 -116c0 -65 -50 -105 -115 -105s-115 40 -115 105c0 54 35 91 84 102c-8 12 -14 26 -14 44v50c0 46 21 78 63 94l-123 25c15 105 106 212 280 212c90 0 162 -28 211 -73z" />
    <glyph glyph-name="FontUni" unicode="[FontUni]" horiz-adv-x="840" 
d="M0 40v760c0 22 18 40 40 40h760c22 0 40 -18 40 -40v-760c0 -22 -18 -40 -40 -40h-128v420c0 141 -111 252 -252 252s-252 -111 -252 -252s111 -252 252 -252c18 0 36 2 52 5v-173h-432c-22 0 -40 18 -40 40zM315 420c0 59 46 105 105 105s105 -46 105 -105
s-46 -105 -105 -105s-105 46 -105 105z" />
    <glyph glyph-name=".notdef" horiz-adv-x="660" 
d="M80 0v600h250h250v-600h-250h-250zM330 120h100v360h-100h-100v-360h100z" />
    <glyph glyph-name="uni0000" 
 />
    <glyph glyph-name="uni0000" 
 />
    <glyph glyph-name="uni0009" unicode="&#x9;" horiz-adv-x="330" 
 />
    <glyph glyph-name="nonmarkingreturn" unicode="&#xd;" horiz-adv-x="330" 
 />
    <glyph glyph-name="space" unicode=" " horiz-adv-x="330" 
 />
    <glyph glyph-name="exclam" unicode="!" horiz-adv-x="330" 
d="M110 270l-40 540h190l-40 -540h-110zM70 82c0 54 41 88 95 88s95 -34 95 -88s-41 -88 -95 -88s-95 34 -95 88z" />
    <glyph glyph-name="quotedbl" unicode="&#x22;" horiz-adv-x="540" 
d="M455 900l-25 -360h-100l-25 360h150zM235 900l-25 -360h-100l-25 360h150z" />
    <glyph glyph-name="numbersign" unicode="#" horiz-adv-x="810" 
d="M30 190v110h146l48 180h-134v110h164l51 190h130l-51 -190h150l51 190h130l-51 -190h116v-110h-146l-48 -180h134v-110h-164l-51 -190h-130l51 190h-150l-51 -190h-130l51 190h-116zM354 480l-48 -180h150l48 180h-150z" />
    <glyph glyph-name="dollar" unicode="$" horiz-adv-x="660" 
d="M45 191l165 10c9 -59 60 -96 121 -96c70 0 119 27 119 105c0 68 -55 89 -75 96c-51 16 -120 45 -168 64c-70 29 -145 94 -145 204c0 101 71 198 213 218v108h120v-109c142 -25 194 -135 204 -197l-165 -12c-9 61 -49 93 -103 93c-47 0 -104 -25 -104 -101
c0 -56 49 -75 80 -88c48 -19 114 -45 154 -58c83 -27 154 -92 154 -218c0 -101 -71 -200 -220 -222v-108h-120v108c-159 22 -220 135 -230 203z" />
    <glyph glyph-name="percent" unicode="%" horiz-adv-x="780" 
d="M615 68c21 0 45 28 45 118v19c0 90 -24 117 -45 117s-45 -27 -45 -117v-19c0 -90 24 -118 45 -118zM615 401c126 0 147 -119 147 -196v-19c0 -77 -21 -197 -147 -197s-147 120 -147 197v19c0 77 21 196 147 196zM165 458c21 0 45 28 45 118v19c0 90 -24 117 -45 117
s-45 -27 -45 -117v-19c0 -90 24 -118 45 -118zM165 791c126 0 147 -119 147 -196v-19c0 -77 -21 -197 -147 -197s-147 120 -147 197v19c0 77 21 196 147 196zM60 0v8l560 772h100v-8l-560 -772h-100z" />
    <glyph glyph-name="ampersand" unicode="&#x26;" horiz-adv-x="810" 
d="M805 8v-8h-185s-24 26 -59 64c-70 -52 -156 -85 -251 -85c-179 0 -260 96 -260 201c0 109 89 186 186 248c-40 56 -76 124 -76 187c0 121 89 186 200 186c136 0 195 -86 195 -163c0 -84 -49 -166 -134 -226c37 -39 91 -97 147 -156c24 48 38 104 42 164l140 -20
c-6 -84 -40 -168 -92 -239c81 -84 147 -153 147 -153zM310 338c-74 -59 -95 -113 -95 -158c0 -57 39 -79 95 -79c70 0 126 18 170 50c-59 64 -124 136 -170 187zM360 695c-41 0 -55 -40 -55 -84c0 -34 16 -73 41 -110c49 46 69 101 69 137c0 41 -26 57 -55 57z" />
    <glyph glyph-name="quotesingle" unicode="'" horiz-adv-x="330" 
d="M240 900l-25 -360h-100l-25 360h150z" />
    <glyph glyph-name="parenleft" unicode="(" horiz-adv-x="390" 
d="M50 390c0 222 79 396 185 525l100 -40c-90 -119 -140 -277 -140 -485s50 -366 140 -485l-100 -40c-106 129 -185 303 -185 525z" />
    <glyph glyph-name="parenright" unicode=")" horiz-adv-x="390" 
d="M340 390c0 -222 -79 -396 -185 -525l-100 40c90 119 140 277 140 485s-50 366 -140 485l100 40c106 -129 185 -303 185 -525z" />
    <glyph glyph-name="asterisk" unicode="*" horiz-adv-x="570" 
d="M35 668l43 133l167 -86l-30 185h140l-30 -185l167 86l43 -133l-185 -29l133 -132l-113 -82l-85 167l-85 -167l-113 82l133 132z" />
    <glyph glyph-name="plus" unicode="+" horiz-adv-x="600" 
d="M75 415h150v155h150v-155h150v-110h-150v-155h-150v155h-150v110z" />
    <glyph glyph-name="comma" unicode="," horiz-adv-x="330" 
d="M70 78c0 53 35 92 95 92c79 0 110 -65 110 -125c0 -123 -84 -211 -157 -255l-48 64c44 27 82 72 95 140h-5c-51 0 -90 32 -90 84z" />
    <glyph glyph-name="hyphen" unicode="-" horiz-adv-x="600" 
d="M75 420h450v-120h-450v120z" />
    <glyph glyph-name="period" unicode="." horiz-adv-x="330" 
d="M70 82c0 54 41 88 95 88s95 -34 95 -88s-41 -88 -95 -88s-95 34 -95 88z" />
    <glyph glyph-name="slash" unicode="/" horiz-adv-x="510" 
d="M165 0h-145v8l325 772h145v-8z" />
    <glyph glyph-name="zero" unicode="0" horiz-adv-x="660" 
d="M45 370v40c0 160 42 391 285 391s285 -231 285 -391v-40c0 -160 -42 -391 -285 -391s-285 231 -285 391zM330 101c60 0 119 81 119 269v40c0 188 -59 269 -119 269s-119 -81 -119 -269v-40c0 -188 59 -269 119 -269z" />
    <glyph glyph-name="one" unicode="1" horiz-adv-x="660" 
d="M80 630l265 156l119 -12v-644h141v-130h-485v130h180v475l-150 -93z" />
    <glyph glyph-name="two" unicode="2" horiz-adv-x="660" 
d="M55 60c0 177 149 283 257 352c75 48 126 92 126 158c0 61 -27 109 -105 109c-51 0 -92 -42 -102 -92l-171 16c14 71 88 198 270 198c236 0 270 -167 270 -231c0 -130 -112 -214 -185 -262c-90 -59 -153 -110 -175 -178h365v-130h-541s-9 25 -9 60z" />
    <glyph glyph-name="three" unicode="3" horiz-adv-x="660" 
d="M35 603c14 71 88 198 270 198c236 0 270 -167 270 -231c0 -81 -43 -133 -93 -168c92 -38 118 -117 118 -172c0 -81 -43 -251 -297 -251c-190 0 -262 113 -278 158l164 30c10 -27 36 -68 114 -68c98 0 128 59 128 121c0 67 -34 105 -120 105h-116v120h100
c75 0 118 53 118 125c0 61 -27 109 -105 109c-51 0 -92 -42 -102 -92z" />
    <glyph glyph-name="four" unicode="4" horiz-adv-x="660" 
d="M360 180h-333l-12 80l365 526l140 -12v-474h125v-120h-125v-180h-160v180zM365 300v260l-175 -260h175z" />
    <glyph glyph-name="five" unicode="5" horiz-adv-x="660" 
d="M45 137l164 30c10 -27 36 -68 114 -68c98 0 128 69 128 141c0 77 -27 141 -113 141c-58 0 -104 -45 -136 -91l-1 1v-1l-120 64l15 426h477v-120h-322l-7 -196c32 18 73 32 127 32c208 0 249 -177 249 -246c0 -84 -43 -271 -297 -271c-190 0 -262 113 -278 158z" />
    <glyph glyph-name="six" unicode="6" horiz-adv-x="660" 
d="M65 301v133c0 115 19 367 279 367c188 0 244 -127 257 -169l-162 -26c-11 36 -35 73 -95 73c-74 0 -109 -80 -113 -220c36 23 82 36 137 36c165 0 252 -120 252 -255c0 -133 -90 -261 -276 -261c-194 0 -279 135 -279 322zM455 240c0 105 -55 141 -117 141
c-49 0 -93 -29 -107 -101c5 -159 69 -179 113 -179c54 0 111 32 111 139z" />
    <glyph glyph-name="seven" unicode="7" horiz-adv-x="660" 
d="M50 650v130h538l12 -91c-102 -135 -232 -398 -232 -629v-60h-175v60c0 201 111 425 212 590h-355z" />
    <glyph glyph-name="eight" unicode="8" horiz-adv-x="660" 
d="M330 -21c-182 0 -295 107 -295 231c0 113 89 164 149 191c-59 31 -114 83 -114 173c0 119 96 227 260 227s260 -108 260 -227c0 -90 -55 -142 -114 -173c60 -27 149 -78 149 -191c0 -124 -113 -231 -295 -231zM330 99c76 0 125 35 125 111c0 71 -41 98 -81 115
c-11 5 -27 11 -44 18c-17 -7 -33 -13 -44 -18c-40 -17 -81 -44 -81 -115c0 -76 49 -111 125 -111zM330 681c-44 0 -95 -26 -95 -107c0 -61 35 -92 64 -104c9 -3 19 -8 31 -12c12 4 22 9 31 12c29 12 64 43 64 104c0 81 -51 107 -95 107z" />
    <glyph glyph-name="nine" unicode="9" horiz-adv-x="660" 
d="M595 479v-133c0 -115 -19 -367 -279 -367c-188 0 -244 127 -257 169l162 26c11 -36 35 -73 95 -73c74 0 109 80 113 220c-36 -23 -82 -36 -137 -36c-165 0 -252 120 -252 255c0 133 90 261 276 261c194 0 279 -135 279 -322zM205 540c0 -105 55 -141 117 -141
c49 0 93 29 107 101c-5 159 -69 179 -113 179c-54 0 -111 -32 -111 -139z" />
    <glyph glyph-name="colon" unicode=":" horiz-adv-x="330" 
d="M70 502c0 54 41 88 95 88s95 -34 95 -88s-41 -88 -95 -88s-95 34 -95 88zM70 82c0 54 41 88 95 88s95 -34 95 -88s-41 -88 -95 -88s-95 34 -95 88z" />
    <glyph glyph-name="semicolon" unicode=";" horiz-adv-x="330" 
d="M70 502c0 54 41 88 95 88s95 -34 95 -88s-41 -88 -95 -88s-95 34 -95 88zM70 78c0 53 35 92 95 92c79 0 110 -65 110 -125c0 -123 -84 -211 -157 -255l-48 64c44 27 82 72 95 140h-5c-51 0 -90 32 -90 84z" />
    <glyph glyph-name="less" unicode="&#x3c;" horiz-adv-x="600" 
d="M75 315v45v45l420 255l30 -125l-300 -175l300 -175l-30 -125z" />
    <glyph glyph-name="equal" unicode="=" horiz-adv-x="600" 
d="M75 300h450v-115h-450v115zM75 535h450v-115h-450v115z" />
    <glyph glyph-name="greater" unicode="&#x3e;" horiz-adv-x="600" 
d="M525 405v-45v-45l-420 -255l-30 125l300 175l-300 175l30 125z" />
    <glyph glyph-name="question" unicode="?" horiz-adv-x="570" 
d="M40 640c0 104 92 191 245 191c147 0 235 -82 235 -201c0 -163 -190 -199 -190 -300c0 -18 4 -32 10 -45l-130 -15c-13 22 -20 45 -20 70c0 154 160 170 160 285c0 70 -41 83 -70 83c-39 0 -70 -19 -70 -68c0 -17 3 -35 10 -50l-160 -40c-13 29 -20 60 -20 90zM190 82
c0 54 41 88 95 88s95 -34 95 -88s-41 -88 -95 -88s-95 34 -95 88z" />
    <glyph glyph-name="at" unicode="@" horiz-adv-x="1020" 
d="M70 238c0 251 173 542 488 542c263 0 392 -185 392 -385c0 -161 -93 -364 -252 -364c-57 0 -86 26 -100 57c-33 -37 -76 -63 -128 -63c-149 0 -195 116 -195 205c0 133 92 337 303 337c104 0 139 -79 139 -136c0 -45 -23 -137 -23 -139c-10 -60 -16 -105 -16 -135
s6 -46 20 -46c63 0 162 129 162 284c0 172 -99 305 -302 305c-241 0 -398 -233 -398 -462c0 -189 104 -348 342 -348c64 0 145 34 169 48l50 -66c-36 -22 -125 -62 -219 -62c-302 0 -432 213 -432 428zM470 115c61 0 96 65 116 193c0 1 21 97 21 123c0 41 -18 46 -29 46
c-87 0 -183 -120 -183 -247c0 -83 40 -115 75 -115z" />
    <glyph glyph-name="A" unicode="A" horiz-adv-x="750" 
d="M750 0h-190l-49 150h-272l-49 -150h-190v11l305 769h140l305 -769v-11zM472 270l-97 296l-97 -296h194z" />
    <glyph glyph-name="B" unicode="B" horiz-adv-x="745" 
d="M541 440c102 -34 164 -103 164 -205c0 -150 -135 -244 -335 -244c-138 0 -295 9 -295 9v780s146 9 270 9c156 0 285 -72 285 -199c0 -71 -37 -119 -89 -150zM370 464c45 6 95 38 95 111c0 68 -52 95 -140 95c-39 0 -77 -2 -90 -3v-205c41 1 88 2 135 2zM235 115
c31 -2 76 -4 115 -4c102 0 189 25 189 124s-87 119 -189 119c-39 0 -84 -2 -115 -4v-235z" />
    <glyph glyph-name="C" unicode="C" horiz-adv-x="755" 
d="M45 375v30c0 175 78 396 367 396c212 0 303 -137 318 -219l-174 -16c-9 50 -58 107 -144 107c-117 0 -189 -91 -189 -268v-30c0 -177 72 -268 189 -268c86 0 135 57 144 107l174 -16c-15 -82 -106 -219 -318 -219c-289 0 -367 221 -367 396z" />
    <glyph glyph-name="D" unicode="D" horiz-adv-x="770" 
d="M245 114c19 0 39 -1 55 -1c185 0 255 102 255 267v20c0 165 -70 267 -255 267c-16 0 -36 -1 -55 -1v-552zM75 780c0 0 112 9 225 9c321 0 425 -206 425 -389v-20c0 -183 -104 -389 -425 -389c-113 0 -225 9 -225 9v780z" />
    <glyph glyph-name="E" unicode="E" horiz-adv-x="675" 
d="M75 0v780h545v-130h-375v-205h335v-120h-335v-195h390v-130h-560z" />
    <glyph glyph-name="F" unicode="F" horiz-adv-x="640" 
d="M75 0v780h535v-130h-363v-200h323v-130h-323v-320h-172z" />
    <glyph glyph-name="G" unicode="G" horiz-adv-x="770" 
d="M415 285v120h310v-270c-41 -69 -139 -156 -313 -156c-289 0 -367 221 -367 396v30c0 175 78 396 367 396c212 0 303 -137 318 -219l-172 -16c-9 50 -58 109 -146 109c-121 0 -193 -89 -193 -270v-30c0 -181 72 -270 193 -270c86 0 132 26 158 55v125h-155z" />
    <glyph glyph-name="H" unicode="H" horiz-adv-x="790" 
d="M75 0v780h170v-325h300v325h170v-780h-170v325h-300v-325h-170z" />
    <glyph glyph-name="I" unicode="I" horiz-adv-x="320" 
d="M75 0v780h170v-780h-170z" />
    <glyph glyph-name="J" unicode="J" horiz-adv-x="520" 
d="M5 143l170 12c7 -46 29 -56 50 -56c20 0 50 7 50 70v611h170v-611c0 -97 -76 -190 -220 -190c-143 0 -209 90 -220 164z" />
    <glyph glyph-name="K" unicode="K" horiz-adv-x="715" 
d="M75 0v780h164v-313l266 313l190 -13v-8l-303 -314l333 -437v-8h-199l-243 332l-44 -45v-287h-164z" />
    <glyph glyph-name="L" unicode="L" horiz-adv-x="570" 
d="M75 0v780h172v-650h313v-130h-485z" />
    <glyph glyph-name="M" unicode="M" horiz-adv-x="880" 
d="M805 0h-168v466l-157 -271h-80l-157 271v-466h-168v765l140 15l225 -412l225 412l140 -15v-765z" />
    <glyph glyph-name="N" unicode="N" horiz-adv-x="790" 
d="M75 0v765l145 15l329 -507v507h166v-780h-145l-329 507v-507h-166z" />
    <glyph glyph-name="O" unicode="O" horiz-adv-x="820" 
d="M45 373v34c0 174 76 394 365 394s365 -220 365 -394v-34c0 -174 -76 -394 -365 -394s-365 220 -365 394zM410 104c121 0 191 93 191 269v34c0 176 -70 269 -191 269s-191 -93 -191 -269v-34c0 -176 70 -269 191 -269z" />
    <glyph glyph-name="P" unicode="P" horiz-adv-x="710" 
d="M243 424c24 -1 55 -3 87 -3c102 0 187 25 187 124s-85 124 -187 124c-32 0 -63 -2 -87 -3v-242zM243 303v-303h-168v310v470s137 9 275 9c200 0 335 -94 335 -244s-135 -244 -335 -244c-37 0 -73 1 -107 2z" />
    <glyph glyph-name="Q" unicode="Q" horiz-adv-x="820" 
d="M375 250l65 85l139 -108c14 39 22 88 22 146v34c0 176 -70 269 -191 269s-191 -93 -191 -269v-34c0 -176 70 -269 191 -269c41 0 77 11 106 32zM45 373v34c0 174 76 394 365 394s365 -220 365 -394v-34c0 -81 -17 -173 -64 -247l99 -77l-70 -94l-108 87
c-54 -39 -126 -63 -222 -63c-289 0 -365 220 -365 394z" />
    <glyph glyph-name="R" unicode="R" horiz-adv-x="730" 
d="M280 302c-12 0 -25 1 -37 1v-303h-168v310v470s137 9 275 9c200 0 335 -94 335 -244c0 -120 -86 -204 -223 -233l253 -304v-8h-192zM243 424c24 -1 55 -3 87 -3c102 0 187 25 187 124s-85 124 -187 124c-32 0 -63 -2 -87 -3v-242z" />
    <glyph glyph-name="S" unicode="S" horiz-adv-x="710" 
d="M40 184l168 24c9 -52 58 -107 147 -107c99 0 150 38 150 106c0 63 -46 81 -77 90c-56 15 -141 43 -198 63c-73 27 -173 88 -173 209c0 132 121 232 298 232c189 0 280 -123 295 -201l-168 -24c-9 52 -56 103 -127 103c-81 0 -133 -40 -133 -102c0 -50 40 -65 82 -81
c52 -18 135 -44 184 -59c87 -27 182 -90 182 -222c0 -133 -120 -236 -315 -236c-205 0 -300 125 -315 205z" />
    <glyph glyph-name="T" unicode="T" horiz-adv-x="620" 
d="M15 655v125h590v-125h-210v-655h-170v655h-210z" />
    <glyph glyph-name="U" unicode="U" horiz-adv-x="770" 
d="M65 246v534h172v-534c0 -103 65 -143 148 -143s148 40 148 143v534h172v-534c0 -147 -123 -267 -320 -267s-320 120 -320 267z" />
    <glyph glyph-name="V" unicode="V" horiz-adv-x="750" 
d="M5 754v11l200 15l170 -552l170 552l200 -15v-11l-300 -754h-140z" />
    <glyph glyph-name="W" unicode="W" horiz-adv-x="1060" 
d="M10 754v10l185 16l126 -533l139 513h140l139 -513l126 533l185 -16v-10l-225 -754h-145l-150 518l-150 -518h-145z" />
    <glyph glyph-name="X" unicode="X" horiz-adv-x="740" 
d="M40 754v10l188 16l142 -254l142 254l188 -16v-10l-235 -340l285 -406v-8h-197l-183 274l-183 -274h-197v8l285 406z" />
    <glyph glyph-name="Y" unicode="Y" horiz-adv-x="670" 
d="M-5 754v11l190 15l150 -330l150 330l190 -15v-11l-255 -464v-290h-170v290z" />
    <glyph glyph-name="Z" unicode="Z" horiz-adv-x="670" 
d="M20 96l393 554h-363v130h577l12 -96l-391 -554h402v-130h-618z" />
    <glyph glyph-name="bracketleft" unicode="[" horiz-adv-x="435" 
d="M105 -120v1020h255v-95h-120v-830h118v-95h-253z" />
    <glyph glyph-name="backslash" unicode="\" horiz-adv-x="510" 
d="M355 0l-325 772v8h125l325 -772v-8h-125z" />
    <glyph glyph-name="bracketright" unicode="]" horiz-adv-x="435" 
d="M330 900v-1020h-255v95h120v830h-118v95h253z" />
    <glyph glyph-name="asciicircum" unicode="^" horiz-adv-x="630" 
d="M15 595l270 305h60l270 -305l-80 -55l-220 192l-220 -192z" />
    <glyph glyph-name="underscore" unicode="_" horiz-adv-x="600" 
d="M0 0h600v-120h-600v120z" />
    <glyph glyph-name="grave" unicode="`" horiz-adv-x="390" 
d="M375 595l-80 -55l-310 271l120 89z" />
    <glyph glyph-name="a" unicode="a" horiz-adv-x="625" 
d="M40 174c0 75 63 156 213 156c52 0 103 -3 147 -7v89c0 74 -47 95 -100 95c-47 0 -86 -26 -95 -92l-160 12c13 92 92 194 255 194c157 0 255 -93 255 -209v-257c0 -46 8 -62 55 -68l-40 -103c-36 5 -99 18 -129 72c-36 -41 -90 -72 -171 -72c-146 0 -230 76 -230 190z
M408 230c-41 5 -95 9 -146 9c-28 0 -67 -17 -67 -67c0 -71 50 -93 95 -93c77 0 108 56 118 124v27z" />
    <glyph glyph-name="b" unicode="b" horiz-adv-x="675" 
d="M206 0h-136v810h155v-271c37 45 88 77 155 77c189 0 255 -176 255 -306v-20c0 -130 -66 -306 -255 -306c-73 0 -126 38 -164 89zM225 364v-128c18 -79 64 -136 135 -136c65 0 115 53 115 190v20c0 137 -50 190 -115 190c-71 0 -117 -57 -135 -136z" />
    <glyph glyph-name="c" unicode="c" horiz-adv-x="605" 
d="M424 168l161 -14c-11 -64 -82 -175 -255 -175c-236 0 -290 179 -290 309v24c0 130 54 309 290 309c173 0 244 -111 255 -175l-161 -14c-7 36 -43 73 -94 73c-70 0 -126 -59 -126 -193v-24c0 -134 56 -193 126 -193c51 0 87 37 94 73z" />
    <glyph glyph-name="d" unicode="d" horiz-adv-x="680" 
d="M40 290v20c0 130 66 306 255 306c67 0 118 -32 155 -77v271h155v-655c0 -46 8 -62 55 -68l-40 -103c-44 6 -130 25 -143 116c-38 -64 -97 -116 -182 -116c-189 0 -255 176 -255 306zM450 364c-18 79 -64 136 -135 136c-65 0 -115 -53 -115 -190v-20
c0 -137 50 -190 115 -190c71 0 117 57 135 136v128z" />
    <glyph glyph-name="e" unicode="e" horiz-adv-x="640" 
d="M40 287v26c0 131 60 308 288 308c186 0 272 -136 272 -264c0 -31 -4 -62 -10 -92h-393c6 -118 58 -174 131 -174c59 0 97 40 103 76l154 -14c-12 -66 -86 -174 -257 -174c-233 0 -288 177 -288 308zM199 365h251c-2 107 -57 144 -122 144c-66 0 -116 -47 -129 -144z" />
    <glyph glyph-name="f" unicode="f" horiz-adv-x="400" 
d="M20 500v100h80v67c0 58 37 164 183 164c84 0 138 -40 152 -51l-66 -85c-12 8 -41 26 -74 26c-24 0 -40 -20 -40 -54v-67h135v-100h-130v-500h-160v500h-80z" />
    <glyph glyph-name="g" unicode="g" horiz-adv-x="670" 
d="M40 315c0 125 66 301 255 301c73 0 126 -38 164 -89l10 73h136v-615c0 -120 -100 -216 -258 -216c-154 0 -235 72 -252 114l148 42c7 -16 38 -47 104 -47c63 0 108 29 108 107v113c-37 -48 -90 -84 -160 -84c-189 0 -255 176 -255 301zM450 364c-18 79 -64 136 -135 136
c-65 0 -115 -53 -115 -185s50 -185 115 -185c71 0 117 57 135 136v98z" />
    <glyph glyph-name="h" unicode="h" horiz-adv-x="665" 
d="M70 0v810h155v-328c42 73 109 134 210 134c122 0 175 -106 175 -210v-406h-160v400c0 79 -37 90 -60 90c-67 0 -140 -87 -160 -187v-303h-160z" />
    <glyph glyph-name="i" unicode="i" horiz-adv-x="300" 
d="M55 780c0 54 41 88 95 88s95 -34 95 -88s-41 -88 -95 -88s-95 34 -95 88zM70 0v600h160v-600h-160z" />
    <glyph glyph-name="j" unicode="j" horiz-adv-x="310" 
d="M65 780c0 54 41 88 95 88s95 -34 95 -88s-43 -88 -97 -88s-93 34 -93 88zM35 -226l-50 101c65 16 95 43 95 120v605h160v-615c0 -121 -101 -189 -205 -211z" />
    <glyph glyph-name="k" unicode="k" horiz-adv-x="605" 
d="M80 0v810h152v-428l188 218l175 -10v-6l-238 -243l258 -335v-6h-182l-177 238l-24 -25v-213h-152z" />
    <glyph glyph-name="l" unicode="l" horiz-adv-x="315" 
d="M70 140v670h160v-655c0 -46 23 -62 85 -68l-30 -103c-87 6 -215 30 -215 156z" />
    <glyph glyph-name="m" unicode="m" horiz-adv-x="945" 
d="M60 591l145 12l13 -97c34 62 88 110 172 110s133 -50 155 -115c34 64 88 115 175 115c122 0 170 -106 170 -210v-406h-160v400c0 79 -32 90 -55 90c-54 0 -98 -75 -115 -167v-323h-160v400c0 79 -32 90 -55 90c-54 0 -98 -75 -115 -167v-323h-160v420z" />
    <glyph glyph-name="n" unicode="n" horiz-adv-x="655" 
d="M70 0v420l-10 171l145 12l16 -119c40 72 104 132 204 132c122 0 175 -106 175 -210v-406h-160v400c0 79 -37 90 -60 90c-67 0 -131 -85 -150 -185v-305h-160z" />
    <glyph glyph-name="o" unicode="o" horiz-adv-x="660" 
d="M40 287v26c0 130 55 308 290 308s290 -178 290 -308v-26c0 -130 -55 -308 -290 -308s-290 178 -290 308zM330 93c75 0 130 60 130 194v26c0 134 -55 194 -130 194s-130 -60 -130 -194v-26c0 -134 55 -194 130 -194z" />
    <glyph glyph-name="p" unicode="p" horiz-adv-x="675" 
d="M635 290c0 -130 -66 -306 -255 -306c-64 0 -114 29 -150 71v-265h-160v630l-10 171l145 12l10 -77c38 51 92 90 165 90c189 0 255 -176 255 -306v-20zM230 217c21 -69 64 -117 130 -117c65 0 115 53 115 190v20c0 137 -50 190 -115 190c-66 0 -109 -48 -130 -117v-166z
" />
    <glyph glyph-name="q" unicode="q" horiz-adv-x="675" 
d="M469 600h136v-810h-155v271c-37 -45 -88 -77 -155 -77c-189 0 -255 176 -255 306v20c0 130 66 306 255 306c73 0 126 -38 164 -89zM450 236v128c-18 79 -64 136 -135 136c-65 0 -115 -53 -115 -190v-20c0 -137 50 -190 115 -190c71 0 117 57 135 136z" />
    <glyph glyph-name="r" unicode="r" horiz-adv-x="435" 
d="M55 588l134 15l33 -120c26 72 72 133 157 133c28 0 51 -7 71 -17l-60 -130c-11 7 -23 11 -39 11c-49 0 -87 -73 -101 -166v-314h-160v450z" />
    <glyph glyph-name="s" unicode="s" horiz-adv-x="570" 
d="M30 143l155 20c6 -39 43 -72 106 -72c61 0 97 27 97 71c0 42 -35 57 -55 63c-44 13 -105 29 -148 45c-60 22 -140 62 -140 165c0 104 95 186 240 186c158 0 228 -97 240 -161l-155 -20c-6 39 -32 69 -85 69c-52 0 -88 -26 -88 -68c0 -33 33 -48 58 -56
c41 -13 105 -31 138 -41c72 -22 147 -63 147 -176c0 -106 -98 -189 -255 -189c-169 0 -243 98 -255 164z" />
    <glyph glyph-name="t" unicode="t" horiz-adv-x="415" 
d="M20 500v100h86v123l151 12v-135h133v-100h-130v-336c0 -53 10 -66 39 -66c35 0 71 13 84 21l37 -104c-32 -16 -78 -31 -142 -31c-105 0 -178 43 -178 156v360h-80z" />
    <glyph glyph-name="u" unicode="u" horiz-adv-x="620" 
d="M50 194v406h160v-406c0 -76 46 -101 100 -101s100 25 100 101v406h160v-406c0 -116 -98 -215 -260 -215s-260 99 -260 215z" />
    <glyph glyph-name="v" unicode="v" horiz-adv-x="600" 
d="M0 580v8l175 12l125 -395l125 395l175 -12v-8l-235 -580h-130z" />
    <glyph glyph-name="w" unicode="w" horiz-adv-x="830" 
d="M825 580l-173 -580h-135l-102 362l-102 -362h-135l-173 580v8l170 12l84 -364l93 349h126l93 -349l84 364l170 -12v-8z" />
    <glyph glyph-name="x" unicode="x" horiz-adv-x="600" 
d="M35 580v8l169 12l96 -172l96 172l169 -12v-8l-178 -257l218 -317v-6h-179l-126 193l-126 -193h-179v6l218 317z" />
    <glyph glyph-name="y" unicode="y" horiz-adv-x="600" 
d="M0 580v8l175 12l127 -400l123 400l175 -12v-8l-235 -595c-50 -109 -87 -216 -227 -216c-58 0 -101 22 -128 42l75 94c15 -13 31 -26 48 -26c39 0 60 40 99 129z" />
    <glyph glyph-name="z" unicode="z" horiz-adv-x="530" 
d="M15 79l285 411h-260v110h460l9 -79l-285 -411h291v-110h-491z" />
    <glyph glyph-name="braceleft" unicode="{" horiz-adv-x="390" 
d="M30 365v25v25c46 14 95 42 95 125c0 36 -35 130 -35 190c0 87 59 170 180 170h60v-80h-40c-19 0 -60 -7 -60 -100c0 -48 30 -143 30 -195c0 -72 -34 -114 -87 -135c53 -21 87 -63 87 -135c0 -52 -30 -147 -30 -195c0 -93 41 -100 60 -100h40v-80h-60
c-121 0 -180 83 -180 170c0 60 35 154 35 190c0 83 -49 111 -95 125z" />
    <glyph glyph-name="bar" unicode="|" horiz-adv-x="360" 
d="M110 -120v1020h140v-1020h-140z" />
    <glyph glyph-name="braceright" unicode="}" horiz-adv-x="390" 
d="M360 415v-25v-25c-46 -14 -95 -42 -95 -125c0 -36 35 -130 35 -190c0 -87 -59 -170 -180 -170h-60v80h40c19 0 60 7 60 100c0 48 -30 143 -30 195c0 72 34 114 87 135c-53 21 -87 63 -87 135c0 52 30 147 30 195c0 93 -41 100 -60 100h-40v80h60c121 0 180 -83 180 -170
c0 -60 -35 -154 -35 -190c0 -83 49 -111 95 -125z" />
    <glyph glyph-name="asciitilde" unicode="~" horiz-adv-x="600" 
d="M30 315c32 94 70 190 174 190c69 0 112 -47 138 -73c30 -30 47 -42 59 -42c30 0 54 46 69 105l100 -30c-32 -94 -70 -190 -174 -190c-69 0 -112 47 -138 73c-30 30 -47 42 -59 42c-30 0 -54 -46 -69 -105z" />
    <glyph glyph-name="uni00A0" unicode="&#xa0;" horiz-adv-x="330" 
 />
    <glyph glyph-name="exclamdown" unicode="&#xa1;" horiz-adv-x="330" 
d="M220 330l40 -540h-190l40 540h110zM260 518c0 -54 -41 -88 -95 -88s-95 34 -95 88s41 88 95 88s95 -34 95 -88z" />
    <glyph glyph-name="cent" unicode="&#xa2;" horiz-adv-x="605" 
d="M40 318v24c0 119 45 279 235 305v133h120v-135c126 -24 180 -114 190 -169l-161 -14c-7 36 -43 73 -94 73c-70 0 -126 -59 -126 -193v-24c0 -134 56 -193 126 -193c51 0 87 37 94 73l161 -14c-10 -55 -64 -145 -190 -169v-135h-120v133c-190 26 -235 186 -235 305z" />
    <glyph glyph-name="sterling" unicode="&#xa3;" horiz-adv-x="660" 
d="M60 96c58 45 95 93 95 206v43h-95v90h95v108c0 43 3 258 228 258c175 0 219 -135 227 -169l-158 -18c-10 44 -30 73 -69 73c-48 0 -68 -63 -68 -144v-108h195v-90h-195v-43c0 -76 -16 -137 -47 -188h352v-114h-545z" />
    <glyph glyph-name="currency" unicode="&#xa4;" horiz-adv-x="720" 
d="M672 162l-84 -84l-90 90c-38 -20 -84 -33 -138 -33s-100 13 -138 33l-90 -90l-84 84l85 85c-28 42 -43 92 -43 143s15 101 43 143l-85 85l84 84l90 -90c38 20 84 33 138 33s100 -13 138 -33l90 90l84 -84l-85 -85c28 -42 43 -92 43 -143s-15 -101 -43 -143zM360 255
c66 0 120 43 120 135s-54 135 -120 135s-120 -43 -120 -135s54 -135 120 -135z" />
    <glyph glyph-name="yen" unicode="&#xa5;" horiz-adv-x="660" 
d="M90 150v90h155v59v1h-155v90h108l-188 364v11l190 15l130 -330l130 330l190 -15v-11l-188 -364h108v-90h-155v-1v-59h155v-90h-155v-150h-170v150h-155z" />
    <glyph glyph-name="brokenbar" unicode="&#xa6;" horiz-adv-x="360" 
d="M110 450v450h140v-450h-140zM110 -120v450h140v-450h-140z" />
    <glyph glyph-name="section" unicode="&#xa7;" horiz-adv-x="660" 
d="M86 609c0 117 92 222 255 222c174 0 243 -128 254 -202l-155 -12c-9 58 -41 104 -99 104c-56 0 -100 -35 -100 -112c0 -60 38 -79 71 -94c43 -19 105 -44 146 -58c76 -26 152 -92 152 -212c0 -48 -24 -94 -63 -133c20 -32 33 -71 33 -117c0 -119 -93 -226 -269 -226
c-184 0 -259 128 -271 206l155 12c8 -56 44 -108 116 -108s114 33 114 116c0 72 -40 90 -71 102c-46 18 -104 43 -153 64c-63 27 -145 92 -145 198c0 47 22 95 68 132c-22 30 -38 69 -38 118zM446 200c6 12 9 26 9 45c0 73 -40 92 -66 102c-46 18 -109 43 -158 64
c-2 1 -3 1 -5 2c-9 -14 -15 -31 -15 -54c0 -60 48 -79 81 -94c43 -19 97 -44 136 -58c6 -2 12 -4 18 -7z" />
    <glyph glyph-name="dieresis" unicode="&#xa8;" horiz-adv-x="510" 
d="M130 859c49 0 85 -30 85 -79s-36 -79 -85 -79s-85 30 -85 79s36 79 85 79zM380 859c49 0 85 -30 85 -79s-36 -79 -85 -79s-85 30 -85 79s36 79 85 79z" />
    <glyph glyph-name="copyright" unicode="&#xa9;" horiz-adv-x="1020" 
d="M685 498l-102 -9c-4 25 -29 49 -62 49c-46 0 -84 -39 -84 -127v-16c0 -88 38 -127 84 -127c33 0 58 24 62 49l102 -9c-8 -40 -52 -111 -164 -111c-151 0 -186 114 -186 198v16c0 84 35 198 186 198c112 0 156 -71 164 -111zM510 -20c-265 0 -435 184 -435 425
s170 425 435 425s435 -184 435 -425s-170 -425 -435 -425zM510 60c209 0 345 138 345 345s-136 345 -345 345s-345 -138 -345 -345s136 -345 345 -345z" />
    <glyph glyph-name="ordfeminine" unicode="&#xaa;" horiz-adv-x="313" 
d="M16 597c0 50 40 80 118 80c18 0 36 0 51 -1v41c0 34 -21 38 -35 38c-11 0 -31 -6 -35 -37l-97 6c6 43 44 97 132 97c84 0 132 -49 132 -104v-122c0 -23 3 -31 27 -34l-24 -60c-21 2 -51 10 -69 32c-18 -18 -44 -32 -81 -32c-79 0 -119 39 -119 96zM191 622
c-15 2 -31 3 -50 3c-18 0 -30 -11 -30 -29c0 -22 13 -39 37 -39c30 0 42 22 43 65z" />
    <glyph glyph-name="guillemotleft" unicode="&#xab;" horiz-adv-x="780" 
d="M60 330v60l305 270l55 -80l-192 -220l192 -220l-55 -80zM360 330v60l305 270l55 -80l-192 -220l192 -220l-55 -80z" />
    <glyph glyph-name="logicalnot" unicode="&#xac;" horiz-adv-x="600" 
d="M75 295v120h450v-240h-150v120h-300z" />
    <glyph glyph-name="uni00AD" unicode="&#xad;" horiz-adv-x="450" 
d="M60 420h330v-120h-330v120z" />
    <glyph glyph-name="registered" unicode="&#xae;" horiz-adv-x="870" 
d="M435 259c-215 0 -351 149 -351 341s136 341 351 341s351 -149 351 -341s-136 -341 -351 -341zM435 319c167 0 279 111 279 281s-112 281 -279 281s-279 -111 -279 -281s112 -281 279 -281zM602 673c0 -60 -44 -103 -112 -117l126 -152v-4h-107l-121 151h-2v-151h-97v155
v235s76 5 145 5c100 0 168 -47 168 -122zM505 673c0 47 -42 54 -93 54c-9 0 -18 -1 -26 -1v-107h26c51 0 93 7 93 54z" />
    <glyph glyph-name="macron" unicode="&#xaf;" horiz-adv-x="510" 
d="M45 730v100h420v-100h-420z" />
    <glyph glyph-name="degree" unicode="&#xb0;" horiz-adv-x="330" 
d="M165 649c-90 0 -140 65 -140 131s50 131 140 131s140 -65 140 -131s-50 -131 -140 -131zM165 721c25 0 50 17 50 59s-25 59 -50 59s-50 -17 -50 -59s25 -59 50 -59z" />
    <glyph glyph-name="plusminus" unicode="&#xb1;" horiz-adv-x="600" 
d="M75 168v110h450v-110h-450zM75 442v110h155v105h140v-105h155v-110h-155v-105h-140v105h-155z" />
    <glyph glyph-name="two.sups" unicode="&#xb2;" horiz-adv-x="330" 
d="M124 801l-98 9c6 34 42 101 138 101c124 0 140 -87 140 -117c0 -64 -54 -106 -84 -128c-34 -25 -72 -54 -84 -84h170v-72h-276s-6 15 -6 34c0 94 71 140 117 172c32 22 64 44 64 78c0 32 -13 48 -41 48c-20 0 -36 -15 -40 -41z" />
    <glyph glyph-name="three.sups" unicode="&#xb3;" horiz-adv-x="330" 
d="M249 712c47 -24 55 -67 55 -87c0 -36 -18 -126 -152 -126c-100 0 -135 59 -143 81l97 18c4 -12 14 -27 46 -27c38 0 52 19 52 49c0 32 -17 47 -50 47h-58v71h46c32 0 48 30 48 56c0 32 -12 48 -40 48c-20 0 -37 -15 -41 -41l-97 9c6 34 42 101 138 101
c124 0 139 -87 139 -117c0 -38 -18 -64 -40 -82z" />
    <glyph glyph-name="acute" unicode="&#xb4;" horiz-adv-x="390" 
d="M15 595l270 305l120 -89l-310 -271z" />
    <glyph glyph-name="uni00B5" unicode="&#xb5;" horiz-adv-x="665" 
d="M70 600h160v-303c20 -100 93 -187 160 -187c23 0 60 11 60 90v400h160v-406c0 -104 -53 -210 -175 -210c-101 0 -168 61 -210 134v-328h-155v810z" />
    <glyph glyph-name="paragraph" unicode="&#xb6;" horiz-adv-x="725" 
d="M290 431v228c-55 -15 -92 -48 -92 -114s37 -99 92 -114zM500 665c-16 1 -42 2 -70 3v-878h-140v516c-158 21 -260 109 -260 239c0 150 135 244 335 244c138 0 275 -9 275 -9v-990h-140v875z" />
    <glyph glyph-name="periodcentered" unicode="&#xb7;" horiz-adv-x="330" 
d="M70 360c0 54 41 88 95 88s95 -34 95 -88s-41 -88 -95 -88s-95 34 -95 88z" />
    <glyph glyph-name="cedilla" unicode="&#xb8;" horiz-adv-x="330" 
d="M40 -265c71 16 140 44 140 90c0 14 -10 25 -55 25c-12 0 -28 -3 -40 -5l-45 45l75 135h85l-58 -105c83 0 138 -29 138 -95c0 -116 -162 -148 -215 -160z" />
    <glyph glyph-name="one.sups" unicode="&#xb9;" horiz-adv-x="330" 
d="M36 825l132 78l72 -6v-315h66v-72h-250v72h86v216l-65 -42z" />
    <glyph glyph-name="ordmasculine" unicode="&#xba;" horiz-adv-x="330" 
d="M165 567c27 0 49 20 49 86v14c0 66 -22 86 -49 86s-49 -20 -49 -86v-14c0 -66 22 -86 49 -86zM165 821c122 0 149 -93 149 -154v-14c0 -61 -27 -154 -149 -154s-149 93 -149 154v14c0 61 27 154 149 154z" />
    <glyph glyph-name="guillemotright" unicode="&#xbb;" horiz-adv-x="780" 
d="M720 390v-60l-305 -270l-55 80l192 220l-192 220l55 80zM420 390v-60l-305 -270l-55 80l192 220l-192 220l55 80z" />
    <glyph glyph-name="onequarter" unicode="&#xbc;" horiz-adv-x="780" 
d="M614 85h-153l-7 50l180 258l80 -6v-232h62v-70h-62v-85h-100v85zM619 155v95l-64 -95h64zM36 705l132 78l72 -6v-315h66v-72h-250v72h86v216l-65 -42zM60 0v8l560 772h100v-8l-560 -772h-100z" />
    <glyph glyph-name="onehalf" unicode="&#xbd;" horiz-adv-x="780" 
d="M574 291l-98 9c6 34 42 101 138 101c124 0 140 -87 140 -117c0 -64 -54 -106 -84 -128c-34 -25 -72 -54 -84 -84h170v-72h-276s-6 15 -6 34c0 94 71 140 117 172c32 22 64 44 64 78c0 32 -13 48 -41 48c-20 0 -36 -15 -40 -41zM60 0v8l560 772h100v-8l-560 -772h-100z
M36 705l132 78l72 -6v-315h66v-72h-250v72h86v216l-65 -42z" />
    <glyph glyph-name="threequarters" unicode="&#xbe;" horiz-adv-x="780" 
d="M249 592c47 -24 55 -67 55 -87c0 -36 -18 -126 -152 -126c-100 0 -135 59 -143 81l97 18c4 -12 14 -27 46 -27c38 0 52 19 52 49c0 32 -17 47 -50 47h-58v71h46c32 0 48 30 48 56c0 32 -12 48 -40 48c-20 0 -37 -15 -41 -41l-97 9c6 34 42 101 138 101
c124 0 139 -87 139 -117c0 -38 -18 -64 -40 -82zM60 0v8l560 772h100v-8l-560 -772h-100zM614 85h-153l-7 50l180 258l80 -6v-232h62v-70h-62v-85h-100v85zM619 155v95l-64 -95h64z" />
    <glyph glyph-name="questiondown" unicode="&#xbf;" horiz-adv-x="570" 
d="M530 -40c0 -104 -92 -191 -245 -191c-147 0 -235 82 -235 201c0 163 190 199 190 300c0 18 -4 32 -10 45l130 15c13 -22 20 -45 20 -70c0 -154 -160 -170 -160 -285c0 -70 41 -83 70 -83c39 0 70 19 70 68c0 17 -3 35 -10 50l160 40c13 -29 20 -60 20 -90zM380 518
c0 -54 -41 -88 -95 -88s-95 34 -95 88s41 88 95 88s95 -34 95 -88z" />
    <glyph glyph-name="Agrave" unicode="&#xc0;" horiz-adv-x="750" 
d="M210 955l65 105l220 -160l-40 -60zM750 0h-190l-49 150h-272l-49 -150h-190v11l305 769h140l305 -769v-11zM472 270l-97 296l-97 -296h194z" />
    <glyph glyph-name="Aacute" unicode="&#xc1;" horiz-adv-x="750" 
d="M540 955l-245 -115l-40 60l220 160zM750 0h-190l-49 150h-272l-49 -150h-190v11l305 769h140l305 -769v-11zM472 270l-97 296l-97 -296h194z" />
    <glyph glyph-name="Acircumflex" unicode="&#xc2;" horiz-adv-x="750" 
d="M165 875l190 145h40l190 -145l-45 -50l-165 80l-165 -80zM750 0h-190l-49 150h-272l-49 -150h-190v11l305 769h140l305 -769v-11zM472 270l-97 296l-97 -296h194z" />
    <glyph glyph-name="Atilde" unicode="&#xc3;" horiz-adv-x="750" 
d="M165 890c27 66 60 125 135 125c60 0 94 -30 115 -48c19 -16 29 -27 39 -27c25 0 42 50 51 70l80 -30c-27 -66 -60 -125 -135 -125c-60 0 -94 30 -115 48c-19 16 -29 27 -39 27c-25 0 -42 -50 -51 -70zM750 0h-190l-49 150h-272l-49 -150h-190v11l305 769h140l305 -769
v-11zM472 270l-97 296l-97 -296h194z" />
    <glyph glyph-name="Adieresis" unicode="&#xc4;" horiz-adv-x="750" 
d="M250 1009c49 0 85 -30 85 -79s-36 -79 -85 -79s-85 30 -85 79s36 79 85 79zM500 1009c49 0 85 -30 85 -79s-36 -79 -85 -79s-85 30 -85 79s36 79 85 79zM750 0h-190l-49 150h-272l-49 -150h-190v11l305 769h140l305 -769v-11zM472 270l-97 296l-97 -296h194z" />
    <glyph glyph-name="Aring" unicode="&#xc5;" horiz-adv-x="750" 
d="M375 795c-74 0 -130 46 -130 120s56 120 130 120s130 -46 130 -120s-56 -120 -130 -120zM375 865c32 0 50 21 50 50s-18 50 -50 50s-50 -21 -50 -50s18 -50 50 -50zM750 0h-190l-49 150h-272l-49 -150h-190v11l305 769h140l305 -769v-11zM472 270l-97 296l-97 -296h194z
" />
    <glyph glyph-name="AE" unicode="&#xc6;" horiz-adv-x="980" 
d="M5 0v11l365 769h70h70h415v-130h-315v-205h275v-120h-275v-195h330v-130h-500v150h-184l-61 -150h-190zM440 607l-136 -337h136v337z" />
    <glyph glyph-name="Ccedilla" unicode="&#xc7;" horiz-adv-x="755" 
d="M307 -265c71 16 140 44 140 90c0 14 -10 25 -55 25c-12 0 -28 -3 -40 -5l-45 45l51 92c-245 26 -313 229 -313 393v30c0 175 78 396 367 396c212 0 303 -137 318 -219l-174 -16c-9 50 -58 107 -144 107c-117 0 -189 -91 -189 -268v-30c0 -177 72 -268 189 -268
c86 0 135 57 144 107l174 -16c-14 -78 -97 -206 -288 -218l-33 -60c83 0 138 -29 138 -95c0 -116 -162 -148 -215 -160z" />
    <glyph glyph-name="Egrave" unicode="&#xc8;" horiz-adv-x="675" 
d="M185 955l65 105l220 -160l-40 -60zM75 0v780h545v-130h-375v-205h335v-120h-335v-195h390v-130h-560z" />
    <glyph glyph-name="Eacute" unicode="&#xc9;" horiz-adv-x="675" 
d="M515 955l-245 -115l-40 60l220 160zM75 0v780h545v-130h-375v-205h335v-120h-335v-195h390v-130h-560z" />
    <glyph glyph-name="Ecircumflex" unicode="&#xca;" horiz-adv-x="675" 
d="M140 875l190 145h40l190 -145l-45 -50l-165 80l-165 -80zM75 0v780h545v-130h-375v-205h335v-120h-335v-195h390v-130h-560z" />
    <glyph glyph-name="Edieresis" unicode="&#xcb;" horiz-adv-x="675" 
d="M225 1009c49 0 85 -30 85 -79s-36 -79 -85 -79s-85 30 -85 79s36 79 85 79zM475 1009c49 0 85 -30 85 -79s-36 -79 -85 -79s-85 30 -85 79s36 79 85 79zM75 0v780h545v-130h-375v-205h335v-120h-335v-195h390v-130h-560z" />
    <glyph glyph-name="Igrave" unicode="&#xcc;" horiz-adv-x="320" 
d="M-5 955l65 105l220 -160l-40 -60zM75 0v780h170v-780h-170z" />
    <glyph glyph-name="Iacute" unicode="&#xcd;" horiz-adv-x="320" 
d="M325 955l-245 -115l-40 60l220 160zM75 0v780h170v-780h-170z" />
    <glyph glyph-name="Icircumflex" unicode="&#xce;" horiz-adv-x="320" 
d="M-50 875l190 145h40l190 -145l-45 -50l-165 80l-165 -80zM75 0v780h170v-780h-170z" />
    <glyph glyph-name="Idieresis" unicode="&#xcf;" horiz-adv-x="320" 
d="M35 1009c49 0 85 -30 85 -79s-36 -79 -85 -79s-85 30 -85 79s36 79 85 79zM285 1009c49 0 85 -30 85 -79s-36 -79 -85 -79s-85 30 -85 79s36 79 85 79zM75 0v780h170v-780h-170z" />
    <glyph glyph-name="Eth" unicode="&#xd0;" horiz-adv-x="770" 
d="M5 345v90h70v345s112 9 225 9c321 0 425 -206 425 -389v-20c0 -183 -104 -389 -425 -389c-113 0 -225 9 -225 9v345h-70zM245 114c19 0 39 -1 55 -1c185 0 255 102 255 267v20c0 165 -70 267 -255 267c-16 0 -36 -1 -55 -1v-231h180v-90h-180v-231z" />
    <glyph glyph-name="Ntilde" unicode="&#xd1;" horiz-adv-x="790" 
d="M185 890c27 66 60 125 135 125c60 0 94 -30 115 -48c19 -16 29 -27 39 -27c25 0 42 50 51 70l80 -30c-27 -66 -60 -125 -135 -125c-60 0 -94 30 -115 48c-19 16 -29 27 -39 27c-25 0 -42 -50 -51 -70zM75 0v765l145 15l329 -507v507h166v-780h-145l-329 507v-507h-166z
" />
    <glyph glyph-name="Ograve" unicode="&#xd2;" horiz-adv-x="820" 
d="M245 955l65 105l220 -160l-40 -60zM45 373v34c0 174 76 394 365 394s365 -220 365 -394v-34c0 -174 -76 -394 -365 -394s-365 220 -365 394zM410 104c121 0 191 93 191 269v34c0 176 -70 269 -191 269s-191 -93 -191 -269v-34c0 -176 70 -269 191 -269z" />
    <glyph glyph-name="Oacute" unicode="&#xd3;" horiz-adv-x="820" 
d="M575 955l-245 -115l-40 60l220 160zM45 373v34c0 174 76 394 365 394s365 -220 365 -394v-34c0 -174 -76 -394 -365 -394s-365 220 -365 394zM410 104c121 0 191 93 191 269v34c0 176 -70 269 -191 269s-191 -93 -191 -269v-34c0 -176 70 -269 191 -269z" />
    <glyph glyph-name="Ocircumflex" unicode="&#xd4;" horiz-adv-x="820" 
d="M200 875l190 145h40l190 -145l-45 -50l-165 80l-165 -80zM45 373v34c0 174 76 394 365 394s365 -220 365 -394v-34c0 -174 -76 -394 -365 -394s-365 220 -365 394zM410 104c121 0 191 93 191 269v34c0 176 -70 269 -191 269s-191 -93 -191 -269v-34
c0 -176 70 -269 191 -269z" />
    <glyph glyph-name="Otilde" unicode="&#xd5;" horiz-adv-x="820" 
d="M200 890c27 66 60 125 135 125c60 0 94 -30 115 -48c19 -16 29 -27 39 -27c25 0 42 50 51 70l80 -30c-27 -66 -60 -125 -135 -125c-60 0 -94 30 -115 48c-19 16 -29 27 -39 27c-25 0 -42 -50 -51 -70zM45 373v34c0 174 76 394 365 394s365 -220 365 -394v-34
c0 -174 -76 -394 -365 -394s-365 220 -365 394zM410 104c121 0 191 93 191 269v34c0 176 -70 269 -191 269s-191 -93 -191 -269v-34c0 -176 70 -269 191 -269z" />
    <glyph glyph-name="Odieresis" unicode="&#xd6;" horiz-adv-x="820" 
d="M285 1009c49 0 85 -30 85 -79s-36 -79 -85 -79s-85 30 -85 79s36 79 85 79zM535 1009c49 0 85 -30 85 -79s-36 -79 -85 -79s-85 30 -85 79s36 79 85 79zM45 373v34c0 174 76 394 365 394s365 -220 365 -394v-34c0 -174 -76 -394 -365 -394s-365 220 -365 394zM410 104
c121 0 191 93 191 269v34c0 176 -70 269 -191 269s-191 -93 -191 -269v-34c0 -176 70 -269 191 -269z" />
    <glyph glyph-name="multiply" unicode="&#xd7;" horiz-adv-x="600" 
d="M78 498l84 84l138 -138l138 138l84 -84l-138 -138l138 -138l-84 -84l-138 138l-138 -138l-84 84l138 138z" />
    <glyph glyph-name="Oslash" unicode="&#xd8;" horiz-adv-x="820" 
d="M45 373v34c0 174 76 394 365 394c96 0 169 -25 223 -64l57 70l70 -51l-65 -79c59 -78 80 -180 80 -270v-34c0 -174 -76 -394 -365 -394c-100 0 -174 26 -229 68l-51 -62l-70 51l60 73c-56 77 -75 177 -75 264zM539 622c-32 36 -75 54 -129 54c-121 0 -191 -93 -191 -269
v-34c0 -47 5 -89 15 -124zM583 540l-307 -376c32 -39 78 -60 134 -60c121 0 191 93 191 269v34c0 52 -6 96 -18 133z" />
    <glyph glyph-name="Ugrave" unicode="&#xd9;" horiz-adv-x="770" 
d="M220 955l65 105l220 -160l-40 -60zM65 246v534h172v-534c0 -103 65 -143 148 -143s148 40 148 143v534h172v-534c0 -147 -123 -267 -320 -267s-320 120 -320 267z" />
    <glyph glyph-name="Uacute" unicode="&#xda;" horiz-adv-x="770" 
d="M550 955l-245 -115l-40 60l220 160zM65 246v534h172v-534c0 -103 65 -143 148 -143s148 40 148 143v534h172v-534c0 -147 -123 -267 -320 -267s-320 120 -320 267z" />
    <glyph glyph-name="Ucircumflex" unicode="&#xdb;" horiz-adv-x="770" 
d="M175 875l190 145h40l190 -145l-45 -50l-165 80l-165 -80zM65 246v534h172v-534c0 -103 65 -143 148 -143s148 40 148 143v534h172v-534c0 -147 -123 -267 -320 -267s-320 120 -320 267z" />
    <glyph glyph-name="Udieresis" unicode="&#xdc;" horiz-adv-x="770" 
d="M260 1009c49 0 85 -30 85 -79s-36 -79 -85 -79s-85 30 -85 79s36 79 85 79zM510 1009c49 0 85 -30 85 -79s-36 -79 -85 -79s-85 30 -85 79s36 79 85 79zM65 246v534h172v-534c0 -103 65 -143 148 -143s148 40 148 143v534h172v-534c0 -147 -123 -267 -320 -267
s-320 120 -320 267z" />
    <glyph glyph-name="Yacute" unicode="&#xdd;" horiz-adv-x="670" 
d="M500 955l-245 -115l-40 60l220 160zM-5 754v11l190 15l150 -330l150 330l190 -15v-11l-255 -464v-290h-170v290z" />
    <glyph glyph-name="Thorn" unicode="&#xde;" horiz-adv-x="725" 
d="M243 286c24 -1 55 -3 87 -3c102 0 187 25 187 124s-85 124 -187 124c-32 0 -63 -2 -87 -3v-242zM243 649c34 1 70 2 107 2c200 0 335 -94 335 -244s-135 -244 -335 -244c-37 0 -73 1 -107 2v-165h-168v172v470v138h168v-131z" />
    <glyph glyph-name="germandbls" unicode="&#xdf;" horiz-adv-x="780" 
d="M305 148l150 10c6 -43 38 -67 75 -67c38 0 75 17 75 72c0 42 -41 61 -54 66c-36 14 -78 33 -112 47c-56 23 -122 69 -122 159c0 98 71 174 198 176c-26 81 -95 108 -155 108c-55 0 -125 -22 -125 -149v-570h-160v570c0 159 116 261 285 261c185 0 290 -132 300 -271
l-75 -65c-9 5 -26 15 -60 15c-30 0 -58 -16 -58 -60c0 -45 38 -61 54 -68c34 -14 78 -33 108 -45c59 -23 126 -73 126 -174c0 -92 -74 -184 -225 -184c-160 0 -217 110 -225 169z" />
    <glyph glyph-name="agrave" unicode="&#xe0;" horiz-adv-x="625" 
d="M145 805l65 105l220 -160l-40 -60zM40 174c0 75 63 156 213 156c52 0 103 -3 147 -7v89c0 74 -47 95 -100 95c-47 0 -86 -26 -95 -92l-160 12c13 92 92 194 255 194c157 0 255 -93 255 -209v-257c0 -46 8 -62 55 -68l-40 -103c-36 5 -99 18 -129 72
c-36 -41 -90 -72 -171 -72c-146 0 -230 76 -230 190zM408 230c-41 5 -95 9 -146 9c-28 0 -67 -17 -67 -67c0 -71 50 -93 95 -93c77 0 108 56 118 124v27z" />
    <glyph glyph-name="aacute" unicode="&#xe1;" horiz-adv-x="625" 
d="M475 805l-245 -115l-40 60l220 160zM40 174c0 75 63 156 213 156c52 0 103 -3 147 -7v89c0 74 -47 95 -100 95c-47 0 -86 -26 -95 -92l-160 12c13 92 92 194 255 194c157 0 255 -93 255 -209v-257c0 -46 8 -62 55 -68l-40 -103c-36 5 -99 18 -129 72
c-36 -41 -90 -72 -171 -72c-146 0 -230 76 -230 190zM408 230c-41 5 -95 9 -146 9c-28 0 -67 -17 -67 -67c0 -71 50 -93 95 -93c77 0 108 56 118 124v27z" />
    <glyph glyph-name="acircumflex" unicode="&#xe2;" horiz-adv-x="625" 
d="M100 725l190 145h40l190 -145l-45 -50l-165 80l-165 -80zM40 174c0 75 63 156 213 156c52 0 103 -3 147 -7v89c0 74 -47 95 -100 95c-47 0 -86 -26 -95 -92l-160 12c13 92 92 194 255 194c157 0 255 -93 255 -209v-257c0 -46 8 -62 55 -68l-40 -103c-36 5 -99 18 -129 72
c-36 -41 -90 -72 -171 -72c-146 0 -230 76 -230 190zM408 230c-41 5 -95 9 -146 9c-28 0 -67 -17 -67 -67c0 -71 50 -93 95 -93c77 0 108 56 118 124v27z" />
    <glyph glyph-name="atilde" unicode="&#xe3;" horiz-adv-x="625" 
d="M100 740c27 66 60 125 135 125c60 0 94 -30 115 -48c19 -16 29 -27 39 -27c25 0 42 50 51 70l80 -30c-27 -66 -60 -125 -135 -125c-60 0 -94 30 -115 48c-19 16 -29 27 -39 27c-25 0 -42 -50 -51 -70zM40 174c0 75 63 156 213 156c52 0 103 -3 147 -7v89
c0 74 -47 95 -100 95c-47 0 -86 -26 -95 -92l-160 12c13 92 92 194 255 194c157 0 255 -93 255 -209v-257c0 -46 8 -62 55 -68l-40 -103c-36 5 -99 18 -129 72c-36 -41 -90 -72 -171 -72c-146 0 -230 76 -230 190zM408 230c-41 5 -95 9 -146 9c-28 0 -67 -17 -67 -67
c0 -71 50 -93 95 -93c77 0 108 56 118 124v27z" />
    <glyph glyph-name="adieresis" unicode="&#xe4;" horiz-adv-x="625" 
d="M185 859c49 0 85 -30 85 -79s-36 -79 -85 -79s-85 30 -85 79s36 79 85 79zM435 859c49 0 85 -30 85 -79s-36 -79 -85 -79s-85 30 -85 79s36 79 85 79zM40 174c0 75 63 156 213 156c52 0 103 -3 147 -7v89c0 74 -47 95 -100 95c-47 0 -86 -26 -95 -92l-160 12
c13 92 92 194 255 194c157 0 255 -93 255 -209v-257c0 -46 8 -62 55 -68l-40 -103c-36 5 -99 18 -129 72c-36 -41 -90 -72 -171 -72c-146 0 -230 76 -230 190zM408 230c-41 5 -95 9 -146 9c-28 0 -67 -17 -67 -67c0 -71 50 -93 95 -93c77 0 108 56 118 124v27z" />
    <glyph glyph-name="aring" unicode="&#xe5;" horiz-adv-x="625" 
d="M310 645c-74 0 -130 46 -130 120s56 120 130 120s130 -46 130 -120s-56 -120 -130 -120zM310 715c32 0 50 21 50 50s-18 50 -50 50s-50 -21 -50 -50s18 -50 50 -50zM40 174c0 75 63 156 213 156c52 0 103 -3 147 -7v89c0 74 -47 95 -100 95c-47 0 -86 -26 -95 -92
l-160 12c13 92 92 194 255 194c157 0 255 -93 255 -209v-257c0 -46 8 -62 55 -68l-40 -103c-36 5 -99 18 -129 72c-36 -41 -90 -72 -171 -72c-146 0 -230 76 -230 190zM408 230c-41 5 -95 9 -146 9c-28 0 -67 -17 -67 -67c0 -71 50 -93 95 -93c77 0 108 56 118 124v27z" />
    <glyph glyph-name="ae" unicode="&#xe6;" horiz-adv-x="960" 
d="M40 174c0 75 63 156 208 156c51 0 100 -3 142 -7v89c0 74 -47 95 -95 95c-42 0 -81 -26 -90 -92l-160 12c13 92 92 194 250 194c81 0 145 -28 187 -73c40 44 98 73 181 73c176 0 257 -136 257 -264c0 -31 -4 -62 -10 -92h-364c4 -118 44 -174 117 -174c59 0 87 40 93 76
l154 -14c-12 -66 -89 -174 -247 -174c-94 0 -156 36 -195 88c-37 -48 -100 -88 -203 -88c-141 0 -225 81 -225 195zM549 365h221c-2 107 -47 144 -107 144c-58 0 -102 -47 -114 -144zM398 230c-38 5 -86 9 -136 9c-28 0 -67 -17 -67 -67c0 -68 49 -88 90 -88
c72 0 103 52 113 119v27z" />
    <glyph glyph-name="ccedilla" unicode="&#xe7;" horiz-adv-x="605" 
d="M225 -265c71 16 140 44 140 90c0 14 -10 25 -55 25c-12 0 -28 -3 -40 -5l-45 45l51 92c-191 25 -236 186 -236 306v24c0 130 54 309 290 309c173 0 244 -111 255 -175l-161 -14c-7 36 -43 73 -94 73c-70 0 -126 -59 -126 -193v-24c0 -134 56 -193 126 -193
c51 0 87 37 94 73l161 -14c-10 -60 -74 -162 -225 -174l-33 -60c83 0 138 -29 138 -95c0 -116 -162 -148 -215 -160z" />
    <glyph glyph-name="egrave" unicode="&#xe8;" horiz-adv-x="640" 
d="M165 805l65 105l220 -160l-40 -60zM40 287v26c0 131 60 308 288 308c186 0 272 -136 272 -264c0 -31 -4 -62 -10 -92h-393c6 -118 58 -174 131 -174c59 0 97 40 103 76l154 -14c-12 -66 -86 -174 -257 -174c-233 0 -288 177 -288 308zM199 365h251
c-2 107 -57 144 -122 144c-66 0 -116 -47 -129 -144z" />
    <glyph glyph-name="eacute" unicode="&#xe9;" horiz-adv-x="640" 
d="M495 805l-245 -115l-40 60l220 160zM40 287v26c0 131 60 308 288 308c186 0 272 -136 272 -264c0 -31 -4 -62 -10 -92h-393c6 -118 58 -174 131 -174c59 0 97 40 103 76l154 -14c-12 -66 -86 -174 -257 -174c-233 0 -288 177 -288 308zM199 365h251
c-2 107 -57 144 -122 144c-66 0 -116 -47 -129 -144z" />
    <glyph glyph-name="ecircumflex" unicode="&#xea;" horiz-adv-x="640" 
d="M120 725l190 145h40l190 -145l-45 -50l-165 80l-165 -80zM40 287v26c0 131 60 308 288 308c186 0 272 -136 272 -264c0 -31 -4 -62 -10 -92h-393c6 -118 58 -174 131 -174c59 0 97 40 103 76l154 -14c-12 -66 -86 -174 -257 -174c-233 0 -288 177 -288 308zM199 365h251
c-2 107 -57 144 -122 144c-66 0 -116 -47 -129 -144z" />
    <glyph glyph-name="edieresis" unicode="&#xeb;" horiz-adv-x="640" 
d="M205 859c49 0 85 -30 85 -79s-36 -79 -85 -79s-85 30 -85 79s36 79 85 79zM455 859c49 0 85 -30 85 -79s-36 -79 -85 -79s-85 30 -85 79s36 79 85 79zM40 287v26c0 131 60 308 288 308c186 0 272 -136 272 -264c0 -31 -4 -62 -10 -92h-393c6 -118 58 -174 131 -174
c59 0 97 40 103 76l154 -14c-12 -66 -86 -174 -257 -174c-233 0 -288 177 -288 308zM199 365h251c-2 107 -57 144 -122 144c-66 0 -116 -47 -129 -144z" />
    <glyph glyph-name="igrave" unicode="&#xec;" horiz-adv-x="300" 
d="M-15 805l65 105l220 -160l-40 -60zM70 0v600h160v-600h-160z" />
    <glyph glyph-name="iacute" unicode="&#xed;" horiz-adv-x="300" 
d="M315 805l-245 -115l-40 60l220 160zM70 0v600h160v-600h-160z" />
    <glyph glyph-name="icircumflex" unicode="&#xee;" horiz-adv-x="300" 
d="M-60 725l190 145h40l190 -145l-45 -50l-165 80l-165 -80zM70 0v600h160v-600h-160z" />
    <glyph glyph-name="idieresis" unicode="&#xef;" horiz-adv-x="300" 
d="M25 859c49 0 85 -30 85 -79s-36 -79 -85 -79s-85 30 -85 79s36 79 85 79zM275 859c49 0 85 -30 85 -79s-36 -79 -85 -79s-85 30 -85 79s36 79 85 79zM70 0v600h160v-600h-160z" />
    <glyph glyph-name="eth" unicode="&#xf0;" horiz-adv-x="660" 
d="M391 799l139 35l20 -78l-89 -22c112 -121 159 -265 159 -421v-26c0 -130 -54 -308 -290 -308s-290 178 -290 308v25c0 130 66 299 255 299c44 0 81 -13 113 -34c-21 44 -50 85 -88 122l-190 -48l-20 78l134 33c-14 10 -29 20 -44 29l90 80c37 -23 71 -47 101 -72z
M458 372c-21 75 -73 123 -143 123c-65 0 -115 -46 -115 -183v-25c0 -134 56 -196 130 -196s130 62 130 196v26c0 20 -1 40 -2 59z" />
    <glyph glyph-name="ntilde" unicode="&#xf1;" horiz-adv-x="655" 
d="M120 740c27 66 60 125 135 125c60 0 94 -30 115 -48c19 -16 29 -27 39 -27c25 0 42 50 51 70l80 -30c-27 -66 -60 -125 -135 -125c-60 0 -94 30 -115 48c-19 16 -29 27 -39 27c-25 0 -42 -50 -51 -70zM70 0v420l-10 171l145 12l16 -119c40 72 104 132 204 132
c122 0 175 -106 175 -210v-406h-160v400c0 79 -37 90 -60 90c-67 0 -131 -85 -150 -185v-305h-160z" />
    <glyph glyph-name="ograve" unicode="&#xf2;" horiz-adv-x="660" 
d="M165 805l65 105l220 -160l-40 -60zM40 287v26c0 130 55 308 290 308s290 -178 290 -308v-26c0 -130 -55 -308 -290 -308s-290 178 -290 308zM330 93c75 0 130 60 130 194v26c0 134 -55 194 -130 194s-130 -60 -130 -194v-26c0 -134 55 -194 130 -194z" />
    <glyph glyph-name="oacute" unicode="&#xf3;" horiz-adv-x="660" 
d="M495 805l-245 -115l-40 60l220 160zM40 287v26c0 130 55 308 290 308s290 -178 290 -308v-26c0 -130 -55 -308 -290 -308s-290 178 -290 308zM330 93c75 0 130 60 130 194v26c0 134 -55 194 -130 194s-130 -60 -130 -194v-26c0 -134 55 -194 130 -194z" />
    <glyph glyph-name="ocircumflex" unicode="&#xf4;" horiz-adv-x="660" 
d="M120 725l190 145h40l190 -145l-45 -50l-165 80l-165 -80zM40 287v26c0 130 55 308 290 308s290 -178 290 -308v-26c0 -130 -55 -308 -290 -308s-290 178 -290 308zM330 93c75 0 130 60 130 194v26c0 134 -55 194 -130 194s-130 -60 -130 -194v-26
c0 -134 55 -194 130 -194z" />
    <glyph glyph-name="otilde" unicode="&#xf5;" horiz-adv-x="660" 
d="M120 740c27 66 60 125 135 125c60 0 94 -30 115 -48c19 -16 29 -27 39 -27c25 0 42 50 51 70l80 -30c-27 -66 -60 -125 -135 -125c-60 0 -94 30 -115 48c-19 16 -29 27 -39 27c-25 0 -42 -50 -51 -70zM40 287v26c0 130 55 308 290 308s290 -178 290 -308v-26
c0 -130 -55 -308 -290 -308s-290 178 -290 308zM330 93c75 0 130 60 130 194v26c0 134 -55 194 -130 194s-130 -60 -130 -194v-26c0 -134 55 -194 130 -194z" />
    <glyph glyph-name="odieresis" unicode="&#xf6;" horiz-adv-x="660" 
d="M205 859c49 0 85 -30 85 -79s-36 -79 -85 -79s-85 30 -85 79s36 79 85 79zM455 859c49 0 85 -30 85 -79s-36 -79 -85 -79s-85 30 -85 79s36 79 85 79zM40 287v26c0 130 55 308 290 308s290 -178 290 -308v-26c0 -130 -55 -308 -290 -308s-290 178 -290 308zM330 93
c75 0 130 60 130 194v26c0 134 -55 194 -130 194s-130 -60 -130 -194v-26c0 -134 55 -194 130 -194z" />
    <glyph glyph-name="divide" unicode="&#xf7;" horiz-adv-x="600" 
d="M75 305v110h450v-110h-450zM220 195c0 46 35 74 80 74s80 -28 80 -74s-35 -74 -80 -74s-80 28 -80 74zM220 525c0 46 35 74 80 74s80 -28 80 -74s-35 -74 -80 -74s-80 28 -80 74z" />
    <glyph glyph-name="oslash" unicode="&#xf8;" horiz-adv-x="660" 
d="M40 287v26c0 130 55 308 290 308c74 0 131 -18 173 -46l37 46l65 -46l-45 -55c45 -61 60 -141 60 -207v-26c0 -130 -55 -308 -290 -308c-74 0 -131 18 -173 46l-37 -46l-65 46l45 55c-45 61 -60 141 -60 207zM416 469c-22 26 -52 38 -86 38c-75 0 -130 -60 -130 -194v-26
c0 -28 2 -53 7 -75zM453 388l-209 -257c22 -26 52 -38 86 -38c75 0 130 60 130 194v26c0 28 -2 53 -7 75z" />
    <glyph glyph-name="ugrave" unicode="&#xf9;" horiz-adv-x="620" 
d="M145 805l65 105l220 -160l-40 -60zM50 194v406h160v-406c0 -76 46 -101 100 -101s100 25 100 101v406h160v-406c0 -116 -98 -215 -260 -215s-260 99 -260 215z" />
    <glyph glyph-name="uacute" unicode="&#xfa;" horiz-adv-x="620" 
d="M475 805l-245 -115l-40 60l220 160zM50 194v406h160v-406c0 -76 46 -101 100 -101s100 25 100 101v406h160v-406c0 -116 -98 -215 -260 -215s-260 99 -260 215z" />
    <glyph glyph-name="ucircumflex" unicode="&#xfb;" horiz-adv-x="620" 
d="M100 725l190 145h40l190 -145l-45 -50l-165 80l-165 -80zM50 194v406h160v-406c0 -76 46 -101 100 -101s100 25 100 101v406h160v-406c0 -116 -98 -215 -260 -215s-260 99 -260 215z" />
    <glyph glyph-name="udieresis" unicode="&#xfc;" horiz-adv-x="620" 
d="M185 859c49 0 85 -30 85 -79s-36 -79 -85 -79s-85 30 -85 79s36 79 85 79zM435 859c49 0 85 -30 85 -79s-36 -79 -85 -79s-85 30 -85 79s36 79 85 79zM50 194v406h160v-406c0 -76 46 -101 100 -101s100 25 100 101v406h160v-406c0 -116 -98 -215 -260 -215
s-260 99 -260 215z" />
    <glyph glyph-name="yacute" unicode="&#xfd;" horiz-adv-x="600" 
d="M465 805l-245 -115l-40 60l220 160zM0 580v8l175 12l127 -400l123 400l175 -12v-8l-235 -595c-50 -109 -87 -216 -227 -216c-58 0 -101 22 -128 42l75 94c15 -13 31 -26 48 -26c39 0 60 40 99 129z" />
    <glyph glyph-name="thorn" unicode="&#xfe;" horiz-adv-x="675" 
d="M635 290c0 -130 -66 -306 -255 -306c-64 0 -114 29 -150 71v-265h-160v1020h155v-271c37 45 88 77 155 77c189 0 255 -176 255 -306v-20zM230 217c21 -69 64 -117 130 -117c65 0 115 53 115 190v20c0 137 -50 190 -115 190c-66 0 -109 -48 -130 -117v-166z" />
    <glyph glyph-name="ydieresis" unicode="&#xff;" horiz-adv-x="600" 
d="M175 859c49 0 85 -30 85 -79s-36 -79 -85 -79s-85 30 -85 79s36 79 85 79zM425 859c49 0 85 -30 85 -79s-36 -79 -85 -79s-85 30 -85 79s36 79 85 79zM0 580v8l175 12l127 -400l123 400l175 -12v-8l-235 -595c-50 -109 -87 -216 -227 -216c-58 0 -101 22 -128 42l75 94
c15 -13 31 -26 48 -26c39 0 60 40 99 129z" />
    <glyph glyph-name="Amacron" unicode="&#x100;" horiz-adv-x="750" 
d="M165 880v100h420v-100h-420zM750 0h-190l-49 150h-272l-49 -150h-190v11l305 769h140l305 -769v-11zM472 270l-97 296l-97 -296h194z" />
    <glyph glyph-name="amacron" unicode="&#x101;" horiz-adv-x="625" 
d="M100 730v100h420v-100h-420zM40 174c0 75 63 156 213 156c52 0 103 -3 147 -7v89c0 74 -47 95 -100 95c-47 0 -86 -26 -95 -92l-160 12c13 92 92 194 255 194c157 0 255 -93 255 -209v-257c0 -46 8 -62 55 -68l-40 -103c-36 5 -99 18 -129 72c-36 -41 -90 -72 -171 -72
c-146 0 -230 76 -230 190zM408 230c-41 5 -95 9 -146 9c-28 0 -67 -17 -67 -67c0 -71 50 -93 95 -93c77 0 108 56 118 124v27z" />
    <glyph glyph-name="Abreve" unicode="&#x102;" horiz-adv-x="750" 
d="M165 984l96 31c11 -34 36 -80 114 -80s103 46 114 80l96 -31c-21 -68 -80 -144 -210 -144s-189 76 -210 144zM750 0h-190l-49 150h-272l-49 -150h-190v11l305 769h140l305 -769v-11zM472 270l-97 296l-97 -296h194z" />
    <glyph glyph-name="abreve" unicode="&#x103;" horiz-adv-x="625" 
d="M100 834l96 31c11 -34 36 -80 114 -80s103 46 114 80l96 -31c-21 -68 -80 -144 -210 -144s-189 76 -210 144zM40 174c0 75 63 156 213 156c52 0 103 -3 147 -7v89c0 74 -47 95 -100 95c-47 0 -86 -26 -95 -92l-160 12c13 92 92 194 255 194c157 0 255 -93 255 -209v-257
c0 -46 8 -62 55 -68l-40 -103c-36 5 -99 18 -129 72c-36 -41 -90 -72 -171 -72c-146 0 -230 76 -230 190zM408 230c-41 5 -95 9 -146 9c-28 0 -67 -17 -67 -67c0 -71 50 -93 95 -93c77 0 108 56 118 124v27z" />
    <glyph glyph-name="Aogonek" unicode="&#x104;" horiz-adv-x="750" 
d="M472 270l-97 296l-97 -296h194zM634 0h-74l-49 150h-272l-49 -150h-190v11l305 769h140l305 -769v-11h-28c-22 -28 -42 -69 -42 -125c0 -45 22 -55 45 -55c26 0 54 11 60 15l25 -73c-27 -14 -64 -22 -105 -22c-82 0 -125 50 -125 120c0 56 24 104 54 140z" />
    <glyph glyph-name="aogonek" unicode="&#x105;" horiz-adv-x="625" 
d="M408 230c-41 5 -95 9 -146 9c-28 0 -67 -17 -67 -67c0 -71 50 -93 95 -93c77 0 108 56 118 124v27zM40 174c0 75 63 156 213 156c52 0 103 -3 147 -7v89c0 74 -47 95 -100 95c-47 0 -86 -26 -95 -92l-160 12c13 92 92 194 255 194c157 0 255 -93 255 -209v-257
c0 -46 8 -62 55 -68l-40 -103c-4 1 -8 1 -13 2c-18 -27 -32 -64 -32 -111c0 -45 22 -55 45 -55c26 0 54 11 60 15l25 -73c-27 -14 -64 -22 -105 -22c-82 0 -125 50 -125 120c0 62 29 113 62 150c-18 11 -34 25 -46 46c-36 -41 -90 -72 -171 -72c-146 0 -230 76 -230 190z
" />
    <glyph glyph-name="Cacute" unicode="&#x106;" horiz-adv-x="755" 
d="M575 955l-245 -115l-40 60l220 160zM45 375v30c0 175 78 396 367 396c212 0 303 -137 318 -219l-174 -16c-9 50 -58 107 -144 107c-117 0 -189 -91 -189 -268v-30c0 -177 72 -268 189 -268c86 0 135 57 144 107l174 -16c-15 -82 -106 -219 -318 -219
c-289 0 -367 221 -367 396z" />
    <glyph glyph-name="cacute" unicode="&#x107;" horiz-adv-x="605" 
d="M495 805l-245 -115l-40 60l220 160zM424 168l161 -14c-11 -64 -82 -175 -255 -175c-236 0 -290 179 -290 309v24c0 130 54 309 290 309c173 0 244 -111 255 -175l-161 -14c-7 36 -43 73 -94 73c-70 0 -126 -59 -126 -193v-24c0 -134 56 -193 126 -193c51 0 87 37 94 73z
" />
    <glyph glyph-name="Ccircumflex" unicode="&#x108;" horiz-adv-x="755" 
d="M200 875l190 145h40l190 -145l-45 -50l-165 80l-165 -80zM45 375v30c0 175 78 396 367 396c212 0 303 -137 318 -219l-174 -16c-9 50 -58 107 -144 107c-117 0 -189 -91 -189 -268v-30c0 -177 72 -268 189 -268c86 0 135 57 144 107l174 -16c-15 -82 -106 -219 -318 -219
c-289 0 -367 221 -367 396z" />
    <glyph glyph-name="ccircumflex" unicode="&#x109;" horiz-adv-x="605" 
d="M120 725l190 145h40l190 -145l-45 -50l-165 80l-165 -80zM424 168l161 -14c-11 -64 -82 -175 -255 -175c-236 0 -290 179 -290 309v24c0 130 54 309 290 309c173 0 244 -111 255 -175l-161 -14c-7 36 -43 73 -94 73c-70 0 -126 -59 -126 -193v-24
c0 -134 56 -193 126 -193c51 0 87 37 94 73z" />
    <glyph glyph-name="Cdotaccent" unicode="&#x10a;" horiz-adv-x="755" 
d="M315 930c0 54 41 88 95 88s95 -34 95 -88s-41 -88 -95 -88s-95 34 -95 88zM45 375v30c0 175 78 396 367 396c212 0 303 -137 318 -219l-174 -16c-9 50 -58 107 -144 107c-117 0 -189 -91 -189 -268v-30c0 -177 72 -268 189 -268c86 0 135 57 144 107l174 -16
c-15 -82 -106 -219 -318 -219c-289 0 -367 221 -367 396z" />
    <glyph glyph-name="cdotaccent" unicode="&#x10b;" horiz-adv-x="605" 
d="M235 780c0 54 41 88 95 88s95 -34 95 -88s-41 -88 -95 -88s-95 34 -95 88zM424 168l161 -14c-11 -64 -82 -175 -255 -175c-236 0 -290 179 -290 309v24c0 130 54 309 290 309c173 0 244 -111 255 -175l-161 -14c-7 36 -43 73 -94 73c-70 0 -126 -59 -126 -193v-24
c0 -134 56 -193 126 -193c51 0 87 37 94 73z" />
    <glyph glyph-name="Ccaron" unicode="&#x10c;" horiz-adv-x="755" 
d="M620 980l-190 -145h-40l-190 145l45 50l165 -80l165 80zM45 375v30c0 175 78 396 367 396c212 0 303 -137 318 -219l-174 -16c-9 50 -58 107 -144 107c-117 0 -189 -91 -189 -268v-30c0 -177 72 -268 189 -268c86 0 135 57 144 107l174 -16c-15 -82 -106 -219 -318 -219
c-289 0 -367 221 -367 396z" />
    <glyph glyph-name="ccaron" unicode="&#x10d;" horiz-adv-x="605" 
d="M540 830l-190 -145h-40l-190 145l45 50l165 -80l165 80zM424 168l161 -14c-11 -64 -82 -175 -255 -175c-236 0 -290 179 -290 309v24c0 130 54 309 290 309c173 0 244 -111 255 -175l-161 -14c-7 36 -43 73 -94 73c-70 0 -126 -59 -126 -193v-24c0 -134 56 -193 126 -193
c51 0 87 37 94 73z" />
    <glyph glyph-name="Dcaron" unicode="&#x10e;" horiz-adv-x="770" 
d="M530 980l-190 -145h-40l-190 145l45 50l165 -80l165 80zM245 114c19 0 39 -1 55 -1c185 0 255 102 255 267v20c0 165 -70 267 -255 267c-16 0 -36 -1 -55 -1v-552zM75 780c0 0 112 9 225 9c321 0 425 -206 425 -389v-20c0 -183 -104 -389 -425 -389c-113 0 -225 9 -225 9
v780z" />
    <glyph glyph-name="dcaron" unicode="&#x10f;" horiz-adv-x="890" 
d="M782 681h-7c-43 0 -75 26 -75 69c0 48 31 85 87 85c67 0 93 -51 93 -94c0 -109 -74 -167 -137 -191l-38 50c30 11 62 37 77 81zM40 290v20c0 130 66 306 255 306c67 0 118 -32 155 -77v271h155v-655c0 -46 8 -62 55 -68l-40 -103c-44 6 -130 25 -143 116
c-38 -64 -97 -116 -182 -116c-189 0 -255 176 -255 306zM450 364c-18 79 -64 136 -135 136c-65 0 -115 -53 -115 -190v-20c0 -137 50 -190 115 -190c71 0 117 57 135 136v128z" />
    <glyph glyph-name="Dcroat" unicode="&#x110;" horiz-adv-x="770" 
d="M5 345v90h70v345s112 9 225 9c321 0 425 -206 425 -389v-20c0 -183 -104 -389 -425 -389c-113 0 -225 9 -225 9v345h-70zM245 114c19 0 39 -1 55 -1c185 0 255 102 255 267v20c0 165 -70 267 -255 267c-16 0 -36 -1 -55 -1v-231h180v-90h-180v-231z" />
    <glyph glyph-name="dcroat" unicode="&#x111;" horiz-adv-x="680" 
d="M315 675v90h135v45h155v-45h70v-90h-70v-520c0 -46 8 -62 55 -68l-40 -103c-44 6 -130 25 -143 116c-38 -64 -97 -116 -182 -116c-189 0 -255 176 -255 306v20c0 130 66 306 255 306c67 0 118 -32 155 -77v136h-135zM450 364c-18 79 -64 136 -135 136
c-65 0 -115 -53 -115 -190v-20c0 -137 50 -190 115 -190c71 0 117 57 135 136v128z" />
    <glyph glyph-name="Emacron" unicode="&#x112;" horiz-adv-x="675" 
d="M140 880v100h420v-100h-420zM75 0v780h545v-130h-375v-205h335v-120h-335v-195h390v-130h-560z" />
    <glyph glyph-name="emacron" unicode="&#x113;" horiz-adv-x="640" 
d="M120 730v100h420v-100h-420zM40 287v26c0 131 60 308 288 308c186 0 272 -136 272 -264c0 -31 -4 -62 -10 -92h-393c6 -118 58 -174 131 -174c59 0 97 40 103 76l154 -14c-12 -66 -86 -174 -257 -174c-233 0 -288 177 -288 308zM199 365h251c-2 107 -57 144 -122 144
c-66 0 -116 -47 -129 -144z" />
    <glyph glyph-name="Ebreve" unicode="&#x114;" horiz-adv-x="675" 
d="M140 984l96 31c11 -34 36 -80 114 -80s103 46 114 80l96 -31c-21 -68 -80 -144 -210 -144s-189 76 -210 144zM75 0v780h545v-130h-375v-205h335v-120h-335v-195h390v-130h-560z" />
    <glyph glyph-name="ebreve" unicode="&#x115;" horiz-adv-x="640" 
d="M120 834l96 31c11 -34 36 -80 114 -80s103 46 114 80l96 -31c-21 -68 -80 -144 -210 -144s-189 76 -210 144zM40 287v26c0 131 60 308 288 308c186 0 272 -136 272 -264c0 -31 -4 -62 -10 -92h-393c6 -118 58 -174 131 -174c59 0 97 40 103 76l154 -14
c-12 -66 -86 -174 -257 -174c-233 0 -288 177 -288 308zM199 365h251c-2 107 -57 144 -122 144c-66 0 -116 -47 -129 -144z" />
    <glyph glyph-name="Edotaccent" unicode="&#x116;" horiz-adv-x="675" 
d="M255 930c0 54 41 88 95 88s95 -34 95 -88s-41 -88 -95 -88s-95 34 -95 88zM75 0v780h545v-130h-375v-205h335v-120h-335v-195h390v-130h-560z" />
    <glyph glyph-name="edotaccent" unicode="&#x117;" horiz-adv-x="640" 
d="M235 780c0 54 41 88 95 88s95 -34 95 -88s-41 -88 -95 -88s-95 34 -95 88zM40 287v26c0 131 60 308 288 308c186 0 272 -136 272 -264c0 -31 -4 -62 -10 -92h-393c6 -118 58 -174 131 -174c59 0 97 40 103 76l154 -14c-12 -66 -86 -174 -257 -174
c-233 0 -288 177 -288 308zM199 365h251c-2 107 -57 144 -122 144c-66 0 -116 -47 -129 -144z" />
    <glyph glyph-name="Eogonek" unicode="&#x118;" horiz-adv-x="675" 
d="M75 0v780h545v-130h-375v-205h335v-120h-335v-195h390v-130h-38c-22 -28 -42 -69 -42 -125c0 -45 22 -55 45 -55c26 0 54 11 60 15l25 -73c-27 -14 -64 -22 -105 -22c-82 0 -125 50 -125 120c0 56 24 104 54 140h-434z" />
    <glyph glyph-name="eogonek" unicode="&#x119;" horiz-adv-x="640" 
d="M199 365h251c-2 107 -57 144 -122 144c-66 0 -116 -47 -129 -144zM40 287v26c0 131 60 308 288 308c186 0 272 -136 272 -264c0 -31 -4 -62 -10 -92h-393c6 -118 58 -174 131 -174c59 0 97 40 103 76l154 -14c-8 -43 -42 -104 -112 -141c-26 -27 -53 -73 -53 -137
c0 -45 22 -55 45 -55c26 0 54 11 60 15l25 -73c-27 -14 -64 -22 -105 -22c-82 0 -125 50 -125 120c0 47 16 87 39 120c-10 -1 -20 -1 -31 -1c-233 0 -288 177 -288 308z" />
    <glyph glyph-name="Ecaron" unicode="&#x11a;" horiz-adv-x="675" 
d="M560 980l-190 -145h-40l-190 145l45 50l165 -80l165 80zM75 0v780h545v-130h-375v-205h335v-120h-335v-195h390v-130h-560z" />
    <glyph glyph-name="ecaron" unicode="&#x11b;" horiz-adv-x="640" 
d="M540 830l-190 -145h-40l-190 145l45 50l165 -80l165 80zM40 287v26c0 131 60 308 288 308c186 0 272 -136 272 -264c0 -31 -4 -62 -10 -92h-393c6 -118 58 -174 131 -174c59 0 97 40 103 76l154 -14c-12 -66 -86 -174 -257 -174c-233 0 -288 177 -288 308zM199 365h251
c-2 107 -57 144 -122 144c-66 0 -116 -47 -129 -144z" />
    <glyph glyph-name="Gcircumflex" unicode="&#x11c;" horiz-adv-x="770" 
d="M200 875l190 145h40l190 -145l-45 -50l-165 80l-165 -80zM415 285v120h310v-270c-41 -69 -139 -156 -313 -156c-289 0 -367 221 -367 396v30c0 175 78 396 367 396c212 0 303 -137 318 -219l-172 -16c-9 50 -58 109 -146 109c-121 0 -193 -89 -193 -270v-30
c0 -181 72 -270 193 -270c86 0 132 26 158 55v125h-155z" />
    <glyph glyph-name="gcircumflex" unicode="&#x11d;" horiz-adv-x="670" 
d="M150 725l190 145h40l190 -145l-45 -50l-165 80l-165 -80zM40 315c0 125 66 301 255 301c73 0 126 -38 164 -89l10 73h136v-615c0 -120 -100 -216 -258 -216c-154 0 -235 72 -252 114l148 42c7 -16 38 -47 104 -47c63 0 108 29 108 107v113c-37 -48 -90 -84 -160 -84
c-189 0 -255 176 -255 301zM450 364c-18 79 -64 136 -135 136c-65 0 -115 -53 -115 -185s50 -185 115 -185c71 0 117 57 135 136v98z" />
    <glyph glyph-name="Gbreve" unicode="&#x11e;" horiz-adv-x="770" 
d="M200 984l96 31c11 -34 36 -80 114 -80s103 46 114 80l96 -31c-21 -68 -80 -144 -210 -144s-189 76 -210 144zM415 285v120h310v-270c-41 -69 -139 -156 -313 -156c-289 0 -367 221 -367 396v30c0 175 78 396 367 396c212 0 303 -137 318 -219l-172 -16
c-9 50 -58 109 -146 109c-121 0 -193 -89 -193 -270v-30c0 -181 72 -270 193 -270c86 0 132 26 158 55v125h-155z" />
    <glyph glyph-name="gbreve" unicode="&#x11f;" horiz-adv-x="670" 
d="M150 834l96 31c11 -34 36 -80 114 -80s103 46 114 80l96 -31c-21 -68 -80 -144 -210 -144s-189 76 -210 144zM40 315c0 125 66 301 255 301c73 0 126 -38 164 -89l10 73h136v-615c0 -120 -100 -216 -258 -216c-154 0 -235 72 -252 114l148 42c7 -16 38 -47 104 -47
c63 0 108 29 108 107v113c-37 -48 -90 -84 -160 -84c-189 0 -255 176 -255 301zM450 364c-18 79 -64 136 -135 136c-65 0 -115 -53 -115 -185s50 -185 115 -185c71 0 117 57 135 136v98z" />
    <glyph glyph-name="Gdotaccent" unicode="&#x120;" horiz-adv-x="770" 
d="M315 930c0 54 41 88 95 88s95 -34 95 -88s-41 -88 -95 -88s-95 34 -95 88zM415 285v120h310v-270c-41 -69 -139 -156 -313 -156c-289 0 -367 221 -367 396v30c0 175 78 396 367 396c212 0 303 -137 318 -219l-172 -16c-9 50 -58 109 -146 109c-121 0 -193 -89 -193 -270
v-30c0 -181 72 -270 193 -270c86 0 132 26 158 55v125h-155z" />
    <glyph glyph-name="gdotaccent" unicode="&#x121;" horiz-adv-x="670" 
d="M265 780c0 54 41 88 95 88s95 -34 95 -88s-41 -88 -95 -88s-95 34 -95 88zM40 315c0 125 66 301 255 301c73 0 126 -38 164 -89l10 73h136v-615c0 -120 -100 -216 -258 -216c-154 0 -235 72 -252 114l148 42c7 -16 38 -47 104 -47c63 0 108 29 108 107v113
c-37 -48 -90 -84 -160 -84c-189 0 -255 176 -255 301zM450 364c-18 79 -64 136 -135 136c-65 0 -115 -53 -115 -185s50 -185 115 -185c71 0 117 57 135 136v98z" />
    <glyph glyph-name="uni0122" unicode="&#x122;" horiz-adv-x="770" 
d="M397 -219h-7c-43 0 -75 26 -75 69c0 48 31 85 87 85c67 0 93 -51 93 -94c0 -109 -74 -167 -137 -191l-38 50c30 11 62 37 77 81zM415 285v120h310v-270c-41 -69 -139 -156 -313 -156c-289 0 -367 221 -367 396v30c0 175 78 396 367 396c212 0 303 -137 318 -219l-172 -16
c-9 50 -58 109 -146 109c-121 0 -193 -89 -193 -270v-30c0 -181 72 -270 193 -270c86 0 132 26 158 55v125h-155z" />
    <glyph glyph-name="uni0123" unicode="&#x123;" horiz-adv-x="670" 
d="M373 849h7c43 0 75 -26 75 -69c0 -48 -31 -85 -87 -85c-67 0 -93 51 -93 94c0 109 74 167 137 191l38 -50c-30 -11 -62 -37 -77 -81zM40 315c0 125 66 301 255 301c73 0 126 -38 164 -89l10 73h136v-615c0 -120 -100 -216 -258 -216c-154 0 -235 72 -252 114l148 42
c7 -16 38 -47 104 -47c63 0 108 29 108 107v113c-37 -48 -90 -84 -160 -84c-189 0 -255 176 -255 301zM450 364c-18 79 -64 136 -135 136c-65 0 -115 -53 -115 -185s50 -185 115 -185c71 0 117 57 135 136v98z" />
    <glyph glyph-name="Hcircumflex" unicode="&#x124;" horiz-adv-x="790" 
d="M185 875l190 145h40l190 -145l-45 -50l-165 80l-165 -80zM75 0v780h170v-325h300v325h170v-780h-170v325h-300v-325h-170z" />
    <glyph glyph-name="hcircumflex" unicode="&#x125;" horiz-adv-x="665" 
d="M-75 905l190 145h40l190 -145l-45 -50l-165 80l-165 -80zM70 0v810h155v-328c42 73 109 134 210 134c122 0 175 -106 175 -210v-406h-160v400c0 79 -37 90 -60 90c-67 0 -140 -87 -160 -187v-303h-160z" />
    <glyph glyph-name="Hbar" unicode="&#x126;" horiz-adv-x="790" 
d="M5 615v90h70v75h170v-75h300v75h170v-75h70v-90h-70v-615h-170v325h-300v-325h-170v615h-70zM545 615h-300v-160h300v160z" />
    <glyph glyph-name="hbar" unicode="&#x127;" horiz-adv-x="665" 
d="M0 675v90h70v45h155v-45h135v-90h-135v-193c42 73 109 134 210 134c122 0 175 -106 175 -210v-406h-160v400c0 79 -37 90 -60 90c-67 0 -140 -87 -160 -187v-303h-160v675h-70z" />
    <glyph glyph-name="Itilde" unicode="&#x128;" horiz-adv-x="320" 
d="M-50 890c27 66 60 125 135 125c60 0 94 -30 115 -48c19 -16 29 -27 39 -27c25 0 42 50 51 70l80 -30c-27 -66 -60 -125 -135 -125c-60 0 -94 30 -115 48c-19 16 -29 27 -39 27c-25 0 -42 -50 -51 -70zM75 0v780h170v-780h-170z" />
    <glyph glyph-name="itilde" unicode="&#x129;" horiz-adv-x="300" 
d="M-60 740c27 66 60 125 135 125c60 0 94 -30 115 -48c19 -16 29 -27 39 -27c25 0 42 50 51 70l80 -30c-27 -66 -60 -125 -135 -125c-60 0 -94 30 -115 48c-19 16 -29 27 -39 27c-25 0 -42 -50 -51 -70zM70 0v600h160v-600h-160z" />
    <glyph glyph-name="Imacron" unicode="&#x12a;" horiz-adv-x="320" 
d="M-50 880v100h420v-100h-420zM75 0v780h170v-780h-170z" />
    <glyph glyph-name="imacron" unicode="&#x12b;" horiz-adv-x="300" 
d="M-60 730v100h420v-100h-420zM70 0v600h160v-600h-160z" />
    <glyph glyph-name="Ibreve" unicode="&#x12c;" horiz-adv-x="320" 
d="M-50 984l96 31c11 -34 36 -80 114 -80s103 46 114 80l96 -31c-21 -68 -80 -144 -210 -144s-189 76 -210 144zM75 0v780h170v-780h-170z" />
    <glyph glyph-name="ibreve" unicode="&#x12d;" horiz-adv-x="300" 
d="M-60 834l96 31c11 -34 36 -80 114 -80s103 46 114 80l96 -31c-21 -68 -80 -144 -210 -144s-189 76 -210 144zM70 0v600h160v-600h-160z" />
    <glyph glyph-name="Iogonek" unicode="&#x12e;" horiz-adv-x="320" 
d="M75 0v780h170v-780h-28c-22 -28 -42 -69 -42 -125c0 -45 22 -55 45 -55c26 0 54 11 60 15l25 -73c-27 -14 -64 -22 -105 -22c-82 0 -125 50 -125 120c0 56 24 104 54 140h-54z" />
    <glyph glyph-name="iogonek" unicode="&#x12f;" horiz-adv-x="300" 
d="M70 0v600h160v-600h-23c-22 -28 -42 -69 -42 -125c0 -45 22 -55 45 -55c26 0 54 11 60 15l25 -73c-27 -14 -64 -22 -105 -22c-82 0 -125 50 -125 120c0 56 24 104 54 140h-49zM55 780c0 54 41 88 95 88s95 -34 95 -88s-41 -88 -95 -88s-95 34 -95 88z" />
    <glyph glyph-name="Idotaccent" unicode="&#x130;" horiz-adv-x="320" 
d="M65 930c0 54 41 88 95 88s95 -34 95 -88s-41 -88 -95 -88s-95 34 -95 88zM75 0v780h170v-780h-170z" />
    <glyph glyph-name="dotlessi" unicode="&#x131;" horiz-adv-x="300" 
d="M70 0v600h160v-600h-160z" />
    <glyph glyph-name="Jcircumflex" unicode="&#x134;" horiz-adv-x="520" 
d="M150 875l190 145h40l190 -145l-45 -50l-165 80l-165 -80zM5 143l170 12c7 -46 29 -56 50 -56c20 0 50 7 50 70v611h170v-611c0 -97 -76 -190 -220 -190c-143 0 -209 90 -220 164z" />
    <glyph glyph-name="jcircumflex" unicode="&#x135;" horiz-adv-x="310" 
d="M-50 725l190 145h40l190 -145l-45 -50l-165 80l-165 -80zM35 -226l-50 101c65 16 95 43 95 120v605h160v-615c0 -121 -101 -189 -205 -211z" />
    <glyph glyph-name="uni0136" unicode="&#x136;" horiz-adv-x="715" 
d="M347 -219h-7c-43 0 -75 26 -75 69c0 48 31 85 87 85c67 0 93 -51 93 -94c0 -109 -74 -167 -137 -191l-38 50c30 11 62 37 77 81zM75 0v780h164v-313l266 313l190 -13v-8l-303 -314l333 -437v-8h-199l-243 332l-44 -45v-287h-164z" />
    <glyph glyph-name="uni0137" unicode="&#x137;" horiz-adv-x="605" 
d="M347 -219h-7c-43 0 -75 26 -75 69c0 48 31 85 87 85c67 0 93 -51 93 -94c0 -109 -74 -167 -137 -191l-38 50c30 11 62 37 77 81zM80 0v810h152v-428l188 218l175 -10v-6l-238 -243l258 -335v-6h-182l-177 238l-24 -25v-213h-152z" />
    <glyph glyph-name="kgreenlandic" unicode="&#x138;" horiz-adv-x="610" 
d="M80 0v600h152v-218l188 218l175 -10v-6l-238 -243l258 -335v-6h-182l-177 238l-24 -25v-213h-152z" />
    <glyph glyph-name="Lacute" unicode="&#x139;" horiz-adv-x="570" 
d="M325 955l-245 -115l-40 60l220 160zM75 0v780h172v-650h313v-130h-485z" />
    <glyph glyph-name="lacute" unicode="&#x13a;" horiz-adv-x="315" 
d="M305 985l-245 -115l-40 60l220 160zM70 140v670h160v-655c0 -46 23 -62 85 -68l-30 -103c-87 6 -215 30 -215 156z" />
    <glyph glyph-name="uni013B" unicode="&#x13b;" horiz-adv-x="570" 
d="M307 -219h-7c-43 0 -75 26 -75 69c0 48 31 85 87 85c67 0 93 -51 93 -94c0 -109 -74 -167 -137 -191l-38 50c30 11 62 37 77 81zM75 0v780h172v-650h313v-130h-485z" />
    <glyph glyph-name="uni013C" unicode="&#x13c;" horiz-adv-x="315" 
d="M177 -219h-7c-43 0 -75 26 -75 69c0 48 31 85 87 85c67 0 93 -51 93 -94c0 -109 -74 -167 -137 -191l-38 50c30 11 62 37 77 81zM70 140v670h160v-655c0 -46 23 -62 85 -68l-30 -103c-87 6 -215 30 -215 156z" />
    <glyph glyph-name="Lcaron" unicode="&#x13d;" horiz-adv-x="570" 
d="M432 681h-7c-43 0 -75 26 -75 69c0 48 31 85 87 85c67 0 93 -51 93 -94c0 -109 -74 -167 -137 -191l-38 50c30 11 62 37 77 81zM75 0v780h172v-650h313v-130h-485z" />
    <glyph glyph-name="lcaron" unicode="&#x13e;" horiz-adv-x="525" 
d="M417 681h-7c-43 0 -75 26 -75 69c0 48 31 85 87 85c67 0 93 -51 93 -94c0 -109 -74 -167 -137 -191l-38 50c30 11 62 37 77 81zM70 140v670h160v-655c0 -46 23 -62 85 -68l-30 -103c-87 6 -215 30 -215 156z" />
    <glyph glyph-name="Ldot" unicode="&#x13f;" horiz-adv-x="570" 
d="M340 360c0 54 41 88 95 88s95 -34 95 -88s-41 -88 -95 -88s-95 34 -95 88zM75 0v780h172v-650h313v-130h-485z" />
    <glyph glyph-name="ldot" unicode="&#x140;" horiz-adv-x="510" 
d="M290 360c0 54 41 88 95 88s95 -34 95 -88s-41 -88 -95 -88s-95 34 -95 88zM70 140v670h160v-655c0 -46 23 -62 85 -68l-30 -103c-87 6 -215 30 -215 156z" />
    <glyph glyph-name="Lslash" unicode="&#x141;" horiz-adv-x="580" 
d="M257 486l106 69l12 -97l-118 -77v-251h313v-130h-485v269l-68 -44l-12 97l80 52v406h172v-294z" />
    <glyph glyph-name="lslash" unicode="&#x142;" horiz-adv-x="360" 
d="M240 478l118 77l12 -97l-130 -85v-218c0 -46 23 -62 85 -68l-30 -103c-87 6 -215 30 -215 156v129l-68 -44l-12 97l80 52v436h160v-332z" />
    <glyph glyph-name="Nacute" unicode="&#x143;" horiz-adv-x="790" 
d="M560 955l-245 -115l-40 60l220 160zM75 0v765l145 15l329 -507v507h166v-780h-145l-329 507v-507h-166z" />
    <glyph glyph-name="nacute" unicode="&#x144;" horiz-adv-x="655" 
d="M495 805l-245 -115l-40 60l220 160zM70 0v420l-10 171l145 12l16 -119c40 72 104 132 204 132c122 0 175 -106 175 -210v-406h-160v400c0 79 -37 90 -60 90c-67 0 -131 -85 -150 -185v-305h-160z" />
    <glyph glyph-name="uni0145" unicode="&#x145;" horiz-adv-x="790" 
d="M382 -219h-7c-43 0 -75 26 -75 69c0 48 31 85 87 85c67 0 93 -51 93 -94c0 -109 -74 -167 -137 -191l-38 50c30 11 62 37 77 81zM75 0v765l145 15l329 -507v507h166v-780h-145l-329 507v-507h-166z" />
    <glyph glyph-name="uni0146" unicode="&#x146;" horiz-adv-x="655" 
d="M347 -219h-7c-43 0 -75 26 -75 69c0 48 31 85 87 85c67 0 93 -51 93 -94c0 -109 -74 -167 -137 -191l-38 50c30 11 62 37 77 81zM70 0v420l-10 171l145 12l16 -119c40 72 104 132 204 132c122 0 175 -106 175 -210v-406h-160v400c0 79 -37 90 -60 90
c-67 0 -131 -85 -150 -185v-305h-160z" />
    <glyph glyph-name="Ncaron" unicode="&#x147;" horiz-adv-x="790" 
d="M605 980l-190 -145h-40l-190 145l45 50l165 -80l165 80zM75 0v765l145 15l329 -507v507h166v-780h-145l-329 507v-507h-166z" />
    <glyph glyph-name="ncaron" unicode="&#x148;" horiz-adv-x="655" 
d="M540 830l-190 -145h-40l-190 145l45 50l165 -80l165 80zM70 0v420l-10 171l145 12l16 -119c40 72 104 132 204 132c122 0 175 -106 175 -210v-406h-160v400c0 79 -37 90 -60 90c-67 0 -131 -85 -150 -185v-305h-160z" />
    <glyph glyph-name="napostrophe" unicode="&#x149;" horiz-adv-x="865" 
d="M280 0v420l-10 171l145 12l16 -119c40 72 104 132 204 132c122 0 175 -106 175 -210v-406h-160v400c0 79 -37 90 -60 90c-67 0 -131 -85 -150 -185v-305h-160zM10 818c0 53 35 92 95 92c79 0 110 -65 110 -125c0 -123 -84 -211 -157 -255l-48 64c44 27 82 72 95 140h-5
c-51 0 -90 32 -90 84z" />
    <glyph glyph-name="Omacron" unicode="&#x14c;" horiz-adv-x="820" 
d="M200 880v100h420v-100h-420zM45 373v34c0 174 76 394 365 394s365 -220 365 -394v-34c0 -174 -76 -394 -365 -394s-365 220 -365 394zM410 104c121 0 191 93 191 269v34c0 176 -70 269 -191 269s-191 -93 -191 -269v-34c0 -176 70 -269 191 -269z" />
    <glyph glyph-name="omacron" unicode="&#x14d;" horiz-adv-x="660" 
d="M120 730v100h420v-100h-420zM40 287v26c0 130 55 308 290 308s290 -178 290 -308v-26c0 -130 -55 -308 -290 -308s-290 178 -290 308zM330 93c75 0 130 60 130 194v26c0 134 -55 194 -130 194s-130 -60 -130 -194v-26c0 -134 55 -194 130 -194z" />
    <glyph glyph-name="Obreve" unicode="&#x14e;" horiz-adv-x="820" 
d="M200 984l96 31c11 -34 36 -80 114 -80s103 46 114 80l96 -31c-21 -68 -80 -144 -210 -144s-189 76 -210 144zM45 373v34c0 174 76 394 365 394s365 -220 365 -394v-34c0 -174 -76 -394 -365 -394s-365 220 -365 394zM410 104c121 0 191 93 191 269v34
c0 176 -70 269 -191 269s-191 -93 -191 -269v-34c0 -176 70 -269 191 -269z" />
    <glyph glyph-name="obreve" unicode="&#x14f;" horiz-adv-x="660" 
d="M120 834l96 31c11 -34 36 -80 114 -80s103 46 114 80l96 -31c-21 -68 -80 -144 -210 -144s-189 76 -210 144zM40 287v26c0 130 55 308 290 308s290 -178 290 -308v-26c0 -130 -55 -308 -290 -308s-290 178 -290 308zM330 93c75 0 130 60 130 194v26
c0 134 -55 194 -130 194s-130 -60 -130 -194v-26c0 -134 55 -194 130 -194z" />
    <glyph glyph-name="Ohungarumlaut" unicode="&#x150;" horiz-adv-x="820" 
d="M230 880l105 190l90 -65l-140 -165zM455 880l105 190l90 -65l-140 -165zM45 373v34c0 174 76 394 365 394s365 -220 365 -394v-34c0 -174 -76 -394 -365 -394s-365 220 -365 394zM410 104c121 0 191 93 191 269v34c0 176 -70 269 -191 269s-191 -93 -191 -269v-34
c0 -176 70 -269 191 -269z" />
    <glyph glyph-name="ohungarumlaut" unicode="&#x151;" horiz-adv-x="660" 
d="M150 730l105 190l90 -65l-140 -165zM375 730l105 190l90 -65l-140 -165zM40 287v26c0 130 55 308 290 308s290 -178 290 -308v-26c0 -130 -55 -308 -290 -308s-290 178 -290 308zM330 93c75 0 130 60 130 194v26c0 134 -55 194 -130 194s-130 -60 -130 -194v-26
c0 -134 55 -194 130 -194z" />
    <glyph glyph-name="OE" unicode="&#x152;" horiz-adv-x="980" 
d="M45 373v34c0 174 76 394 365 394c54 0 100 -7 140 -21h375v-130h-315v-205h275v-120h-275v-195h330v-130h-390c-40 -14 -86 -21 -140 -21c-289 0 -365 220 -365 394zM440 674c-9 1 -19 2 -30 2c-121 0 -191 -93 -191 -269v-34c0 -176 70 -269 191 -269c11 0 21 1 30 2
v568z" />
    <glyph glyph-name="oe" unicode="&#x153;" horiz-adv-x="960" 
d="M40 287v26c0 124 42 308 260 308c88 0 144 -30 181 -74c40 44 99 74 182 74c176 0 257 -136 257 -264c0 -31 -4 -62 -10 -92h-364c4 -118 44 -174 117 -174c59 0 87 40 93 76l154 -14c-12 -66 -89 -174 -247 -174c-85 0 -143 29 -183 73c-37 -43 -93 -73 -180 -73
c-218 0 -260 184 -260 308zM300 507c-53 0 -100 -54 -100 -194v-26c0 -140 47 -194 100 -194s100 54 100 194v26c0 140 -47 194 -100 194zM549 365h221c-2 107 -47 144 -107 144c-58 0 -102 -47 -114 -144z" />
    <glyph glyph-name="Racute" unicode="&#x154;" horiz-adv-x="730" 
d="M525 955l-245 -115l-40 60l220 160zM280 302c-12 0 -25 1 -37 1v-303h-168v310v470s137 9 275 9c200 0 335 -94 335 -244c0 -120 -86 -204 -223 -233l253 -304v-8h-192zM243 424c24 -1 55 -3 87 -3c102 0 187 25 187 124s-85 124 -187 124c-32 0 -63 -2 -87 -3v-242z" />
    <glyph glyph-name="racute" unicode="&#x155;" horiz-adv-x="435" 
d="M405 805l-245 -115l-40 60l220 160zM55 588l134 15l33 -120c26 72 72 133 157 133c28 0 51 -7 71 -17l-60 -130c-11 7 -23 11 -39 11c-49 0 -87 -73 -101 -166v-314h-160v450z" />
    <glyph glyph-name="uni0156" unicode="&#x156;" horiz-adv-x="730" 
d="M347 -219h-7c-43 0 -75 26 -75 69c0 48 31 85 87 85c67 0 93 -51 93 -94c0 -109 -74 -167 -137 -191l-38 50c30 11 62 37 77 81zM280 302c-12 0 -25 1 -37 1v-303h-168v310v470s137 9 275 9c200 0 335 -94 335 -244c0 -120 -86 -204 -223 -233l253 -304v-8h-192zM243 424
c24 -1 55 -3 87 -3c102 0 187 25 187 124s-85 124 -187 124c-32 0 -63 -2 -87 -3v-242z" />
    <glyph glyph-name="uni0157" unicode="&#x157;" horiz-adv-x="435" 
d="M157 -219h-7c-43 0 -75 26 -75 69c0 48 31 85 87 85c67 0 93 -51 93 -94c0 -109 -74 -167 -137 -191l-38 50c30 11 62 37 77 81zM55 588l134 15l33 -120c26 72 72 133 157 133c28 0 51 -7 71 -17l-60 -130c-11 7 -23 11 -39 11c-49 0 -87 -73 -101 -166v-314h-160v450z
" />
    <glyph glyph-name="Rcaron" unicode="&#x158;" horiz-adv-x="730" 
d="M570 980l-190 -145h-40l-190 145l45 50l165 -80l165 80zM280 302c-12 0 -25 1 -37 1v-303h-168v310v470s137 9 275 9c200 0 335 -94 335 -244c0 -120 -86 -204 -223 -233l253 -304v-8h-192zM243 424c24 -1 55 -3 87 -3c102 0 187 25 187 124s-85 124 -187 124
c-32 0 -63 -2 -87 -3v-242z" />
    <glyph glyph-name="rcaron" unicode="&#x159;" horiz-adv-x="435" 
d="M450 830l-190 -145h-40l-190 145l45 50l165 -80l165 80zM55 588l134 15l33 -120c26 72 72 133 157 133c28 0 51 -7 71 -17l-60 -130c-11 7 -23 11 -39 11c-49 0 -87 -73 -101 -166v-314h-160v450z" />
    <glyph glyph-name="Sacute" unicode="&#x15a;" horiz-adv-x="710" 
d="M520 955l-245 -115l-40 60l220 160zM40 184l168 24c9 -52 58 -107 147 -107c99 0 150 38 150 106c0 63 -46 81 -77 90c-56 15 -141 43 -198 63c-73 27 -173 88 -173 209c0 132 121 232 298 232c189 0 280 -123 295 -201l-168 -24c-9 52 -56 103 -127 103
c-81 0 -133 -40 -133 -102c0 -50 40 -65 82 -81c52 -18 135 -44 184 -59c87 -27 182 -90 182 -222c0 -133 -120 -236 -315 -236c-205 0 -300 125 -315 205z" />
    <glyph glyph-name="sacute" unicode="&#x15b;" horiz-adv-x="570" 
d="M450 805l-245 -115l-40 60l220 160zM30 143l155 20c6 -39 43 -72 106 -72c61 0 97 27 97 71c0 42 -35 57 -55 63c-44 13 -105 29 -148 45c-60 22 -140 62 -140 165c0 104 95 186 240 186c158 0 228 -97 240 -161l-155 -20c-6 39 -32 69 -85 69c-52 0 -88 -26 -88 -68
c0 -33 33 -48 58 -56c41 -13 105 -31 138 -41c72 -22 147 -63 147 -176c0 -106 -98 -189 -255 -189c-169 0 -243 98 -255 164z" />
    <glyph glyph-name="Scircumflex" unicode="&#x15c;" horiz-adv-x="710" 
d="M145 875l190 145h40l190 -145l-45 -50l-165 80l-165 -80zM40 184l168 24c9 -52 58 -107 147 -107c99 0 150 38 150 106c0 63 -46 81 -77 90c-56 15 -141 43 -198 63c-73 27 -173 88 -173 209c0 132 121 232 298 232c189 0 280 -123 295 -201l-168 -24
c-9 52 -56 103 -127 103c-81 0 -133 -40 -133 -102c0 -50 40 -65 82 -81c52 -18 135 -44 184 -59c87 -27 182 -90 182 -222c0 -133 -120 -236 -315 -236c-205 0 -300 125 -315 205z" />
    <glyph glyph-name="scircumflex" unicode="&#x15d;" horiz-adv-x="570" 
d="M75 725l190 145h40l190 -145l-45 -50l-165 80l-165 -80zM30 143l155 20c6 -39 43 -72 106 -72c61 0 97 27 97 71c0 42 -35 57 -55 63c-44 13 -105 29 -148 45c-60 22 -140 62 -140 165c0 104 95 186 240 186c158 0 228 -97 240 -161l-155 -20c-6 39 -32 69 -85 69
c-52 0 -88 -26 -88 -68c0 -33 33 -48 58 -56c41 -13 105 -31 138 -41c72 -22 147 -63 147 -176c0 -106 -98 -189 -255 -189c-169 0 -243 98 -255 164z" />
    <glyph glyph-name="Scedilla" unicode="&#x15e;" horiz-adv-x="710" 
d="M275 -265c71 16 140 44 140 90c0 14 -10 25 -55 25c-12 0 -28 -3 -40 -5l-45 45l50 90c-184 12 -271 128 -285 204l168 24c9 -52 58 -107 147 -107c99 0 150 38 150 106c0 63 -46 81 -77 90c-56 15 -141 43 -198 63c-73 27 -173 88 -173 209c0 132 121 232 298 232
c189 0 280 -123 295 -201l-168 -24c-9 52 -56 103 -127 103c-81 0 -133 -40 -133 -102c0 -50 40 -65 82 -81c52 -18 135 -44 184 -59c87 -27 182 -90 182 -222c0 -120 -97 -215 -259 -233l-34 -62c83 0 138 -29 138 -95c0 -116 -162 -148 -215 -160z" />
    <glyph glyph-name="scedilla" unicode="&#x15f;" horiz-adv-x="570" 
d="M205 -265c71 16 140 44 140 90c0 14 -10 25 -55 25c-12 0 -28 -3 -40 -5l-45 45l50 90c-148 11 -214 101 -225 163l155 20c6 -39 43 -72 106 -72c61 0 97 27 97 71c0 42 -35 57 -55 63c-44 13 -105 29 -148 45c-60 22 -140 62 -140 165c0 104 95 186 240 186
c158 0 228 -97 240 -161l-155 -20c-6 39 -32 69 -85 69c-52 0 -88 -26 -88 -68c0 -33 33 -48 58 -56c41 -13 105 -31 138 -41c72 -22 147 -63 147 -176c0 -93 -74 -167 -198 -185l-35 -63c83 0 138 -29 138 -95c0 -116 -162 -148 -215 -160z" />
    <glyph glyph-name="Scaron" unicode="&#x160;" horiz-adv-x="710" 
d="M565 980l-190 -145h-40l-190 145l45 50l165 -80l165 80zM40 184l168 24c9 -52 58 -107 147 -107c99 0 150 38 150 106c0 63 -46 81 -77 90c-56 15 -141 43 -198 63c-73 27 -173 88 -173 209c0 132 121 232 298 232c189 0 280 -123 295 -201l-168 -24
c-9 52 -56 103 -127 103c-81 0 -133 -40 -133 -102c0 -50 40 -65 82 -81c52 -18 135 -44 184 -59c87 -27 182 -90 182 -222c0 -133 -120 -236 -315 -236c-205 0 -300 125 -315 205z" />
    <glyph glyph-name="scaron" unicode="&#x161;" horiz-adv-x="570" 
d="M495 830l-190 -145h-40l-190 145l45 50l165 -80l165 80zM30 143l155 20c6 -39 43 -72 106 -72c61 0 97 27 97 71c0 42 -35 57 -55 63c-44 13 -105 29 -148 45c-60 22 -140 62 -140 165c0 104 95 186 240 186c158 0 228 -97 240 -161l-155 -20c-6 39 -32 69 -85 69
c-52 0 -88 -26 -88 -68c0 -33 33 -48 58 -56c41 -13 105 -31 138 -41c72 -22 147 -63 147 -176c0 -106 -98 -189 -255 -189c-169 0 -243 98 -255 164z" />
    <glyph glyph-name="uni0162" unicode="&#x162;" horiz-adv-x="620" 
d="M215 -265c71 16 140 44 140 90c0 14 -10 25 -55 25c-12 0 -28 -3 -40 -5l-45 45l61 110h-51v655h-210v125h590v-125h-210v-655h-34l-44 -80c83 0 138 -29 138 -95c0 -116 -162 -148 -215 -160z" />
    <glyph glyph-name="uni0163" unicode="&#x163;" horiz-adv-x="415" 
d="M165 -265c71 16 140 44 140 90c0 14 -10 25 -55 25c-12 0 -28 -3 -40 -5l-45 45l55 99c-73 14 -120 60 -120 151v360h-80v100h86v123l151 12v-135h133v-100h-130v-336c0 -53 10 -66 39 -66c35 0 71 13 84 21l37 -104c-28 -14 -66 -27 -117 -30l-36 -65
c83 0 138 -29 138 -95c0 -116 -162 -148 -215 -160z" />
    <glyph glyph-name="Tcaron" unicode="&#x164;" horiz-adv-x="620" 
d="M520 980l-190 -145h-40l-190 145l45 50l165 -80l165 80zM15 655v125h590v-125h-210v-655h-170v655h-210z" />
    <glyph glyph-name="tcaron" unicode="&#x165;" horiz-adv-x="625" 
d="M517 681h-7c-43 0 -75 26 -75 69c0 48 31 85 87 85c67 0 93 -51 93 -94c0 -109 -74 -167 -137 -191l-38 50c30 11 62 37 77 81zM20 500v100h86v123l151 12v-135h133v-100h-130v-336c0 -53 10 -66 39 -66c35 0 71 13 84 21l37 -104c-32 -16 -78 -31 -142 -31
c-105 0 -178 43 -178 156v360h-80z" />
    <glyph glyph-name="Utilde" unicode="&#x168;" horiz-adv-x="770" 
d="M175 890c27 66 60 125 135 125c60 0 94 -30 115 -48c19 -16 29 -27 39 -27c25 0 42 50 51 70l80 -30c-27 -66 -60 -125 -135 -125c-60 0 -94 30 -115 48c-19 16 -29 27 -39 27c-25 0 -42 -50 -51 -70zM65 246v534h172v-534c0 -103 65 -143 148 -143s148 40 148 143v534
h172v-534c0 -147 -123 -267 -320 -267s-320 120 -320 267z" />
    <glyph glyph-name="utilde" unicode="&#x169;" horiz-adv-x="620" 
d="M100 740c27 66 60 125 135 125c60 0 94 -30 115 -48c19 -16 29 -27 39 -27c25 0 42 50 51 70l80 -30c-27 -66 -60 -125 -135 -125c-60 0 -94 30 -115 48c-19 16 -29 27 -39 27c-25 0 -42 -50 -51 -70zM50 194v406h160v-406c0 -76 46 -101 100 -101s100 25 100 101v406
h160v-406c0 -116 -98 -215 -260 -215s-260 99 -260 215z" />
    <glyph glyph-name="Umacron" unicode="&#x16a;" horiz-adv-x="770" 
d="M175 880v100h420v-100h-420zM65 246v534h172v-534c0 -103 65 -143 148 -143s148 40 148 143v534h172v-534c0 -147 -123 -267 -320 -267s-320 120 -320 267z" />
    <glyph glyph-name="umacron" unicode="&#x16b;" horiz-adv-x="620" 
d="M100 730v100h420v-100h-420zM50 194v406h160v-406c0 -76 46 -101 100 -101s100 25 100 101v406h160v-406c0 -116 -98 -215 -260 -215s-260 99 -260 215z" />
    <glyph glyph-name="Ubreve" unicode="&#x16c;" horiz-adv-x="770" 
d="M175 984l96 31c11 -34 36 -80 114 -80s103 46 114 80l96 -31c-21 -68 -80 -144 -210 -144s-189 76 -210 144zM65 246v534h172v-534c0 -103 65 -143 148 -143s148 40 148 143v534h172v-534c0 -147 -123 -267 -320 -267s-320 120 -320 267z" />
    <glyph glyph-name="ubreve" unicode="&#x16d;" horiz-adv-x="620" 
d="M100 834l96 31c11 -34 36 -80 114 -80s103 46 114 80l96 -31c-21 -68 -80 -144 -210 -144s-189 76 -210 144zM50 194v406h160v-406c0 -76 46 -101 100 -101s100 25 100 101v406h160v-406c0 -116 -98 -215 -260 -215s-260 99 -260 215z" />
    <glyph glyph-name="Uring" unicode="&#x16e;" horiz-adv-x="770" 
d="M385 795c-74 0 -130 46 -130 120s56 120 130 120s130 -46 130 -120s-56 -120 -130 -120zM385 865c32 0 50 21 50 50s-18 50 -50 50s-50 -21 -50 -50s18 -50 50 -50zM65 246v534h172v-534c0 -103 65 -143 148 -143s148 40 148 143v534h172v-534
c0 -147 -123 -267 -320 -267s-320 120 -320 267z" />
    <glyph glyph-name="uring" unicode="&#x16f;" horiz-adv-x="620" 
d="M310 645c-74 0 -130 46 -130 120s56 120 130 120s130 -46 130 -120s-56 -120 -130 -120zM310 715c32 0 50 21 50 50s-18 50 -50 50s-50 -21 -50 -50s18 -50 50 -50zM50 194v406h160v-406c0 -76 46 -101 100 -101s100 25 100 101v406h160v-406c0 -116 -98 -215 -260 -215
s-260 99 -260 215z" />
    <glyph glyph-name="Uhungarumlaut" unicode="&#x170;" horiz-adv-x="770" 
d="M205 880l105 190l90 -65l-140 -165zM430 880l105 190l90 -65l-140 -165zM65 246v534h172v-534c0 -103 65 -143 148 -143s148 40 148 143v534h172v-534c0 -147 -123 -267 -320 -267s-320 120 -320 267z" />
    <glyph glyph-name="uhungarumlaut" unicode="&#x171;" horiz-adv-x="620" 
d="M130 730l105 190l90 -65l-140 -165zM355 730l105 190l90 -65l-140 -165zM50 194v406h160v-406c0 -76 46 -101 100 -101s100 25 100 101v406h160v-406c0 -116 -98 -215 -260 -215s-260 99 -260 215z" />
    <glyph glyph-name="Uogonek" unicode="&#x172;" horiz-adv-x="770" 
d="M65 246v534h172v-534c0 -103 65 -143 148 -143s148 40 148 143v534h172v-534c0 -103 -60 -194 -165 -238c-25 -28 -50 -71 -50 -133c0 -45 22 -55 45 -55c26 0 54 11 60 15l25 -73c-27 -14 -64 -22 -105 -22c-82 0 -125 50 -125 120c0 47 17 88 40 121
c-15 -1 -30 -2 -45 -2c-197 0 -320 120 -320 267z" />
    <glyph glyph-name="uogonek" unicode="&#x173;" horiz-adv-x="620" 
d="M50 194v406h160v-406c0 -76 46 -101 100 -101s100 25 100 101v406h160v-406c0 -82 -49 -156 -136 -192c-23 -28 -44 -70 -44 -127c0 -45 22 -55 45 -55c26 0 54 11 60 15l25 -73c-27 -14 -64 -22 -105 -22c-82 0 -125 50 -125 120c0 46 17 86 39 119h-19
c-162 0 -260 99 -260 215z" />
    <glyph glyph-name="Wcircumflex" unicode="&#x174;" horiz-adv-x="1060" 
d="M320 875l190 145h40l190 -145l-45 -50l-165 80l-165 -80zM10 754v10l185 16l126 -533l139 513h140l139 -513l126 533l185 -16v-10l-225 -754h-145l-150 518l-150 -518h-145z" />
    <glyph glyph-name="wcircumflex" unicode="&#x175;" horiz-adv-x="830" 
d="M205 725l190 145h40l190 -145l-45 -50l-165 80l-165 -80zM825 580l-173 -580h-135l-102 362l-102 -362h-135l-173 580v8l170 12l84 -364l93 349h126l93 -349l84 364l170 -12v-8z" />
    <glyph glyph-name="Ycircumflex" unicode="&#x176;" horiz-adv-x="670" 
d="M125 875l190 145h40l190 -145l-45 -50l-165 80l-165 -80zM-5 754v11l190 15l150 -330l150 330l190 -15v-11l-255 -464v-290h-170v290z" />
    <glyph glyph-name="ycircumflex" unicode="&#x177;" horiz-adv-x="600" 
d="M90 725l190 145h40l190 -145l-45 -50l-165 80l-165 -80zM0 580v8l175 12l127 -400l123 400l175 -12v-8l-235 -595c-50 -109 -87 -216 -227 -216c-58 0 -101 22 -128 42l75 94c15 -13 31 -26 48 -26c39 0 60 40 99 129z" />
    <glyph glyph-name="Ydieresis" unicode="&#x178;" horiz-adv-x="670" 
d="M210 1009c49 0 85 -30 85 -79s-36 -79 -85 -79s-85 30 -85 79s36 79 85 79zM460 1009c49 0 85 -30 85 -79s-36 -79 -85 -79s-85 30 -85 79s36 79 85 79zM-5 754v11l190 15l150 -330l150 330l190 -15v-11l-255 -464v-290h-170v290z" />
    <glyph glyph-name="Zacute" unicode="&#x179;" horiz-adv-x="670" 
d="M500 955l-245 -115l-40 60l220 160zM20 96l393 554h-363v130h577l12 -96l-391 -554h402v-130h-618z" />
    <glyph glyph-name="zacute" unicode="&#x17a;" horiz-adv-x="530" 
d="M430 805l-245 -115l-40 60l220 160zM15 79l285 411h-260v110h460l9 -79l-285 -411h291v-110h-491z" />
    <glyph glyph-name="Zdotaccent" unicode="&#x17b;" horiz-adv-x="670" 
d="M240 930c0 54 41 88 95 88s95 -34 95 -88s-41 -88 -95 -88s-95 34 -95 88zM20 96l393 554h-363v130h577l12 -96l-391 -554h402v-130h-618z" />
    <glyph glyph-name="zdotaccent" unicode="&#x17c;" horiz-adv-x="530" 
d="M170 780c0 54 41 88 95 88s95 -34 95 -88s-41 -88 -95 -88s-95 34 -95 88zM15 79l285 411h-260v110h460l9 -79l-285 -411h291v-110h-491z" />
    <glyph glyph-name="Zcaron" unicode="&#x17d;" horiz-adv-x="670" 
d="M545 980l-190 -145h-40l-190 145l45 50l165 -80l165 80zM20 96l393 554h-363v130h577l12 -96l-391 -554h402v-130h-618z" />
    <glyph glyph-name="zcaron" unicode="&#x17e;" horiz-adv-x="530" 
d="M475 830l-190 -145h-40l-190 145l45 50l165 -80l165 80zM15 79l285 411h-260v110h460l9 -79l-285 -411h291v-110h-491z" />
    <glyph glyph-name="uni018F" unicode="&#x18f;" horiz-adv-x="780" 
d="M735 407v-34c0 -172 -74 -394 -359 -394c-235 0 -341 165 -341 334c0 37 6 78 15 117h520c-6 161 -78 249 -194 249c-88 0 -141 -60 -150 -112l-168 16c15 82 109 218 318 218c285 0 359 -222 359 -394zM568 320h-368v-7c0 -149 75 -214 176 -214c108 0 178 78 192 221z
" />
    <glyph glyph-name="florin" unicode="&#x192;" horiz-adv-x="400" 
d="M20 500v100h80v67c0 58 37 164 183 164c84 0 138 -40 152 -51l-66 -85c-12 8 -41 26 -74 26c-24 0 -40 -20 -40 -54v-67h135v-100h-130v-515c0 -121 -101 -189 -205 -211l-50 101c65 16 95 43 95 120v505h-80z" />
    <glyph glyph-name="Ohorn" unicode="&#x1a0;" horiz-adv-x="820" 
d="M410 104c121 0 191 93 191 269v34c0 176 -70 269 -191 269s-191 -93 -191 -269v-34c0 -176 70 -269 191 -269zM45 373v34c0 174 76 394 365 394c98 0 173 -25 227 -66c15 12 28 32 28 65c0 29 -16 50 -25 60l95 55c22 -22 40 -59 40 -110c0 -60 -39 -100 -84 -123
c62 -78 84 -183 84 -275v-34c0 -174 -76 -394 -365 -394s-365 220 -365 394z" />
    <glyph glyph-name="ohorn" unicode="&#x1a1;" horiz-adv-x="660" 
d="M330 93c75 0 130 60 130 194v26c0 134 -55 194 -130 194s-130 -60 -130 -194v-26c0 -134 55 -194 130 -194zM40 287v26c0 130 55 308 290 308c85 0 146 -23 190 -59c11 12 20 31 20 58c0 29 -16 50 -25 60l95 55c22 -22 40 -59 40 -110c0 -58 -36 -98 -79 -121
c37 -59 49 -130 49 -191v-26c0 -130 -55 -308 -290 -308s-290 178 -290 308z" />
    <glyph glyph-name="Uhorn" unicode="&#x1af;" horiz-adv-x="780" 
d="M65 246v534h172v-534c0 -103 65 -143 148 -143s148 40 148 143v504h30l65 -14c14 12 27 32 27 64c0 29 -16 50 -25 60l95 55c22 -22 40 -59 40 -110c0 -49 -26 -85 -60 -109v-450c0 -147 -123 -267 -320 -267s-320 120 -320 267z" />
    <glyph glyph-name="uhorn" unicode="&#x1b0;" horiz-adv-x="635" 
d="M50 194v406h160v-406c0 -76 46 -101 100 -101s100 25 100 101v376h30l55 -13c14 12 25 32 25 63c0 29 -16 50 -25 60l95 55c22 -22 40 -59 40 -110c0 -49 -26 -85 -60 -109v-322c0 -116 -98 -215 -260 -215s-260 99 -260 215z" />
    <glyph glyph-name="uni01CD" unicode="&#x1cd;" horiz-adv-x="750" 
d="M585 980l-190 -145h-40l-190 145l45 50l165 -80l165 80zM750 0h-190l-49 150h-272l-49 -150h-190v11l305 769h140l305 -769v-11zM472 270l-97 296l-97 -296h194z" />
    <glyph glyph-name="uni01CE" unicode="&#x1ce;" horiz-adv-x="625" 
d="M520 830l-190 -145h-40l-190 145l45 50l165 -80l165 80zM40 174c0 75 63 156 213 156c52 0 103 -3 147 -7v89c0 74 -47 95 -100 95c-47 0 -86 -26 -95 -92l-160 12c13 92 92 194 255 194c157 0 255 -93 255 -209v-257c0 -46 8 -62 55 -68l-40 -103c-36 5 -99 18 -129 72
c-36 -41 -90 -72 -171 -72c-146 0 -230 76 -230 190zM408 230c-41 5 -95 9 -146 9c-28 0 -67 -17 -67 -67c0 -71 50 -93 95 -93c77 0 108 56 118 124v27z" />
    <glyph glyph-name="uni01CF" unicode="&#x1cf;" horiz-adv-x="320" 
d="M370 980l-190 -145h-40l-190 145l45 50l165 -80l165 80zM75 0v780h170v-780h-170z" />
    <glyph glyph-name="uni01D0" unicode="&#x1d0;" horiz-adv-x="300" 
d="M360 830l-190 -145h-40l-190 145l45 50l165 -80l165 80zM70 0v600h160v-600h-160z" />
    <glyph glyph-name="uni01D1" unicode="&#x1d1;" horiz-adv-x="820" 
d="M620 980l-190 -145h-40l-190 145l45 50l165 -80l165 80zM45 373v34c0 174 76 394 365 394s365 -220 365 -394v-34c0 -174 -76 -394 -365 -394s-365 220 -365 394zM410 104c121 0 191 93 191 269v34c0 176 -70 269 -191 269s-191 -93 -191 -269v-34
c0 -176 70 -269 191 -269z" />
    <glyph glyph-name="uni01D2" unicode="&#x1d2;" horiz-adv-x="660" 
d="M540 830l-190 -145h-40l-190 145l45 50l165 -80l165 80zM40 287v26c0 130 55 308 290 308s290 -178 290 -308v-26c0 -130 -55 -308 -290 -308s-290 178 -290 308zM330 93c75 0 130 60 130 194v26c0 134 -55 194 -130 194s-130 -60 -130 -194v-26c0 -134 55 -194 130 -194
z" />
    <glyph glyph-name="uni01D3" unicode="&#x1d3;" horiz-adv-x="770" 
d="M595 980l-190 -145h-40l-190 145l45 50l165 -80l165 80zM65 246v534h172v-534c0 -103 65 -143 148 -143s148 40 148 143v534h172v-534c0 -147 -123 -267 -320 -267s-320 120 -320 267z" />
    <glyph glyph-name="uni01D4" unicode="&#x1d4;" horiz-adv-x="620" 
d="M520 830l-190 -145h-40l-190 145l45 50l165 -80l165 80zM50 194v406h160v-406c0 -76 46 -101 100 -101s100 25 100 101v406h160v-406c0 -116 -98 -215 -260 -215s-260 99 -260 215z" />
    <glyph glyph-name="uni01D5" unicode="&#x1d5;" horiz-adv-x="770" 
d="M175 1060v100h420v-100h-420zM260 1009c49 0 85 -30 85 -79s-36 -79 -85 -79s-85 30 -85 79s36 79 85 79zM510 1009c49 0 85 -30 85 -79s-36 -79 -85 -79s-85 30 -85 79s36 79 85 79zM65 246v534h172v-534c0 -103 65 -143 148 -143s148 40 148 143v534h172v-534
c0 -147 -123 -267 -320 -267s-320 120 -320 267z" />
    <glyph glyph-name="uni01D6" unicode="&#x1d6;" horiz-adv-x="620" 
d="M100 910v100h420v-100h-420zM185 859c49 0 85 -30 85 -79s-36 -79 -85 -79s-85 30 -85 79s36 79 85 79zM435 859c49 0 85 -30 85 -79s-36 -79 -85 -79s-85 30 -85 79s36 79 85 79zM50 194v406h160v-406c0 -76 46 -101 100 -101s100 25 100 101v406h160v-406
c0 -116 -98 -215 -260 -215s-260 99 -260 215z" />
    <glyph glyph-name="uni01D7" unicode="&#x1d7;" horiz-adv-x="770" 
d="M550 1135l-245 -115l-40 60l220 160zM260 1009c49 0 85 -30 85 -79s-36 -79 -85 -79s-85 30 -85 79s36 79 85 79zM510 1009c49 0 85 -30 85 -79s-36 -79 -85 -79s-85 30 -85 79s36 79 85 79zM65 246v534h172v-534c0 -103 65 -143 148 -143s148 40 148 143v534h172v-534
c0 -147 -123 -267 -320 -267s-320 120 -320 267z" />
    <glyph glyph-name="uni01D8" unicode="&#x1d8;" horiz-adv-x="620" 
d="M475 985l-245 -115l-40 60l220 160zM185 859c49 0 85 -30 85 -79s-36 -79 -85 -79s-85 30 -85 79s36 79 85 79zM435 859c49 0 85 -30 85 -79s-36 -79 -85 -79s-85 30 -85 79s36 79 85 79zM50 194v406h160v-406c0 -76 46 -101 100 -101s100 25 100 101v406h160v-406
c0 -116 -98 -215 -260 -215s-260 99 -260 215z" />
    <glyph glyph-name="uni01D9" unicode="&#x1d9;" horiz-adv-x="770" 
d="M595 1160l-190 -145h-40l-190 145l45 50l165 -80l165 80zM260 1009c49 0 85 -30 85 -79s-36 -79 -85 -79s-85 30 -85 79s36 79 85 79zM510 1009c49 0 85 -30 85 -79s-36 -79 -85 -79s-85 30 -85 79s36 79 85 79zM65 246v534h172v-534c0 -103 65 -143 148 -143
s148 40 148 143v534h172v-534c0 -147 -123 -267 -320 -267s-320 120 -320 267z" />
    <glyph glyph-name="uni01DA" unicode="&#x1da;" horiz-adv-x="620" 
d="M520 1010l-190 -145h-40l-190 145l45 50l165 -80l165 80zM185 859c49 0 85 -30 85 -79s-36 -79 -85 -79s-85 30 -85 79s36 79 85 79zM435 859c49 0 85 -30 85 -79s-36 -79 -85 -79s-85 30 -85 79s36 79 85 79zM50 194v406h160v-406c0 -76 46 -101 100 -101
s100 25 100 101v406h160v-406c0 -116 -98 -215 -260 -215s-260 99 -260 215z" />
    <glyph glyph-name="uni01DB" unicode="&#x1db;" horiz-adv-x="770" 
d="M220 1135l65 105l220 -160l-40 -60zM260 1009c49 0 85 -30 85 -79s-36 -79 -85 -79s-85 30 -85 79s36 79 85 79zM510 1009c49 0 85 -30 85 -79s-36 -79 -85 -79s-85 30 -85 79s36 79 85 79zM65 246v534h172v-534c0 -103 65 -143 148 -143s148 40 148 143v534h172v-534
c0 -147 -123 -267 -320 -267s-320 120 -320 267z" />
    <glyph glyph-name="uni01DC" unicode="&#x1dc;" horiz-adv-x="620" 
d="M145 985l65 105l220 -160l-40 -60zM185 859c49 0 85 -30 85 -79s-36 -79 -85 -79s-85 30 -85 79s36 79 85 79zM435 859c49 0 85 -30 85 -79s-36 -79 -85 -79s-85 30 -85 79s36 79 85 79zM50 194v406h160v-406c0 -76 46 -101 100 -101s100 25 100 101v406h160v-406
c0 -116 -98 -215 -260 -215s-260 99 -260 215z" />
    <glyph glyph-name="Gcaron" unicode="&#x1e6;" horiz-adv-x="770" 
d="M620 980l-190 -145h-40l-190 145l45 50l165 -80l165 80zM415 285v120h310v-270c-41 -69 -139 -156 -313 -156c-289 0 -367 221 -367 396v30c0 175 78 396 367 396c212 0 303 -137 318 -219l-172 -16c-9 50 -58 109 -146 109c-121 0 -193 -89 -193 -270v-30
c0 -181 72 -270 193 -270c86 0 132 26 158 55v125h-155z" />
    <glyph glyph-name="gcaron" unicode="&#x1e7;" horiz-adv-x="670" 
d="M570 830l-190 -145h-40l-190 145l45 50l165 -80l165 80zM40 315c0 125 66 301 255 301c73 0 126 -38 164 -89l10 73h136v-615c0 -120 -100 -216 -258 -216c-154 0 -235 72 -252 114l148 42c7 -16 38 -47 104 -47c63 0 108 29 108 107v113c-37 -48 -90 -84 -160 -84
c-189 0 -255 176 -255 301zM450 364c-18 79 -64 136 -135 136c-65 0 -115 -53 -115 -185s50 -185 115 -185c71 0 117 57 135 136v98z" />
    <glyph glyph-name="uni01EA" unicode="&#x1ea;" horiz-adv-x="820" 
d="M410 104c121 0 191 93 191 269v34c0 176 -70 269 -191 269s-191 -93 -191 -269v-34c0 -176 70 -269 191 -269zM45 373v34c0 174 76 394 365 394s365 -220 365 -394v-34c0 -148 -55 -329 -248 -380c-20 -28 -37 -67 -37 -118c0 -45 22 -55 45 -55c26 0 54 11 60 15l25 -73
c-27 -14 -64 -22 -105 -22c-82 0 -125 50 -125 120c0 46 17 86 39 119h-19c-289 0 -365 220 -365 394z" />
    <glyph glyph-name="uni01EB" unicode="&#x1eb;" horiz-adv-x="660" 
d="M330 93c75 0 130 60 130 194v26c0 134 -55 194 -130 194s-130 -60 -130 -194v-26c0 -134 55 -194 130 -194zM40 287v26c0 130 55 308 290 308s290 -178 290 -308v-26c0 -104 -35 -238 -168 -288c-22 -28 -42 -69 -42 -124c0 -45 22 -55 45 -55c26 0 54 11 60 15l25 -73
c-27 -14 -64 -22 -105 -22c-82 0 -125 50 -125 120c0 46 17 86 39 119h-19c-235 0 -290 178 -290 308z" />
    <glyph glyph-name="uni0218" unicode="&#x218;" horiz-adv-x="710" 
d="M342 -219h-7c-43 0 -75 26 -75 69c0 48 31 85 87 85c67 0 93 -51 93 -94c0 -109 -74 -167 -137 -191l-38 50c30 11 62 37 77 81zM40 184l168 24c9 -52 58 -107 147 -107c99 0 150 38 150 106c0 63 -46 81 -77 90c-56 15 -141 43 -198 63c-73 27 -173 88 -173 209
c0 132 121 232 298 232c189 0 280 -123 295 -201l-168 -24c-9 52 -56 103 -127 103c-81 0 -133 -40 -133 -102c0 -50 40 -65 82 -81c52 -18 135 -44 184 -59c87 -27 182 -90 182 -222c0 -133 -120 -236 -315 -236c-205 0 -300 125 -315 205z" />
    <glyph glyph-name="uni0219" unicode="&#x219;" horiz-adv-x="570" 
d="M272 -219h-7c-43 0 -75 26 -75 69c0 48 31 85 87 85c67 0 93 -51 93 -94c0 -109 -74 -167 -137 -191l-38 50c30 11 62 37 77 81zM30 143l155 20c6 -39 43 -72 106 -72c61 0 97 27 97 71c0 42 -35 57 -55 63c-44 13 -105 29 -148 45c-60 22 -140 62 -140 165
c0 104 95 186 240 186c158 0 228 -97 240 -161l-155 -20c-6 39 -32 69 -85 69c-52 0 -88 -26 -88 -68c0 -33 33 -48 58 -56c41 -13 105 -31 138 -41c72 -22 147 -63 147 -176c0 -106 -98 -189 -255 -189c-169 0 -243 98 -255 164z" />
    <glyph glyph-name="uni021A" unicode="&#x21a;" horiz-adv-x="620" 
d="M297 -219h-7c-43 0 -75 26 -75 69c0 48 31 85 87 85c67 0 93 -51 93 -94c0 -109 -74 -167 -137 -191l-38 50c30 11 62 37 77 81zM15 655v125h590v-125h-210v-655h-170v655h-210z" />
    <glyph glyph-name="uni021B" unicode="&#x21b;" horiz-adv-x="415" 
d="M267 -219h-7c-43 0 -75 26 -75 69c0 48 31 85 87 85c67 0 93 -51 93 -94c0 -109 -74 -167 -137 -191l-38 50c30 11 62 37 77 81zM20 500v100h86v123l151 12v-135h133v-100h-130v-336c0 -53 10 -66 39 -66c35 0 71 13 84 21l37 -104c-32 -16 -78 -31 -142 -31
c-105 0 -178 43 -178 156v360h-80z" />
    <glyph glyph-name="uni0237" unicode="&#x237;" horiz-adv-x="310" 
d="M35 -226l-50 101c65 16 95 43 95 120v605h160v-615c0 -121 -101 -189 -205 -211z" />
    <glyph glyph-name="uni0251" unicode="&#x251;" horiz-adv-x="675" 
d="M40 290v20c0 130 66 306 255 306c73 0 126 -38 164 -89l10 73h136v-445c0 -46 8 -62 55 -68l-40 -103c-44 6 -130 25 -143 116c-38 -64 -97 -116 -182 -116c-189 0 -255 176 -255 306zM450 364c-18 79 -64 136 -135 136c-65 0 -115 -53 -115 -190v-20
c0 -137 50 -190 115 -190c71 0 117 57 135 136v128z" />
    <glyph glyph-name="uni0259" unicode="&#x259;" horiz-adv-x="640" 
d="M600 313v-26c0 -131 -60 -308 -288 -308c-186 0 -272 136 -272 264c0 31 4 62 10 92h393c-6 118 -58 174 -131 174c-59 0 -97 -40 -103 -76l-154 14c12 66 86 174 257 174c233 0 288 -177 288 -308zM441 235h-251c2 -107 57 -144 122 -144c66 0 116 47 129 144z" />
    <glyph glyph-name="uni0261" unicode="&#x261;" horiz-adv-x="670" 
d="M40 315c0 125 66 301 255 301c73 0 126 -38 164 -89l10 73h136v-615c0 -120 -100 -216 -258 -216c-154 0 -235 72 -252 114l148 42c7 -16 38 -47 104 -47c63 0 108 29 108 107v113c-37 -48 -90 -84 -160 -84c-189 0 -255 176 -255 301zM450 364c-18 79 -64 136 -135 136
c-65 0 -115 -53 -115 -185s50 -185 115 -185c71 0 117 57 135 136v98z" />
    <glyph glyph-name="uni02BB" unicode="&#x2bb;" horiz-adv-x="240" 
d="M215 632c0 -53 -35 -92 -95 -92c-79 0 -110 65 -110 125c0 123 84 211 157 255l48 -64c-44 -27 -82 -72 -95 -140h5c51 0 90 -32 90 -84z" />
    <glyph glyph-name="uni02BC" unicode="&#x2bc;" horiz-adv-x="240" 
d="M10 818c0 53 35 92 95 92c79 0 110 -65 110 -125c0 -123 -84 -211 -157 -255l-48 64c44 27 82 72 95 140h-5c-51 0 -90 32 -90 84z" />
    <glyph glyph-name="uni02BD" unicode="&#x2bd;" horiz-adv-x="240" 
d="M215 818c0 -52 -39 -84 -90 -84h-5c13 -68 51 -113 95 -140l-48 -64c-73 44 -157 132 -157 255c0 60 31 125 110 125c60 0 95 -39 95 -92z" />
    <glyph glyph-name="uni02BE" unicode="&#x2be;" horiz-adv-x="180" 
d="M155 765c0 -74 -56 -120 -130 -120v70c32 0 50 21 50 50s-18 50 -50 50v70c74 0 130 -46 130 -120z" />
    <glyph glyph-name="uni02BF" unicode="&#x2bf;" horiz-adv-x="180" 
d="M25 765c0 74 56 120 130 120v-70c-32 0 -50 -21 -50 -50s18 -50 50 -50v-70c-74 0 -130 46 -130 120z" />
    <glyph glyph-name="circumflex" unicode="&#x2c6;" horiz-adv-x="510" 
d="M45 725l190 145h40l190 -145l-45 -50l-165 80l-165 -80z" />
    <glyph glyph-name="caron" unicode="&#x2c7;" horiz-adv-x="510" 
d="M465 830l-190 -145h-40l-190 145l45 50l165 -80l165 80z" />
    <glyph glyph-name="uni02C8" unicode="&#x2c8;" horiz-adv-x="210" 
d="M50 675v225h110v-225h-110z" />
    <glyph glyph-name="uni02C9" unicode="&#x2c9;" horiz-adv-x="510" 
d="M45 730v100h420v-100h-420z" />
    <glyph glyph-name="uni02CA" unicode="&#x2ca;" horiz-adv-x="330" 
d="M315 805l-245 -115l-40 60l220 160z" />
    <glyph glyph-name="uni02CB" unicode="&#x2cb;" horiz-adv-x="330" 
d="M15 805l65 105l220 -160l-40 -60z" />
    <glyph glyph-name="uni02CC" unicode="&#x2cc;" horiz-adv-x="210" 
d="M50 -300v225h110v-225h-110z" />
    <glyph glyph-name="uni02D7" unicode="&#x2d7;" horiz-adv-x="330" 
d="M0 420h330v-120h-330v120z" />
    <glyph glyph-name="breve" unicode="&#x2d8;" horiz-adv-x="510" 
d="M45 834l96 31c11 -34 36 -80 114 -80s103 46 114 80l96 -31c-21 -68 -80 -144 -210 -144s-189 76 -210 144z" />
    <glyph glyph-name="dotaccent" unicode="&#x2d9;" horiz-adv-x="330" 
d="M70 780c0 54 41 88 95 88s95 -34 95 -88s-41 -88 -95 -88s-95 34 -95 88z" />
    <glyph glyph-name="ring" unicode="&#x2da;" horiz-adv-x="330" 
d="M165 645c-74 0 -130 46 -130 120s56 120 130 120s130 -46 130 -120s-56 -120 -130 -120zM165 715c32 0 50 21 50 50s-18 50 -50 50s-50 -21 -50 -50s18 -50 50 -50z" />
    <glyph glyph-name="ogonek" unicode="&#x2db;" horiz-adv-x="330" 
d="M75 -140c0 88 60 154 105 190l50 -36c-27 -27 -55 -73 -55 -139c0 -45 22 -55 45 -55c26 0 54 11 60 15l25 -73c-27 -14 -64 -22 -105 -22c-82 0 -125 50 -125 120z" />
    <glyph glyph-name="tilde" unicode="&#x2dc;" horiz-adv-x="510" 
d="M45 740c27 66 60 125 135 125c60 0 94 -30 115 -48c19 -16 29 -27 39 -27c25 0 42 50 51 70l80 -30c-27 -66 -60 -125 -135 -125c-60 0 -94 30 -115 48c-19 16 -29 27 -39 27c-25 0 -42 -50 -51 -70z" />
    <glyph glyph-name="hungarumlaut" unicode="&#x2dd;" horiz-adv-x="510" 
d="M45 730l105 190l90 -65l-140 -165zM270 730l105 190l90 -65l-140 -165z" />
    <glyph glyph-name="uni0300" unicode="&#x300;" 
d="M-165 805l65 105l220 -160l-40 -60z" />
    <glyph glyph-name="uni0301" unicode="&#x301;" 
d="M165 805l-245 -115l-40 60l220 160z" />
    <glyph glyph-name="uni0302" unicode="&#x302;" 
d="M-210 725l190 145h40l190 -145l-45 -50l-165 80l-165 -80z" />
    <glyph glyph-name="uni0303" unicode="&#x303;" 
d="M-210 740c27 66 60 125 135 125c60 0 94 -30 115 -48c19 -16 29 -27 39 -27c25 0 42 50 51 70l80 -30c-27 -66 -60 -125 -135 -125c-60 0 -94 30 -115 48c-19 16 -29 27 -39 27c-25 0 -42 -50 -51 -70z" />
    <glyph glyph-name="uni0304" unicode="&#x304;" 
d="M-210 730v100h420v-100h-420z" />
    <glyph glyph-name="uni0305" unicode="&#x305;" 
d="M-300 730v100h600v-100h-600z" />
    <glyph glyph-name="uni0306" unicode="&#x306;" 
d="M-210 834l96 31c11 -34 36 -80 114 -80s103 46 114 80l96 -31c-21 -68 -80 -144 -210 -144s-189 76 -210 144z" />
    <glyph glyph-name="uni0307" unicode="&#x307;" 
d="M-95 780c0 54 41 88 95 88s95 -34 95 -88s-41 -88 -95 -88s-95 34 -95 88z" />
    <glyph glyph-name="uni0308" unicode="&#x308;" 
d="M-125 859c49 0 85 -30 85 -79s-36 -79 -85 -79s-85 30 -85 79s36 79 85 79zM125 859c49 0 85 -30 85 -79s-36 -79 -85 -79s-85 30 -85 79s36 79 85 79z" />
    <glyph glyph-name="uni0309" unicode="&#x309;" 
d="M-120 875c29 17 69 30 122 30c66 0 118 -33 118 -95c0 -95 -83 -122 -150 -140l-25 50c45 18 80 38 80 70c0 22 -11 30 -42 30c-29 0 -72 -14 -93 -24z" />
    <glyph glyph-name="uni030A" unicode="&#x30a;" 
d="M0 645c-74 0 -130 46 -130 120s56 120 130 120s130 -46 130 -120s-56 -120 -130 -120zM0 715c32 0 50 21 50 50s-18 50 -50 50s-50 -21 -50 -50s18 -50 50 -50z" />
    <glyph glyph-name="uni030B" unicode="&#x30b;" 
d="M-180 730l105 190l90 -65l-140 -165zM45 730l105 190l90 -65l-140 -165z" />
    <glyph glyph-name="uni030C" unicode="&#x30c;" 
d="M210 830l-190 -145h-40l-190 145l45 50l165 -80l165 80z" />
    <glyph glyph-name="uni030D" unicode="&#x30d;" 
d="M-55 675v225h110v-225h-110z" />
    <glyph glyph-name="uni030E" unicode="&#x30e;" 
d="M45 675v225h105v-225h-105zM-150 675v225h105v-225h-105z" />
    <glyph glyph-name="uni030F" unicode="&#x30f;" 
d="M180 730l-55 -40l-140 165l90 65zM-45 730l-55 -40l-140 165l90 65z" />
    <glyph glyph-name="uni0311" unicode="&#x311;" 
d="M210 706l-96 -31c-11 34 -36 80 -114 80s-103 -46 -114 -80l-96 31c21 68 80 144 210 144s189 -76 210 -144z" />
    <glyph glyph-name="uni0312" unicode="&#x312;" 
d="M13 849h7c43 0 75 -26 75 -69c0 -48 -31 -85 -87 -85c-67 0 -93 51 -93 94c0 109 74 167 137 191l38 -50c-30 -11 -62 -37 -77 -81z" />
    <glyph glyph-name="uni0313" unicode="&#x313;" 
d="M-13 821h-7c-43 0 -75 26 -75 69c0 48 31 85 87 85c67 0 93 -51 93 -94c0 -109 -74 -167 -137 -191l-38 50c30 11 62 37 77 81z" />
    <glyph glyph-name="uni0314" unicode="&#x314;" 
d="M95 890c0 -43 -32 -69 -75 -69h-7c15 -44 47 -70 77 -81l-38 -50c-63 24 -137 82 -137 191c0 43 26 94 90 94c56 0 90 -37 90 -85z" />
    <glyph glyph-name="uni0315" unicode="&#x315;" horiz-adv-x="240" 
d="M102 681h-7c-43 0 -75 26 -75 69c0 48 31 85 87 85c67 0 93 -51 93 -94c0 -109 -74 -167 -137 -191l-38 50c30 11 62 37 77 81z" />
    <glyph glyph-name="uni031B" unicode="&#x31b;" horiz-adv-x="60" 
d="M-85 480l-25 60c16 3 60 20 60 80c0 29 -16 50 -25 60l95 55c22 -22 40 -59 40 -110c0 -88 -83 -132 -145 -145z" />
    <glyph glyph-name="uni0323" unicode="&#x323;" 
d="M-95 -180c0 54 41 88 95 88s95 -34 95 -88s-41 -88 -95 -88s-95 34 -95 88z" />
    <glyph glyph-name="uni0324" unicode="&#x324;" 
d="M-125 -101c49 0 85 -30 85 -79s-36 -79 -85 -79s-85 30 -85 79s36 79 85 79zM125 -101c49 0 85 -30 85 -79s-36 -79 -85 -79s-85 30 -85 79s36 79 85 79z" />
    <glyph glyph-name="uni0326" unicode="&#x326;" 
d="M-13 -219h-7c-43 0 -75 26 -75 69c0 48 31 85 87 85c67 0 93 -51 93 -94c0 -109 -74 -167 -137 -191l-38 50c30 11 62 37 77 81z" />
    <glyph glyph-name="uni0327" unicode="&#x327;" 
d="M-105 -265c71 16 140 44 140 90c0 14 -10 25 -55 25c-12 0 -28 -3 -40 -5l-45 45l75 135h85l-58 -105c83 0 138 -29 138 -95c0 -116 -162 -148 -215 -160z" />
    <glyph glyph-name="uni0328" unicode="&#x328;" 
d="M-90 -140c0 88 60 154 105 190l50 -36c-27 -27 -55 -73 -55 -139c0 -45 22 -55 45 -55c26 0 54 11 60 15l25 -73c-27 -14 -64 -22 -105 -22c-82 0 -125 50 -125 120z" />
    <glyph glyph-name="uni0329" unicode="&#x329;" 
d="M-55 -300v225h110v-225h-110z" />
    <glyph glyph-name="uni032E" unicode="&#x32e;" 
d="M-210 -101l96 31c11 -34 36 -80 114 -80s103 46 114 80l96 -31c-21 -68 -80 -144 -210 -144s-189 76 -210 144z" />
    <glyph glyph-name="uni0331" unicode="&#x331;" 
d="M-210 -230v100h420v-100h-420z" />
    <glyph glyph-name="uni0332" unicode="&#x332;" 
d="M-300 -230v100h600v-100h-600z" />
    <glyph glyph-name="uni034F" unicode="&#x34f;" 
 />
    <glyph glyph-name="uni0351" unicode="&#x351;" 
d="M-85 765c0 74 56 120 130 120v-70c-32 0 -50 -21 -50 -50s18 -50 50 -50v-70c-74 0 -130 46 -130 120z" />
    <glyph glyph-name="uni0357" unicode="&#x357;" 
d="M85 765c0 -74 -56 -120 -130 -120v70c32 0 50 21 50 50s-18 50 -50 50v70c74 0 130 -46 130 -120z" />
    <glyph glyph-name="uni0358" unicode="&#x358;" horiz-adv-x="180" 
d="M-30 600c0 54 41 88 95 88s95 -34 95 -88s-41 -88 -95 -88s-95 34 -95 88z" />
    <glyph glyph-name="pi" unicode="&#x3c0;" horiz-adv-x="660" 
d="M20 490v110h620v-110h-80v-335c0 -46 23 -62 85 -68l-30 -103c-87 6 -215 30 -215 156v350h-140v-490h-160v490h-80z" />
    <glyph glyph-name="uni0E01" unicode="&#xe01;" horiz-adv-x="655" 
d="M85 0v290c0 46 22 79 64 95l-114 24c15 105 106 212 280 212c170 0 280 -100 280 -230v-391h-150v391c0 86 -54 120 -130 120c-57 0 -99 -24 -119 -72l129 -29l-15 -60s-19 5 -35 5c-35 0 -40 -25 -40 -50v-305h-150z" />
    <glyph glyph-name="uni0E02" unicode="&#xe02;" horiz-adv-x="635" 
d="M84 470c0 -19 11 -33 31 -33s31 14 31 33s-11 33 -31 33s-31 -14 -31 -33zM0 470c0 76 68 145 194 145s196 -68 196 -160c0 -135 -140 -183 -140 -288c0 -54 41 -78 85 -78c43 0 85 21 85 95v416h150v-416c0 -110 -86 -205 -235 -205c-148 0 -235 78 -235 176
c0 166 180 196 180 310c0 43 -27 67 -75 73c16 -17 25 -40 25 -68c0 -65 -50 -105 -115 -105s-115 40 -115 105z" />
    <glyph glyph-name="uni0E03" unicode="&#xe03;" horiz-adv-x="635" 
d="M84 506c0 -19 11 -33 31 -33s31 14 31 33s-11 33 -31 33s-31 -14 -31 -33zM282 461c-32 -42 -77 -71 -152 -71c-78 0 -130 46 -130 116c0 65 50 105 115 105s109 -40 109 -105c0 -5 0 -10 -1 -15c27 29 48 69 62 109l50 6c23 -17 55 -68 55 -136
c0 -135 -140 -198 -140 -303c0 -54 41 -78 85 -78c43 0 85 21 85 95v416h150v-416c0 -110 -86 -205 -235 -205c-148 0 -235 78 -235 176c0 153 158 194 182 306z" />
    <glyph glyph-name="uni0E04" unicode="&#xe04;" horiz-adv-x="665" 
d="M330 348c-20 0 -31 -14 -31 -33s11 -33 31 -33s31 14 31 33s-11 33 -31 33zM330 420c65 0 115 -40 115 -105s-50 -105 -115 -105c-32 0 -60 10 -80 27c-14 -31 -20 -74 -20 -147v-90h-161s10 69 10 115c0 95 -24 125 -24 276c0 129 107 230 275 230s275 -101 275 -230
v-391h-150v90c0 80 6 109 6 301c0 87 -54 120 -131 120s-131 -33 -131 -120v-76c11 29 27 55 51 75c21 18 48 30 80 30z" />
    <glyph glyph-name="uni0E05" unicode="&#xe05;" horiz-adv-x="665" 
d="M330 348c-20 0 -31 -14 -31 -33s11 -33 31 -33s31 14 31 33s-11 33 -31 33zM330 420c65 0 115 -40 115 -105s-50 -105 -115 -105c-32 0 -60 10 -80 27c-14 -31 -20 -74 -20 -147v-90h-161s10 69 10 115c0 95 -24 125 -24 276c0 75 20 224 185 224l90 -75l90 75
c165 0 185 -149 185 -224v-391h-150v90c0 80 6 109 6 301c0 85 -15 112 -37 119l-78 -60h-16h-16l-78 60c-22 -7 -37 -34 -37 -119v-76c11 29 27 55 51 75c21 18 48 30 80 30z" />
    <glyph glyph-name="uni0E06" unicode="&#xe06;" horiz-adv-x="650" 
d="M94 506c0 -19 11 -33 31 -33s31 14 31 33s-11 33 -31 33s-31 -14 -31 -33zM580 600v-600h-138c-36 48 -84 94 -163 112c1 -6 1 -12 1 -18c0 -65 -50 -105 -115 -105s-115 40 -115 105c0 46 25 79 63 95c21 126 157 168 179 271c-32 -41 -77 -70 -152 -70
c-78 0 -130 46 -130 116c0 65 50 105 115 105s109 -40 109 -105c0 -5 0 -10 -1 -15c27 29 48 69 62 109l50 6c23 -17 55 -68 55 -136c0 -120 -111 -183 -135 -270c74 -11 128 -41 168 -73c-2 34 -3 70 -3 103v370h150zM196 94c0 19 -11 33 -31 33s-31 -14 -31 -33
s11 -33 31 -33s31 14 31 33z" />
    <glyph glyph-name="uni0E07" unicode="&#xe07;" horiz-adv-x="525" 
d="M-5 318l90 84l241 -275c-8 21 -16 50 -16 83v75c0 59 15 82 24 119c-9 -2 -19 -3 -29 -3c-65 0 -115 40 -115 105s50 105 115 105c107 0 160 -62 160 -150c0 -54 -10 -117 -10 -191v-270h-160zM274 506c0 -19 11 -33 31 -33s31 14 31 33s-11 33 -31 33s-31 -14 -31 -33z
" />
    <glyph glyph-name="uni0E08" unicode="&#xe08;" horiz-adv-x="590" 
d="M221 255c0 19 -11 33 -31 33s-31 -14 -31 -33s11 -33 31 -33s31 14 31 33zM475 90v-90h-160c0 63 -18 135 -40 181c-21 -20 -51 -31 -85 -31c-65 0 -115 40 -115 105s50 105 115 105c99 0 148 -88 171 -176c5 81 24 122 24 225c0 76 -45 102 -110 102
c-60 0 -101 -30 -110 -97l-150 10c13 97 98 197 260 197c157 0 260 -92 260 -212c0 -144 -60 -215 -60 -319z" />
    <glyph glyph-name="uni0E09" unicode="&#xe09;" horiz-adv-x="645" 
d="M115 0v109c0 18 6 32 14 44c-49 11 -84 48 -84 102c0 65 50 105 115 105s115 -40 115 -105c0 -48 -16 -68 -16 -115v-17c37 36 89 67 166 78v9v191c0 81 -49 110 -120 110c-66 0 -110 -35 -120 -106l-150 12c14 101 102 204 270 204c163 0 270 -95 270 -220v-161
c0 -22 -10 -38 -23 -51c38 -16 63 -49 63 -95c0 -65 -50 -105 -115 -105s-115 40 -115 105c0 5 1 10 1 14c-62 -20 -100 -63 -133 -108h-138zM469 94c0 -19 11 -33 31 -33s31 14 31 33s-11 33 -31 33s-31 -14 -31 -33zM191 255c0 19 -11 33 -31 33s-31 -14 -31 -33
s11 -33 31 -33s31 14 31 33z" />
    <glyph glyph-name="uni0E0A" unicode="&#xe0a;" horiz-adv-x="640" 
d="M84 470c0 -19 11 -33 31 -33s31 14 31 33s-11 33 -31 33s-31 -14 -31 -33zM386 415c-24 -106 -136 -154 -136 -248c0 -54 41 -78 85 -78c43 0 85 21 85 95v176c0 30 -8 47 -34 55zM570 360v-176c0 -110 -86 -205 -235 -205c-148 0 -235 78 -235 176
c0 166 180 196 180 310c0 43 -27 67 -75 73c16 -17 25 -40 25 -68c0 -65 -50 -105 -115 -105s-115 40 -115 105c0 76 68 145 194 145c107 0 173 -49 191 -120c65 14 85 57 85 132l150 -12c0 -74 -47 -133 -127 -160c48 -18 77 -50 77 -95z" />
    <glyph glyph-name="uni0E0B" unicode="&#xe0b;" horiz-adv-x="640" 
d="M84 506c0 -19 11 -33 31 -33s31 14 31 33s-11 33 -31 33s-31 -14 -31 -33zM493 455c48 -18 77 -50 77 -95v-176c0 -110 -86 -205 -235 -205c-148 0 -235 78 -235 176c0 153 158 194 182 306c-32 -42 -77 -71 -152 -71c-78 0 -130 46 -130 116c0 65 50 105 115 105
s109 -40 109 -105c0 -5 0 -10 -1 -15c27 29 48 69 62 109l50 6c20 -15 47 -56 54 -111c63 14 81 59 81 132l150 -12c0 -74 -47 -133 -127 -160zM420 360c0 32 -9 49 -38 56c-30 -100 -132 -159 -132 -249c0 -54 41 -78 85 -78c43 0 85 21 85 95v176z" />
    <glyph glyph-name="uni0E0C" unicode="&#xe0c;" horiz-adv-x="950" 
d="M159 94c0 -19 11 -33 31 -33s31 14 31 33s-11 33 -31 33s-31 -14 -31 -33zM880 600v-600h-138c-33 47 -69 92 -137 111v-17c0 -65 -50 -105 -115 -105s-115 40 -115 105c0 54 34 91 83 102c-8 12 -13 26 -13 44v151c0 86 -54 120 -130 120c-57 0 -99 -24 -119 -72
l129 -29l-15 -60s-19 5 -35 5c-35 0 -40 -25 -40 -50v-65c0 -18 -6 -32 -14 -44c49 -11 84 -48 84 -102c0 -65 -50 -105 -115 -105s-115 40 -115 105c0 48 10 69 10 116v80c0 46 22 79 64 95l-114 24c15 105 106 212 280 212c170 0 280 -100 280 -230v-181v-12
c62 -12 106 -40 138 -70c-2 34 -3 69 -3 102v370h150zM521 94c0 19 -11 33 -31 33s-31 -14 -31 -33s11 -33 31 -33s31 14 31 33z" />
    <glyph glyph-name="uni0E0D" unicode="&#xe0d;" horiz-adv-x="950" 
d="M560 -121c-18 0 -28 -12 -28 -29s10 -29 28 -29s28 12 28 29s-10 29 -28 29zM560 -58c57 0 100 -35 100 -92c0 -18 -5 -33 -12 -46h7h10c54 0 95 24 95 122l110 -12c0 -110 -75 -180 -185 -180h-70c-92 0 -155 43 -155 116c0 57 43 92 100 92zM159 94
c0 -19 11 -33 31 -33s31 14 31 33s-11 33 -31 33s-31 -14 -31 -33zM315 621c170 0 280 -100 280 -230v-221c0 -65 36 -81 70 -81s70 16 70 81v430h150v-430c0 -101 -80 -191 -220 -191s-220 90 -220 191v221c0 86 -54 120 -130 120c-57 0 -99 -24 -119 -72l129 -29l-15 -60
s-19 5 -35 5c-35 0 -40 -25 -40 -50v-65c0 -18 -6 -32 -14 -44c49 -11 84 -48 84 -102c0 -65 -50 -105 -115 -105s-115 40 -115 105c0 48 10 69 10 116v80c0 46 22 79 64 95l-114 24c15 105 106 212 280 212z" />
    <glyph glyph-name="uni0E0E" unicode="&#xe0e;" horiz-adv-x="665" 
d="M181 94c0 19 -11 33 -31 33s-31 -14 -31 -33s11 -33 31 -33s31 14 31 33zM325 621c170 0 280 -100 280 -230v-456v-170h-135c-46 33 -107 66 -160 89v-4c0 -38 -32 -100 -110 -100c-70 0 -110 45 -110 100c0 58 43 100 115 100c62 0 165 -40 253 -90c-2 22 -3 47 -3 75
v456c0 86 -54 120 -130 120c-57 0 -98 -24 -118 -71l138 -30l-15 -60s-19 5 -35 5c-35 0 -40 -25 -40 -50v-65v-30c0 -47 10 -68 10 -116c0 -65 -50 -105 -115 -105s-115 40 -115 105c0 54 35 91 84 102c-8 12 -14 26 -14 44v50c0 46 21 78 63 94l-123 25
c15 105 106 212 280 212zM234 -119c-10 2 -18 4 -24 4c-15 0 -35 -6 -35 -35c0 -26 17 -35 30 -35c24 0 37 16 37 35c0 13 -3 23 -8 31z" />
    <glyph glyph-name="uni0E0F" unicode="&#xe0f;" horiz-adv-x="665" 
d="M181 94c0 19 -11 33 -31 33s-31 -14 -31 -33s11 -33 31 -33s31 14 31 33zM325 621c170 0 280 -100 280 -230v-456v-170h-135l-110 87c-10 -15 -23 -32 -40 -47c-31 -27 -76 -55 -130 -55c-72 0 -115 42 -115 100c0 55 40 100 110 100c64 0 97 -42 107 -78
c21 29 33 63 33 63h45l88 -72c-2 21 -3 45 -3 72v456c0 86 -54 120 -130 120c-57 0 -98 -24 -118 -71l138 -30l-15 -60s-19 5 -35 5c-35 0 -40 -25 -40 -50v-65v-30c0 -47 10 -68 10 -116c0 -65 -50 -105 -115 -105s-115 40 -115 105c0 54 35 91 84 102c-8 12 -14 26 -14 44
v50c0 46 21 78 63 94l-123 25c15 105 106 212 280 212zM218 -182c5 8 9 18 9 32c0 19 -13 35 -37 35c-13 0 -30 -9 -30 -35c0 -29 20 -35 35 -35c8 0 15 1 23 3z" />
    <glyph glyph-name="uni0E10" unicode="&#xe10;" horiz-adv-x="555" 
d="M415 -65h110v-170h-95l-83 83c-10 -14 -22 -29 -37 -43c-31 -27 -76 -55 -130 -55c-72 0 -115 42 -115 100c0 55 40 100 110 100c64 0 97 -42 107 -78c21 29 33 63 33 63h45l57 -59c-1 18 -2 38 -2 59zM208 -182c5 8 9 18 9 32c0 19 -13 35 -37 35c-13 0 -30 -9 -30 -35
c0 -29 20 -35 35 -35c8 0 15 1 23 3zM181 225c0 19 -11 33 -31 33s-31 -14 -31 -33s11 -33 31 -33s31 14 31 33zM326 147c4 41 14 87 14 129c0 79 -96 105 -305 105v35c0 120 94 205 230 205c68 0 116 -23 148 -49c2 5 5 10 7 14l15 29l110 -21v-6l-95 -118h-45
c-17 21 -52 51 -115 51c-49 0 -98 -17 -111 -73c184 -10 306 -46 306 -152c0 -73 -50 -159 -50 -236v-60h-160c0 57 -13 117 -32 159c-21 -25 -54 -39 -93 -39c-65 0 -115 40 -115 105s50 105 115 105c107 0 155 -94 176 -183z" />
    <glyph glyph-name="uni0E11" unicode="&#xe11;" horiz-adv-x="665" 
d="M115 0v155c0 154 145 194 167 306c-32 -42 -76 -71 -152 -71c-78 0 -130 46 -130 116c0 65 50 105 115 105s109 -40 109 -105c0 -5 0 -10 -1 -15c27 29 48 69 62 109l50 6c15 -11 35 -37 46 -74c34 47 75 79 119 79c92 0 100 -86 100 -131v-480h-150v452
c0 12 -2 29 -10 33c-16 -10 -37 -35 -56 -66c-25 -102 -119 -161 -119 -252v-167h-150zM84 506c0 -19 11 -33 31 -33s31 14 31 33s-11 33 -31 33s-31 -14 -31 -33z" />
    <glyph glyph-name="uni0E12" unicode="&#xe12;" horiz-adv-x="960" 
d="M890 600v-600h-138c-33 47 -69 92 -137 111v-17c0 -65 -50 -105 -115 -105s-115 40 -115 105c0 56 37 92 88 102c-7 12 -12 26 -12 44v151c0 85 -15 113 -37 119l-78 -60h-16h-16l-78 60c-23 -6 -43 -34 -43 -119c0 -137 17 -169 17 -231c0 -15 -1 -29 -2 -42
c35 38 79 63 112 92c-60 4 -105 43 -105 105c0 65 50 105 115 105s115 -40 115 -105c0 -155 -174 -198 -205 -315h-171s10 69 10 115c0 95 -24 125 -24 276c0 75 20 224 185 224l90 -75l90 75c165 0 185 -149 185 -224v-181v-12c62 -12 106 -40 138 -70c-2 34 -3 69 -3 102
v370h150zM531 94c0 19 -11 33 -31 33s-31 -14 -31 -33s11 -33 31 -33s31 14 31 33zM330 282c20 0 31 14 31 33s-11 33 -31 33s-31 -14 -31 -33s11 -33 31 -33z" />
    <glyph glyph-name="uni0E13" unicode="&#xe13;" horiz-adv-x="960" 
d="M159 94c0 -19 11 -33 31 -33s31 14 31 33s-11 33 -31 33s-31 -14 -31 -33zM779 94c0 -19 11 -33 31 -33s31 14 31 33s-11 33 -31 33s-31 -14 -31 -33zM885 600v-360c0 -22 -10 -38 -23 -51c38 -16 63 -49 63 -95c0 -65 -50 -105 -115 -105s-115 40 -115 105c0 4 1 8 1 12
c-53 -21 -84 -63 -113 -106h-138v391c0 86 -54 120 -130 120c-57 0 -99 -24 -119 -72l129 -29l-15 -60s-19 5 -35 5c-35 0 -40 -25 -40 -50v-65c0 -18 -6 -32 -14 -44c49 -11 84 -48 84 -102c0 -65 -50 -105 -115 -105s-115 40 -115 105c0 48 10 69 10 116v80
c0 46 22 79 64 95l-114 24c15 105 106 212 280 212c170 0 280 -100 280 -230v-161c0 -31 -1 -65 -3 -97c33 31 78 58 142 68c0 3 1 6 1 9v390h150z" />
    <glyph glyph-name="uni0E14" unicode="&#xe14;" horiz-adv-x="665" 
d="M330 282c20 0 31 14 31 33s-11 33 -31 33s-31 -14 -31 -33s11 -33 31 -33zM455 0v90c0 80 6 109 6 301c0 87 -54 120 -131 120s-137 -33 -137 -120c0 -137 17 -169 17 -231c0 -15 -1 -29 -2 -42c35 38 79 63 112 92c-60 4 -105 43 -105 105c0 65 50 105 115 105
s115 -40 115 -105c0 -155 -174 -198 -205 -315h-171s10 69 10 115c0 95 -24 125 -24 276c0 129 107 230 275 230s275 -101 275 -230v-391h-150z" />
    <glyph glyph-name="uni0E15" unicode="&#xe15;" horiz-adv-x="665" 
d="M330 282c20 0 31 14 31 33s-11 33 -31 33s-31 -14 -31 -33s11 -33 31 -33zM455 0v90c0 80 6 109 6 301c0 85 -15 112 -37 119l-78 -60h-16h-16l-78 60c-23 -7 -43 -34 -43 -119c0 -137 17 -169 17 -231c0 -15 -1 -29 -2 -42c35 38 79 63 112 92c-60 4 -105 43 -105 105
c0 65 50 105 115 105s115 -40 115 -105c0 -155 -174 -198 -205 -315h-171s10 69 10 115c0 95 -24 125 -24 276c0 75 20 224 185 224l90 -75l90 75c165 0 185 -149 185 -224v-391h-150z" />
    <glyph glyph-name="uni0E16" unicode="&#xe16;" horiz-adv-x="655" 
d="M159 94c0 -19 11 -33 31 -33s31 14 31 33s-11 33 -31 33s-31 -14 -31 -33zM221 196c49 -11 84 -48 84 -102c0 -65 -50 -105 -115 -105s-115 40 -115 105c0 48 10 69 10 116v80c0 46 22 79 64 95l-114 24c15 105 106 212 280 212c170 0 280 -100 280 -230v-391h-150v391
c0 86 -54 120 -130 120c-57 0 -99 -24 -119 -72l129 -29l-15 -60s-19 5 -35 5c-35 0 -40 -25 -40 -50v-65c0 -18 -6 -32 -14 -44z" />
    <glyph glyph-name="uni0E17" unicode="&#xe17;" horiz-adv-x="660" 
d="M255 0h-150v360c0 18 6 32 14 44c-49 11 -84 48 -84 102c0 65 50 105 115 105s115 -40 115 -105c0 -48 -10 -69 -10 -116v-30c41 128 107 251 210 251c104 0 130 -86 130 -131v-480h-150v452c0 12 -2 29 -10 33c-82 -47 -164 -308 -180 -410v-75zM181 506
c0 19 -11 33 -31 33s-31 -14 -31 -33s11 -33 31 -33s31 14 31 33z" />
    <glyph glyph-name="uni0E18" unicode="&#xe18;" horiz-adv-x="585" 
d="M560 588l-95 -118h-45c-17 21 -52 51 -115 51c-50 0 -100 -17 -112 -77c193 -8 337 -42 337 -148v-112c0 -110 -86 -205 -235 -205s-235 95 -235 205v116h150v-116c0 -74 42 -95 85 -95s85 21 85 95v92c0 79 -121 95 -330 95v45c0 120 94 205 230 205
c68 0 117 -24 149 -50c2 5 4 11 6 15l15 29l110 -21v-6z" />
    <glyph glyph-name="uni0E19" unicode="&#xe19;" horiz-adv-x="650" 
d="M469 94c0 -19 11 -33 31 -33s31 14 31 33s-11 33 -31 33s-31 -14 -31 -33zM575 600v-360c0 -22 -10 -38 -23 -51c38 -16 63 -49 63 -95c0 -65 -50 -105 -115 -105s-115 40 -115 105c0 5 0 10 1 15c-69 -20 -109 -63 -143 -109h-138v360c0 18 6 32 14 44
c-49 11 -84 48 -84 102c0 65 50 105 115 105s115 -40 115 -105c0 -48 -10 -69 -10 -116v-160c0 -32 -1 -67 -3 -100c40 33 95 63 173 72v8v390h150zM181 506c0 19 -11 33 -31 33s-31 -14 -31 -33s11 -33 31 -33s31 14 31 33z" />
    <glyph glyph-name="uni0E1A" unicode="&#xe1a;" horiz-adv-x="700" 
d="M176 506c0 19 -11 33 -31 33s-31 -14 -31 -33s11 -33 31 -33s31 14 31 33zM114 404c-49 11 -84 48 -84 102c0 65 50 105 115 105s115 -40 115 -105c0 -48 -10 -69 -10 -116v-194c0 -78 48 -107 115 -107s115 29 115 107v404h150v-404c0 -122 -104 -217 -265 -217
s-265 95 -265 217v164c0 18 6 32 14 44z" />
    <glyph glyph-name="uni0E1B" unicode="&#xe1b;" horiz-adv-x="700" 
d="M176 506c0 19 -11 33 -31 33s-31 -14 -31 -33s11 -33 31 -33s31 14 31 33zM114 404c-49 11 -84 48 -84 102c0 65 50 105 115 105s115 -40 115 -105c0 -48 -10 -69 -10 -116v-194c0 -78 48 -107 115 -107s115 29 115 107v614h150v-614c0 -122 -104 -217 -265 -217
s-265 95 -265 217v164c0 18 6 32 14 44z" />
    <glyph glyph-name="uni0E1C" unicode="&#xe1c;" horiz-adv-x="715" 
d="M500 235v365h145v-600h-140l-145 255l-145 -255h-140v270c0 74 -20 137 -20 191c0 88 63 150 170 150c65 0 115 -40 115 -105s-50 -105 -115 -105c-13 0 -25 2 -37 5c12 -39 32 -61 32 -121v-50c0 -17 -1 -34 -4 -50l99 175h45h45l99 -175c-3 16 -4 33 -4 50zM256 506
c0 19 -11 33 -31 33s-31 -14 -31 -33s11 -33 31 -33s31 14 31 33z" />
    <glyph glyph-name="uni0E1D" unicode="&#xe1d;" horiz-adv-x="715" 
d="M500 235v575h145v-810h-140l-145 255l-145 -255h-140v270c0 74 -20 137 -20 191c0 88 63 150 170 150c65 0 115 -40 115 -105s-50 -105 -115 -105c-13 0 -25 2 -37 5c12 -39 32 -61 32 -121v-50c0 -17 -1 -34 -4 -50l99 175h45h45l99 -175c-3 16 -4 33 -4 50zM256 506
c0 19 -11 33 -31 33s-31 -14 -31 -33s11 -33 31 -33s31 14 31 33z" />
    <glyph glyph-name="uni0E1E" unicode="&#xe1e;" horiz-adv-x="735" 
d="M665 600v-600h-130l-150 345l-150 -345h-130v360c0 18 6 32 14 44c-49 11 -84 48 -84 102c0 65 50 105 115 105s115 -40 115 -105c0 -48 -15 -69 -15 -116v-85c0 -16 -2 -35 -4 -54l104 244h35h35l104 -244c-2 19 -4 38 -4 54v295h145zM181 506c0 19 -11 33 -31 33
s-31 -14 -31 -33s11 -33 31 -33s31 14 31 33z" />
    <glyph glyph-name="uni0E1F" unicode="&#xe1f;" horiz-adv-x="735" 
d="M665 810v-810h-130l-150 345l-150 -345h-130v360c0 18 6 32 14 44c-49 11 -84 48 -84 102c0 65 50 105 115 105s115 -40 115 -105c0 -48 -15 -69 -15 -116v-85c0 -16 -2 -35 -4 -54l104 244h35h35l104 -244c-2 19 -4 38 -4 54v505h145zM181 506c0 19 -11 33 -31 33
s-31 -14 -31 -33s11 -33 31 -33s31 14 31 33z" />
    <glyph glyph-name="uni0E20" unicode="&#xe20;" horiz-adv-x="665" 
d="M181 94c0 19 -11 33 -31 33s-31 -14 -31 -33s11 -33 31 -33s31 14 31 33zM325 621c170 0 280 -100 280 -230v-391h-150v391c0 86 -54 120 -130 120c-57 0 -98 -24 -118 -71l138 -30l-15 -60s-19 5 -35 5c-35 0 -40 -25 -40 -50v-65v-30c0 -47 10 -68 10 -116
c0 -65 -50 -105 -115 -105s-115 40 -115 105c0 54 35 91 84 102c-8 12 -14 26 -14 44v50c0 46 21 78 63 94l-123 25c15 105 106 212 280 212z" />
    <glyph glyph-name="uni0E21" unicode="&#xe21;" horiz-adv-x="645" 
d="M575 600v-600h-138c-34 46 -80 91 -153 110c0 -5 1 -10 1 -16c0 -65 -50 -105 -115 -105s-115 40 -115 105c0 51 32 87 77 100c-10 12 -17 27 -17 46v120c0 18 6 32 14 44c-49 11 -84 48 -84 102c0 65 50 105 115 105s115 -40 115 -105c0 -48 -10 -69 -10 -116v-180v-11
c71 -12 124 -40 163 -72c-2 34 -3 70 -3 103v370h150zM201 94c0 19 -11 33 -31 33s-31 -14 -31 -33s11 -33 31 -33s31 14 31 33zM191 506c0 19 -11 33 -31 33s-31 -14 -31 -33s11 -33 31 -33s31 14 31 33z" />
    <glyph glyph-name="uni0E22" unicode="&#xe22;" horiz-adv-x="645" 
d="M251 506c0 19 -11 33 -31 33s-31 -14 -31 -33s11 -33 31 -33s31 14 31 33zM335 506c0 -65 -50 -105 -115 -105c-21 0 -41 4 -58 12c23 -40 80 -53 173 -53v-1v-87v-1c-93 0 -135 -29 -135 -81c0 -72 48 -101 115 -101s115 29 115 107v404h150v-404
c0 -122 -104 -217 -265 -217s-265 89 -265 205c0 67 37 107 87 127c-50 29 -87 82 -87 150c0 88 63 150 170 150c65 0 115 -40 115 -105z" />
    <glyph glyph-name="uni0E23" unicode="&#xe23;" horiz-adv-x="530" 
d="M259 94c0 -19 11 -33 31 -33s31 14 31 33s-11 33 -31 33s-31 -14 -31 -33zM515 588l-95 -118h-45c-17 21 -47 51 -110 51c-50 0 -98 -18 -108 -78c156 -10 278 -45 278 -147v-101v-75c0 -79 -58 -131 -145 -131c-65 0 -115 40 -115 105c0 64 49 104 113 105
c-2 7 -3 14 -3 21v56c0 79 -101 95 -270 95v45c0 120 89 205 225 205c67 0 113 -23 144 -48c2 5 4 9 6 13l15 29l110 -21v-6z" />
    <glyph glyph-name="uni0E24" unicode="&#xe24;" horiz-adv-x="655" 
d="M159 94c0 -19 11 -33 31 -33s31 14 31 33s-11 33 -31 33s-31 -14 -31 -33zM221 196c49 -11 84 -48 84 -102c0 -65 -50 -105 -115 -105s-115 40 -115 105c0 48 10 69 10 116v80c0 46 22 79 64 95l-114 24c15 105 106 212 280 212c170 0 280 -100 280 -230v-601h-150v601
c0 86 -54 120 -130 120c-57 0 -99 -24 -119 -72l129 -29l-15 -60s-19 5 -35 5c-35 0 -40 -25 -40 -50v-65c0 -18 -6 -32 -14 -44z" />
    <glyph glyph-name="uni0E25" unicode="&#xe25;" horiz-adv-x="635" 
d="M185 405l-150 12c14 101 102 204 270 204c163 0 270 -95 270 -220v-401h-150v90c-13 68 -90 170 -190 170c-26 0 -40 -15 -40 -40c0 -8 -1 -15 -3 -21c64 -1 113 -41 113 -105c0 -65 -50 -105 -115 -105c-75 0 -135 52 -135 121v85c0 70 27 165 170 165
c88 0 154 -45 200 -100v141c0 81 -49 110 -120 110c-66 0 -110 -35 -120 -106zM221 94c0 19 -11 33 -31 33s-31 -14 -31 -33s11 -33 31 -33s31 14 31 33z" />
    <glyph glyph-name="uni0E26" unicode="&#xe26;" horiz-adv-x="670" 
d="M181 94c0 19 -11 33 -31 33s-31 -14 -31 -33s11 -33 31 -33s31 14 31 33zM325 621c170 0 280 -100 280 -230v-601h-150v601c0 86 -54 120 -130 120c-57 0 -98 -24 -118 -71l138 -30l-15 -60s-19 5 -35 5c-35 0 -40 -25 -40 -50v-65v-30c0 -47 10 -68 10 -116
c0 -65 -50 -105 -115 -105s-115 40 -115 105c0 54 35 91 84 102c-8 12 -14 26 -14 44v50c0 46 21 78 63 94l-123 25c15 105 106 212 280 212z" />
    <glyph glyph-name="uni0E27" unicode="&#xe27;" horiz-adv-x="535" 
d="M470 120c0 -79 -58 -131 -145 -131c-65 0 -115 40 -115 105c0 64 49 104 113 105c-2 7 -3 14 -3 21v196c0 74 -42 95 -85 95c-44 0 -77 -23 -86 -78l-149 12c13 83 87 176 235 176c149 0 235 -95 235 -205v-296zM294 94c0 -19 11 -33 31 -33s31 14 31 33s-11 33 -31 33
s-31 -14 -31 -33z" />
    <glyph glyph-name="uni0E28" unicode="&#xe28;" horiz-adv-x="680" 
d="M330 348c-20 0 -31 -14 -31 -33s11 -33 31 -33s31 14 31 33s-11 33 -31 33zM455 0v90c0 80 6 109 6 301c0 21 -3 40 -9 55c-21 -13 -43 -27 -62 -40c33 -17 55 -48 55 -91c0 -65 -50 -105 -115 -105c-32 0 -60 10 -80 27c-14 -31 -20 -74 -20 -147v-90h-161s10 69 10 115
c0 95 -24 125 -24 276c0 129 107 230 275 230c70 0 129 -17 174 -47c29 32 72 66 136 71l25 -130c-38 0 -65 -6 -88 -17c18 -32 28 -68 28 -107v-391h-150zM403 497c-20 10 -45 14 -73 14c-77 0 -131 -33 -131 -120v-76c11 29 27 55 51 75c13 11 27 20 44 25
c33 26 72 55 109 82z" />
    <glyph glyph-name="uni0E29" unicode="&#xe29;" horiz-adv-x="710" 
d="M340 345c0 -15 9 -26 25 -26s25 11 25 26s-9 26 -25 26s-25 -11 -25 -26zM176 506c0 19 -11 33 -31 33s-31 -14 -31 -33s11 -33 31 -33s31 14 31 33zM444 302c8 2 15 3 21 3c5 0 10 1 15 1v294h150v-255c22 9 41 18 55 25l25 -75c-22 -9 -49 -19 -80 -27v-72
c0 -122 -104 -217 -265 -217s-265 95 -265 217v164c0 18 6 32 14 44c-49 11 -84 48 -84 102c0 65 50 105 115 105s115 -40 115 -105c0 -48 -10 -69 -10 -116v-194c0 -78 48 -107 115 -107s115 29 115 107v46c-20 -1 -40 -2 -60 -2c-92 0 -145 38 -145 105c0 51 39 83 90 83
s90 -32 90 -83c0 -17 -4 -31 -11 -43z" />
    <glyph glyph-name="uni0E2A" unicode="&#xe2a;" horiz-adv-x="650" 
d="M185 405l-150 12c14 101 102 204 270 204c68 0 126 -17 171 -45c29 32 71 64 134 69l25 -130c-36 0 -62 -5 -85 -15c16 -29 25 -63 25 -99v-401h-150v90c-13 68 -90 170 -190 170c-26 0 -40 -15 -40 -40c0 -8 -1 -15 -3 -21c64 -1 113 -41 113 -105
c0 -65 -50 -105 -115 -105c-75 0 -135 52 -135 121v85c0 68 25 159 155 165c43 38 108 87 170 134c-20 12 -46 17 -75 17c-66 0 -110 -35 -120 -106zM221 94c0 19 -11 33 -31 33s-31 -14 -31 -33s11 -33 31 -33s31 14 31 33zM421 438c-46 -30 -90 -62 -125 -89
c53 -16 97 -50 129 -89v141c0 14 -1 26 -4 37z" />
    <glyph glyph-name="uni0E2B" unicode="&#xe2b;" horiz-adv-x="660" 
d="M469 506c0 -19 11 -33 31 -33s31 14 31 33s-11 33 -31 33s-31 -14 -31 -33zM385 506c0 65 50 105 115 105s115 -40 115 -105c0 -42 -20 -73 -52 -90c18 -13 32 -31 32 -56v-360h-150v353c-97 -36 -180 -151 -190 -269v-84h-150v360c0 18 6 32 14 44
c-49 11 -84 48 -84 102c0 65 50 105 115 105s115 -40 115 -105c0 -48 -10 -69 -10 -116v-77c40 54 91 100 153 126c-15 17 -23 40 -23 67zM181 506c0 19 -11 33 -31 33s-31 -14 -31 -33s11 -33 31 -33s31 14 31 33z" />
    <glyph glyph-name="uni0E2C" unicode="&#xe2c;" horiz-adv-x="760" 
d="M520 305v85c0 17 5 32 13 43c-54 8 -93 46 -93 103c0 65 50 105 115 105c59 0 106 -33 114 -88c6 20 9 45 11 77l85 -10c-10 -90 -47 -139 -99 -169c0 -9 -1 -19 -1 -31v-420h-130l-150 315l-150 -315h-130v360c0 18 6 32 14 44c-49 11 -84 48 -84 102
c0 65 50 105 115 105s115 -40 115 -105c0 -48 -15 -69 -15 -116v-85c0 -22 -3 -49 -6 -73l106 233h35h35l106 -233c-3 24 -6 51 -6 73zM586 536c0 19 -11 33 -31 33s-31 -14 -31 -33s11 -33 31 -33s31 14 31 33zM181 506c0 19 -11 33 -31 33s-31 -14 -31 -33s11 -33 31 -33
s31 14 31 33z" />
    <glyph glyph-name="uni0E2D" unicode="&#xe2d;" horiz-adv-x="635" 
d="M185 405l-150 12c14 101 102 204 270 204c163 0 270 -95 270 -220v-209c0 -118 -98 -213 -255 -213s-255 95 -255 213v63c0 65 50 105 115 105s115 -40 115 -105c0 -55 -36 -92 -86 -102c16 -46 64 -64 111 -64c59 0 105 27 105 103v209c0 81 -49 110 -120 110
c-66 0 -110 -35 -120 -106zM211 255c0 19 -11 33 -31 33s-31 -14 -31 -33s11 -33 31 -33s31 14 31 33z" />
    <glyph glyph-name="uni0E2E" unicode="&#xe2e;" horiz-adv-x="640" 
d="M206 255c0 19 -11 33 -31 33s-31 -14 -31 -33s11 -33 31 -33s31 14 31 33zM180 485c0 -9 4 -25 110 -25c52 0 92 7 120 21c-22 31 -62 49 -120 49c-78 0 -110 -21 -110 -45zM552 483c10 -19 18 -47 18 -72v-219c0 -118 -98 -213 -255 -213s-255 95 -255 213v63
c0 65 50 105 115 105s115 -40 115 -105c0 -54 -35 -91 -84 -102c16 -47 61 -64 109 -64c59 0 105 27 105 103v108c0 57 8 70 10 100c-35 -15 -81 -25 -140 -25c-144 0 -250 43 -250 110c0 56 71 136 245 136c97 0 157 -34 192 -65c9 25 13 55 13 86l130 -12
c0 -57 -22 -112 -68 -147z" />
    <glyph glyph-name="uni0E2F" unicode="&#xe2f;" horiz-adv-x="495" 
d="M130 87c128 14 155 35 155 78v165c0 47 20 67 30 103c-39 -26 -90 -43 -155 -43c-78 0 -135 46 -135 116c0 65 50 105 115 105s115 -40 115 -105c0 -11 -1 -22 -4 -31c49 24 76 69 94 119l65 6c23 -17 25 -62 25 -130v-305c0 -127 -148 -172 -284 -186zM109 506
c0 -19 11 -33 31 -33s31 14 31 33s-11 33 -31 33s-31 -14 -31 -33z" />
    <glyph glyph-name="uni0E30" unicode="&#xe30;" horiz-adv-x="540" 
d="M129 460c0 -19 11 -33 31 -33s31 14 31 33s-11 33 -31 33s-31 -14 -31 -33zM129 160c0 -19 11 -33 31 -33s31 14 31 33s-11 33 -31 33s-31 -14 -31 -33zM50 427c-3 10 -5 21 -5 33c0 65 50 105 115 105s115 -40 115 -105c0 -19 -4 -36 -12 -51c4 1 8 1 12 1h10
c56 0 85 56 85 135l125 -15c0 -105 -67 -195 -205 -195h-75c-92 0 -149 38 -165 92zM50 127c-3 10 -5 21 -5 33c0 65 50 105 115 105s115 -40 115 -105c0 -19 -4 -36 -12 -51c4 1 8 1 12 1h10c56 0 85 56 85 135l125 -15c0 -105 -67 -195 -205 -195h-75
c-92 0 -149 38 -165 92z" />
    <glyph glyph-name="uni0E31" unicode="&#xe31;" 
d="M-70 886l110 -12c0 -110 -75 -180 -185 -180h-70c-92 0 -155 43 -155 116c0 57 43 92 100 92s100 -35 100 -92c0 -18 -5 -33 -12 -46h7h10c54 0 95 24 95 122zM-270 839c-18 0 -28 -12 -28 -29s10 -29 28 -29s28 12 28 29s-10 29 -28 29z" />
    <glyph glyph-name="uni0E32" unicode="&#xe32;" horiz-adv-x="485" 
d="M0 462c11 73 76 159 210 159c135 0 210 -89 210 -185v-436h-150v436c0 64 -33 75 -60 75c-28 0 -53 -14 -60 -61z" />
    <glyph glyph-name="uni0E33" unicode="&#xe33;" horiz-adv-x="485" 
d="M0 462c11 73 76 159 210 159c135 0 210 -89 210 -185v-436h-150v436c0 64 -33 75 -60 75c-28 0 -53 -14 -60 -61zM-65 780c0 -65 -50 -105 -115 -105s-115 40 -115 105s50 105 115 105s115 -40 115 -105zM-149 780c0 19 -11 33 -31 33s-31 -14 -31 -33s11 -33 31 -33
s31 14 31 33z" />
    <glyph glyph-name="uni0E34" unicode="&#xe34;" 
d="M-413 778l208 -37c-27 38 -72 79 -140 79c-28 0 -55 -11 -68 -42zM-90 685l-10 -20l-440 70c0 75 53 165 190 165c190 0 253 -193 260 -215z" />
    <glyph glyph-name="uni0E35" unicode="&#xe35;" 
d="M-190 845v60l110 -20v-210l-15 -15l-445 70c0 75 53 165 180 165c85 0 144 -50 182 -102c-7 20 -12 38 -12 52zM-413 773l227 -41c-30 38 -81 83 -159 83c-28 0 -55 -11 -68 -42z" />
    <glyph glyph-name="uni0E36" unicode="&#xe36;" 
d="M-206 785c0 -19 11 -33 31 -33s31 14 31 33s-11 33 -31 33s-31 -14 -31 -33zM-412 775l125 -17c-2 8 -3 17 -3 27c0 6 0 12 1 17c-15 8 -33 13 -56 13c-27 0 -54 -11 -67 -40zM-540 730c0 75 53 165 180 165c44 0 75 -15 101 -35c21 19 51 30 84 30
c65 0 115 -40 115 -105s-50 -105 -115 -105c-24 0 -47 5 -65 16z" />
    <glyph glyph-name="uni0E37" unicode="&#xe37;" 
d="M-290 895v35l90 -20v-176l40 -8c-6 12 -10 25 -10 39v140l90 -20v-210l-15 -15l-445 70c0 75 43 165 170 165c38 0 67 -12 90 -30c-6 12 -10 23 -10 30zM-414 773l182 -33c-26 43 -71 75 -123 75c-28 0 -49 -11 -59 -42z" />
    <glyph glyph-name="uni0E38" unicode="&#xe38;" 
d="M-180 -121c-18 0 -28 -12 -28 -29s10 -29 28 -29s28 12 28 29s-10 29 -28 29zM-85 -245v-60h-100v40c0 9 2 16 6 23h-1c-57 0 -100 35 -100 92s43 92 100 92s100 -35 100 -92c0 -42 -5 -57 -5 -95z" />
    <glyph glyph-name="uni0E39" unicode="&#xe39;" 
d="M-340 -121c-18 0 -28 -12 -28 -29s10 -29 28 -29s28 12 28 29s-10 29 -28 29zM-345 -242c-54 2 -95 37 -95 92c0 57 43 92 100 92s100 -35 100 -92c0 -35 -10 -46 -10 -65v-10c0 -9 5 -20 35 -20s35 11 35 20v160h100v-170c0 -48 -54 -75 -135 -75s-130 17 -130 65v3z
" />
    <glyph glyph-name="uni0E3A" unicode="&#xe3a;" 
d="M-245 -150c0 54 41 88 95 88s95 -34 95 -88s-41 -88 -95 -88s-95 34 -95 88z" />
    <glyph glyph-name="uni0E3F" unicode="&#xe3f;" horiz-adv-x="720" 
d="M330 464c45 6 95 38 95 111c0 68 -52 95 -140 95c-18 0 -36 0 -50 -1v-206c29 1 60 1 95 1zM501 440c102 -34 164 -103 164 -205c0 -133 -106 -222 -270 -240v-115h-120v111c-113 2 -200 9 -200 9v780s89 8 200 9v111h120v-120c113 -23 195 -89 195 -190
c0 -71 -37 -119 -89 -150zM235 113c21 -1 47 -2 75 -2c102 0 189 25 189 124s-87 119 -189 119c-28 0 -54 -1 -75 -2v-239z" />
    <glyph glyph-name="uni0E40" unicode="&#xe40;" horiz-adv-x="330" 
d="M159 94c0 -19 11 -33 31 -33s31 14 31 33s-11 33 -31 33s-31 -14 -31 -33zM221 196c49 -11 84 -48 84 -102c0 -65 -50 -105 -115 -105s-115 40 -115 105c0 48 10 69 10 116v390h150v-360c0 -18 -6 -32 -14 -44z" />
    <glyph glyph-name="uni0E41" unicode="&#xe41;" horiz-adv-x="630" 
d="M159 94c0 -19 11 -33 31 -33s31 14 31 33s-11 33 -31 33s-31 -14 -31 -33zM221 196c49 -11 84 -48 84 -102c0 -65 -50 -105 -115 -105s-115 40 -115 105c0 48 10 69 10 116v390h150v-360c0 -18 -6 -32 -14 -44zM459 94c0 -19 11 -33 31 -33s31 14 31 33s-11 33 -31 33
s-31 -14 -31 -33zM521 196c49 -11 84 -48 84 -102c0 -65 -50 -105 -115 -105s-115 40 -115 105c0 48 10 69 10 116v390h150v-360c0 -18 -6 -32 -14 -44z" />
    <glyph glyph-name="uni0E42" unicode="&#xe42;" horiz-adv-x="380" 
d="M204 94c0 -19 11 -33 31 -33s31 14 31 33s-11 33 -31 33s-31 -14 -31 -33zM137 752c94 -16 143 -58 143 -152v-360c0 -18 -6 -32 -14 -44c49 -11 84 -48 84 -102c0 -65 -50 -105 -115 -105s-115 40 -115 105c0 48 10 69 10 116v390c0 79 -28 95 -135 95v35
c0 99 70 185 200 185c56 0 99 -23 129 -49c2 5 4 10 6 14l15 29l110 -21v-6l-95 -118h-45c-17 21 -46 51 -100 51c-38 0 -70 -19 -78 -63z" />
    <glyph glyph-name="uni0E43" unicode="&#xe43;" horiz-adv-x="380" 
d="M200 838c16 -17 25 -40 25 -68c0 -65 -50 -105 -115 -105s-115 40 -115 105c0 76 68 145 194 145s196 -68 196 -160c0 -119 -105 -142 -105 -245v-270c0 -18 -6 -32 -14 -44c49 -11 84 -48 84 -102c0 -65 -50 -105 -115 -105s-115 40 -115 105c0 48 10 69 10 116v300
c0 124 145 153 145 255c0 43 -27 67 -75 73zM204 94c0 -19 11 -33 31 -33s31 14 31 33s-11 33 -31 33s-31 -14 -31 -33zM79 770c0 -19 11 -33 31 -33s31 14 31 33s-11 33 -31 33s-31 -14 -31 -33z" />
    <glyph glyph-name="uni0E44" unicode="&#xe44;" horiz-adv-x="380" 
d="M-5 878v6l100 27l30 -61c8 -17 16 -37 22 -54c11 18 23 38 33 54c11 18 35 61 105 61c80 0 105 -55 105 -91c0 -101 -110 -166 -110 -310v-270c0 -18 -6 -32 -14 -44c49 -11 84 -48 84 -102c0 -65 -50 -105 -115 -105s-115 40 -115 105c0 48 10 69 10 116v300
c0 111 157 255 157 305c0 8 -7 20 -17 20c-8 -10 -30 -40 -30 -40l-75 -105h-55zM204 94c0 -19 11 -33 31 -33s31 14 31 33s-11 33 -31 33s-31 -14 -31 -33z" />
    <glyph glyph-name="uni0E45" unicode="&#xe45;" horiz-adv-x="485" 
d="M0 462c11 73 76 159 210 159c135 0 210 -89 210 -185v-646h-150v646c0 64 -33 75 -60 75c-28 0 -53 -14 -60 -61z" />
    <glyph glyph-name="uni0E46" unicode="&#xe46;" horiz-adv-x="590" 
d="M174 315c0 -19 11 -33 31 -33s31 14 31 33s-11 33 -31 33s-31 -14 -31 -33zM186 500c-18 -23 -29 -49 -31 -89c15 6 32 9 50 9c65 0 115 -40 115 -105s-50 -105 -115 -105c-108 0 -170 87 -170 190c0 160 104 215 150 215l95 -75l95 75c46 0 150 -55 150 -215v-610h-150
v610c0 38 -8 64 -21 86l-64 -46h-10h-10z" />
    <glyph glyph-name="uni0E47" unicode="&#xe47;" 
d="M-450 785c0 78 58 120 155 120h105c37 0 70 5 95 25l35 -65c-36 -26 -78 -30 -125 -30h-110c-47 0 -65 -19 -65 -50c0 -24 10 -40 36 -47l34 57h10l27 -18c13 31 45 49 83 49c51 0 90 -32 90 -83s-39 -83 -90 -83c-45 0 -80 25 -88 66l-37 -61c-97 0 -155 42 -155 120z
M-170 769c-16 0 -25 -11 -25 -26s9 -26 25 -26s25 11 25 26s-9 26 -25 26z" />
    <glyph glyph-name="uni0E48" unicode="&#xe48;" 
d="M-80 945l-110 20v175h110v-195z" />
    <glyph glyph-name="uni0E49" unicode="&#xe49;" 
d="M-303 1070c0 -11 6 -19 18 -19s18 8 18 19s-6 19 -18 19s-18 -8 -18 -19zM-258 1015c-8 -3 -17 -5 -27 -5c-37 0 -65 23 -65 60s28 60 65 60c56 0 85 -36 90 -85c1 -13 2 -26 3 -37c31 11 57 43 57 122l105 -15c0 -112 -80 -165 -200 -165h-25v15c0 20 -2 36 -3 50z" />
    <glyph glyph-name="uni0E4A" unicode="&#xe4a;" 
d="M-230 1021c-12 0 -18 -8 -18 -19s6 -19 18 -19s18 8 18 19s-6 19 -18 19zM-230 1062c37 0 65 -23 65 -60s-28 -60 -65 -60c-73 0 -90 52 -90 90c0 82 67 105 85 105l50 -25l50 25c17 0 71 -22 75 -97c7 21 12 46 15 72l75 -15c-11 -78 -67 -149 -170 -152l-10 37
c18 15 25 27 25 50c0 27 -9 40 -19 48l-38 -18h-3h-3l-41 20c-7 -5 -12 -12 -16 -22c5 1 10 2 15 2z" />
    <glyph glyph-name="uni0E4B" unicode="&#xe4b;" 
d="M-270 1015v60h85v65h100v-65h85v-60h-85v-70l-100 20v50h-85z" />
    <glyph glyph-name="uni0E4C" unicode="&#xe4c;" 
d="M-180 1056c-18 0 -28 -12 -28 -29s10 -29 28 -29s28 12 28 29s-10 29 -28 29zM-90 1181l105 -12c0 -52 -36 -91 -104 -101c6 -12 9 -25 9 -41c0 -57 -43 -92 -100 -92c-66 0 -105 41 -105 92s31 99 105 99h25c44 0 65 12 65 55z" />
    <glyph glyph-name="uni0E4D" unicode="&#xe4d;" 
d="M-65 780c0 -65 -50 -105 -115 -105s-115 40 -115 105s50 105 115 105s115 -40 115 -105zM-149 780c0 19 -11 33 -31 33s-31 -14 -31 -33s11 -33 31 -33s31 14 31 33z" />
    <glyph glyph-name="uni0E4E" unicode="&#xe4e;" 
d="M-370 762c0 41 33 86 99 86h7c2 39 27 82 90 82c32 0 60 -14 79 -33l35 -37l-52 -46l-47 47c-9 9 -15 9 -15 9c-2 0 -22 -6 -22 -29c0 -10 2 -18 7 -25l32 -35l-52 -46l-47 47c-9 9 -15 9 -15 9c-2 0 -19 -6 -19 -29c0 -10 4 -20 13 -29l37 -35l-54 -48l-47 47
c-19 19 -29 43 -29 65z" />
    <glyph glyph-name="uni0E4F" unicode="&#xe4f;" horiz-adv-x="660" 
d="M299 300c0 -19 11 -33 31 -33s31 14 31 33s-11 33 -31 33s-31 -14 -31 -33zM215 300c0 65 50 105 115 105s115 -40 115 -105s-50 -105 -115 -105s-115 40 -115 105zM330 40c-172 0 -275 118 -275 260s103 260 275 260s275 -118 275 -260s-103 -260 -275 -260zM330 120
c102 0 175 66 175 180s-73 180 -175 180s-175 -66 -175 -180s73 -180 175 -180z" />
    <glyph glyph-name="uni0E50" unicode="&#xe50;" horiz-adv-x="720" 
d="M50 287v26c0 138 72 308 310 308s310 -170 310 -308v-26c0 -138 -72 -308 -310 -308s-310 170 -310 308zM360 89c102 0 160 70 160 198v26c0 128 -58 198 -160 198s-160 -70 -160 -198v-26c0 -128 58 -198 160 -198z" />
    <glyph glyph-name="uni0E51" unicode="&#xe51;" horiz-adv-x="720" 
d="M50 330c0 129 83 291 310 291c238 0 310 -173 310 -311v-20c0 -152 -136 -319 -358 -335l-14 110c118 8 226 111 226 225v20c0 128 -58 203 -164 203c-103 0 -170 -72 -170 -183c0 -79 54 -105 95 -105c13 0 25 2 37 5c-46 12 -77 48 -77 100c0 65 50 105 115 105
s115 -40 115 -105c0 -97 -70 -195 -212 -195s-213 109 -213 195zM329 330c0 -19 11 -33 31 -33s31 14 31 33s-11 33 -31 33s-31 -14 -31 -33z" />
    <glyph glyph-name="uni0E52" unicode="&#xe52;" horiz-adv-x="810" 
d="M65 205v545h145v-545c0 -67 52 -95 80 -95h245c28 0 80 28 80 95v195c0 41 -9 68 -24 91l-71 -51h-10h-10l-84 60c-18 -23 -29 -49 -31 -89c15 6 32 9 50 9c65 0 115 -40 115 -105s-50 -105 -115 -105c-108 0 -170 87 -170 190c0 160 104 215 150 215l95 -75l95 75
c46 0 150 -55 150 -215v-195c0 -95 -73 -205 -225 -205h-240c-152 0 -225 110 -225 205zM404 315c0 -19 11 -33 31 -33s31 14 31 33s-11 33 -31 33s-31 -14 -31 -33z" />
    <glyph glyph-name="uni0E53" unicode="&#xe53;" horiz-adv-x="720" 
d="M60 233v183c0 87 35 205 175 205c57 0 99 -30 125 -73c26 43 68 73 125 73c140 0 175 -118 175 -205v-231c0 -89 -16 -149 -80 -196l-110 75c22 17 45 40 45 121v231c0 80 -21 95 -41 95c-30 0 -44 -43 -44 -95v-191h-140v191c0 52 -14 95 -44 95c-20 0 -41 -15 -41 -95
v-196c0 -8 0 -15 -2 -22c6 1 11 1 17 1c65 0 115 -40 115 -105s-50 -105 -115 -105c-86 0 -148 62 -156 146c-3 32 -4 98 -4 98zM251 94c0 19 -11 33 -31 33s-31 -14 -31 -33s11 -33 31 -33s31 14 31 33z" />
    <glyph glyph-name="uni0E54" unicode="&#xe54;" horiz-adv-x="720" 
d="M50 300v15c0 145 99 289 305 300c36 2 94 7 112 9c67 8 94 1 103 129l150 -15c-11 -158 -104 -206 -227 -222c-28 -4 -86 -9 -128 -11c-94 -5 -165 -71 -165 -190v-15c0 -119 64 -190 160 -190h39c-32 36 -49 83 -49 135c0 88 51 175 160 175c65 0 115 -40 115 -105
s-50 -105 -115 -105c-18 0 -34 3 -49 9c8 -67 66 -109 139 -109h50v-110h-290c-228 0 -310 167 -310 300zM479 315c0 -19 11 -33 31 -33s31 14 31 33s-11 33 -31 33s-31 -14 -31 -33z" />
    <glyph glyph-name="uni0E55" unicode="&#xe55;" horiz-adv-x="720" 
d="M50 300v15c0 123 71 237 217 276c-11 16 -17 36 -17 59c0 65 50 105 115 105s115 -40 115 -105c0 -14 -2 -27 -7 -39c63 8 88 18 97 142l150 -15c-11 -158 -104 -206 -227 -222c-12 -2 -28 -3 -45 -3c-25 0 -52 2 -73 7c-104 -18 -175 -86 -175 -205v-15
c0 -119 64 -190 160 -190h39c-32 36 -49 83 -49 135c0 88 51 175 160 175c65 0 115 -40 115 -105s-50 -105 -115 -105c-18 0 -34 3 -49 9c8 -67 66 -109 139 -109h50v-110h-290c-228 0 -310 167 -310 300zM334 650c0 -19 11 -33 31 -33s31 14 31 33s-11 33 -31 33
s-31 -14 -31 -33zM479 315c0 -19 11 -33 31 -33s31 14 31 33s-11 33 -31 33s-31 -14 -31 -33z" />
    <glyph glyph-name="uni0E56" unicode="&#xe56;" horiz-adv-x="720" 
d="M50 738l150 15l14 -190c32 32 82 58 161 58c212 0 295 -170 295 -308v-26c0 -138 -72 -308 -300 -308c-193 0 -280 89 -280 181c0 65 50 105 115 105s115 -40 115 -105c0 -28 -10 -52 -26 -70c19 -3 42 -5 66 -5c112 0 160 74 160 202v26c0 128 -58 193 -150 193
c-99 0 -136 -74 -145 -96l-115 10zM236 160c0 19 -11 33 -31 33s-31 -14 -31 -33s11 -33 31 -33s31 14 31 33z" />
    <glyph glyph-name="uni0E57" unicode="&#xe57;" horiz-adv-x="905" 
d="M60 233v183c0 87 35 205 175 205c57 0 99 -30 125 -73c26 43 68 73 125 73c140 0 165 -118 165 -205v-231c0 -35 -4 -65 -13 -92c37 19 68 51 68 102v555h135v-555c0 -118 -97 -206 -280 -206l-90 75c22 17 45 40 45 121v231c0 80 -21 95 -41 95c-30 0 -44 -43 -44 -95
v-191h-140v191c0 52 -14 95 -44 95c-20 0 -41 -15 -41 -95v-196c0 -8 0 -15 -2 -22c6 1 11 1 17 1c65 0 115 -40 115 -105s-50 -105 -115 -105c-86 0 -148 62 -156 146c-3 32 -4 98 -4 98zM251 94c0 19 -11 33 -31 33s-31 -14 -31 -33s11 -33 31 -33s31 14 31 33z" />
    <glyph glyph-name="uni0E58" unicode="&#xe58;" horiz-adv-x="750" 
d="M50 300v15c0 145 99 289 305 300c36 2 94 7 112 9c67 8 94 1 103 129l150 -15c-11 -158 -104 -206 -227 -222c-28 -4 -86 -9 -128 -11c-94 -5 -165 -71 -165 -190v-15c0 -63 13 -108 25 -149l75 119h110c0 -129 26 -176 85 -176c53 0 79 38 84 118c-8 -1 -16 -2 -24 -2
c-65 0 -115 40 -115 105s50 105 115 105c108 0 140 -92 140 -180c0 -110 -37 -251 -200 -251c-104 0 -154 64 -176 137l-79 -126h-125v29c0 73 -65 151 -65 271zM524 315c0 -19 11 -33 31 -33s31 14 31 33s-11 33 -31 33s-31 -14 -31 -33z" />
    <glyph glyph-name="uni0E59" unicode="&#xe59;" horiz-adv-x="720" 
d="M155 450c0 90 75 152 184 164c50 5 104 8 118 10c67 8 94 1 103 129l150 -15c-11 -158 -104 -203 -227 -219c-32 -4 -95 -5 -137 -10c-33 -4 -56 -22 -56 -64c0 -16 4 -27 8 -33c18 2 37 3 57 3h200v-110h-200c-129 0 -165 -50 -165 -110c0 -57 35 -111 165 -111
c49 0 83 2 107 10c-14 17 -22 40 -22 66c0 65 50 105 115 105s115 -40 115 -105c0 -91 -95 -181 -315 -181c-222 0 -315 103 -315 216c0 77 42 151 139 190c-15 17 -24 39 -24 65zM524 160c0 -19 11 -33 31 -33s31 14 31 33s-11 33 -31 33s-31 -14 -31 -33z" />
    <glyph glyph-name="uni0E5A" unicode="&#xe5a;" horiz-adv-x="675" 
d="M605 0h-130v600h130v-600zM130 87c128 14 155 35 155 78v165c0 47 20 67 30 103c-39 -26 -90 -43 -155 -43c-78 0 -135 46 -135 116c0 65 50 105 115 105s115 -40 115 -105c0 -11 -1 -22 -4 -31c49 24 76 69 94 119l45 6c23 -17 25 -62 25 -130v-305
c0 -127 -128 -172 -264 -186zM109 506c0 -19 11 -33 31 -33s31 14 31 33s-11 33 -31 33s-31 -14 -31 -33z" />
    <glyph glyph-name="uni0E5B" unicode="&#xe5b;" horiz-adv-x="900" 
d="M215 300c0 65 50 105 115 105s115 -40 115 -105s-50 -105 -115 -105s-115 40 -115 105zM299 300c0 -19 11 -33 31 -33s31 14 31 33s-11 33 -31 33s-31 -14 -31 -33zM55 300c0 142 103 260 275 260v-80c-102 0 -175 -66 -175 -180s73 -180 175 -180s175 66 175 180
c0 57 -21 108 -46 133l71 50c22 -24 39 -52 51 -83l73 -150l35 180l55 6l61 -111h80v-50h-110l-40 65l-38 -194l-64 -6l-45 93c-25 -110 -114 -193 -258 -193c-172 0 -275 118 -275 260z" />
    <glyph glyph-name="uni0E81" unicode="&#xe81;" horiz-adv-x="690" 
d="M196 506c0 19 -11 33 -31 33s-31 -14 -31 -33s11 -33 31 -33s31 14 31 33zM196 94c0 19 -11 33 -31 33s-31 -14 -31 -33s11 -33 31 -33s31 14 31 33zM279 522c43 45 98 94 176 94c122 0 175 -106 175 -210v-406h-150v406c0 79 -28 100 -60 100c-54 0 -100 -51 -150 -85
c-1 -9 -2 -19 -2 -31v-90v-90c0 -47 12 -68 12 -116c0 -65 -50 -105 -115 -105s-115 40 -115 105c0 54 35 91 84 102c-8 12 -14 26 -14 44v60v60c0 18 6 32 14 44c-49 11 -84 48 -84 102c0 65 50 105 115 105c59 0 106 -34 114 -89z" />
    <glyph glyph-name="uni0E82" unicode="&#xe82;" horiz-adv-x="625" 
d="M191 450c0 19 -11 33 -31 33s-31 -14 -31 -33s11 -33 31 -33s31 14 31 33zM275 450c0 -65 -50 -105 -115 -105s-115 40 -115 105c0 97 109 171 260 171c154 0 260 -78 260 -186s-96 -149 -151 -174c-42 -19 -113 -49 -153 -66c-42 -18 -71 -33 -71 -62
c0 -33 24 -49 60 -49c107 0 185 85 225 126h75l75 -198v-6l-115 -21l-15 65c-3 13 -6 30 -8 47c-53 -55 -133 -118 -242 -118c-122 0 -200 60 -200 159c0 103 115 146 144 158c40 17 113 49 151 66c29 13 80 30 80 73c0 63 -56 86 -115 86c-22 0 -41 0 -56 -1
c16 -18 26 -42 26 -70z" />
    <glyph glyph-name="uni0E84" unicode="&#xe84;" horiz-adv-x="670" 
d="M50 426c0 99 104 195 280 195s280 -95 280 -217v-404h-148v404c0 78 -50 107 -132 107s-135 -29 -135 -91c0 -42 42 -71 135 -71v-89c-100 0 -148 -22 -164 -72c16 7 34 11 54 11c65 0 115 -40 115 -105s-50 -105 -115 -105c-107 0 -170 72 -170 160c0 71 41 128 95 158
c-54 20 -95 58 -95 119zM251 94c0 19 -11 33 -31 33s-31 -14 -31 -33s11 -33 31 -33s31 14 31 33z" />
    <glyph glyph-name="uni0E87" unicode="&#xe87;" horiz-adv-x="520" 
d="M109 450c0 -19 11 -33 31 -33s31 14 31 33s-11 33 -31 33s-31 -14 -31 -33zM218 530c23 -18 37 -45 37 -80c0 -65 -50 -105 -115 -105s-115 40 -115 105c0 89 85 171 215 171c140 0 215 -89 215 -185v-482c0 -81 -44 -185 -180 -185c-140 0 -204 119 -230 225l135 26
c28 -114 77 -141 95 -141c11 0 35 4 35 75v487c0 69 -36 90 -75 90c-6 0 -11 -1 -17 -1z" />
    <glyph glyph-name="uni0E88" unicode="&#xe88;" horiz-adv-x="590" 
d="M221 255c0 19 -11 33 -31 33s-31 -14 -31 -33s11 -33 31 -33s31 14 31 33zM15 424c13 97 98 197 260 197c157 0 260 -92 260 -212c0 -131 -65 -232 -65 -330v-25c0 -35 -33 -59 -95 -59c-41 0 -70 5 -70 5c0 62 -10 135 -30 181c-21 -20 -51 -31 -85 -31
c-65 0 -115 40 -115 105s50 105 115 105c105 0 150 -99 168 -192c8 66 32 151 32 241c0 76 -50 102 -115 102c-60 0 -106 -30 -115 -97z" />
    <glyph glyph-name="uni0E8A" unicode="&#xe8a;" horiz-adv-x="625" 
d="M655 -184l-120 -42c-23 35 -75 135 -75 256c0 15 1 30 3 43c-52 -48 -125 -94 -218 -94c-122 0 -200 60 -200 159c0 103 115 146 144 158c40 17 113 49 151 66c29 13 80 30 80 73c0 63 -56 86 -115 86c-22 0 -41 0 -56 -1c16 -18 26 -42 26 -70c0 -65 -50 -105 -115 -105
s-115 40 -115 105c0 97 109 171 260 171c154 0 260 -78 260 -186s-96 -149 -151 -174c-42 -19 -113 -49 -153 -66c-42 -18 -71 -33 -71 -62c0 -33 24 -49 60 -49c107 0 185 85 225 126l105 -15v-110c0 -141 43 -211 75 -263v-6zM191 450c0 19 -11 33 -31 33s-31 -14 -31 -33
s11 -33 31 -33s31 14 31 33z" />
    <glyph glyph-name="uni0E8D" unicode="&#xe8d;" horiz-adv-x="670" 
d="M50 174c0 61 41 99 95 119c-54 30 -95 87 -95 158c0 88 63 160 170 160c65 0 115 -40 115 -105s-50 -105 -115 -105c-20 0 -38 4 -54 11c16 -50 64 -72 164 -72v-89c-93 0 -135 -29 -135 -71c0 -62 53 -91 135 -91s132 29 132 107v404h148v-404
c0 -122 -104 -217 -280 -217s-280 96 -280 195zM251 506c0 19 -11 33 -31 33s-31 -14 -31 -33s11 -33 31 -33s31 14 31 33z" />
    <glyph glyph-name="uni0E94" unicode="&#xe94;" horiz-adv-x="665" 
d="M256 94c0 19 -11 33 -31 33s-31 -14 -31 -33s11 -33 31 -33s31 14 31 33zM188 194c11 3 24 5 37 5c65 0 115 -40 115 -105s-50 -105 -115 -105c-107 0 -170 72 -170 160v242c0 129 107 230 275 230s275 -101 275 -230v-391h-147v391c0 87 -51 120 -128 120
s-128 -33 -128 -120v-151c0 -22 -7 -35 -14 -46z" />
    <glyph glyph-name="uni0E95" unicode="&#xe95;" horiz-adv-x="685" 
d="M256 94c0 19 -11 33 -31 33s-31 -14 -31 -33s11 -33 31 -33s31 14 31 33zM625 466v-466h-147v466c0 41 -25 45 -38 45c-17 0 -35 -13 -40 -40v-111h-120v111c-5 27 -23 40 -40 40c-13 0 -38 -4 -38 -45v-226c0 -22 -7 -35 -14 -46c11 3 24 5 37 5c65 0 115 -40 115 -105
s-50 -105 -115 -105c-107 0 -170 72 -170 160v317c0 79 49 155 160 155c58 0 98 -27 125 -58c27 31 67 58 125 58c111 0 160 -76 160 -155z" />
    <glyph glyph-name="uni0E96" unicode="&#xe96;" horiz-adv-x="695" 
d="M179 94c0 -19 11 -33 31 -33s31 14 31 33s-11 33 -31 33s-31 -14 -31 -33zM201 506c0 19 -11 33 -31 33s-31 -14 -31 -33s11 -33 31 -33s31 14 31 33zM255 408c-1 -6 -2 -11 -2 -18v-90v-60c0 -18 -6 -32 -14 -44c50 -10 86 -47 86 -102c0 -65 -50 -105 -115 -105
s-115 40 -115 105c0 48 10 69 10 116v90v60c0 20 9 36 21 48c-42 14 -71 49 -71 98c0 65 50 105 115 105c59 0 106 -34 114 -89c43 45 98 94 176 94c122 0 175 -106 175 -210v-616h-150v616c0 79 -28 100 -60 100c-61 0 -113 -65 -170 -98z" />
    <glyph glyph-name="uni0E97" unicode="&#xe97;" horiz-adv-x="760" 
d="M84 149v151c0 41 24 77 48 103c-53 8 -92 46 -92 103c0 65 50 105 115 105s115 -40 115 -105c0 -75 -41 -118 -41 -206v-156c0 -52 25 -60 48 -60c27 0 55 8 55 60v307c0 85 59 165 180 165c126 0 188 -80 188 -165v-451h-145v456c0 52 -20 60 -43 60
c-27 0 -50 -8 -50 -60v-307c0 -85 -62 -165 -185 -165c-128 0 -193 80 -193 165zM186 506c0 19 -11 33 -31 33s-31 -14 -31 -33s11 -33 31 -33s31 14 31 33z" />
    <glyph glyph-name="uni0E99" unicode="&#xe99;" horiz-adv-x="680" 
d="M196 506c0 19 -11 33 -31 33s-31 -14 -31 -33s11 -33 31 -33s31 14 31 33zM259 86c-33 -79 -129 -100 -169 -102l-30 96c36 5 60 21 60 63v217c0 18 6 32 14 44c-49 11 -84 48 -84 102c0 65 50 105 115 105s115 -40 115 -105c0 -48 -10 -69 -10 -116v-174
c29 -73 81 -122 135 -122c23 0 65 11 65 90v416h150v-406c0 -104 -53 -210 -175 -210c-86 0 -146 44 -186 102z" />
    <glyph glyph-name="uni0E9A" unicode="&#xe9a;" horiz-adv-x="690" 
d="M80 196v104c0 42 24 77 49 103c-52 9 -89 47 -89 103c0 65 50 105 115 105s115 -40 115 -105c0 -75 -40 -118 -40 -206v-104c0 -78 53 -107 125 -107s125 29 125 107v404h150v-404c0 -122 -110 -217 -275 -217s-275 95 -275 217zM186 506c0 19 -11 33 -31 33
s-31 -14 -31 -33s11 -33 31 -33s31 14 31 33z" />
    <glyph glyph-name="uni0E9B" unicode="&#xe9b;" horiz-adv-x="695" 
d="M80 196v104c0 42 24 77 49 103c-52 9 -89 47 -89 103c0 65 50 105 115 105s115 -40 115 -105c0 -75 -40 -118 -40 -206v-104c0 -78 53 -107 125 -107s125 29 125 107v614h150v-614c0 -122 -110 -217 -275 -217s-275 95 -275 217zM186 506c0 19 -11 33 -31 33
s-31 -14 -31 -33s11 -33 31 -33s31 14 31 33z" />
    <glyph glyph-name="uni0E9C" unicode="&#xe9c;" horiz-adv-x="790" 
d="M261 506c0 19 -11 33 -31 33s-31 -14 -31 -33s11 -33 31 -33s31 14 31 33zM621 536c0 19 -11 33 -31 33s-31 -14 -31 -33s11 -33 31 -33s31 14 31 33zM700 420v-286c0 -79 -54 -155 -175 -155c-68 0 -115 31 -145 67c-30 -36 -77 -67 -145 -67c-121 0 -175 76 -175 155
v317c0 88 63 160 170 160c65 0 115 -40 115 -105s-50 -105 -115 -105c-13 0 -26 2 -37 5c7 -11 14 -24 14 -46v-226c0 -35 32 -45 53 -45c32 0 55 20 55 55v186h130v-186c0 -35 23 -55 55 -55c21 0 53 10 53 45v256c0 17 5 32 13 43c-53 9 -91 46 -91 103
c0 65 50 105 115 105c59 0 106 -33 114 -88c6 20 9 45 11 77l85 -10c-10 -90 -47 -139 -99 -169c0 -9 -1 -19 -1 -31z" />
    <glyph glyph-name="uni0E9D" unicode="&#xe9d;" horiz-adv-x="765" 
d="M261 506c0 19 -11 33 -31 33s-31 -14 -31 -33s11 -33 31 -33s31 14 31 33zM700 810v-676c0 -79 -54 -155 -175 -155c-68 0 -115 31 -145 67c-30 -36 -77 -67 -145 -67c-121 0 -175 76 -175 155v317c0 88 63 160 170 160c65 0 115 -40 115 -105s-50 -105 -115 -105
c-13 0 -26 2 -37 5c7 -11 14 -24 14 -46v-226c0 -35 32 -45 53 -45c32 0 55 20 55 55v186h130v-186c0 -35 23 -55 55 -55c21 0 53 10 53 45v676h147z" />
    <glyph glyph-name="uni0E9E" unicode="&#xe9e;" horiz-adv-x="760" 
d="M186 506c0 19 -11 33 -31 33s-31 -14 -31 -33s11 -33 31 -33s31 14 31 33zM553 600h147v-466c0 -79 -54 -155 -170 -155c-65 0 -110 32 -140 67c-30 -35 -75 -67 -140 -67c-116 0 -170 76 -170 155v166c0 42 24 77 49 103c-52 9 -89 47 -89 103c0 65 50 105 115 105
s115 -40 115 -105c0 -75 -43 -118 -43 -206v-166c0 -35 29 -45 48 -45c27 0 50 20 50 55v186h130v-186c0 -35 23 -55 50 -55c19 0 48 10 48 45v466z" />
    <glyph glyph-name="uni0E9F" unicode="&#xe9f;" horiz-adv-x="765" 
d="M186 506c0 19 -11 33 -31 33s-31 -14 -31 -33s11 -33 31 -33s31 14 31 33zM553 810h147v-676c0 -79 -54 -155 -170 -155c-65 0 -110 32 -140 67c-30 -35 -75 -67 -140 -67c-116 0 -170 76 -170 155v166c0 42 24 77 49 103c-52 9 -89 47 -89 103c0 65 50 105 115 105
s115 -40 115 -105c0 -75 -43 -118 -43 -206v-166c0 -35 29 -45 48 -45c27 0 50 20 50 55v186h130v-186c0 -35 23 -55 50 -55c19 0 48 10 48 45v676z" />
    <glyph glyph-name="uni0EA1" unicode="&#xea1;" horiz-adv-x="670" 
d="M186 94c0 19 -11 33 -31 33s-31 -14 -31 -33s11 -33 31 -33s31 14 31 33zM267 69c-11 -50 -56 -80 -112 -80c-65 0 -115 40 -115 105c0 54 35 91 84 102c-8 12 -14 26 -14 44v360h148v-390c0 -15 1 -28 3 -39c46 -34 89 -77 139 -77c32 0 60 21 60 100v406h150v-406
c0 -104 -53 -210 -175 -210c-73 0 -126 43 -168 85z" />
    <glyph glyph-name="uni0EA2" unicode="&#xea2;" horiz-adv-x="675" 
d="M50 174c0 61 41 99 95 119c-54 30 -95 87 -95 158c0 88 63 160 170 160c65 0 115 -40 115 -105s-50 -105 -115 -105c-20 0 -38 4 -54 11c16 -50 64 -72 164 -72v-89c-93 0 -135 -29 -135 -71c0 -62 53 -91 135 -91s132 29 132 107v614h148v-614
c0 -122 -104 -217 -280 -217s-280 96 -280 195zM251 506c0 19 -11 33 -31 33s-31 -14 -31 -33s11 -33 31 -33s31 14 31 33z" />
    <glyph glyph-name="uni0EA3" unicode="&#xea3;" horiz-adv-x="610" 
d="M191 150c0 19 -11 33 -31 33s-31 -14 -31 -33s11 -33 31 -33s31 14 31 33zM45 150c0 65 50 105 115 105s115 -40 115 -105c0 -28 -10 -52 -26 -70c15 -1 34 -1 56 -1c59 0 115 23 115 86c0 43 -51 60 -80 73c-38 17 -111 49 -151 66c-29 12 -144 55 -144 158
c0 86 100 159 260 159c159 0 254 -92 270 -151l-140 -18c-6 22 -41 64 -130 64c-92 0 -115 -28 -115 -49c0 -29 29 -44 71 -62c40 -17 111 -47 153 -66c55 -25 151 -66 151 -174s-106 -186 -260 -186c-151 0 -260 74 -260 171z" />
    <glyph glyph-name="uni0EA5" unicode="&#xea5;" horiz-adv-x="655" 
d="M55 110v40c0 70 36 165 170 165c112 0 189 -73 235 -150c-6 26 -10 52 -10 75v157c0 84 -56 114 -130 114c-69 0 -115 -36 -125 -109l-150 10c14 103 104 209 275 209c166 0 275 -96 275 -224v-322c0 -38 -34 -80 -100 -80c-41 0 -65 5 -65 5c-15 78 -74 220 -205 220
c-23 0 -35 -8 -41 -21h6c65 0 115 -40 115 -105s-50 -105 -115 -105c-75 0 -135 52 -135 121zM221 94c0 19 -11 33 -31 33s-31 -14 -31 -33s11 -33 31 -33s31 14 31 33z" />
    <glyph glyph-name="uni0EA7" unicode="&#xea7;" horiz-adv-x="600" 
d="M20 424c13 97 98 197 260 197c157 0 260 -92 260 -212v-225c0 -116 -98 -205 -250 -205c-149 0 -250 77 -250 171c0 65 50 105 115 105s115 -40 115 -105c0 -25 -7 -46 -20 -63c11 -2 23 -3 40 -3c58 0 100 28 100 100v225c0 76 -45 102 -110 102
c-60 0 -101 -30 -110 -97zM186 150c0 19 -11 33 -31 33s-31 -14 -31 -33s11 -33 31 -33s31 14 31 33z" />
    <glyph glyph-name="uni0EAA" unicode="&#xeaa;" horiz-adv-x="665" 
d="M55 110v40c0 70 36 165 170 165c112 0 189 -73 235 -150c-6 26 -10 52 -10 75v79c0 30 3 49 4 73c-39 -21 -89 -37 -154 -37c-144 0 -255 53 -255 120c0 56 81 146 255 146c102 0 167 -36 202 -67c10 25 13 56 13 88l130 -12c0 -58 -24 -114 -71 -149
c11 -19 21 -46 21 -70v-336c0 -38 -34 -80 -100 -80c-41 0 -65 5 -65 5c-15 78 -74 220 -205 220c-23 0 -35 -8 -41 -21h6c65 0 115 -40 115 -105s-50 -105 -115 -105c-75 0 -135 52 -135 121zM221 94c0 19 -11 33 -31 33s-31 -14 -31 -33s11 -33 31 -33s31 14 31 33z
M185 475c0 -9 9 -40 115 -40c61 0 107 17 137 39c-26 38 -78 61 -137 61c-78 0 -115 -36 -115 -60z" />
    <glyph glyph-name="uni0EAB" unicode="&#xeab;" horiz-adv-x="800" 
d="M84 149v151c0 41 24 77 48 103c-53 8 -92 46 -92 103c0 65 50 105 115 105s115 -40 115 -105c0 -75 -41 -118 -41 -206v-156c0 -52 28 -60 58 -60c34 0 65 8 65 60v186c0 27 18 53 37 73c-52 9 -89 47 -89 103c0 65 50 105 115 105c47 0 86 -21 104 -57
c26 29 62 57 101 57c95 0 120 -89 120 -180v-431h-145v410c0 64 -8 85 -30 85c-15 0 -31 -13 -41 -28c-13 -42 -42 -68 -42 -107v-211c0 -85 -62 -165 -195 -165c-138 0 -203 80 -203 165zM186 506c0 19 -11 33 -31 33s-31 -14 -31 -33s11 -33 31 -33s31 14 31 33zM446 506
c0 19 -11 33 -31 33s-31 -14 -31 -33s11 -33 31 -33s31 14 31 33z" />
    <glyph glyph-name="uni0EAD" unicode="&#xead;" horiz-adv-x="640" 
d="M191 150c0 19 -11 33 -31 33s-31 -14 -31 -33s11 -33 31 -33s31 14 31 33zM443 371c-35 -18 -82 -31 -148 -31c-154 0 -260 58 -260 125c0 56 76 156 260 156s290 -91 290 -210v-215c0 -118 -103 -217 -270 -217c-158 0 -270 74 -270 171c0 65 50 105 115 105
s115 -40 115 -105c0 -28 -9 -51 -25 -69c20 -1 42 -2 65 -2c59 0 125 41 125 117v100c0 37 2 57 3 75zM434 460c-22 45 -75 75 -139 75c-78 0 -120 -46 -120 -70c0 -9 6 -45 120 -45c72 0 113 17 139 40z" />
    <glyph glyph-name="uni0EAE" unicode="&#xeae;" horiz-adv-x="625" 
d="M191 150c0 19 -11 33 -31 33s-31 -14 -31 -33s11 -33 31 -33s31 14 31 33zM275 150c0 -28 -10 -52 -26 -70c15 -1 34 -1 56 -1c59 0 115 23 115 86c0 43 -51 60 -80 73c-38 17 -111 49 -151 66c-29 12 -144 55 -144 158c0 99 78 159 200 159c109 0 189 -63 242 -118
c2 17 5 34 8 47l15 65l115 -21v-6l-75 -198h-75c-40 41 -118 126 -225 126c-36 0 -60 -16 -60 -49c0 -29 29 -44 71 -62c40 -17 111 -47 153 -66c55 -25 151 -66 151 -174s-106 -186 -260 -186c-151 0 -260 74 -260 171c0 65 50 105 115 105s115 -40 115 -105z" />
    <glyph glyph-name="uni0EAF" unicode="&#xeaf;" horiz-adv-x="600" 
d="M180 84c104 10 215 35 215 119v157c0 12 1 26 3 40c-41 -63 -103 -115 -198 -115c-134 0 -170 95 -170 165v40c0 69 60 121 135 121c65 0 115 -40 115 -105s-50 -105 -115 -105h-6c6 -13 18 -21 41 -21c131 0 175 142 190 220c0 0 24 5 65 5c59 0 85 -42 85 -80v-322
c0 -128 -145 -214 -330 -224zM196 506c0 19 -11 33 -31 33s-31 -14 -31 -33s11 -33 31 -33s31 14 31 33z" />
    <glyph glyph-name="uni0EB0" unicode="&#xeb0;" horiz-adv-x="540" 
d="M129 460c0 -19 11 -33 31 -33s31 14 31 33s-11 33 -31 33s-31 -14 -31 -33zM129 160c0 -19 11 -33 31 -33s31 14 31 33s-11 33 -31 33s-31 -14 -31 -33zM50 427c-3 10 -5 21 -5 33c0 65 50 105 115 105s115 -40 115 -105c0 -19 -4 -36 -12 -51c4 1 8 1 12 1h10
c56 0 85 56 85 135l125 -15c0 -105 -67 -195 -205 -195h-75c-92 0 -149 38 -165 92zM50 127c-3 10 -5 21 -5 33c0 65 50 105 115 105s115 -40 115 -105c0 -19 -4 -36 -12 -51c4 1 8 1 12 1h10c56 0 85 56 85 135l125 -15c0 -105 -67 -195 -205 -195h-75
c-92 0 -149 38 -165 92z" />
    <glyph glyph-name="uni0EB1" unicode="&#xeb1;" 
d="M-420 839c-18 0 -28 -12 -28 -29s10 -29 28 -29s28 12 28 29s-10 29 -28 29zM-420 902c57 0 100 -35 100 -92c0 -18 -5 -33 -12 -46h7h50c54 0 95 24 95 122l110 -12c0 -110 -75 -180 -185 -180h-110c-92 0 -155 43 -155 116c0 57 43 92 100 92z" />
    <glyph glyph-name="uni0EB2" unicode="&#xeb2;" horiz-adv-x="510" 
d="M104 450c0 -19 11 -33 31 -33s31 14 31 33s-11 33 -31 33s-31 -14 -31 -33zM305 0v441c0 69 -36 90 -75 90c-6 0 -11 -1 -17 -1c23 -18 37 -45 37 -80c0 -65 -50 -105 -115 -105s-115 40 -115 105c0 89 85 171 215 171c140 0 215 -89 215 -185v-436h-145z" />
    <glyph glyph-name="uni0EB3" unicode="&#xeb3;" horiz-adv-x="510" 
d="M104 450c0 -19 11 -33 31 -33s31 14 31 33s-11 33 -31 33s-31 -14 -31 -33zM305 0v441c0 69 -36 90 -75 90c-6 0 -11 -1 -17 -1c23 -18 37 -45 37 -80c0 -65 -50 -105 -115 -105s-115 40 -115 105c0 89 85 171 215 171c140 0 215 -89 215 -185v-436h-145zM-200 780
c0 -65 -50 -105 -115 -105s-115 40 -115 105s50 105 115 105s115 -40 115 -105zM-284 780c0 19 -11 33 -31 33s-31 -14 -31 -33s11 -33 31 -33s31 14 31 33z" />
    <glyph glyph-name="uni0EB4" unicode="&#xeb4;" 
d="M-90 760c0 -53 -25 -81 -35 -90l-80 30c9 15 15 28 15 45c0 24 -19 55 -125 55s-125 -31 -125 -55c0 -17 6 -30 15 -45l-80 -30c-10 9 -35 37 -35 90c0 105 111 140 225 140s225 -35 225 -140z" />
    <glyph glyph-name="uni0EB5" unicode="&#xeb5;" 
d="M-545 760c0 105 101 140 210 140c94 0 200 -35 200 -140c0 -7 -1 -12 -2 -18c16 5 35 8 57 8h105v-80h-210l-55 30c9 15 15 28 15 45c0 24 -9 55 -110 55s-110 -31 -110 -55c0 -17 6 -30 15 -45l-80 -30c-10 9 -35 37 -35 90z" />
    <glyph glyph-name="uni0EB6" unicode="&#xeb6;" 
d="M-90 760c0 -53 -25 -81 -35 -90l-80 30c9 15 15 28 15 45c0 24 -19 70 -125 70s-125 -46 -125 -70c0 -17 6 -30 15 -45l-80 -30c-10 9 -35 37 -35 90c0 105 111 140 225 140s225 -35 225 -140zM-385 720c0 36 30 60 70 60s70 -24 70 -60s-30 -60 -70 -60s-70 24 -70 60z
" />
    <glyph glyph-name="uni0EB7" unicode="&#xeb7;" 
d="M-545 760c0 105 106 140 215 140c94 0 205 -35 205 -140c0 -7 -1 -12 -2 -18c16 5 35 8 57 8h95v-80h-200l-55 30c9 15 15 28 15 45c0 24 -14 70 -115 70s-115 -46 -115 -70c0 -17 6 -30 15 -45l-80 -30c-10 9 -35 37 -35 90zM-400 720c0 36 30 60 70 60s70 -24 70 -60
s-30 -60 -70 -60s-70 24 -70 60z" />
    <glyph glyph-name="uni0EB8" unicode="&#xeb8;" 
d="M-300 -121c-18 0 -28 -12 -28 -29s10 -29 28 -29s28 12 28 29s-10 29 -28 29zM-205 -245v-60h-100v40c0 9 2 16 6 23h-1c-57 0 -100 35 -100 92s43 92 100 92s100 -35 100 -92c0 -42 -5 -57 -5 -95z" />
    <glyph glyph-name="uni0EB9" unicode="&#xeb9;" 
d="M-400 -121c-18 0 -28 -12 -28 -29s10 -29 28 -29s28 12 28 29s-10 29 -28 29zM-405 -242c-54 2 -95 37 -95 92c0 57 43 92 100 92s100 -35 100 -92c0 -35 -10 -46 -10 -65v-10c0 -9 5 -20 35 -20s35 11 35 20v160h100v-170c0 -48 -54 -75 -135 -75s-130 17 -130 65v3z
" />
    <glyph glyph-name="uni0EBB" unicode="&#xebb;" 
d="M-435 741c18 0 28 12 28 29s-10 29 -28 29s-28 -12 -28 -29s10 -29 28 -29zM-435 678c-57 0 -100 35 -100 92c0 73 63 116 155 116h110c110 0 185 -70 185 -180l-110 -12c0 98 -41 122 -95 122h-50h-7c7 -13 12 -28 12 -46c0 -57 -43 -92 -100 -92z" />
    <glyph glyph-name="uni0EBC" unicode="&#xebc;" 
d="M-445 -121c-18 0 -28 -12 -28 -29s10 -29 28 -29s28 12 28 29s-10 29 -28 29zM-352 -188c-15 -34 -50 -54 -93 -54c-57 0 -100 35 -100 92s43 92 100 92c70 0 106 -43 125 -64c17 -18 44 -40 74 -40c41 0 55 72 61 105l90 -25c-20 -78 -56 -155 -150 -155
c-50 0 -83 24 -107 49z" />
    <glyph glyph-name="uni0EBD" unicode="&#xebd;" horiz-adv-x="575" 
d="M25 462c0 99 78 159 190 159c101 0 169 -52 214 -106c2 13 4 25 6 35l15 65l115 -21v-6l-75 -198h-75c-37 51 -109 126 -190 126c-36 0 -55 -19 -55 -49c0 -29 30 -41 71 -62c33 -17 88 -47 123 -66c53 -29 151 -66 151 -174v-206c0 -96 -75 -190 -230 -190
c-145 0 -230 82 -230 171c0 65 50 105 115 105s115 -40 115 -105c0 -34 -14 -62 -37 -80c10 -1 21 -1 32 -1c54 0 90 26 90 95v211c0 43 -47 58 -75 73c-33 17 -101 49 -131 66c-27 15 -139 55 -139 158zM139 -60c0 -19 11 -33 31 -33s31 14 31 33s-11 33 -31 33
s-31 -14 -31 -33z" />
    <glyph glyph-name="uni0EC0" unicode="&#xec0;" horiz-adv-x="350" 
d="M159 94c0 -19 11 -33 31 -33s31 14 31 33s-11 33 -31 33s-31 -14 -31 -33zM221 196c49 -11 84 -48 84 -102c0 -65 -50 -105 -115 -105s-115 40 -115 105c0 48 10 69 10 116v245c0 128 131 159 180 161l30 -96c-36 -5 -60 -21 -60 -63v-217c0 -18 -6 -32 -14 -44z" />
    <glyph glyph-name="uni0EC1" unicode="&#xec1;" horiz-adv-x="650" 
d="M459 94c0 -19 11 -33 31 -33s31 14 31 33s-11 33 -31 33s-31 -14 -31 -33zM521 196c49 -11 84 -48 84 -102c0 -65 -50 -105 -115 -105s-115 40 -115 105c0 48 10 69 10 116v245c0 128 131 159 180 161l30 -96c-36 -5 -60 -21 -60 -63v-217c0 -18 -6 -32 -14 -44zM159 94
c0 -19 11 -33 31 -33s31 14 31 33s-11 33 -31 33s-31 -14 -31 -33zM221 196c49 -11 84 -48 84 -102c0 -65 -50 -105 -115 -105s-115 40 -115 105c0 48 10 69 10 116v245c0 128 131 159 180 161l30 -96c-36 -5 -60 -21 -60 -63v-217c0 -18 -6 -32 -14 -44z" />
    <glyph glyph-name="uni0EC2" unicode="&#xec2;" horiz-adv-x="390" 
d="M5 780c0 54 41 135 150 135c90 0 141 -71 160 -100c25 -37 74 -91 110 -115l-75 -70c-39 25 -88 74 -135 144c-19 28 -35 41 -55 41c-16 0 -30 -10 -30 -35c0 -95 150 -208 150 -300v-240c0 -18 -6 -32 -14 -44c49 -11 84 -48 84 -102c0 -65 -50 -105 -115 -105
s-115 40 -115 105c0 48 10 69 10 116v270c0 89 -125 175 -125 300zM204 94c0 -19 11 -33 31 -33s31 14 31 33s-11 33 -31 33s-31 -14 -31 -33z" />
    <glyph glyph-name="uni0EC3" unicode="&#xec3;" horiz-adv-x="390" 
d="M15 750c0 87 67 165 195 165s195 -77 195 -165c0 -128 -125 -146 -125 -240v-270c0 -18 -6 -32 -14 -44c49 -11 84 -48 84 -102c0 -65 -50 -105 -115 -105s-115 40 -115 105c0 48 10 69 10 116v300c0 130 150 139 150 240c0 56 -32 75 -70 75s-70 -20 -70 -75
c0 -17 6 -31 13 -42l-114 -36c-13 21 -24 47 -24 78zM204 94c0 -19 11 -33 31 -33s31 14 31 33s-11 33 -31 33s-31 -14 -31 -33z" />
    <glyph glyph-name="uni0EC4" unicode="&#xec4;" horiz-adv-x="390" 
d="M15 850l45 81c76 -15 120 -63 120 -121v-60c0 -39 10 -55 45 -55c62 0 127 49 160 75l50 -80c-51 -36 -155 -101 -155 -180v-270c0 -18 -6 -32 -14 -44c49 -11 84 -48 84 -102c0 -65 -50 -105 -115 -105s-115 40 -115 105c0 48 10 69 10 116v300c0 40 22 72 52 98
c-68 10 -112 47 -112 112v71c0 35 -26 53 -55 59zM204 94c0 -19 11 -33 31 -33s31 14 31 33s-11 33 -31 33s-31 -14 -31 -33z" />
    <glyph glyph-name="uni0EC6" unicode="&#xec6;" horiz-adv-x="665" 
d="M236 285c0 19 -11 33 -31 33s-31 -14 -31 -33s11 -33 31 -33s31 14 31 33zM605 -19c0 -120 -103 -212 -260 -212c-162 0 -247 100 -260 197l145 10c9 -67 55 -97 115 -97c65 0 115 26 115 102v485c0 41 -27 45 -40 45c-17 0 -35 -13 -40 -40v-66h-120v66
c-5 27 -23 40 -40 40c-13 0 -40 -4 -40 -45v-35c0 -22 -6 -35 -14 -46c12 4 25 5 39 5c65 0 115 -40 115 -105s-50 -105 -115 -105c-107 0 -170 72 -170 160v126c0 79 49 155 160 155c58 0 98 -27 125 -58c27 31 67 58 125 58c111 0 160 -76 160 -155v-485z" />
    <glyph glyph-name="uni0EC8" unicode="&#xec8;" 
d="M-260 945l-110 20v175h110v-195z" />
    <glyph glyph-name="uni0EC9" unicode="&#xec9;" 
d="M-448 1090c0 -11 6 -19 18 -19s18 8 18 19s-6 19 -18 19s-18 -8 -18 -19zM-405 970c1 7 2 16 2 30c0 13 -2 24 -4 33c-7 -2 -15 -3 -23 -3c-37 0 -65 23 -65 60s28 60 65 60c64 0 90 -49 97 -92c2 -12 3 -28 4 -41c6 2 13 3 19 3c43 0 90 22 90 130l115 -15
c0 -114 -88 -185 -200 -185h-85z" />
    <glyph glyph-name="uni0ECA" unicode="&#xeca;" 
d="M-510 1038c0 93 52 112 85 112c46 0 67 -35 67 -35s16 35 62 35c33 0 90 -19 90 -112c0 -7 -1 -14 -3 -20c22 31 31 78 34 127l85 -14c-16 -94 -68 -175 -181 -186l-30 35c19 13 25 30 25 58c0 34 -3 57 -30 57c-25 0 -28 -23 -28 -35h-24h-24c0 12 -3 35 -28 35
c-23 0 -29 -16 -30 -42c10 5 21 7 33 7c37 0 65 -23 65 -60s-28 -60 -65 -60c-79 0 -103 52 -103 98zM-425 1000c0 -11 6 -19 18 -19s18 8 18 19s-6 19 -18 19s-18 -8 -18 -19z" />
    <glyph glyph-name="uni0ECB" unicode="&#xecb;" 
d="M-450 1015v60h85v65h100v-65h85v-60h-85v-70l-100 20v50h-85z" />
    <glyph glyph-name="uni0ECC" unicode="&#xecc;" 
d="M-390 799c-18 0 -28 -12 -28 -29s10 -29 28 -29s28 12 28 29s-10 29 -28 29zM-292 751c-8 -46 -48 -73 -98 -73c-57 0 -100 35 -100 92s43 92 100 92c49 0 74 -16 95 -30c18 -12 36 -19 59 -19c36 0 42 47 46 75l90 -20c-20 -78 -56 -130 -130 -130c-27 0 -47 5 -62 13z
" />
    <glyph glyph-name="uni0ECD" unicode="&#xecd;" 
d="M-200 780c0 -65 -50 -105 -115 -105s-115 40 -115 105s50 105 115 105s115 -40 115 -105zM-284 780c0 19 -11 33 -31 33s-31 -14 -31 -33s11 -33 31 -33s31 14 31 33z" />
    <glyph glyph-name="uni0ED0" unicode="&#xed0;" horiz-adv-x="720" 
d="M50 287v26c0 138 72 308 310 308s310 -170 310 -308v-26c0 -138 -72 -308 -310 -308s-310 170 -310 308zM360 89c102 0 160 70 160 198v26c0 128 -58 198 -160 198s-160 -70 -160 -198v-26c0 -128 58 -198 160 -198z" />
    <glyph glyph-name="uni0ED1" unicode="&#xed1;" horiz-adv-x="720" 
d="M50 330c0 129 83 291 310 291c238 0 310 -173 310 -311v-20c0 -152 -136 -319 -358 -335l-14 110c118 8 226 111 226 225v20c0 128 -58 203 -164 203c-111 0 -180 -72 -180 -183v-11c20 17 48 26 80 26c65 0 115 -40 115 -105s-50 -105 -115 -105
c-158 0 -210 109 -210 195zM229 240c0 -19 11 -33 31 -33s31 14 31 33s-11 33 -31 33s-31 -14 -31 -33z" />
    <glyph glyph-name="uni0ED2" unicode="&#xed2;" horiz-adv-x="720" 
d="M50 285v30c0 145 99 289 305 300c36 2 94 7 112 9c67 8 94 1 103 129l150 -15c-11 -158 -104 -206 -227 -222c-28 -4 -86 -9 -128 -11c-94 -5 -165 -71 -165 -190v-30c0 -126 70 -196 165 -196c97 0 156 50 171 125c-11 -3 -23 -4 -36 -4c-65 0 -115 40 -115 105
s50 105 115 105c109 0 150 -87 150 -175c0 -123 -78 -266 -285 -266c-229 0 -315 168 -315 306zM531 315c0 19 -11 33 -31 33s-31 -14 -31 -33s11 -33 31 -33s31 14 31 33z" />
    <glyph glyph-name="uni0ED3" unicode="&#xed3;" horiz-adv-x="670" 
d="M90 635c0 84 78 136 200 136c109 0 189 -63 242 -118c2 17 5 34 8 47l15 65l115 -21v-6l-75 -198h-75c-40 41 -118 131 -225 131c-36 0 -60 -9 -60 -36s29 -37 71 -55c40 -17 111 -47 153 -66c55 -25 151 -61 151 -169v-151c0 -104 -53 -210 -175 -210
c-73 0 -126 43 -168 85c-11 -50 -56 -80 -112 -80c-65 0 -115 40 -115 105c0 54 35 91 84 102c-8 12 -14 26 -14 44v180h148v-210c0 -15 1 -27 3 -38c46 -34 91 -78 141 -78c32 0 63 21 63 100v151c0 46 -51 60 -80 73c-38 17 -111 49 -151 66c-29 12 -144 59 -144 151z
M186 94c0 19 -11 33 -31 33s-31 -14 -31 -33s11 -33 31 -33s31 14 31 33z" />
    <glyph glyph-name="uni0ED4" unicode="&#xed4;" horiz-adv-x="720" 
d="M50 285v30c0 145 99 289 305 300c36 2 94 7 112 9c67 8 94 1 103 129l150 -15c-11 -158 -104 -206 -227 -222c-28 -4 -86 -9 -128 -11c-94 -5 -165 -71 -165 -190v-30c0 -119 54 -191 150 -191c13 0 25 1 36 2c-23 41 -36 91 -36 149c0 88 51 175 160 175
c65 0 115 -40 115 -105s-50 -105 -115 -105c-18 0 -34 3 -49 9c10 -97 107 -151 219 -159l-30 -105c-73 5 -135 23 -183 55c-26 -14 -64 -26 -117 -26c-228 0 -300 168 -300 301zM479 315c0 -19 11 -33 31 -33s31 14 31 33s-11 33 -31 33s-31 -14 -31 -33z" />
    <glyph glyph-name="uni0ED5" unicode="&#xed5;" horiz-adv-x="720" 
d="M479 315c0 -19 11 -33 31 -33s31 14 31 33s-11 33 -31 33s-31 -14 -31 -33zM334 650c0 -19 11 -33 31 -33s31 14 31 33s-11 33 -31 33s-31 -14 -31 -33zM250 650c0 65 50 105 115 105s115 -40 115 -105c0 -14 -2 -27 -7 -39c63 8 88 18 97 142l150 -15
c-11 -158 -103 -222 -227 -222c-25 0 -80 2 -118 4c-104 -18 -175 -86 -175 -205v-30c0 -119 54 -191 150 -191c13 0 25 1 36 2c-23 41 -36 91 -36 149c0 88 51 175 160 175c65 0 115 -40 115 -105s-50 -105 -115 -105c-18 0 -34 3 -49 9c10 -97 107 -151 219 -159l-30 -105
c-73 5 -135 23 -183 55c-26 -14 -64 -26 -117 -26c-228 0 -300 168 -300 301v30c0 123 71 237 217 276c-11 16 -17 36 -17 59z" />
    <glyph glyph-name="uni0ED6" unicode="&#xed6;" horiz-adv-x="680" 
d="M100 635c0 84 78 136 200 136c109 0 189 -63 242 -118c2 17 5 34 8 47l15 65l115 -21v-6l-75 -198h-75c-40 41 -118 131 -225 131c-36 0 -60 -9 -60 -36s29 -37 71 -55c40 -17 111 -47 153 -66c55 -25 151 -61 151 -169v-211c0 -79 -49 -155 -160 -155
c-58 0 -98 27 -125 58c-27 -31 -67 -58 -125 -58c-111 0 -160 76 -160 155v126c0 88 63 160 170 160c65 0 115 -40 115 -105s-50 -105 -115 -105c-14 0 -27 1 -39 5c8 -11 14 -24 14 -46v-35c0 -41 27 -45 40 -45c17 0 35 13 40 40v66h120v-66c5 -27 23 -40 40 -40
c13 0 40 4 40 45v211c0 46 -51 60 -80 73c-38 17 -111 49 -151 66c-29 12 -144 59 -144 151zM251 315c0 19 -11 33 -31 33s-31 -14 -31 -33s11 -33 31 -33s31 14 31 33z" />
    <glyph glyph-name="uni0ED7" unicode="&#xed7;" horiz-adv-x="690" 
d="M196 506c0 19 -11 33 -31 33s-31 -14 -31 -33s11 -33 31 -33s31 14 31 33zM196 94c0 19 -11 33 -31 33s-31 -14 -31 -33s11 -33 31 -33s31 14 31 33zM279 522c43 45 98 94 176 94c122 0 175 -106 175 -210v-616h-150v616c0 79 -28 100 -60 100c-54 0 -100 -51 -150 -85
c-1 -9 -2 -19 -2 -31v-90v-90c0 -47 12 -68 12 -116c0 -65 -50 -105 -115 -105s-115 40 -115 105c0 54 35 91 84 102c-8 12 -14 26 -14 44v60v60c0 18 6 32 14 44c-49 11 -84 48 -84 102c0 65 50 105 115 105c59 0 106 -34 114 -89z" />
    <glyph glyph-name="uni0ED8" unicode="&#xed8;" horiz-adv-x="680" 
d="M100 -35c0 92 115 139 144 151c40 17 113 49 151 66c29 13 80 27 80 73v211c0 41 -27 45 -40 45c-17 0 -35 -13 -40 -40v-66h-120v66c-5 27 -23 40 -40 40c-13 0 -40 -4 -40 -45v-35c0 -22 -6 -35 -14 -46c12 4 25 5 39 5c65 0 115 -40 115 -105s-50 -105 -115 -105
c-107 0 -170 72 -170 160v126c0 79 49 155 160 155c58 0 98 -27 125 -58c27 31 67 58 125 58c111 0 160 -76 160 -155v-211c0 -108 -96 -144 -151 -169c-42 -19 -113 -49 -153 -66c-42 -18 -71 -28 -71 -55s24 -36 60 -36c107 0 185 90 225 131h75l75 -198v-6l-115 -21
l-15 65c-3 13 -6 30 -8 47c-53 -55 -133 -118 -242 -118c-122 0 -200 52 -200 136zM251 285c0 19 -11 33 -31 33s-31 -14 -31 -33s11 -33 31 -33s31 14 31 33z" />
    <glyph glyph-name="uni0ED9" unicode="&#xed9;" horiz-adv-x="750" 
d="M144 94c0 -19 11 -33 31 -33s31 14 31 33s-11 33 -31 33s-31 -14 -31 -33zM202 197c52 -9 88 -47 88 -103c0 -65 -50 -105 -115 -105s-115 40 -115 105c0 48 10 69 10 116v241c0 85 68 165 196 165c123 0 188 -80 188 -165v-307c0 -52 22 -60 49 -60c23 0 42 8 42 60v456
h145v-451c0 -85 -61 -165 -187 -165c-121 0 -179 80 -179 165v307c0 52 -31 60 -58 60c-23 0 -51 -8 -51 -60v-216c0 -18 -5 -32 -13 -43z" />
    <glyph glyph-name="uni0EDE" unicode="&#xede;" horiz-adv-x="700" 
d="M186 506c0 19 -11 33 -31 33s-31 -14 -31 -33s11 -33 31 -33s31 14 31 33zM186 94c0 19 -11 33 -31 33s-31 -14 -31 -33s11 -33 31 -33s31 14 31 33zM330 315c0 -15 9 -26 25 -26s25 11 25 26s-9 26 -25 26s-25 -11 -25 -26zM470 276v130c0 79 -28 100 -60 100
c-54 0 -100 -51 -150 -85c-1 -9 -2 -19 -2 -31v-90v-90c0 -47 12 -68 12 -116c0 -65 -50 -105 -115 -105s-115 40 -115 105c0 54 35 91 84 102c-8 12 -14 26 -14 44v60v60c0 18 6 32 14 44c-49 11 -84 48 -84 102c0 65 50 105 115 105c59 0 106 -34 114 -89
c43 45 98 94 176 94c122 0 175 -106 175 -210v-91c22 9 41 18 55 25l25 -75c-22 -9 -49 -19 -80 -27v-238h-150v212c-20 -1 -40 -2 -60 -2c-92 0 -145 38 -145 105c0 51 39 83 90 83s90 -32 90 -83c0 -17 -4 -31 -11 -43c8 2 15 3 21 3c5 0 10 1 15 1z" />
    <glyph glyph-name="uni0EDF" unicode="&#xedf;" horiz-adv-x="690" 
d="M251 506c0 19 -11 33 -31 33s-31 -14 -31 -33s11 -33 31 -33s31 14 31 33zM320 315c0 -15 9 -26 25 -26s25 11 25 26s-9 26 -25 26s-25 -11 -25 -26zM281 247c-59 -9 -86 -33 -86 -67c0 -62 53 -91 135 -91s132 29 132 107v16c-20 -2 -41 -2 -62 -2c-54 0 -95 13 -119 37
zM610 238v-42c0 -122 -104 -217 -280 -217s-280 96 -280 195c0 61 41 99 95 119c-54 30 -95 87 -95 158c0 88 63 160 170 160c65 0 115 -40 115 -105s-50 -105 -115 -105c-20 0 -38 4 -54 11c12 -37 41 -59 94 -68c12 34 45 54 85 54c51 0 90 -32 90 -83
c0 -17 -4 -31 -11 -43c8 2 15 3 21 3s11 1 17 1v324h148v-285c22 9 41 18 55 25l25 -75c-22 -9 -49 -19 -80 -27z" />
    <glyph glyph-name="uni1E0C" unicode="&#x1e0c;" horiz-adv-x="770" 
d="M225 -180c0 54 41 88 95 88s95 -34 95 -88s-41 -88 -95 -88s-95 34 -95 88zM245 114c19 0 39 -1 55 -1c185 0 255 102 255 267v20c0 165 -70 267 -255 267c-16 0 -36 -1 -55 -1v-552zM75 780c0 0 112 9 225 9c321 0 425 -206 425 -389v-20c0 -183 -104 -389 -425 -389
c-113 0 -225 9 -225 9v780z" />
    <glyph glyph-name="uni1E0D" unicode="&#x1e0d;" horiz-adv-x="680" 
d="M265 -180c0 54 41 88 95 88s95 -34 95 -88s-41 -88 -95 -88s-95 34 -95 88zM40 290v20c0 130 66 306 255 306c67 0 118 -32 155 -77v271h155v-655c0 -46 8 -62 55 -68l-40 -103c-44 6 -130 25 -143 116c-38 -64 -97 -116 -182 -116c-189 0 -255 176 -255 306zM450 364
c-18 79 -64 136 -135 136c-65 0 -115 -53 -115 -190v-20c0 -137 50 -190 115 -190c71 0 117 57 135 136v128z" />
    <glyph glyph-name="uni1E0E" unicode="&#x1e0e;" horiz-adv-x="770" 
d="M110 -230v100h420v-100h-420zM245 114c19 0 39 -1 55 -1c185 0 255 102 255 267v20c0 165 -70 267 -255 267c-16 0 -36 -1 -55 -1v-552zM75 780c0 0 112 9 225 9c321 0 425 -206 425 -389v-20c0 -183 -104 -389 -425 -389c-113 0 -225 9 -225 9v780z" />
    <glyph glyph-name="uni1E0F" unicode="&#x1e0f;" horiz-adv-x="680" 
d="M150 -230v100h420v-100h-420zM40 290v20c0 130 66 306 255 306c67 0 118 -32 155 -77v271h155v-655c0 -46 8 -62 55 -68l-40 -103c-44 6 -130 25 -143 116c-38 -64 -97 -116 -182 -116c-189 0 -255 176 -255 306zM450 364c-18 79 -64 136 -135 136
c-65 0 -115 -53 -115 -190v-20c0 -137 50 -190 115 -190c71 0 117 57 135 136v128z" />
    <glyph glyph-name="uni1E20" unicode="&#x1e20;" horiz-adv-x="770" 
d="M200 880v100h420v-100h-420zM415 285v120h310v-270c-41 -69 -139 -156 -313 -156c-289 0 -367 221 -367 396v30c0 175 78 396 367 396c212 0 303 -137 318 -219l-172 -16c-9 50 -58 109 -146 109c-121 0 -193 -89 -193 -270v-30c0 -181 72 -270 193 -270
c86 0 132 26 158 55v125h-155z" />
    <glyph glyph-name="uni1E21" unicode="&#x1e21;" horiz-adv-x="670" 
d="M150 730v100h420v-100h-420zM40 315c0 125 66 301 255 301c73 0 126 -38 164 -89l10 73h136v-615c0 -120 -100 -216 -258 -216c-154 0 -235 72 -252 114l148 42c7 -16 38 -47 104 -47c63 0 108 29 108 107v113c-37 -48 -90 -84 -160 -84c-189 0 -255 176 -255 301z
M450 364c-18 79 -64 136 -135 136c-65 0 -115 -53 -115 -185s50 -185 115 -185c71 0 117 57 135 136v98z" />
    <glyph glyph-name="uni1E24" unicode="&#x1e24;" horiz-adv-x="790" 
d="M300 -180c0 54 41 88 95 88s95 -34 95 -88s-41 -88 -95 -88s-95 34 -95 88zM75 0v780h170v-325h300v325h170v-780h-170v325h-300v-325h-170z" />
    <glyph glyph-name="uni1E25" unicode="&#x1e25;" horiz-adv-x="665" 
d="M265 -180c0 54 41 88 95 88s95 -34 95 -88s-41 -88 -95 -88s-95 34 -95 88zM70 0v810h155v-328c42 73 109 134 210 134c122 0 175 -106 175 -210v-406h-160v400c0 79 -37 90 -60 90c-67 0 -140 -87 -160 -187v-303h-160z" />
    <glyph glyph-name="uni1E2A" unicode="&#x1e2a;" horiz-adv-x="790" 
d="M185 -101l96 31c11 -34 36 -80 114 -80s103 46 114 80l96 -31c-21 -68 -80 -144 -210 -144s-189 76 -210 144zM75 0v780h170v-325h300v325h170v-780h-170v325h-300v-325h-170z" />
    <glyph glyph-name="uni1E2B" unicode="&#x1e2b;" horiz-adv-x="665" 
d="M150 -101l96 31c11 -34 36 -80 114 -80s103 46 114 80l96 -31c-21 -68 -80 -144 -210 -144s-189 76 -210 144zM70 0v810h155v-328c42 73 109 134 210 134c122 0 175 -106 175 -210v-406h-160v400c0 79 -37 90 -60 90c-67 0 -140 -87 -160 -187v-303h-160z" />
    <glyph glyph-name="uni1E36" unicode="&#x1e36;" horiz-adv-x="570" 
d="M225 -180c0 54 41 88 95 88s95 -34 95 -88s-41 -88 -95 -88s-95 34 -95 88zM75 0v780h172v-650h313v-130h-485z" />
    <glyph glyph-name="uni1E37" unicode="&#x1e37;" horiz-adv-x="315" 
d="M95 -180c0 54 41 88 95 88s95 -34 95 -88s-41 -88 -95 -88s-95 34 -95 88zM70 140v670h160v-655c0 -46 23 -62 85 -68l-30 -103c-87 6 -215 30 -215 156z" />
    <glyph glyph-name="uni1E38" unicode="&#x1e38;" horiz-adv-x="570" 
d="M-50 880v100h420v-100h-420zM225 -180c0 54 41 88 95 88s95 -34 95 -88s-41 -88 -95 -88s-95 34 -95 88zM75 0v780h172v-650h313v-130h-485z" />
    <glyph glyph-name="uni1E39" unicode="&#x1e39;" horiz-adv-x="315" 
d="M-70 910v100h420v-100h-420zM95 -180c0 54 41 88 95 88s95 -34 95 -88s-41 -88 -95 -88s-95 34 -95 88zM70 140v670h160v-655c0 -46 23 -62 85 -68l-30 -103c-87 6 -215 30 -215 156z" />
    <glyph glyph-name="uni1E3A" unicode="&#x1e3a;" horiz-adv-x="570" 
d="M110 -230v100h420v-100h-420zM75 0v780h172v-650h313v-130h-485z" />
    <glyph glyph-name="uni1E3B" unicode="&#x1e3b;" horiz-adv-x="315" 
d="M-20 -230v100h420v-100h-420zM70 140v670h160v-655c0 -46 23 -62 85 -68l-30 -103c-87 6 -215 30 -215 156z" />
    <glyph glyph-name="uni1E42" unicode="&#x1e42;" horiz-adv-x="880" 
d="M345 -180c0 54 41 88 95 88s95 -34 95 -88s-41 -88 -95 -88s-95 34 -95 88zM805 0h-168v466l-157 -271h-80l-157 271v-466h-168v765l140 15l225 -412l225 412l140 -15v-765z" />
    <glyph glyph-name="uni1E43" unicode="&#x1e43;" horiz-adv-x="945" 
d="M385 -180c0 54 41 88 95 88s95 -34 95 -88s-41 -88 -95 -88s-95 34 -95 88zM60 591l145 12l13 -97c34 62 88 110 172 110s133 -50 155 -115c34 64 88 115 175 115c122 0 170 -106 170 -210v-406h-160v400c0 79 -32 90 -55 90c-54 0 -98 -75 -115 -167v-323h-160v400
c0 79 -32 90 -55 90c-54 0 -98 -75 -115 -167v-323h-160v420z" />
    <glyph glyph-name="uni1E44" unicode="&#x1e44;" horiz-adv-x="790" 
d="M300 930c0 54 41 88 95 88s95 -34 95 -88s-41 -88 -95 -88s-95 34 -95 88zM75 0v765l145 15l329 -507v507h166v-780h-145l-329 507v-507h-166z" />
    <glyph glyph-name="uni1E45" unicode="&#x1e45;" horiz-adv-x="655" 
d="M235 780c0 54 41 88 95 88s95 -34 95 -88s-41 -88 -95 -88s-95 34 -95 88zM70 0v420l-10 171l145 12l16 -119c40 72 104 132 204 132c122 0 175 -106 175 -210v-406h-160v400c0 79 -37 90 -60 90c-67 0 -131 -85 -150 -185v-305h-160z" />
    <glyph glyph-name="uni1E46" unicode="&#x1e46;" horiz-adv-x="790" 
d="M300 -180c0 54 41 88 95 88s95 -34 95 -88s-41 -88 -95 -88s-95 34 -95 88zM75 0v765l145 15l329 -507v507h166v-780h-145l-329 507v-507h-166z" />
    <glyph glyph-name="uni1E47" unicode="&#x1e47;" horiz-adv-x="655" 
d="M265 -180c0 54 41 88 95 88s95 -34 95 -88s-41 -88 -95 -88s-95 34 -95 88zM70 0v420l-10 171l145 12l16 -119c40 72 104 132 204 132c122 0 175 -106 175 -210v-406h-160v400c0 79 -37 90 -60 90c-67 0 -131 -85 -150 -185v-305h-160z" />
    <glyph glyph-name="uni1E48" unicode="&#x1e48;" horiz-adv-x="790" 
d="M185 -230v100h420v-100h-420zM75 0v765l145 15l329 -507v507h166v-780h-145l-329 507v-507h-166z" />
    <glyph glyph-name="uni1E49" unicode="&#x1e49;" horiz-adv-x="655" 
d="M150 -230v100h420v-100h-420zM70 0v420l-10 171l145 12l16 -119c40 72 104 132 204 132c122 0 175 -106 175 -210v-406h-160v400c0 79 -37 90 -60 90c-67 0 -131 -85 -150 -185v-305h-160z" />
    <glyph glyph-name="uni1E5A" unicode="&#x1e5a;" horiz-adv-x="730" 
d="M265 -180c0 54 41 88 95 88s95 -34 95 -88s-41 -88 -95 -88s-95 34 -95 88zM280 302c-12 0 -25 1 -37 1v-303h-168v310v470s137 9 275 9c200 0 335 -94 335 -244c0 -120 -86 -204 -223 -233l253 -304v-8h-192zM243 424c24 -1 55 -3 87 -3c102 0 187 25 187 124
s-85 124 -187 124c-32 0 -63 -2 -87 -3v-242z" />
    <glyph glyph-name="uni1E5B" unicode="&#x1e5b;" horiz-adv-x="435" 
d="M75 -180c0 54 41 88 95 88s95 -34 95 -88s-41 -88 -95 -88s-95 34 -95 88zM55 588l134 15l33 -120c26 72 72 133 157 133c28 0 51 -7 71 -17l-60 -130c-11 7 -23 11 -39 11c-49 0 -87 -73 -101 -166v-314h-160v450z" />
    <glyph glyph-name="uni1E5C" unicode="&#x1e5c;" horiz-adv-x="730" 
d="M150 880v100h420v-100h-420zM265 -180c0 54 41 88 95 88s95 -34 95 -88s-41 -88 -95 -88s-95 34 -95 88zM280 302c-12 0 -25 1 -37 1v-303h-168v310v470s137 9 275 9c200 0 335 -94 335 -244c0 -120 -86 -204 -223 -233l253 -304v-8h-192zM243 424c24 -1 55 -3 87 -3
c102 0 187 25 187 124s-85 124 -187 124c-32 0 -63 -2 -87 -3v-242z" />
    <glyph glyph-name="uni1E5D" unicode="&#x1e5d;" horiz-adv-x="435" 
d="M30 730v100h420v-100h-420zM75 -180c0 54 41 88 95 88s95 -34 95 -88s-41 -88 -95 -88s-95 34 -95 88zM55 588l134 15l33 -120c26 72 72 133 157 133c28 0 51 -7 71 -17l-60 -130c-11 7 -23 11 -39 11c-49 0 -87 -73 -101 -166v-314h-160v450z" />
    <glyph glyph-name="uni1E5E" unicode="&#x1e5e;" horiz-adv-x="730" 
d="M150 -230v100h420v-100h-420zM280 302c-12 0 -25 1 -37 1v-303h-168v310v470s137 9 275 9c200 0 335 -94 335 -244c0 -120 -86 -204 -223 -233l253 -304v-8h-192zM243 424c24 -1 55 -3 87 -3c102 0 187 25 187 124s-85 124 -187 124c-32 0 -63 -2 -87 -3v-242z" />
    <glyph glyph-name="uni1E5F" unicode="&#x1e5f;" horiz-adv-x="435" 
d="M-40 -230v100h420v-100h-420zM55 588l134 15l33 -120c26 72 72 133 157 133c28 0 51 -7 71 -17l-60 -130c-11 7 -23 11 -39 11c-49 0 -87 -73 -101 -166v-314h-160v450z" />
    <glyph glyph-name="uni1E60" unicode="&#x1e60;" horiz-adv-x="710" 
d="M260 930c0 54 41 88 95 88s95 -34 95 -88s-41 -88 -95 -88s-95 34 -95 88zM40 184l168 24c9 -52 58 -107 147 -107c99 0 150 38 150 106c0 63 -46 81 -77 90c-56 15 -141 43 -198 63c-73 27 -173 88 -173 209c0 132 121 232 298 232c189 0 280 -123 295 -201l-168 -24
c-9 52 -56 103 -127 103c-81 0 -133 -40 -133 -102c0 -50 40 -65 82 -81c52 -18 135 -44 184 -59c87 -27 182 -90 182 -222c0 -133 -120 -236 -315 -236c-205 0 -300 125 -315 205z" />
    <glyph glyph-name="uni1E61" unicode="&#x1e61;" horiz-adv-x="570" 
d="M190 780c0 54 41 88 95 88s95 -34 95 -88s-41 -88 -95 -88s-95 34 -95 88zM30 143l155 20c6 -39 43 -72 106 -72c61 0 97 27 97 71c0 42 -35 57 -55 63c-44 13 -105 29 -148 45c-60 22 -140 62 -140 165c0 104 95 186 240 186c158 0 228 -97 240 -161l-155 -20
c-6 39 -32 69 -85 69c-52 0 -88 -26 -88 -68c0 -33 33 -48 58 -56c41 -13 105 -31 138 -41c72 -22 147 -63 147 -176c0 -106 -98 -189 -255 -189c-169 0 -243 98 -255 164z" />
    <glyph glyph-name="uni1E62" unicode="&#x1e62;" horiz-adv-x="710" 
d="M260 -180c0 54 41 88 95 88s95 -34 95 -88s-41 -88 -95 -88s-95 34 -95 88zM40 184l168 24c9 -52 58 -107 147 -107c99 0 150 38 150 106c0 63 -46 81 -77 90c-56 15 -141 43 -198 63c-73 27 -173 88 -173 209c0 132 121 232 298 232c189 0 280 -123 295 -201l-168 -24
c-9 52 -56 103 -127 103c-81 0 -133 -40 -133 -102c0 -50 40 -65 82 -81c52 -18 135 -44 184 -59c87 -27 182 -90 182 -222c0 -133 -120 -236 -315 -236c-205 0 -300 125 -315 205z" />
    <glyph glyph-name="uni1E63" unicode="&#x1e63;" horiz-adv-x="570" 
d="M190 -180c0 54 41 88 95 88s95 -34 95 -88s-41 -88 -95 -88s-95 34 -95 88zM30 143l155 20c6 -39 43 -72 106 -72c61 0 97 27 97 71c0 42 -35 57 -55 63c-44 13 -105 29 -148 45c-60 22 -140 62 -140 165c0 104 95 186 240 186c158 0 228 -97 240 -161l-155 -20
c-6 39 -32 69 -85 69c-52 0 -88 -26 -88 -68c0 -33 33 -48 58 -56c41 -13 105 -31 138 -41c72 -22 147 -63 147 -176c0 -106 -98 -189 -255 -189c-169 0 -243 98 -255 164z" />
    <glyph glyph-name="uni1E6C" unicode="&#x1e6c;" horiz-adv-x="620" 
d="M215 -180c0 54 41 88 95 88s95 -34 95 -88s-41 -88 -95 -88s-95 34 -95 88zM15 655v125h590v-125h-210v-655h-170v655h-210z" />
    <glyph glyph-name="uni1E6D" unicode="&#x1e6d;" horiz-adv-x="415" 
d="M185 -180c0 54 41 88 95 88s95 -34 95 -88s-41 -88 -95 -88s-95 34 -95 88zM20 500v100h86v123l151 12v-135h133v-100h-130v-336c0 -53 10 -66 39 -66c35 0 71 13 84 21l37 -104c-32 -16 -78 -31 -142 -31c-105 0 -178 43 -178 156v360h-80z" />
    <glyph glyph-name="uni1E6E" unicode="&#x1e6e;" horiz-adv-x="620" 
d="M100 -230v100h420v-100h-420zM15 655v125h590v-125h-210v-655h-170v655h-210z" />
    <glyph glyph-name="uni1E6F" unicode="&#x1e6f;" horiz-adv-x="415" 
d="M70 -230v100h420v-100h-420zM20 500v100h86v123l151 12v-135h133v-100h-130v-336c0 -53 10 -66 39 -66c35 0 71 13 84 21l37 -104c-32 -16 -78 -31 -142 -31c-105 0 -178 43 -178 156v360h-80z" />
    <glyph glyph-name="Wgrave" unicode="&#x1e80;" horiz-adv-x="1060" 
d="M365 955l65 105l220 -160l-40 -60zM10 754v10l185 16l126 -533l139 513h140l139 -513l126 533l185 -16v-10l-225 -754h-145l-150 518l-150 -518h-145z" />
    <glyph glyph-name="wgrave" unicode="&#x1e81;" horiz-adv-x="830" 
d="M250 805l65 105l220 -160l-40 -60zM825 580l-173 -580h-135l-102 362l-102 -362h-135l-173 580v8l170 12l84 -364l93 349h126l93 -349l84 364l170 -12v-8z" />
    <glyph glyph-name="Wacute" unicode="&#x1e82;" horiz-adv-x="1060" 
d="M695 955l-245 -115l-40 60l220 160zM10 754v10l185 16l126 -533l139 513h140l139 -513l126 533l185 -16v-10l-225 -754h-145l-150 518l-150 -518h-145z" />
    <glyph glyph-name="wacute" unicode="&#x1e83;" horiz-adv-x="830" 
d="M580 805l-245 -115l-40 60l220 160zM825 580l-173 -580h-135l-102 362l-102 -362h-135l-173 580v8l170 12l84 -364l93 349h126l93 -349l84 364l170 -12v-8z" />
    <glyph glyph-name="Wdieresis" unicode="&#x1e84;" horiz-adv-x="1060" 
d="M405 1009c49 0 85 -30 85 -79s-36 -79 -85 -79s-85 30 -85 79s36 79 85 79zM655 1009c49 0 85 -30 85 -79s-36 -79 -85 -79s-85 30 -85 79s36 79 85 79zM10 754v10l185 16l126 -533l139 513h140l139 -513l126 533l185 -16v-10l-225 -754h-145l-150 518l-150 -518h-145z
" />
    <glyph glyph-name="wdieresis" unicode="&#x1e85;" horiz-adv-x="830" 
d="M290 859c49 0 85 -30 85 -79s-36 -79 -85 -79s-85 30 -85 79s36 79 85 79zM540 859c49 0 85 -30 85 -79s-36 -79 -85 -79s-85 30 -85 79s36 79 85 79zM825 580l-173 -580h-135l-102 362l-102 -362h-135l-173 580v8l170 12l84 -364l93 349h126l93 -349l84 364l170 -12v-8z
" />
    <glyph glyph-name="uni1E8E" unicode="&#x1e8e;" horiz-adv-x="670" 
d="M240 930c0 54 41 88 95 88s95 -34 95 -88s-41 -88 -95 -88s-95 34 -95 88zM-5 754v11l190 15l150 -330l150 330l190 -15v-11l-255 -464v-290h-170v290z" />
    <glyph glyph-name="uni1E8F" unicode="&#x1e8f;" horiz-adv-x="600" 
d="M205 780c0 54 41 88 95 88s95 -34 95 -88s-41 -88 -95 -88s-95 34 -95 88zM0 580v8l175 12l127 -400l123 400l175 -12v-8l-235 -595c-50 -109 -87 -216 -227 -216c-58 0 -101 22 -128 42l75 94c15 -13 31 -26 48 -26c39 0 60 40 99 129z" />
    <glyph glyph-name="uni1E92" unicode="&#x1e92;" horiz-adv-x="670" 
d="M240 -180c0 54 41 88 95 88s95 -34 95 -88s-41 -88 -95 -88s-95 34 -95 88zM20 96l393 554h-363v130h577l12 -96l-391 -554h402v-130h-618z" />
    <glyph glyph-name="uni1E93" unicode="&#x1e93;" horiz-adv-x="530" 
d="M170 -180c0 54 41 88 95 88s95 -34 95 -88s-41 -88 -95 -88s-95 34 -95 88zM15 79l285 411h-260v110h460l9 -79l-285 -411h291v-110h-491z" />
    <glyph glyph-name="uni1E97" unicode="&#x1e97;" horiz-adv-x="415" 
d="M55 979c49 0 85 -30 85 -79s-36 -79 -85 -79s-85 30 -85 79s36 79 85 79zM305 979c49 0 85 -30 85 -79s-36 -79 -85 -79s-85 30 -85 79s36 79 85 79zM20 500v100h86v123l151 12v-135h133v-100h-130v-336c0 -53 10 -66 39 -66c35 0 71 13 84 21l37 -104
c-32 -16 -78 -31 -142 -31c-105 0 -178 43 -178 156v360h-80z" />
    <glyph glyph-name="uni1E9E" unicode="&#x1e9e;" horiz-adv-x="800" 
d="M300 153l165 12c6 -41 31 -64 65 -64c33 0 65 18 65 68c0 41 -34 56 -46 61c-36 14 -78 33 -112 47c-57 24 -122 80 -122 173c0 10 3 30 3 30l167 73c-3 76 -50 126 -125 126c-53 0 -120 -21 -120 -145v-534h-170v534c0 162 119 267 290 267c231 0 300 -181 300 -271
c0 -10 -3 -30 -3 -30l-176 -76c11 -20 32 -28 42 -32c34 -14 78 -32 108 -44c60 -23 129 -86 129 -179c0 -95 -77 -190 -230 -190c-163 0 -222 113 -230 174z" />
    <glyph glyph-name="uni1EA0" unicode="&#x1ea0;" horiz-adv-x="750" 
d="M280 -180c0 54 41 88 95 88s95 -34 95 -88s-41 -88 -95 -88s-95 34 -95 88zM750 0h-190l-49 150h-272l-49 -150h-190v11l305 769h140l305 -769v-11zM472 270l-97 296l-97 -296h194z" />
    <glyph glyph-name="uni1EA1" unicode="&#x1ea1;" horiz-adv-x="625" 
d="M235 -180c0 54 41 88 95 88s95 -34 95 -88s-41 -88 -95 -88s-95 34 -95 88zM40 174c0 75 63 156 213 156c52 0 103 -3 147 -7v89c0 74 -47 95 -100 95c-47 0 -86 -26 -95 -92l-160 12c13 92 92 194 255 194c157 0 255 -93 255 -209v-257c0 -46 8 -62 55 -68l-40 -103
c-36 5 -99 18 -129 72c-36 -41 -90 -72 -171 -72c-146 0 -230 76 -230 190zM408 230c-41 5 -95 9 -146 9c-28 0 -67 -17 -67 -67c0 -71 50 -93 95 -93c77 0 108 56 118 124v27z" />
    <glyph glyph-name="uni1EA2" unicode="&#x1ea2;" horiz-adv-x="750" 
d="M255 1025c29 17 69 30 122 30c66 0 118 -33 118 -95c0 -95 -83 -122 -150 -140l-25 50c45 18 80 38 80 70c0 22 -11 30 -42 30c-29 0 -72 -14 -93 -24zM750 0h-190l-49 150h-272l-49 -150h-190v11l305 769h140l305 -769v-11zM472 270l-97 296l-97 -296h194z" />
    <glyph glyph-name="uni1EA3" unicode="&#x1ea3;" horiz-adv-x="625" 
d="M190 875c29 17 69 30 122 30c66 0 118 -33 118 -95c0 -95 -83 -122 -150 -140l-25 50c45 18 80 38 80 70c0 22 -11 30 -42 30c-29 0 -72 -14 -93 -24zM40 174c0 75 63 156 213 156c52 0 103 -3 147 -7v89c0 74 -47 95 -100 95c-47 0 -86 -26 -95 -92l-160 12
c13 92 92 194 255 194c157 0 255 -93 255 -209v-257c0 -46 8 -62 55 -68l-40 -103c-36 5 -99 18 -129 72c-36 -41 -90 -72 -171 -72c-146 0 -230 76 -230 190zM408 230c-41 5 -95 9 -146 9c-28 0 -67 -17 -67 -67c0 -71 50 -93 95 -93c77 0 108 56 118 124v27z" />
    <glyph glyph-name="uni1EA4" unicode="&#x1ea4;" horiz-adv-x="750" 
d="M515 1135l-245 -115l-40 60l220 160zM165 875l190 145h40l190 -145l-45 -50l-165 80l-165 -80zM750 0h-190l-49 150h-272l-49 -150h-190v11l305 769h140l305 -769v-11zM472 270l-97 296l-97 -296h194z" />
    <glyph glyph-name="uni1EA5" unicode="&#x1ea5;" horiz-adv-x="625" 
d="M435 985l-245 -115l-40 60l220 160zM100 725l190 145h40l190 -145l-45 -50l-165 80l-165 -80zM40 174c0 75 63 156 213 156c52 0 103 -3 147 -7v89c0 74 -47 95 -100 95c-47 0 -86 -26 -95 -92l-160 12c13 92 92 194 255 194c157 0 255 -93 255 -209v-257
c0 -46 8 -62 55 -68l-40 -103c-36 5 -99 18 -129 72c-36 -41 -90 -72 -171 -72c-146 0 -230 76 -230 190zM408 230c-41 5 -95 9 -146 9c-28 0 -67 -17 -67 -67c0 -71 50 -93 95 -93c77 0 108 56 118 124v27z" />
    <glyph glyph-name="uni1EA6" unicode="&#x1ea6;" horiz-adv-x="750" 
d="M245 1135l65 105l220 -160l-40 -60zM165 875l190 145h40l190 -145l-45 -50l-165 80l-165 -80zM750 0h-190l-49 150h-272l-49 -150h-190v11l305 769h140l305 -769v-11zM472 270l-97 296l-97 -296h194z" />
    <glyph glyph-name="uni1EA7" unicode="&#x1ea7;" horiz-adv-x="625" 
d="M165 985l65 105l220 -160l-40 -60zM100 725l190 145h40l190 -145l-45 -50l-165 80l-165 -80zM40 174c0 75 63 156 213 156c52 0 103 -3 147 -7v89c0 74 -47 95 -100 95c-47 0 -86 -26 -95 -92l-160 12c13 92 92 194 255 194c157 0 255 -93 255 -209v-257
c0 -46 8 -62 55 -68l-40 -103c-36 5 -99 18 -129 72c-36 -41 -90 -72 -171 -72c-146 0 -230 76 -230 190zM408 230c-41 5 -95 9 -146 9c-28 0 -67 -17 -67 -67c0 -71 50 -93 95 -93c77 0 108 56 118 124v27z" />
    <glyph glyph-name="uni1EA8" unicode="&#x1ea8;" horiz-adv-x="750" 
d="M410 1205c29 17 69 30 122 30c66 0 118 -33 118 -95c0 -95 -83 -122 -150 -140l-25 50c45 18 80 38 80 70c0 22 -11 30 -42 30c-29 0 -72 -14 -93 -24zM165 875l190 145h40l190 -145l-45 -50l-165 80l-165 -80zM750 0h-190l-49 150h-272l-49 -150h-190v11l305 769h140
l305 -769v-11zM472 270l-97 296l-97 -296h194z" />
    <glyph glyph-name="uni1EA9" unicode="&#x1ea9;" horiz-adv-x="625" 
d="M330 1055c29 17 69 30 122 30c66 0 118 -33 118 -95c0 -95 -83 -122 -150 -140l-25 50c45 18 80 38 80 70c0 22 -11 30 -42 30c-29 0 -72 -14 -93 -24zM100 725l190 145h40l190 -145l-45 -50l-165 80l-165 -80zM40 174c0 75 63 156 213 156c52 0 103 -3 147 -7v89
c0 74 -47 95 -100 95c-47 0 -86 -26 -95 -92l-160 12c13 92 92 194 255 194c157 0 255 -93 255 -209v-257c0 -46 8 -62 55 -68l-40 -103c-36 5 -99 18 -129 72c-36 -41 -90 -72 -171 -72c-146 0 -230 76 -230 190zM408 230c-41 5 -95 9 -146 9c-28 0 -67 -17 -67 -67
c0 -71 50 -93 95 -93c77 0 108 56 118 124v27z" />
    <glyph glyph-name="uni1EAA" unicode="&#x1eaa;" horiz-adv-x="750" 
d="M165 1070c27 66 60 125 135 125c60 0 94 -30 115 -48c19 -16 29 -27 39 -27c25 0 42 50 51 70l80 -30c-27 -66 -60 -125 -135 -125c-60 0 -94 30 -115 48c-19 16 -29 27 -39 27c-25 0 -42 -50 -51 -70zM165 875l190 145h40l190 -145l-45 -50l-165 80l-165 -80zM750 0
h-190l-49 150h-272l-49 -150h-190v11l305 769h140l305 -769v-11zM472 270l-97 296l-97 -296h194z" />
    <glyph glyph-name="uni1EAB" unicode="&#x1eab;" horiz-adv-x="625" 
d="M100 920c27 66 60 125 135 125c60 0 94 -30 115 -48c19 -16 29 -27 39 -27c25 0 42 50 51 70l80 -30c-27 -66 -60 -125 -135 -125c-60 0 -94 30 -115 48c-19 16 -29 27 -39 27c-25 0 -42 -50 -51 -70zM100 725l190 145h40l190 -145l-45 -50l-165 80l-165 -80zM40 174
c0 75 63 156 213 156c52 0 103 -3 147 -7v89c0 74 -47 95 -100 95c-47 0 -86 -26 -95 -92l-160 12c13 92 92 194 255 194c157 0 255 -93 255 -209v-257c0 -46 8 -62 55 -68l-40 -103c-36 5 -99 18 -129 72c-36 -41 -90 -72 -171 -72c-146 0 -230 76 -230 190zM408 230
c-41 5 -95 9 -146 9c-28 0 -67 -17 -67 -67c0 -71 50 -93 95 -93c77 0 108 56 118 124v27z" />
    </font>
</defs>
</svg>
