<?xml version="1.0" standalone="no"?>
<!DOCTYPE svg PUBLIC "-//W3C//DTD SVG 1.1//EN" "http://www.w3.org/Graphics/SVG/1.1/DTD/svg11.dtd" >
<svg xmlns="http://www.w3.org/2000/svg" xmlns:xlink="http://www.w3.org/1999/xlink" version="1.1">
<metadata>
Created by FontForge 20151104 at Tue Dec  1 20:21:08 2015
 By sungsit
Copyright 2013-2015, Sungsit Sawaiwan (https://fontuni.com | uni@fontuni.com). This Font Software is licensed under the SIL Open Font License, Version 1.1 (http://scripts.sil.org/OFL).
</metadata>
<defs>
<font id="Boon-400i" horiz-adv-x="0" >
  <font-face 
    font-family="Boon"
    font-weight="400"
    font-style="italic"
    font-stretch="normal"
    units-per-em="1200"
    panose-1="2 0 5 3 0 0 0 0 0 0"
    ascent="960"
    descent="-240"
    x-height="600"
    cap-height="780"
    bbox="-608 -520 1106 1232"
    underline-thickness="60"
    underline-position="-120"
    slope="-9"
    stemh="64"
    stemv="90"
    unicode-range="U+0009-FEFF"
  />
<missing-glyph horiz-adv-x="660" 
d="M42 0l95 600h228h228l-95 -600h-228h-228zM281 69h143l73 462h-143h-143l-73 -462h143z" />
    <glyph glyph-name="uni0EDC" unicode="&#xeab;&#xe99;" horiz-adv-x="1120" 
d="M499 40c52 6 89 34 98 91l48 304c4 22 5 41 5 56c0 36 -11 51 -36 51c-31 0 -66 -30 -89 -64c-21 -56 -66 -82 -76 -148l-30 -193c-13 -83 -81 -150 -196 -150c-106 0 -156 54 -156 125c0 8 1 16 2 25l23 148c9 57 56 100 89 133c-7 -1 -14 -2 -21 -2
c-54 0 -89 31 -89 79c0 5 0 11 1 17c9 57 58 96 118 96c54 0 89 -31 89 -79c0 -5 0 -11 -1 -17c-16 -101 -90 -137 -104 -227l-24 -151c-1 -7 -2 -15 -2 -21c0 -48 33 -68 84 -68c60 0 102 26 112 89l29 181c7 45 33 78 56 102c-5 0 -9 -1 -14 -1c-54 0 -89 31 -89 79
c0 5 0 11 1 17c9 57 58 96 118 96c49 0 83 -26 89 -67c33 35 77 67 118 67c61 0 82 -43 82 -103c0 -18 -2 -38 -5 -59l-39 -242c21 -85 63 -153 131 -153c44 0 86 35 100 123l67 426h85l-67 -421c-16 -104 -73 -192 -175 -192c-83 0 -130 55 -157 123
c-26 -89 -112 -119 -165 -123zM422 460c31 0 55 22 60 52c1 3 1 7 1 10c0 25 -17 42 -45 42c-31 0 -55 -22 -60 -52c-1 -3 -1 -7 -1 -10c0 -25 17 -42 45 -42zM167 460c31 0 55 22 60 52c1 3 1 7 1 10c0 25 -17 42 -45 42c-31 0 -55 -22 -60 -52c-1 -3 -1 -7 -1 -10
c0 -25 17 -42 45 -42z" />
    <glyph glyph-name="uni0EDD" unicode="&#xeab;&#xea1;" horiz-adv-x="1120" 
d="M600 140c-31 0 -55 -22 -60 -52c-1 -3 -1 -7 -1 -10c0 -25 17 -42 45 -42c31 0 55 22 60 52c1 3 1 7 1 10c0 25 -17 42 -45 42zM422 460c31 0 55 22 60 52c1 3 1 7 1 10c0 25 -17 42 -45 42c-31 0 -55 -22 -60 -52c-1 -3 -1 -7 -1 -10c0 -25 17 -42 45 -42zM415 416
c-54 0 -89 31 -89 79c0 5 0 11 1 17c9 57 58 96 118 96c49 0 83 -26 89 -67c33 35 77 67 118 67c61 0 82 -43 82 -103c0 -18 -2 -38 -5 -59l-38 -236c-1 -7 -2 -14 -2 -20c0 -11 2 -22 3 -32c38 -35 70 -107 138 -107c50 0 77 40 91 128l67 421h85l-67 -421
c-16 -104 -66 -192 -168 -192c-78 0 -115 56 -143 99c-10 -56 -59 -94 -118 -94c-54 0 -89 31 -89 79c0 5 0 11 1 17c9 57 58 96 118 96h11c-3 10 -5 22 -5 36c0 6 0 13 1 20l31 195c4 22 5 41 5 56c0 36 -11 51 -36 51c-31 0 -66 -30 -89 -64c-21 -56 -66 -82 -76 -148
l-30 -193c-13 -83 -81 -150 -196 -150c-106 0 -156 54 -156 125c0 8 1 16 2 25l23 148c9 57 56 100 89 133c-7 -1 -14 -2 -21 -2c-54 0 -89 31 -89 79c0 5 0 11 1 17c9 57 58 96 118 96c54 0 89 -31 89 -79c0 -5 0 -11 -1 -17c-16 -101 -90 -137 -104 -227l-24 -151
c-1 -7 -2 -15 -2 -21c0 -48 33 -68 84 -68c60 0 102 26 112 89l29 181c7 45 33 78 56 102c-5 0 -9 -1 -14 -1zM167 460c31 0 55 22 60 52c1 3 1 7 1 10c0 25 -17 42 -45 42c-31 0 -55 -22 -60 -52c-1 -3 -1 -7 -1 -10c0 -25 17 -42 45 -42z" />
    <glyph glyph-name="ellipsis" unicode="&#x2e;&#x200d;&#x2e;&#x200d;&#x2e;" horiz-adv-x="870" 
d="M126 133c37 0 62 -21 62 -55c0 -4 0 -9 -1 -13c-7 -42 -41 -68 -82 -68c-37 0 -63 21 -63 56c0 4 0 8 1 12c7 42 42 68 83 68zM396 133c37 0 62 -21 62 -55c0 -4 0 -9 -1 -13c-7 -42 -41 -68 -82 -68c-37 0 -63 21 -63 56c0 4 0 8 1 12c7 42 42 68 83 68zM666 133
c37 0 62 -21 62 -55c0 -4 0 -9 -1 -13c-7 -42 -41 -68 -82 -68c-37 0 -63 21 -63 56c0 4 0 8 1 12c7 42 42 68 83 68z" />
    <glyph glyph-name="uni0E4F.extra" unicode="&#xe4f;&#x200d;&#x2e;&#x200d;&#x2e;" horiz-adv-x="660" 
d="M326 352c-31 0 -55 -22 -60 -52c-1 -3 -1 -7 -1 -10c0 -25 17 -42 44 -42c31 0 56 22 61 52c1 3 1 7 1 10c0 25 -17 42 -45 42zM333 396c54 0 89 -31 89 -79c0 -5 0 -11 -1 -17c-9 -57 -59 -96 -119 -96c-54 0 -88 31 -88 79c0 5 0 11 1 17c9 57 58 96 118 96zM279 58
c-139 0 -217 84 -217 198c0 14 2 29 4 44c22 136 134 242 290 242c139 0 218 -85 218 -199c0 -14 -2 -28 -4 -43c-22 -136 -135 -242 -291 -242zM287 106c116 0 205 76 224 194c2 14 3 27 3 39c0 96 -63 155 -166 155c-116 0 -204 -76 -223 -194c-2 -14 -3 -27 -3 -39
c0 -95 62 -155 165 -155zM466 885h70l-52 -255h-47zM286 885h70l-52 -255h-47z" />
    <glyph glyph-name="uni0E240E45.liga" unicode="&#xe24;&#x200d;&#xe45;" horiz-adv-x="950" 
d="M160 140c-31 0 -55 -22 -60 -52c-1 -3 -1 -7 -1 -10c0 -25 17 -42 45 -42c31 0 55 22 60 52c1 3 1 7 1 10c0 25 -17 42 -45 42zM167 184c54 0 89 -31 89 -79c0 -5 0 -11 -1 -17c-9 -57 -58 -96 -118 -96c-54 0 -89 31 -89 79c0 5 0 11 1 17c7 46 25 78 32 122l14 87
c8 53 40 85 86 99l-118 23c30 104 132 199 290 199c94 0 162 -33 198 -86c34 45 89 80 165 80c103 0 158 -61 158 -142c0 -10 0 -20 -2 -30l-103 -650h-85l103 650c1 9 2 18 2 26c0 57 -36 82 -85 82c-63 0 -106 -47 -126 -100c0 -5 1 -11 1 -16c0 -9 -1 -19 -3 -29
l-97 -613h-85l97 613c2 11 3 20 3 30c0 80 -59 121 -151 121c-89 0 -154 -44 -185 -113l146 -30l-15 -37c-3 0 -21 3 -31 3c-43 0 -69 -24 -77 -72l-10 -65c-4 -23 -11 -42 -20 -57c5 1 10 1 16 1z" />
    <glyph glyph-name="uni0E260E45.liga" unicode="&#xe26;&#x200d;&#xe45;" horiz-adv-x="960" 
d="M106 140c-31 0 -55 -22 -60 -52c-1 -3 -1 -7 -1 -10c0 -25 17 -42 45 -42c31 0 55 22 60 52c1 3 1 7 1 10c0 25 -17 42 -45 42zM73 419c30 104 132 199 290 199c94 0 162 -33 198 -86c34 45 89 80 165 80c103 0 158 -61 158 -142c0 -10 0 -20 -2 -30l-103 -650h-85
l103 650c1 9 2 18 2 26c0 57 -36 82 -85 82c-63 0 -106 -47 -126 -100c0 -5 1 -11 1 -16c0 -9 -1 -19 -3 -29l-97 -613h-85l97 613c2 11 3 20 3 30c0 80 -59 121 -151 121c-89 0 -152 -43 -184 -112l170 -31l-15 -37c-3 0 -21 3 -31 3c-43 0 -69 -24 -77 -72l-15 -95
c-1 -9 -2 -19 -2 -27c0 -23 4 -43 4 -67c0 -9 -1 -18 -2 -28c-9 -57 -58 -96 -118 -96c-54 0 -89 31 -89 79c0 5 0 11 1 17c9 57 58 96 118 96h11c-3 9 -5 21 -5 33c0 7 1 15 2 23l9 57c8 52 40 84 85 98z" />
    <glyph glyph-name="FontUni" unicode="[FontUni]" horiz-adv-x="840" 
d="M0 40v760c0 22 18 40 40 40h760c22 0 40 -18 40 -40v-760c0 -22 -18 -40 -40 -40h-128v420c0 141 -111 252 -252 252s-252 -111 -252 -252s111 -252 252 -252c18 0 36 2 52 5v-173h-432c-22 0 -40 18 -40 40zM315 420c0 59 46 105 105 105s105 -46 105 -105
s-46 -105 -105 -105s-105 46 -105 105z" />
    <glyph glyph-name=".notdef" horiz-adv-x="660" 
d="M42 0l95 600h228h228l-95 -600h-228h-228zM281 69h143l73 462h-143h-143l-73 -462h143z" />
    <glyph glyph-name="uni0000" 
 />
    <glyph glyph-name="uni0000" 
 />
    <glyph glyph-name="uni0009" unicode="&#x9;" horiz-adv-x="330" 
 />
    <glyph glyph-name="nonmarkingreturn" unicode="&#xd;" horiz-adv-x="330" 
 />
    <glyph glyph-name="space" unicode=" " horiz-adv-x="330" 
 />
    <glyph glyph-name="exclam" unicode="!" horiz-adv-x="330" 
d="M126 133c37 0 62 -21 62 -55c0 -4 0 -9 -1 -13c-7 -42 -41 -68 -82 -68c-37 0 -63 21 -63 56c0 4 0 8 1 12c7 42 42 68 83 68zM178 810h110l-109 -540h-62z" />
    <glyph glyph-name="quotedbl" unicode="&#x22;" horiz-adv-x="540" 
d="M199 900h88l-72 -360h-58zM419 900h88l-72 -360h-58z" />
    <glyph glyph-name="numbersign" unicode="#" horiz-adv-x="810" 
d="M34 214l10 62h132l98 228h-134l10 62h150l92 214h74l-92 -214h216l92 214h74l-92 -214h116l-10 -62h-132l-98 -228h134l-10 -62h-150l-92 -214h-74l92 214h-216l-92 -214h-74l92 214h-116zM348 504l-98 -228h216l98 228h-216z" />
    <glyph glyph-name="dollar" unicode="$" horiz-adv-x="660" 
d="M36 182l94 6c0 -59 39 -118 119 -130l49 310c-25 11 -50 21 -71 30c-55 24 -111 72 -111 156c0 10 0 20 2 31c17 106 107 195 247 207l18 108h69l-18 -109c133 -16 177 -118 177 -186v-2l-95 -7v3c0 55 -31 106 -93 121l-46 -292c26 -11 52 -21 73 -28
c60 -21 117 -69 117 -160c0 -12 -1 -26 -3 -40c-17 -107 -106 -198 -257 -211l-17 -109h-69l17 108c-152 13 -202 121 -202 192v2zM312 455l42 267c-73 -10 -130 -56 -143 -137c-1 -7 -1 -13 -1 -19c0 -59 46 -87 82 -103c7 -3 13 -5 20 -8zM363 342l-45 -284
c85 11 140 60 153 142c1 9 2 16 2 24c0 67 -49 96 -80 107c-10 3 -20 7 -30 11z" />
    <glyph glyph-name="percent" unicode="%" horiz-adv-x="780" 
d="M22 0l1 5l677 775h61l-1 -5l-677 -775h-61zM61 576l3 18c14 87 55 196 166 196c86 0 109 -64 109 -134c0 -21 -2 -42 -5 -62l-3 -18c-14 -87 -55 -196 -166 -196c-86 0 -109 64 -109 134c0 21 2 42 5 62zM172 424c46 0 85 56 100 152l3 18c3 21 5 39 5 56
c0 61 -21 96 -57 96c-46 0 -85 -56 -100 -152l-3 -18c-3 -21 -5 -39 -5 -56c0 -61 21 -96 57 -96zM449 186l3 18c14 87 55 196 166 196c86 0 109 -64 109 -134c0 -21 -2 -42 -5 -62l-3 -18c-14 -87 -55 -196 -166 -196c-86 0 -109 64 -109 134c0 21 2 42 5 62zM560 34
c46 0 85 56 100 152l3 18c3 21 5 39 5 56c0 61 -21 96 -57 96c-46 0 -85 -56 -100 -152l-3 -18c-3 -21 -5 -39 -5 -56c0 -61 21 -96 57 -96z" />
    <glyph glyph-name="ampersand" unicode="&#x26;" horiz-adv-x="810" 
d="M606 149c65 -81 117 -144 117 -144l-1 -5h-106s-29 37 -72 90c-80 -65 -180 -108 -293 -108c-146 0 -215 69 -215 156c0 9 0 18 2 28c18 116 140 196 247 259c-31 50 -56 112 -56 170c0 10 0 20 2 30c17 108 97 173 199 173s145 -60 145 -124c0 -8 -1 -15 -2 -23
c-16 -99 -85 -172 -183 -233c43 -55 110 -139 173 -216c46 59 79 131 98 203l78 -12c-22 -85 -68 -172 -133 -244zM504 140c-62 78 -135 172 -183 236c-102 -64 -179 -133 -191 -210c-1 -7 -2 -14 -2 -20c0 -60 47 -94 134 -94c99 0 179 34 242 88zM421 736
c-64 0 -98 -53 -108 -113c-1 -7 -2 -14 -2 -22c0 -43 19 -92 44 -134c77 52 127 115 138 184c1 6 1 12 1 18c0 42 -25 67 -73 67z" />
    <glyph glyph-name="quotesingle" unicode="'" horiz-adv-x="330" 
d="M204 900h88l-72 -360h-58z" />
    <glyph glyph-name="parenleft" unicode="(" horiz-adv-x="390" 
d="M74 390c35 221 134 394 264 519l54 -23c-120 -118 -201 -286 -234 -496c-9 -58 -14 -112 -14 -163c0 -135 32 -247 91 -333l-61 -23c-69 96 -112 221 -112 374c0 46 4 94 12 145z" />
    <glyph glyph-name="parenright" unicode=")" horiz-adv-x="390" 
d="M320 390c-35 -221 -134 -394 -264 -519l-55 23c120 118 202 286 235 496c9 57 13 111 13 162c0 136 -31 248 -91 334l62 23c69 -96 112 -221 112 -374c0 -46 -4 -94 -12 -145z" />
    <glyph glyph-name="asterisk" unicode="*" horiz-adv-x="570" 
d="M103 702l36 76l174 -78l16 200h80l-49 -200l197 78l13 -76l-202 -47l107 -152l-73 -47l-77 172l-133 -172l-56 47l155 152z" />
    <glyph glyph-name="plus" unicode="+" horiz-adv-x="600" 
d="M89 328l10 64h160l26 163h86l-26 -163h160l-10 -64h-160l-26 -163h-86l26 163h-160z" />
    <glyph glyph-name="comma" unicode="," horiz-adv-x="330" 
d="M42 63c6 41 39 70 83 70c52 0 73 -37 73 -82c0 -8 -1 -17 -2 -26c-16 -104 -96 -177 -167 -220l-22 39c54 33 103 84 122 157c-8 -3 -17 -4 -27 -4c-36 0 -61 21 -61 55c0 4 0 7 1 11z" />
    <glyph glyph-name="hyphen" unicode="-" horiz-adv-x="600" 
d="M100 395h406l-12 -70h-406z" />
    <glyph glyph-name="period" unicode="." horiz-adv-x="330" 
d="M126 133c37 0 62 -21 62 -55c0 -4 0 -9 -1 -13c-7 -42 -41 -68 -82 -68c-37 0 -63 21 -63 56c0 4 0 8 1 12c7 42 42 68 83 68z" />
    <glyph glyph-name="slash" unicode="/" horiz-adv-x="510" 
d="M-10 0l1 5l452 775h81l-1 -5l-451 -775h-82z" />
    <glyph glyph-name="zero" unicode="0" horiz-adv-x="660" 
d="M66 374l5 32c29 181 113 392 325 392c164 0 212 -126 212 -267c0 -41 -4 -84 -11 -125l-5 -32c-29 -181 -113 -392 -325 -392c-164 0 -212 126 -212 267c0 41 4 84 11 125zM278 52c108 0 189 126 220 322l5 32c7 43 10 82 10 117c0 128 -43 205 -128 205
c-108 0 -189 -126 -220 -322l-5 -32c-7 -43 -10 -82 -10 -117c0 -128 43 -205 128 -205z" />
    <glyph glyph-name="one" unicode="1" horiz-adv-x="660" 
d="M142 630l286 156l65 -7l-111 -705h152l-12 -74h-440l12 74h195l96 607l-214 -119z" />
    <glyph glyph-name="two" unicode="2" horiz-adv-x="660" 
d="M23 36c28 176 187 276 309 350c86 52 168 106 182 194c2 9 2 20 2 30c0 57 -28 118 -131 118c-85 0 -147 -65 -168 -123l-95 9c25 71 115 184 273 184c179 0 213 -111 213 -184c0 -13 -1 -24 -2 -34c-20 -125 -141 -201 -225 -253c-111 -68 -218 -137 -249 -253h402
l-12 -74h-500s-2 16 1 36z" />
    <glyph glyph-name="three" unicode="3" horiz-adv-x="660" 
d="M6 122l95 17c7 -33 34 -95 148 -95c148 0 194 94 205 161c1 9 2 18 2 27c0 59 -32 119 -148 119h-100l11 69h90c76 0 162 56 177 153c2 9 2 20 2 30c0 57 -28 118 -131 118c-85 0 -148 -66 -169 -124l-95 10c25 71 115 184 273 184c179 0 213 -111 213 -184
c0 -13 -1 -24 -2 -34c-14 -90 -77 -146 -140 -177c89 -29 115 -98 115 -156c0 -11 0 -20 -2 -30c-12 -78 -78 -235 -312 -235c-176 0 -223 103 -232 147z" />
    <glyph glyph-name="four" unicode="4" horiz-adv-x="660" 
d="M381 206h-363v44l466 536l77 -7l-80 -505h125l-10 -68h-125l-33 -206h-90zM393 274l61 383l-331 -383h270z" />
    <glyph glyph-name="five" unicode="5" horiz-adv-x="660" 
d="M27 129l95 17c7 -33 34 -95 148 -95c148 0 197 103 209 180c2 15 4 30 4 45c0 68 -29 136 -137 136c-76 0 -151 -53 -186 -95l-64 37l82 426h440l-11 -69h-353l-55 -290c43 29 102 58 174 58c169 0 204 -117 204 -200c0 -16 -1 -31 -3 -43c-13 -84 -81 -254 -315 -254
c-176 0 -223 103 -232 147z" />
    <glyph glyph-name="six" unicode="6" horiz-adv-x="660" 
d="M75 294l22 144c21 132 83 360 313 360c168 0 203 -112 210 -156l-94 -15c-6 39 -29 101 -127 101c-127 0 -184 -136 -208 -290l-5 -33c47 43 110 72 187 72c155 0 205 -102 205 -200c0 -16 -2 -32 -4 -47c-22 -136 -128 -248 -293 -248c-143 0 -213 81 -213 225
c0 27 2 56 7 87zM165 266c-3 -21 -4 -40 -4 -58c0 -121 58 -156 131 -156c92 0 170 59 189 178c2 15 4 30 4 44c0 76 -37 137 -138 137c-85 0 -153 -59 -182 -145z" />
    <glyph glyph-name="seven" unicode="7" horiz-adv-x="660" 
d="M124 706l12 74h498l-2 -52c-136 -152 -308 -445 -346 -683l-7 -45h-98l7 45c35 223 197 497 329 661h-393z" />
    <glyph glyph-name="eight" unicode="8" horiz-adv-x="660" 
d="M267 -18c-153 0 -242 79 -242 185c0 10 1 20 3 31c21 131 127 183 200 203c-56 23 -106 70 -106 151c0 11 1 22 3 34c19 118 127 212 271 212c130 0 208 -76 208 -178c0 -11 -1 -22 -3 -34c-16 -102 -89 -159 -161 -185c60 -18 137 -62 137 -165c0 -12 -1 -25 -3 -38
c-19 -121 -139 -216 -307 -216zM278 50c109 0 185 56 200 148c2 12 3 23 3 33c0 76 -50 109 -101 122c-14 5 -33 10 -52 16c-21 -6 -40 -11 -56 -16c-62 -15 -132 -55 -148 -155c-2 -9 -2 -18 -2 -27c0 -76 58 -121 156 -121zM386 730c-79 0 -153 -48 -168 -144
c-1 -10 -2 -18 -2 -27c0 -67 42 -104 85 -116c12 -3 24 -7 37 -11c15 4 29 8 41 11c53 13 116 59 129 143c2 10 2 20 2 29c0 77 -53 115 -124 115z" />
    <glyph glyph-name="nine" unicode="9" horiz-adv-x="660" 
d="M589 486l-23 -144c-21 -132 -83 -360 -313 -360c-168 0 -202 112 -209 156l93 15c6 -39 29 -101 127 -101c127 0 184 136 208 290l5 33c-47 -43 -109 -72 -186 -72c-155 0 -206 102 -206 201c0 16 2 31 4 46c22 136 128 248 293 248c143 0 214 -81 214 -225
c0 -27 -2 -56 -7 -87zM498 514c3 21 4 40 4 58c0 121 -58 156 -131 156c-92 0 -170 -59 -189 -178c-2 -15 -4 -30 -4 -44c0 -76 37 -137 138 -137c85 0 153 59 182 145z" />
    <glyph glyph-name="colon" unicode=":" horiz-adv-x="330" 
d="M126 133c37 0 62 -21 62 -55c0 -4 0 -9 -1 -13c-7 -42 -41 -68 -82 -68c-37 0 -63 21 -63 56c0 4 0 8 1 12c7 42 42 68 83 68zM193 553c37 0 62 -21 62 -55c0 -4 0 -9 -1 -13c-7 -42 -42 -68 -83 -68c-37 0 -62 21 -62 55c0 4 0 9 1 13c7 42 42 68 83 68z" />
    <glyph glyph-name="semicolon" unicode=";" horiz-adv-x="330" 
d="M193 553c37 0 62 -21 62 -55c0 -4 0 -9 -1 -13c-7 -42 -42 -68 -83 -68c-37 0 -62 21 -62 55c0 4 0 9 1 13c7 42 42 68 83 68zM42 63c6 41 39 70 83 70c52 0 73 -37 73 -82c0 -8 -1 -17 -2 -26c-16 -104 -96 -177 -167 -220l-22 39c54 33 103 84 122 157
c-8 -3 -17 -4 -27 -4c-36 0 -61 21 -61 55c0 4 0 7 1 11z" />
    <glyph glyph-name="less" unicode="&#x3c;" horiz-adv-x="600" 
d="M90 334l4 26l4 26l425 232l6 -70l-349 -188l289 -188l-28 -70z" />
    <glyph glyph-name="equal" unicode="=" horiz-adv-x="600" 
d="M104 422l10 67h406l-10 -67h-406zM74 231l10 67h406l-10 -67h-406z" />
    <glyph glyph-name="greater" unicode="&#x3e;" horiz-adv-x="600" 
d="M504 386l-4 -26l-4 -26l-425 -232l-6 70l349 188l-289 188l28 70z" />
    <glyph glyph-name="question" unicode="?" horiz-adv-x="570" 
d="M246 133c37 0 62 -21 62 -55c0 -4 0 -9 -1 -13c-7 -42 -41 -68 -82 -68c-37 0 -63 21 -63 56c0 4 0 8 1 12c7 42 42 68 83 68zM105 650c16 102 114 178 250 178c115 0 186 -58 186 -156c0 -11 -1 -23 -3 -36c-26 -164 -238 -206 -257 -327c-1 -6 -1 -13 -1 -19
c0 -14 2 -27 6 -40l-77 -9c-6 17 -9 34 -9 51c0 7 1 15 2 22c25 156 219 187 240 319c2 11 3 21 3 30c0 69 -48 94 -103 94c-73 0 -130 -37 -141 -107c-1 -10 -2 -20 -2 -30c0 -12 1 -24 5 -35l-93 -24c-5 19 -8 39 -8 59c0 10 0 20 2 30z" />
    <glyph glyph-name="at" unicode="@" horiz-adv-x="1020" 
d="M62 236c40 255 259 544 561 544c221 0 321 -139 321 -308c0 -24 -2 -49 -6 -74c-26 -165 -152 -358 -293 -358c-57 0 -73 32 -73 73v8c-42 -50 -93 -86 -154 -86c-110 0 -148 73 -148 152c0 14 1 28 3 42c22 138 149 332 341 332c78 0 106 -50 106 -100
c0 -7 -1 -15 -2 -22c-7 -43 -29 -98 -46 -140c-22 -65 -36 -113 -41 -146c-2 -13 -3 -23 -3 -32c0 -25 9 -34 25 -34c82 0 205 149 231 311c4 24 6 47 6 69c0 151 -87 265 -275 265c-258 0 -461 -254 -499 -496c-4 -27 -6 -53 -6 -79c0 -167 92 -299 310 -299
c70 0 160 37 189 53l24 -39c-37 -21 -133 -62 -221 -62c-254 0 -357 158 -357 342c0 27 3 56 7 84zM426 89c78 0 137 89 184 218c15 40 39 100 44 132c1 6 1 12 1 17c0 35 -20 52 -50 52c-120 0 -241 -145 -262 -279c-2 -13 -3 -26 -3 -38c0 -65 32 -102 86 -102z" />
    <glyph glyph-name="A" unicode="A" horiz-adv-x="750" 
d="M667 0h-108l-36 176h-360l-92 -176h-108l1 6l435 774h80l189 -774zM509 244l-88 426l-222 -426h310z" />
    <glyph glyph-name="B" unicode="B" horiz-adv-x="745" 
d="M503 430c97 -25 158 -83 158 -173c0 -11 -1 -23 -3 -36c-23 -148 -169 -230 -349 -230c-112 0 -243 7 -271 9l124 780c24 2 141 9 241 9c136 0 241 -56 241 -166c0 -9 0 -19 -2 -29c-13 -82 -69 -135 -139 -164zM380 444c75 8 155 53 169 143c1 8 2 17 2 24
c0 77 -69 110 -169 110c-55 0 -113 -3 -141 -5l-43 -277c51 3 118 5 182 5zM138 64c42 -2 112 -4 172 -4c128 0 237 45 255 161c1 10 2 18 2 27c0 96 -89 132 -207 132c-60 0 -130 -2 -172 -4z" />
    <glyph glyph-name="C" unicode="C" horiz-adv-x="755" 
d="M72 405c30 188 143 392 407 392c194 0 262 -126 263 -206l-100 -10c-2 61 -52 143 -174 143c-168 0 -266 -132 -296 -319l-5 -32c-5 -32 -8 -61 -8 -89c0 -138 63 -230 203 -230c122 0 197 82 219 143l97 -10c-27 -80 -134 -206 -328 -206c-220 0 -291 142 -291 298
c0 31 3 63 8 94z" />
    <glyph glyph-name="D" unicode="D" horiz-adv-x="770" 
d="M143 64c30 -1 69 -3 97 -3c234 0 339 134 367 313l5 32c4 26 6 51 6 75c0 140 -74 238 -274 238c-28 0 -68 -2 -98 -3zM162 780c0 0 109 9 193 9c268 0 358 -145 358 -307c0 -25 -2 -51 -6 -76l-5 -32c-30 -190 -164 -383 -473 -383c-84 0 -191 9 -191 9z" />
    <glyph glyph-name="E" unicode="E" horiz-adv-x="675" 
d="M38 0l124 780h500l-12 -74h-404l-45 -286h370l-12 -70h-370l-43 -276h419l-12 -74h-515z" />
    <glyph glyph-name="F" unicode="F" horiz-adv-x="640" 
d="M38 0l124 780h490l-12 -74h-394l-45 -284h360l-12 -74h-360l-55 -348h-96z" />
    <glyph glyph-name="G" unicode="G" horiz-adv-x="770" 
d="M411 311l11 68h281l-38 -241c-40 -64 -143 -156 -315 -156c-220 0 -291 141 -291 297c0 31 3 63 8 94l5 34c30 188 143 391 407 391c194 0 262 -126 263 -206l-99 -9c-2 61 -51 143 -175 143c-170 0 -268 -130 -298 -319l-5 -34c-5 -32 -8 -62 -8 -90
c0 -139 64 -229 205 -229c118 0 182 49 217 93l26 164h-194z" />
    <glyph glyph-name="H" unicode="H" horiz-adv-x="790" 
d="M37 0l124 780h96l-56 -353h404l56 353h96l-124 -780h-96l56 353h-404l-56 -353h-96z" />
    <glyph glyph-name="I" unicode="I" horiz-adv-x="320" 
d="M52 0l124 780h96l-124 -780h-96z" />
    <glyph glyph-name="J" unicode="J" horiz-adv-x="520" 
d="M-10 136l97 7c0 -58 31 -90 87 -90s107 31 119 109l98 619h96l-98 -619c-16 -99 -101 -179 -226 -179c-123 0 -173 78 -173 151v2z" />
    <glyph glyph-name="K" unicode="K" horiz-adv-x="715" 
d="M37 0l124 780h92l-64 -402l423 402l104 -8v-4l-349 -316l276 -447l-1 -5h-113l-234 388l-122 -112l-44 -276h-92z" />
    <glyph glyph-name="L" unicode="L" horiz-adv-x="570" 
d="M38 0l124 780h96l-112 -706h344l-12 -74h-440z" />
    <glyph glyph-name="M" unicode="M" horiz-adv-x="880" 
d="M723 0h-94l95 600l-289 -405h-48l-161 405l-95 -600h-94l122 771l82 9l186 -486l340 486l78 -9z" />
    <glyph glyph-name="N" unicode="N" horiz-adv-x="790" 
d="M38 0l122 771l84 9l319 -628l100 628h93l-124 -780h-82l-320 628l-99 -628h-93z" />
    <glyph glyph-name="O" unicode="O" horiz-adv-x="820" 
d="M67 372l6 36c29 186 140 390 403 390c219 0 289 -142 289 -297c0 -31 -3 -62 -8 -93l-6 -36c-29 -186 -141 -390 -404 -390c-219 0 -288 141 -288 296c0 31 3 63 8 94zM359 54c169 0 265 132 294 318l6 36c5 31 7 61 7 89c0 137 -61 229 -201 229
c-169 0 -265 -132 -294 -318l-6 -36c-5 -31 -7 -61 -7 -89c0 -137 61 -229 201 -229z" />
    <glyph glyph-name="P" unicode="P" horiz-adv-x="710" 
d="M196 402c36 -2 90 -4 147 -4c128 0 236 45 254 161c2 10 2 19 2 28c0 96 -88 133 -205 133c-57 0 -113 -2 -149 -4zM185 333l-53 -333h-94l54 338l70 442c28 2 141 9 253 9c165 0 280 -69 280 -195c0 -11 -1 -23 -3 -35c-23 -148 -170 -230 -350 -230
c-56 0 -111 2 -157 4z" />
    <glyph glyph-name="Q" unicode="Q" horiz-adv-x="820" 
d="M67 372l6 36c29 186 140 390 403 390c219 0 289 -142 289 -297c0 -31 -3 -62 -8 -93l-6 -36c-14 -89 -48 -183 -108 -256l97 -87l-50 -54l-97 90c-61 -51 -141 -83 -246 -83c-219 0 -288 141 -288 296c0 31 3 63 8 94zM374 269l46 50l160 -146c36 53 61 121 73 199l6 36
c5 31 7 61 7 89c0 137 -61 229 -201 229c-169 0 -265 -132 -294 -318l-6 -36c-5 -31 -7 -61 -7 -89c0 -137 61 -229 201 -229c72 0 130 23 176 65z" />
    <glyph glyph-name="R" unicode="R" horiz-adv-x="730" 
d="M196 402c36 -2 90 -4 147 -4c128 0 236 45 254 161c2 10 2 19 2 28c0 96 -88 133 -205 133c-57 0 -113 -2 -149 -4zM310 329c-45 1 -88 2 -125 4l-53 -333h-94l54 338l70 442c28 2 141 9 253 9c165 0 280 -69 280 -195c0 -11 -1 -23 -3 -35c-20 -128 -133 -207 -279 -226
l221 -328l-1 -5h-108z" />
    <glyph glyph-name="S" unicode="S" horiz-adv-x="710" 
d="M30 177l96 13c0 -62 51 -138 177 -138c131 0 208 57 222 145c1 8 2 17 2 24c0 65 -49 93 -89 106c-55 16 -138 43 -194 65c-60 24 -133 71 -133 162c0 9 0 19 2 29c20 124 144 215 308 215c172 0 240 -113 242 -191l-97 -13c-2 62 -50 134 -156 134
c-112 0 -190 -56 -203 -141c-1 -6 -1 -12 -1 -18c0 -57 47 -82 92 -100c53 -20 135 -48 186 -64c66 -22 138 -71 138 -169c0 -11 -1 -23 -3 -35c-20 -126 -143 -219 -327 -219c-189 0 -260 115 -262 195z" />
    <glyph glyph-name="T" unicode="T" horiz-adv-x="620" 
d="M89 708l12 72h546l-12 -72h-225l-112 -708h-96l112 708h-225z" />
    <glyph glyph-name="U" unicode="U" horiz-adv-x="770" 
d="M64 236l87 544h96l-87 -544c-2 -12 -3 -24 -3 -35c0 -96 71 -147 177 -147c118 0 211 64 230 182l87 544h96l-87 -544c-23 -146 -158 -254 -338 -254c-163 0 -261 89 -261 214c0 13 1 26 3 40z" />
    <glyph glyph-name="V" unicode="V" horiz-adv-x="750" 
d="M89 764l1 7l114 9l129 -664l341 664l110 -9l-1 -7l-427 -764h-82z" />
    <glyph glyph-name="W" unicode="W" horiz-adv-x="1060" 
d="M1089 765l-351 -765h-84l-85 624l-283 -624h-84l-109 765l1 6l106 9l71 -651l279 631h80l79 -631l279 651l102 -9z" />
    <glyph glyph-name="X" unicode="X" horiz-adv-x="740" 
d="M124 764l1 6l107 10l154 -305l251 305l103 -10l-1 -6l-309 -349l239 -409l-1 -6h-111l-192 340l-301 -340h-111l1 6l369 409z" />
    <glyph glyph-name="Y" unicode="Y" horiz-adv-x="670" 
d="M79 765l1 7l109 8l148 -388l272 388l105 -8l-1 -7l-342 -464l-48 -301h-96l48 301z" />
    <glyph glyph-name="Z" unicode="Z" horiz-adv-x="670" 
d="M-8 55l550 651h-423l12 74h544l-2 -55l-550 -651h457l-12 -74h-578z" />
    <glyph glyph-name="bracketleft" unicode="[" horiz-adv-x="435" 
d="M48 -120l162 1020h210l-9 -56h-132l-144 -908h130l-9 -56h-208z" />
    <glyph glyph-name="backslash" unicode="\" horiz-adv-x="510" 
d="M400 0h-82l-205 775l1 5h81l206 -775z" />
    <glyph glyph-name="bracketright" unicode="]" horiz-adv-x="435" 
d="M391 900l-162 -1020h-210l9 56h132l144 908h-130l9 56h208z" />
    <glyph glyph-name="asciicircum" unicode="^" horiz-adv-x="630" 
d="M70 586l306 297h37l212 -297l-52 -33l-194 233l-268 -233z" />
    <glyph glyph-name="underscore" unicode="_" horiz-adv-x="600" 
d="M-60 0h600l-11 -70h-600z" />
    <glyph glyph-name="grave" unicode="`" horiz-adv-x="390" 
d="M79 830l78 52l229 -296l-52 -33z" />
    <glyph glyph-name="a" unicode="a" horiz-adv-x="625" 
d="M30 172c12 77 86 148 212 148c73 0 143 -6 193 -12l18 114c1 9 2 18 2 26c0 71 -53 104 -128 104c-80 0 -138 -47 -161 -123l-89 6c28 93 117 183 261 183c128 0 205 -67 205 -164c0 -10 -1 -21 -3 -32l-45 -285c-2 -12 -3 -23 -3 -32c0 -37 17 -53 58 -58l-31 -60
c-44 5 -101 27 -103 102c-44 -54 -109 -102 -203 -102c-116 0 -186 56 -186 151c0 11 1 22 3 34zM430 252c-44 6 -112 14 -192 14c-58 0 -110 -34 -120 -95c-1 -9 -2 -18 -2 -26c0 -70 52 -102 116 -102c107 0 165 90 191 167z" />
    <glyph glyph-name="b" unicode="b" horiz-adv-x="675" 
d="M602 312l-3 -24c-22 -142 -112 -301 -298 -301c-90 0 -140 55 -167 119l-24 -106h-77l128 810h87l-48 -306c47 59 115 109 200 109c156 0 208 -112 208 -231c0 -23 -2 -47 -6 -70zM180 378l-25 -156c6 -82 47 -168 147 -168c112 0 184 90 207 234l3 24c4 25 6 48 6 69
c0 103 -46 165 -139 165c-100 0 -167 -86 -199 -168z" />
    <glyph glyph-name="c" unicode="c" horiz-adv-x="605" 
d="M48 287l5 26c22 142 107 305 316 305c154 0 206 -100 206 -163l-91 -8c-1 46 -40 104 -126 104c-117 0 -190 -95 -213 -238l-5 -26c-4 -24 -6 -47 -6 -68c0 -104 48 -170 145 -170c86 0 143 58 158 104l89 -8c-20 -63 -104 -163 -258 -163c-174 0 -226 112 -226 232
c0 24 2 49 6 73z" />
    <glyph glyph-name="d" unicode="d" horiz-adv-x="680" 
d="M48 288l3 24c22 142 112 301 298 301c88 0 138 -52 165 -113l49 310h87l-106 -673c-2 -12 -3 -23 -3 -32c0 -37 17 -53 58 -58l-31 -60c-44 6 -105 28 -105 107c0 6 0 13 1 20c-49 -67 -120 -127 -214 -127c-156 0 -208 112 -208 231c0 23 2 47 6 70zM495 378
c-6 82 -47 168 -147 168c-112 0 -184 -90 -207 -234l-3 -24c-4 -25 -6 -48 -6 -69c0 -103 46 -165 139 -165c100 0 167 86 199 168z" />
    <glyph glyph-name="e" unicode="e" horiz-adv-x="640" 
d="M48 286l5 28c22 142 109 304 312 304c146 0 214 -94 214 -208c0 -16 -1 -32 -4 -48c-4 -25 -10 -51 -19 -76h-420c-4 -25 -6 -47 -6 -69c0 -103 45 -170 144 -170c90 0 148 60 163 106l86 -8c-21 -64 -107 -163 -259 -163c-171 0 -222 111 -222 230c0 25 2 50 6 74z
M146 344h341c1 7 2 13 3 19c3 17 4 32 4 47c0 94 -54 144 -139 144c-110 0 -181 -84 -209 -210z" />
    <glyph glyph-name="f" unicode="f" horiz-adv-x="400" 
d="M61 542l9 58h95l13 83c10 60 60 145 176 145c77 0 118 -34 130 -44l-47 -49c-12 9 -39 30 -87 30s-78 -36 -85 -82l-13 -83h158l-9 -58h-155l-86 -542h-90l86 542h-95z" />
    <glyph glyph-name="g" unicode="g" horiz-adv-x="670" 
d="M52 315c22 136 111 298 297 298c90 0 140 -56 167 -120l24 107h77l-100 -631c-18 -115 -123 -197 -265 -197c-140 0 -205 69 -213 115l88 23c5 -28 43 -75 135 -75c88 0 156 44 170 134l27 167c-47 -64 -115 -119 -204 -119c-156 0 -209 114 -209 231c0 23 2 45 6 67z
M494 375c-6 82 -45 172 -145 172c-112 0 -185 -94 -207 -232c-4 -23 -6 -45 -6 -66c0 -101 46 -166 139 -166c100 0 168 90 200 172z" />
    <glyph glyph-name="h" unicode="h" horiz-adv-x="665" 
d="M33 0l128 810h88l-59 -377c56 91 145 180 263 180c102 0 145 -65 145 -150c0 -14 -1 -28 -3 -42l-67 -421h-90l66 418c2 12 3 23 3 33c0 64 -36 90 -88 90c-109 0 -213 -129 -248 -240l-48 -301h-90z" />
    <glyph glyph-name="i" unicode="i" horiz-adv-x="300" 
d="M45 0l95 600h90l-95 -600h-90zM224 848c37 0 63 -21 63 -56c0 -4 0 -8 -1 -12c-7 -42 -42 -68 -83 -68c-37 0 -62 21 -62 55c0 4 0 9 1 13c7 42 41 68 82 68z" />
    <glyph glyph-name="j" unicode="j" horiz-adv-x="310" 
d="M-85 -164c73 24 125 62 138 145l98 619h90l-99 -624c-17 -109 -110 -171 -208 -199zM235 848c37 0 63 -21 63 -56c0 -4 0 -8 -1 -12c-7 -42 -42 -68 -83 -68c-37 0 -62 21 -62 55c0 4 0 9 1 13c7 42 41 68 82 68z" />
    <glyph glyph-name="k" unicode="k" horiz-adv-x="605" 
d="M42 0l128 810h86l-80 -505l318 295l97 -6l-1 -4l-275 -245l218 -341l-1 -4h-104l-180 287l-87 -78l-33 -209h-86z" />
    <glyph glyph-name="l" unicode="l" horiz-adv-x="315" 
d="M59 122l109 688h90l-107 -680c-1 -6 -2 -12 -2 -17c0 -46 38 -61 98 -66l-27 -60c-71 6 -163 25 -163 112c0 7 1 15 2 23z" />
    <glyph glyph-name="m" unicode="m" horiz-adv-x="945" 
d="M116 595l84 8l-9 -139c44 76 110 143 207 143c92 0 136 -61 137 -140c44 75 110 140 205 140s137 -64 137 -146c0 -13 -1 -27 -3 -41l-67 -420h-90l66 418c2 13 3 24 3 34c0 60 -33 84 -79 84c-90 0 -158 -108 -190 -208l-52 -328h-90l66 418c2 12 3 24 3 34
c0 61 -34 84 -80 84c-92 0 -160 -113 -191 -214l-51 -322h-90l67 420z" />
    <glyph glyph-name="n" unicode="n" horiz-adv-x="655" 
d="M32 0l67 420l17 175l84 8l-11 -165c54 89 140 175 255 175c99 0 143 -65 143 -150c0 -14 -1 -28 -3 -42l-67 -421h-90l66 418c2 12 3 24 3 34c0 63 -36 89 -85 89c-107 0 -206 -128 -241 -239l-48 -302h-90z" />
    <glyph glyph-name="o" unicode="o" horiz-adv-x="660" 
d="M47 286l5 28c22 142 108 304 316 304c173 0 226 -112 226 -232c0 -24 -2 -48 -6 -72l-5 -28c-22 -142 -108 -304 -316 -304c-173 0 -226 112 -226 232c0 24 2 48 6 72zM278 48c120 0 192 95 215 238l5 28c4 24 6 47 6 68c0 104 -47 170 -147 170
c-120 0 -192 -95 -215 -238l-5 -28c-4 -24 -6 -47 -6 -68c0 -104 47 -170 147 -170z" />
    <glyph glyph-name="p" unicode="p" horiz-adv-x="675" 
d="M602 312l-3 -24c-22 -142 -112 -301 -298 -301c-85 0 -135 50 -163 109l-48 -306h-90l100 630l17 175l84 8l-7 -106c48 62 117 116 206 116c156 0 208 -112 208 -231c0 -23 -2 -47 -6 -70zM156 210c9 -78 51 -156 146 -156c112 0 184 90 207 234l3 24c4 25 6 48 6 69
c0 103 -46 165 -139 165c-95 0 -161 -78 -194 -156z" />
    <glyph glyph-name="q" unicode="q" horiz-adv-x="675" 
d="M48 288l3 24c22 142 112 301 298 301c90 0 140 -55 167 -119l24 106h77l-128 -810h-87l48 306c-47 -59 -115 -109 -200 -109c-156 0 -208 112 -208 231c0 23 2 47 6 70zM470 222l25 156c-6 82 -47 168 -147 168c-112 0 -184 -90 -207 -234l-3 -24c-4 -25 -6 -48 -6 -69
c0 -103 46 -165 139 -165c100 0 167 86 199 168z" />
    <glyph glyph-name="r" unicode="r" horiz-adv-x="435" 
d="M111 594l78 9l10 -150c37 82 98 160 195 160c28 0 49 -6 68 -15l-46 -74c-13 7 -28 11 -48 11c-88 0 -146 -107 -174 -208l-52 -327h-90l68 427z" />
    <glyph glyph-name="s" unicode="s" horiz-adv-x="570" 
d="M14 137l89 10c1 -47 39 -100 132 -100c92 0 150 42 160 106c1 6 1 12 1 17c0 48 -38 70 -67 79c-43 14 -105 32 -146 48c-48 18 -106 54 -106 127c0 8 1 16 2 24c16 98 111 170 243 170c140 0 192 -89 193 -151l-89 -12c-1 46 -34 98 -114 98s-137 -39 -147 -102
c-1 -4 -1 -9 -1 -13c0 -42 36 -64 67 -75c42 -14 105 -34 143 -46c54 -17 110 -53 110 -132c0 -9 0 -19 -2 -30c-16 -99 -117 -173 -261 -173c-152 0 -205 91 -207 155z" />
    <glyph glyph-name="t" unicode="t" horiz-adv-x="415" 
d="M61 542l9 58h98l20 128l87 7l-21 -135h156l-9 -58h-155l-65 -409c-2 -12 -3 -22 -3 -31c0 -39 18 -50 52 -50c44 0 88 17 106 27l12 -60c-30 -16 -81 -32 -139 -32c-75 0 -123 29 -123 102c0 10 1 21 3 32l67 421h-95z" />
    <glyph glyph-name="u" unicode="u" horiz-adv-x="620" 
d="M41 184l66 416h90l-66 -416c-1 -9 -2 -19 -2 -27c0 -72 52 -109 129 -109c86 0 155 46 169 136l66 416h90l-66 -416c-18 -115 -124 -202 -270 -202c-132 0 -209 71 -209 170c0 10 1 21 3 32z" />
    <glyph glyph-name="v" unicode="v" horiz-adv-x="600" 
d="M55 588l1 5l99 7l101 -500l259 500l97 -7l-1 -5l-335 -588h-72z" />
    <glyph glyph-name="w" unicode="w" horiz-adv-x="830" 
d="M836 588l-269 -588h-78l-61 461l-207 -461h-78l-83 588l1 4l97 8l50 -475l204 460h72l58 -460l200 475l95 -8z" />
    <glyph glyph-name="x" unicode="x" horiz-adv-x="600" 
d="M91 588l1 5l97 7l111 -220l182 220l95 -7l-1 -5l-235 -264l183 -320l-1 -4h-101l-142 255l-221 -255h-101l1 4l283 320z" />
    <glyph glyph-name="y" unicode="y" horiz-adv-x="600" 
d="M55 588l1 5l99 7l100 -497l261 497l96 -7l-1 -5l-348 -617c-51 -84 -114 -199 -221 -199c-50 0 -78 22 -99 42l52 55c15 -16 30 -34 55 -34c48 0 93 69 142 153l9 15z" />
    <glyph glyph-name="z" unicode="z" horiz-adv-x="530" 
d="M-16 46l408 490h-310l10 64h422l-1 -46l-407 -490h336l-10 -64h-449z" />
    <glyph glyph-name="braceleft" unicode="{" horiz-adv-x="390" 
d="M51 373l3 17l2 17c43 7 105 45 119 131c1 6 1 14 1 23c0 34 -5 85 -5 129c0 17 1 34 3 48c15 96 79 162 171 162h45l-8 -48h-35c-36 0 -79 -24 -94 -120c-2 -12 -3 -27 -3 -44c0 -36 4 -79 4 -115c0 -16 -1 -31 -3 -43c-12 -74 -58 -120 -108 -140c38 -17 67 -54 67 -110
c0 -9 -1 -19 -3 -30c-8 -50 -54 -150 -62 -202c-2 -16 -4 -29 -4 -41c0 -62 30 -79 60 -79h35l-8 -48h-45c-80 0 -122 49 -122 125c0 12 1 24 3 37c10 60 58 160 64 200c2 10 2 19 2 28c0 66 -43 97 -79 103z" />
    <glyph glyph-name="bar" unicode="|" horiz-adv-x="360" 
d="M61 -120l162 1020h80l-162 -1020h-80z" />
    <glyph glyph-name="braceright" unicode="}" horiz-adv-x="390" 
d="M342 407l-2 -17l-3 -17c-43 -7 -105 -45 -119 -131c-1 -6 -1 -14 -1 -22c0 -35 6 -86 6 -132c0 -16 -1 -32 -3 -46c-15 -96 -79 -162 -171 -162h-45l8 48h35c36 0 79 24 94 120c2 12 3 27 3 44c0 36 -4 79 -4 115c0 16 1 31 3 43c12 74 58 120 108 140
c-38 17 -67 54 -67 110c0 9 1 19 3 30c8 50 54 150 62 202c2 16 4 29 4 41c0 62 -30 79 -60 79h-35l8 48h45c80 0 122 -49 122 -125c0 -12 -1 -24 -3 -37c-10 -60 -59 -160 -65 -200c-2 -10 -2 -19 -2 -28c0 -66 43 -97 79 -103z" />
    <glyph glyph-name="asciitilde" unicode="~" horiz-adv-x="600" 
d="M44 329c34 66 85 152 172 152c58 0 90 -39 114 -67c25 -30 45 -49 70 -49c42 0 80 55 102 104l56 -18c-32 -66 -86 -152 -172 -152c-58 0 -90 39 -114 67c-25 30 -43 49 -68 49c-42 0 -81 -54 -104 -104z" />
    <glyph glyph-name="uni00A0" unicode="&#xa0;" horiz-adv-x="330" 
 />
    <glyph glyph-name="exclamdown" unicode="&#xa1;" horiz-adv-x="330" 
d="M127 -210h-110l109 540h62zM179 467c-37 0 -62 21 -62 55c0 4 0 9 1 13c7 42 42 68 83 68c37 0 62 -21 62 -55c0 -4 0 -9 -1 -13c-7 -42 -42 -68 -83 -68z" />
    <glyph glyph-name="cent" unicode="&#xa2;" horiz-adv-x="605" 
d="M52 317l4 26c21 134 98 288 283 304l22 133h69l-22 -134c127 -14 171 -103 171 -161l-91 -8c-1 39 -30 87 -91 100l-78 -494c65 13 109 61 122 100l89 -8c-18 -58 -91 -147 -222 -161l-21 -134h-69l21 133c-147 13 -193 119 -193 231c0 24 2 49 6 73zM250 82l79 496
c-98 -17 -161 -106 -181 -235l-4 -26c-4 -24 -6 -46 -6 -67c0 -92 37 -154 112 -168z" />
    <glyph glyph-name="sterling" unicode="&#xa3;" horiz-adv-x="660" 
d="M80 363l9 54h100l22 141c8 49 43 240 232 240c150 0 168 -119 171 -159l-91 -10c-3 44 -16 104 -90 104c-89 0 -121 -108 -132 -175l-22 -141h230l-9 -54h-230l-10 -67c-16 -104 -48 -177 -107 -231h395l-10 -65h-507l1 55c74 52 118 116 138 241l10 67h-100z" />
    <glyph glyph-name="currency" unicode="&#xa4;" horiz-adv-x="720" 
d="M617 144l-57 -48l-88 105c-41 -25 -91 -41 -147 -41s-100 16 -133 41l-122 -105l-41 48l120 104c-18 30 -27 65 -27 103c0 13 1 26 3 39c8 53 33 102 69 142l-87 104l56 48l89 -105c41 25 90 41 146 41s101 -16 134 -41l121 105l42 -48l-121 -104c18 -30 28 -66 28 -105
c0 -12 -1 -24 -3 -37c-8 -53 -34 -102 -70 -142zM336 229c90 0 162 62 178 161c2 12 3 23 3 34c0 79 -51 127 -130 127c-90 0 -161 -62 -177 -161c-2 -12 -3 -23 -3 -34c0 -79 50 -127 129 -127z" />
    <glyph glyph-name="yen" unicode="&#xa5;" horiz-adv-x="660" 
d="M95 318l9 54h141l-152 393l1 7l109 8l129 -388l253 388l105 -8l-1 -7l-276 -393h141l-9 -54h-171l-8 -12l-13 -84h177l-8 -54h-177l-27 -168h-96l27 168h-177l8 54h177l13 84l-4 12h-171z" />
    <glyph glyph-name="brokenbar" unicode="&#xa6;" horiz-adv-x="360" 
d="M151 450l72 450h80l-72 -450h-80zM61 -120l71 450h80l-71 -450h-80z" />
    <glyph glyph-name="section" unicode="&#xa7;" horiz-adv-x="660" 
d="M147 619c18 116 119 209 264 209c151 0 201 -113 201 -189v-2l-88 -8c0 65 -37 135 -123 135s-152 -52 -167 -145c-1 -8 -2 -16 -2 -23c0 -58 39 -86 74 -103c44 -21 108 -48 150 -64c55 -20 111 -70 111 -160c0 -12 -1 -25 -3 -38c-8 -51 -38 -98 -81 -136
c9 -21 15 -45 15 -73c0 -11 -1 -23 -3 -36c-19 -118 -121 -214 -281 -214c-164 0 -217 117 -217 195l89 8c0 -64 36 -139 138 -139s169 53 184 150c2 11 3 22 3 31c0 65 -40 91 -74 104c-45 18 -106 45 -153 67c-49 23 -108 72 -108 155c0 10 0 20 2 30c8 52 38 101 86 137
c-12 21 -20 46 -20 77c0 10 1 21 3 32zM442 152c16 20 30 45 35 79c2 11 3 21 3 30c0 66 -40 94 -72 106c-45 18 -108 44 -155 66c-15 7 -31 16 -46 28c-21 -23 -36 -52 -42 -88c-1 -8 -2 -14 -2 -21c0 -59 45 -87 80 -104c44 -21 103 -47 144 -63c19 -7 38 -18 55 -33z" />
    <glyph glyph-name="dieresis" unicode="&#xa8;" horiz-adv-x="510" 
d="M132 780c6 39 40 63 78 63c34 0 59 -19 59 -52c0 -3 0 -7 -1 -11c-6 -39 -40 -63 -78 -63c-34 0 -59 19 -59 52c0 3 0 7 1 11zM370 780c6 39 40 63 78 63c34 0 59 -19 59 -52c0 -3 0 -7 -1 -11c-6 -39 -40 -63 -78 -63c-34 0 -59 19 -59 52c0 3 0 7 1 11z" />
    <glyph glyph-name="copyright" unicode="&#xa9;" horiz-adv-x="1020" 
d="M346 412c15 92 71 196 207 196c100 0 134 -65 136 -105l-63 -6c-2 28 -25 65 -80 65c-76 0 -122 -58 -137 -150l-2 -16c-3 -16 -4 -31 -4 -45c0 -66 30 -107 93 -107c55 0 90 38 100 66l61 -6c-14 -40 -68 -105 -168 -105c-113 0 -149 73 -149 151c0 15 2 31 4 46z
M449 -4c-226 0 -358 138 -358 334c0 24 2 49 6 75c37 234 228 409 482 409c226 0 358 -138 358 -334c0 -24 -2 -49 -6 -75c-37 -234 -228 -409 -482 -409zM457 44c220 0 386 147 420 361c4 24 6 48 6 70c0 176 -117 291 -312 291c-220 0 -386 -147 -420 -361
c-4 -24 -6 -48 -6 -70c0 -176 117 -291 312 -291z" />
    <glyph glyph-name="ordfeminine" unicode="&#xaa;" horiz-adv-x="313" 
d="M60 596c6 38 43 76 110 76c32 0 64 -4 88 -6l9 54c1 5 1 9 1 13c0 33 -25 45 -57 45c-34 0 -62 -20 -73 -56l-55 4c13 46 59 94 135 94c67 0 105 -34 105 -84c0 -5 0 -10 -1 -16l-22 -138c-1 -6 -1 -12 -1 -16c0 -17 6 -24 27 -26l-20 -37c-20 2 -50 12 -55 45
c-22 -24 -53 -45 -97 -45c-61 0 -95 28 -95 76c0 6 0 11 1 17zM256 632c-22 3 -53 6 -88 6c-24 0 -50 -14 -54 -42c-1 -4 -1 -8 -1 -12c0 -33 25 -46 54 -46c49 0 74 39 86 77z" />
    <glyph glyph-name="guillemotleft" unicode="&#xab;" horiz-adv-x="780" 
d="M76 342l6 36l339 260l25 -46l-271 -232l197 -232l-39 -46zM361 342l6 36l338 260l26 -46l-271 -232l197 -232l-40 -46z" />
    <glyph glyph-name="logicalnot" unicode="&#xac;" horiz-adv-x="600" 
d="M89 326l10 68h405l-31 -199h-85l21 131h-320z" />
    <glyph glyph-name="uni00AD" unicode="&#xad;" horiz-adv-x="450" 
d="M85 395h286l-12 -70h-286z" />
    <glyph glyph-name="registered" unicode="&#xae;" horiz-adv-x="870" 
d="M418 270c-184 0 -291 112 -291 270c0 19 2 40 5 60c30 188 184 330 390 330c184 0 291 -112 291 -270c0 -19 -2 -40 -5 -60c-30 -188 -184 -330 -390 -330zM424 308c176 0 311 118 339 292c3 20 5 39 5 57c0 142 -96 235 -252 235c-176 0 -311 -118 -339 -292
c-3 -20 -5 -39 -5 -57c0 -142 96 -235 252 -235zM441 560c-17 0 -33 0 -47 1l-26 -161h-60l26 164l36 226c9 0 71 4 131 4c86 0 143 -36 143 -99c0 -6 -1 -12 -2 -18c-10 -63 -63 -103 -136 -114l108 -160l-1 -3h-68zM401 605c16 -1 39 -2 63 -2c60 0 109 18 118 74
c1 5 1 10 1 14c0 45 -41 61 -96 61c-24 0 -47 -1 -63 -2z" />
    <glyph glyph-name="macron" unicode="&#xaf;" horiz-adv-x="510" 
d="M127 750l9 60h374l-9 -60h-374z" />
    <glyph glyph-name="degree" unicode="&#xb0;" horiz-adv-x="330" 
d="M210 661c-70 0 -108 44 -108 99c0 6 1 13 2 20c10 63 65 119 143 119c70 0 109 -45 109 -100c0 -6 -1 -13 -2 -19c-10 -63 -66 -119 -144 -119zM217 704c40 0 75 28 83 76c1 6 1 11 1 16c0 38 -25 60 -60 60c-40 0 -75 -28 -83 -76c-1 -6 -1 -11 -1 -16
c0 -38 25 -60 60 -60z" />
    <glyph glyph-name="plusminus" unicode="&#xb1;" horiz-adv-x="600" 
d="M67 191l10 64h405l-10 -64h-405zM111 465l10 64h162l19 120h80l-19 -120h163l-10 -64h-163l-19 -120h-80l19 120h-162z" />
    <glyph glyph-name="two.sups" unicode="&#xb2;" horiz-adv-x="330" 
d="M59 532c14 88 95 140 155 176c42 26 80 50 86 90c1 5 1 10 1 15c0 27 -13 53 -58 53c-37 0 -66 -28 -76 -56l-60 5c13 36 59 95 142 95c93 0 110 -58 110 -95c0 -6 0 -12 -1 -17c-10 -64 -71 -103 -113 -128c-53 -32 -101 -64 -117 -114h195l-7 -46h-257s-2 10 0 22z" />
    <glyph glyph-name="three.sups" unicode="&#xb3;" horiz-adv-x="330" 
d="M51 576l60 10c3 -16 16 -42 67 -42c66 0 87 42 92 74c1 4 1 9 1 13c0 29 -16 53 -67 53h-52l7 42h46c38 0 74 28 81 72c1 5 1 10 1 15c0 27 -13 53 -58 53c-37 0 -65 -28 -75 -56l-59 5c13 36 58 95 141 95c92 0 109 -57 109 -94c0 -7 0 -13 -1 -18
c-7 -44 -34 -71 -65 -87c41 -15 52 -47 52 -75c0 -6 0 -11 -1 -16c-6 -40 -39 -120 -159 -120c-90 0 -115 54 -120 76z" />
    <glyph glyph-name="acute" unicode="&#xb4;" horiz-adv-x="390" 
d="M453 830l-341 -277l-42 33l323 296z" />
    <glyph glyph-name="uni00B5" unicode="&#xb5;" horiz-adv-x="665" 
d="M128 600h90l-48 -301v-3c0 -110 64 -237 172 -237c60 0 111 35 125 123l66 418h90l-67 -421c-16 -104 -84 -192 -202 -192s-179 89 -207 180l-59 -377h-88z" />
    <glyph glyph-name="paragraph" unicode="&#xb6;" horiz-adv-x="725" 
d="M330 400l51 318c-106 -10 -189 -58 -205 -159c-2 -10 -2 -19 -2 -28c0 -82 64 -122 156 -131zM590 715c-29 2 -76 4 -129 5l-147 -930h-80l85 540c-144 10 -241 78 -241 193c0 12 1 24 3 36c23 148 169 230 349 230c112 0 223 -7 251 -9l-157 -990h-80z" />
    <glyph glyph-name="periodcentered" unicode="&#xb7;" horiz-adv-x="330" 
d="M173 428c37 0 62 -21 62 -55c0 -4 0 -9 -1 -13c-7 -42 -42 -68 -83 -68c-37 0 -62 21 -62 55c0 4 0 9 1 13c7 42 42 68 83 68z" />
    <glyph glyph-name="cedilla" unicode="&#xb8;" horiz-adv-x="330" 
d="M-50 -284c67 16 157 44 167 109c0 2 1 5 1 7c0 20 -17 38 -69 38c-16 0 -36 -3 -47 -5l-24 28l84 117h53l-72 -99c7 1 15 1 23 1c71 0 112 -26 112 -73c0 -5 0 -9 -1 -14c-17 -108 -164 -139 -219 -153z" />
    <glyph glyph-name="one.sups" unicode="&#xb9;" horiz-adv-x="330" 
d="M119 825l143 78l40 -5l-54 -342h75l-7 -46h-227l7 46h94l45 282l-99 -56z" />
    <glyph glyph-name="ordmasculine" unicode="&#xba;" horiz-adv-x="330" 
d="M71 653l3 14c11 69 53 153 161 153c90 0 116 -58 116 -117c0 -12 -1 -24 -3 -36l-3 -14c-11 -69 -53 -153 -161 -153c-90 0 -116 58 -116 117c0 12 1 24 3 36zM191 542c52 0 87 41 98 111l3 14c2 11 3 22 3 32c0 50 -24 79 -67 79c-52 0 -87 -41 -98 -111l-3 -14
c-2 -11 -3 -22 -3 -32c0 -50 24 -79 67 -79z" />
    <glyph glyph-name="guillemotright" unicode="&#xbb;" horiz-adv-x="780" 
d="M698 378l-6 -36l-339 -260l-25 46l271 232l-197 232l39 46zM413 378l-6 -36l-338 -260l-26 46l271 232l-197 232l40 46z" />
    <glyph glyph-name="onequarter" unicode="&#xbc;" horiz-adv-x="780" 
d="M22 0l1 5l677 775h61l-1 -5l-677 -775h-61zM100 705l143 78l40 -5l-54 -342h75l-7 -46h-227l7 46h94l45 282l-99 -56zM602 98h-176l-1 28l231 267l47 -5l-39 -246h63l-6 -44h-63l-16 -98h-56zM610 142l28 171l-148 -171h120z" />
    <glyph glyph-name="onehalf" unicode="&#xbd;" horiz-adv-x="780" 
d="M100 705l143 78l40 -5l-54 -342h75l-7 -46h-227l7 46h94l45 282l-99 -56zM22 0l1 5l677 775h61l-1 -5l-677 -775h-61zM428 22c14 88 95 140 155 176c42 26 81 50 87 90c1 5 1 9 1 14c0 27 -13 54 -59 54c-37 0 -65 -28 -75 -56l-61 5c13 36 59 95 142 95
c93 0 111 -58 111 -95c0 -6 0 -12 -1 -17c-10 -64 -72 -103 -114 -128c-53 -32 -101 -64 -117 -114h195l-7 -46h-257s-2 10 0 22z" />
    <glyph glyph-name="threequarters" unicode="&#xbe;" horiz-adv-x="780" 
d="M602 98h-176l-1 28l231 267l47 -5l-39 -246h63l-6 -44h-63l-16 -98h-56zM610 142l28 171l-148 -171h120zM22 0l1 5l677 775h61l-1 -5l-677 -775h-61zM32 456l60 10c3 -16 16 -42 67 -42c66 0 87 42 92 74c1 4 1 9 1 13c0 29 -16 53 -67 53h-52l7 42h46c38 0 74 28 81 72
c1 5 1 10 1 15c0 27 -13 53 -58 53c-37 0 -65 -28 -75 -56l-59 5c13 36 58 95 141 95c92 0 109 -57 109 -94c0 -7 0 -13 -1 -18c-7 -44 -34 -71 -65 -87c41 -15 52 -47 52 -75c0 -6 0 -11 -1 -16c-6 -40 -39 -120 -159 -120c-90 0 -115 54 -120 76z" />
    <glyph glyph-name="questiondown" unicode="&#xbf;" horiz-adv-x="570" 
d="M440 -50c-16 -102 -114 -178 -250 -178c-115 0 -186 58 -186 156c0 11 1 23 3 36c26 164 238 206 257 327c1 6 1 13 1 19c0 14 -2 27 -6 40l77 9c6 -17 9 -34 9 -51c0 -7 -1 -15 -2 -22c-25 -156 -219 -187 -240 -319c-2 -11 -3 -21 -3 -30c0 -69 48 -94 103 -94
c73 0 130 37 141 107c1 10 2 20 2 30c0 12 -1 24 -5 35l93 24c5 -19 8 -39 8 -59c0 -10 0 -20 -2 -30zM299 467c-37 0 -62 21 -62 55c0 4 0 9 1 13c7 42 42 68 83 68c37 0 62 -21 62 -55c0 -4 0 -9 -1 -13c-7 -42 -42 -68 -83 -68z" />
    <glyph glyph-name="Agrave" unicode="&#xc0;" horiz-adv-x="750" 
d="M322 990l50 62l188 -168l-31 -36zM667 0h-108l-36 176h-360l-92 -176h-108l1 6l435 774h80l189 -774zM509 244l-88 426l-222 -426h310z" />
    <glyph glyph-name="Aacute" unicode="&#xc1;" horiz-adv-x="750" 
d="M622 990l-251 -142l-21 36l242 168zM667 0h-108l-36 176h-360l-92 -176h-108l1 6l435 774h80l189 -774zM509 244l-88 426l-222 -426h310z" />
    <glyph glyph-name="Acircumflex" unicode="&#xc2;" horiz-adv-x="750" 
d="M265 863l199 149h24l151 -149l-33 -31l-142 106l-176 -106zM667 0h-108l-36 176h-360l-92 -176h-108l1 6l435 774h80l189 -774zM509 244l-88 426l-222 -426h310z" />
    <glyph glyph-name="Atilde" unicode="&#xc3;" horiz-adv-x="750" 
d="M269 887c28 51 66 120 130 120c50 0 72 -31 91 -52c18 -21 30 -42 49 -42c32 0 61 61 75 87l44 -17c-26 -52 -66 -120 -129 -120c-50 0 -73 31 -92 52c-18 21 -29 42 -48 42c-32 0 -61 -61 -75 -87zM667 0h-108l-36 176h-360l-92 -176h-108l1 6l435 774h80l189 -774z
M509 244l-88 426l-222 -426h310z" />
    <glyph glyph-name="Adieresis" unicode="&#xc4;" horiz-adv-x="750" 
d="M276 930c6 39 40 63 78 63c34 0 59 -19 59 -52c0 -3 0 -7 -1 -11c-6 -39 -40 -63 -78 -63c-34 0 -59 19 -59 52c0 3 0 7 1 11zM514 930c6 39 40 63 78 63c34 0 59 -19 59 -52c0 -3 0 -7 -1 -11c-6 -39 -40 -63 -78 -63c-34 0 -59 19 -59 52c0 3 0 7 1 11zM667 0h-108
l-36 176h-360l-92 -176h-108l1 6l435 774h80l189 -774zM509 244l-88 426l-222 -426h310z" />
    <glyph glyph-name="Aring" unicode="&#xc5;" horiz-adv-x="750" 
d="M443 807c-60 0 -99 35 -99 89c0 6 0 13 1 19c10 64 65 108 132 108c60 0 99 -35 99 -89c0 -6 0 -13 -1 -19c-10 -64 -65 -108 -132 -108zM450 851c40 0 70 26 76 64c1 4 1 8 1 12c0 31 -21 52 -57 52c-40 0 -70 -26 -76 -64c-1 -4 -1 -8 -1 -12c0 -31 21 -52 57 -52z
M667 0h-108l-36 176h-360l-92 -176h-108l1 6l435 774h80l189 -774zM509 244l-88 426l-222 -426h310z" />
    <glyph glyph-name="AE" unicode="&#xc6;" horiz-adv-x="980" 
d="M-32 0l1 6l520 774h38h43h397l-12 -74h-344l-45 -286h310l-12 -70h-310l-43 -276h359l-12 -74h-455l28 176h-244l-111 -176h-108zM512 689l-281 -445h211z" />
    <glyph glyph-name="Ccedilla" unicode="&#xc7;" horiz-adv-x="755" 
d="M217 -284c67 16 157 44 167 109c0 2 1 5 1 7c0 20 -17 38 -69 38c-16 0 -36 -3 -47 -5l-24 28l64 90c-188 17 -250 150 -250 296c0 31 3 63 8 94l5 32c30 188 143 392 407 392c194 0 262 -126 263 -206l-100 -10c-2 61 -52 143 -174 143c-168 0 -266 -132 -296 -319
l-5 -32c-5 -32 -8 -61 -8 -89c0 -138 63 -230 203 -230c122 0 197 82 219 143l97 -10c-27 -79 -129 -201 -317 -206l-51 -70c7 1 15 1 23 1c71 0 112 -26 112 -73c0 -5 0 -9 -1 -14c-17 -108 -164 -139 -219 -153z" />
    <glyph glyph-name="Egrave" unicode="&#xc8;" horiz-adv-x="675" 
d="M297 990l50 62l188 -168l-31 -36zM38 0l124 780h500l-12 -74h-404l-45 -286h370l-12 -70h-370l-43 -276h419l-12 -74h-515z" />
    <glyph glyph-name="Eacute" unicode="&#xc9;" horiz-adv-x="675" 
d="M597 990l-251 -142l-21 36l242 168zM38 0l124 780h500l-12 -74h-404l-45 -286h370l-12 -70h-370l-43 -276h419l-12 -74h-515z" />
    <glyph glyph-name="Ecircumflex" unicode="&#xca;" horiz-adv-x="675" 
d="M240 863l199 149h24l151 -149l-33 -31l-142 106l-176 -106zM38 0l124 780h500l-12 -74h-404l-45 -286h370l-12 -70h-370l-43 -276h419l-12 -74h-515z" />
    <glyph glyph-name="Edieresis" unicode="&#xcb;" horiz-adv-x="675" 
d="M251 930c6 39 40 63 78 63c34 0 59 -19 59 -52c0 -3 0 -7 -1 -11c-6 -39 -40 -63 -78 -63c-34 0 -59 19 -59 52c0 3 0 7 1 11zM489 930c6 39 40 63 78 63c34 0 59 -19 59 -52c0 -3 0 -7 -1 -11c-6 -39 -40 -63 -78 -63c-34 0 -59 19 -59 52c0 3 0 7 1 11zM38 0l124 780
h500l-12 -74h-404l-45 -286h370l-12 -70h-370l-43 -276h419l-12 -74h-515z" />
    <glyph glyph-name="Igrave" unicode="&#xcc;" horiz-adv-x="320" 
d="M107 990l50 62l188 -168l-31 -36zM52 0l124 780h96l-124 -780h-96z" />
    <glyph glyph-name="Iacute" unicode="&#xcd;" horiz-adv-x="320" 
d="M407 990l-251 -142l-21 36l242 168zM52 0l124 780h96l-124 -780h-96z" />
    <glyph glyph-name="Icircumflex" unicode="&#xce;" horiz-adv-x="320" 
d="M50 863l199 149h24l151 -149l-33 -31l-142 106l-176 -106zM52 0l124 780h96l-124 -780h-96z" />
    <glyph glyph-name="Idieresis" unicode="&#xcf;" horiz-adv-x="320" 
d="M61 930c6 39 40 63 78 63c34 0 59 -19 59 -52c0 -3 0 -7 -1 -11c-6 -39 -40 -63 -78 -63c-34 0 -59 19 -59 52c0 3 0 7 1 11zM299 930c6 39 40 63 78 63c34 0 59 -19 59 -52c0 -3 0 -7 -1 -11c-6 -39 -40 -63 -78 -63c-34 0 -59 19 -59 52c0 3 0 7 1 11zM52 0l124 780h96
l-124 -780h-96z" />
    <glyph glyph-name="Eth" unicode="&#xd0;" horiz-adv-x="770" 
d="M10 363l9 54h85l58 363s109 9 193 9c268 0 358 -145 358 -307c0 -25 -2 -51 -6 -76l-5 -32c-30 -190 -164 -383 -473 -383c-84 0 -191 9 -191 9l57 363h-85zM143 64c30 -1 69 -3 97 -3c234 0 339 134 367 313l5 32c4 26 6 51 6 75c0 140 -74 238 -274 238
c-28 0 -68 -2 -98 -3l-47 -299h210l-9 -54h-210z" />
    <glyph glyph-name="Ntilde" unicode="&#xd1;" horiz-adv-x="790" 
d="M289 887c28 51 66 120 130 120c50 0 72 -31 91 -52c18 -21 30 -42 49 -42c32 0 61 61 75 87l44 -17c-26 -52 -66 -120 -129 -120c-50 0 -73 31 -92 52c-18 21 -29 42 -48 42c-32 0 -61 -61 -75 -87zM38 0l122 771l84 9l319 -628l100 628h93l-124 -780h-82l-320 628
l-99 -628h-93z" />
    <glyph glyph-name="Ograve" unicode="&#xd2;" horiz-adv-x="820" 
d="M357 990l50 62l188 -168l-31 -36zM67 372l6 36c29 186 140 390 403 390c219 0 289 -142 289 -297c0 -31 -3 -62 -8 -93l-6 -36c-29 -186 -141 -390 -404 -390c-219 0 -288 141 -288 296c0 31 3 63 8 94zM359 54c169 0 265 132 294 318l6 36c5 31 7 61 7 89
c0 137 -61 229 -201 229c-169 0 -265 -132 -294 -318l-6 -36c-5 -31 -7 -61 -7 -89c0 -137 61 -229 201 -229z" />
    <glyph glyph-name="Oacute" unicode="&#xd3;" horiz-adv-x="820" 
d="M657 990l-251 -142l-21 36l242 168zM67 372l6 36c29 186 140 390 403 390c219 0 289 -142 289 -297c0 -31 -3 -62 -8 -93l-6 -36c-29 -186 -141 -390 -404 -390c-219 0 -288 141 -288 296c0 31 3 63 8 94zM359 54c169 0 265 132 294 318l6 36c5 31 7 61 7 89
c0 137 -61 229 -201 229c-169 0 -265 -132 -294 -318l-6 -36c-5 -31 -7 -61 -7 -89c0 -137 61 -229 201 -229z" />
    <glyph glyph-name="Ocircumflex" unicode="&#xd4;" horiz-adv-x="820" 
d="M300 863l199 149h24l151 -149l-33 -31l-142 106l-176 -106zM67 372l6 36c29 186 140 390 403 390c219 0 289 -142 289 -297c0 -31 -3 -62 -8 -93l-6 -36c-29 -186 -141 -390 -404 -390c-219 0 -288 141 -288 296c0 31 3 63 8 94zM359 54c169 0 265 132 294 318l6 36
c5 31 7 61 7 89c0 137 -61 229 -201 229c-169 0 -265 -132 -294 -318l-6 -36c-5 -31 -7 -61 -7 -89c0 -137 61 -229 201 -229z" />
    <glyph glyph-name="Otilde" unicode="&#xd5;" horiz-adv-x="820" 
d="M304 887c28 51 66 120 130 120c50 0 72 -31 91 -52c18 -21 30 -42 49 -42c32 0 61 61 75 87l44 -17c-26 -52 -66 -120 -129 -120c-50 0 -73 31 -92 52c-18 21 -29 42 -48 42c-32 0 -61 -61 -75 -87zM67 372l6 36c29 186 140 390 403 390c219 0 289 -142 289 -297
c0 -31 -3 -62 -8 -93l-6 -36c-29 -186 -141 -390 -404 -390c-219 0 -288 141 -288 296c0 31 3 63 8 94zM359 54c169 0 265 132 294 318l6 36c5 31 7 61 7 89c0 137 -61 229 -201 229c-169 0 -265 -132 -294 -318l-6 -36c-5 -31 -7 -61 -7 -89c0 -137 61 -229 201 -229z" />
    <glyph glyph-name="Odieresis" unicode="&#xd6;" horiz-adv-x="820" 
d="M311 930c6 39 40 63 78 63c34 0 59 -19 59 -52c0 -3 0 -7 -1 -11c-6 -39 -40 -63 -78 -63c-34 0 -59 19 -59 52c0 3 0 7 1 11zM549 930c6 39 40 63 78 63c34 0 59 -19 59 -52c0 -3 0 -7 -1 -11c-6 -39 -40 -63 -78 -63c-34 0 -59 19 -59 52c0 3 0 7 1 11zM67 372l6 36
c29 186 140 390 403 390c219 0 289 -142 289 -297c0 -31 -3 -62 -8 -93l-6 -36c-29 -186 -141 -390 -404 -390c-219 0 -288 141 -288 296c0 31 3 63 8 94zM359 54c169 0 265 132 294 318l6 36c5 31 7 61 7 89c0 137 -61 229 -201 229c-169 0 -265 -132 -294 -318l-6 -36
c-5 -31 -7 -61 -7 -89c0 -137 61 -229 201 -229z" />
    <glyph glyph-name="multiply" unicode="&#xd7;" horiz-adv-x="600" 
d="M128 503l56 49l121 -143l165 143l42 -49l-166 -143l120 -143l-56 -49l-121 143l-165 -143l-42 49l166 143z" />
    <glyph glyph-name="Oslash" unicode="&#xd8;" horiz-adv-x="820" 
d="M67 372l6 36c29 186 140 390 403 390c101 0 171 -30 216 -78l77 81l39 -30l-86 -90c30 -51 43 -114 43 -179c0 -31 -3 -63 -8 -94l-6 -36c-29 -186 -141 -390 -404 -390c-103 0 -172 31 -217 80l-74 -77l-38 30l83 86c-30 51 -42 112 -42 177c0 31 3 63 8 94zM626 652
c-33 47 -85 74 -161 74c-169 0 -265 -132 -294 -318l-6 -36c-5 -32 -8 -61 -8 -89c0 -39 5 -75 16 -106zM650 606l-455 -475c32 -48 86 -77 164 -77c169 0 265 132 294 318l6 36c5 32 7 62 7 90c0 40 -5 77 -16 108z" />
    <glyph glyph-name="Ugrave" unicode="&#xd9;" horiz-adv-x="770" 
d="M332 990l50 62l188 -168l-31 -36zM64 236l87 544h96l-87 -544c-2 -12 -3 -24 -3 -35c0 -96 71 -147 177 -147c118 0 211 64 230 182l87 544h96l-87 -544c-23 -146 -158 -254 -338 -254c-163 0 -261 89 -261 214c0 13 1 26 3 40z" />
    <glyph glyph-name="Uacute" unicode="&#xda;" horiz-adv-x="770" 
d="M632 990l-251 -142l-21 36l242 168zM64 236l87 544h96l-87 -544c-2 -12 -3 -24 -3 -35c0 -96 71 -147 177 -147c118 0 211 64 230 182l87 544h96l-87 -544c-23 -146 -158 -254 -338 -254c-163 0 -261 89 -261 214c0 13 1 26 3 40z" />
    <glyph glyph-name="Ucircumflex" unicode="&#xdb;" horiz-adv-x="770" 
d="M275 863l199 149h24l151 -149l-33 -31l-142 106l-176 -106zM64 236l87 544h96l-87 -544c-2 -12 -3 -24 -3 -35c0 -96 71 -147 177 -147c118 0 211 64 230 182l87 544h96l-87 -544c-23 -146 -158 -254 -338 -254c-163 0 -261 89 -261 214c0 13 1 26 3 40z" />
    <glyph glyph-name="Udieresis" unicode="&#xdc;" horiz-adv-x="770" 
d="M286 930c6 39 40 63 78 63c34 0 59 -19 59 -52c0 -3 0 -7 -1 -11c-6 -39 -40 -63 -78 -63c-34 0 -59 19 -59 52c0 3 0 7 1 11zM524 930c6 39 40 63 78 63c34 0 59 -19 59 -52c0 -3 0 -7 -1 -11c-6 -39 -40 -63 -78 -63c-34 0 -59 19 -59 52c0 3 0 7 1 11zM64 236l87 544
h96l-87 -544c-2 -12 -3 -24 -3 -35c0 -96 71 -147 177 -147c118 0 211 64 230 182l87 544h96l-87 -544c-23 -146 -158 -254 -338 -254c-163 0 -261 89 -261 214c0 13 1 26 3 40z" />
    <glyph glyph-name="Yacute" unicode="&#xdd;" horiz-adv-x="670" 
d="M582 990l-251 -142l-21 36l242 168zM79 765l1 7l109 8l148 -388l272 388l105 -8l-1 -7l-342 -464l-48 -301h-96l48 301z" />
    <glyph glyph-name="Thorn" unicode="&#xde;" horiz-adv-x="725" 
d="M173 261c36 -2 91 -4 148 -4c128 0 235 45 253 161c2 10 2 19 2 28c0 95 -87 133 -204 133c-57 0 -113 -2 -149 -4zM234 644c46 2 103 4 159 4c165 0 279 -69 279 -195c0 -11 -1 -23 -3 -35c-23 -148 -169 -230 -349 -230c-56 0 -112 2 -158 4l-30 -192h-94l31 197
l70 442l23 141h94z" />
    <glyph glyph-name="germandbls" unicode="&#xdf;" horiz-adv-x="780" 
d="M300 137l86 6v-2c0 -47 31 -94 96 -94c68 0 118 35 129 103c1 6 1 11 1 16c0 47 -35 70 -56 79c-34 14 -76 34 -109 49c-41 18 -88 55 -88 124c0 9 0 17 2 27c15 92 91 156 199 156c10 0 19 -1 28 -2c-4 115 -79 164 -170 164c-86 0 -177 -43 -199 -184l-92 -579h-90
l92 579c25 160 151 249 299 249c152 0 236 -97 236 -230c0 -10 0 -19 -1 -29l-50 -38c-8 4 -26 12 -60 12c-52 0 -96 -28 -106 -90c-1 -7 -2 -13 -2 -19c0 -48 35 -67 56 -78c33 -15 76 -35 107 -48c42 -18 90 -57 90 -130c0 -9 0 -18 -2 -28c-14 -90 -95 -168 -224 -168
c-132 0 -172 94 -172 153v2z" />
    <glyph glyph-name="agrave" unicode="&#xe0;" horiz-adv-x="625" 
d="M233 840l50 62l188 -168l-31 -36zM30 172c12 77 86 148 212 148c73 0 143 -6 193 -12l18 114c1 9 2 18 2 26c0 71 -53 104 -128 104c-80 0 -138 -47 -161 -123l-89 6c28 93 117 183 261 183c128 0 205 -67 205 -164c0 -10 -1 -21 -3 -32l-45 -285c-2 -12 -3 -23 -3 -32
c0 -37 17 -53 58 -58l-31 -60c-44 5 -101 27 -103 102c-44 -54 -109 -102 -203 -102c-116 0 -186 56 -186 151c0 11 1 22 3 34zM430 252c-44 6 -112 14 -192 14c-58 0 -110 -34 -120 -95c-1 -9 -2 -18 -2 -26c0 -70 52 -102 116 -102c107 0 165 90 191 167z" />
    <glyph glyph-name="aacute" unicode="&#xe1;" horiz-adv-x="625" 
d="M533 840l-251 -142l-21 36l242 168zM30 172c12 77 86 148 212 148c73 0 143 -6 193 -12l18 114c1 9 2 18 2 26c0 71 -53 104 -128 104c-80 0 -138 -47 -161 -123l-89 6c28 93 117 183 261 183c128 0 205 -67 205 -164c0 -10 -1 -21 -3 -32l-45 -285c-2 -12 -3 -23 -3 -32
c0 -37 17 -53 58 -58l-31 -60c-44 5 -101 27 -103 102c-44 -54 -109 -102 -203 -102c-116 0 -186 56 -186 151c0 11 1 22 3 34zM430 252c-44 6 -112 14 -192 14c-58 0 -110 -34 -120 -95c-1 -9 -2 -18 -2 -26c0 -70 52 -102 116 -102c107 0 165 90 191 167z" />
    <glyph glyph-name="acircumflex" unicode="&#xe2;" horiz-adv-x="625" 
d="M176 713l199 149h24l151 -149l-33 -31l-142 106l-176 -106zM30 172c12 77 86 148 212 148c73 0 143 -6 193 -12l18 114c1 9 2 18 2 26c0 71 -53 104 -128 104c-80 0 -138 -47 -161 -123l-89 6c28 93 117 183 261 183c128 0 205 -67 205 -164c0 -10 -1 -21 -3 -32
l-45 -285c-2 -12 -3 -23 -3 -32c0 -37 17 -53 58 -58l-31 -60c-44 5 -101 27 -103 102c-44 -54 -109 -102 -203 -102c-116 0 -186 56 -186 151c0 11 1 22 3 34zM430 252c-44 6 -112 14 -192 14c-58 0 -110 -34 -120 -95c-1 -9 -2 -18 -2 -26c0 -70 52 -102 116 -102
c107 0 165 90 191 167z" />
    <glyph glyph-name="atilde" unicode="&#xe3;" horiz-adv-x="625" 
d="M180 737c28 51 66 120 130 120c50 0 72 -31 91 -52c18 -21 30 -42 49 -42c32 0 61 61 75 87l44 -17c-26 -52 -66 -120 -129 -120c-50 0 -73 31 -92 52c-18 21 -29 42 -48 42c-32 0 -61 -61 -75 -87zM30 172c12 77 86 148 212 148c73 0 143 -6 193 -12l18 114
c1 9 2 18 2 26c0 71 -53 104 -128 104c-80 0 -138 -47 -161 -123l-89 6c28 93 117 183 261 183c128 0 205 -67 205 -164c0 -10 -1 -21 -3 -32l-45 -285c-2 -12 -3 -23 -3 -32c0 -37 17 -53 58 -58l-31 -60c-44 5 -101 27 -103 102c-44 -54 -109 -102 -203 -102
c-116 0 -186 56 -186 151c0 11 1 22 3 34zM430 252c-44 6 -112 14 -192 14c-58 0 -110 -34 -120 -95c-1 -9 -2 -18 -2 -26c0 -70 52 -102 116 -102c107 0 165 90 191 167z" />
    <glyph glyph-name="adieresis" unicode="&#xe4;" horiz-adv-x="625" 
d="M187 780c6 39 40 63 78 63c34 0 59 -19 59 -52c0 -3 0 -7 -1 -11c-6 -39 -40 -63 -78 -63c-34 0 -59 19 -59 52c0 3 0 7 1 11zM425 780c6 39 40 63 78 63c34 0 59 -19 59 -52c0 -3 0 -7 -1 -11c-6 -39 -40 -63 -78 -63c-34 0 -59 19 -59 52c0 3 0 7 1 11zM30 172
c12 77 86 148 212 148c73 0 143 -6 193 -12l18 114c1 9 2 18 2 26c0 71 -53 104 -128 104c-80 0 -138 -47 -161 -123l-89 6c28 93 117 183 261 183c128 0 205 -67 205 -164c0 -10 -1 -21 -3 -32l-45 -285c-2 -12 -3 -23 -3 -32c0 -37 17 -53 58 -58l-31 -60
c-44 5 -101 27 -103 102c-44 -54 -109 -102 -203 -102c-116 0 -186 56 -186 151c0 11 1 22 3 34zM430 252c-44 6 -112 14 -192 14c-58 0 -110 -34 -120 -95c-1 -9 -2 -18 -2 -26c0 -70 52 -102 116 -102c107 0 165 90 191 167z" />
    <glyph glyph-name="aring" unicode="&#xe5;" horiz-adv-x="625" 
d="M354 657c-60 0 -99 35 -99 89c0 6 0 13 1 19c10 64 65 108 132 108c60 0 99 -35 99 -89c0 -6 0 -13 -1 -19c-10 -64 -65 -108 -132 -108zM361 701c40 0 70 26 76 64c1 4 1 8 1 12c0 31 -21 52 -57 52c-40 0 -70 -26 -76 -64c-1 -4 -1 -8 -1 -12c0 -31 21 -52 57 -52z
M30 172c12 77 86 148 212 148c73 0 143 -6 193 -12l18 114c1 9 2 18 2 26c0 71 -53 104 -128 104c-80 0 -138 -47 -161 -123l-89 6c28 93 117 183 261 183c128 0 205 -67 205 -164c0 -10 -1 -21 -3 -32l-45 -285c-2 -12 -3 -23 -3 -32c0 -37 17 -53 58 -58l-31 -60
c-44 5 -101 27 -103 102c-44 -54 -109 -102 -203 -102c-116 0 -186 56 -186 151c0 11 1 22 3 34zM430 252c-44 6 -112 14 -192 14c-58 0 -110 -34 -120 -95c-1 -9 -2 -18 -2 -26c0 -70 52 -102 116 -102c107 0 165 90 191 167z" />
    <glyph glyph-name="ae" unicode="&#xe6;" horiz-adv-x="960" 
d="M30 172c12 78 81 148 205 148c68 0 130 -6 177 -12l18 114c2 10 2 19 2 28c0 70 -47 102 -115 102c-76 0 -128 -47 -151 -123l-89 6c28 93 111 183 251 183c91 0 152 -39 175 -100c45 59 110 100 199 100c136 0 198 -89 198 -201c0 -18 -2 -36 -5 -55
c-4 -24 -12 -51 -20 -75l1 -1h-1h-379c-5 -28 -7 -55 -7 -79c0 -99 39 -161 122 -161c84 0 134 61 149 107l87 -8c-20 -64 -106 -163 -246 -163c-101 0 -154 52 -177 122c-41 -63 -109 -122 -219 -122c-112 0 -178 57 -178 152c0 12 1 25 3 38zM506 344h301c2 6 3 12 4 18
c3 18 4 36 4 52c0 90 -44 140 -123 140c-92 0 -159 -84 -186 -210zM408 252c-41 6 -99 14 -175 14c-58 0 -105 -33 -115 -95c-2 -10 -2 -19 -2 -28c0 -70 48 -100 109 -100c98 0 153 85 176 164z" />
    <glyph glyph-name="ccedilla" unicode="&#xe7;" horiz-adv-x="605" 
d="M135 -284c67 16 157 44 167 109c0 2 1 5 1 7c0 20 -17 38 -69 38c-16 0 -36 -3 -47 -5l-24 28l65 91c-142 16 -186 120 -186 230c0 24 2 49 6 73l5 26c22 142 107 305 316 305c154 0 206 -100 206 -163l-91 -8c-1 46 -40 104 -126 104c-117 0 -190 -95 -213 -238l-5 -26
c-4 -24 -6 -47 -6 -68c0 -104 48 -170 145 -170c86 0 143 58 158 104l89 -8c-20 -61 -100 -158 -247 -163l-51 -71c7 1 15 1 23 1c71 0 112 -26 112 -73c0 -5 0 -9 -1 -14c-17 -108 -164 -139 -219 -153z" />
    <glyph glyph-name="egrave" unicode="&#xe8;" horiz-adv-x="640" 
d="M253 840l50 62l188 -168l-31 -36zM48 286l5 28c22 142 109 304 312 304c146 0 214 -94 214 -208c0 -16 -1 -32 -4 -48c-4 -25 -10 -51 -19 -76h-420c-4 -25 -6 -47 -6 -69c0 -103 45 -170 144 -170c90 0 148 60 163 106l86 -8c-21 -64 -107 -163 -259 -163
c-171 0 -222 111 -222 230c0 25 2 50 6 74zM146 344h341c1 7 2 13 3 19c3 17 4 32 4 47c0 94 -54 144 -139 144c-110 0 -181 -84 -209 -210z" />
    <glyph glyph-name="eacute" unicode="&#xe9;" horiz-adv-x="640" 
d="M553 840l-251 -142l-21 36l242 168zM48 286l5 28c22 142 109 304 312 304c146 0 214 -94 214 -208c0 -16 -1 -32 -4 -48c-4 -25 -10 -51 -19 -76h-420c-4 -25 -6 -47 -6 -69c0 -103 45 -170 144 -170c90 0 148 60 163 106l86 -8c-21 -64 -107 -163 -259 -163
c-171 0 -222 111 -222 230c0 25 2 50 6 74zM146 344h341c1 7 2 13 3 19c3 17 4 32 4 47c0 94 -54 144 -139 144c-110 0 -181 -84 -209 -210z" />
    <glyph glyph-name="ecircumflex" unicode="&#xea;" horiz-adv-x="640" 
d="M196 713l199 149h24l151 -149l-33 -31l-142 106l-176 -106zM48 286l5 28c22 142 109 304 312 304c146 0 214 -94 214 -208c0 -16 -1 -32 -4 -48c-4 -25 -10 -51 -19 -76h-420c-4 -25 -6 -47 -6 -69c0 -103 45 -170 144 -170c90 0 148 60 163 106l86 -8
c-21 -64 -107 -163 -259 -163c-171 0 -222 111 -222 230c0 25 2 50 6 74zM146 344h341c1 7 2 13 3 19c3 17 4 32 4 47c0 94 -54 144 -139 144c-110 0 -181 -84 -209 -210z" />
    <glyph glyph-name="edieresis" unicode="&#xeb;" horiz-adv-x="640" 
d="M207 780c6 39 40 63 78 63c34 0 59 -19 59 -52c0 -3 0 -7 -1 -11c-6 -39 -40 -63 -78 -63c-34 0 -59 19 -59 52c0 3 0 7 1 11zM445 780c6 39 40 63 78 63c34 0 59 -19 59 -52c0 -3 0 -7 -1 -11c-6 -39 -40 -63 -78 -63c-34 0 -59 19 -59 52c0 3 0 7 1 11zM48 286l5 28
c22 142 109 304 312 304c146 0 214 -94 214 -208c0 -16 -1 -32 -4 -48c-4 -25 -10 -51 -19 -76h-420c-4 -25 -6 -47 -6 -69c0 -103 45 -170 144 -170c90 0 148 60 163 106l86 -8c-21 -64 -107 -163 -259 -163c-171 0 -222 111 -222 230c0 25 2 50 6 74zM146 344h341
c1 7 2 13 3 19c3 17 4 32 4 47c0 94 -54 144 -139 144c-110 0 -181 -84 -209 -210z" />
    <glyph glyph-name="igrave" unicode="&#xec;" horiz-adv-x="300" 
d="M73 840l50 62l188 -168l-31 -36zM45 0l95 600h90l-95 -600h-90z" />
    <glyph glyph-name="iacute" unicode="&#xed;" horiz-adv-x="300" 
d="M373 840l-251 -142l-21 36l242 168zM45 0l95 600h90l-95 -600h-90z" />
    <glyph glyph-name="icircumflex" unicode="&#xee;" horiz-adv-x="300" 
d="M16 713l199 149h24l151 -149l-33 -31l-142 106l-176 -106zM45 0l95 600h90l-95 -600h-90z" />
    <glyph glyph-name="idieresis" unicode="&#xef;" horiz-adv-x="300" 
d="M27 780c6 39 40 63 78 63c34 0 59 -19 59 -52c0 -3 0 -7 -1 -11c-6 -39 -40 -63 -78 -63c-34 0 -59 19 -59 52c0 3 0 7 1 11zM265 780c6 39 40 63 78 63c34 0 59 -19 59 -52c0 -3 0 -7 -1 -11c-6 -39 -40 -63 -78 -63c-34 0 -59 19 -59 52c0 3 0 7 1 11zM45 0l95 600h90
l-95 -600h-90z" />
    <glyph glyph-name="eth" unicode="&#xf0;" horiz-adv-x="660" 
d="M447 781l145 35l5 -47l-115 -28c78 -95 112 -205 112 -325c0 -36 -3 -74 -9 -112l-4 -27c-22 -138 -105 -295 -314 -295c-174 0 -227 109 -227 225c0 23 2 47 6 70l5 34c22 142 111 297 297 297c65 0 112 -28 144 -67c-16 66 -46 126 -93 180l-216 -52l-5 47l182 44
c-23 21 -49 42 -78 61l57 47c41 -27 78 -56 108 -87zM504 382c-9 80 -58 159 -156 159c-112 0 -184 -86 -207 -230l-5 -34c-4 -23 -5 -44 -5 -64c0 -102 47 -166 146 -166c119 0 192 92 214 230l4 27c4 27 7 53 9 78z" />
    <glyph glyph-name="ntilde" unicode="&#xf1;" horiz-adv-x="655" 
d="M200 737c28 51 66 120 130 120c50 0 72 -31 91 -52c18 -21 30 -42 49 -42c32 0 61 61 75 87l44 -17c-26 -52 -66 -120 -129 -120c-50 0 -73 31 -92 52c-18 21 -29 42 -48 42c-32 0 -61 -61 -75 -87zM32 0l67 420l17 175l84 8l-11 -165c54 89 140 175 255 175
c99 0 143 -65 143 -150c0 -14 -1 -28 -3 -42l-67 -421h-90l66 418c2 12 3 24 3 34c0 63 -36 89 -85 89c-107 0 -206 -128 -241 -239l-48 -302h-90z" />
    <glyph glyph-name="ograve" unicode="&#xf2;" horiz-adv-x="660" 
d="M253 840l50 62l188 -168l-31 -36zM47 286l5 28c22 142 108 304 316 304c173 0 226 -112 226 -232c0 -24 -2 -48 -6 -72l-5 -28c-22 -142 -108 -304 -316 -304c-173 0 -226 112 -226 232c0 24 2 48 6 72zM278 48c120 0 192 95 215 238l5 28c4 24 6 47 6 68
c0 104 -47 170 -147 170c-120 0 -192 -95 -215 -238l-5 -28c-4 -24 -6 -47 -6 -68c0 -104 47 -170 147 -170z" />
    <glyph glyph-name="oacute" unicode="&#xf3;" horiz-adv-x="660" 
d="M553 840l-251 -142l-21 36l242 168zM47 286l5 28c22 142 108 304 316 304c173 0 226 -112 226 -232c0 -24 -2 -48 -6 -72l-5 -28c-22 -142 -108 -304 -316 -304c-173 0 -226 112 -226 232c0 24 2 48 6 72zM278 48c120 0 192 95 215 238l5 28c4 24 6 47 6 68
c0 104 -47 170 -147 170c-120 0 -192 -95 -215 -238l-5 -28c-4 -24 -6 -47 -6 -68c0 -104 47 -170 147 -170z" />
    <glyph glyph-name="ocircumflex" unicode="&#xf4;" horiz-adv-x="660" 
d="M196 713l199 149h24l151 -149l-33 -31l-142 106l-176 -106zM47 286l5 28c22 142 108 304 316 304c173 0 226 -112 226 -232c0 -24 -2 -48 -6 -72l-5 -28c-22 -142 -108 -304 -316 -304c-173 0 -226 112 -226 232c0 24 2 48 6 72zM278 48c120 0 192 95 215 238l5 28
c4 24 6 47 6 68c0 104 -47 170 -147 170c-120 0 -192 -95 -215 -238l-5 -28c-4 -24 -6 -47 -6 -68c0 -104 47 -170 147 -170z" />
    <glyph glyph-name="otilde" unicode="&#xf5;" horiz-adv-x="660" 
d="M200 737c28 51 66 120 130 120c50 0 72 -31 91 -52c18 -21 30 -42 49 -42c32 0 61 61 75 87l44 -17c-26 -52 -66 -120 -129 -120c-50 0 -73 31 -92 52c-18 21 -29 42 -48 42c-32 0 -61 -61 -75 -87zM47 286l5 28c22 142 108 304 316 304c173 0 226 -112 226 -232
c0 -24 -2 -48 -6 -72l-5 -28c-22 -142 -108 -304 -316 -304c-173 0 -226 112 -226 232c0 24 2 48 6 72zM278 48c120 0 192 95 215 238l5 28c4 24 6 47 6 68c0 104 -47 170 -147 170c-120 0 -192 -95 -215 -238l-5 -28c-4 -24 -6 -47 -6 -68c0 -104 47 -170 147 -170z" />
    <glyph glyph-name="odieresis" unicode="&#xf6;" horiz-adv-x="660" 
d="M207 780c6 39 40 63 78 63c34 0 59 -19 59 -52c0 -3 0 -7 -1 -11c-6 -39 -40 -63 -78 -63c-34 0 -59 19 -59 52c0 3 0 7 1 11zM445 780c6 39 40 63 78 63c34 0 59 -19 59 -52c0 -3 0 -7 -1 -11c-6 -39 -40 -63 -78 -63c-34 0 -59 19 -59 52c0 3 0 7 1 11zM47 286l5 28
c22 142 108 304 316 304c173 0 226 -112 226 -232c0 -24 -2 -48 -6 -72l-5 -28c-22 -142 -108 -304 -316 -304c-173 0 -226 112 -226 232c0 24 2 48 6 72zM278 48c120 0 192 95 215 238l5 28c4 24 6 47 6 68c0 104 -47 170 -147 170c-120 0 -192 -95 -215 -238l-5 -28
c-4 -24 -6 -47 -6 -68c0 -104 47 -170 147 -170z" />
    <glyph glyph-name="divide" unicode="&#xf7;" horiz-adv-x="600" 
d="M89 328l10 64h406l-10 -64h-406zM211 225c6 38 37 61 73 61c33 0 58 -19 58 -51c0 -3 0 -6 -1 -10c-6 -38 -40 -61 -76 -61c-32 0 -55 19 -55 50c0 4 0 7 1 11zM253 495c6 38 38 61 74 61c33 0 57 -18 57 -50c0 -3 0 -7 -1 -11c-6 -38 -39 -61 -75 -61
c-32 0 -56 19 -56 50c0 3 0 7 1 11z" />
    <glyph glyph-name="oslash" unicode="&#xf8;" horiz-adv-x="660" 
d="M47 286l5 28c22 142 108 304 316 304c77 0 131 -22 166 -57l54 57l35 -28l-62 -65c24 -40 33 -89 33 -139c0 -24 -2 -48 -6 -72l-5 -28c-22 -142 -108 -304 -316 -304c-77 0 -131 23 -166 58l-55 -58l-34 28l62 66c-24 40 -33 88 -33 138c0 24 2 48 6 72zM474 498
c-23 35 -63 54 -117 54c-120 0 -192 -95 -215 -238l-5 -28c-4 -24 -6 -47 -6 -69c0 -26 3 -50 9 -71zM494 454l-334 -351c23 -35 63 -55 118 -55c120 0 192 95 215 238l5 28c4 23 6 46 6 66c0 28 -4 52 -10 74z" />
    <glyph glyph-name="ugrave" unicode="&#xf9;" horiz-adv-x="620" 
d="M233 840l50 62l188 -168l-31 -36zM41 184l66 416h90l-66 -416c-1 -9 -2 -19 -2 -27c0 -72 52 -109 129 -109c86 0 155 46 169 136l66 416h90l-66 -416c-18 -115 -124 -202 -270 -202c-132 0 -209 71 -209 170c0 10 1 21 3 32z" />
    <glyph glyph-name="uacute" unicode="&#xfa;" horiz-adv-x="620" 
d="M533 840l-251 -142l-21 36l242 168zM41 184l66 416h90l-66 -416c-1 -9 -2 -19 -2 -27c0 -72 52 -109 129 -109c86 0 155 46 169 136l66 416h90l-66 -416c-18 -115 -124 -202 -270 -202c-132 0 -209 71 -209 170c0 10 1 21 3 32z" />
    <glyph glyph-name="ucircumflex" unicode="&#xfb;" horiz-adv-x="620" 
d="M176 713l199 149h24l151 -149l-33 -31l-142 106l-176 -106zM41 184l66 416h90l-66 -416c-1 -9 -2 -19 -2 -27c0 -72 52 -109 129 -109c86 0 155 46 169 136l66 416h90l-66 -416c-18 -115 -124 -202 -270 -202c-132 0 -209 71 -209 170c0 10 1 21 3 32z" />
    <glyph glyph-name="udieresis" unicode="&#xfc;" horiz-adv-x="620" 
d="M187 780c6 39 40 63 78 63c34 0 59 -19 59 -52c0 -3 0 -7 -1 -11c-6 -39 -40 -63 -78 -63c-34 0 -59 19 -59 52c0 3 0 7 1 11zM425 780c6 39 40 63 78 63c34 0 59 -19 59 -52c0 -3 0 -7 -1 -11c-6 -39 -40 -63 -78 -63c-34 0 -59 19 -59 52c0 3 0 7 1 11zM41 184l66 416
h90l-66 -416c-1 -9 -2 -19 -2 -27c0 -72 52 -109 129 -109c86 0 155 46 169 136l66 416h90l-66 -416c-18 -115 -124 -202 -270 -202c-132 0 -209 71 -209 170c0 10 1 21 3 32z" />
    <glyph glyph-name="yacute" unicode="&#xfd;" horiz-adv-x="600" 
d="M523 840l-251 -142l-21 36l242 168zM55 588l1 5l99 7l100 -497l261 497l96 -7l-1 -5l-348 -617c-51 -84 -114 -199 -221 -199c-50 0 -78 22 -99 42l52 55c15 -16 30 -34 55 -34c48 0 93 69 142 153l9 15z" />
    <glyph glyph-name="thorn" unicode="&#xfe;" horiz-adv-x="675" 
d="M602 312l-3 -24c-22 -142 -112 -301 -298 -301c-85 0 -135 50 -163 109l-48 -306h-90l161 1020h88l-48 -304c47 59 114 107 199 107c156 0 208 -112 208 -231c0 -23 -2 -47 -6 -70zM156 210c9 -78 51 -156 146 -156c112 0 184 90 207 234l3 24c4 25 6 48 6 69
c0 103 -46 165 -139 165c-95 0 -161 -78 -194 -156z" />
    <glyph glyph-name="ydieresis" unicode="&#xff;" horiz-adv-x="600" 
d="M177 780c6 39 40 63 78 63c34 0 59 -19 59 -52c0 -3 0 -7 -1 -11c-6 -39 -40 -63 -78 -63c-34 0 -59 19 -59 52c0 3 0 7 1 11zM415 780c6 39 40 63 78 63c34 0 59 -19 59 -52c0 -3 0 -7 -1 -11c-6 -39 -40 -63 -78 -63c-34 0 -59 19 -59 52c0 3 0 7 1 11zM55 588l1 5
l99 7l100 -497l261 497l96 -7l-1 -5l-348 -617c-51 -84 -114 -199 -221 -199c-50 0 -78 22 -99 42l52 55c15 -16 30 -34 55 -34c48 0 93 69 142 153l9 15z" />
    <glyph glyph-name="Amacron" unicode="&#x100;" horiz-adv-x="750" 
d="M271 900l9 60h374l-9 -60h-374zM667 0h-108l-36 176h-360l-92 -176h-108l1 6l435 774h80l189 -774zM509 244l-88 426l-222 -426h310z" />
    <glyph glyph-name="amacron" unicode="&#x101;" horiz-adv-x="625" 
d="M182 750l9 60h374l-9 -60h-374zM30 172c12 77 86 148 212 148c73 0 143 -6 193 -12l18 114c1 9 2 18 2 26c0 71 -53 104 -128 104c-80 0 -138 -47 -161 -123l-89 6c28 93 117 183 261 183c128 0 205 -67 205 -164c0 -10 -1 -21 -3 -32l-45 -285c-2 -12 -3 -23 -3 -32
c0 -37 17 -53 58 -58l-31 -60c-44 5 -101 27 -103 102c-44 -54 -109 -102 -203 -102c-116 0 -186 56 -186 151c0 11 1 22 3 34zM430 252c-44 6 -112 14 -192 14c-58 0 -110 -34 -120 -95c-1 -9 -2 -18 -2 -26c0 -70 52 -102 116 -102c107 0 165 90 191 167z" />
    <glyph glyph-name="Abreve" unicode="&#x102;" horiz-adv-x="750" 
d="M285 988l60 19c4 -48 26 -102 114 -102s126 54 146 102l54 -19c-29 -68 -93 -141 -210 -141s-157 73 -164 141zM667 0h-108l-36 176h-360l-92 -176h-108l1 6l435 774h80l189 -774zM509 244l-88 426l-222 -426h310z" />
    <glyph glyph-name="abreve" unicode="&#x103;" horiz-adv-x="625" 
d="M196 838l60 19c4 -48 26 -102 114 -102s126 54 146 102l54 -19c-29 -68 -93 -141 -210 -141s-157 73 -164 141zM30 172c12 77 86 148 212 148c73 0 143 -6 193 -12l18 114c1 9 2 18 2 26c0 71 -53 104 -128 104c-80 0 -138 -47 -161 -123l-89 6c28 93 117 183 261 183
c128 0 205 -67 205 -164c0 -10 -1 -21 -3 -32l-45 -285c-2 -12 -3 -23 -3 -32c0 -37 17 -53 58 -58l-31 -60c-44 5 -101 27 -103 102c-44 -54 -109 -102 -203 -102c-116 0 -186 56 -186 151c0 11 1 22 3 34zM430 252c-44 6 -112 14 -192 14c-58 0 -110 -34 -120 -95
c-1 -9 -2 -18 -2 -26c0 -70 52 -102 116 -102c107 0 165 90 191 167z" />
    <glyph glyph-name="Aogonek" unicode="&#x104;" horiz-adv-x="750" 
d="M509 244l-88 426l-222 -426h310zM586 0h-27l-36 176h-360l-92 -176h-108l1 6l435 774h80l189 -774l-1 -6h-26c-32 -32 -60 -75 -70 -135c-1 -7 -2 -12 -2 -18c0 -36 22 -51 51 -51c28 0 53 9 66 16l9 -44c-27 -13 -57 -20 -93 -20c-63 0 -94 35 -94 87c0 7 1 15 2 23
c10 61 41 106 76 142z" />
    <glyph glyph-name="aogonek" unicode="&#x105;" horiz-adv-x="625" 
d="M430 252c-44 6 -112 14 -192 14c-58 0 -110 -34 -120 -95c-1 -9 -2 -18 -2 -26c0 -70 52 -102 116 -102c107 0 165 90 191 167zM30 172c12 77 86 148 212 148c73 0 143 -6 193 -12l18 114c1 9 2 18 2 26c0 71 -53 104 -128 104c-80 0 -138 -47 -161 -123l-89 6
c28 93 117 183 261 183c128 0 205 -67 205 -164c0 -10 -1 -21 -3 -32l-45 -285c-2 -12 -3 -23 -3 -32c0 -37 17 -53 58 -58l-31 -60c-12 1 -25 3 -37 8c-31 -32 -57 -72 -66 -130c-1 -7 -2 -12 -2 -18c0 -36 22 -51 51 -51c28 0 53 9 66 16l9 -44c-27 -13 -57 -20 -93 -20
c-63 0 -94 35 -94 87c0 7 1 15 2 23c11 70 52 120 93 158c-17 16 -32 38 -32 73c-44 -54 -109 -102 -203 -102c-116 0 -186 56 -186 151c0 11 1 22 3 34z" />
    <glyph glyph-name="Cacute" unicode="&#x106;" horiz-adv-x="755" 
d="M657 990l-251 -142l-21 36l242 168zM72 405c30 188 143 392 407 392c194 0 262 -126 263 -206l-100 -10c-2 61 -52 143 -174 143c-168 0 -266 -132 -296 -319l-5 -32c-5 -32 -8 -61 -8 -89c0 -138 63 -230 203 -230c122 0 197 82 219 143l97 -10
c-27 -80 -134 -206 -328 -206c-220 0 -291 142 -291 298c0 31 3 63 8 94z" />
    <glyph glyph-name="cacute" unicode="&#x107;" horiz-adv-x="605" 
d="M553 840l-251 -142l-21 36l242 168zM48 287l5 26c22 142 107 305 316 305c154 0 206 -100 206 -163l-91 -8c-1 46 -40 104 -126 104c-117 0 -190 -95 -213 -238l-5 -26c-4 -24 -6 -47 -6 -68c0 -104 48 -170 145 -170c86 0 143 58 158 104l89 -8
c-20 -63 -104 -163 -258 -163c-174 0 -226 112 -226 232c0 24 2 49 6 73z" />
    <glyph glyph-name="Ccircumflex" unicode="&#x108;" horiz-adv-x="755" 
d="M300 863l199 149h24l151 -149l-33 -31l-142 106l-176 -106zM72 405c30 188 143 392 407 392c194 0 262 -126 263 -206l-100 -10c-2 61 -52 143 -174 143c-168 0 -266 -132 -296 -319l-5 -32c-5 -32 -8 -61 -8 -89c0 -138 63 -230 203 -230c122 0 197 82 219 143l97 -10
c-27 -80 -134 -206 -328 -206c-220 0 -291 142 -291 298c0 31 3 63 8 94z" />
    <glyph glyph-name="ccircumflex" unicode="&#x109;" horiz-adv-x="605" 
d="M196 713l199 149h24l151 -149l-33 -31l-142 106l-176 -106zM48 287l5 26c22 142 107 305 316 305c154 0 206 -100 206 -163l-91 -8c-1 46 -40 104 -126 104c-117 0 -190 -95 -213 -238l-5 -26c-4 -24 -6 -47 -6 -68c0 -104 48 -170 145 -170c86 0 143 58 158 104l89 -8
c-20 -63 -104 -163 -258 -163c-174 0 -226 112 -226 232c0 24 2 49 6 73z" />
    <glyph glyph-name="Cdotaccent" unicode="&#x10a;" horiz-adv-x="755" 
d="M508 998c37 0 63 -21 63 -56c0 -4 0 -8 -1 -12c-7 -42 -42 -68 -83 -68c-37 0 -62 21 -62 55c0 4 0 9 1 13c7 42 41 68 82 68zM72 405c30 188 143 392 407 392c194 0 262 -126 263 -206l-100 -10c-2 61 -52 143 -174 143c-168 0 -266 -132 -296 -319l-5 -32
c-5 -32 -8 -61 -8 -89c0 -138 63 -230 203 -230c122 0 197 82 219 143l97 -10c-27 -80 -134 -206 -328 -206c-220 0 -291 142 -291 298c0 31 3 63 8 94z" />
    <glyph glyph-name="cdotaccent" unicode="&#x10b;" horiz-adv-x="605" 
d="M404 848c37 0 63 -21 63 -56c0 -4 0 -8 -1 -12c-7 -42 -42 -68 -83 -68c-37 0 -62 21 -62 55c0 4 0 9 1 13c7 42 41 68 82 68zM48 287l5 26c22 142 107 305 316 305c154 0 206 -100 206 -163l-91 -8c-1 46 -40 104 -126 104c-117 0 -190 -95 -213 -238l-5 -26
c-4 -24 -6 -47 -6 -68c0 -104 48 -170 145 -170c86 0 143 58 158 104l89 -8c-20 -63 -104 -163 -258 -163c-174 0 -226 112 -226 232c0 24 2 49 6 73z" />
    <glyph glyph-name="Ccaron" unicode="&#x10c;" horiz-adv-x="755" 
d="M694 992l-198 -149h-24l-152 149l33 31l142 -106l176 106zM72 405c30 188 143 392 407 392c194 0 262 -126 263 -206l-100 -10c-2 61 -52 143 -174 143c-168 0 -266 -132 -296 -319l-5 -32c-5 -32 -8 -61 -8 -89c0 -138 63 -230 203 -230c122 0 197 82 219 143l97 -10
c-27 -80 -134 -206 -328 -206c-220 0 -291 142 -291 298c0 31 3 63 8 94z" />
    <glyph glyph-name="ccaron" unicode="&#x10d;" horiz-adv-x="605" 
d="M590 842l-198 -149h-24l-152 149l33 31l142 -106l176 106zM48 287l5 26c22 142 107 305 316 305c154 0 206 -100 206 -163l-91 -8c-1 46 -40 104 -126 104c-117 0 -190 -95 -213 -238l-5 -26c-4 -24 -6 -47 -6 -68c0 -104 48 -170 145 -170c86 0 143 58 158 104l89 -8
c-20 -63 -104 -163 -258 -163c-174 0 -226 112 -226 232c0 24 2 49 6 73z" />
    <glyph glyph-name="Dcaron" unicode="&#x10e;" horiz-adv-x="770" 
d="M604 992l-198 -149h-24l-152 149l33 31l142 -106l176 106zM143 64c30 -1 69 -3 97 -3c234 0 339 134 367 313l5 32c4 26 6 51 6 75c0 140 -74 238 -274 238c-28 0 -68 -2 -98 -3zM162 780c0 0 109 9 193 9c268 0 358 -145 358 -307c0 -25 -2 -51 -6 -76l-5 -32
c-30 -190 -164 -383 -473 -383c-84 0 -191 9 -191 9z" />
    <glyph glyph-name="dcaron" unicode="&#x10f;" horiz-adv-x="890" 
d="M862 710c-10 -5 -22 -7 -34 -7c-32 0 -53 18 -53 47c0 4 0 7 1 11c6 40 34 68 78 68c52 0 69 -35 69 -72c0 -7 -1 -15 -2 -22c-15 -95 -91 -154 -146 -176l-18 32c39 16 87 58 105 119zM48 288l3 24c22 142 112 301 298 301c88 0 138 -52 165 -113l49 310h87l-106 -673
c-2 -12 -3 -23 -3 -32c0 -37 17 -53 58 -58l-31 -60c-44 6 -105 28 -105 107c0 6 0 13 1 20c-49 -67 -120 -127 -214 -127c-156 0 -208 112 -208 231c0 23 2 47 6 70zM495 378c-6 82 -47 168 -147 168c-112 0 -184 -90 -207 -234l-3 -24c-4 -25 -6 -48 -6 -69
c0 -103 46 -165 139 -165c100 0 167 86 199 168z" />
    <glyph glyph-name="Dcroat" unicode="&#x110;" horiz-adv-x="770" 
d="M10 363l9 54h85l58 363s109 9 193 9c268 0 358 -145 358 -307c0 -25 -2 -51 -6 -76l-5 -32c-30 -190 -164 -383 -473 -383c-84 0 -191 9 -191 9l57 363h-85zM143 64c30 -1 69 -3 97 -3c234 0 339 134 367 313l5 32c4 26 6 51 6 75c0 140 -74 238 -274 238
c-28 0 -68 -2 -98 -3l-47 -299h210l-9 -54h-210z" />
    <glyph glyph-name="dcroat" unicode="&#x111;" horiz-adv-x="680" 
d="M372 693l8 54h173l10 63h87l-10 -63h70l-8 -54h-70l-88 -556c-2 -12 -3 -23 -3 -32c0 -37 17 -53 58 -58l-31 -60c-44 6 -105 28 -105 107c0 6 0 13 1 20c-49 -67 -120 -127 -214 -127c-156 0 -208 112 -208 231c0 23 2 47 6 70l3 24c22 142 112 301 298 301
c88 0 138 -52 165 -113l31 193h-173zM495 378c-6 82 -47 168 -147 168c-112 0 -184 -90 -207 -234l-3 -24c-4 -25 -6 -48 -6 -69c0 -103 46 -165 139 -165c100 0 167 86 199 168z" />
    <glyph glyph-name="Emacron" unicode="&#x112;" horiz-adv-x="675" 
d="M246 900l9 60h374l-9 -60h-374zM38 0l124 780h500l-12 -74h-404l-45 -286h370l-12 -70h-370l-43 -276h419l-12 -74h-515z" />
    <glyph glyph-name="emacron" unicode="&#x113;" horiz-adv-x="640" 
d="M202 750l9 60h374l-9 -60h-374zM48 286l5 28c22 142 109 304 312 304c146 0 214 -94 214 -208c0 -16 -1 -32 -4 -48c-4 -25 -10 -51 -19 -76h-420c-4 -25 -6 -47 -6 -69c0 -103 45 -170 144 -170c90 0 148 60 163 106l86 -8c-21 -64 -107 -163 -259 -163
c-171 0 -222 111 -222 230c0 25 2 50 6 74zM146 344h341c1 7 2 13 3 19c3 17 4 32 4 47c0 94 -54 144 -139 144c-110 0 -181 -84 -209 -210z" />
    <glyph glyph-name="Ebreve" unicode="&#x114;" horiz-adv-x="675" 
d="M260 988l60 19c4 -48 26 -102 114 -102s126 54 146 102l54 -19c-29 -68 -93 -141 -210 -141s-157 73 -164 141zM38 0l124 780h500l-12 -74h-404l-45 -286h370l-12 -70h-370l-43 -276h419l-12 -74h-515z" />
    <glyph glyph-name="ebreve" unicode="&#x115;" horiz-adv-x="640" 
d="M216 838l60 19c4 -48 26 -102 114 -102s126 54 146 102l54 -19c-29 -68 -93 -141 -210 -141s-157 73 -164 141zM48 286l5 28c22 142 109 304 312 304c146 0 214 -94 214 -208c0 -16 -1 -32 -4 -48c-4 -25 -10 -51 -19 -76h-420c-4 -25 -6 -47 -6 -69
c0 -103 45 -170 144 -170c90 0 148 60 163 106l86 -8c-21 -64 -107 -163 -259 -163c-171 0 -222 111 -222 230c0 25 2 50 6 74zM146 344h341c1 7 2 13 3 19c3 17 4 32 4 47c0 94 -54 144 -139 144c-110 0 -181 -84 -209 -210z" />
    <glyph glyph-name="Edotaccent" unicode="&#x116;" horiz-adv-x="675" 
d="M448 998c37 0 63 -21 63 -56c0 -4 0 -8 -1 -12c-7 -42 -42 -68 -83 -68c-37 0 -62 21 -62 55c0 4 0 9 1 13c7 42 41 68 82 68zM38 0l124 780h500l-12 -74h-404l-45 -286h370l-12 -70h-370l-43 -276h419l-12 -74h-515z" />
    <glyph glyph-name="edotaccent" unicode="&#x117;" horiz-adv-x="640" 
d="M404 848c37 0 63 -21 63 -56c0 -4 0 -8 -1 -12c-7 -42 -42 -68 -83 -68c-37 0 -62 21 -62 55c0 4 0 9 1 13c7 42 41 68 82 68zM48 286l5 28c22 142 109 304 312 304c146 0 214 -94 214 -208c0 -16 -1 -32 -4 -48c-4 -25 -10 -51 -19 -76h-420c-4 -25 -6 -47 -6 -69
c0 -103 45 -170 144 -170c90 0 148 60 163 106l86 -8c-21 -64 -107 -163 -259 -163c-171 0 -222 111 -222 230c0 25 2 50 6 74zM146 344h341c1 7 2 13 3 19c3 17 4 32 4 47c0 94 -54 144 -139 144c-110 0 -181 -84 -209 -210z" />
    <glyph glyph-name="Eogonek" unicode="&#x118;" horiz-adv-x="675" 
d="M38 0l124 780h500l-12 -74h-404l-45 -286h370l-12 -70h-370l-43 -276h419l-12 -74h-37c-32 -32 -60 -75 -70 -135c-1 -7 -2 -12 -2 -18c0 -36 22 -51 51 -51c28 0 53 9 66 16l9 -44c-27 -13 -57 -20 -93 -20c-63 0 -94 35 -94 87c0 7 1 15 2 23c10 61 41 106 76 142h-423
z" />
    <glyph glyph-name="eogonek" unicode="&#x119;" horiz-adv-x="640" 
d="M146 344h341c1 7 2 13 3 19c3 17 4 32 4 47c0 94 -54 144 -139 144c-110 0 -181 -84 -209 -210zM48 286l5 28c22 142 109 304 312 304c146 0 214 -94 214 -208c0 -16 -1 -32 -4 -48c-4 -25 -10 -51 -19 -76h-420c-4 -25 -6 -47 -6 -69c0 -103 45 -170 144 -170
c90 0 148 60 163 106l86 -8c-14 -44 -60 -103 -134 -137c-35 -34 -68 -78 -78 -143c-1 -7 -2 -12 -2 -18c0 -36 22 -51 51 -51c28 0 53 9 66 16l9 -44c-27 -13 -57 -20 -93 -20c-63 0 -94 35 -94 87c0 7 1 15 2 23c8 53 34 95 63 128c-15 -2 -32 -4 -49 -4
c-171 0 -222 111 -222 230c0 25 2 50 6 74z" />
    <glyph glyph-name="Ecaron" unicode="&#x11a;" horiz-adv-x="675" 
d="M634 992l-198 -149h-24l-152 149l33 31l142 -106l176 106zM38 0l124 780h500l-12 -74h-404l-45 -286h370l-12 -70h-370l-43 -276h419l-12 -74h-515z" />
    <glyph glyph-name="ecaron" unicode="&#x11b;" horiz-adv-x="640" 
d="M590 842l-198 -149h-24l-152 149l33 31l142 -106l176 106zM48 286l5 28c22 142 109 304 312 304c146 0 214 -94 214 -208c0 -16 -1 -32 -4 -48c-4 -25 -10 -51 -19 -76h-420c-4 -25 -6 -47 -6 -69c0 -103 45 -170 144 -170c90 0 148 60 163 106l86 -8
c-21 -64 -107 -163 -259 -163c-171 0 -222 111 -222 230c0 25 2 50 6 74zM146 344h341c1 7 2 13 3 19c3 17 4 32 4 47c0 94 -54 144 -139 144c-110 0 -181 -84 -209 -210z" />
    <glyph glyph-name="Gcircumflex" unicode="&#x11c;" horiz-adv-x="770" 
d="M300 863l199 149h24l151 -149l-33 -31l-142 106l-176 -106zM411 311l11 68h281l-38 -241c-40 -64 -143 -156 -315 -156c-220 0 -291 141 -291 297c0 31 3 63 8 94l5 34c30 188 143 391 407 391c194 0 262 -126 263 -206l-99 -9c-2 61 -51 143 -175 143
c-170 0 -268 -130 -298 -319l-5 -34c-5 -32 -8 -62 -8 -90c0 -139 64 -229 205 -229c118 0 182 49 217 93l26 164h-194z" />
    <glyph glyph-name="gcircumflex" unicode="&#x11d;" horiz-adv-x="670" 
d="M226 713l199 149h24l151 -149l-33 -31l-142 106l-176 -106zM52 315c22 136 111 298 297 298c90 0 140 -56 167 -120l24 107h77l-100 -631c-18 -115 -123 -197 -265 -197c-140 0 -205 69 -213 115l88 23c5 -28 43 -75 135 -75c88 0 156 44 170 134l27 167
c-47 -64 -115 -119 -204 -119c-156 0 -209 114 -209 231c0 23 2 45 6 67zM494 375c-6 82 -45 172 -145 172c-112 0 -185 -94 -207 -232c-4 -23 -6 -45 -6 -66c0 -101 46 -166 139 -166c100 0 168 90 200 172z" />
    <glyph glyph-name="Gbreve" unicode="&#x11e;" horiz-adv-x="770" 
d="M320 988l60 19c4 -48 26 -102 114 -102s126 54 146 102l54 -19c-29 -68 -93 -141 -210 -141s-157 73 -164 141zM411 311l11 68h281l-38 -241c-40 -64 -143 -156 -315 -156c-220 0 -291 141 -291 297c0 31 3 63 8 94l5 34c30 188 143 391 407 391c194 0 262 -126 263 -206
l-99 -9c-2 61 -51 143 -175 143c-170 0 -268 -130 -298 -319l-5 -34c-5 -32 -8 -62 -8 -90c0 -139 64 -229 205 -229c118 0 182 49 217 93l26 164h-194z" />
    <glyph glyph-name="gbreve" unicode="&#x11f;" horiz-adv-x="670" 
d="M246 838l60 19c4 -48 26 -102 114 -102s126 54 146 102l54 -19c-29 -68 -93 -141 -210 -141s-157 73 -164 141zM52 315c22 136 111 298 297 298c90 0 140 -56 167 -120l24 107h77l-100 -631c-18 -115 -123 -197 -265 -197c-140 0 -205 69 -213 115l88 23
c5 -28 43 -75 135 -75c88 0 156 44 170 134l27 167c-47 -64 -115 -119 -204 -119c-156 0 -209 114 -209 231c0 23 2 45 6 67zM494 375c-6 82 -45 172 -145 172c-112 0 -185 -94 -207 -232c-4 -23 -6 -45 -6 -66c0 -101 46 -166 139 -166c100 0 168 90 200 172z" />
    <glyph glyph-name="Gdotaccent" unicode="&#x120;" horiz-adv-x="770" 
d="M508 998c37 0 63 -21 63 -56c0 -4 0 -8 -1 -12c-7 -42 -42 -68 -83 -68c-37 0 -62 21 -62 55c0 4 0 9 1 13c7 42 41 68 82 68zM411 311l11 68h281l-38 -241c-40 -64 -143 -156 -315 -156c-220 0 -291 141 -291 297c0 31 3 63 8 94l5 34c30 188 143 391 407 391
c194 0 262 -126 263 -206l-99 -9c-2 61 -51 143 -175 143c-170 0 -268 -130 -298 -319l-5 -34c-5 -32 -8 -62 -8 -90c0 -139 64 -229 205 -229c118 0 182 49 217 93l26 164h-194z" />
    <glyph glyph-name="gdotaccent" unicode="&#x121;" horiz-adv-x="670" 
d="M434 848c37 0 63 -21 63 -56c0 -4 0 -8 -1 -12c-7 -42 -42 -68 -83 -68c-37 0 -62 21 -62 55c0 4 0 9 1 13c7 42 41 68 82 68zM52 315c22 136 111 298 297 298c90 0 140 -56 167 -120l24 107h77l-100 -631c-18 -115 -123 -197 -265 -197c-140 0 -205 69 -213 115l88 23
c5 -28 43 -75 135 -75c88 0 156 44 170 134l27 167c-47 -64 -115 -119 -204 -119c-156 0 -209 114 -209 231c0 23 2 45 6 67zM494 375c-6 82 -45 172 -145 172c-112 0 -185 -94 -207 -232c-4 -23 -6 -45 -6 -66c0 -101 46 -166 139 -166c100 0 168 90 200 172z" />
    <glyph glyph-name="uni0122" unicode="&#x122;" horiz-adv-x="770" 
d="M335 -190c-10 -5 -22 -7 -34 -7c-32 0 -54 18 -54 47c0 4 0 7 1 11c6 40 35 68 79 68c52 0 69 -35 69 -72c0 -7 -1 -15 -2 -22c-15 -95 -92 -154 -147 -176l-18 32c39 16 88 58 106 119zM411 311l11 68h281l-38 -241c-40 -64 -143 -156 -315 -156
c-220 0 -291 141 -291 297c0 31 3 63 8 94l5 34c30 188 143 391 407 391c194 0 262 -126 263 -206l-99 -9c-2 61 -51 143 -175 143c-170 0 -268 -130 -298 -319l-5 -34c-5 -32 -8 -62 -8 -90c0 -139 64 -229 205 -229c118 0 182 49 217 93l26 164h-194z" />
    <glyph glyph-name="uni0123" unicode="&#x123;" horiz-adv-x="670" 
d="M415 820c10 5 22 7 34 7c32 0 54 -18 54 -47c0 -4 0 -7 -1 -11c-6 -40 -35 -68 -79 -68c-52 0 -69 35 -69 72c0 7 1 15 2 22c15 95 92 154 147 176l18 -32c-39 -16 -88 -58 -106 -119zM52 315c22 136 111 298 297 298c90 0 140 -56 167 -120l24 107h77l-100 -631
c-18 -115 -123 -197 -265 -197c-140 0 -205 69 -213 115l88 23c5 -28 43 -75 135 -75c88 0 156 44 170 134l27 167c-47 -64 -115 -119 -204 -119c-156 0 -209 114 -209 231c0 23 2 45 6 67zM494 375c-6 82 -45 172 -145 172c-112 0 -185 -94 -207 -232c-4 -23 -6 -45 -6 -66
c0 -101 46 -166 139 -166c100 0 168 90 200 172z" />
    <glyph glyph-name="Hcircumflex" unicode="&#x124;" horiz-adv-x="790" 
d="M285 863l199 149h24l151 -149l-33 -31l-142 106l-176 -106zM37 0l124 780h96l-56 -353h404l56 353h96l-124 -780h-96l56 353h-404l-56 -353h-96z" />
    <glyph glyph-name="hcircumflex" unicode="&#x125;" horiz-adv-x="665" 
d="M30 893l199 149h24l151 -149l-33 -31l-142 106l-176 -106zM33 0l128 810h88l-59 -377c56 91 145 180 263 180c102 0 145 -65 145 -150c0 -14 -1 -28 -3 -42l-67 -421h-90l66 418c2 12 3 23 3 33c0 64 -36 90 -88 90c-109 0 -213 -129 -248 -240l-48 -301h-90z" />
    <glyph glyph-name="Hbar" unicode="&#x126;" horiz-adv-x="790" 
d="M67 633l9 54h70l15 93h96l-15 -93h404l15 93h96l-15 -93h70l-9 -54h-70l-100 -633h-96l56 353h-404l-56 -353h-96l100 633h-70zM637 633h-404l-32 -206h404z" />
    <glyph glyph-name="hbar" unicode="&#x127;" horiz-adv-x="665" 
d="M73 693l8 54h70l10 63h88l-10 -63h172l-8 -54h-172l-41 -260c56 91 145 180 263 180c102 0 145 -65 145 -150c0 -14 -1 -28 -3 -42l-67 -421h-90l66 418c2 12 3 23 3 33c0 64 -36 90 -88 90c-109 0 -213 -129 -248 -240l-48 -301h-90l110 693h-70z" />
    <glyph glyph-name="Itilde" unicode="&#x128;" horiz-adv-x="320" 
d="M54 887c28 51 66 120 130 120c50 0 72 -31 91 -52c18 -21 30 -42 49 -42c32 0 61 61 75 87l44 -17c-26 -52 -66 -120 -129 -120c-50 0 -73 31 -92 52c-18 21 -29 42 -48 42c-32 0 -61 -61 -75 -87zM52 0l124 780h96l-124 -780h-96z" />
    <glyph glyph-name="itilde" unicode="&#x129;" horiz-adv-x="300" 
d="M20 737c28 51 66 120 130 120c50 0 72 -31 91 -52c18 -21 30 -42 49 -42c32 0 61 61 75 87l44 -17c-26 -52 -66 -120 -129 -120c-50 0 -73 31 -92 52c-18 21 -29 42 -48 42c-32 0 -61 -61 -75 -87zM45 0l95 600h90l-95 -600h-90z" />
    <glyph glyph-name="Imacron" unicode="&#x12a;" horiz-adv-x="320" 
d="M56 900l9 60h374l-9 -60h-374zM52 0l124 780h96l-124 -780h-96z" />
    <glyph glyph-name="imacron" unicode="&#x12b;" horiz-adv-x="300" 
d="M22 750l9 60h374l-9 -60h-374zM45 0l95 600h90l-95 -600h-90z" />
    <glyph glyph-name="Ibreve" unicode="&#x12c;" horiz-adv-x="320" 
d="M70 988l60 19c4 -48 26 -102 114 -102s126 54 146 102l54 -19c-29 -68 -93 -141 -210 -141s-157 73 -164 141zM52 0l124 780h96l-124 -780h-96z" />
    <glyph glyph-name="ibreve" unicode="&#x12d;" horiz-adv-x="300" 
d="M36 838l60 19c4 -48 26 -102 114 -102s126 54 146 102l54 -19c-29 -68 -93 -141 -210 -141s-157 73 -164 141zM45 0l95 600h90l-95 -600h-90z" />
    <glyph glyph-name="Iogonek" unicode="&#x12e;" horiz-adv-x="320" 
d="M52 0l124 780h96l-124 -780h-12c-32 -32 -60 -75 -70 -135c-1 -7 -2 -12 -2 -18c0 -36 22 -51 51 -51c28 0 53 9 66 16l9 -44c-27 -13 -57 -20 -93 -20c-63 0 -94 35 -94 87c0 7 1 15 2 23c10 61 41 106 76 142h-29z" />
    <glyph glyph-name="iogonek" unicode="&#x12f;" horiz-adv-x="300" 
d="M224 848c37 0 63 -21 63 -56c0 -4 0 -8 -1 -12c-7 -42 -42 -68 -83 -68c-37 0 -62 21 -62 55c0 4 0 9 1 13c7 42 41 68 82 68zM45 0l95 600h90l-95 -600h-9c-32 -32 -60 -75 -70 -135c-1 -7 -2 -12 -2 -18c0 -36 22 -51 51 -51c28 0 53 9 66 16l9 -44
c-27 -13 -57 -20 -93 -20c-63 0 -94 35 -94 87c0 7 1 15 2 23c10 61 41 106 76 142h-26z" />
    <glyph glyph-name="Idotaccent" unicode="&#x130;" horiz-adv-x="320" 
d="M52 0l124 780h96l-124 -780h-96zM258 998c37 0 62 -21 62 -55c0 -4 0 -9 -1 -13c-7 -42 -41 -68 -82 -68c-37 0 -63 21 -63 56c0 4 0 8 1 12c7 42 42 68 83 68z" />
    <glyph glyph-name="dotlessi" unicode="&#x131;" horiz-adv-x="300" 
d="M45 0l95 600h90l-95 -600h-90z" />
    <glyph glyph-name="Jcircumflex" unicode="&#x134;" horiz-adv-x="520" 
d="M250 863l199 149h24l151 -149l-33 -31l-142 106l-176 -106zM-10 136l97 7c0 -58 31 -90 87 -90s107 31 119 109l98 619h96l-98 -619c-16 -99 -101 -179 -226 -179c-123 0 -173 78 -173 151v2z" />
    <glyph glyph-name="jcircumflex" unicode="&#x135;" horiz-adv-x="310" 
d="M26 713l199 149h24l151 -149l-33 -31l-142 106l-176 -106zM-85 -164c73 24 125 62 138 145l98 619h90l-99 -624c-17 -109 -110 -171 -208 -199z" />
    <glyph glyph-name="uni0136" unicode="&#x136;" horiz-adv-x="715" 
d="M285 -190c-10 -5 -22 -7 -34 -7c-32 0 -54 18 -54 47c0 4 0 7 1 11c6 40 35 68 79 68c52 0 69 -35 69 -72c0 -7 -1 -15 -2 -22c-15 -95 -92 -154 -147 -176l-18 32c39 16 88 58 106 119zM37 0l124 780h92l-64 -402l423 402l104 -8v-4l-349 -316l276 -447l-1 -5h-113
l-234 388l-122 -112l-44 -276h-92z" />
    <glyph glyph-name="uni0137" unicode="&#x137;" horiz-adv-x="605" 
d="M285 -190c-10 -5 -22 -7 -34 -7c-32 0 -54 18 -54 47c0 4 0 7 1 11c6 40 35 68 79 68c52 0 69 -35 69 -72c0 -7 -1 -15 -2 -22c-15 -95 -92 -154 -147 -176l-18 32c39 16 88 58 106 119zM42 0l128 810h86l-80 -505l318 295l97 -6l-1 -4l-275 -245l218 -341l-1 -4h-104
l-180 287l-87 -78l-33 -209h-86z" />
    <glyph glyph-name="kgreenlandic" unicode="&#x138;" horiz-adv-x="610" 
d="M42 0l95 600h86l-47 -295l318 295l97 -6l-1 -4l-275 -245l218 -341l-1 -4h-104l-180 287l-87 -78l-33 -209h-86z" />
    <glyph glyph-name="Lacute" unicode="&#x139;" horiz-adv-x="570" 
d="M407 990l-251 -142l-21 36l242 168zM38 0l124 780h96l-112 -706h344l-12 -74h-440z" />
    <glyph glyph-name="lacute" unicode="&#x13a;" horiz-adv-x="315" 
d="M392 1020l-251 -142l-21 36l242 168zM59 122l109 688h90l-107 -680c-1 -6 -2 -12 -2 -17c0 -46 38 -61 98 -66l-27 -60c-71 6 -163 25 -163 112c0 7 1 15 2 23z" />
    <glyph glyph-name="uni013B" unicode="&#x13b;" horiz-adv-x="570" 
d="M245 -190c-10 -5 -22 -7 -34 -7c-32 0 -54 18 -54 47c0 4 0 7 1 11c6 40 35 68 79 68c52 0 69 -35 69 -72c0 -7 -1 -15 -2 -22c-15 -95 -92 -154 -147 -176l-18 32c39 16 88 58 106 119zM38 0l124 780h96l-112 -706h344l-12 -74h-440z" />
    <glyph glyph-name="uni013C" unicode="&#x13c;" horiz-adv-x="315" 
d="M115 -190c-10 -5 -22 -7 -34 -7c-32 0 -54 18 -54 47c0 4 0 7 1 11c6 40 35 68 79 68c52 0 69 -35 69 -72c0 -7 -1 -15 -2 -22c-15 -95 -92 -154 -147 -176l-18 32c39 16 88 58 106 119zM59 122l109 688h90l-107 -680c-1 -6 -2 -12 -2 -17c0 -46 38 -61 98 -66l-27 -60
c-71 6 -163 25 -163 112c0 7 1 15 2 23z" />
    <glyph glyph-name="Lcaron" unicode="&#x13d;" horiz-adv-x="570" 
d="M38 0l124 780h96l-112 -706h344l-12 -74h-440zM512 710c-10 -5 -22 -7 -34 -7c-32 0 -53 18 -53 47c0 4 0 7 1 11c6 40 34 68 78 68c52 0 69 -35 69 -72c0 -7 -1 -15 -2 -22c-15 -95 -91 -154 -146 -176l-18 32c39 16 87 58 105 119z" />
    <glyph glyph-name="lcaron" unicode="&#x13e;" horiz-adv-x="525" 
d="M59 122l109 688h90l-107 -680c-1 -6 -2 -12 -2 -17c0 -46 38 -61 98 -66l-27 -60c-71 6 -163 25 -163 112c0 7 1 15 2 23zM497 710c-10 -5 -22 -7 -34 -7c-32 0 -53 18 -53 47c0 4 0 7 1 11c6 40 34 68 78 68c52 0 69 -35 69 -72c0 -7 -1 -15 -2 -22
c-15 -95 -91 -154 -146 -176l-18 32c39 16 87 58 105 119z" />
    <glyph glyph-name="Ldot" unicode="&#x13f;" horiz-adv-x="570" 
d="M38 0l124 780h96l-112 -706h344l-12 -74h-440zM443 428c37 0 62 -21 62 -55c0 -4 0 -9 -1 -13c-7 -42 -42 -68 -83 -68c-37 0 -62 21 -62 55c0 4 0 9 1 13c7 42 42 68 83 68z" />
    <glyph glyph-name="ldot" unicode="&#x140;" horiz-adv-x="510" 
d="M59 122l109 688h90l-107 -680c-1 -6 -2 -12 -2 -17c0 -46 38 -61 98 -66l-27 -60c-71 6 -163 25 -163 112c0 7 1 15 2 23zM393 428c37 0 62 -21 62 -55c0 -4 0 -9 -1 -13c-7 -42 -42 -68 -83 -68c-37 0 -62 21 -62 55c0 4 0 9 1 13c7 42 42 68 83 68z" />
    <glyph glyph-name="Lslash" unicode="&#x141;" horiz-adv-x="580" 
d="M213 436l157 92l-3 -60l-164 -97l-47 -297h344l-12 -74h-440l49 309l-97 -57l2 60l105 62l65 406h96z" />
    <glyph glyph-name="lslash" unicode="&#x142;" horiz-adv-x="360" 
d="M208 432l164 96l-3 -60l-171 -101l-37 -237c-1 -6 -2 -12 -2 -17c0 -46 38 -61 98 -66l-27 -60c-71 6 -163 25 -163 112c0 7 1 15 2 23l30 187l-97 -57l2 60l105 62l69 436h90z" />
    <glyph glyph-name="Nacute" unicode="&#x143;" horiz-adv-x="790" 
d="M642 990l-251 -142l-21 36l242 168zM38 0l122 771l84 9l319 -628l100 628h93l-124 -780h-82l-320 628l-99 -628h-93z" />
    <glyph glyph-name="nacute" unicode="&#x144;" horiz-adv-x="655" 
d="M553 840l-251 -142l-21 36l242 168zM32 0l67 420l17 175l84 8l-11 -165c54 89 140 175 255 175c99 0 143 -65 143 -150c0 -14 -1 -28 -3 -42l-67 -421h-90l66 418c2 12 3 24 3 34c0 63 -36 89 -85 89c-107 0 -206 -128 -241 -239l-48 -302h-90z" />
    <glyph glyph-name="uni0145" unicode="&#x145;" horiz-adv-x="790" 
d="M320 -190c-10 -5 -22 -7 -34 -7c-32 0 -54 18 -54 47c0 4 0 7 1 11c6 40 35 68 79 68c52 0 69 -35 69 -72c0 -7 -1 -15 -2 -22c-15 -95 -92 -154 -147 -176l-18 32c39 16 88 58 106 119zM38 0l122 771l84 9l319 -628l100 628h93l-124 -780h-82l-320 628l-99 -628h-93z
" />
    <glyph glyph-name="uni0146" unicode="&#x146;" horiz-adv-x="655" 
d="M285 -190c-10 -5 -22 -7 -34 -7c-32 0 -54 18 -54 47c0 4 0 7 1 11c6 40 35 68 79 68c52 0 69 -35 69 -72c0 -7 -1 -15 -2 -22c-15 -95 -92 -154 -147 -176l-18 32c39 16 88 58 106 119zM32 0l67 420l17 175l84 8l-11 -165c54 89 140 175 255 175c99 0 143 -65 143 -150
c0 -14 -1 -28 -3 -42l-67 -421h-90l66 418c2 12 3 24 3 34c0 63 -36 89 -85 89c-107 0 -206 -128 -241 -239l-48 -302h-90z" />
    <glyph glyph-name="Ncaron" unicode="&#x147;" horiz-adv-x="790" 
d="M679 992l-198 -149h-24l-152 149l33 31l142 -106l176 106zM38 0l122 771l84 9l319 -628l100 628h93l-124 -780h-82l-320 628l-99 -628h-93z" />
    <glyph glyph-name="ncaron" unicode="&#x148;" horiz-adv-x="655" 
d="M590 842l-198 -149h-24l-152 149l33 31l142 -106l176 106zM32 0l67 420l17 175l84 8l-11 -165c54 89 140 175 255 175c99 0 143 -65 143 -150c0 -14 -1 -28 -3 -42l-67 -421h-90l66 418c2 12 3 24 3 34c0 63 -36 89 -85 89c-107 0 -206 -128 -241 -239l-48 -302h-90z" />
    <glyph glyph-name="napostrophe" unicode="&#x149;" horiz-adv-x="865" 
d="M99 803c6 41 39 70 83 70c52 0 73 -37 73 -82c0 -8 -1 -17 -2 -26c-16 -104 -96 -177 -167 -220l-22 39c54 33 103 84 122 157c-8 -3 -17 -4 -27 -4c-36 0 -61 21 -61 55c0 4 0 7 1 11zM242 0l67 420l17 175l84 8l-11 -165c54 89 140 175 255 175c99 0 143 -65 143 -150
c0 -14 -1 -28 -3 -42l-67 -421h-90l66 418c2 12 3 24 3 34c0 63 -36 89 -85 89c-107 0 -206 -128 -241 -239l-48 -302h-90z" />
    <glyph glyph-name="Omacron" unicode="&#x14c;" horiz-adv-x="820" 
d="M306 900l9 60h374l-9 -60h-374zM67 372l6 36c29 186 140 390 403 390c219 0 289 -142 289 -297c0 -31 -3 -62 -8 -93l-6 -36c-29 -186 -141 -390 -404 -390c-219 0 -288 141 -288 296c0 31 3 63 8 94zM359 54c169 0 265 132 294 318l6 36c5 31 7 61 7 89
c0 137 -61 229 -201 229c-169 0 -265 -132 -294 -318l-6 -36c-5 -31 -7 -61 -7 -89c0 -137 61 -229 201 -229z" />
    <glyph glyph-name="omacron" unicode="&#x14d;" horiz-adv-x="660" 
d="M202 750l9 60h374l-9 -60h-374zM47 286l5 28c22 142 108 304 316 304c173 0 226 -112 226 -232c0 -24 -2 -48 -6 -72l-5 -28c-22 -142 -108 -304 -316 -304c-173 0 -226 112 -226 232c0 24 2 48 6 72zM278 48c120 0 192 95 215 238l5 28c4 24 6 47 6 68
c0 104 -47 170 -147 170c-120 0 -192 -95 -215 -238l-5 -28c-4 -24 -6 -47 -6 -68c0 -104 47 -170 147 -170z" />
    <glyph glyph-name="Obreve" unicode="&#x14e;" horiz-adv-x="820" 
d="M320 988l60 19c4 -48 26 -102 114 -102s126 54 146 102l54 -19c-29 -68 -93 -141 -210 -141s-157 73 -164 141zM67 372l6 36c29 186 140 390 403 390c219 0 289 -142 289 -297c0 -31 -3 -62 -8 -93l-6 -36c-29 -186 -141 -390 -404 -390c-219 0 -288 141 -288 296
c0 31 3 63 8 94zM359 54c169 0 265 132 294 318l6 36c5 31 7 61 7 89c0 137 -61 229 -201 229c-169 0 -265 -132 -294 -318l-6 -36c-5 -31 -7 -61 -7 -89c0 -137 61 -229 201 -229z" />
    <glyph glyph-name="obreve" unicode="&#x14f;" horiz-adv-x="660" 
d="M216 838l60 19c4 -48 26 -102 114 -102s126 54 146 102l54 -19c-29 -68 -93 -141 -210 -141s-157 73 -164 141zM47 286l5 28c22 142 108 304 316 304c173 0 226 -112 226 -232c0 -24 -2 -48 -6 -72l-5 -28c-22 -142 -108 -304 -316 -304c-173 0 -226 112 -226 232
c0 24 2 48 6 72zM278 48c120 0 192 95 215 238l5 28c4 24 6 47 6 68c0 104 -47 170 -147 170c-120 0 -192 -95 -215 -238l-5 -28c-4 -24 -6 -47 -6 -68c0 -104 47 -170 147 -170z" />
    <glyph glyph-name="Ohungarumlaut" unicode="&#x150;" horiz-adv-x="820" 
d="M331 873l146 189l50 -40l-166 -174zM534 873l146 189l49 -40l-165 -174zM67 372l6 36c29 186 140 390 403 390c219 0 289 -142 289 -297c0 -31 -3 -62 -8 -93l-6 -36c-29 -186 -141 -390 -404 -390c-219 0 -288 141 -288 296c0 31 3 63 8 94zM359 54
c169 0 265 132 294 318l6 36c5 31 7 61 7 89c0 137 -61 229 -201 229c-169 0 -265 -132 -294 -318l-6 -36c-5 -31 -7 -61 -7 -89c0 -137 61 -229 201 -229z" />
    <glyph glyph-name="ohungarumlaut" unicode="&#x151;" horiz-adv-x="660" 
d="M227 723l146 189l50 -40l-166 -174zM430 723l146 189l49 -40l-165 -174zM47 286l5 28c22 142 108 304 316 304c173 0 226 -112 226 -232c0 -24 -2 -48 -6 -72l-5 -28c-22 -142 -108 -304 -316 -304c-173 0 -226 112 -226 232c0 24 2 48 6 72zM278 48
c120 0 192 95 215 238l5 28c4 24 6 47 6 68c0 104 -47 170 -147 170c-120 0 -192 -95 -215 -238l-5 -28c-4 -24 -6 -47 -6 -68c0 -104 47 -170 147 -170z" />
    <glyph glyph-name="OE" unicode="&#x152;" horiz-adv-x="980" 
d="M67 372l6 36c29 186 140 390 403 390c48 0 90 -6 124 -18h367l-12 -74h-344l-45 -286h310l-12 -70h-310l-43 -276h359l-12 -74h-382c-38 -12 -81 -18 -129 -18c-219 0 -288 141 -288 296c0 31 3 63 8 94zM517 720c-15 4 -33 6 -52 6c-169 0 -265 -132 -294 -318l-6 -36
c-5 -31 -7 -61 -7 -89c0 -137 61 -229 201 -229c19 0 37 2 54 6z" />
    <glyph glyph-name="oe" unicode="&#x153;" horiz-adv-x="960" 
d="M48 286l5 28c22 138 94 304 278 304c96 0 142 -46 163 -111c45 65 113 111 208 111c136 0 198 -89 198 -201c0 -18 -2 -36 -5 -55c-4 -24 -12 -51 -20 -75l1 -1h-1h-379c-5 -28 -7 -55 -7 -79c0 -99 39 -161 122 -161c84 0 134 61 149 107l87 -8
c-20 -64 -106 -163 -246 -163c-96 0 -147 46 -172 111c-41 -64 -104 -111 -199 -111c-147 0 -189 105 -189 218c0 29 3 58 7 86zM320 552c-92 0 -154 -92 -177 -238l-5 -28c-5 -29 -7 -56 -7 -81c0 -98 37 -157 110 -157c90 0 149 92 172 238l5 28c5 31 7 59 7 85
c0 96 -34 153 -105 153zM506 344h301c2 6 3 12 4 18c3 18 4 36 4 52c0 90 -44 140 -123 140c-92 0 -159 -84 -186 -210z" />
    <glyph glyph-name="Racute" unicode="&#x154;" horiz-adv-x="730" 
d="M607 990l-251 -142l-21 36l242 168zM196 402c36 -2 90 -4 147 -4c128 0 236 45 254 161c2 10 2 19 2 28c0 96 -88 133 -205 133c-57 0 -113 -2 -149 -4zM310 329c-45 1 -88 2 -125 4l-53 -333h-94l54 338l70 442c28 2 141 9 253 9c165 0 280 -69 280 -195
c0 -11 -1 -23 -3 -35c-20 -128 -133 -207 -279 -226l221 -328l-1 -5h-108z" />
    <glyph glyph-name="racute" unicode="&#x155;" horiz-adv-x="435" 
d="M463 840l-251 -142l-21 36l242 168zM111 594l78 9l10 -150c37 82 98 160 195 160c28 0 49 -6 68 -15l-46 -74c-13 7 -28 11 -48 11c-88 0 -146 -107 -174 -208l-52 -327h-90l68 427z" />
    <glyph glyph-name="uni0156" unicode="&#x156;" horiz-adv-x="730" 
d="M285 -190c-10 -5 -22 -7 -34 -7c-32 0 -54 18 -54 47c0 4 0 7 1 11c6 40 35 68 79 68c52 0 69 -35 69 -72c0 -7 -1 -15 -2 -22c-15 -95 -92 -154 -147 -176l-18 32c39 16 88 58 106 119zM196 402c36 -2 90 -4 147 -4c128 0 236 45 254 161c2 10 2 19 2 28
c0 96 -88 133 -205 133c-57 0 -113 -2 -149 -4zM310 329c-45 1 -88 2 -125 4l-53 -333h-94l54 338l70 442c28 2 141 9 253 9c165 0 280 -69 280 -195c0 -11 -1 -23 -3 -35c-20 -128 -133 -207 -279 -226l221 -328l-1 -5h-108z" />
    <glyph glyph-name="uni0157" unicode="&#x157;" horiz-adv-x="435" 
d="M95 -190c-10 -5 -22 -7 -34 -7c-32 0 -54 18 -54 47c0 4 0 7 1 11c6 40 35 68 79 68c52 0 69 -35 69 -72c0 -7 -1 -15 -2 -22c-15 -95 -92 -154 -147 -176l-18 32c39 16 88 58 106 119zM111 594l78 9l10 -150c37 82 98 160 195 160c28 0 49 -6 68 -15l-46 -74
c-13 7 -28 11 -48 11c-88 0 -146 -107 -174 -208l-52 -327h-90l68 427z" />
    <glyph glyph-name="Rcaron" unicode="&#x158;" horiz-adv-x="730" 
d="M644 992l-198 -149h-24l-152 149l33 31l142 -106l176 106zM196 402c36 -2 90 -4 147 -4c128 0 236 45 254 161c2 10 2 19 2 28c0 96 -88 133 -205 133c-57 0 -113 -2 -149 -4zM310 329c-45 1 -88 2 -125 4l-53 -333h-94l54 338l70 442c28 2 141 9 253 9
c165 0 280 -69 280 -195c0 -11 -1 -23 -3 -35c-20 -128 -133 -207 -279 -226l221 -328l-1 -5h-108z" />
    <glyph glyph-name="rcaron" unicode="&#x159;" horiz-adv-x="435" 
d="M500 842l-198 -149h-24l-152 149l33 31l142 -106l176 106zM111 594l78 9l10 -150c37 82 98 160 195 160c28 0 49 -6 68 -15l-46 -74c-13 7 -28 11 -48 11c-88 0 -146 -107 -174 -208l-52 -327h-90l68 427z" />
    <glyph glyph-name="Sacute" unicode="&#x15a;" horiz-adv-x="710" 
d="M602 990l-251 -142l-21 36l242 168zM30 177l96 13c0 -62 51 -138 177 -138c131 0 208 57 222 145c1 8 2 17 2 24c0 65 -49 93 -89 106c-55 16 -138 43 -194 65c-60 24 -133 71 -133 162c0 9 0 19 2 29c20 124 144 215 308 215c172 0 240 -113 242 -191l-97 -13
c-2 62 -50 134 -156 134c-112 0 -190 -56 -203 -141c-1 -6 -1 -12 -1 -18c0 -57 47 -82 92 -100c53 -20 135 -48 186 -64c66 -22 138 -71 138 -169c0 -11 -1 -23 -3 -35c-20 -126 -143 -219 -327 -219c-189 0 -260 115 -262 195z" />
    <glyph glyph-name="sacute" unicode="&#x15b;" horiz-adv-x="570" 
d="M508 840l-251 -142l-21 36l242 168zM14 137l89 10c1 -47 39 -100 132 -100c92 0 150 42 160 106c1 6 1 12 1 17c0 48 -38 70 -67 79c-43 14 -105 32 -146 48c-48 18 -106 54 -106 127c0 8 1 16 2 24c16 98 111 170 243 170c140 0 192 -89 193 -151l-89 -12
c-1 46 -34 98 -114 98s-137 -39 -147 -102c-1 -4 -1 -9 -1 -13c0 -42 36 -64 67 -75c42 -14 105 -34 143 -46c54 -17 110 -53 110 -132c0 -9 0 -19 -2 -30c-16 -99 -117 -173 -261 -173c-152 0 -205 91 -207 155z" />
    <glyph glyph-name="Scircumflex" unicode="&#x15c;" horiz-adv-x="710" 
d="M245 863l199 149h24l151 -149l-33 -31l-142 106l-176 -106zM30 177l96 13c0 -62 51 -138 177 -138c131 0 208 57 222 145c1 8 2 17 2 24c0 65 -49 93 -89 106c-55 16 -138 43 -194 65c-60 24 -133 71 -133 162c0 9 0 19 2 29c20 124 144 215 308 215
c172 0 240 -113 242 -191l-97 -13c-2 62 -50 134 -156 134c-112 0 -190 -56 -203 -141c-1 -6 -1 -12 -1 -18c0 -57 47 -82 92 -100c53 -20 135 -48 186 -64c66 -22 138 -71 138 -169c0 -11 -1 -23 -3 -35c-20 -126 -143 -219 -327 -219c-189 0 -260 115 -262 195z" />
    <glyph glyph-name="scircumflex" unicode="&#x15d;" horiz-adv-x="570" 
d="M151 713l199 149h24l151 -149l-33 -31l-142 106l-176 -106zM14 137l89 10c1 -47 39 -100 132 -100c92 0 150 42 160 106c1 6 1 12 1 17c0 48 -38 70 -67 79c-43 14 -105 32 -146 48c-48 18 -106 54 -106 127c0 8 1 16 2 24c16 98 111 170 243 170c140 0 192 -89 193 -151
l-89 -12c-1 46 -34 98 -114 98s-137 -39 -147 -102c-1 -4 -1 -9 -1 -13c0 -42 36 -64 67 -75c42 -14 105 -34 143 -46c54 -17 110 -53 110 -132c0 -9 0 -19 -2 -30c-16 -99 -117 -173 -261 -173c-152 0 -205 91 -207 155z" />
    <glyph glyph-name="Scedilla" unicode="&#x15e;" horiz-adv-x="710" 
d="M185 -284c67 16 157 44 167 109c0 2 1 5 1 7c0 20 -17 38 -69 38c-16 0 -36 -3 -47 -5l-24 28l64 89c-177 6 -244 117 -247 195l96 13c0 -62 51 -138 177 -138c131 0 208 57 222 145c1 8 2 17 2 24c0 65 -49 93 -89 106c-55 16 -138 43 -194 65c-60 24 -133 71 -133 162
c0 9 0 19 2 29c20 124 144 215 308 215c172 0 240 -113 242 -191l-97 -13c-2 62 -50 134 -156 134c-112 0 -190 -56 -203 -141c-1 -6 -1 -12 -1 -18c0 -57 47 -82 92 -100c53 -20 135 -48 186 -64c66 -22 138 -71 138 -169c0 -11 -1 -23 -3 -35
c-19 -117 -126 -206 -289 -218l-52 -72c7 1 15 1 23 1c71 0 112 -26 112 -73c0 -5 0 -9 -1 -14c-17 -108 -164 -139 -219 -153z" />
    <glyph glyph-name="scedilla" unicode="&#x15f;" horiz-adv-x="570" 
d="M115 -284c67 16 157 44 167 109c0 2 1 5 1 7c0 20 -17 38 -69 38c-16 0 -36 -3 -47 -5l-24 28l64 89c-141 6 -191 93 -193 155l89 10c1 -47 39 -100 132 -100c92 0 150 42 160 106c1 6 1 12 1 17c0 48 -38 70 -67 79c-43 14 -105 32 -146 48c-48 18 -106 54 -106 127
c0 8 1 16 2 24c16 98 111 170 243 170c140 0 192 -89 193 -151l-89 -12c-1 46 -34 98 -114 98s-137 -39 -147 -102c-1 -4 -1 -9 -1 -13c0 -42 36 -64 67 -75c42 -14 105 -34 143 -46c54 -17 110 -53 110 -132c0 -9 0 -19 -2 -30c-14 -90 -99 -159 -222 -171l-52 -73
c7 1 15 1 23 1c71 0 112 -26 112 -73c0 -5 0 -9 -1 -14c-17 -108 -164 -139 -219 -153z" />
    <glyph glyph-name="Scaron" unicode="&#x160;" horiz-adv-x="710" 
d="M639 992l-198 -149h-24l-152 149l33 31l142 -106l176 106zM30 177l96 13c0 -62 51 -138 177 -138c131 0 208 57 222 145c1 8 2 17 2 24c0 65 -49 93 -89 106c-55 16 -138 43 -194 65c-60 24 -133 71 -133 162c0 9 0 19 2 29c20 124 144 215 308 215
c172 0 240 -113 242 -191l-97 -13c-2 62 -50 134 -156 134c-112 0 -190 -56 -203 -141c-1 -6 -1 -12 -1 -18c0 -57 47 -82 92 -100c53 -20 135 -48 186 -64c66 -22 138 -71 138 -169c0 -11 -1 -23 -3 -35c-20 -126 -143 -219 -327 -219c-189 0 -260 115 -262 195z" />
    <glyph glyph-name="scaron" unicode="&#x161;" horiz-adv-x="570" 
d="M545 842l-198 -149h-24l-152 149l33 31l142 -106l176 106zM14 137l89 10c1 -47 39 -100 132 -100c92 0 150 42 160 106c1 6 1 12 1 17c0 48 -38 70 -67 79c-43 14 -105 32 -146 48c-48 18 -106 54 -106 127c0 8 1 16 2 24c16 98 111 170 243 170c140 0 192 -89 193 -151
l-89 -12c-1 46 -34 98 -114 98s-137 -39 -147 -102c-1 -4 -1 -9 -1 -13c0 -42 36 -64 67 -75c42 -14 105 -34 143 -46c54 -17 110 -53 110 -132c0 -9 0 -19 -2 -30c-16 -99 -117 -173 -261 -173c-152 0 -205 91 -207 155z" />
    <glyph glyph-name="uni0162" unicode="&#x162;" horiz-adv-x="620" 
d="M125 -284c67 16 157 44 167 109c0 2 1 5 1 7c0 20 -17 38 -69 38c-16 0 -36 -3 -47 -5l-24 28l76 107h-27l112 708h-225l12 72h546l-12 -72h-225l-112 -708h-16l-64 -89c7 1 15 1 23 1c71 0 112 -26 112 -73c0 -5 0 -9 -1 -14c-17 -108 -164 -139 -219 -153z" />
    <glyph glyph-name="uni0163" unicode="&#x163;" horiz-adv-x="415" 
d="M75 -284c67 16 157 44 167 109c0 2 1 5 1 7c0 20 -17 38 -69 38c-16 0 -36 -3 -47 -5l-24 28l69 97c-53 9 -86 39 -86 99c0 10 1 20 3 32l67 421h-95l9 58h98l20 128l87 7l-21 -135h156l-9 -58h-155l-65 -409c-2 -12 -3 -22 -3 -31c0 -39 18 -50 52 -50
c44 0 88 17 106 27l12 -60c-27 -15 -73 -30 -125 -32l-55 -76c7 1 15 1 23 1c71 0 112 -26 112 -73c0 -5 0 -9 -1 -14c-17 -108 -164 -139 -219 -153z" />
    <glyph glyph-name="Tcaron" unicode="&#x164;" horiz-adv-x="620" 
d="M594 992l-198 -149h-24l-152 149l33 31l142 -106l176 106zM89 708l12 72h546l-12 -72h-225l-112 -708h-96l112 708h-225z" />
    <glyph glyph-name="tcaron" unicode="&#x165;" horiz-adv-x="625" 
d="M61 542l9 58h98l20 128l87 7l-21 -135h156l-9 -58h-155l-65 -409c-2 -12 -3 -22 -3 -31c0 -39 18 -50 52 -50c44 0 88 17 106 27l12 -60c-30 -16 -81 -32 -139 -32c-75 0 -123 29 -123 102c0 10 1 21 3 32l67 421h-95zM597 710c-10 -5 -22 -7 -34 -7c-32 0 -53 18 -53 47
c0 4 0 7 1 11c6 40 34 68 78 68c52 0 69 -35 69 -72c0 -7 -1 -15 -2 -22c-15 -95 -91 -154 -146 -176l-18 32c39 16 87 58 105 119z" />
    <glyph glyph-name="Utilde" unicode="&#x168;" horiz-adv-x="770" 
d="M279 887c28 51 66 120 130 120c50 0 72 -31 91 -52c18 -21 30 -42 49 -42c32 0 61 61 75 87l44 -17c-26 -52 -66 -120 -129 -120c-50 0 -73 31 -92 52c-18 21 -29 42 -48 42c-32 0 -61 -61 -75 -87zM64 236l87 544h96l-87 -544c-2 -12 -3 -24 -3 -35
c0 -96 71 -147 177 -147c118 0 211 64 230 182l87 544h96l-87 -544c-23 -146 -158 -254 -338 -254c-163 0 -261 89 -261 214c0 13 1 26 3 40z" />
    <glyph glyph-name="utilde" unicode="&#x169;" horiz-adv-x="620" 
d="M180 737c28 51 66 120 130 120c50 0 72 -31 91 -52c18 -21 30 -42 49 -42c32 0 61 61 75 87l44 -17c-26 -52 -66 -120 -129 -120c-50 0 -73 31 -92 52c-18 21 -29 42 -48 42c-32 0 -61 -61 -75 -87zM41 184l66 416h90l-66 -416c-1 -9 -2 -19 -2 -27
c0 -72 52 -109 129 -109c86 0 155 46 169 136l66 416h90l-66 -416c-18 -115 -124 -202 -270 -202c-132 0 -209 71 -209 170c0 10 1 21 3 32z" />
    <glyph glyph-name="Umacron" unicode="&#x16a;" horiz-adv-x="770" 
d="M281 900l9 60h374l-9 -60h-374zM64 236l87 544h96l-87 -544c-2 -12 -3 -24 -3 -35c0 -96 71 -147 177 -147c118 0 211 64 230 182l87 544h96l-87 -544c-23 -146 -158 -254 -338 -254c-163 0 -261 89 -261 214c0 13 1 26 3 40z" />
    <glyph glyph-name="umacron" unicode="&#x16b;" horiz-adv-x="620" 
d="M182 750l9 60h374l-9 -60h-374zM41 184l66 416h90l-66 -416c-1 -9 -2 -19 -2 -27c0 -72 52 -109 129 -109c86 0 155 46 169 136l66 416h90l-66 -416c-18 -115 -124 -202 -270 -202c-132 0 -209 71 -209 170c0 10 1 21 3 32z" />
    <glyph glyph-name="Ubreve" unicode="&#x16c;" horiz-adv-x="770" 
d="M295 988l60 19c4 -48 26 -102 114 -102s126 54 146 102l54 -19c-29 -68 -93 -141 -210 -141s-157 73 -164 141zM64 236l87 544h96l-87 -544c-2 -12 -3 -24 -3 -35c0 -96 71 -147 177 -147c118 0 211 64 230 182l87 544h96l-87 -544c-23 -146 -158 -254 -338 -254
c-163 0 -261 89 -261 214c0 13 1 26 3 40z" />
    <glyph glyph-name="ubreve" unicode="&#x16d;" horiz-adv-x="620" 
d="M196 838l60 19c4 -48 26 -102 114 -102s126 54 146 102l54 -19c-29 -68 -93 -141 -210 -141s-157 73 -164 141zM41 184l66 416h90l-66 -416c-1 -9 -2 -19 -2 -27c0 -72 52 -109 129 -109c86 0 155 46 169 136l66 416h90l-66 -416c-18 -115 -124 -202 -270 -202
c-132 0 -209 71 -209 170c0 10 1 21 3 32z" />
    <glyph glyph-name="Uring" unicode="&#x16e;" horiz-adv-x="770" 
d="M453 807c-60 0 -99 35 -99 89c0 6 0 13 1 19c10 64 65 108 132 108c60 0 99 -35 99 -89c0 -6 0 -13 -1 -19c-10 -64 -65 -108 -132 -108zM460 851c40 0 70 26 76 64c1 4 1 8 1 12c0 31 -21 52 -57 52c-40 0 -70 -26 -76 -64c-1 -4 -1 -8 -1 -12c0 -31 21 -52 57 -52z
M64 236l87 544h96l-87 -544c-2 -12 -3 -24 -3 -35c0 -96 71 -147 177 -147c118 0 211 64 230 182l87 544h96l-87 -544c-23 -146 -158 -254 -338 -254c-163 0 -261 89 -261 214c0 13 1 26 3 40z" />
    <glyph glyph-name="uring" unicode="&#x16f;" horiz-adv-x="620" 
d="M354 657c-60 0 -99 35 -99 89c0 6 0 13 1 19c10 64 65 108 132 108c60 0 99 -35 99 -89c0 -6 0 -13 -1 -19c-10 -64 -65 -108 -132 -108zM361 701c40 0 70 26 76 64c1 4 1 8 1 12c0 31 -21 52 -57 52c-40 0 -70 -26 -76 -64c-1 -4 -1 -8 -1 -12c0 -31 21 -52 57 -52z
M41 184l66 416h90l-66 -416c-1 -9 -2 -19 -2 -27c0 -72 52 -109 129 -109c86 0 155 46 169 136l66 416h90l-66 -416c-18 -115 -124 -202 -270 -202c-132 0 -209 71 -209 170c0 10 1 21 3 32z" />
    <glyph glyph-name="Uhungarumlaut" unicode="&#x170;" horiz-adv-x="770" 
d="M306 873l146 189l50 -40l-166 -174zM509 873l146 189l49 -40l-165 -174zM64 236l87 544h96l-87 -544c-2 -12 -3 -24 -3 -35c0 -96 71 -147 177 -147c118 0 211 64 230 182l87 544h96l-87 -544c-23 -146 -158 -254 -338 -254c-163 0 -261 89 -261 214c0 13 1 26 3 40z" />
    <glyph glyph-name="uhungarumlaut" unicode="&#x171;" horiz-adv-x="620" 
d="M207 723l146 189l50 -40l-166 -174zM410 723l146 189l49 -40l-165 -174zM41 184l66 416h90l-66 -416c-1 -9 -2 -19 -2 -27c0 -72 52 -109 129 -109c86 0 155 46 169 136l66 416h90l-66 -416c-18 -115 -124 -202 -270 -202c-132 0 -209 71 -209 170c0 10 1 21 3 32z" />
    <glyph glyph-name="Uogonek" unicode="&#x172;" horiz-adv-x="770" 
d="M64 236l87 544h96l-87 -544c-2 -12 -3 -24 -3 -35c0 -96 71 -147 177 -147c118 0 211 64 230 182l87 544h96l-87 -544c-17 -107 -94 -193 -205 -232c-34 -33 -64 -76 -74 -139c-1 -7 -2 -12 -2 -18c0 -36 22 -51 51 -51c28 0 53 9 66 16l9 -44c-27 -13 -57 -20 -93 -20
c-63 0 -94 35 -94 87c0 7 1 15 2 23c8 53 34 95 63 128c-19 -3 -40 -4 -61 -4c-163 0 -261 89 -261 214c0 13 1 26 3 40z" />
    <glyph glyph-name="uogonek" unicode="&#x173;" horiz-adv-x="620" 
d="M41 184l66 416h90l-66 -416c-1 -9 -2 -19 -2 -27c0 -72 52 -109 129 -109c86 0 155 46 169 136l66 416h90l-66 -416c-14 -86 -76 -156 -168 -186c-31 -32 -59 -74 -68 -133c-1 -7 -2 -12 -2 -18c0 -36 22 -51 51 -51c28 0 53 9 66 16l9 -44c-27 -13 -57 -20 -93 -20
c-63 0 -94 35 -94 87c0 7 1 15 2 23c8 52 31 93 60 126c-11 -1 -22 -2 -33 -2c-132 0 -209 71 -209 170c0 10 1 21 3 32z" />
    <glyph glyph-name="Wcircumflex" unicode="&#x174;" horiz-adv-x="1060" 
d="M420 863l199 149h24l151 -149l-33 -31l-142 106l-176 -106zM1089 765l-351 -765h-84l-85 624l-283 -624h-84l-109 765l1 6l106 9l71 -651l279 631h80l79 -631l279 651l102 -9z" />
    <glyph glyph-name="wcircumflex" unicode="&#x175;" horiz-adv-x="830" 
d="M281 713l199 149h24l151 -149l-33 -31l-142 106l-176 -106zM836 588l-269 -588h-78l-61 461l-207 -461h-78l-83 588l1 4l97 8l50 -475l204 460h72l58 -460l200 475l95 -8z" />
    <glyph glyph-name="Ycircumflex" unicode="&#x176;" horiz-adv-x="670" 
d="M225 863l199 149h24l151 -149l-33 -31l-142 106l-176 -106zM79 765l1 7l109 8l148 -388l272 388l105 -8l-1 -7l-342 -464l-48 -301h-96l48 301z" />
    <glyph glyph-name="ycircumflex" unicode="&#x177;" horiz-adv-x="600" 
d="M166 713l199 149h24l151 -149l-33 -31l-142 106l-176 -106zM55 588l1 5l99 7l100 -497l261 497l96 -7l-1 -5l-348 -617c-51 -84 -114 -199 -221 -199c-50 0 -78 22 -99 42l52 55c15 -16 30 -34 55 -34c48 0 93 69 142 153l9 15z" />
    <glyph glyph-name="Ydieresis" unicode="&#x178;" horiz-adv-x="670" 
d="M236 930c6 39 40 63 78 63c34 0 59 -19 59 -52c0 -3 0 -7 -1 -11c-6 -39 -40 -63 -78 -63c-34 0 -59 19 -59 52c0 3 0 7 1 11zM474 930c6 39 40 63 78 63c34 0 59 -19 59 -52c0 -3 0 -7 -1 -11c-6 -39 -40 -63 -78 -63c-34 0 -59 19 -59 52c0 3 0 7 1 11zM79 765l1 7
l109 8l148 -388l272 388l105 -8l-1 -7l-342 -464l-48 -301h-96l48 301z" />
    <glyph glyph-name="Zacute" unicode="&#x179;" horiz-adv-x="670" 
d="M582 990l-251 -142l-21 36l242 168zM-8 55l550 651h-423l12 74h544l-2 -55l-550 -651h457l-12 -74h-578z" />
    <glyph glyph-name="zacute" unicode="&#x17a;" horiz-adv-x="530" 
d="M488 840l-251 -142l-21 36l242 168zM-16 46l408 490h-310l10 64h422l-1 -46l-407 -490h336l-10 -64h-449z" />
    <glyph glyph-name="Zdotaccent" unicode="&#x17b;" horiz-adv-x="670" 
d="M433 998c37 0 63 -21 63 -56c0 -4 0 -8 -1 -12c-7 -42 -42 -68 -83 -68c-37 0 -62 21 -62 55c0 4 0 9 1 13c7 42 41 68 82 68zM-8 55l550 651h-423l12 74h544l-2 -55l-550 -651h457l-12 -74h-578z" />
    <glyph glyph-name="zdotaccent" unicode="&#x17c;" horiz-adv-x="530" 
d="M339 848c37 0 63 -21 63 -56c0 -4 0 -8 -1 -12c-7 -42 -42 -68 -83 -68c-37 0 -62 21 -62 55c0 4 0 9 1 13c7 42 41 68 82 68zM-16 46l408 490h-310l10 64h422l-1 -46l-407 -490h336l-10 -64h-449z" />
    <glyph glyph-name="Zcaron" unicode="&#x17d;" horiz-adv-x="670" 
d="M619 992l-198 -149h-24l-152 149l33 31l142 -106l176 106zM-8 55l550 651h-423l12 74h544l-2 -55l-550 -651h457l-12 -74h-578z" />
    <glyph glyph-name="zcaron" unicode="&#x17e;" horiz-adv-x="530" 
d="M525 842l-198 -149h-24l-152 149l33 31l142 -106l176 106zM-16 46l408 490h-310l10 64h422l-1 -46l-407 -490h336l-10 -64h-449z" />
    <glyph glyph-name="uni018F" unicode="&#x18f;" horiz-adv-x="780" 
d="M717 408l-6 -36c-29 -185 -140 -390 -400 -390c-188 0 -271 114 -271 259c0 22 2 44 6 67c5 32 15 65 26 98h552l1 2c5 31 7 60 7 88c0 139 -62 232 -203 232c-124 0 -202 -83 -223 -145l-92 8c27 80 134 207 326 207c216 0 285 -142 285 -296c0 -31 -3 -63 -8 -94z
M613 344h-467c-3 -12 -5 -24 -7 -36c-4 -23 -5 -44 -5 -64c0 -124 68 -193 188 -193c160 0 257 122 291 293z" />
    <glyph glyph-name="florin" unicode="&#x192;" horiz-adv-x="400" 
d="M61 542l9 58h95l13 83c10 60 60 145 176 145c77 0 118 -34 130 -44l-47 -49c-12 9 -39 30 -87 30s-78 -36 -85 -82l-13 -83h158l-9 -58h-155l-90 -566c-17 -109 -110 -171 -208 -199l-19 59c73 24 125 62 138 145l89 561h-95z" />
    <glyph glyph-name="Ohorn" unicode="&#x1a0;" horiz-adv-x="820" 
d="M67 372l6 36c29 186 140 390 403 390c98 0 167 -29 212 -74c26 12 60 41 68 91c1 6 1 11 1 16c0 22 -8 37 -16 48l61 33c13 -16 22 -39 22 -69c0 -8 -1 -16 -2 -25c-10 -65 -61 -106 -107 -126c36 -52 50 -119 50 -189c0 -31 -3 -64 -8 -95l-6 -36
c-29 -186 -141 -390 -404 -390c-219 0 -288 141 -288 296c0 31 3 63 8 94zM359 54c169 0 265 132 294 318l6 36c5 31 7 61 7 89c0 137 -61 229 -201 229c-169 0 -265 -132 -294 -318l-6 -36c-5 -31 -7 -61 -7 -89c0 -137 61 -229 201 -229z" />
    <glyph glyph-name="ohorn" unicode="&#x1a1;" horiz-adv-x="660" 
d="M47 286l5 28c22 142 108 304 316 304c85 0 141 -27 176 -69c24 14 52 42 59 86c1 6 1 11 1 16c0 22 -8 37 -16 48l61 33c12 -16 21 -39 21 -68c0 -8 0 -17 -2 -26c-10 -62 -57 -102 -101 -123c19 -38 27 -82 27 -127c0 -25 -2 -50 -6 -74l-5 -28
c-22 -142 -108 -304 -316 -304c-173 0 -226 112 -226 232c0 24 2 48 6 72zM278 48c120 0 192 95 215 238l5 28c4 24 6 47 6 68c0 104 -47 170 -147 170c-120 0 -192 -95 -215 -238l-5 -28c-4 -24 -6 -47 -6 -68c0 -104 47 -170 147 -170z" />
    <glyph glyph-name="Uhorn" unicode="&#x1af;" horiz-adv-x="780" 
d="M64 236l87 544h96l-87 -544c-2 -12 -3 -24 -3 -35c0 -96 71 -147 177 -147c118 0 211 64 230 182l79 499h18l38 -8c25 14 55 41 62 88c1 6 1 11 1 16c0 22 -8 37 -16 48l61 33c13 -16 22 -39 22 -69c0 -8 -1 -16 -2 -25c-9 -58 -52 -97 -93 -119l-74 -463
c-23 -146 -158 -254 -338 -254c-163 0 -261 89 -261 214c0 13 1 26 3 40z" />
    <glyph glyph-name="uhorn" unicode="&#x1b0;" horiz-adv-x="635" 
d="M41 184l66 416h90l-66 -416c-1 -9 -2 -19 -2 -27c0 -72 52 -109 129 -109c86 0 155 46 169 136l59 371h18l33 -8c25 14 54 41 61 88c1 6 1 11 1 16c0 22 -8 37 -16 48l61 33c12 -16 21 -39 21 -68c0 -8 0 -17 -2 -26c-9 -58 -52 -97 -93 -119l-53 -335
c-18 -115 -124 -202 -270 -202c-132 0 -209 71 -209 170c0 10 1 21 3 32z" />
    <glyph glyph-name="uni01CD" unicode="&#x1cd;" horiz-adv-x="750" 
d="M659 992l-198 -149h-24l-152 149l33 31l142 -106l176 106zM667 0h-108l-36 176h-360l-92 -176h-108l1 6l435 774h80l189 -774zM509 244l-88 426l-222 -426h310z" />
    <glyph glyph-name="uni01CE" unicode="&#x1ce;" horiz-adv-x="625" 
d="M570 842l-198 -149h-24l-152 149l33 31l142 -106l176 106zM30 172c12 77 86 148 212 148c73 0 143 -6 193 -12l18 114c1 9 2 18 2 26c0 71 -53 104 -128 104c-80 0 -138 -47 -161 -123l-89 6c28 93 117 183 261 183c128 0 205 -67 205 -164c0 -10 -1 -21 -3 -32l-45 -285
c-2 -12 -3 -23 -3 -32c0 -37 17 -53 58 -58l-31 -60c-44 5 -101 27 -103 102c-44 -54 -109 -102 -203 -102c-116 0 -186 56 -186 151c0 11 1 22 3 34zM430 252c-44 6 -112 14 -192 14c-58 0 -110 -34 -120 -95c-1 -9 -2 -18 -2 -26c0 -70 52 -102 116 -102
c107 0 165 90 191 167z" />
    <glyph glyph-name="uni01CF" unicode="&#x1cf;" horiz-adv-x="320" 
d="M444 992l-198 -149h-24l-152 149l33 31l142 -106l176 106zM52 0l124 780h96l-124 -780h-96z" />
    <glyph glyph-name="uni01D0" unicode="&#x1d0;" horiz-adv-x="300" 
d="M410 842l-198 -149h-24l-152 149l33 31l142 -106l176 106zM45 0l95 600h90l-95 -600h-90z" />
    <glyph glyph-name="uni01D1" unicode="&#x1d1;" horiz-adv-x="820" 
d="M694 992l-198 -149h-24l-152 149l33 31l142 -106l176 106zM67 372l6 36c29 186 140 390 403 390c219 0 289 -142 289 -297c0 -31 -3 -62 -8 -93l-6 -36c-29 -186 -141 -390 -404 -390c-219 0 -288 141 -288 296c0 31 3 63 8 94zM359 54c169 0 265 132 294 318l6 36
c5 31 7 61 7 89c0 137 -61 229 -201 229c-169 0 -265 -132 -294 -318l-6 -36c-5 -31 -7 -61 -7 -89c0 -137 61 -229 201 -229z" />
    <glyph glyph-name="uni01D2" unicode="&#x1d2;" horiz-adv-x="660" 
d="M590 842l-198 -149h-24l-152 149l33 31l142 -106l176 106zM47 286l5 28c22 142 108 304 316 304c173 0 226 -112 226 -232c0 -24 -2 -48 -6 -72l-5 -28c-22 -142 -108 -304 -316 -304c-173 0 -226 112 -226 232c0 24 2 48 6 72zM278 48c120 0 192 95 215 238l5 28
c4 24 6 47 6 68c0 104 -47 170 -147 170c-120 0 -192 -95 -215 -238l-5 -28c-4 -24 -6 -47 -6 -68c0 -104 47 -170 147 -170z" />
    <glyph glyph-name="uni01D3" unicode="&#x1d3;" horiz-adv-x="770" 
d="M669 992l-198 -149h-24l-152 149l33 31l142 -106l176 106zM64 236l87 544h96l-87 -544c-2 -12 -3 -24 -3 -35c0 -96 71 -147 177 -147c118 0 211 64 230 182l87 544h96l-87 -544c-23 -146 -158 -254 -338 -254c-163 0 -261 89 -261 214c0 13 1 26 3 40z" />
    <glyph glyph-name="uni01D4" unicode="&#x1d4;" horiz-adv-x="620" 
d="M570 842l-198 -149h-24l-152 149l33 31l142 -106l176 106zM41 184l66 416h90l-66 -416c-1 -9 -2 -19 -2 -27c0 -72 52 -109 129 -109c86 0 155 46 169 136l66 416h90l-66 -416c-18 -115 -124 -202 -270 -202c-132 0 -209 71 -209 170c0 10 1 21 3 32z" />
    <glyph glyph-name="uni01D5" unicode="&#x1d5;" horiz-adv-x="770" 
d="M309 1080l9 60h374l-9 -60h-374zM286 930c6 39 40 63 78 63c34 0 59 -19 59 -52c0 -3 0 -7 -1 -11c-6 -39 -40 -63 -78 -63c-34 0 -59 19 -59 52c0 3 0 7 1 11zM524 930c6 39 40 63 78 63c34 0 59 -19 59 -52c0 -3 0 -7 -1 -11c-6 -39 -40 -63 -78 -63
c-34 0 -59 19 -59 52c0 3 0 7 1 11zM64 236l87 544h96l-87 -544c-2 -12 -3 -24 -3 -35c0 -96 71 -147 177 -147c118 0 211 64 230 182l87 544h96l-87 -544c-23 -146 -158 -254 -338 -254c-163 0 -261 89 -261 214c0 13 1 26 3 40z" />
    <glyph glyph-name="uni01D6" unicode="&#x1d6;" horiz-adv-x="620" 
d="M211 930l9 60h374l-9 -60h-374zM187 780c6 39 40 63 78 63c34 0 59 -19 59 -52c0 -3 0 -7 -1 -11c-6 -39 -40 -63 -78 -63c-34 0 -59 19 -59 52c0 3 0 7 1 11zM425 780c6 39 40 63 78 63c34 0 59 -19 59 -52c0 -3 0 -7 -1 -11c-6 -39 -40 -63 -78 -63
c-34 0 -59 19 -59 52c0 3 0 7 1 11zM41 184l66 416h90l-66 -416c-1 -9 -2 -19 -2 -27c0 -72 52 -109 129 -109c86 0 155 46 169 136l66 416h90l-66 -416c-18 -115 -124 -202 -270 -202c-132 0 -209 71 -209 170c0 10 1 21 3 32z" />
    <glyph glyph-name="uni01D7" unicode="&#x1d7;" horiz-adv-x="770" 
d="M660 1170l-251 -142l-21 36l242 168zM286 930c6 39 40 63 78 63c34 0 59 -19 59 -52c0 -3 0 -7 -1 -11c-6 -39 -40 -63 -78 -63c-34 0 -59 19 -59 52c0 3 0 7 1 11zM524 930c6 39 40 63 78 63c34 0 59 -19 59 -52c0 -3 0 -7 -1 -11c-6 -39 -40 -63 -78 -63
c-34 0 -59 19 -59 52c0 3 0 7 1 11zM64 236l87 544h96l-87 -544c-2 -12 -3 -24 -3 -35c0 -96 71 -147 177 -147c118 0 211 64 230 182l87 544h96l-87 -544c-23 -146 -158 -254 -338 -254c-163 0 -261 89 -261 214c0 13 1 26 3 40z" />
    <glyph glyph-name="uni01D8" unicode="&#x1d8;" horiz-adv-x="620" 
d="M562 1020l-251 -142l-21 36l242 168zM187 780c6 39 40 63 78 63c34 0 59 -19 59 -52c0 -3 0 -7 -1 -11c-6 -39 -40 -63 -78 -63c-34 0 -59 19 -59 52c0 3 0 7 1 11zM425 780c6 39 40 63 78 63c34 0 59 -19 59 -52c0 -3 0 -7 -1 -11c-6 -39 -40 -63 -78 -63
c-34 0 -59 19 -59 52c0 3 0 7 1 11zM41 184l66 416h90l-66 -416c-1 -9 -2 -19 -2 -27c0 -72 52 -109 129 -109c86 0 155 46 169 136l66 416h90l-66 -416c-18 -115 -124 -202 -270 -202c-132 0 -209 71 -209 170c0 10 1 21 3 32z" />
    <glyph glyph-name="uni01D9" unicode="&#x1d9;" horiz-adv-x="770" 
d="M697 1172l-198 -149h-24l-152 149l33 31l142 -106l176 106zM286 930c6 39 40 63 78 63c34 0 59 -19 59 -52c0 -3 0 -7 -1 -11c-6 -39 -40 -63 -78 -63c-34 0 -59 19 -59 52c0 3 0 7 1 11zM524 930c6 39 40 63 78 63c34 0 59 -19 59 -52c0 -3 0 -7 -1 -11
c-6 -39 -40 -63 -78 -63c-34 0 -59 19 -59 52c0 3 0 7 1 11zM64 236l87 544h96l-87 -544c-2 -12 -3 -24 -3 -35c0 -96 71 -147 177 -147c118 0 211 64 230 182l87 544h96l-87 -544c-23 -146 -158 -254 -338 -254c-163 0 -261 89 -261 214c0 13 1 26 3 40z" />
    <glyph glyph-name="uni01DA" unicode="&#x1da;" horiz-adv-x="620" 
d="M599 1022l-198 -149h-24l-152 149l33 31l142 -106l176 106zM187 780c6 39 40 63 78 63c34 0 59 -19 59 -52c0 -3 0 -7 -1 -11c-6 -39 -40 -63 -78 -63c-34 0 -59 19 -59 52c0 3 0 7 1 11zM425 780c6 39 40 63 78 63c34 0 59 -19 59 -52c0 -3 0 -7 -1 -11
c-6 -39 -40 -63 -78 -63c-34 0 -59 19 -59 52c0 3 0 7 1 11zM41 184l66 416h90l-66 -416c-1 -9 -2 -19 -2 -27c0 -72 52 -109 129 -109c86 0 155 46 169 136l66 416h90l-66 -416c-18 -115 -124 -202 -270 -202c-132 0 -209 71 -209 170c0 10 1 21 3 32z" />
    <glyph glyph-name="uni01DB" unicode="&#x1db;" horiz-adv-x="770" 
d="M360 1170l50 62l188 -168l-31 -36zM286 930c6 39 40 63 78 63c34 0 59 -19 59 -52c0 -3 0 -7 -1 -11c-6 -39 -40 -63 -78 -63c-34 0 -59 19 -59 52c0 3 0 7 1 11zM524 930c6 39 40 63 78 63c34 0 59 -19 59 -52c0 -3 0 -7 -1 -11c-6 -39 -40 -63 -78 -63
c-34 0 -59 19 -59 52c0 3 0 7 1 11zM64 236l87 544h96l-87 -544c-2 -12 -3 -24 -3 -35c0 -96 71 -147 177 -147c118 0 211 64 230 182l87 544h96l-87 -544c-23 -146 -158 -254 -338 -254c-163 0 -261 89 -261 214c0 13 1 26 3 40z" />
    <glyph glyph-name="uni01DC" unicode="&#x1dc;" horiz-adv-x="620" 
d="M262 1020l50 62l188 -168l-31 -36zM187 780c6 39 40 63 78 63c34 0 59 -19 59 -52c0 -3 0 -7 -1 -11c-6 -39 -40 -63 -78 -63c-34 0 -59 19 -59 52c0 3 0 7 1 11zM425 780c6 39 40 63 78 63c34 0 59 -19 59 -52c0 -3 0 -7 -1 -11c-6 -39 -40 -63 -78 -63
c-34 0 -59 19 -59 52c0 3 0 7 1 11zM41 184l66 416h90l-66 -416c-1 -9 -2 -19 -2 -27c0 -72 52 -109 129 -109c86 0 155 46 169 136l66 416h90l-66 -416c-18 -115 -124 -202 -270 -202c-132 0 -209 71 -209 170c0 10 1 21 3 32z" />
    <glyph glyph-name="Gcaron" unicode="&#x1e6;" horiz-adv-x="770" 
d="M694 992l-198 -149h-24l-152 149l33 31l142 -106l176 106zM411 311l11 68h281l-38 -241c-40 -64 -143 -156 -315 -156c-220 0 -291 141 -291 297c0 31 3 63 8 94l5 34c30 188 143 391 407 391c194 0 262 -126 263 -206l-99 -9c-2 61 -51 143 -175 143
c-170 0 -268 -130 -298 -319l-5 -34c-5 -32 -8 -62 -8 -90c0 -139 64 -229 205 -229c118 0 182 49 217 93l26 164h-194z" />
    <glyph glyph-name="gcaron" unicode="&#x1e7;" horiz-adv-x="670" 
d="M620 842l-198 -149h-24l-152 149l33 31l142 -106l176 106zM52 315c22 136 111 298 297 298c90 0 140 -56 167 -120l24 107h77l-100 -631c-18 -115 -123 -197 -265 -197c-140 0 -205 69 -213 115l88 23c5 -28 43 -75 135 -75c88 0 156 44 170 134l27 167
c-47 -64 -115 -119 -204 -119c-156 0 -209 114 -209 231c0 23 2 45 6 67zM494 375c-6 82 -45 172 -145 172c-112 0 -185 -94 -207 -232c-4 -23 -6 -45 -6 -66c0 -101 46 -166 139 -166c100 0 168 90 200 172z" />
    <glyph glyph-name="uni01EA" unicode="&#x1ea;" horiz-adv-x="820" 
d="M359 54c169 0 265 132 294 318l6 36c5 31 7 61 7 89c0 137 -61 229 -201 229c-169 0 -265 -132 -294 -318l-6 -36c-5 -31 -7 -61 -7 -89c0 -137 61 -229 201 -229zM67 372l6 36c29 186 140 390 403 390c219 0 289 -142 289 -297c0 -31 -3 -62 -8 -93l-6 -36
c-26 -161 -112 -337 -307 -380c-29 -31 -54 -71 -63 -127c-1 -7 -2 -12 -2 -18c0 -36 22 -51 51 -51c28 0 53 9 66 16l9 -44c-27 -13 -57 -20 -93 -20c-63 0 -94 35 -94 87c0 7 1 15 2 23c8 52 32 92 60 125c-11 -1 -22 -1 -33 -1c-219 0 -288 141 -288 296c0 31 3 63 8 94z
" />
    <glyph glyph-name="uni01EB" unicode="&#x1eb;" horiz-adv-x="660" 
d="M278 48c120 0 192 95 215 238l5 28c4 24 6 47 6 68c0 104 -47 170 -147 170c-120 0 -192 -95 -215 -238l-5 -28c-4 -24 -6 -47 -6 -68c0 -104 47 -170 147 -170zM47 286l5 28c22 142 108 304 316 304c173 0 226 -112 226 -232c0 -24 -2 -48 -6 -72l-5 -28
c-18 -116 -78 -246 -214 -289c-31 -32 -59 -74 -68 -132c-1 -7 -2 -12 -2 -18c0 -36 22 -51 51 -51c28 0 53 9 66 16l9 -44c-27 -13 -57 -20 -93 -20c-63 0 -94 35 -94 87c0 7 1 15 2 23c8 52 32 92 60 125c-11 -1 -21 -1 -33 -1c-173 0 -226 112 -226 232c0 24 2 48 6 72z
" />
    <glyph glyph-name="uni0218" unicode="&#x218;" horiz-adv-x="710" 
d="M280 -190c-10 -5 -22 -7 -34 -7c-32 0 -54 18 -54 47c0 4 0 7 1 11c6 40 35 68 79 68c52 0 69 -35 69 -72c0 -7 -1 -15 -2 -22c-15 -95 -92 -154 -147 -176l-18 32c39 16 88 58 106 119zM30 177l96 13c0 -62 51 -138 177 -138c131 0 208 57 222 145c1 8 2 17 2 24
c0 65 -49 93 -89 106c-55 16 -138 43 -194 65c-60 24 -133 71 -133 162c0 9 0 19 2 29c20 124 144 215 308 215c172 0 240 -113 242 -191l-97 -13c-2 62 -50 134 -156 134c-112 0 -190 -56 -203 -141c-1 -6 -1 -12 -1 -18c0 -57 47 -82 92 -100c53 -20 135 -48 186 -64
c66 -22 138 -71 138 -169c0 -11 -1 -23 -3 -35c-20 -126 -143 -219 -327 -219c-189 0 -260 115 -262 195z" />
    <glyph glyph-name="uni0219" unicode="&#x219;" horiz-adv-x="570" 
d="M210 -190c-10 -5 -22 -7 -34 -7c-32 0 -54 18 -54 47c0 4 0 7 1 11c6 40 35 68 79 68c52 0 69 -35 69 -72c0 -7 -1 -15 -2 -22c-15 -95 -92 -154 -147 -176l-18 32c39 16 88 58 106 119zM14 137l89 10c1 -47 39 -100 132 -100c92 0 150 42 160 106c1 6 1 12 1 17
c0 48 -38 70 -67 79c-43 14 -105 32 -146 48c-48 18 -106 54 -106 127c0 8 1 16 2 24c16 98 111 170 243 170c140 0 192 -89 193 -151l-89 -12c-1 46 -34 98 -114 98s-137 -39 -147 -102c-1 -4 -1 -9 -1 -13c0 -42 36 -64 67 -75c42 -14 105 -34 143 -46
c54 -17 110 -53 110 -132c0 -9 0 -19 -2 -30c-16 -99 -117 -173 -261 -173c-152 0 -205 91 -207 155z" />
    <glyph glyph-name="uni021A" unicode="&#x21a;" horiz-adv-x="620" 
d="M235 -190c-10 -5 -22 -7 -34 -7c-32 0 -54 18 -54 47c0 4 0 7 1 11c6 40 35 68 79 68c52 0 69 -35 69 -72c0 -7 -1 -15 -2 -22c-15 -95 -92 -154 -147 -176l-18 32c39 16 88 58 106 119zM89 708l12 72h546l-12 -72h-225l-112 -708h-96l112 708h-225z" />
    <glyph glyph-name="uni021B" unicode="&#x21b;" horiz-adv-x="415" 
d="M205 -190c-10 -5 -22 -7 -34 -7c-32 0 -54 18 -54 47c0 4 0 7 1 11c6 40 35 68 79 68c52 0 69 -35 69 -72c0 -7 -1 -15 -2 -22c-15 -95 -92 -154 -147 -176l-18 32c39 16 88 58 106 119zM61 542l9 58h98l20 128l87 7l-21 -135h156l-9 -58h-155l-65 -409
c-2 -12 -3 -22 -3 -31c0 -39 18 -50 52 -50c44 0 88 17 106 27l12 -60c-30 -16 -81 -32 -139 -32c-75 0 -123 29 -123 102c0 10 1 21 3 32l67 421h-95z" />
    <glyph glyph-name="uni0237" unicode="&#x237;" horiz-adv-x="310" 
d="M-85 -164c73 24 125 62 138 145l98 619h90l-99 -624c-17 -109 -110 -171 -208 -199z" />
    <glyph glyph-name="uni0251" unicode="&#x251;" horiz-adv-x="675" 
d="M48 288l3 24c22 142 112 301 298 301c90 0 140 -55 167 -119l24 106h77l-73 -463c-2 -12 -3 -23 -3 -32c0 -37 17 -53 58 -58l-31 -60c-44 6 -105 28 -105 107c0 6 0 13 1 20c-49 -67 -120 -127 -214 -127c-156 0 -208 112 -208 231c0 23 2 47 6 70zM495 378
c-6 82 -47 168 -147 168c-112 0 -184 -90 -207 -234l-3 -24c-4 -25 -6 -48 -6 -69c0 -103 46 -165 139 -165c100 0 167 86 199 168z" />
    <glyph glyph-name="uni0259" unicode="&#x259;" horiz-adv-x="640" 
d="M567 314l-5 -28c-22 -142 -109 -304 -312 -304c-146 0 -214 94 -214 208c0 16 1 32 4 48c4 25 10 51 19 76h420c4 25 6 47 6 69c0 103 -45 170 -144 170c-90 0 -148 -60 -163 -106l-86 8c21 64 107 163 259 163c171 0 222 -111 222 -230c0 -25 -2 -50 -6 -74zM469 256
h-341c-1 -7 -2 -13 -3 -19c-3 -17 -4 -32 -4 -47c0 -94 54 -144 139 -144c110 0 181 84 209 210z" />
    <glyph glyph-name="uni0261" unicode="&#x261;" horiz-adv-x="670" 
d="M52 315c22 136 111 298 297 298c90 0 140 -56 167 -120l24 107h77l-100 -631c-18 -115 -123 -197 -265 -197c-140 0 -205 69 -213 115l88 23c5 -28 43 -75 135 -75c88 0 156 44 170 134l27 167c-47 -64 -115 -119 -204 -119c-156 0 -209 114 -209 231c0 23 2 45 6 67z
M494 375c-6 82 -45 172 -145 172c-112 0 -185 -94 -207 -232c-4 -23 -6 -45 -6 -66c0 -101 46 -166 139 -166c100 0 168 90 200 172z" />
    <glyph glyph-name="uni02BB" unicode="&#x2bb;" horiz-adv-x="240" 
d="M235 647c-6 -41 -39 -70 -83 -70c-52 0 -73 37 -73 82c0 8 1 17 2 26c16 104 96 177 167 220l22 -39c-54 -33 -103 -84 -122 -157c8 3 18 4 28 4c36 0 60 -22 60 -55c0 -4 0 -7 -1 -11z" />
    <glyph glyph-name="uni02BC" unicode="&#x2bc;" horiz-adv-x="240" 
d="M99 803c6 41 39 70 83 70c52 0 73 -37 73 -82c0 -8 -1 -17 -2 -26c-16 -104 -96 -177 -167 -220l-22 39c54 33 103 84 122 157c-8 -3 -17 -4 -27 -4c-36 0 -61 21 -61 55c0 4 0 7 1 11z" />
    <glyph glyph-name="uni02BD" unicode="&#x2bd;" horiz-adv-x="240" 
d="M259 803c-6 -40 -40 -66 -80 -66c-10 0 -19 1 -27 4c0 -5 -1 -9 -1 -14c0 -65 32 -112 73 -143l-34 -39c-50 38 -100 99 -100 184c0 11 1 24 3 36c9 56 43 108 105 108c39 0 62 -24 62 -58c0 -4 0 -8 -1 -12z" />
    <glyph glyph-name="uni02BE" unicode="&#x2be;" horiz-adv-x="180" 
d="M201 765c-10 -64 -65 -108 -132 -108l7 44c40 0 70 26 76 64c1 4 1 8 1 12c0 31 -21 52 -57 52l7 44c60 0 99 -35 99 -89c0 -6 0 -13 -1 -19z" />
    <glyph glyph-name="uni02BF" unicode="&#x2bf;" horiz-adv-x="180" 
d="M101 765c10 64 65 108 132 108l-7 -44c-40 0 -70 -26 -76 -64c-1 -4 -1 -8 -1 -12c0 -31 21 -52 57 -52l-7 -44c-60 0 -99 35 -99 89c0 6 0 13 1 19z" />
    <glyph glyph-name="circumflex" unicode="&#x2c6;" horiz-adv-x="510" 
d="M121 713l199 149h24l151 -149l-33 -31l-142 106l-176 -106z" />
    <glyph glyph-name="caron" unicode="&#x2c7;" horiz-adv-x="510" 
d="M515 842l-198 -149h-24l-152 149l33 31l142 -106l176 106z" />
    <glyph glyph-name="uni02C8" unicode="&#x2c8;" horiz-adv-x="210" 
d="M121 682l33 210h64l-33 -210h-64z" />
    <glyph glyph-name="uni02C9" unicode="&#x2c9;" horiz-adv-x="510" 
d="M127 750l9 60h374l-9 -60h-374z" />
    <glyph glyph-name="uni02CA" unicode="&#x2ca;" horiz-adv-x="330" 
d="M373 840l-251 -142l-21 36l242 168z" />
    <glyph glyph-name="uni02CB" unicode="&#x2cb;" horiz-adv-x="330" 
d="M103 840l50 62l188 -168l-31 -36z" />
    <glyph glyph-name="uni02CC" unicode="&#x2cc;" horiz-adv-x="210" 
d="M-33 -293l33 210h64l-33 -210h-64z" />
    <glyph glyph-name="uni02D7" unicode="&#x2d7;" horiz-adv-x="330" 
d="M25 395h286l-12 -70h-286z" />
    <glyph glyph-name="breve" unicode="&#x2d8;" horiz-adv-x="510" 
d="M141 838l60 19c4 -48 26 -102 114 -102s126 54 146 102l54 -19c-29 -68 -93 -141 -210 -141s-157 73 -164 141z" />
    <glyph glyph-name="dotaccent" unicode="&#x2d9;" horiz-adv-x="330" 
d="M239 848c37 0 63 -21 63 -56c0 -4 0 -8 -1 -12c-7 -42 -42 -68 -83 -68c-37 0 -62 21 -62 55c0 4 0 9 1 13c7 42 41 68 82 68z" />
    <glyph glyph-name="ring" unicode="&#x2da;" horiz-adv-x="330" 
d="M209 657c-60 0 -99 35 -99 89c0 6 0 13 1 19c10 64 65 108 132 108c60 0 99 -35 99 -89c0 -6 0 -13 -1 -19c-10 -64 -65 -108 -132 -108zM216 701c40 0 70 26 76 64c1 4 1 8 1 12c0 31 -21 52 -57 52c-40 0 -70 -26 -76 -64c-1 -4 -1 -8 -1 -12c0 -31 21 -52 57 -52z" />
    <glyph glyph-name="ogonek" unicode="&#x2db;" horiz-adv-x="330" 
d="M5 -142c13 85 70 140 118 180l26 -26c-37 -34 -72 -79 -83 -147c-1 -7 -2 -12 -2 -18c0 -36 22 -51 51 -51c28 0 53 9 66 16l9 -44c-27 -13 -57 -20 -93 -20c-63 0 -94 35 -94 87c0 7 1 15 2 23z" />
    <glyph glyph-name="tilde" unicode="&#x2dc;" horiz-adv-x="510" 
d="M125 737c28 51 66 120 130 120c50 0 72 -31 91 -52c18 -21 30 -42 49 -42c32 0 61 61 75 87l44 -17c-26 -52 -66 -120 -129 -120c-50 0 -73 31 -92 52c-18 21 -29 42 -48 42c-32 0 -61 -61 -75 -87z" />
    <glyph glyph-name="hungarumlaut" unicode="&#x2dd;" horiz-adv-x="510" 
d="M122 723l146 189l50 -40l-166 -174zM325 723l146 189l49 -40l-165 -174z" />
    <glyph glyph-name="uni0300" unicode="&#x300;" 
d="M-77 840l50 62l188 -168l-31 -36z" />
    <glyph glyph-name="uni0301" unicode="&#x301;" 
d="M223 840l-251 -142l-21 36l242 168z" />
    <glyph glyph-name="uni0302" unicode="&#x302;" 
d="M-134 713l199 149h24l151 -149l-33 -31l-142 106l-176 -106z" />
    <glyph glyph-name="uni0303" unicode="&#x303;" 
d="M-130 737c28 51 66 120 130 120c50 0 72 -31 91 -52c18 -21 30 -42 49 -42c32 0 61 61 75 87l44 -17c-26 -52 -66 -120 -129 -120c-50 0 -73 31 -92 52c-18 21 -29 42 -48 42c-32 0 -61 -61 -75 -87z" />
    <glyph glyph-name="uni0304" unicode="&#x304;" 
d="M-128 750l9 60h374l-9 -60h-374z" />
    <glyph glyph-name="uni0305" unicode="&#x305;" 
d="M-218 750l9 60h554l-9 -60h-554z" />
    <glyph glyph-name="uni0306" unicode="&#x306;" 
d="M-114 838l60 19c4 -48 26 -102 114 -102s126 54 146 102l54 -19c-29 -68 -93 -141 -210 -141s-157 73 -164 141z" />
    <glyph glyph-name="uni0307" unicode="&#x307;" 
d="M74 848c37 0 63 -21 63 -56c0 -4 0 -8 -1 -12c-7 -42 -42 -68 -83 -68c-37 0 -62 21 -62 55c0 4 0 9 1 13c7 42 41 68 82 68z" />
    <glyph glyph-name="uni0308" unicode="&#x308;" 
d="M-123 780c6 39 40 63 78 63c34 0 59 -19 59 -52c0 -3 0 -7 -1 -11c-6 -39 -40 -63 -78 -63c-34 0 -59 19 -59 52c0 3 0 7 1 11zM115 780c6 39 40 63 78 63c34 0 59 -19 59 -52c0 -3 0 -7 -1 -11c-6 -39 -40 -63 -78 -63c-34 0 -59 19 -59 52c0 3 0 7 1 11z" />
    <glyph glyph-name="uni0309" unicode="&#x309;" 
d="M-27 869c31 16 63 26 112 26c52 0 89 -25 89 -70c0 -5 0 -10 -1 -15c-13 -84 -86 -113 -155 -135l-11 32c58 24 99 45 107 93c0 3 1 6 1 9c0 22 -15 34 -47 34c-35 0 -73 -10 -97 -22z" />
    <glyph glyph-name="uni030A" unicode="&#x30a;" 
d="M44 657c-60 0 -99 35 -99 89c0 6 0 13 1 19c10 64 65 108 132 108c60 0 99 -35 99 -89c0 -6 0 -13 -1 -19c-10 -64 -65 -108 -132 -108zM51 701c40 0 70 26 76 64c1 4 1 8 1 12c0 31 -21 52 -57 52c-40 0 -70 -26 -76 -64c-1 -4 -1 -8 -1 -12c0 -31 21 -52 57 -52z" />
    <glyph glyph-name="uni030B" unicode="&#x30b;" 
d="M-103 723l146 189l50 -40l-166 -174zM100 723l146 189l49 -40l-165 -174z" />
    <glyph glyph-name="uni030C" unicode="&#x30c;" 
d="M260 842l-198 -149h-24l-152 149l33 31l142 -106l176 106z" />
    <glyph glyph-name="uni030D" unicode="&#x30d;" 
d="M16 682l33 210h64l-33 -210h-64z" />
    <glyph glyph-name="uni030E" unicode="&#x30e;" 
d="M-79 682l33 210h62l-33 -210h-62zM114 682l33 210h61l-33 -210h-61z" />
    <glyph glyph-name="uni030F" unicode="&#x30f;" 
d="M213 723l-38 -25l-112 174l62 40zM10 723l-38 -25l-111 174l61 40z" />
    <glyph glyph-name="uni0311" unicode="&#x311;" 
d="M238 702l-60 -19c-4 48 -26 102 -114 102s-126 -54 -146 -102l-54 19c29 68 93 141 210 141s157 -73 164 -141z" />
    <glyph glyph-name="uni0312" unicode="&#x312;" 
d="M55 820c10 5 22 7 34 7c32 0 54 -18 54 -47c0 -4 0 -7 -1 -11c-6 -40 -35 -68 -79 -68c-52 0 -69 35 -69 72c0 7 1 15 2 22c15 95 92 154 147 176l18 -32c-39 -16 -88 -58 -106 -119z" />
    <glyph glyph-name="uni0313" unicode="&#x313;" 
d="M90 850c-10 -5 -22 -7 -34 -7c-32 0 -54 18 -54 47c0 4 0 7 1 11c6 40 34 68 78 68c52 0 70 -35 70 -73c0 -7 -1 -14 -2 -21c-15 -95 -92 -154 -147 -176l-18 32c39 16 88 58 106 119z" />
    <glyph glyph-name="uni0314" unicode="&#x314;" 
d="M60 850v-5c0 -58 36 -98 68 -114l-28 -32c-44 20 -93 69 -93 146c0 10 0 19 2 30c7 44 34 94 96 94c39 0 59 -22 59 -55c0 -4 0 -8 -1 -13c-6 -36 -35 -58 -71 -58c-12 0 -24 2 -32 7z" />
    <glyph glyph-name="uni0315" unicode="&#x315;" horiz-adv-x="240" 
d="M182 710c-10 -5 -22 -7 -34 -7c-32 0 -53 18 -53 47c0 4 0 7 1 11c6 40 34 68 78 68c52 0 69 -35 69 -72c0 -7 -1 -15 -2 -22c-15 -95 -91 -154 -146 -176l-18 32c39 16 87 58 105 119z" />
    <glyph glyph-name="uni031B" unicode="&#x31b;" horiz-adv-x="60" 
d="M-70 537c25 5 78 33 88 98c1 6 1 11 1 16c0 22 -8 37 -16 48l61 33c12 -16 21 -39 21 -68c0 -8 0 -17 -2 -26c-13 -83 -92 -127 -144 -138z" />
    <glyph glyph-name="uni0323" unicode="&#x323;" 
d="M-78 -112c37 0 62 -21 62 -55c0 -4 0 -9 -1 -13c-7 -42 -41 -68 -82 -68c-37 0 -63 21 -63 56c0 4 0 8 1 12c7 42 42 68 83 68z" />
    <glyph glyph-name="uni0324" unicode="&#x324;" 
d="M-276 -180c6 39 40 63 78 63c34 0 59 -19 59 -52c0 -3 0 -7 -1 -11c-6 -39 -39 -63 -77 -63c-34 0 -60 19 -60 52c0 3 0 7 1 11zM-38 -180c6 39 40 63 78 63c34 0 59 -19 59 -52c0 -3 0 -7 -1 -11c-6 -39 -39 -63 -77 -63c-34 0 -60 19 -60 52c0 3 0 7 1 11z" />
    <glyph glyph-name="uni0326" unicode="&#x326;" 
d="M-75 -190c-10 -5 -22 -7 -34 -7c-32 0 -54 18 -54 47c0 4 0 7 1 11c6 40 35 68 79 68c52 0 69 -35 69 -72c0 -7 -1 -15 -2 -22c-15 -95 -92 -154 -147 -176l-18 32c39 16 88 58 106 119z" />
    <glyph glyph-name="uni0327" unicode="&#x327;" 
d="M-195 -284c67 16 157 44 167 109c0 2 1 5 1 7c0 20 -17 38 -69 38c-16 0 -36 -3 -47 -5l-24 28l84 117h53l-72 -99c7 1 15 1 23 1c71 0 112 -26 112 -73c0 -5 0 -9 -1 -14c-17 -108 -164 -139 -219 -153z" />
    <glyph glyph-name="uni0328" unicode="&#x328;" 
d="M-160 -142c13 85 70 140 118 180l26 -26c-37 -34 -72 -79 -83 -147c-1 -7 -2 -12 -2 -18c0 -36 22 -51 51 -51c28 0 53 9 66 16l9 -44c-27 -13 -57 -20 -93 -20c-63 0 -94 35 -94 87c0 7 1 15 2 23z" />
    <glyph glyph-name="uni0329" unicode="&#x329;" 
d="M-138 -293l33 210h64l-33 -210h-64z" />
    <glyph glyph-name="uni032E" unicode="&#x32e;" 
d="M-262 -97l60 19c4 -48 25 -102 113 -102s127 54 147 102l54 -19c-29 -68 -93 -141 -210 -141s-157 73 -164 141z" />
    <glyph glyph-name="uni0331" unicode="&#x331;" 
d="M-280 -210l9 60h374l-9 -60h-374z" />
    <glyph glyph-name="uni0332" unicode="&#x332;" 
d="M-370 -210l9 60h554l-9 -60h-554z" />
    <glyph glyph-name="uni034F" unicode="&#x34f;" 
 />
    <glyph glyph-name="uni0351" unicode="&#x351;" 
d="M-9 765c10 64 65 108 132 108l-7 -44c-40 0 -70 -26 -76 -64c-1 -4 -1 -8 -1 -12c0 -31 21 -52 57 -52l-7 -44c-60 0 -99 35 -99 89c0 6 0 13 1 19z" />
    <glyph glyph-name="uni0357" unicode="&#x357;" 
d="M131 765c-10 -64 -65 -108 -132 -108l7 44c40 0 70 26 76 64c1 4 1 8 1 12c0 31 -21 52 -57 52l7 44c60 0 99 -35 99 -89c0 -6 0 -13 -1 -19z" />
    <glyph glyph-name="uni0358" unicode="&#x358;" horiz-adv-x="180" 
d="M111 668c37 0 62 -21 62 -55c0 -4 0 -9 -1 -13c-7 -42 -42 -68 -83 -68c-37 0 -62 21 -62 55c0 4 0 9 1 13c7 42 42 68 83 68z" />
    <glyph glyph-name="pi" unicode="&#x3c0;" horiz-adv-x="660" 
d="M67 537l10 63h575l-10 -63h-80l-64 -407c-1 -6 -2 -12 -2 -17c0 -46 38 -61 98 -66l-27 -60c-71 6 -163 25 -163 112c0 7 1 15 2 23l66 415h-235l-85 -537h-90l85 537h-80z" />
    <glyph glyph-name="uni0E01" unicode="&#xe01;" horiz-adv-x="655" 
d="M48 0l47 297c8 53 40 85 86 99l-118 23c30 104 132 199 290 199c141 0 226 -73 226 -180c0 -11 -1 -23 -3 -35l-64 -403h-85l64 403c2 11 3 20 3 30c0 80 -59 121 -151 121c-89 0 -154 -44 -185 -113l146 -30l-15 -37c-3 0 -21 3 -31 3c-43 0 -69 -24 -77 -72l-48 -305
h-85z" />
    <glyph glyph-name="uni0E02" unicode="&#xe02;" horiz-adv-x="635" 
d="M150 528c-31 0 -56 -22 -61 -52c-1 -3 -1 -7 -1 -10c0 -25 17 -42 45 -42c31 0 55 22 60 52c1 3 1 7 1 10c0 25 -17 42 -44 42zM38 476c11 72 84 136 194 136c97 0 152 -46 152 -118c0 -8 -1 -16 -2 -25c-23 -146 -187 -176 -209 -314c-1 -7 -2 -14 -2 -20
c0 -57 44 -89 111 -89c73 0 135 41 149 128l67 426h85l-67 -426c-17 -108 -112 -192 -244 -192c-118 0 -187 59 -187 142c0 8 1 16 2 25c28 174 211 195 232 325c1 6 2 12 2 18c0 49 -39 75 -104 75c-8 0 -15 0 -22 -1c32 -11 50 -37 50 -72c0 -6 0 -12 -1 -18
c-9 -57 -58 -96 -118 -96c-54 0 -89 31 -89 79c0 5 0 11 1 17z" />
    <glyph glyph-name="uni0E03" unicode="&#xe03;" horiz-adv-x="635" 
d="M154 564c-31 0 -55 -22 -60 -52c-1 -3 -1 -7 -1 -10c0 -25 17 -42 45 -42c31 0 55 22 60 52c1 3 1 7 1 10c0 25 -17 42 -45 42zM85 148c28 174 217 202 239 342c1 5 1 10 2 14c-35 -56 -90 -99 -175 -99c-75 0 -110 36 -110 87c0 6 1 13 2 20c9 57 58 96 118 96
c54 0 89 -31 89 -79c0 -5 0 -11 -1 -17c-3 -22 -13 -41 -26 -56c51 28 90 85 109 143l34 4c11 -22 21 -48 21 -86c0 -11 -1 -24 -3 -37c-23 -146 -191 -188 -213 -326c-1 -7 -2 -13 -2 -19c0 -58 46 -89 113 -89c73 0 133 40 147 127l68 427h85l-68 -427
c-17 -108 -110 -191 -242 -191c-119 0 -189 58 -189 141c0 8 1 17 2 25z" />
    <glyph glyph-name="uni0E04" unicode="&#xe04;" horiz-adv-x="665" 
d="M329 373c-31 0 -55 -22 -60 -52c-1 -3 -1 -7 -1 -10c0 -25 17 -42 45 -42c31 0 55 22 60 52c1 3 1 7 1 10c0 25 -17 42 -45 42zM336 417c54 0 90 -32 90 -80c0 -5 0 -10 -1 -16c-9 -57 -59 -96 -119 -96c-42 0 -72 19 -83 50c-29 -41 -57 -97 -76 -170l-21 -105h-93
s22 73 29 120c6 42 7 70 7 100v23c0 38 1 83 13 160c20 126 133 215 286 215c138 0 222 -73 222 -180c0 -11 -1 -23 -3 -35l-64 -403h-85l17 105c6 40 35 202 50 298c2 11 3 20 3 30c0 80 -59 121 -150 121c-102 0 -178 -51 -194 -151c-15 -96 -18 -148 -19 -189
c28 72 68 138 115 175c21 17 46 28 76 28z" />
    <glyph glyph-name="uni0E05" unicode="&#xe05;" horiz-adv-x="665" 
d="M329 373c-31 0 -55 -22 -60 -52c-1 -3 -1 -7 -1 -10c0 -25 17 -42 45 -42c31 0 55 22 60 52c1 3 1 7 1 10c0 25 -17 42 -45 42zM336 417c54 0 90 -32 90 -80c0 -5 0 -10 -1 -16c-9 -57 -59 -96 -119 -96c-42 0 -72 19 -83 50c-29 -41 -57 -97 -76 -170l-21 -105h-93
s22 73 29 120c6 42 7 70 7 100v23c0 38 1 83 13 160c13 84 61 209 194 209l78 -82l104 82c106 0 133 -80 133 -155c0 -19 -1 -37 -4 -54l-64 -403h-85l17 105c6 40 35 202 50 298c3 19 5 37 5 53c0 57 -20 90 -55 95l-99 -74h-10h-10l-77 74c-48 -6 -84 -59 -98 -148
c-16 -98 -16 -149 -17 -190c28 72 69 139 116 176c21 17 46 28 76 28z" />
    <glyph glyph-name="uni0E06" unicode="&#xe06;" horiz-adv-x="650" 
d="M123 140c-31 0 -55 -22 -60 -52c-1 -3 -1 -7 -1 -10c0 -25 17 -42 45 -42c31 0 55 22 60 52c1 3 1 7 1 10c0 25 -17 42 -45 42zM165 564c-31 0 -55 -22 -60 -52c-1 -3 -1 -7 -1 -10c0 -25 17 -42 45 -42c31 0 55 22 60 52c1 3 1 7 1 10c0 25 -17 42 -45 42zM172 608
c54 0 89 -31 89 -79c0 -5 0 -11 -1 -17c-3 -22 -13 -41 -26 -56c51 28 90 85 109 143l33 4c11 -22 21 -48 21 -86c0 -11 -1 -24 -3 -37c-22 -136 -167 -181 -205 -296c115 -8 190 -57 239 -108c4 30 7 64 12 94l68 430h85l-95 -600h-78c-38 57 -106 115 -204 130
c2 -7 3 -16 3 -24c0 -6 0 -12 -1 -18c-9 -57 -58 -96 -118 -96c-54 0 -89 31 -89 79c0 5 0 11 1 17c8 48 44 83 92 93c45 143 210 178 231 309c1 5 1 10 2 14c-35 -56 -90 -99 -175 -99c-75 0 -110 36 -110 87c0 6 1 13 2 20c9 57 58 96 118 96z" />
    <glyph glyph-name="uni0E07" unicode="&#xe07;" horiz-adv-x="525" 
d="M335 564c-31 0 -55 -22 -60 -52c-1 -3 -1 -7 -1 -10c0 -25 17 -42 45 -42c31 0 55 22 60 52c1 3 1 7 1 10c0 25 -17 42 -45 42zM11 333l59 48l247 -313c-2 10 -3 25 -3 41c0 13 1 26 3 41l25 158c10 62 25 84 36 126c-19 -12 -41 -18 -66 -18c-54 0 -89 31 -89 79
c0 5 0 11 1 17c9 57 58 96 118 96c78 0 118 -40 118 -108c0 -10 -1 -21 -3 -33c-9 -57 -22 -96 -33 -167l-48 -300h-91z" />
    <glyph glyph-name="uni0E08" unicode="&#xe08;" horiz-adv-x="590" 
d="M47 434c27 96 120 184 266 184c130 0 209 -68 209 -167c0 -10 0 -20 -2 -31c-24 -152 -96 -222 -113 -330l-14 -90h-92c2 20 3 39 3 58c0 65 -11 125 -31 168c-21 -35 -60 -58 -105 -58c-54 0 -89 31 -89 79c0 5 0 11 1 17c9 57 58 96 118 96c107 0 143 -115 149 -228
c19 104 67 157 88 288c1 9 2 19 2 27c0 72 -52 107 -134 107c-88 0 -150 -48 -172 -126zM175 212c31 0 55 22 60 52c1 3 1 7 1 10c0 25 -17 42 -45 42c-31 0 -55 -22 -60 -52c-1 -3 -1 -7 -1 -10c0 -25 17 -42 45 -42z" />
    <glyph glyph-name="uni0E09" unicode="&#xe09;" horiz-adv-x="645" 
d="M88 0l18 114c3 22 13 40 23 54h-7c-54 0 -89 31 -89 79c0 5 0 11 1 17c9 57 58 96 118 96c54 0 89 -31 89 -79c0 -5 0 -11 -1 -17c-9 -54 -40 -75 -49 -129l-9 -61c61 54 141 108 243 113c8 9 15 18 17 31l30 194c2 10 2 20 2 29c0 75 -54 113 -141 113
c-95 0 -159 -52 -184 -134l-85 6c30 100 127 192 279 192c135 0 217 -69 217 -173c0 -11 -1 -22 -3 -33l-28 -180c-4 -23 -19 -40 -38 -52c36 -10 58 -37 58 -76c0 -5 0 -10 -1 -16c-9 -57 -58 -96 -118 -96c-54 0 -89 31 -89 79c0 5 0 11 1 17c2 14 6 27 13 38
c-74 -22 -140 -74 -189 -126h-78zM453 140c-31 0 -55 -22 -60 -52c-1 -3 -1 -7 -1 -10c0 -25 17 -42 45 -42c31 0 55 22 60 52c1 3 1 7 1 10c0 25 -17 42 -45 42zM145 316c-31 0 -55 -22 -60 -52c-1 -3 -1 -7 -1 -10c0 -25 17 -42 45 -42c31 0 55 22 60 52c1 3 1 7 1 10
c0 25 -17 42 -45 42z" />
    <glyph glyph-name="uni0E0A" unicode="&#xe0a;" horiz-adv-x="640" 
d="M150 528c-31 0 -56 -22 -61 -52c-1 -3 -1 -7 -1 -10c0 -25 17 -42 45 -42c31 0 55 22 60 52c1 3 1 7 1 10c0 25 -17 42 -44 42zM384 479c89 10 152 62 169 143l82 -7c-16 -76 -85 -136 -172 -159c49 -13 83 -39 83 -82c0 -4 0 -9 -1 -14l-29 -186
c-17 -108 -112 -192 -244 -192c-118 0 -187 59 -187 142c0 8 1 16 2 25c28 174 211 195 232 325c1 6 2 12 2 18c0 49 -39 75 -104 75c-8 0 -15 0 -22 -1c32 -11 50 -37 50 -72c0 -6 0 -12 -1 -18c-9 -57 -58 -96 -118 -96c-54 0 -89 31 -89 79c0 5 0 11 1 17
c11 72 84 136 194 136c97 0 153 -46 153 -118c0 -5 0 -10 -1 -15zM372 432c-42 -115 -179 -152 -199 -277c-1 -7 -2 -14 -2 -20c0 -57 44 -89 111 -89c73 0 135 41 149 128l29 186c1 4 1 8 1 12c0 34 -25 56 -89 60z" />
    <glyph glyph-name="uni0E0B" unicode="&#xe0b;" horiz-adv-x="640" 
d="M85 148c28 174 217 202 239 342c1 5 1 10 2 14c-35 -56 -90 -99 -175 -99c-75 0 -110 36 -110 87c0 6 1 13 2 20c9 57 58 96 118 96c54 0 89 -31 89 -79c0 -5 0 -11 -1 -17c-3 -22 -13 -41 -26 -56c51 28 90 85 109 143l34 4c11 -22 21 -48 21 -86c0 -11 -1 -24 -3 -37
v-1c89 11 151 62 168 143l82 -7c-16 -76 -85 -136 -172 -159c49 -13 83 -39 83 -82c0 -4 0 -9 -1 -14l-30 -187c-17 -108 -110 -191 -242 -191c-119 0 -189 58 -189 141c0 8 1 17 2 25zM154 564c-31 0 -55 -22 -60 -52c-1 -3 -1 -7 -1 -10c0 -25 17 -42 45 -42
c31 0 55 22 60 52c1 3 1 7 1 10c0 25 -17 42 -45 42zM459 360c1 4 1 8 1 12c0 34 -25 56 -90 60c-47 -109 -180 -156 -199 -278c-1 -7 -2 -13 -2 -19c0 -58 46 -89 113 -89c73 0 133 40 147 127z" />
    <glyph glyph-name="uni0E0C" unicode="&#xe0c;" horiz-adv-x="950" 
d="M160 140c-31 0 -55 -22 -60 -52c-1 -3 -1 -7 -1 -10c0 -25 17 -42 45 -42c31 0 55 22 60 52c1 3 1 7 1 10c0 25 -17 42 -45 42zM167 184c54 0 89 -31 89 -79c0 -5 0 -11 -1 -17c-9 -57 -58 -96 -118 -96c-54 0 -89 31 -89 79c0 5 0 11 1 17c7 46 25 78 32 122l14 87
c8 53 40 85 86 99l-118 23c30 104 132 199 290 199c141 0 226 -73 226 -180c0 -11 -1 -23 -3 -35l-29 -185c-2 -15 -3 -28 -3 -39c88 -10 146 -56 183 -104c4 30 7 65 12 95l68 430h85l-95 -600h-78c-35 58 -87 113 -169 127c0 -11 0 -24 -2 -39c-9 -57 -58 -96 -118 -96
c-54 0 -89 31 -89 79c0 5 0 11 1 17c9 57 58 96 118 96h10c-4 10 -7 22 -7 36c0 6 1 13 2 20l26 163c2 11 3 20 3 30c0 80 -59 121 -151 121c-89 0 -154 -44 -185 -113l146 -30l-15 -37c-3 0 -21 3 -31 3c-43 0 -69 -24 -77 -72l-10 -65c-4 -23 -11 -42 -20 -57
c5 1 10 1 16 1zM453 140c-31 0 -55 -22 -60 -52c-1 -3 -1 -7 -1 -10c0 -25 17 -42 45 -42c31 0 55 22 60 52c1 3 1 7 1 10c0 25 -17 42 -45 42z" />
    <glyph glyph-name="uni0E0D" unicode="&#xe0d;" horiz-adv-x="950" 
d="M160 140c-31 0 -55 -22 -60 -52c-1 -3 -1 -7 -1 -10c0 -25 17 -42 45 -42c31 0 55 22 60 52c1 3 1 7 1 10c0 25 -17 42 -45 42zM167 184c54 0 89 -31 89 -79c0 -5 0 -11 -1 -17c-9 -57 -58 -96 -118 -96c-54 0 -89 31 -89 79c0 5 0 11 1 17c7 46 25 78 32 122l14 87
c8 53 40 85 86 99l-118 23c30 104 132 199 290 199c141 0 226 -73 226 -180c0 -11 -1 -23 -3 -35l-40 -253c-1 -8 -2 -16 -2 -23c0 -56 36 -81 87 -81c58 0 109 32 120 104l71 450h85l-71 -450c-15 -94 -99 -168 -215 -168c-104 0 -162 60 -162 140c0 9 0 18 2 28l40 253
c2 11 3 20 3 30c0 80 -59 121 -151 121c-89 0 -154 -44 -185 -113l146 -30l-15 -37c-3 0 -21 3 -31 3c-43 0 -69 -24 -77 -72l-10 -65c-4 -23 -11 -42 -20 -57c5 1 10 1 16 1zM500 -109c-24 0 -44 -17 -48 -41c0 -3 -1 -6 -1 -8c0 -20 15 -33 36 -33c24 0 43 17 47 41
c0 3 1 5 1 8c0 20 -14 33 -35 33zM506 -71c45 0 73 -25 73 -64c0 -5 0 -10 -1 -15c-4 -26 -17 -47 -37 -61h18h25c64 0 120 33 135 127l64 -7c-16 -102 -96 -163 -196 -163h-55c-78 0 -125 31 -125 87c0 5 0 11 1 17c8 48 48 79 98 79z" />
    <glyph glyph-name="uni0E0E" unicode="&#xe0e;" horiz-adv-x="665" 
d="M176 -111c-11 2 -20 3 -29 3c-26 0 -55 -15 -60 -49c-1 -3 -1 -6 -1 -9c0 -26 20 -40 42 -40c30 0 56 21 60 49c1 4 1 8 1 11c0 16 -6 27 -13 35zM363 618c141 0 226 -73 226 -180c0 -11 -1 -23 -3 -35l-77 -483l-24 -155h-77c-50 38 -117 82 -178 107c3 -8 3 -18 1 -29
c-7 -44 -50 -89 -112 -89c-52 0 -84 30 -84 74c0 5 0 10 1 15c9 54 55 89 114 89c82 0 184 -57 262 -111c2 25 6 58 12 99l77 483c2 11 3 20 3 30c0 80 -59 121 -151 121c-89 0 -152 -43 -184 -112l170 -31l-15 -37c-3 0 -21 3 -31 3c-43 0 -69 -24 -77 -72l-15 -95
c-1 -9 -2 -19 -2 -27c0 -23 4 -43 4 -67c0 -9 -1 -18 -2 -28c-9 -57 -58 -96 -118 -96c-54 0 -89 31 -89 79c0 5 0 11 1 17c9 57 58 96 118 96h11c-3 9 -5 21 -5 33c0 7 1 15 2 23l9 57c8 52 40 84 85 98l-142 24c30 104 132 199 290 199zM106 140c-31 0 -55 -22 -60 -52
c-1 -3 -1 -7 -1 -10c0 -25 17 -42 45 -42c31 0 55 22 60 52c1 3 1 7 1 10c0 25 -17 42 -45 42z" />
    <glyph glyph-name="uni0E0F" unicode="&#xe0f;" horiz-adv-x="665" 
d="M106 140c-31 0 -55 -22 -60 -52c-1 -3 -1 -7 -1 -10c0 -25 17 -42 45 -42c31 0 55 22 60 52c1 3 1 7 1 10c0 25 -17 42 -45 42zM363 618c141 0 226 -73 226 -180c0 -11 -1 -23 -3 -35l-77 -483l-24 -155h-77l-113 101c-14 -20 -36 -44 -63 -65c-34 -26 -78 -47 -124 -47
c-53 0 -87 28 -87 73c0 5 0 10 1 16c8 52 53 89 111 89c56 0 85 -37 85 -76c0 -4 0 -9 -1 -13c0 -3 -1 -6 -1 -8c31 28 54 68 63 85h27l106 -98c2 25 6 58 12 98l77 483c2 11 3 20 3 30c0 80 -59 121 -151 121c-89 0 -152 -43 -184 -112l170 -31l-15 -37c-3 0 -21 3 -31 3
c-43 0 -69 -24 -77 -72l-15 -95c-1 -9 -2 -19 -2 -27c0 -23 4 -43 4 -67c0 -9 -1 -18 -2 -28c-9 -57 -58 -96 -118 -96c-54 0 -89 31 -89 79c0 5 0 11 1 17c9 57 58 96 118 96h11c-3 9 -5 21 -5 33c0 7 1 15 2 23l9 57c8 52 40 84 85 98l-142 24c30 104 132 199 290 199z
M73 -157c0 -3 -1 -6 -1 -9c0 -27 21 -40 44 -40c11 0 23 1 33 4c12 10 22 25 25 45c0 3 1 6 1 8c0 24 -18 41 -45 41c-25 0 -52 -17 -57 -49z" />
    <glyph glyph-name="uni0E10" unicode="&#xe10;" horiz-adv-x="555" 
d="M145 286c-31 0 -55 -22 -60 -52c-1 -3 -1 -7 -1 -10c0 -25 17 -42 45 -42c31 0 55 22 60 52c1 3 1 7 1 10c0 25 -17 42 -45 42zM152 330c111 0 146 -119 152 -226c14 63 54 130 64 196c1 4 1 9 1 13c0 67 -92 95 -307 95l3 20c18 115 115 190 235 190
c82 0 129 -35 153 -65c3 5 6 10 8 13l35 46l62 -12l-1 -4l-96 -104h-27c-12 23 -48 68 -130 68c-68 0 -134 -33 -155 -111c192 -6 303 -36 303 -121c0 -6 0 -12 -1 -18c-13 -83 -76 -170 -89 -250l-10 -60h-91c2 16 2 33 2 49c0 59 -10 115 -31 157
c-18 -41 -61 -68 -110 -68c-54 0 -89 31 -89 79c0 5 0 11 1 17c9 57 58 96 118 96zM38 -157c0 -3 -1 -6 -1 -9c0 -27 21 -40 44 -40c11 0 23 1 33 4c12 10 22 25 25 45c0 3 1 6 1 8c0 24 -18 41 -45 41c-25 0 -52 -17 -57 -49zM181 -165c31 28 54 68 63 85h27l76 -91
c3 24 6 54 12 91h65l-24 -155h-57l-86 99c-14 -20 -34 -43 -60 -63c-34 -26 -78 -47 -124 -47c-53 0 -87 28 -87 73c0 5 0 10 1 16c8 52 53 89 111 89c56 0 85 -37 85 -76c0 -4 0 -9 -1 -13c0 -3 -1 -6 -1 -8z" />
    <glyph glyph-name="uni0E11" unicode="&#xe11;" horiz-adv-x="665" 
d="M155 564c-31 0 -55 -22 -60 -52c-1 -3 -1 -7 -1 -10c0 -25 17 -42 45 -42c31 0 55 22 60 52c1 3 1 7 1 10c0 25 -17 42 -45 42zM162 608c54 0 89 -31 89 -79c0 -5 0 -11 -1 -17c-3 -22 -13 -41 -26 -56c51 28 90 85 109 143l33 4c10 -21 20 -48 20 -86v-10
c43 53 96 101 143 101c56 0 70 -41 70 -81c0 -13 -1 -25 -3 -37l-78 -490h-85l75 476c1 9 2 18 2 26c0 20 -5 34 -22 35c-32 -7 -87 -68 -121 -113c-46 -103 -160 -151 -179 -269l-25 -155h-85l24 149c28 174 201 201 223 341c1 5 1 10 2 14c-35 -56 -90 -99 -175 -99
c-75 0 -110 36 -110 87c0 6 1 13 2 20c9 57 58 96 118 96z" />
    <glyph glyph-name="uni0E12" unicode="&#xe12;" horiz-adv-x="960" 
d="M329 373c-31 0 -55 -22 -60 -52c-1 -3 -1 -7 -1 -10c0 -25 17 -42 45 -42c31 0 55 22 60 52c1 3 1 7 1 10c0 25 -17 42 -45 42zM464 140c-31 0 -55 -22 -60 -52c-1 -3 -1 -7 -1 -10c0 -25 17 -42 45 -42c31 0 55 22 60 52c1 3 1 7 1 10c0 25 -17 42 -45 42zM276 612
l78 -82l104 82c106 0 133 -80 133 -155c0 -19 -1 -37 -4 -54l-29 -185c-2 -15 -3 -28 -3 -39c88 -10 146 -56 183 -104c4 30 7 65 12 95l68 430h85l-95 -600h-78c-35 58 -87 113 -169 127c0 -11 0 -24 -2 -39c-9 -57 -58 -96 -118 -96c-54 0 -89 31 -89 79c0 5 0 11 1 17
c9 57 58 96 118 96c4 0 8 -1 12 -1c-4 10 -6 21 -6 34c0 7 1 15 2 23l26 163c3 19 5 37 5 53c0 57 -20 90 -55 95l-99 -74h-10h-10l-77 74c-48 -6 -84 -59 -98 -148c-13 -82 -14 -129 -14 -166v-10c0 -24 0 -46 -4 -72l-12 -71c59 60 140 94 195 143c-7 -1 -13 -2 -20 -2
c-54 0 -89 31 -89 79c0 5 0 11 1 17c9 57 58 96 118 96c54 0 89 -31 89 -79c0 -5 0 -11 -1 -17c-25 -158 -239 -197 -294 -321h-97s22 73 29 120c6 42 7 70 7 100v23c0 38 1 83 13 160c13 84 61 209 194 209z" />
    <glyph glyph-name="uni0E13" unicode="&#xe13;" horiz-adv-x="960" 
d="M160 140c-31 0 -55 -22 -60 -52c-1 -3 -1 -7 -1 -10c0 -25 17 -42 45 -42c31 0 55 22 60 52c1 3 1 7 1 10c0 25 -17 42 -45 42zM167 184c54 0 89 -31 89 -79c0 -5 0 -11 -1 -17c-9 -57 -58 -96 -118 -96c-54 0 -89 31 -89 79c0 5 0 11 1 17c7 46 25 78 32 122l14 87
c8 53 40 85 86 99l-118 23c30 104 132 199 290 199c141 0 226 -73 226 -180c0 -11 -1 -23 -3 -35l-37 -233c-4 -27 -11 -58 -16 -86c53 52 123 98 212 103c8 9 15 18 17 31l60 382h85l-58 -368c-4 -23 -19 -40 -38 -52c36 -10 58 -37 58 -76c0 -5 0 -10 -1 -16
c-9 -57 -58 -96 -118 -96c-54 0 -89 31 -89 79c0 5 0 11 1 17c2 13 6 25 12 36c-62 -22 -117 -70 -159 -124h-78l64 403c2 11 3 20 3 30c0 80 -59 121 -151 121c-89 0 -154 -44 -185 -113l146 -30l-15 -37c-3 0 -21 3 -31 3c-43 0 -69 -24 -77 -72l-10 -65
c-4 -23 -11 -42 -20 -57c5 1 10 1 16 1zM763 140c-31 0 -55 -22 -60 -52c-1 -3 -1 -7 -1 -10c0 -25 17 -42 45 -42c31 0 55 22 60 52c1 3 1 7 1 10c0 25 -17 42 -45 42z" />
    <glyph glyph-name="uni0E14" unicode="&#xe14;" horiz-adv-x="665" 
d="M438 0l17 105c6 40 35 202 50 298c2 11 3 20 3 30c0 80 -59 121 -150 121c-102 0 -181 -51 -197 -151c-13 -82 -14 -129 -14 -166v-10c0 -24 0 -46 -4 -72l-12 -71c59 60 140 94 195 143c-7 -1 -13 -2 -20 -2c-54 0 -89 31 -89 79c0 5 0 11 1 17c9 57 58 96 118 96
c54 0 89 -31 89 -79c0 -5 0 -11 -1 -17c-25 -158 -239 -197 -294 -321h-97s22 73 29 120c6 42 7 70 7 100v23c0 38 1 83 13 160c20 126 133 215 286 215c138 0 222 -73 222 -180c0 -11 -1 -23 -3 -35l-64 -403h-85zM329 373c-31 0 -55 -22 -60 -52c-1 -3 -1 -7 -1 -10
c0 -25 17 -42 45 -42c31 0 55 22 60 52c1 3 1 7 1 10c0 25 -17 42 -45 42z" />
    <glyph glyph-name="uni0E15" unicode="&#xe15;" horiz-adv-x="665" 
d="M438 0l17 105c6 40 35 202 50 298c3 19 5 37 5 53c0 57 -20 90 -55 95l-99 -74h-10h-10l-77 74c-48 -6 -84 -59 -98 -148c-13 -82 -14 -129 -14 -166v-10c0 -24 0 -46 -4 -72l-12 -71c59 60 140 94 195 143c-7 -1 -13 -2 -20 -2c-54 0 -89 31 -89 79c0 5 0 11 1 17
c9 57 58 96 118 96c54 0 89 -31 89 -79c0 -5 0 -11 -1 -17c-25 -158 -239 -197 -294 -321h-97s22 73 29 120c6 42 7 70 7 100v23c0 38 1 83 13 160c13 84 61 209 194 209l78 -82l104 82c106 0 133 -80 133 -155c0 -19 -1 -37 -4 -54l-64 -403h-85zM329 373
c-31 0 -55 -22 -60 -52c-1 -3 -1 -7 -1 -10c0 -25 17 -42 45 -42c31 0 55 22 60 52c1 3 1 7 1 10c0 25 -17 42 -45 42z" />
    <glyph glyph-name="uni0E16" unicode="&#xe16;" horiz-adv-x="655" 
d="M353 618c141 0 226 -73 226 -180c0 -11 -1 -23 -3 -35l-64 -403h-85l64 403c2 11 3 20 3 30c0 80 -59 121 -151 121c-89 0 -154 -44 -185 -113l146 -30l-15 -37c-3 0 -21 3 -31 3c-43 0 -69 -24 -77 -72l-10 -65c-4 -23 -11 -42 -20 -57c5 1 10 1 16 1
c54 0 89 -31 89 -79c0 -5 0 -11 -1 -17c-9 -57 -58 -96 -118 -96c-54 0 -89 31 -89 79c0 5 0 11 1 17c7 46 25 78 32 122l14 87c8 53 40 85 86 99l-118 23c30 104 132 199 290 199zM160 140c-31 0 -55 -22 -60 -52c-1 -3 -1 -7 -1 -10c0 -25 17 -42 45 -42c31 0 55 22 60 52
c1 3 1 7 1 10c0 25 -17 42 -45 42z" />
    <glyph glyph-name="uni0E17" unicode="&#xe17;" horiz-adv-x="660" 
d="M145 460c31 0 55 22 60 52c1 3 1 7 1 10c0 25 -17 42 -45 42c-31 0 -55 -22 -60 -52c-1 -3 -1 -7 -1 -10c0 -25 17 -42 45 -42zM138 416c-54 0 -89 31 -89 79c0 5 0 11 1 17c9 57 58 96 118 96c54 0 89 -31 89 -79c0 -5 0 -11 -1 -17c-7 -46 -34 -78 -41 -122l-22 -137
c69 148 185 355 306 355c72 0 93 -51 93 -96c0 -8 -1 -17 -2 -24l-77 -488h-86l75 474c1 6 1 12 1 18c0 24 -8 42 -31 44c-101 -24 -253 -305 -301 -421l-18 -115h-85l57 360c3 22 12 41 22 56h-9z" />
    <glyph glyph-name="uni0E18" unicode="&#xe18;" horiz-adv-x="585" 
d="M50 174l20 126h85l-20 -126c-2 -10 -2 -19 -2 -28c0 -68 45 -100 109 -100c72 0 134 41 148 128l18 114c1 4 1 8 1 12c0 70 -107 103 -333 103l4 25c18 115 115 190 235 190c82 0 129 -35 153 -65c3 5 6 10 8 13l35 46l62 -12l-1 -4l-96 -104h-27c-12 23 -48 68 -130 68
c-69 0 -134 -34 -155 -113c205 -7 331 -43 331 -133c0 -5 0 -10 -1 -16l-19 -124c-17 -108 -111 -192 -243 -192c-118 0 -185 68 -185 160c0 10 1 21 3 32z" />
    <glyph glyph-name="uni0E19" unicode="&#xe19;" horiz-adv-x="650" 
d="M68 0l57 360c4 23 13 41 23 56h-10c-54 0 -89 31 -89 79c0 5 0 11 1 17c9 57 58 96 118 96c54 0 89 -31 89 -79c0 -5 0 -11 -1 -17c-9 -54 -33 -76 -42 -130l-34 -212c-5 -29 -12 -63 -18 -93c64 53 155 105 265 110c8 9 14 18 16 31l60 382h85l-58 -368
c-4 -23 -19 -40 -38 -52c36 -10 58 -37 58 -76c0 -5 0 -10 -1 -16c-9 -57 -58 -96 -118 -96c-54 0 -89 31 -89 79c0 5 0 11 1 17c2 15 7 28 14 40c-85 -21 -159 -75 -211 -128h-78zM454 140c-31 0 -55 -22 -60 -52c-1 -3 -1 -7 -1 -10c0 -25 17 -42 45 -42c31 0 55 22 60 52
c1 3 1 7 1 10c0 25 -17 42 -45 42zM145 460c31 0 55 22 60 52c1 3 1 7 1 10c0 25 -17 42 -45 42c-31 0 -55 -22 -60 -52c-1 -3 -1 -7 -1 -10c0 -25 17 -42 45 -42z" />
    <glyph glyph-name="uni0E1A" unicode="&#xe1a;" horiz-adv-x="700" 
d="M140 460c31 0 55 22 60 52c1 3 1 7 1 10c0 25 -17 42 -45 42c-31 0 -55 -22 -60 -52c-1 -3 -1 -7 -1 -10c0 -25 17 -42 45 -42zM133 416c-54 0 -89 31 -89 79c0 5 0 11 1 17c9 57 58 96 118 96c54 0 89 -31 89 -79c0 -5 0 -11 -1 -17c-7 -46 -34 -78 -41 -122l-33 -206
c-2 -10 -2 -19 -2 -28c0 -73 53 -110 137 -110c94 0 165 46 180 138l66 416h85l-66 -416c-19 -118 -129 -202 -275 -202c-132 0 -213 68 -213 169c0 11 1 22 3 33l28 176c3 22 12 41 22 56h-9z" />
    <glyph glyph-name="uni0E1B" unicode="&#xe1b;" horiz-adv-x="700" 
d="M140 460c31 0 55 22 60 52c1 3 1 7 1 10c0 25 -17 42 -45 42c-31 0 -55 -22 -60 -52c-1 -3 -1 -7 -1 -10c0 -25 17 -42 45 -42zM133 416c-54 0 -89 31 -89 79c0 5 0 11 1 17c9 57 58 96 118 96c54 0 89 -31 89 -79c0 -5 0 -11 -1 -17c-7 -46 -34 -78 -41 -122l-33 -206
c-2 -10 -2 -19 -2 -28c0 -73 53 -110 137 -110c94 0 165 46 180 138l99 626h85l-99 -626c-19 -118 -129 -202 -275 -202c-132 0 -213 68 -213 169c0 11 1 22 3 33l28 176c3 22 12 41 22 56h-9z" />
    <glyph glyph-name="uni0E1C" unicode="&#xe1c;" horiz-adv-x="715" 
d="M506 162l69 438h83l-95 -600h-79l-139 298l-233 -298h-80l48 300c12 73 3 110 12 167c14 87 72 141 162 141c54 0 89 -31 89 -79c0 -5 0 -11 -1 -17c-9 -57 -58 -96 -118 -96c-26 0 -48 8 -64 21v-6c0 -29 7 -48 7 -80c0 -12 -1 -26 -4 -43l-23 -146
c-4 -23 -10 -46 -16 -65l205 263h26h24l122 -263c0 19 1 42 5 65zM231 460c31 0 55 22 60 52c1 3 1 7 1 10c0 25 -17 42 -45 42c-31 0 -55 -22 -60 -52c-1 -3 -1 -7 -1 -10c0 -25 17 -42 45 -42z" />
    <glyph glyph-name="uni0E1D" unicode="&#xe1d;" horiz-adv-x="715" 
d="M506 162l102 648h83l-128 -810h-79l-139 298l-233 -298h-80l48 300c12 73 3 110 12 167c14 87 72 141 162 141c54 0 89 -31 89 -79c0 -5 0 -11 -1 -17c-9 -57 -58 -96 -118 -96c-26 0 -48 8 -64 21v-6c0 -29 7 -48 7 -80c0 -12 -1 -26 -4 -43l-23 -146
c-4 -23 -10 -46 -16 -65l205 263h26h24l122 -263c0 19 1 42 5 65zM231 460c31 0 55 22 60 52c1 3 1 7 1 10c0 25 -17 42 -45 42c-31 0 -55 -22 -60 -52c-1 -3 -1 -7 -1 -10c0 -25 17 -42 45 -42z" />
    <glyph glyph-name="uni0E1E" unicode="&#xe1e;" horiz-adv-x="735" 
d="M678 600l-95 -600h-74l-120 410l-250 -410h-72l57 360c4 23 13 41 23 56h-11c-54 0 -89 31 -89 79c0 5 0 11 1 17c9 57 58 96 118 96c54 0 89 -31 89 -79c0 -5 0 -11 -1 -17c-8 -49 -36 -79 -44 -127l-31 -193c-3 -17 -7 -37 -12 -54l214 357h21h21l103 -360
c1 17 2 39 5 57l65 408h82zM143 460c31 0 55 22 60 52c1 3 1 7 1 10c0 25 -17 42 -45 42c-31 0 -55 -22 -60 -52c-1 -3 -1 -7 -1 -10c0 -25 17 -42 45 -42z" />
    <glyph glyph-name="uni0E1F" unicode="&#xe1f;" horiz-adv-x="735" 
d="M711 810l-128 -810h-74l-120 410l-250 -410h-72l57 360c4 23 13 41 23 56h-11c-54 0 -89 31 -89 79c0 5 0 11 1 17c9 57 58 96 118 96c54 0 89 -31 89 -79c0 -5 0 -11 -1 -17c-8 -49 -36 -79 -44 -127l-31 -193c-3 -17 -7 -37 -12 -54l214 357h21h21l103 -360
c1 17 2 39 5 57l98 618h82zM143 460c31 0 55 22 60 52c1 3 1 7 1 10c0 25 -17 42 -45 42c-31 0 -55 -22 -60 -52c-1 -3 -1 -7 -1 -10c0 -25 17 -42 45 -42z" />
    <glyph glyph-name="uni0E20" unicode="&#xe20;" horiz-adv-x="665" 
d="M106 140c-31 0 -55 -22 -60 -52c-1 -3 -1 -7 -1 -10c0 -25 17 -42 45 -42c31 0 55 22 60 52c1 3 1 7 1 10c0 25 -17 42 -45 42zM363 618c141 0 226 -73 226 -180c0 -11 -1 -23 -3 -35l-64 -403h-85l64 403c2 11 3 20 3 30c0 80 -59 121 -151 121
c-89 0 -152 -43 -184 -112l170 -31l-15 -37c-3 0 -21 3 -31 3c-43 0 -69 -24 -77 -72l-15 -95c-1 -9 -2 -19 -2 -27c0 -23 4 -43 4 -67c0 -9 -1 -18 -2 -28c-9 -57 -58 -96 -118 -96c-54 0 -89 31 -89 79c0 5 0 11 1 17c9 57 58 96 118 96h11c-3 9 -5 21 -5 33
c0 7 1 15 2 23l9 57c8 52 40 84 85 98l-142 24c30 104 132 199 290 199z" />
    <glyph glyph-name="uni0E21" unicode="&#xe21;" horiz-adv-x="645" 
d="M114 140c-31 0 -55 -22 -60 -52c-1 -3 -1 -7 -1 -10c0 -25 17 -42 45 -42c31 0 55 22 60 52c1 3 1 7 1 10c0 25 -17 42 -45 42zM155 460c31 0 55 22 60 52c1 3 1 7 1 10c0 25 -17 42 -45 42c-31 0 -55 -22 -60 -52c-1 -3 -1 -7 -1 -10c0 -25 17 -42 45 -42zM148 416
c-54 0 -89 31 -89 79c0 5 0 11 1 17c9 57 58 96 118 96c54 0 89 -31 89 -79c0 -5 0 -11 -1 -17c-9 -54 -33 -76 -42 -130l-26 -164c-1 -8 -2 -15 -2 -22c0 -5 1 -9 1 -14c106 -10 179 -58 226 -107c4 30 7 65 12 95l68 430h85l-95 -600h-78c-38 57 -106 114 -206 130
c1 -7 2 -14 2 -22c0 -6 -1 -13 -2 -20c-9 -57 -58 -96 -118 -96c-54 0 -89 31 -89 79c0 5 0 11 1 17c9 57 58 96 118 96h2c-5 11 -9 23 -9 38c0 6 1 12 2 18l19 120c4 23 13 41 23 56h-10z" />
    <glyph glyph-name="uni0E22" unicode="&#xe22;" horiz-adv-x="645" 
d="M242 460c31 0 55 22 60 52c1 3 1 7 1 10c0 25 -17 42 -45 42c-31 0 -55 -22 -60 -52c-1 -3 -1 -7 -1 -10c0 -25 17 -42 45 -42zM508 600h85l-66 -416c-19 -118 -129 -202 -275 -202c-133 0 -213 65 -213 162c0 10 0 20 2 30c13 79 70 121 135 139c-52 21 -91 64 -91 128
c0 8 1 17 2 26c13 84 82 141 178 141c54 0 89 -31 89 -79c0 -5 0 -11 -1 -17c-9 -57 -58 -96 -118 -96c-47 0 -79 24 -87 61c0 -2 -2 -5 -2 -7c-1 -8 -2 -15 -2 -22c0 -77 73 -108 175 -108l-8 -50c-94 0 -172 -30 -185 -112c-1 -9 -2 -18 -2 -26c0 -71 54 -106 138 -106
c94 0 165 46 180 138z" />
    <glyph glyph-name="uni0E23" unicode="&#xe23;" horiz-adv-x="530" 
d="M418 554c3 5 6 9 8 12l35 46l62 -12l-1 -4l-95 -103h-27c-12 23 -45 67 -125 67c-67 0 -129 -34 -150 -113c167 -6 274 -34 274 -118c0 -6 -1 -12 -2 -18l-20 -131l-11 -69c-11 -70 -63 -119 -141 -119c-54 0 -89 31 -89 79c0 5 0 11 1 17c9 57 58 96 118 96
c15 0 29 -2 40 -7v10c0 9 1 19 2 28l14 86c1 5 1 9 1 13c0 66 -89 89 -275 89l4 25c18 115 112 190 230 190c80 0 124 -34 147 -64zM248 140c-31 0 -55 -22 -60 -52c-1 -3 -1 -7 -1 -10c0 -25 17 -42 45 -42c31 0 55 22 60 52c1 3 1 7 1 10c0 25 -17 42 -45 42z" />
    <glyph glyph-name="uni0E24" unicode="&#xe24;" horiz-adv-x="655" 
d="M353 618c141 0 226 -73 226 -180c0 -11 -1 -23 -3 -35l-97 -613h-85l97 613c2 11 3 20 3 30c0 80 -59 121 -151 121c-89 0 -154 -44 -185 -113l146 -30l-15 -37c-3 0 -21 3 -31 3c-43 0 -69 -24 -77 -72l-10 -65c-4 -23 -11 -42 -20 -57c5 1 10 1 16 1
c54 0 89 -31 89 -79c0 -5 0 -11 -1 -17c-9 -57 -58 -96 -118 -96c-54 0 -89 31 -89 79c0 5 0 11 1 17c7 46 25 78 32 122l14 87c8 53 40 85 86 99l-118 23c30 104 132 199 290 199zM160 140c-31 0 -55 -22 -60 -52c-1 -3 -1 -7 -1 -10c0 -25 17 -42 45 -42c31 0 55 22 60 52
c1 3 1 7 1 10c0 25 -17 42 -45 42z" />
    <glyph glyph-name="uni0E25" unicode="&#xe25;" horiz-adv-x="635" 
d="M34 106l16 100c11 71 58 148 174 148c111 0 179 -74 216 -145l32 203c2 10 2 20 2 29c0 75 -54 113 -141 113c-95 0 -159 -52 -184 -134l-85 6c30 100 127 192 279 192c135 0 217 -69 217 -173c0 -11 -1 -22 -3 -33l-65 -412h-85l18 113c-16 67 -86 183 -205 183
c-51 0 -81 -34 -88 -78c-3 -20 -8 -34 -11 -42c13 5 27 7 42 7c54 0 89 -31 89 -79c0 -5 0 -11 -1 -17c-9 -57 -58 -96 -118 -96c-16 0 -31 3 -43 8c-37 14 -58 45 -58 86c0 7 1 14 2 21zM156 139c-31 0 -55 -22 -60 -52c-1 -3 -1 -7 -1 -10c0 -25 17 -42 45 -42
c31 0 55 22 60 52c1 3 1 7 1 10c0 25 -17 42 -45 42z" />
    <glyph glyph-name="uni0E26" unicode="&#xe26;" horiz-adv-x="670" 
d="M106 140c-31 0 -55 -22 -60 -52c-1 -3 -1 -7 -1 -10c0 -25 17 -42 45 -42c31 0 55 22 60 52c1 3 1 7 1 10c0 25 -17 42 -45 42zM363 618c141 0 226 -73 226 -180c0 -11 -1 -23 -3 -35l-97 -613h-85l97 613c2 11 3 20 3 30c0 80 -59 121 -151 121
c-89 0 -152 -43 -184 -112l170 -31l-15 -37c-3 0 -21 3 -31 3c-43 0 -69 -24 -77 -72l-15 -95c-1 -9 -2 -19 -2 -27c0 -23 4 -43 4 -67c0 -9 -1 -18 -2 -28c-9 -57 -58 -96 -118 -96c-54 0 -89 31 -89 79c0 5 0 11 1 17c9 57 58 96 118 96h11c-3 9 -5 21 -5 33
c0 7 1 15 2 23l9 57c8 52 40 84 85 98l-142 24c30 104 132 199 290 199z" />
    <glyph glyph-name="uni0E27" unicode="&#xe27;" horiz-adv-x="535" 
d="M35 454c25 82 107 164 238 164c118 0 185 -68 185 -160c0 -10 -1 -21 -3 -32l-38 -246l-11 -69c-11 -70 -63 -119 -141 -119c-54 0 -89 31 -89 79c0 5 0 11 1 17c9 57 58 96 118 96c15 0 29 -2 40 -7v10c0 9 1 19 2 28l33 211c2 10 2 19 2 28c0 68 -45 100 -109 100
c-73 0 -125 -41 -145 -106zM288 140c-31 0 -55 -22 -60 -52c-1 -3 -1 -7 -1 -10c0 -25 17 -42 45 -42c31 0 55 22 60 52c1 3 1 7 1 10c0 25 -17 42 -45 42z" />
    <glyph glyph-name="uni0E28" unicode="&#xe28;" horiz-adv-x="680" 
d="M329 373c-31 0 -55 -22 -60 -52c-1 -3 -1 -7 -1 -10c0 -25 17 -42 45 -42c31 0 55 22 60 52c1 3 1 7 1 10c0 25 -17 42 -45 42zM330 417c43 35 91 73 137 106c-26 20 -63 31 -109 31c-102 0 -178 -51 -194 -151c-15 -96 -18 -148 -19 -189c28 72 68 138 115 175
c20 16 43 27 70 28zM494 491c-38 -26 -78 -54 -114 -82c29 -12 46 -38 46 -72c0 -5 0 -11 -1 -16c-9 -57 -59 -96 -119 -96c-42 0 -72 19 -83 50c-29 -41 -57 -97 -76 -170l-21 -105h-93s22 73 29 120c6 42 7 70 7 100v23c0 38 1 83 13 160c20 126 133 215 286 215
c67 0 120 -17 158 -47c39 32 87 65 144 71l3 -74c-39 -2 -76 -14 -111 -35c18 -27 28 -59 28 -96c0 -11 -1 -23 -3 -34l-64 -403h-85l17 105c6 40 35 202 50 298c2 10 3 20 3 29c0 23 -5 43 -14 59z" />
    <glyph glyph-name="uni0E29" unicode="&#xe29;" horiz-adv-x="710" 
d="M140 460c31 0 55 22 60 52c1 3 1 7 1 10c0 25 -17 42 -45 42c-31 0 -55 -22 -60 -52c-1 -3 -1 -7 -1 -10c0 -25 17 -42 45 -42zM133 416c-54 0 -89 31 -89 79c0 5 0 11 1 17c9 57 58 96 118 96c54 0 89 -31 89 -79c0 -5 0 -11 -1 -17c-7 -46 -34 -78 -41 -122l-33 -206
c-2 -10 -2 -19 -2 -28c0 -73 53 -110 137 -110c94 0 165 46 180 138l12 73c-30 -4 -61 -6 -94 -6c-70 0 -116 26 -116 78c0 5 0 11 1 16c7 44 46 75 92 75c41 0 69 -25 69 -62c0 -4 0 -9 -1 -13c-3 -22 -16 -41 -32 -54c5 1 11 1 15 1c24 0 48 2 72 6l48 302h85l-44 -279
c31 10 58 21 82 33l8 -46c-29 -12 -62 -25 -98 -34l-14 -90c-19 -118 -129 -202 -275 -202c-132 0 -213 68 -213 169c0 11 1 22 3 33l28 176c3 22 12 41 22 56h-9zM381 385c-24 0 -41 -17 -45 -40c-1 -3 -1 -5 -1 -8c0 -19 12 -32 33 -32c24 0 42 17 46 40c0 3 1 5 1 8
c0 19 -13 32 -34 32z" />
    <glyph glyph-name="uni0E2A" unicode="&#xe2a;" horiz-adv-x="650" 
d="M34 106l16 100c11 71 58 148 174 148h1c53 48 136 116 213 171c-25 20 -60 29 -105 29c-95 0 -159 -52 -184 -134l-85 6c30 100 127 192 279 192c65 0 118 -17 156 -45c39 31 84 64 140 69l3 -74c-38 -2 -73 -13 -107 -33c16 -25 25 -55 25 -88c0 -11 -1 -23 -3 -35
l-65 -412h-85l18 113c-16 67 -86 183 -205 183c-51 0 -81 -34 -88 -78c-3 -20 -8 -34 -11 -42c13 5 27 7 42 7c54 0 89 -31 89 -79c0 -5 0 -11 -1 -17c-9 -57 -58 -96 -118 -96c-16 0 -31 3 -43 8c-37 14 -58 45 -58 86c0 7 1 14 2 21zM156 139c-31 0 -55 -22 -60 -52
c-1 -3 -1 -7 -1 -10c0 -25 17 -42 45 -42c31 0 55 22 60 52c1 3 1 7 1 10c0 25 -17 42 -45 42zM275 348c81 -18 135 -79 165 -139l32 203c2 11 3 21 3 31c0 19 -4 35 -11 49c-68 -46 -139 -101 -189 -144z" />
    <glyph glyph-name="uni0E2B" unicode="&#xe2b;" horiz-adv-x="660" 
d="M505 460c31 0 55 22 60 52c1 3 1 7 1 10c0 25 -17 42 -45 42c-31 0 -55 -22 -60 -52c-1 -3 -1 -7 -1 -10c0 -25 17 -42 45 -42zM145 460c31 0 55 22 60 52c1 3 1 7 1 10c0 25 -17 42 -45 42c-31 0 -55 -22 -60 -52c-1 -3 -1 -7 -1 -10c0 -25 17 -42 45 -42zM138 416
c-54 0 -89 31 -89 79c0 5 0 11 1 17c9 57 58 96 118 96c54 0 89 -31 89 -79c0 -5 0 -11 -1 -17c-7 -46 -34 -78 -41 -122l-26 -160c62 86 151 169 248 205c-18 14 -28 36 -28 62c0 5 0 10 1 15c9 57 58 96 118 96c54 0 89 -31 89 -79c0 -5 0 -11 -1 -17
c-7 -45 -39 -79 -81 -91c20 -14 36 -29 36 -53c0 -3 -1 -5 -1 -8l-57 -360h-85l59 375c1 7 1 14 -1 20c-125 -28 -267 -170 -318 -301l-15 -94h-85l57 360c3 22 12 41 22 56h-9z" />
    <glyph glyph-name="uni0E2C" unicode="&#xe2c;" horiz-adv-x="760" 
d="M530 192l37 228c2 10 5 20 9 28c-7 -1 -14 -2 -21 -2c-54 0 -89 31 -89 79c0 5 0 11 1 17c9 57 58 96 118 96c54 0 89 -31 89 -79c0 -5 0 -11 -1 -17c0 -2 -1 -5 -1 -7c19 21 31 49 42 93l52 -6c-21 -73 -59 -112 -105 -138c-3 -14 -7 -28 -10 -49l-69 -435h-73h-1v2
l-124 378l-245 -380h-72l57 360c4 23 13 41 23 56h-11c-54 0 -89 31 -89 79c0 5 0 11 1 17c9 57 58 96 118 96c54 0 89 -31 89 -79c0 -5 0 -11 -1 -17c-8 -49 -36 -79 -44 -127l-31 -193c-3 -21 -10 -45 -16 -63l214 336h21h21l105 -336c1 18 3 43 6 63zM562 490
c31 0 55 22 60 52c1 3 1 7 1 10c0 25 -17 42 -45 42c-31 0 -55 -22 -60 -52c-1 -3 -1 -7 -1 -10c0 -25 17 -42 45 -42zM143 460c31 0 55 22 60 52c1 3 1 7 1 10c0 25 -17 42 -45 42c-31 0 -55 -22 -60 -52c-1 -3 -1 -7 -1 -10c0 -25 17 -42 45 -42z" />
    <glyph glyph-name="uni0E2D" unicode="&#xe2d;" horiz-adv-x="635" 
d="M64 426c30 100 127 192 279 192c135 0 217 -69 217 -173c0 -11 -1 -22 -3 -33l-36 -232c-18 -115 -123 -198 -265 -198c-128 0 -203 67 -203 165c0 11 1 22 3 33l13 84c9 57 58 96 118 96c54 0 89 -31 89 -79c0 -5 0 -11 -1 -17c-9 -57 -58 -96 -118 -96
c-8 0 -16 1 -23 2c-1 -5 -1 -10 -1 -15c0 -73 55 -109 133 -109c86 0 156 44 170 134l36 232c2 10 2 20 2 29c0 75 -54 113 -141 113c-95 0 -159 -52 -184 -134zM180 316c-31 0 -55 -22 -60 -52c-1 -3 -1 -7 -1 -10c0 -25 17 -42 45 -42c31 0 55 22 60 52c1 3 1 7 1 10
c0 25 -17 42 -45 42z" />
    <glyph glyph-name="uni0E2E" unicode="&#xe2e;" horiz-adv-x="640" 
d="M176 316c-31 0 -55 -22 -60 -52c-1 -3 -1 -7 -1 -10c0 -25 17 -42 45 -42c31 0 55 22 60 52c1 3 1 7 1 10c0 25 -17 42 -45 42zM183 360c54 0 89 -31 89 -79c0 -5 0 -11 -1 -17c-9 -57 -58 -96 -118 -96c-8 0 -16 1 -23 2c-1 -5 -1 -10 -1 -15c0 -73 55 -109 133 -109
c86 0 156 44 170 134l19 120c10 64 19 85 25 120c1 6 1 11 1 17c-41 -23 -98 -42 -185 -42c-130 0 -212 39 -212 90c0 2 1 5 1 7v1c10 55 93 125 244 125c109 0 169 -44 195 -83c22 29 37 67 44 102l74 -7c-10 -50 -44 -105 -89 -138c5 -13 8 -30 8 -48c0 -8 -1 -16 -2 -24
l-38 -240c-18 -115 -123 -198 -265 -198c-128 0 -203 67 -203 165c0 11 1 22 3 33l13 84c9 57 58 96 118 96zM161 490c0 -21 33 -43 139 -43c82 0 135 17 170 40c-18 49 -71 76 -152 76c-94 0 -157 -34 -157 -73z" />
    <glyph glyph-name="uni0E2F" unicode="&#xe2f;" horiz-adv-x="495" 
d="M179 564c-31 0 -55 -22 -60 -52c-1 -3 -1 -7 -1 -10c0 -25 17 -42 45 -42c31 0 55 22 60 52c1 3 1 7 1 10c0 25 -17 42 -45 42zM186 608c54 0 89 -31 89 -79c0 -5 0 -11 -1 -17c-4 -24 -13 -44 -29 -60c73 21 117 80 138 144l41 4c8 -12 11 -28 11 -48s-3 -44 -7 -72
l-53 -335c-18 -116 -152 -149 -276 -163l-3 62c118 14 183 32 194 101l42 265c4 27 15 43 23 61c-41 -39 -100 -66 -174 -66c-78 0 -115 37 -115 88c0 6 1 12 2 19c9 57 58 96 118 96z" />
    <glyph glyph-name="uni0E30" unicode="&#xe30;" horiz-adv-x="540" 
d="M191 512c-31 0 -55 -22 -60 -52c-1 -3 -1 -7 -1 -10c0 -25 17 -42 45 -42c31 0 55 22 60 52c1 3 1 7 1 10c0 25 -17 42 -45 42zM198 556c54 0 89 -31 89 -79c0 -5 0 -11 -1 -17c-4 -27 -18 -49 -37 -66h40c72 0 118 56 136 142l70 -9c-20 -100 -90 -180 -210 -180h-76
c-88 0 -130 41 -130 95c0 6 0 12 1 18c9 57 58 96 118 96zM144 212c-31 0 -56 -22 -61 -52c-1 -3 -1 -7 -1 -10c0 -25 17 -42 45 -42c31 0 55 22 60 52c1 3 1 7 1 10c0 25 -17 42 -44 42zM151 256c54 0 88 -31 88 -79c0 -5 0 -11 -1 -17c-4 -27 -17 -49 -36 -66h40
c72 0 117 56 135 142l71 -9c-20 -100 -91 -180 -211 -180h-76c-88 0 -130 41 -130 95c0 6 0 12 1 18c9 57 59 96 119 96z" />
    <glyph glyph-name="uni0E31" unicode="&#xe31;" 
d="M-195 851c-24 0 -44 -17 -48 -41c0 -3 -1 -6 -1 -8c0 -20 15 -33 36 -33c24 0 43 17 47 41c0 3 1 5 1 8c0 20 -14 33 -35 33zM-189 889c45 0 73 -25 73 -64c0 -5 0 -10 -1 -15c-4 -26 -17 -47 -37 -61h18h25c64 0 120 33 135 127l64 -7c-16 -102 -96 -163 -196 -163h-55
c-78 0 -125 31 -125 87c0 5 0 11 1 17c8 48 48 79 98 79z" />
    <glyph glyph-name="uni0E32" unicode="&#xe32;" horiz-adv-x="485" 
d="M37 472c21 72 94 146 211 146c106 0 162 -60 162 -142c0 -10 0 -20 -2 -30l-71 -446h-85l71 446c1 9 2 18 2 26c0 58 -37 82 -87 82c-58 0 -101 -34 -118 -90z" />
    <glyph glyph-name="uni0E33" unicode="&#xe33;" horiz-adv-x="485" 
d="M-101 876c54 0 89 -31 89 -79c0 -5 0 -11 -1 -17c-9 -57 -59 -96 -119 -96c-54 0 -88 31 -88 79c0 5 0 11 1 17c9 57 58 96 118 96zM-108 832c-31 0 -55 -22 -60 -52c-1 -3 -1 -7 -1 -10c0 -25 17 -42 44 -42c31 0 56 22 61 52c1 3 1 7 1 10c0 25 -17 42 -45 42zM37 472
c21 72 94 146 211 146c106 0 162 -60 162 -142c0 -10 0 -20 -2 -30l-71 -446h-85l71 446c1 9 2 18 2 26c0 58 -37 82 -87 82c-58 0 -101 -34 -118 -90z" />
    <glyph glyph-name="uni0E34" unicode="&#xe34;" 
d="M-384 767l263 -44c-19 46 -62 115 -159 115c-46 0 -87 -24 -104 -71zM-62 695l-10 -15l-388 60c12 74 75 145 185 145c166 0 203 -154 213 -190z" />
    <glyph glyph-name="uni0E35" unicode="&#xe35;" 
d="M-98 810l13 80l62 -12l-30 -191l-12 -12l-396 60c12 74 75 145 180 145c106 0 159 -73 185 -130c-2 13 -3 27 -3 40c0 7 0 14 1 20zM-384 763l276 -46c-21 46 -70 116 -173 116c-46 0 -86 -23 -103 -70z" />
    <glyph glyph-name="uni0E36" unicode="&#xe36;" 
d="M-112 837c-31 0 -56 -22 -61 -52c-1 -3 -1 -7 -1 -10c0 -25 17 -42 45 -42c31 0 55 22 60 52c1 3 1 7 1 10c0 25 -17 42 -44 42zM-105 881c54 0 88 -31 88 -79c0 -5 0 -11 -1 -17c-9 -57 -58 -96 -118 -96c-19 0 -35 4 -49 11l-276 35c12 74 75 145 180 145
c40 0 68 -14 89 -33c21 21 53 34 87 34zM-215 813c-16 12 -37 20 -66 20c-46 0 -86 -23 -103 -70l164 -24c-3 9 -5 19 -5 30c0 5 0 11 1 16c2 10 5 19 9 28z" />
    <glyph glyph-name="uni0E37" unicode="&#xe37;" 
d="M-191 860l9 55l52 -12l-28 -178l64 -11c-2 8 -3 17 -3 28c0 6 0 11 1 18l21 130l52 -12l-30 -191l-12 -12l-396 60c12 74 70 145 170 145c51 0 81 -21 100 -47c-2 9 -1 19 0 27zM-179 728c-10 49 -37 105 -112 105c-42 0 -78 -23 -94 -70z" />
    <glyph glyph-name="uni0E38" unicode="&#xe38;" 
d="M-257 -109c-24 0 -44 -17 -48 -41c0 -3 -1 -6 -1 -8c0 -20 15 -33 36 -33c24 0 43 17 47 41c0 3 1 5 1 8c0 20 -14 33 -35 33zM-271 -305l8 55c1 9 5 16 9 23c-7 -1 -14 -2 -22 -2c-45 0 -74 24 -74 64c0 5 0 10 1 15c8 48 48 79 98 79c45 0 73 -25 73 -64
c0 -5 0 -10 -1 -15c-6 -41 -16 -54 -21 -86l-11 -69h-60z" />
    <glyph glyph-name="uni0E39" unicode="&#xe39;" 
d="M-417 -109c-24 0 -44 -17 -48 -41c0 -3 -1 -6 -1 -8c0 -20 15 -33 36 -33c24 0 43 17 47 41c0 3 1 5 1 8c0 20 -14 33 -35 33zM-339 -150c-6 -38 -18 -49 -21 -71l-3 -19v-5c0 -15 13 -25 48 -25c39 0 55 13 58 30l26 163h59l-27 -168c-7 -44 -58 -65 -122 -65
c-60 0 -102 14 -102 51c0 3 1 6 1 9l4 22c-6 -1 -12 -1 -18 -1c-45 0 -74 24 -74 64c0 5 0 10 1 15c8 48 48 79 98 79c45 0 73 -25 73 -64c0 -5 0 -10 -1 -15z" />
    <glyph glyph-name="uni0E3A" unicode="&#xe3a;" 
d="M-223 -82c37 0 62 -21 62 -55c0 -4 0 -9 -1 -13c-7 -42 -42 -68 -83 -68c-37 0 -62 21 -62 55c0 4 0 9 1 13c7 42 42 68 83 68z" />
    <glyph glyph-name="uni0E3F" unicode="&#xe3f;" horiz-adv-x="720" 
d="M463 430c97 -25 158 -83 158 -173c0 -11 -1 -23 -3 -36c-22 -138 -149 -218 -312 -229l-18 -112h-69l18 111c-97 1 -174 7 -199 9l124 780c24 2 101 9 201 9l18 111h69l-19 -116c101 -16 173 -71 173 -161c0 -9 0 -19 -2 -29c-13 -82 -69 -135 -139 -164zM242 717
l-44 -277c30 2 68 3 110 4l44 277h-10c-43 0 -76 -2 -100 -4zM138 64c27 -2 65 -4 110 -4l50 320c-45 0 -83 -2 -110 -4zM378 451c62 17 119 61 131 136c1 8 2 16 2 23c0 55 -35 89 -91 103zM317 62c107 10 192 58 208 159c2 10 2 18 2 27c0 82 -67 121 -160 130z" />
    <glyph glyph-name="uni0E40" unicode="&#xe40;" horiz-adv-x="330" 
d="M162 140c-31 0 -55 -22 -60 -52c-1 -3 -1 -7 -1 -10c0 -25 17 -42 45 -42c31 0 55 22 60 52c1 3 1 7 1 10c0 25 -17 42 -45 42zM169 184c54 0 89 -31 89 -79c0 -5 0 -11 -1 -17c-9 -57 -58 -96 -118 -96c-54 0 -89 31 -89 79c0 5 0 11 1 17c7 46 25 78 32 122l62 390h85
l-57 -360c-4 -23 -11 -42 -20 -57c5 1 10 1 16 1z" />
    <glyph glyph-name="uni0E41" unicode="&#xe41;" horiz-adv-x="630" 
d="M462 140c-31 0 -55 -22 -60 -52c-1 -3 -1 -7 -1 -10c0 -25 17 -42 45 -42c31 0 55 22 60 52c1 3 1 7 1 10c0 25 -17 42 -45 42zM469 184c54 0 89 -31 89 -79c0 -5 0 -11 -1 -17c-9 -57 -58 -96 -118 -96c-54 0 -89 31 -89 79c0 5 0 11 1 17c7 46 25 78 32 122l62 390h85
l-57 -360c-4 -23 -11 -42 -20 -57c5 1 10 1 16 1zM162 140c-31 0 -55 -22 -60 -52c-1 -3 -1 -7 -1 -10c0 -25 17 -42 45 -42c31 0 55 22 60 52c1 3 1 7 1 10c0 25 -17 42 -45 42zM169 184c54 0 89 -31 89 -79c0 -5 0 -11 -1 -17c-9 -57 -58 -96 -118 -96
c-54 0 -89 31 -89 79c0 5 0 11 1 17c7 46 25 78 32 122l62 390h85l-57 -360c-4 -23 -11 -42 -20 -57c5 1 10 1 16 1z" />
    <glyph glyph-name="uni0E42" unicode="&#xe42;" horiz-adv-x="380" 
d="M204 140c-31 0 -55 -22 -60 -52c-1 -3 -1 -7 -1 -10c0 -25 17 -42 45 -42c31 0 55 22 60 52c1 3 1 7 1 10c0 25 -17 42 -45 42zM211 184c54 0 89 -31 89 -79c0 -5 0 -11 -1 -17c-9 -57 -58 -96 -118 -96c-54 0 -89 31 -89 79c0 5 0 11 1 17c7 46 25 78 32 122l67 420
c2 10 3 19 3 27c0 42 -28 61 -142 61l3 22c16 100 94 172 204 172c69 0 109 -34 130 -64c3 5 6 10 8 13l36 46l62 -12l-1 -4l-96 -104h-27c-12 23 -39 68 -111 68c-56 0 -105 -31 -122 -99c102 -9 140 -40 140 -99c0 -8 -1 -17 -2 -27l-62 -390c-4 -23 -11 -42 -20 -57
c5 1 10 1 16 1z" />
    <glyph glyph-name="uni0E43" unicode="&#xe43;" horiz-adv-x="380" 
d="M211 184c54 0 89 -31 89 -79c0 -5 0 -11 -1 -17c-9 -57 -58 -96 -118 -96c-54 0 -89 31 -89 79c0 5 0 11 1 17c7 46 25 78 32 122l48 300c22 138 163 152 181 264c1 6 2 12 2 18c0 49 -39 74 -104 74c-7 0 -14 0 -21 -1c31 -12 49 -38 49 -72c0 -5 0 -11 -1 -17
c-9 -57 -58 -96 -118 -96c-54 0 -89 31 -89 79c0 5 0 11 1 17c11 72 83 136 193 136c97 0 153 -47 153 -119c0 -8 -1 -16 -2 -25c-20 -124 -140 -136 -159 -258l-43 -270c-4 -23 -11 -42 -20 -57c5 1 10 1 16 1zM204 140c-31 0 -55 -22 -60 -52c-1 -3 -1 -7 -1 -10
c0 -25 17 -42 45 -42c31 0 55 22 60 52c1 3 1 7 1 10c0 25 -17 42 -45 42zM184 828c-31 0 -55 -22 -60 -52c-1 -3 -1 -7 -1 -10c0 -25 17 -42 45 -42c31 0 55 22 60 52c1 3 1 7 1 10c0 25 -17 42 -45 42z" />
    <glyph glyph-name="uni0E44" unicode="&#xe44;" horiz-adv-x="380" 
d="M204 140c-31 0 -55 -22 -60 -52c-1 -3 -1 -7 -1 -10c0 -25 17 -42 45 -42c31 0 55 22 60 52c1 3 1 7 1 10c0 25 -17 42 -45 42zM211 184c54 0 89 -31 89 -79c0 -5 0 -11 -1 -17c-9 -57 -58 -96 -118 -96c-54 0 -89 31 -89 79c0 5 0 11 1 17c7 46 25 78 32 122l50 315
c19 123 201 244 201 312c0 13 -7 26 -27 26c-21 -5 -44 -31 -54 -45c-18 -24 -94 -113 -94 -113h-32l-90 182l1 4l60 17l45 -101c5 -14 9 -29 12 -42c18 24 43 57 63 83c16 22 46 60 104 60c56 0 73 -33 73 -62c0 -4 0 -8 -1 -12c-14 -90 -154 -171 -176 -309l-45 -285
c-4 -23 -11 -42 -20 -57c5 1 10 1 16 1z" />
    <glyph glyph-name="uni0E45" unicode="&#xe45;" horiz-adv-x="485" 
d="M37 472c21 72 94 146 211 146c106 0 162 -60 162 -142c0 -10 0 -20 -2 -30l-104 -656h-85l104 656c1 9 2 18 2 26c0 58 -37 82 -87 82c-58 0 -101 -34 -118 -90z" />
    <glyph glyph-name="uni0E46" unicode="&#xe46;" horiz-adv-x="590" 
d="M209 384c-31 0 -55 -22 -60 -52c-1 -3 -1 -7 -1 -10c0 -25 17 -42 44 -42c31 0 56 22 61 52c1 3 1 7 1 10c0 25 -17 42 -45 42zM216 428c54 0 89 -31 89 -79c0 -5 0 -11 -1 -17c-9 -57 -59 -96 -119 -96c-85 0 -126 61 -126 140c0 14 2 28 4 42c19 120 102 186 163 194
l78 -82l104 82c51 -7 104 -58 104 -151c0 -14 -2 -29 -4 -44l-99 -627h-85l99 627c2 13 3 25 3 36c0 38 -11 67 -33 86l-92 -69h-7h-7l-75 75c-41 -23 -69 -67 -79 -127c-1 -7 -2 -15 -2 -23c21 21 52 33 85 33z" />
    <glyph glyph-name="uni0E47" unicode="&#xe47;" 
d="M-112 784c-24 0 -41 -17 -45 -40c0 -3 -1 -5 -1 -8c0 -19 13 -32 34 -32c24 0 41 17 45 40c0 3 1 5 1 8c0 19 -13 32 -34 32zM-106 819c41 0 69 -25 69 -62c0 -4 0 -9 -1 -13c-7 -44 -46 -75 -92 -75c-41 0 -69 25 -69 62c0 4 0 9 1 13l-57 -70l-1 1v-1
c-69 0 -117 29 -117 90c0 7 1 14 2 21c12 75 74 111 150 111h117c38 0 71 6 92 22l16 -40c-31 -22 -70 -25 -112 -25h-120c-48 0 -81 -20 -89 -68c-1 -5 -1 -10 -1 -15c0 -32 20 -49 52 -52l64 77h6l14 -12c17 23 45 36 76 36z" />
    <glyph glyph-name="uni0E48" unicode="&#xe48;" 
d="M-76 950l28 175h64l-29 -186z" />
    <glyph glyph-name="uni0E49" unicode="&#xe49;" 
d="M-162 1091c-16 0 -30 -11 -33 -29v-6c0 -15 10 -23 24 -23c16 0 29 11 32 29c0 2 1 4 1 6c0 14 -10 23 -24 23zM-148 960c5 16 8 32 10 47c0 3 2 7 2 10c-11 -7 -25 -11 -40 -11c-31 0 -52 18 -52 47c0 3 1 6 1 9c5 34 35 56 69 56c43 0 64 -26 64 -69v-12
c-1 -12 -1 -23 -3 -33c-1 -7 -3 -13 -4 -19c55 9 95 48 111 131l60 -8c-18 -96 -88 -158 -199 -158h-21z" />
    <glyph glyph-name="uni0E4A" unicode="&#xe4a;" 
d="M-123 1027c-16 0 -30 -11 -33 -29c0 -2 -1 -4 -1 -6c0 -14 10 -23 24 -23c16 0 30 11 33 29c0 2 1 4 1 6c0 14 -10 23 -24 23zM-119 1054c31 0 52 -18 52 -47c0 -3 -1 -6 -1 -9c-5 -34 -35 -56 -69 -56c-48 0 -66 30 -66 67c0 7 1 13 2 20c10 64 62 91 88 93l44 -30
l54 30c23 -2 55 -23 55 -72c0 -6 -1 -14 -2 -21c-2 -14 -8 -27 -16 -38c29 23 48 62 60 109l46 -9c-20 -78 -82 -143 -176 -146l-3 26c26 10 43 27 48 58c1 6 1 11 1 16c0 22 -9 34 -21 41l-48 -26h-3h-3l-41 26c-15 -6 -28 -18 -35 -40c10 5 22 8 34 8z" />
    <glyph glyph-name="uni0E4B" unicode="&#xe4b;" 
d="M-154 1015l6 38h90l11 72h59l-11 -72h91l-6 -38h-91l-12 -76l-58 11l11 65h-90z" />
    <glyph glyph-name="uni0E4C" unicode="&#xe4c;" 
d="M-71 1068c-24 0 -43 -17 -47 -41c0 -3 -1 -5 -1 -8c0 -20 14 -33 35 -33c24 0 44 17 48 41c0 3 1 6 1 8c0 20 -15 33 -36 33zM-162 1027c7 46 41 85 101 85h27c54 0 81 17 88 61l61 -7c-8 -49 -47 -84 -116 -90c6 -10 10 -22 10 -36c0 -4 0 -9 -1 -13
c-8 -48 -48 -79 -98 -79c-45 0 -73 25 -73 64c0 5 0 10 1 15z" />
    <glyph glyph-name="uni0E4D" unicode="&#xe4d;" 
d="M-101 876c54 0 89 -31 89 -79c0 -5 0 -11 -1 -17c-9 -57 -59 -96 -119 -96c-54 0 -88 31 -88 79c0 5 0 11 1 17c9 57 58 96 118 96zM-108 832c-31 0 -55 -22 -60 -52c-1 -3 -1 -7 -1 -10c0 -25 17 -42 44 -42c31 0 56 22 61 52c1 3 1 7 1 10c0 25 -17 42 -45 42z" />
    <glyph glyph-name="uni0E4E" unicode="&#xe4e;" 
d="M-295 756c6 38 43 76 96 76c4 0 7 0 11 -1c0 2 1 5 1 7c6 38 38 77 91 77c26 0 47 -11 61 -28l34 -42l-37 -28l-39 46c-9 11 -19 14 -25 14c-15 0 -38 -13 -42 -39c-2 -12 0 -23 7 -33l33 -42l-37 -28l-40 48c-9 11 -18 13 -24 13c-15 0 -37 -14 -41 -40
c0 -2 -1 -5 -1 -7c0 -10 4 -19 11 -28l35 -41l-38 -30l-39 48c-12 14 -18 31 -18 48c0 3 0 7 1 10z" />
    <glyph glyph-name="uni0E4F" unicode="&#xe4f;" horiz-adv-x="660" 
d="M326 352c-31 0 -55 -22 -60 -52c-1 -3 -1 -7 -1 -10c0 -25 17 -42 44 -42c31 0 56 22 61 52c1 3 1 7 1 10c0 25 -17 42 -45 42zM333 396c54 0 89 -31 89 -79c0 -5 0 -11 -1 -17c-9 -57 -59 -96 -119 -96c-54 0 -88 31 -88 79c0 5 0 11 1 17c9 57 58 96 118 96zM279 58
c-139 0 -217 84 -217 198c0 14 2 29 4 44c22 136 134 242 290 242c139 0 218 -85 218 -199c0 -14 -2 -28 -4 -43c-22 -136 -135 -242 -291 -242zM287 106c116 0 205 76 224 194c2 14 3 27 3 39c0 96 -63 155 -166 155c-116 0 -204 -76 -223 -194c-2 -14 -3 -27 -3 -39
c0 -95 62 -155 165 -155z" />
    <glyph glyph-name="uni0E50" unicode="&#xe50;" horiz-adv-x="720" 
d="M57 286l5 28c23 146 121 304 336 304c183 0 245 -115 245 -239c0 -21 -2 -43 -5 -65l-5 -28c-23 -146 -121 -304 -336 -304c-183 0 -245 115 -245 239c0 21 2 43 5 65zM307 46c140 0 219 100 241 240l5 28c3 22 5 42 5 62c0 107 -52 178 -170 178
c-140 0 -219 -100 -241 -240l-5 -28c-3 -22 -5 -42 -5 -62c0 -107 52 -178 170 -178z" />
    <glyph glyph-name="uni0E51" unicode="&#xe51;" horiz-adv-x="720" 
d="M65 335c21 133 127 283 333 283c184 0 244 -116 244 -238c0 -21 -2 -42 -5 -63l-3 -22c-24 -154 -186 -317 -394 -331l2 63c150 10 288 136 309 268l3 22c3 21 5 40 5 59c0 104 -51 179 -171 179c-136 0 -224 -98 -243 -220c-2 -9 -2 -18 -2 -26c0 -64 42 -107 107 -107
c40 0 75 13 102 33c-5 -1 -10 -1 -15 -1c-54 0 -89 31 -89 79c0 5 0 11 1 17c9 57 58 96 118 96c54 0 89 -31 89 -79c0 -5 0 -11 -1 -17c-14 -90 -89 -181 -223 -181c-118 0 -169 82 -169 159c0 9 1 18 2 27zM361 382c-31 0 -56 -22 -61 -52c-1 -3 -1 -7 -1 -10
c0 -25 17 -42 45 -42c31 0 55 22 60 52c1 3 1 7 1 10c0 25 -17 42 -44 42z" />
    <glyph glyph-name="uni0E52" unicode="&#xe52;" horiz-adv-x="810" 
d="M57 182l90 568h82l-90 -568c-1 -7 -2 -14 -2 -21c0 -60 43 -98 93 -98h263c55 0 118 47 129 119l37 235c2 12 3 24 3 35c0 39 -12 70 -35 89l-95 -71h-7h-7l-75 75c-41 -23 -69 -67 -79 -127c-1 -7 -2 -15 -2 -23c21 21 52 33 85 33c54 0 89 -31 89 -79
c0 -5 0 -11 -1 -17c-9 -57 -59 -96 -119 -96c-85 0 -126 61 -126 140c0 14 2 28 4 42c19 120 102 186 163 194l78 -82l104 82c51 -7 104 -58 104 -151c0 -14 -2 -29 -4 -44l-37 -235c-14 -90 -97 -182 -222 -182h-260c-112 0 -165 74 -165 154c0 9 1 19 2 28zM440 384
c-31 0 -55 -22 -60 -52c-1 -3 -1 -7 -1 -10c0 -25 17 -42 44 -42c31 0 56 22 61 52c1 3 1 7 1 10c0 25 -17 42 -45 42z" />
    <glyph glyph-name="uni0E53" unicode="&#xe53;" horiz-adv-x="720" 
d="M192 140c-31 0 -55 -22 -60 -52c-1 -3 -1 -7 -1 -10c0 -25 17 -42 45 -42c31 0 55 22 60 52c1 3 1 7 1 10c0 25 -17 42 -45 42zM199 184c54 0 89 -31 89 -79c0 -5 0 -11 -1 -17c-9 -57 -58 -96 -118 -96c-66 0 -105 39 -115 87c-3 16 -5 35 -5 56c0 24 2 50 5 68l36 226
c14 90 64 189 180 189c61 0 99 -37 114 -89c31 52 80 89 141 89c95 0 124 -66 124 -139c0 -16 -1 -33 -4 -50l-40 -250c-15 -92 -40 -145 -103 -187l-55 44c38 25 62 57 76 143l40 250c3 18 4 33 4 47c0 54 -21 79 -58 79c-47 0 -91 -54 -102 -126l-32 -204h-79l32 204
c2 11 3 22 3 32c0 56 -25 94 -65 94c-46 0 -80 -39 -94 -126l-37 -232c-2 -12 -3 -23 -6 -34c20 13 44 21 70 21z" />
    <glyph glyph-name="uni0E54" unicode="&#xe54;" horiz-adv-x="720" 
d="M503 352c-31 0 -55 -22 -60 -52c-1 -3 -1 -7 -1 -10c0 -25 17 -42 44 -42c31 0 56 22 61 52c1 3 1 7 1 10c0 25 -17 42 -45 42zM59 295l2 16c24 151 142 285 331 295c39 2 95 7 116 9c86 10 133 14 163 138l84 -8c-33 -142 -120 -178 -242 -192c-27 -4 -83 -8 -125 -10
c-125 -7 -221 -100 -242 -232l-2 -16c-3 -18 -4 -34 -4 -51c0 -103 54 -181 168 -181h86c-34 30 -54 74 -54 128c0 12 1 24 3 37c16 98 73 168 167 168c54 0 89 -31 89 -79c0 -5 0 -11 -1 -17c-9 -57 -59 -96 -119 -96c-31 0 -56 10 -71 28c0 -3 -2 -7 -2 -10
c-2 -10 -2 -19 -2 -28c0 -84 65 -131 135 -131h53l-10 -63h-284c-178 0 -243 115 -243 238c0 19 1 38 4 57z" />
    <glyph glyph-name="uni0E55" unicode="&#xe55;" horiz-adv-x="720" 
d="M443 714c-31 0 -55 -22 -60 -52c-1 -3 -1 -7 -1 -10c0 -25 17 -42 45 -42c31 0 55 22 60 52c1 3 1 7 1 10c0 25 -17 42 -45 42zM450 758c54 0 89 -31 89 -79c0 -5 0 -11 -1 -17c-3 -22 -12 -41 -27 -57h17c78 4 120 39 143 148l84 -8c-27 -127 -111 -188 -222 -196
c-10 -1 -21 -1 -33 -1c-32 0 -65 2 -78 5c-164 -13 -254 -102 -276 -242l-2 -16c-3 -18 -4 -34 -4 -51c0 -103 54 -181 168 -181h86c-34 30 -54 74 -54 128c0 12 1 24 3 37c16 98 73 168 167 168c54 0 89 -31 89 -79c0 -5 0 -11 -1 -17c-9 -57 -59 -96 -119 -96
c-31 0 -56 10 -71 28c0 -3 -2 -7 -2 -10c-2 -10 -2 -19 -2 -28c0 -84 65 -131 135 -131h53l-10 -63h-284c-178 0 -243 115 -243 238c0 19 1 38 4 57l2 16c22 139 115 255 286 285c-10 13 -16 30 -16 50c0 5 0 10 1 16c9 57 58 96 118 96zM503 352c-31 0 -55 -22 -60 -52
c-1 -3 -1 -7 -1 -10c0 -25 17 -42 44 -42c31 0 56 22 61 52c1 3 1 7 1 10c0 25 -17 42 -45 42z" />
    <glyph glyph-name="uni0E56" unicode="&#xe56;" horiz-adv-x="720" 
d="M190 212c-31 0 -56 -22 -61 -52c-1 -3 -1 -7 -1 -10c0 -25 17 -42 45 -42c31 0 55 22 60 52c1 3 1 7 1 10c0 25 -17 42 -44 42zM197 256c54 0 88 -31 88 -79c0 -5 0 -11 -1 -17c-7 -46 -40 -81 -84 -92c26 -13 63 -24 118 -24c132 0 208 102 230 242l5 28c3 22 5 43 5 63
c0 105 -50 174 -156 174c-109 0 -179 -76 -198 -136l-66 5l-7 324l87 10l-9 -232c41 52 109 96 207 96c167 0 227 -115 227 -239c0 -22 -2 -43 -5 -65l-5 -28c-23 -146 -120 -304 -321 -304c-180 0 -235 88 -235 158c0 7 0 14 1 20c9 57 59 96 119 96z" />
    <glyph glyph-name="uni0E57" unicode="&#xe57;" horiz-adv-x="905" 
d="M192 140c-31 0 -55 -22 -60 -52c-1 -3 -1 -7 -1 -10c0 -25 17 -42 45 -42c31 0 55 22 60 52c1 3 1 7 1 10c0 25 -17 42 -45 42zM199 184c54 0 89 -31 89 -79c0 -5 0 -11 -1 -17c-9 -57 -58 -96 -118 -96c-66 0 -105 39 -115 87c-3 16 -5 35 -5 56c0 24 2 50 5 68l36 226
c14 90 64 189 180 189c61 0 99 -37 114 -89c31 52 80 89 141 89c93 0 120 -63 120 -134c0 -18 -2 -37 -5 -55l-40 -250c-9 -57 -25 -98 -50 -132c77 16 147 62 160 141l89 562h77l-89 -562c-18 -116 -131 -196 -296 -196l-44 44c38 25 62 57 76 143l40 250c3 18 4 33 4 47
c0 54 -21 79 -58 79c-47 0 -91 -54 -102 -126l-32 -204h-79l32 204c2 11 3 22 3 32c0 56 -25 94 -65 94c-46 0 -80 -39 -94 -126l-37 -232c-2 -12 -3 -23 -6 -34c20 13 44 21 70 21z" />
    <glyph glyph-name="uni0E58" unicode="&#xe58;" horiz-adv-x="750" 
d="M540 352c-31 0 -55 -22 -60 -52c-1 -3 -1 -7 -1 -10c0 -25 17 -42 44 -42c31 0 56 22 61 52c1 3 1 7 1 10c0 25 -17 42 -45 42zM59 295l2 16c23 144 141 276 330 286c39 2 106 7 127 9c84 10 123 24 153 148l84 -9c-34 -146 -117 -187 -233 -201c-27 -4 -94 -9 -136 -11
c-125 -7 -219 -92 -240 -222l-2 -16c-3 -21 -5 -41 -5 -59c0 -60 15 -103 19 -146l147 165h66c-5 -32 -8 -62 -8 -87c0 -74 24 -116 83 -116c72 0 116 70 131 167c-18 -10 -39 -15 -61 -15c-54 0 -88 31 -88 79c0 5 0 11 1 17c9 57 58 96 118 96c79 0 102 -58 102 -121
c0 -18 -2 -37 -5 -55c-16 -104 -74 -228 -207 -228c-105 0 -136 78 -136 166v16l-153 -174h-71l5 29c1 7 2 15 2 22c0 55 -29 112 -29 192c0 16 1 34 4 52z" />
    <glyph glyph-name="uni0E59" unicode="&#xe59;" horiz-adv-x="720" 
d="M511 197c-31 0 -55 -22 -60 -52c-1 -3 -1 -7 -1 -10c0 -25 17 -42 45 -42c31 0 55 22 60 52c1 3 1 7 1 10c0 25 -17 42 -45 42zM192 443c13 82 86 134 183 144c51 5 107 8 126 10c85 10 128 20 160 156l84 -9c-36 -155 -124 -193 -240 -207c-30 -4 -88 -6 -135 -11
c-53 -6 -92 -32 -101 -86c-1 -6 -1 -12 -1 -17c0 -26 11 -37 23 -45c19 2 41 3 63 3h208l-10 -63h-208c-159 0 -217 -65 -229 -139c-1 -8 -2 -15 -2 -22c0 -62 46 -114 188 -114c61 0 104 6 137 17c-24 14 -39 38 -39 69c0 5 0 11 1 16c9 57 58 96 118 96
c54 0 89 -31 89 -79c0 -5 0 -11 -1 -17c-13 -84 -105 -163 -315 -163c-190 0 -263 76 -263 168c0 9 1 19 2 29c13 79 71 153 186 185c-14 16 -25 36 -25 62c0 5 0 11 1 17z" />
    <glyph glyph-name="uni0E5A" unicode="&#xe5a;" horiz-adv-x="675" 
d="M522 0h-75l95 600h75zM179 564c-31 0 -55 -22 -60 -52c-1 -3 -1 -7 -1 -10c0 -25 17 -42 45 -42c31 0 55 22 60 52c1 3 1 7 1 10c0 25 -17 42 -45 42zM186 608c54 0 89 -31 89 -79c0 -5 0 -11 -1 -17c-4 -24 -13 -44 -29 -60c73 21 117 80 138 144l31 4
c8 -12 11 -28 11 -48s-3 -44 -7 -72l-53 -335c-18 -116 -142 -149 -266 -163l-3 62c118 14 183 32 194 101l42 265c4 27 15 43 23 61c-41 -39 -100 -66 -174 -66c-78 0 -115 37 -115 88c0 6 1 12 2 19c9 57 58 96 118 96z" />
    <glyph glyph-name="uni0E5B" unicode="&#xe5b;" horiz-adv-x="900" 
d="M66 300c22 136 134 242 290 242l-8 -48c-116 0 -204 -76 -223 -194c-2 -14 -3 -27 -3 -39c0 -95 62 -155 165 -155c116 0 206 76 225 194c2 14 3 26 3 39c0 43 -12 80 -29 102l47 30c15 -20 26 -47 33 -76l48 -187l72 221l34 4l42 -117h91l-5 -32h-110l-34 84l-73 -224
l-41 -4l-33 123c-34 -118 -136 -205 -278 -205c-139 0 -217 84 -217 198c0 14 2 29 4 44zM326 352c-31 0 -55 -22 -60 -52c-1 -3 -1 -7 -1 -10c0 -25 17 -42 44 -42c31 0 56 22 61 52c1 3 1 7 1 10c0 25 -17 42 -45 42zM333 396c54 0 89 -31 89 -79c0 -5 0 -11 -1 -17
c-9 -57 -59 -96 -119 -96c-54 0 -88 31 -88 79c0 5 0 11 1 17c9 57 58 96 118 96z" />
    <glyph glyph-name="uni0E81" unicode="&#xe81;" horiz-adv-x="690" 
d="M112 140c-31 0 -55 -22 -60 -52c-1 -3 -1 -7 -1 -10c0 -25 17 -42 45 -42c31 0 55 22 60 52c1 3 1 7 1 10c0 25 -17 42 -45 42zM163 460c31 0 55 22 60 52c1 3 1 7 1 10c0 25 -17 42 -45 42c-31 0 -55 -22 -60 -52c-1 -3 -1 -7 -1 -10c0 -25 17 -42 45 -42zM156 416
c-54 0 -89 31 -89 79c0 5 0 11 1 17c9 57 58 96 118 96c54 0 89 -31 89 -79c0 -5 0 -11 -1 -17c0 -2 -1 -3 -1 -5c51 44 122 106 211 106c99 0 141 -65 141 -149c0 -14 -1 -28 -3 -43l-67 -421h-85l67 421c2 14 3 27 3 38c0 62 -31 90 -83 90c-78 0 -152 -77 -209 -110
c-6 -15 -13 -31 -16 -49l-14 -90l-15 -90c-1 -7 -2 -14 -2 -21c0 -27 8 -51 8 -79c0 -7 -1 -14 -2 -22c-9 -57 -58 -96 -118 -96c-54 0 -89 31 -89 79c0 5 0 11 1 17c9 57 58 96 118 96h8c-4 10 -6 21 -6 34c0 7 1 14 2 22l10 60l9 60c3 22 12 41 22 56h-8z" />
    <glyph glyph-name="uni0E82" unicode="&#xe82;" horiz-adv-x="625" 
d="M173 398c31 0 55 22 60 52c1 3 1 7 1 10c0 25 -17 42 -44 42c-31 0 -56 -22 -61 -52c-1 -3 -1 -7 -1 -10c0 -25 17 -42 45 -42zM452 114c-60 -56 -159 -132 -276 -132c-95 0 -151 47 -151 120c0 8 1 16 2 25c15 92 120 125 158 139c47 18 123 45 168 63
c44 17 105 41 116 111c1 7 2 13 2 19c0 64 -57 101 -137 101c-45 0 -78 -9 -104 -19c35 -10 55 -37 55 -74c0 -5 0 -11 -1 -17c-9 -57 -58 -96 -118 -96c-54 0 -89 31 -89 79c0 5 0 11 1 17c14 89 119 168 265 168c130 0 211 -64 211 -153c0 -8 -1 -17 -2 -25
c-17 -109 -109 -146 -168 -170c-47 -18 -121 -45 -168 -63s-100 -36 -107 -83c-1 -5 -1 -11 -1 -16c0 -39 28 -65 81 -65c118 0 218 91 265 137h43l46 -175l-1 -4l-70 -13l-16 85c-1 12 -3 27 -4 41z" />
    <glyph glyph-name="uni0E84" unicode="&#xe84;" horiz-adv-x="670" 
d="M81 435c16 99 125 183 287 183c147 0 228 -70 228 -171c0 -11 -1 -22 -3 -33l-66 -414h-84l66 414c2 10 2 19 2 28c0 74 -56 112 -153 112c-108 0 -184 -46 -196 -122c-1 -5 -1 -9 -1 -14c0 -60 66 -88 153 -88l-8 -51c-111 0 -193 -43 -208 -139c0 -2 -1 -4 -1 -6
c21 31 58 50 100 50c54 0 89 -31 89 -79c0 -5 0 -11 -1 -17c-9 -57 -58 -96 -118 -96c-86 0 -134 54 -134 125c0 8 1 17 2 26c13 83 74 138 142 163c-55 16 -98 51 -98 109c0 7 1 13 2 20zM190 140c-31 0 -55 -22 -60 -52c-1 -3 -1 -7 -1 -10c0 -25 17 -42 45 -42
c31 0 55 22 60 52c1 3 1 7 1 10c0 25 -17 42 -45 42z" />
    <glyph glyph-name="uni0E87" unicode="&#xe87;" horiz-adv-x="520" 
d="M170 502c-31 0 -56 -22 -61 -52c-1 -3 -1 -7 -1 -10c0 -25 17 -42 45 -42c31 0 55 22 60 52c1 3 1 7 1 10c0 25 -17 42 -44 42zM58 450c15 94 102 168 219 168c110 0 168 -60 168 -142c0 -9 0 -19 -2 -29l-80 -503c-14 -86 -68 -172 -182 -172c-116 0 -165 103 -175 219
l80 16c11 -122 58 -172 105 -172c43 0 76 27 89 109l80 505c1 9 2 18 2 26c0 60 -38 90 -96 90c-31 0 -58 -8 -79 -19c48 -4 78 -35 78 -80c0 -5 0 -11 -1 -16c-9 -57 -58 -96 -118 -96c-54 0 -89 31 -89 79c0 5 0 11 1 17z" />
    <glyph glyph-name="uni0E88" unicode="&#xe88;" horiz-adv-x="590" 
d="M46 434c27 96 120 184 266 184c130 0 209 -68 209 -167c0 -10 0 -20 -2 -31c-23 -146 -103 -231 -120 -336l-8 -52c-3 -22 -28 -36 -62 -36c-24 0 -39 4 -39 4c3 26 4 52 4 77c0 58 -7 112 -22 150c-20 -36 -59 -59 -105 -59c-54 0 -89 31 -89 79c0 5 0 11 1 17
c9 57 58 96 118 96c110 0 140 -118 142 -232c20 87 77 169 96 292c1 9 2 18 2 26c0 72 -53 108 -135 108c-88 0 -150 -48 -172 -126zM174 212c31 0 55 22 60 52c1 3 1 7 1 10c0 25 -17 42 -45 42c-31 0 -55 -22 -60 -52c-1 -3 -1 -7 -1 -10c0 -25 17 -42 45 -42z" />
    <glyph glyph-name="uni0E8A" unicode="&#xe8a;" horiz-adv-x="625" 
d="M541 -198l-73 -25c-17 29 -52 86 -52 181c0 21 2 45 6 70c4 28 11 53 16 73c-61 -54 -153 -119 -262 -119c-95 0 -151 47 -151 120c0 8 1 16 2 25c15 92 120 125 158 139c47 18 123 45 168 63c44 17 105 41 116 111c1 7 2 13 2 19c0 64 -57 101 -137 101
c-45 0 -78 -9 -104 -19c35 -10 55 -37 55 -74c0 -5 0 -11 -1 -17c-9 -57 -58 -96 -118 -96c-54 0 -89 31 -89 79c0 5 0 11 1 17c14 89 119 168 265 168c130 0 211 -64 211 -153c0 -8 -1 -17 -2 -25c-17 -109 -109 -146 -168 -170c-47 -18 -121 -45 -168 -63
s-100 -36 -107 -83c-1 -5 -1 -11 -1 -16c0 -39 28 -65 81 -65c118 0 218 91 265 137l60 -9l-18 -113c-5 -29 -7 -55 -7 -78c0 -92 32 -139 52 -174v-4zM173 398c31 0 55 22 60 52c1 3 1 7 1 10c0 25 -17 42 -44 42c-31 0 -56 -22 -61 -52c-1 -3 -1 -7 -1 -10
c0 -25 17 -42 45 -42z" />
    <glyph glyph-name="uni0E8D" unicode="&#xe8d;" horiz-adv-x="670" 
d="M38 165c11 71 71 111 138 129c-53 22 -94 68 -94 135c0 9 0 18 2 28c13 84 84 151 180 151c54 0 89 -31 89 -79c0 -5 0 -11 -1 -17c-9 -57 -58 -96 -118 -96c-42 0 -73 19 -84 50c0 -2 -1 -4 -1 -6c-1 -9 -2 -17 -2 -25c0 -78 65 -114 166 -114l-8 -51
c-94 0 -173 -32 -184 -102c-1 -6 -2 -13 -2 -19c0 -65 59 -103 158 -103c109 0 180 48 195 140l66 414h84l-66 -414c-19 -118 -127 -204 -289 -204c-149 0 -231 71 -231 159c0 8 1 16 2 24zM241 460c31 0 55 22 60 52c1 3 1 7 1 10c0 25 -17 42 -45 42
c-31 0 -55 -22 -60 -52c-1 -3 -1 -7 -1 -10c0 -25 17 -42 45 -42z" />
    <glyph glyph-name="uni0E94" unicode="&#xe94;" horiz-adv-x="665" 
d="M195 140c-31 0 -55 -22 -60 -52c-1 -3 -1 -7 -1 -10c0 -25 17 -42 45 -42c31 0 55 22 60 52c1 3 1 7 1 10c0 25 -17 42 -45 42zM202 184c54 0 89 -31 89 -79c0 -5 0 -11 -1 -17c-9 -57 -58 -96 -118 -96c-86 0 -134 54 -134 125c0 8 1 17 2 26l41 260
c20 126 133 215 286 215c138 0 222 -73 222 -180c0 -11 -1 -23 -3 -35l-64 -403h-83l64 403c2 11 3 21 3 31c0 80 -58 120 -149 120c-102 0 -176 -51 -192 -151l-34 -214c-2 -12 -5 -23 -7 -32c21 17 48 27 78 27z" />
    <glyph glyph-name="uni0E95" unicode="&#xe95;" horiz-adv-x="685" 
d="M195 140c-31 0 -55 -22 -60 -52c-1 -3 -1 -7 -1 -10c0 -25 17 -42 45 -42c31 0 55 22 60 52c1 3 1 7 1 10c0 25 -17 42 -45 42zM202 184c54 0 89 -31 89 -79c0 -5 0 -11 -1 -17c-9 -57 -58 -96 -118 -96c-86 0 -134 54 -134 125c0 8 1 17 2 26l53 338
c12 75 71 137 164 137c59 0 92 -29 110 -62c28 33 72 62 131 62c82 0 122 -48 122 -111c0 -8 -1 -17 -2 -26l-76 -481h-83l75 481c1 6 1 12 1 17c0 41 -26 57 -60 57c-40 0 -71 -26 -83 -64l-19 -116h-69l19 116c0 38 -23 64 -63 64c-38 0 -75 -21 -83 -74l-46 -292
c-2 -12 -5 -23 -7 -32c21 17 48 27 78 27z" />
    <glyph glyph-name="uni0E96" unicode="&#xe96;" horiz-adv-x="695" 
d="M174 140c-31 0 -55 -22 -60 -52c-1 -3 -1 -7 -1 -10c0 -25 17 -42 45 -42c31 0 55 22 60 52c1 3 1 7 1 10c0 25 -17 42 -45 42zM181 184c54 0 89 -31 89 -79c0 -5 0 -11 -1 -17c-9 -57 -58 -96 -118 -96c-54 0 -89 31 -89 79c0 5 0 11 1 17c7 46 30 78 37 122l15 90
l10 65c3 20 13 37 24 51c-52 2 -85 32 -85 79c0 5 0 11 1 17c9 57 58 96 118 96c54 0 89 -31 89 -79c0 -5 0 -11 -1 -17v-2c52 43 123 103 210 103c99 0 141 -65 141 -149c0 -14 -1 -28 -3 -43l-100 -631h-85l100 631c2 14 3 27 3 38c0 62 -31 90 -83 90
c-81 0 -162 -83 -222 -114c-9 -15 -17 -31 -20 -50l-13 -85l-10 -60c-4 -23 -12 -42 -21 -57c4 0 9 1 13 1zM160 460c31 0 55 22 60 52c1 3 1 7 1 10c0 25 -17 42 -45 42c-31 0 -55 -22 -60 -52c-1 -3 -1 -7 -1 -10c0 -25 17 -42 45 -42z" />
    <glyph glyph-name="uni0E97" unicode="&#xe97;" horiz-adv-x="760" 
d="M167 460c31 0 55 22 60 52c1 3 1 7 1 10c0 25 -17 42 -45 42c-31 0 -55 -22 -60 -52c-1 -3 -1 -7 -1 -10c0 -25 17 -42 45 -42zM160 416c-54 0 -89 31 -89 79c0 5 0 11 1 17c9 57 58 96 118 96c54 0 89 -31 89 -79c0 -5 0 -11 -1 -17c-16 -101 -90 -137 -104 -227
l-24 -153c-1 -8 -2 -14 -2 -21c0 -47 30 -66 74 -66c52 0 92 25 102 87l53 334c13 82 80 147 179 147c91 0 138 -52 138 -121c0 -8 -1 -17 -2 -26l-74 -466h-83l74 468c1 8 2 16 2 23c0 45 -26 64 -64 64c-46 0 -86 -25 -96 -87l-53 -334c-13 -82 -80 -147 -185 -147
c-97 0 -147 52 -147 122c0 8 1 17 2 25l24 151c9 57 56 100 89 133c-7 -1 -14 -2 -21 -2z" />
    <glyph glyph-name="uni0E99" unicode="&#xe99;" horiz-adv-x="680" 
d="M163 460c31 0 55 22 60 52c1 3 1 7 1 10c0 25 -17 42 -45 42c-31 0 -55 -22 -60 -52c-1 -3 -1 -7 -1 -10c0 -25 17 -42 45 -42zM156 416c-54 0 -89 31 -89 79c0 5 0 11 1 17c9 57 58 96 118 96c54 0 89 -31 89 -79c0 -5 0 -11 -1 -17c-7 -46 -25 -78 -32 -122l-30 -185
c23 -85 79 -154 156 -154c54 0 106 35 120 123l67 426h85l-67 -421c-16 -104 -83 -192 -195 -192c-92 0 -149 57 -181 127c-25 -92 -112 -123 -166 -127l-9 56c52 6 85 33 94 90l36 227c4 23 11 42 20 57c-5 -1 -10 -1 -16 -1z" />
    <glyph glyph-name="uni0E9A" unicode="&#xe9a;" horiz-adv-x="690" 
d="M72 186l16 99c9 57 55 99 89 132c-6 -1 -12 -1 -19 -1c-54 0 -89 31 -89 79c0 5 0 11 1 17c9 57 58 96 118 96c54 0 89 -31 89 -79c0 -5 0 -11 -1 -17c-16 -101 -89 -137 -103 -227l-16 -99c-2 -9 -2 -19 -2 -27c0 -75 58 -113 147 -113c99 0 175 48 190 140l66 414h85
l-66 -414c-19 -118 -134 -204 -285 -204c-137 0 -223 71 -223 173c0 10 1 20 3 31zM165 460c31 0 55 22 60 52c1 3 1 7 1 10c0 25 -17 42 -45 42c-31 0 -55 -22 -60 -52c-1 -3 -1 -7 -1 -10c0 -25 17 -42 45 -42z" />
    <glyph glyph-name="uni0E9B" unicode="&#xe9b;" horiz-adv-x="695" 
d="M72 186l16 99c9 57 55 99 89 132c-6 -1 -12 -1 -19 -1c-54 0 -89 31 -89 79c0 5 0 11 1 17c9 57 58 96 118 96c54 0 89 -31 89 -79c0 -5 0 -11 -1 -17c-16 -101 -89 -137 -103 -227l-16 -99c-2 -9 -2 -19 -2 -27c0 -75 58 -113 147 -113c99 0 175 48 190 140l99 624h85
l-99 -624c-19 -118 -134 -204 -285 -204c-137 0 -223 71 -223 173c0 10 1 20 3 31zM165 460c31 0 55 22 60 52c1 3 1 7 1 10c0 25 -17 42 -45 42c-31 0 -55 -22 -60 -52c-1 -3 -1 -7 -1 -10c0 -25 17 -42 45 -42z" />
    <glyph glyph-name="uni0E9C" unicode="&#xe9c;" horiz-adv-x="790" 
d="M275 608c54 0 89 -31 89 -79c0 -5 0 -11 -1 -17c-9 -57 -58 -96 -118 -96c-31 0 -56 10 -71 28c0 -9 -1 -20 -3 -33l-45 -284c-1 -5 -1 -11 -1 -16c0 -45 35 -66 78 -66c51 0 92 34 101 89l32 196h74l-30 -196c-1 -6 -2 -12 -2 -18c0 -44 30 -71 75 -71
c48 0 94 27 103 82l47 293c2 10 5 20 9 28c-7 -1 -14 -2 -21 -2c-54 0 -89 31 -89 79c0 5 0 11 1 17c9 57 58 96 118 96c54 0 89 -31 89 -79c0 -5 0 -11 -1 -17c0 -2 -1 -4 -1 -6c19 21 31 48 42 92l52 -6c-20 -72 -59 -111 -104 -137c-3 -14 -7 -29 -10 -50l-49 -308
c-13 -80 -77 -145 -183 -145c-66 0 -106 34 -126 74c-32 -40 -84 -74 -150 -74c-94 0 -139 51 -139 118c0 9 1 18 2 27l52 330c13 84 84 151 180 151zM252 460c31 0 55 22 60 52c1 3 1 7 1 10c0 25 -17 42 -45 42c-31 0 -55 -22 -60 -52c-1 -3 -1 -7 -1 -10
c0 -25 17 -42 45 -42zM598 490c31 0 55 22 60 52c1 3 1 7 1 10c0 25 -17 42 -45 42c-31 0 -55 -22 -60 -52c-1 -3 -1 -7 -1 -10c0 -25 17 -42 45 -42z" />
    <glyph glyph-name="uni0E9D" unicode="&#xe9d;" horiz-adv-x="765" 
d="M251 460c31 0 55 22 60 52c1 3 1 7 1 10c0 25 -17 42 -45 42c-31 0 -55 -22 -60 -52c-1 -3 -1 -7 -1 -10c0 -25 17 -42 45 -42zM274 608c54 0 89 -31 89 -79c0 -5 0 -11 -1 -17c-9 -57 -58 -96 -118 -96c-31 0 -56 10 -71 28c0 -9 -1 -20 -3 -33l-45 -284
c-1 -5 -1 -11 -1 -16c0 -45 35 -66 78 -66c51 0 92 34 101 89l32 196h74l-30 -196c-1 -6 -2 -12 -2 -18c0 -44 30 -71 75 -71c48 0 94 27 103 82l108 683h83l-108 -683c-13 -80 -77 -145 -183 -145c-66 0 -106 34 -126 74c-32 -40 -84 -74 -150 -74c-94 0 -139 51 -139 118
c0 9 1 18 2 27l52 330c13 84 84 151 180 151z" />
    <glyph glyph-name="uni0E9E" unicode="&#xe9e;" horiz-adv-x="760" 
d="M165 460c31 0 55 22 60 52c1 3 1 7 1 10c0 25 -17 42 -45 42c-31 0 -55 -22 -60 -52c-1 -3 -1 -7 -1 -10c0 -25 17 -42 45 -42zM158 416c-54 0 -89 31 -89 79c0 5 0 11 1 17c9 57 58 96 118 96c54 0 89 -31 89 -79c0 -5 0 -11 -1 -17c-16 -101 -90 -137 -104 -227
l-25 -159c-1 -6 -1 -12 -1 -17c0 -44 32 -64 72 -64c46 0 87 34 96 89l31 196h74l-31 -196c-1 -6 -2 -12 -2 -18c0 -44 29 -71 70 -71c45 0 88 26 97 81l75 474h84l-75 -474c-13 -80 -78 -144 -178 -144c-62 0 -100 33 -120 72c-32 -39 -82 -72 -144 -72
c-89 0 -134 51 -134 118c0 9 1 17 2 26l25 159c9 57 55 99 89 132c-6 -1 -12 -1 -19 -1z" />
    </font>
</defs>
</svg>
